<?xml version="1.0" encoding="utf-8"?>
<!-- Generator: Adobe Illustrator 28.3.0, SVG Export Plug-In . SVG Version: 6.00 Build 0)  -->
<svg version="1.1" xmlns="http://www.w3.org/2000/svg" xmlns:xlink="http://www.w3.org/1999/xlink" x="0px" y="0px"
	 viewBox="0 0 273.3 237.9" style="enable-background:new 0 0 273.3 237.9;" xml:space="preserve">
<style type="text/css">
	.st0{opacity:0.1;fill:#2B3990;}
	.st1{opacity:0.35;fill:#1C75BC;}
	.st2{opacity:0.15;}
	.st3{fill:none;stroke:#000000;stroke-width:2;stroke-linecap:round;stroke-linejoin:round;stroke-miterlimit:10;}
	.st4{opacity:0.28;}
	.st5{fill:none;stroke:#000000;stroke-width:22;stroke-linecap:round;stroke-linejoin:round;stroke-miterlimit:10;}
	.st6{fill:none;stroke:#ED1C24;stroke-width:16;stroke-linecap:round;stroke-linejoin:round;stroke-miterlimit:10;}
	.st7{fill:none;stroke:#479EE3;stroke-width:16;stroke-linecap:round;stroke-linejoin:round;stroke-miterlimit:10;}
	.st8{fill:none;stroke:#F7941D;stroke-width:16;stroke-linecap:round;stroke-linejoin:round;stroke-miterlimit:10;}
	.st9{fill:#B74B00;}
	.st10{fill:#921C24;}
	.st11{opacity:0.35;fill:#FFFFFF;}
</style>
<g id="Layer_5">
	<polygon class="st0" points="220.1,62.2 272.3,137.3 272.3,78.5 220.1,1.3 	"/>
	<polygon class="st1" points="27.8,87 27.8,147.9 80,223 272.3,137 272.3,78.1 220.1,1 	"/>
	<g class="st2">
		<polygon class="st3" points="272.3,137 220.1,61.9 27.8,147.9 80,223 		"/>
		<polygon class="st3" points="220.1,1 220.1,61.9 27.8,147.9 27.8,87 		"/>
		<polygon class="st3" points="220.1,61.9 272.3,137 272.3,78.1 220.1,1 		"/>
	</g>
</g>
<g id="Layer_1">
	<g class="st4">
		<path d="M224,14.6c0.3,0.5,0.8,1.2,1.1,1.5c0.8,4.3,1.9,8.8,2.9,13.6l0,0.1c1.1-1.2,2.1-3.1,2.9-4.9c0.2,0.4,0.6,1,0.9,1.4
			c0.2,0.3,0.7,1.1,0.9,1.3c-0.7,0.7-5.5,6.3-6.4,8.4c-0.2-0.4-0.9-1.4-1.1-1.7c-0.2-0.3-0.5-0.8-0.8-1c1-0.5,1.9-1.3,2.6-2.2
			c-0.8-3.7-3.4-14.5-4.3-18.1C223.2,13.4,223.7,14.2,224,14.6z"/>
		<path d="M238.2,45.9c-1.2-0.5-1.8-1.1-3-2.9c-1.6-2.4-2.7-5-2.7-7c0-1.8,1.4-1.2,3.6,1.5l2,2.5c0.1,0.1,0.2,0.1,0.2-0.1
			c0-3-1.3-5.1-2.1-6.3c-1.1-1.6-1.8-1.6-2.4-1.3l-0.3-0.4l-0.4-2.3l0.1,0c0.6,0.3,1.6,0.8,3.2,3.2c1.7,2.5,3.6,6.1,3.6,9.7
			c0,0.3-0.1,3.2-0.1,3.9c0,1.2,0.1,2,0.4,2.6c0.1,0.3,0.4,0.8,0.6,1.2c0.2,0.2,0.4,0.5,0.6,0.7l0.2,0.9c-0.5-0.1-1.2-0.9-1.8-1.8
			c-0.8-1.2-1.5-2.7-1.7-4.1L238.2,45.9z M236.4,39.1c-1.7-2-2.2-1.8-2.2-0.6c0,0.8,0.6,2.6,1.6,4c0.7,1,1.4,1.6,2,2
			c0.2,0.1,0.3,0.1,0.3-0.2l0.1-3L236.4,39.1z"/>
		<path d="M244.4,47.5c1-0.6,1.6-0.5,2.8,1.3c0.4,0.6,0.4,0.7,0.8,1.4l0.1,0.2l-0.4,1.3l-0.2-0.2c-0.3-0.7-0.7-1.4-1.1-2.1
			c-0.4-0.6-0.9-1-1.2-0.9c-0.5,0.2-0.7,0.4-0.7,1.5v1.4c0,2,0,3.3,0.2,5.1l0,0c-0.3-0.4-0.8-1.2-1-1.6c-0.3-0.4-0.8-1.1-1-1.5
			l0-0.1c0.2-1.2,0.2-2.5,0.2-4.5v-1.5c0-2,0-4.1-0.2-5.5l0,0c0.5,0.8,1.3,1.9,1.8,2.6c0.1,0.2,0.1,0.3,0.1,0.5v2.4L244.4,47.5z"/>
		<path d="M257.2,75.3L257.2,75.3c-0.3-0.4-0.8-1.2-1.1-1.6c-0.3-0.4-0.8-1.1-1-1.5l0-0.1c0.2-1.2,0.2-2.5,0.2-4.5V65
			c0-2.2-0.5-3.4-1.6-5c-0.8-1.2-2.1-2.5-3.2-2.5v3.1c0,2,0,3.3,0.2,5.1l0,0c-0.3-0.4-0.8-1.2-1-1.6c-0.3-0.4-0.8-1.1-1-1.5l0-0.1
			c0.2-1.2,0.2-2.5,0.2-4.5v-1.5c0-2,0-4.1-0.2-5.5l0,0c0.5,0.8,1.3,1.9,1.8,2.6c0.1,0.2,0.1,0.3,0.1,0.5v1.9l0,0.1
			c1.4,0.1,3,2,3.8,3.2c2,2.9,2.7,5.5,2.7,8.3c0,0.9,0,1.8,0,2.6C257,72.2,257,73.5,257.2,75.3z"/>
		<path d="M227.8,40c3,4.4,4.6,9.2,4.6,12.8c0,3.5-1.8,3.4-4.7-0.9c-2.9-4.3-4.7-9.4-4.7-12.7C223.1,35.4,224.9,35.8,227.8,40z
			 M225,41.6c0,2.1,0.6,6,2.9,9.5c1.5,2.2,2.5,1.9,2.5-0.7c0-3.2-0.5-6.1-2.8-9.6C225.6,37.8,225,39.3,225,41.6z"/>
		<path d="M236.1,64.3c-2.2-3.2-2.9-6.1-2.9-8v-3.2c0-2,0-3.3-0.2-5.1l0,0c0.3,0.4,0.8,1.2,1,1.6c0.3,0.4,0.8,1.1,1,1.5l0,0.1
			c-0.2,1.2-0.2,2.5-0.2,4.5v2.6c0,2.5,0.7,3.8,1.5,5c1.1,1.6,2.3,2,3,1.7v-2.6c0-2,0-3.3-0.2-5.1l0,0c0.3,0.4,0.8,1.2,1,1.6
			c0.3,0.4,0.8,1.1,1,1.5l0,0.1c-0.2,1.2-0.2,2.5-0.2,4.5v1.5c0,2,0.2,4.3,0.4,5.7l0,0c-0.3-0.5-0.7-1.1-1-1.5
			c-0.3-0.5-0.6-0.8-0.9-1.2c-0.1-0.1-0.1-0.2-0.1-0.2l-0.1-2.5l-0.1-0.2C238.7,66.8,237.5,66.3,236.1,64.3z"/>
		<path d="M244,60.8L244,60.8c0.8,0.9,1,1,1.6,1.6c0.1,0.2,0.2,0.4,0.2,0.6c-0.1,1.4-0.1,1.7-0.1,3.7l1,1.5c0.5,0.8,1.1,1.7,1.5,2.2
			l0.1,0.4c-0.1,0.2-0.2,0.4-0.3,0.7c-0.3-0.5-1.1-1.6-1.6-2.4l-0.8-1.2v3.4c0,1.6-0.1,2.7-0.1,3.5c0,1.4,0.2,2.4,0.7,3.3
			c0.5,0.9,1.1,1.6,1.7,2.4l0.3,1.1c-0.9-0.6-1.6-1.4-2.6-2.8c-1-1.5-1.9-3.7-1.9-5.4c0-0.8,0.1-2.6,0.1-4.2v-3.7
			c-0.5-0.7-1.2-1.7-1.6-2.3l-0.1-0.3c0.2-0.1,0.3-0.2,0.5-0.4c0.3,0.4,0.7,1.1,1.2,1.8C243.9,62.5,243.9,61.7,244,60.8z"/>
	</g>
	<g class="st4">
		<path d="M39.7,152.3c-1.3-2.2-2.6-4.4-3.5-5.6l0-0.1c1.1-0.6,1.5-1.1,2-1.7c0.2-0.1,0.3,0,0.4,0.2c0.9,1.9,1.7,3.5,2.9,5.7
			l5.1,8.9c1.3,2.2,2.4,4.2,3.6,5.8l0,0.1c-0.4,0.1-1,0.4-1.3,0.5c-0.3,0.2-0.9,0.5-1.2,0.7l-0.1-0.1c-0.7-1.7-1.9-3.8-3.1-6
			L39.7,152.3z"/>
		<path d="M59.8,159.1c-0.7,2-1.2,2.8-2.7,3.5c-2,1-4,0.6-5.2-1.6c-1.1-2-0.3-4.4,2.1-6.4l2.2-1.8c0.1-0.1,0.1-0.2,0-0.4
			c-1.9-3.3-3.6-2.7-4.6-2.2c-1.3,0.6-1.6,2.2-1.6,3.9l-0.4,0.1l-1.6-1.8l0-0.2c0.3-0.9,1-2.6,3-3.6c2.1-1,5-1.3,7.2,2.6
			c0.2,0.3,2,3.6,2.5,4.5c0.8,1.3,1.3,1.9,1.8,2.1c0.3,0.1,0.7,0,0.9-0.2c0.2-0.1,0.4-0.2,0.6-0.5l0.6,0.6c-0.2,1-1,1.6-1.6,1.9
			c-1,0.5-2.1,0.3-3.1-0.7L59.8,159.1z M55,155.6c-1.8,1.6-1.8,2.9-1,4.2c0.5,0.9,1.8,1.4,3,0.8c0.8-0.4,1.4-1.4,1.8-2.3
			c0.1-0.3,0.2-0.6-0.1-1l-1.9-3.6L55,155.6z"/>
		<path d="M60.3,144.5c0.4-0.2,1-0.5,1.3-0.7c2.9,2.9,6.1,5.6,9.5,8.4l0.1,0c-0.4-3.7-1.3-8.1-2.2-11.9c0.3,0,0.8-0.3,1.1-0.4
			c0.3-0.1,0.9-0.4,1.1-0.6c0.2,2.4,2.3,19.3,3.4,23.5c-0.3,0-1.1,0.4-1.4,0.5c-0.3,0.1-0.6,0.4-0.9,0.6c0-2.8-0.2-5.6-0.6-8.2
			c-2.6-2.3-10.2-8.4-12.7-10.5C59.3,145,60,144.7,60.3,144.5z"/>
		<path d="M88.9,144c-0.2,2-1.3,4-3.2,4.9c-1.8,0.9-3.8,0.9-5.4,0.1c-1.6-0.8-2.9-2.3-3.8-3.9c-2.5-4.3-1.1-8.1,1.7-9.5
			c3.6-1.7,6.5,0.9,7.9,3.3c0.2,0.3,0.1,0.6-0.2,0.7l-7.4,3.5c1,1.7,1.8,2.8,2.8,3.4c1.5,0.9,3,0.7,3.9,0.3c1.5-0.7,2.5-1.8,2.8-3.4
			L88.9,144z M82.8,139.6c0.3-0.1,0.3-0.3,0.1-0.6c-1.3-2.2-3.1-2.7-4.2-2.2c-0.9,0.4-2.3,1.9-1,5.2L82.8,139.6z"/>
		<path d="M90.3,133.8c-0.1-2.8,0.2-4.1,1.7-4.8c0.5-0.2,0.6-0.2,1.1-0.3l0.2,0.1l0.7,2.4l-0.2,0.2c-0.6-0.2-1.1,0-1.7,0.3
			c-0.5,0.2-0.9,0.9-0.9,1.8c0,1.3,0,2.1,0.7,3.4l0.9,1.5c1.3,2.2,2.1,3.6,3.3,5.2l0,0.1c-0.4,0.1-1,0.4-1.3,0.5
			c-0.3,0.2-0.9,0.5-1.2,0.7l-0.1-0.1c-0.7-1.7-1.5-3.2-2.8-5.4l-0.9-1.6c-1.3-2.2-2.6-4.4-3.5-5.6l0-0.1c0.7-0.2,1.6-0.7,2.2-1.1
			c0.1-0.1,0.2,0,0.3,0.2l1.5,2.7L90.3,133.8z"/>
		<path d="M102.1,122.6c-1.3-2.2-2.6-4.4-3.5-5.6l0-0.1c1.1-0.6,1.5-1.1,2-1.7c0.2-0.1,0.3,0,0.4,0.2c0.9,1.9,1.7,3.5,2.9,5.7
			l5.1,8.9c1.3,2.2,2.4,4.2,3.6,5.8l0,0.1c-0.4,0.1-1,0.4-1.3,0.5s-0.9,0.5-1.2,0.7l-0.1-0.1c-0.7-1.7-1.9-3.8-3.1-6L102.1,122.6z"
			/>
		<path d="M114.2,118.4c3.7-1.8,7.2-0.1,9.5,3.9c2.2,3.9,1.6,7.7-2,9.4c-3.6,1.7-7.4,0-9.4-3.6C109.8,124,110.6,120.1,114.2,118.4z
			 M114.3,126.5c1.3,2.3,4,5.3,6.9,3.9c1.8-0.9,1.9-3.6,0.3-6.4c-2-3.6-4-5.7-6.9-4.3C112.1,120.9,112.9,123.9,114.3,126.5z"/>
		<path d="M128,111.8c3.7-1.8,7.2-0.1,9.5,3.9c2.2,3.9,1.6,7.7-2,9.4c-3.6,1.7-7.4,0-9.4-3.6C123.7,117.4,124.4,113.5,128,111.8z
			 M128.2,119.9c1.3,2.3,4,5.3,6.9,3.9c1.8-0.9,1.9-3.6,0.3-6.4c-2-3.6-4-5.7-6.9-4.3C125.9,114.3,126.7,117.3,128.2,119.9z"/>
		<path d="M140.7,109.2c0.1-2.7,1.1-3.9,2.2-4.4c3.1-1.5,6.5,0.8,8.3,3.9c2.4,4.2,1.9,8.2-1.7,9.9c-1,0.5-2.1,0.7-3.1,0.6l0.7,1.3
			c1.3,2.2,2.5,4.2,3.6,5.8l0,0.1c-0.4,0.1-1,0.4-1.3,0.5c-0.3,0.2-0.9,0.5-1.2,0.7l-0.1-0.1c-0.7-1.7-1.9-3.8-3.1-6l-4.5-7.9
			c-1.3-2.2-2.6-4.4-3.5-5.6l0-0.1c0.7-0.2,1.6-0.7,2.2-1.1c0.1-0.1,0.2,0,0.3,0.2l1.2,2.2L140.7,109.2z M145.2,117.3
			c1.6,0.8,2.9,0.3,3.3,0.1c2.9-1.4,1.8-4.8,0.4-7.2c-1.9-3.3-3.9-4.7-5.8-3.8c-1.1,0.5-1.9,2.6-1.6,4.5L145.2,117.3z"/>
		<path d="M155.8,90.7c0.7-0.4,1.8,0,2.3,0.8c0.5,0.8,0.2,1.8-0.5,2.2c-0.7,0.4-1.8,0-2.3-0.8C154.8,92.1,155.1,91.1,155.8,90.7z
			 M158.1,97.8l0-0.1c0.6-0.2,1.8-0.8,2.4-1.2c0.2-0.1,0.3-0.1,0.4,0.2c0.9,1.9,1.4,3,2.7,5.2l1.2,2.1c1.3,2.2,2.1,3.6,3.3,5.2
			l0,0.1c-0.4,0.1-1,0.4-1.3,0.5c-0.3,0.2-0.9,0.5-1.2,0.7l-0.1-0.1c-0.7-1.7-1.5-3.2-2.8-5.4l-0.9-1.6
			C160.4,101.2,159,99,158.1,97.8z"/>
		<path d="M183,102.1l0,0.1c-0.4,0.1-1,0.4-1.3,0.5c-0.3,0.2-0.9,0.5-1.2,0.7l-0.1-0.1c-0.7-1.7-1.5-3.2-2.8-5.4l-1.7-2.9
			c-1.4-2.4-2.3-2.7-3.7-2c-1,0.5-2.2,1.9-2.6,4.3l2,3.5c1.3,2.2,2.1,3.6,3.3,5.2l0,0.1c-0.4,0.1-1,0.4-1.3,0.5
			c-0.3,0.2-0.9,0.5-1.2,0.7l-0.1-0.1c-0.7-1.7-1.5-3.2-2.8-5.4l-0.9-1.6c-1.3-2.2-2.6-4.4-3.5-5.6l0-0.1c0.7-0.2,1.6-0.7,2.2-1.1
			c0.1-0.1,0.2,0,0.3,0.2l1.2,2.2l0.1,0.1c0.5-3,2.2-4.4,3.2-4.9c2.5-1.2,4.3,0,6,3.1c0.5,0.9,1.1,2.1,1.6,3
			C181,99.1,181.9,100.5,183,102.1z"/>
	</g>
	<g class="st4">
		<path d="M32.8,128.3c0.5-0.1,1.3-0.5,1.9-0.8c0.4-0.2,1.2-0.6,1.6-0.8c1.2,3.1,2.2,6.2,3.8,9.2l0.2-0.1c0.9-2.4,1.8-5.2,2.7-8
			c-0.5-1.2-1.1-2.4-1.5-3.5c0.5-0.1,1.3-0.5,1.9-0.8c0.4-0.2,1.2-0.6,1.6-0.8c0.7,3,1.7,6.6,3.1,9.5l0.3-0.1
			c1.3-3.7,2.8-8.5,3.9-12.8c0.3,0,0.8-0.3,1.1-0.4s1.1-0.5,1.4-0.7c-1.8,4.9-4.4,12.2-6,16.7c-0.3,0-0.9,0.3-1.2,0.5
			c-0.3,0.1-0.5,0.2-0.8,0.5c-0.9-2.1-1.9-4.2-2.9-6.2c-1,3-2,6.1-2.8,8.9c-0.3,0-0.8,0.3-1.2,0.4c-0.3,0.1-0.7,0.3-1.1,0.6
			C36.9,135.6,34.9,132,32.8,128.3z"/>
		<path d="M65,125.5c-1.7,2.2-2.6,3.1-4.4,3.9c-2.4,1.1-4,0.8-4-1.6c0-2.2,2-4.9,5.3-7.1l3-2.1c0.1-0.1,0.2-0.3,0.2-0.5
			c0-3.6-1.9-2.9-3.1-2.3c-1.5,0.7-2.6,2.5-3.5,4.4l-0.4,0.2l-0.5-1.9l0.1-0.2c0.8-1,2.3-2.9,4.7-4c2.4-1.1,5.3-1.6,5.3,2.7
			c0,0.4-0.1,3.9-0.1,4.9c0,1.4,0.2,2.1,0.5,2.2c0.2,0.1,0.6,0,0.9-0.2c0.2-0.1,0.5-0.3,0.9-0.6l0.2,0.7c-0.8,1.2-1.7,1.8-2.5,2.2
			c-1.2,0.5-2.1,0.4-2.5-0.7L65,125.5z M62.4,121.8c-2.5,1.8-3.2,3.2-3.2,4.7c0,1,0.9,1.5,2.4,0.8c1-0.4,2-1.5,2.9-2.6
			c0.3-0.3,0.4-0.6,0.4-1l0.1-3.9L62.4,121.8z"/>
		<path d="M73.5,107.7c0-2.4,0-4.8-0.3-6l0.1-0.1c1.3-0.7,2-1.2,2.8-1.9c0.2-0.1,0.3,0,0.3,0.2c-0.2,2.1-0.3,3.8-0.3,6.1v9.6
			c0,2.4,0,4.6,0.3,6.3l-0.1,0.1c-0.4,0.1-1.1,0.4-1.5,0.6c-0.4,0.2-1.1,0.6-1.5,0.8l-0.1-0.1c0.2-1.8,0.3-4.1,0.3-6.5V107.7z"/>
		<path d="M91.9,112c-1.2,2.2-3.3,4.4-5.6,5.4c-2.2,1-4,1.1-5.1,0.3c-1.1-0.8-1.4-2.4-1.4-4.2c0-4.7,3.3-8.9,6.6-10.4
			c4.2-2,5.5,0.8,5.5,3.5c0,0.4-0.2,0.6-0.6,0.8l-8.7,4.1c0,1.9,0.2,3.1,0.8,3.7c0.9,1,2.4,0.7,3.5,0.2c1.8-0.8,3.3-2.1,4.4-3.8
			L91.9,112z M88.6,107.3c0.3-0.1,0.4-0.4,0.4-0.7c0-2.4-1.4-2.9-2.7-2.3c-1,0.5-3.1,2.2-3.6,5.7L88.6,107.3z"/>
		<path d="M104.1,93.4c0-2.4,0-4.8-0.3-6l0.1-0.1c1.3-0.7,2-1.2,2.8-1.9c0.2-0.1,0.3,0,0.3,0.2c-0.2,2.1-0.3,3.8-0.3,6.1v9.6
			c0,2.4,0,4.6,0.3,6.3l-0.1,0.1c-0.4,0.1-1.1,0.4-1.5,0.6c-0.4,0.2-1.1,0.6-1.5,0.8l-0.1-0.1c0.2-1.8,0.3-4.1,0.3-6.5V93.4z"/>
		<path d="M117.4,88.6c4.3-2,6.7-0.3,6.7,4.1c0,4.2-2.6,8.4-6.8,10.3c-4.3,2-6.8,0.1-6.8-3.7C110.5,94.8,113.2,90.5,117.4,88.6z
			 M113.3,97.4c0,2.5,0.9,5.7,4.3,4.2c2.1-1,3.7-4,3.7-7c0-3.9-0.7-6.2-4.1-4.6C114.1,91.4,113.3,94.7,113.3,97.4z"/>
		<path d="M133.6,81c4.3-2,6.7-0.3,6.7,4.1c0,4.2-2.6,8.4-6.8,10.3c-4.3,2-6.8,0.1-6.8-3.7C126.7,87.2,129.4,83,133.6,81z
			 M129.5,89.9c0,2.5,0.9,5.7,4.3,4.2c2.1-1,3.7-4,3.7-7c0-3.9-0.7-6.2-4.1-4.6C130.4,83.8,129.5,87.1,129.5,89.9z"/>
		<path d="M146.7,77.8c1.5-2.9,3.1-4.3,4.3-4.9c3.6-1.7,5.6,0.7,5.6,4.1c0,4.5-2.6,8.9-6.8,10.9c-1.2,0.5-2.3,0.8-3.2,0.8V90
			c0,2.4,0.1,4.5,0.3,6.3l-0.1,0.1c-0.4,0.1-1.1,0.4-1.5,0.6c-0.4,0.2-1.1,0.6-1.5,0.8l-0.1-0.1c0.2-1.8,0.3-4.1,0.3-6.5v-8.5
			c0-2.4-0.1-4.8-0.3-6.1l0.1-0.1c0.7-0.3,1.9-0.8,2.6-1.3c0.2-0.1,0.2,0,0.2,0.2L146.7,77.8L146.7,77.8z M146.7,86.6
			c1.1,0.8,2.5,0.3,3,0.1c3.4-1.6,4.2-5.3,4.2-8c0-3.6-1.1-5.1-3.3-4.1c-1.2,0.6-3.1,2.9-3.8,5V86.6z"/>
		<path d="M174.3,62c4.3-2,6.7-0.3,6.7,4.1c0,4.2-2.6,8.4-6.8,10.3c-4.3,2-6.8,0.1-6.8-3.7C167.4,68.2,170.1,64,174.3,62z
			 M170.2,70.9c0,2.5,0.9,5.7,4.3,4.2c2.1-1,3.7-4,3.7-7c0-3.9-0.7-6.2-4.1-4.6C171.1,64.8,170.2,68.1,170.2,70.9z"/>
		<path d="M189.1,69.5c-3.2,1.5-4.2-0.3-4.2-2.5v-3.8c0-2.4,0-3.9-0.3-5.6l0.1-0.1c0.4-0.1,1.1-0.4,1.5-0.6c0.4-0.2,1.1-0.6,1.5-0.8
			l0.1,0.1c-0.3,1.8-0.3,3.5-0.3,5.9v3.2c0,3,1,2.8,2.1,2.3c1.6-0.7,3.4-3.3,4.4-5.4V59c0-2.4,0-3.9-0.3-5.6l0.1-0.1
			c0.4-0.1,1.1-0.4,1.5-0.6c0.4-0.2,1.1-0.6,1.5-0.8l0.1,0.1c-0.3,1.8-0.3,3.5-0.3,5.9v1.8c0,2.4,0.3,4.6,0.5,5.9l-0.1,0.1
			c-0.4,0.1-1,0.4-1.4,0.6c-0.5,0.2-0.8,0.4-1.3,0.7c-0.1,0-0.1,0-0.1,0L194,64l-0.1,0C192.8,66.1,191,68.6,189.1,69.5z"/>
		<path d="M202.6,45.1l0.1-0.1c1-0.6,1.4-1.1,2.2-1.8c0.2-0.1,0.3,0,0.3,0.2c-0.1,1.9-0.2,2.4-0.2,4.7l1.5-0.7
			c0.7-0.3,1.7-0.8,2.2-1.1l0.2,0.1c-0.2,0.6-0.3,0.9-0.4,1.5c-0.4,0.2-1.5,0.7-2.3,1l-1.2,0.6v4c0,1.9-0.1,3.3-0.1,4.3
			c0,1.7,0.3,2.4,1.1,2.1c0.8-0.2,1.5-0.6,2.5-1.4l0.4,0.6c-1.3,1.5-2.4,2.3-3.7,2.9c-1.5,0.7-2.8,0.3-2.8-1.8c0-1,0.1-3.3,0.1-5.2
			v-4.4c-0.7,0.3-1.7,0.8-2.3,1.1l-0.2-0.1c0.3-0.6,0.5-1,0.7-1.6c0.4-0.1,1.1-0.4,1.7-0.7C202.4,47.4,202.5,46.2,202.6,45.1z"/>
	</g>
</g>
<g id="Layer_3">
	<path class="st5" d="M176.1,69.3c23.7,4,19.6,33,19.6,54.1"/>
	<path class="st5" d="M102.7,172.9c4.9-27.6-17.4-48.2-7.1-68.2"/>
	<path class="st5" d="M133.5,127.3c0.7-7.4-4.2-13-11-18.2c-8.7-6.8-20.5-13.1-27.3-22"/>
	<path class="st6" d="M126.6,112.4c-0.9-0.8-2.5-2.1-3.6-3c-8.7-6.8-21.1-13.6-27.9-22.4"/>
	<path class="st5" d="M170.4,96.5c-0.2-0.3-1.4-2.5-1.6-2.8c-4-8.2-7.7-19.7-14.9-29.1"/>
	<path class="st6" d="M167.9,91.9c-4-8.2-6.7-17.9-13.9-27.2"/>
	<path class="st5" d="M95.6,104.8c4.3-8.3,14.2-16.5,34.1-25.1c21.9-9.4,36.6-12.1,46.5-10.4"/>
	<path class="st7" d="M102.7,172.9c6.9-39-40.7-64.2,26.9-93.2c74.3-31.9,66.1,13.9,66.1,43.7"/>
	<path class="st5" d="M204,139.7c-13.2-22.5-26.6-19.4-25.4-29.1c1.6-12.5,24.5-24,22.4-46.7"/>
	<path class="st8" d="M204,139.7c-13.2-22.5-26.6-19.4-25.4-29.1c1.6-12.5,24.5-24,22.4-46.7"/>
	<path class="st5" d="M148.1,166.7c-13.2-22.5-10.3-25.1-25.1-30.2c-13.9-4.8-15.9-2.4-18-25.2"/>
	<path class="st8" d="M148.1,166.7c-13.2-22.5-10.3-25.1-25.1-30.2c-13.9-4.8-15.9-2.4-18-25.2"/>
	<path class="st5" d="M64.6,172.9c36.5-12.6,67.2-27,68.9-45.7"/>
	<path class="st6" d="M64.6,172.9c36.5-12.6,67.2-27,68.9-45.7c0.6-6.2-2-10.5-6.9-14.8"/>
	<path class="st5" d="M255.4,89.6c-34.1,18.2-58.1,27.3-75.6,16.4c-4.2-2.6-7.1-5.8-9.4-9.5"/>
	<path class="st6" d="M255.4,89.6c-34.1,18.2-57.1,25.6-75.6,16.4c-5.5-2.7-9.7-9-13-16.4"/>
	<path class="st9" d="M112.5,107.7c0,2.2-3.4,4-7.6,4c-4.2,0-7.6-1.8-7.6-4s3.4-4.7,7.6-4.7C109.1,103,112.5,105.4,112.5,107.7z"/>
	<path class="st9" d="M156.8,167.5c0.9,2-1.4,5.1-5.2,6.8c-3.8,1.8-7.6,1.6-8.6-0.4s1.1-5.7,4.9-7.4
		C151.7,164.7,155.8,165.5,156.8,167.5z"/>
	<path class="st9" d="M212.7,140.3c0.9,2-1.4,5.1-5.2,6.8c-3.8,1.8-7.6,1.6-8.6-0.4s1.1-5.7,4.9-7.4
		C207.7,137.5,211.8,138.3,212.7,140.3z"/>
	<path class="st9" d="M208.7,60.6c0,2.2-3.4,4-7.6,4c-4.2,0-7.6-1.8-7.6-4c0-2.2,3.4-4.7,7.6-4.7C205.3,55.9,208.7,58.4,208.7,60.6z
		"/>
	<path class="st10" d="M61.4,165.6c2.5-0.1,4.7,3.2,4.9,7.4c0.2,4.2-1.7,7.7-4.2,7.8c-2.5,0.1-5.5-3.2-5.7-7.4
		C56.2,169.2,58.9,165.7,61.4,165.6z"/>
</g>
<g id="Layer_2">
	<polygon class="st0" points="27.8,147.9 80,223 80,164.2 27.8,87 	"/>
	<polygon class="st11" points="220.1,1 272.3,78.1 80,164.2 27.8,87 	"/>
	<polygon class="st3" points="27.8,147.9 80,223 80,164.2 27.8,87 	"/>
	<polygon class="st3" points="220.1,1 272.3,78.1 80,164.2 27.8,87 	"/>
	<polygon class="st3" points="272.3,137 272.3,78.1 80,164.2 80,223 	"/>
</g>
<g id="Layer_4">
	<g>
		<path d="M38.2,93.4c-1.3-2.3-2.5-4.5-3.4-5.6l0-0.1c1.1-0.6,1.5-1.1,2.1-1.7c0.2-0.1,0.3,0,0.4,0.2c0.9,1.9,1.6,3.5,2.9,5.7l5,8.9
			c1.2,2.2,2.4,4.2,3.6,5.8l0,0.1c-0.4,0.1-1,0.4-1.3,0.5c-0.3,0.2-0.9,0.5-1.2,0.7l-0.1-0.1c-0.7-1.7-1.8-3.8-3.1-6.1L38.2,93.4z"
			/>
		<path d="M58.2,100.4c-0.7,2-1.3,2.8-2.8,3.4c-2,0.9-4,0.6-5.2-1.6c-1.1-2-0.3-4.4,2.2-6.4l2.2-1.8c0.1-0.1,0.1-0.2,0-0.4
			c-1.9-3.4-3.6-2.7-4.6-2.3c-1.3,0.6-1.6,2.2-1.6,3.9L48,95.3l-1.6-1.8l0-0.2c0.3-0.9,1-2.6,3.1-3.6c2.1-1,5-1.3,7.2,2.7
			c0.2,0.3,1.9,3.7,2.4,4.5c0.7,1.3,1.3,2,1.7,2.1c0.3,0.1,0.7,0,0.9-0.1c0.2-0.1,0.4-0.2,0.7-0.5l0.6,0.6c-0.2,1-1,1.6-1.7,1.9
			c-1,0.5-2.1,0.3-3.1-0.7L58.2,100.4z M53.4,96.8c-1.8,1.6-1.8,2.9-1.1,4.2c0.5,0.9,1.8,1.4,3,0.9c0.8-0.4,1.5-1.3,1.9-2.3
			c0.1-0.3,0.2-0.6,0-1l-1.9-3.6L53.4,96.8z"/>
		<path d="M58.9,85.8c0.4-0.2,1-0.5,1.3-0.7c2.9,2.9,6,5.6,9.4,8.5l0.1,0c-0.4-3.7-1.2-8.1-2.1-11.9c0.3,0,0.8-0.3,1.1-0.4
			c0.3-0.1,0.9-0.4,1.1-0.6c0.2,2.4,2.1,19.4,3.1,23.6c-0.3,0-1.2,0.3-1.4,0.5c-0.3,0.1-0.7,0.4-0.9,0.6c0-2.8-0.2-5.6-0.5-8.2
			c-2.5-2.4-10.1-8.5-12.6-10.7C57.8,86.3,58.5,86,58.9,85.8z"/>
		<path d="M87.4,85.7c-0.2,2-1.3,3.9-3.3,4.9c-1.8,0.9-3.8,0.8-5.4,0.1c-1.6-0.8-2.8-2.3-3.8-4c-2.4-4.4-1-8.1,1.8-9.4
			c3.6-1.7,6.5,0.9,7.9,3.4c0.2,0.3,0.1,0.6-0.2,0.7l-7.5,3.4c1,1.7,1.8,2.9,2.8,3.5c1.5,1,3,0.7,3.9,0.3c1.5-0.7,2.5-1.8,2.8-3.4
			L87.4,85.7z M81.4,81.3c0.3-0.1,0.3-0.3,0.2-0.6c-1.2-2.2-3.1-2.8-4.2-2.3c-0.9,0.4-2.3,1.9-1,5.2L81.4,81.3z"/>
		<path d="M89,75.5c0-2.8,0.2-4.1,1.7-4.8c0.5-0.2,0.6-0.2,1.1-0.2l0.2,0.1l0.7,2.5l-0.2,0.2c-0.6-0.2-1.1,0-1.7,0.2
			c-0.5,0.2-0.9,0.9-1,1.8c0,1.3,0,2.1,0.7,3.4l0.9,1.5c1.3,2.3,2.1,3.6,3.2,5.2l0,0.1c-0.4,0.1-1,0.4-1.3,0.5
			c-0.3,0.2-0.9,0.5-1.2,0.7l-0.1-0.1c-0.7-1.7-1.5-3.2-2.7-5.5l-0.9-1.6c-1.2-2.2-2.5-4.5-3.5-5.7l0-0.1c0.7-0.2,1.6-0.7,2.2-1.1
			c0.1-0.1,0.2,0,0.3,0.2l1.5,2.7L89,75.5z"/>
		<path d="M100.9,64.4c-1.3-2.3-2.5-4.5-3.4-5.6l0-0.1c1.1-0.6,1.5-1.1,2.1-1.7c0.2-0.1,0.3,0,0.4,0.2c0.9,1.9,1.6,3.5,2.9,5.7
			l5,8.9c1.2,2.2,2.4,4.2,3.6,5.8l0,0.1c-0.4,0.1-1,0.4-1.3,0.5c-0.3,0.2-0.9,0.5-1.2,0.7l-0.1-0.1c-0.7-1.7-1.8-3.8-3.1-6.1
			L100.9,64.4z"/>
		<path d="M113,60.4c3.7-1.7,7.2,0,9.4,4.1c2.2,3.9,1.5,7.7-2.1,9.3c-3.6,1.7-7.4-0.1-9.4-3.7C108.6,65.9,109.4,62.1,113,60.4z
			 M113.1,68.5c1.3,2.3,3.9,5.4,6.8,4c1.8-0.8,2-3.6,0.4-6.4c-2-3.6-3.9-5.8-6.8-4.4C110.9,62.9,111.6,65.9,113.1,68.5z"/>
		<path d="M126.9,54c3.7-1.7,7.2,0,9.4,4.1c2.2,3.9,1.5,7.7-2.1,9.3c-3.6,1.7-7.4-0.1-9.4-3.7C122.5,59.5,123.3,55.6,126.9,54z
			 M127,62.1c1.3,2.3,3.9,5.4,6.8,4c1.8-0.8,2-3.6,0.4-6.4c-2-3.6-3.9-5.8-6.8-4.4C124.8,56.5,125.5,59.5,127,62.1z"/>
		<path d="M139.6,51.5c0.1-2.7,1.1-3.9,2.2-4.4c3.1-1.4,6.5,0.8,8.2,4c2.3,4.2,1.8,8.2-1.8,9.9c-1,0.5-2.1,0.7-3.1,0.6l0.7,1.3
			c1.2,2.2,2.4,4.2,3.6,5.8l0,0.1c-0.4,0.1-1,0.4-1.3,0.5c-0.3,0.2-0.9,0.5-1.2,0.7l-0.1-0.1c-0.7-1.7-1.8-3.8-3.1-6.1l-4.4-7.9
			c-1.2-2.2-2.5-4.5-3.5-5.7l0-0.1c0.7-0.2,1.6-0.7,2.2-1.1c0.1-0.1,0.2,0,0.3,0.2l1.2,2.2L139.6,51.5z M144.1,59.6
			c1.6,0.8,2.9,0.4,3.3,0.2c2.9-1.4,1.8-4.8,0.5-7.2c-1.9-3.4-3.9-4.8-5.7-3.9c-1.1,0.5-1.9,2.6-1.7,4.5L144.1,59.6z"/>
		<path d="M161.8,37.8c3.7-1.7,7.2,0,9.4,4.1c2.2,3.9,1.5,7.7-2.1,9.3c-3.6,1.7-7.4-0.1-9.4-3.7C157.4,43.3,158.2,39.5,161.8,37.8z
			 M161.9,45.9c1.3,2.3,3.9,5.4,6.8,4c1.8-0.8,2-3.6,0.4-6.4c-2-3.6-3.9-5.8-6.8-4.4C159.7,40.3,160.4,43.3,161.9,45.9z"/>
		<path d="M181.8,45.4c-2.7,1.3-4.7-0.4-5.9-2.5l-2-3.6c-1.3-2.3-2.1-3.6-3.2-5.2l0-0.1c0.4-0.1,1-0.4,1.3-0.5
			c0.3-0.2,0.9-0.5,1.2-0.7l0.1,0.1c0.7,1.7,1.5,3.2,2.7,5.5l1.6,2.9c1.5,2.8,2.6,2.7,3.6,2.2c1.3-0.6,2-2.9,2-4.9l-1.6-2.9
			c-1.3-2.3-2.1-3.6-3.2-5.2l0-0.1c0.4-0.1,1-0.4,1.3-0.5c0.3-0.2,0.9-0.5,1.2-0.7l0.1,0.1c0.7,1.7,1.5,3.2,2.7,5.5l0.9,1.7
			c1.2,2.2,2.7,4.3,3.6,5.5l0,0.1c-0.4,0.1-0.9,0.3-1.3,0.5c-0.4,0.2-0.7,0.4-1,0.6c-0.1,0-0.1,0-0.2,0l-1.6-2.6l-0.2,0
			C184.2,42.4,183.5,44.6,181.8,45.4z"/>
		<path d="M184,23.2l0-0.1c0.8-0.5,1-1,1.5-1.6c0.2-0.1,0.3,0,0.4,0.2c0.8,1.8,1,2.2,2.3,4.4l1.3-0.6c0.6-0.3,1.4-0.7,1.9-0.9
			l0.3,0.1c0.1,0.5,0.2,0.9,0.3,1.4c-0.4,0.1-1.3,0.5-2,0.9l-1,0.5l2.1,3.7c1,1.8,1.6,3.1,2.1,4c0.9,1.6,1.5,2.2,2.3,2
			c0.8-0.2,1.4-0.5,2-1.2l0.7,0.6c-0.7,1.3-1.4,2-2.6,2.6c-1.3,0.6-2.9,0.2-4-1.7c-0.5-0.9-1.6-3.1-2.6-4.9l-2.3-4.1
			c-0.6,0.3-1.5,0.7-1.9,1l-0.3-0.1c0-0.6,0-0.9-0.1-1.5c0.4-0.1,0.9-0.4,1.5-0.6C185,25.3,184.5,24.2,184,23.2z"/>
	</g>
	<g>
		<path d="M87.2,203.4c0.5-0.1,1.3-0.5,1.9-0.8c0.4-0.2,1.2-0.6,1.6-0.8c1.2,3.1,2.2,6.2,3.8,9.2l0.2-0.1c0.9-2.4,1.8-5.2,2.7-8
			c-0.5-1.2-1.1-2.4-1.5-3.5c0.5-0.1,1.3-0.5,1.9-0.8c0.4-0.2,1.2-0.6,1.6-0.8c0.7,3,1.7,6.6,3.1,9.5l0.3-0.1
			c1.3-3.7,2.8-8.5,3.9-12.8c0.3,0,0.8-0.3,1.1-0.4c0.3-0.1,1.1-0.5,1.4-0.7c-1.8,4.9-4.4,12.2-6,16.7c-0.3,0-0.9,0.3-1.2,0.5
			c-0.3,0.1-0.5,0.2-0.8,0.5c-0.9-2.1-1.9-4.2-2.9-6.2c-1,3-2,6.1-2.8,8.9c-0.3,0-0.8,0.3-1.2,0.4c-0.3,0.1-0.7,0.3-1.1,0.6
			C91.3,210.7,89.4,207.1,87.2,203.4z"/>
		<path d="M119.5,200.6c-1.7,2.2-2.6,3.1-4.4,3.9c-2.4,1.1-4,0.8-4-1.6c0-2.2,2-4.9,5.3-7.1l3-2.1c0.1-0.1,0.2-0.3,0.2-0.5
			c0-3.6-1.9-2.9-3.1-2.3c-1.5,0.7-2.6,2.5-3.5,4.4l-0.4,0.2l-0.5-1.9l0.1-0.2c0.8-1,2.3-2.9,4.7-4c2.4-1.1,5.3-1.6,5.3,2.7
			c0,0.4-0.1,3.9-0.1,4.9c0,1.4,0.2,2.1,0.5,2.2c0.2,0.1,0.6,0,0.9-0.2c0.2-0.1,0.5-0.3,0.9-0.6l0.2,0.7c-0.8,1.2-1.7,1.8-2.5,2.2
			c-1.2,0.5-2.1,0.4-2.5-0.7L119.5,200.6z M116.9,196.9c-2.5,1.8-3.2,3.2-3.2,4.7c0,1,0.9,1.5,2.4,0.8c1-0.4,2-1.5,2.9-2.6
			c0.3-0.3,0.4-0.6,0.4-1l0.1-3.9L116.9,196.9z"/>
		<path d="M127.9,182.8c0-2.4,0-4.8-0.3-6l0.1-0.1c1.3-0.7,2-1.2,2.8-1.9c0.2-0.1,0.3,0,0.3,0.2c-0.2,2.1-0.3,3.8-0.3,6.2v9.6
			c0,2.4,0,4.6,0.3,6.3l-0.1,0.1c-0.4,0.1-1.1,0.4-1.5,0.6c-0.4,0.2-1.1,0.6-1.5,0.8l-0.1-0.1c0.2-1.8,0.3-4.1,0.3-6.5V182.8z"/>
		<path d="M146.3,187.1c-1.2,2.2-3.3,4.4-5.6,5.4c-2.2,1-4,1.1-5.1,0.3c-1.1-0.8-1.4-2.4-1.4-4.2c0-4.7,3.3-8.9,6.6-10.4
			c4.2-2,5.5,0.8,5.5,3.5c0,0.4-0.2,0.6-0.6,0.8l-8.7,4.1c0,1.9,0.2,3.1,0.8,3.7c0.9,1,2.4,0.7,3.5,0.2c1.8-0.8,3.3-2.1,4.4-3.8
			L146.3,187.1z M143,182.4c0.3-0.1,0.4-0.4,0.4-0.7c0-2.4-1.4-2.9-2.7-2.3c-1,0.5-3.1,2.2-3.6,5.7L143,182.4z"/>
		<path d="M158.5,168.5c0-2.4,0-4.8-0.3-6l0.1-0.1c1.3-0.7,2-1.2,2.8-1.9c0.2-0.1,0.3,0,0.3,0.2c-0.2,2.1-0.3,3.8-0.3,6.2v9.6
			c0,2.4,0,4.6,0.3,6.3l-0.1,0.1c-0.4,0.1-1.1,0.4-1.5,0.6c-0.4,0.2-1.1,0.6-1.5,0.8l-0.1-0.1c0.2-1.8,0.3-4.2,0.3-6.5V168.5z"/>
		<path d="M171.8,163.7c4.3-2,6.7-0.3,6.7,4.1c0,4.2-2.6,8.4-6.8,10.3c-4.3,2-6.8,0.1-6.8-3.7C164.9,169.8,167.6,165.6,171.8,163.7z
			 M167.7,172.5c0,2.5,0.9,5.7,4.3,4.2c2.1-1,3.7-4,3.7-7c0-3.9-0.7-6.2-4.1-4.6C168.6,166.5,167.7,169.7,167.7,172.5z"/>
		<path d="M188,156.1c4.3-2,6.7-0.3,6.7,4.1c0,4.2-2.6,8.4-6.8,10.3c-4.3,2-6.8,0.1-6.8-3.7C181.1,162.3,183.9,158.1,188,156.1z
			 M183.9,165c0,2.5,0.9,5.7,4.3,4.2c2.1-1,3.7-4,3.7-7c0-3.9-0.7-6.2-4.1-4.6C184.8,158.9,183.9,162.2,183.9,165z"/>
		<path d="M201.2,152.9c1.5-2.9,3.1-4.3,4.3-4.9c3.6-1.7,5.6,0.7,5.6,4.1c0,4.5-2.6,8.9-6.8,10.9c-1.2,0.5-2.3,0.8-3.2,0.8v1.4
			c0,2.4,0.1,4.5,0.3,6.3l-0.1,0.1c-0.4,0.1-1.1,0.4-1.5,0.6c-0.4,0.2-1.1,0.6-1.5,0.8l-0.1-0.1c0.2-1.8,0.3-4.2,0.3-6.5v-8.5
			c0-2.4-0.1-4.8-0.3-6.1l0.1-0.1c0.7-0.3,1.9-0.8,2.6-1.3c0.2-0.1,0.2,0,0.2,0.2L201.2,152.9L201.2,152.9z M201.1,161.7
			c1.1,0.8,2.5,0.3,3,0.1c3.4-1.6,4.2-5.3,4.2-8c0-3.6-1.1-5.1-3.3-4.1c-1.2,0.6-3.1,2.9-3.8,5V161.7z"/>
		<path d="M224.8,132.3c0.9-0.4,1.6,0,1.6,0.9s-0.8,2-1.6,2.4c-0.9,0.4-1.6,0-1.6-0.9S224,132.7,224.8,132.3z M223.2,140l0.1-0.1
			c0.7-0.3,2.1-0.9,2.8-1.3c0.2-0.1,0.3-0.1,0.3,0.2c-0.2,2-0.3,3.2-0.3,5.6v2.3c0,2.4,0.1,3.9,0.3,5.6l-0.1,0.1
			c-0.4,0.1-1.1,0.4-1.5,0.6c-0.4,0.2-1.1,0.6-1.5,0.8l-0.1-0.1c0.2-1.8,0.3-3.5,0.3-5.9v-1.8C223.5,143.7,223.4,141.3,223.2,140z"
			/>
		<path d="M244,144.1l-0.1,0.1c-0.4,0.1-1.1,0.4-1.5,0.6c-0.4,0.2-1.1,0.6-1.5,0.8l-0.1-0.1c0.2-1.8,0.3-3.5,0.3-5.9v-3.1
			c0-2.6-0.7-2.9-2.3-2.2c-1.2,0.5-3,2.1-4.6,4.8v3.7c0,2.4,0,3.9,0.3,5.6l-0.1,0.1c-0.4,0.1-1.1,0.4-1.5,0.6
			c-0.4,0.2-1.1,0.6-1.5,0.8l-0.1-0.1c0.3-1.8,0.3-3.5,0.3-5.9v-1.8c0-2.4-0.1-4.8-0.3-6.1l0.1-0.1c0.7-0.3,1.9-0.8,2.6-1.3
			c0.1-0.1,0.2,0,0.2,0.2v2.3l0.1,0.1c2-3.4,4.3-4.9,5.5-5.5c2.9-1.3,4-0.1,4,3.2c0,1-0.1,2.2-0.1,3.3
			C243.7,140.9,243.7,142.4,244,144.1z"/>
	</g>
	<g>
		<path d="M20,149.7c0.2,0.4,0.6,1,1,1.2c-2.4,3-4.5,6.3-6.8,9.7l0,0.1c3.6-0.6,7.8-1.6,11.5-2.6c0.1,0.3,0.4,0.8,0.6,1.1
			c0.2,0.3,0.6,0.9,0.8,1.1c-2.4,0.3-19,3-22.9,4.2c-0.1-0.3-0.6-1.1-0.7-1.4s-0.5-0.6-0.8-0.8c2.8-0.1,5.6-0.4,8.1-0.9
			c1.9-2.6,6.6-10.4,8.3-13C19.3,148.7,19.7,149.4,20,149.7z"/>
		<path d="M22.9,176c-2.1-0.6-3-1.1-4-2.6c-1.3-2-1.3-3.9,0.6-5.2c1.8-1.2,4.4-0.5,6.8,1.8l2.2,2.1c0.1,0.1,0.3,0.1,0.4,0
			c3-2,2.1-3.7,1.4-4.7c-0.9-1.3-2.5-1.5-4.2-1.4l-0.2-0.4l1.5-1.6l0.2,0c1,0.3,2.8,0.9,4.2,2.9c1.4,2,2.2,4.9-1.4,7.3
			c-0.3,0.2-3.3,2.1-4.1,2.6c-1.2,0.8-1.7,1.4-1.8,1.8c0,0.3,0.1,0.6,0.3,0.9c0.1,0.2,0.3,0.4,0.6,0.6l-0.5,0.6
			c-1.1-0.2-1.8-0.9-2.2-1.6c-0.7-1-0.7-2.1,0.2-3.1L22.9,176z M25.5,171.1c-1.9-1.7-3.2-1.7-4.4-0.9c-0.8,0.6-1.1,1.9-0.3,3.1
			c0.5,0.8,1.6,1.4,2.7,1.8c0.3,0.1,0.6,0.1,0.9-0.1l3.2-2L25.5,171.1z"/>
		<path d="M36.6,180.1c2.8-0.2,4.1,0,5.1,1.5c0.3,0.5,0.3,0.5,0.5,1.1l0,0.2l-2.3,0.8l-0.2-0.2c0.1-0.6-0.2-1.1-0.6-1.6
			c-0.3-0.5-1.1-0.9-1.9-0.9c-1.3,0-2.1,0.1-3.2,0.9l-1.4,0.9c-2,1.4-3.2,2.2-4.6,3.4l-0.1,0c-0.2-0.4-0.5-1-0.8-1.3
			c-0.2-0.3-0.6-0.9-0.9-1.2l0-0.1c1.6-0.8,3-1.6,4.9-3l1.5-1c2-1.3,4-2.7,5-3.7l0.1,0c0.3,0.6,1,1.6,1.5,2.1c0.1,0.1,0,0.2-0.2,0.3
			l-2.4,1.6V180.1z"/>
		<path d="M39.4,203.4h-0.1c-0.2-0.4-0.5-1-0.8-1.3c-0.2-0.3-0.6-0.9-0.9-1.2l0-0.1c1.6-0.8,3-1.6,4.9-3l2.6-1.7
			c2.2-1.4,2.3-2.4,1.4-3.7c-0.6-1-2.3-2.1-4.8-2.4l-3.1,2.1c-2,1.4-3.3,2.2-4.6,3.4l-0.1,0c-0.2-0.4-0.5-1-0.8-1.3
			c-0.2-0.3-0.6-0.9-0.9-1.2l0-0.1c1.6-0.8,3-1.6,4.9-3l1.5-1c2-1.3,4-2.7,5-3.7l0.1,0c0.3,0.6,1,1.6,1.5,2.1c0.1,0.1,0,0.2-0.2,0.3
			l-1.9,1.3l0,0.1c3.1,0.4,4.8,2,5.5,3c1.6,2.4,0.8,4.3-2,6.1c-0.9,0.6-1.9,1.2-2.7,1.7C42,201.3,40.7,202.2,39.4,203.4z"/>
		<path d="M57.9,206.4H58c0.3,0.6,1.1,1.7,1.6,2.3c0.1,0.2,0.1,0.3-0.1,0.4c-1.7,0.9-2.7,1.5-4.7,2.8l-1.9,1.3
			c-2,1.4-3.2,2.2-4.6,3.4h-0.1c-0.2-0.4-0.5-1-0.8-1.3c-0.2-0.3-0.7-0.9-0.9-1.2l0-0.1c1.6-0.8,3-1.6,4.9-3l1.5-1
			C54.9,208.8,56.9,207.4,57.9,206.4z M64.6,203.9c0.5,0.7,0.3,1.8-0.4,2.3s-1.8,0.3-2.3-0.4c-0.5-0.7-0.3-1.8,0.4-2.3
			C63.1,202.9,64.1,203.1,64.6,203.9z"/>
		<path d="M58,231.3h-0.1c-0.2-0.4-0.5-1-0.8-1.3c-0.2-0.3-0.6-0.9-0.9-1.2l0-0.1c1.6-0.8,3-1.6,4.9-3l2.6-1.7
			c2.2-1.4,2.3-2.4,1.4-3.7c-0.6-1-2.3-2.1-4.8-2.4l-3.1,2.1c-2,1.4-3.3,2.2-4.6,3.4l-0.1,0c-0.2-0.4-0.5-1-0.8-1.3
			c-0.2-0.3-0.6-0.9-0.9-1.2l0-0.1c1.6-0.8,3-1.6,4.9-3l1.5-1c2-1.3,4-2.7,5-3.7l0.1,0c0.3,0.6,1,1.6,1.5,2.1c0.1,0.1,0,0.2-0.2,0.3
			l-1.9,1.3l0,0.1c3.1,0.4,4.8,2,5.5,3c1.6,2.4,0.8,4.3-2,6.1c-0.9,0.6-1.9,1.2-2.7,1.7C60.7,229.2,59.4,230.1,58,231.3z"/>
	</g>
</g>
</svg>
