<?xml version="1.0" encoding="utf-8"?>
<!-- Generator: Adobe Illustrator 28.3.0, SVG Export Plug-In . SVG Version: 6.00 Build 0)  -->
<svg version="1.1" xmlns="http://www.w3.org/2000/svg" xmlns:xlink="http://www.w3.org/1999/xlink" x="0px" y="0px"
	 viewBox="0 0 425.4 228.1" style="enable-background:new 0 0 425.4 228.1;" xml:space="preserve">
<style type="text/css">
	.st0{fill:#FFFFFF;}
	.st1{opacity:0.75;fill:none;stroke:#5EBEEB;stroke-width:7.2;stroke-linecap:round;stroke-linejoin:round;stroke-miterlimit:10;}
	.st2{fill:none;stroke:#FFFFFF;stroke-width:14.4;stroke-linecap:round;stroke-linejoin:round;stroke-miterlimit:10;}
	.st3{fill:none;stroke:#4AA8D4;stroke-width:7.2;stroke-linecap:round;stroke-linejoin:round;stroke-miterlimit:10;}
	.st4{fill:#A32C25;}
	.st5{fill:#3D8BB0;}
	.st6{fill:none;stroke:#FFC299;stroke-width:7.2;stroke-linecap:round;stroke-linejoin:round;stroke-miterlimit:10;}
	.st7{fill:none;stroke:#F29B61;stroke-width:7.2;stroke-linecap:round;stroke-linejoin:round;stroke-miterlimit:10;}
	.st8{fill:none;stroke:#D45500;stroke-width:7.2;stroke-linecap:round;stroke-linejoin:round;stroke-miterlimit:10;}
	.st9{fill:#993D00;}
</style>
<g id="Layer_1">
</g>
<g id="Layer_4">
</g>
<g id="Layer_3">
	<rect class="st0" width="425.4" height="228.1"/>
	
		<image style="display:none;overflow:visible;" width="1934" height="954" xlink:href="../../../../../../Papers/solid-knitting/64d567e7b646ac8e00416601/img/surfaceknittingVsolidknitting.jpg"  transform="matrix(5.962342e-02 0 0 5.962342e-02 95.8071 119.4451)">
	</image>
	<g>
		<polyline class="st1" points="189.6,99.1 172.6,89.1 172.6,56.4 158,47.9 158,80.3 141.1,70.4 141.1,37.8 127.4,29.8 127.4,62.6 
			111.1,52.8 111.1,20.2 101.3,14.7 101.3,47.8 89.6,54.2 89.6,21.5 76.2,29.2 76.2,61.9 63.9,68.7 63.9,36.3 51.5,43.1 51.5,75.6 
			39.8,82.3 39.8,49.7 27.7,56.5 27.7,89.2 14.1,96.8 		"/>
		<g>
			<polyline class="st2" points="14.1,96.8 14.1,64.2 29.3,73.2 29.3,105.7 43.3,114 43.3,81.2 59.1,90.7 59.1,123.3 73.2,131.6 
				73.2,99 90,108.9 90,141.5 103.4,149.4 103.4,116.8 116.7,109.1 116.7,141.6 128.5,134.7 128.5,102.2 140.3,95.2 140.3,127.8 
				152.5,120.7 152.5,88.1 165.1,80.8 165.1,113.4 178.6,105.5 178.6,72.9 189.6,66.5 189.6,99.1 			"/>
			<polyline class="st3" points="14.1,96.8 14.1,64.2 29.3,73.2 29.3,105.7 43.3,114 43.3,81.2 59.1,90.7 59.1,123.3 73.2,131.6 
				73.2,99 90,108.9 90,141.5 103.4,149.4 103.4,116.8 116.7,109.1 116.7,141.6 128.5,134.7 128.5,102.2 140.3,95.2 140.3,127.8 
				152.5,120.7 152.5,88.1 165.1,80.8 165.1,113.4 178.6,105.5 178.6,72.9 189.6,66.5 189.6,99.1 			"/>
		</g>
	</g>
	<g>
		<g>
			<path class="st4" d="M13.3,181.8c0.6,1.1,1.7,1.8,3,1.8c1.3,0,2.3-0.6,2.3-1.8c0-1.1-1-1.9-2.5-2.4c-1.6-0.6-3.2-1.3-3.2-3.2
				c0-2.1,2-3,3.9-3c1.6,0,2.9,0.5,3.6,0.9l0,0.1l-0.5,1.7l-0.4,0c-0.3-0.7-1.3-1.7-2.7-1.7c-1.1,0-2.1,0.6-2.1,1.7
				c0,1.2,1.4,1.7,2.4,2c1.9,0.6,3.5,1.6,3.5,3.5c0,1.4-0.8,3.4-4.3,3.4c-1,0-2.3-0.2-3.8-0.7l0.4-2L13.3,181.8z"/>
			<path class="st4" d="M22.4,174.9L22.4,174.9c0-0.4,0-1,0-1.6l0,0c0.4,0,0.9,0,1.3,0h6.9c0.5,0,1,0,1.3,0l0,0c0,0.6,0,1.2,0,1.5
				l0,0.1c0,0-0.8-0.3-3.8-0.3v5.4c0,1.8,0,3,0.2,4.3l0,0.1c0,0-0.4-0.1-1.2-0.1c-0.8,0-1.2,0.1-1.2,0.1l0-0.1
				c0.2-1.3,0.2-2.5,0.2-4.3v-5.4C23.2,174.7,22.4,174.9,22.4,174.9z"/>
			<path class="st4" d="M33.5,184.4c-0.2,0-0.6,0-0.8,0c-0.2,0-0.7,0-1,0c1.8-3.8,3.4-7.6,5.1-11.4h1.5c1.5,3.8,3.9,9.7,4.7,11.4
				c-0.3,0-1.4,0-1.7,0s-0.6,0-0.9,0c-0.1-0.3-0.6-1.9-1.3-3.9c-0.7,0-1.4,0-2.1,0c-0.6,0-1.6,0-2.3,0
				C34.3,182,33.8,183.4,33.5,184.4z M37.1,175.4L37.1,175.4c-0.6,1.3-1.3,2.8-1.9,4.3c0.5,0,1.3,0,1.8,0c0.5,0,1.2,0,1.8,0
				C38.3,178.1,37.7,176.6,37.1,175.4z"/>
			<path class="st4" d="M45.3,173.4L45.3,173.4c0,0,0.3,0,0.9,0c0.4,0,0.8,0,0.8,0c2.1,2.5,4.4,5.3,6.2,7.8l0.2,0l0-4.1
				c0-1.3-0.1-2.8-0.4-3.7l0,0c0,0,0.5,0,0.9,0c0.4,0,1,0,1,0v0c-0.1,0.9-0.2,1.9-0.2,3.2l-0.1,7.8c-0.2,0-1.3,0-1.5,0.1
				c0-0.1-0.2-0.3-0.4-0.5c-2.5-3.5-4.4-5.9-6-7.6l-0.1,0.1l0,4.3c0,1.3,0.1,2.9,0.4,3.7l0,0.1c0,0-0.5-0.1-0.9-0.1
				c-0.4,0-0.9,0.1-0.9,0.1l0-0.1c0.1-0.9,0.2-1.9,0.2-3.2l0.1-4.4C45.5,175.5,45.4,174.3,45.3,173.4z"/>
			<path class="st4" d="M62.9,173.3c3.6,0,6,2.5,6,5.7c0,4.2-3,5.4-5.6,5.4c-1.9,0-3,0-3.6,0c-0.8,0-1.2,0.1-1.2,0.1l0-0.1
				c0.2-1.3,0.2-2.5,0.2-4.3v-2.4c0-1.7,0-3-0.2-4.3l0-0.1c0,0,0.3,0.1,1.2,0.1C60.8,173.3,62.2,173.3,62.9,173.3z M62.6,183.5
				c2.6,0,4.2-0.8,4.2-4.1c0-2.5-1.1-5.2-4.6-5.2c-0.9,0-1.6,0.2-1.6,0.8v7.5C60.6,183.1,60.8,183.5,62.6,183.5z"/>
			<path class="st4" d="M72.1,184.4c-0.2,0-0.6,0-0.8,0c-0.2,0-0.7,0-1,0c1.8-3.8,3.4-7.6,5.1-11.4h1.5c1.5,3.8,3.9,9.7,4.7,11.4
				c-0.3,0-1.4,0-1.7,0s-0.6,0-0.9,0c-0.1-0.3-0.6-1.9-1.3-3.9c-0.7,0-1.4,0-2.1,0c-0.6,0-1.6,0-2.3,0
				C72.8,182,72.3,183.4,72.1,184.4z M75.7,175.4L75.7,175.4c-0.6,1.3-1.3,2.8-1.9,4.3c0.5,0,1.3,0,1.8,0c0.5,0,1.2,0,1.8,0
				C76.9,178.1,76.3,176.6,75.7,175.4z"/>
			<path class="st4" d="M87.7,179.8h-1.6v0.3c0,1.8,0,2.9,0.2,4.3l0,0.1c0,0-0.4-0.1-1.2-0.1c-0.9,0-1.2,0.1-1.2,0.1l0-0.1
				c0.2-1.3,0.2-2.5,0.2-4.3v-2.4c0-1.7,0-3-0.2-4.3l0-0.1c0,0,0.4,0.1,1.2,0.1c0.7,0,1.8-0.1,3-0.1c3,0,4.1,1,4.1,2.8
				c0,1.6-1,2.6-2.1,3.1c0.6,0.8,1.1,1.6,1.6,2.4c0.7,1.1,1.3,2.1,2,2.8l0,0.1c-0.5-0.1-0.7-0.1-1.2-0.1c-0.4,0-0.9,0-1.3,0.1
				c-0.2-0.8-0.9-1.8-1.3-2.4c-0.6-0.9-1.1-1.6-1.7-2.3C88,179.8,87.8,179.8,87.7,179.8z M88.1,174.3c-1.8,0-2.1,0.1-2.1,0.7v3.8
				h1.5c1.8,0,2.5-0.7,2.5-2.7C90.1,174.7,89.3,174.3,88.1,174.3z"/>
			<path class="st4" d="M100,173.3c3.6,0,6,2.5,6,5.7c0,4.2-3,5.4-5.6,5.4c-1.9,0-3,0-3.6,0c-0.8,0-1.2,0.1-1.2,0.1l0-0.1
				c0.2-1.3,0.2-2.5,0.2-4.3v-2.4c0-1.7,0-3-0.2-4.3l0-0.1c0,0,0.3,0.1,1.2,0.1C97.9,173.3,99.4,173.3,100,173.3z M99.7,183.5
				c2.6,0,4.2-0.8,4.2-4.1c0-2.5-1.1-5.2-4.6-5.2c-0.9,0-1.6,0.2-1.6,0.8v7.5C97.7,183.1,97.9,183.5,99.7,183.5z"/>
			<path class="st4" d="M115.1,173.4L115.1,173.4c0-0.1,0.4,0,1.2,0c0.8,0,1.2-0.1,1.2-0.1l0,0.1c-0.2,1.5-0.2,2.5-0.2,4.3v1
				c0.2-0.1,0.5-0.3,0.7-0.5c1-0.8,3-3.2,4.2-4.8c0.7,0,1.8,0,2.3-0.1l0,0.1c-1.7,1.4-4.2,4.2-5.1,5.3c1.5,2,3.3,3.8,5.2,5.8l0,0.1
				c-0.2,0-0.9-0.1-1.3-0.1s-1.2,0-1.6,0.1c-1.5-2.2-2.5-3.3-4.2-5.1c-0.1-0.1-0.2-0.1-0.2-0.2v0.9c0,1.8,0,2.9,0.2,4.3l0,0.1
				c0,0-0.3-0.1-1.2-0.1c-0.8,0-1.2,0.1-1.2,0.1l0-0.1c0.2-1.3,0.2-2.5,0.2-4.3v-2.4C115.3,175.9,115.3,174.6,115.1,173.4z"/>
			<path class="st4" d="M126.7,173.4L126.7,173.4c0,0,0.3,0,0.9,0c0.4,0,0.8,0,0.8,0c2.1,2.5,4.4,5.3,6.2,7.8l0.2,0l0-4.1
				c0-1.3-0.1-2.8-0.4-3.7l0,0c0,0,0.5,0,0.9,0c0.4,0,1,0,1,0v0c-0.1,0.9-0.2,1.9-0.2,3.2l-0.1,7.8c-0.2,0-1.3,0-1.5,0.1
				c0-0.1-0.2-0.3-0.4-0.5c-2.5-3.5-4.4-5.9-6-7.6l-0.1,0.1l0,4.3c0,1.3,0.1,2.9,0.4,3.7l0,0.1c0,0-0.5-0.1-0.9-0.1
				c-0.4,0-0.9,0.1-0.9,0.1l0-0.1c0.1-0.9,0.2-1.9,0.2-3.2l0.1-4.4C126.9,175.5,126.8,174.3,126.7,173.4z"/>
			<path class="st4" d="M139.8,173.4L139.8,173.4c0-0.1,0.4,0,1.2,0c0.8,0,1.2-0.1,1.2-0.1l0,0.1c-0.2,1.5-0.2,2.5-0.2,4.3v2.4
				c0,1.8,0,2.9,0.2,4.3l0,0.1c0,0-0.3-0.1-1.2-0.1c-0.8,0-1.2,0.1-1.2,0.1l0-0.1c0.2-1.3,0.2-2.5,0.2-4.3v-2.4
				C140,175.9,140,174.6,139.8,173.4z"/>
			<path class="st4" d="M144.6,174.9L144.6,174.9c0-0.4,0-1,0-1.6l0,0c0.4,0,0.9,0,1.3,0h6.9c0.5,0,1,0,1.3,0l0,0c0,0.6,0,1.2,0,1.5
				l0,0.1c0,0-0.8-0.3-3.8-0.3v5.4c0,1.8,0,3,0.2,4.3l0,0.1c0,0-0.4-0.1-1.2-0.1c-0.8,0-1.2,0.1-1.2,0.1l0-0.1
				c0.2-1.3,0.2-2.5,0.2-4.3v-5.4C145.4,174.7,144.6,174.9,144.6,174.9z"/>
			<path class="st4" d="M155.5,174.9L155.5,174.9c0-0.4,0-1,0-1.6l0,0c0.4,0,0.9,0,1.3,0h6.9c0.5,0,1,0,1.3,0l0,0c0,0.6,0,1.2,0,1.5
				l0,0.1c0,0-0.8-0.3-3.8-0.3v5.4c0,1.8,0,3,0.2,4.3l0,0.1c0,0-0.4-0.1-1.2-0.1c-0.8,0-1.2,0.1-1.2,0.1l0-0.1
				c0.2-1.3,0.2-2.5,0.2-4.3v-5.4C156.3,174.7,155.5,174.9,155.5,174.9z"/>
			<path class="st4" d="M167.5,173.4L167.5,173.4c0-0.1,0.4,0,1.2,0c0.8,0,1.2-0.1,1.2-0.1l0,0.1c-0.2,1.5-0.2,2.5-0.2,4.3v2.4
				c0,1.8,0,2.9,0.2,4.3l0,0.1c0,0-0.3-0.1-1.2-0.1c-0.8,0-1.2,0.1-1.2,0.1l0-0.1c0.2-1.3,0.2-2.5,0.2-4.3v-2.4
				C167.7,175.9,167.7,174.6,167.5,173.4z"/>
			<path class="st4" d="M173.5,173.4L173.5,173.4c0,0,0.3,0,0.9,0c0.4,0,0.8,0,0.8,0c2.1,2.5,4.4,5.3,6.2,7.8l0.2,0l0-4.1
				c0-1.3-0.1-2.8-0.4-3.7l0,0c0,0,0.5,0,0.9,0c0.4,0,1,0,1,0v0c-0.1,0.9-0.2,1.9-0.2,3.2l-0.1,7.8c-0.2,0-1.3,0-1.5,0.1
				c0-0.1-0.2-0.3-0.4-0.5c-2.5-3.5-4.4-5.9-6-7.6l-0.1,0.1l0,4.3c0,1.3,0.1,2.9,0.4,3.7l0,0.1c0,0-0.5-0.1-0.9-0.1
				c-0.4,0-0.9,0.1-0.9,0.1l0-0.1c0.1-0.9,0.2-1.9,0.2-3.2l0.1-4.4C173.7,175.5,173.6,174.3,173.5,173.4z"/>
			<path class="st4" d="M193.8,179.8L193.8,179.8c0-0.1,0.4,0,1.2,0c0.8,0,1.1-0.1,1.1-0.1l0,0.1c-0.1,0.9-0.2,1.9-0.2,3v0.3
				c0,0.2,0,0.4,0.2,0.6c-1.6,0.8-3.1,1-4.8,1c-3.4,0-5.6-2.4-5.6-5.5c0-3.8,2.5-6,6-6c2.1,0,3.4,0.6,4.2,1l0,0.1l-0.6,2l-0.4,0
				c-0.7-1-1.7-2-3.3-2c-2.5,0-3.8,1.8-3.8,4.7c0,2,0.9,4.8,3.9,4.8c0.8,0,1.5-0.1,2.3-0.4v-0.1C194,181.6,194,181.2,193.8,179.8z"
				/>
			<path class="st4" d="M199.1,175.8c0.2-0.6,0.6-1,1.3-1.3h0.1c0.7,0.3,1.1,0.6,1.3,1.3v0.1c-0.2,0.8-0.6,1.1-1.3,1.3h-0.1
				C199.6,177,199.3,176.7,199.1,175.8L199.1,175.8z M199.1,182.1c0.2-0.6,0.6-1,1.3-1.3h0.1c0.7,0.3,1.1,0.6,1.3,1.3v0.1
				c-0.2,0.8-0.6,1.1-1.3,1.3h-0.1C199.6,183.3,199.3,183,199.1,182.1L199.1,182.1z"/>
			<path class="st4" d="M16.9,199.2c2-2.4,4.3-2.9,5.5-2.9c2.9,0,4,1.7,4,5.1c0,1-0.1,2.2-0.1,3.2c0,2.4,0,3.9,0.3,5.8l-0.1,0.1
				c-0.4-0.1-1.1-0.1-1.5-0.1c-0.4,0-1.1,0-1.5,0.1l-0.1-0.1c0.3-1.7,0.3-3.4,0.3-5.8v-3.1c0-2.6-0.7-3.2-2.3-3.2
				c-1.1,0-3,0.7-4.6,2.6v3.7c0,2.4,0,3.9,0.3,5.8l-0.1,0.1c-0.4-0.1-1.1-0.1-1.5-0.1s-1.1,0-1.5,0.1l-0.1-0.1
				c0.2-1.8,0.3-3.4,0.3-5.8V195c0-2.4,0-4.8-0.3-6.2l0.1-0.1c1.3-0.1,2-0.3,2.8-0.6c0.2,0,0.3,0.1,0.3,0.3c-0.2,2-0.3,3.6-0.3,6
				L16.9,199.2L16.9,199.2z"/>
			<path class="st4" d="M37.1,196.3c4.3,0,6.7,2.8,6.7,7.2c0,4.2-2.6,7.2-6.8,7.2c-4.3,0-6.8-3-6.8-6.9
				C30.2,199.3,32.9,196.3,37.1,196.3z M33,203.3c0,2.5,0.9,6.1,4.3,6.1c2.1,0,3.7-2.3,3.7-5.3c0-3.9-0.7-6.5-4.1-6.5
				C33.9,197.6,33,200.5,33,203.3z"/>
			<path class="st4" d="M47.9,195c0-2.4,0-4.8-0.3-6.2l0.1-0.1c1.3-0.1,2-0.3,2.8-0.6c0.2,0,0.3,0.1,0.3,0.3c-0.2,2-0.3,3.6-0.3,6
				v9.6c0,2.4,0,4.6,0.3,6.4l-0.1,0.1c-0.4-0.1-1.1-0.1-1.5-0.1s-1.1,0-1.5,0.1l-0.1-0.1c0.2-1.7,0.3-4,0.3-6.4V195z"/>
			<path class="st4" d="M55.9,195c0-2.4,0-4.8-0.3-6.2l0.1-0.1c1.3-0.1,2-0.3,2.8-0.6c0.2,0,0.3,0.1,0.3,0.3c-0.2,2-0.3,3.6-0.3,6
				v9.6c0,2.4,0,4.6,0.3,6.4l-0.1,0.1c-0.4-0.1-1.1-0.1-1.5-0.1s-1.1,0-1.5,0.1l-0.1-0.1c0.2-1.7,0.3-4,0.3-6.4V195z"/>
			<path class="st4" d="M69.2,196.3c4.3,0,6.7,2.8,6.7,7.2c0,4.2-2.6,7.2-6.8,7.2c-4.3,0-6.8-3-6.8-6.9
				C62.3,199.3,65.1,196.3,69.2,196.3z M65.2,203.3c0,2.5,0.9,6.1,4.3,6.1c2.1,0,3.7-2.3,3.7-5.3c0-3.9-0.7-6.5-4.1-6.5
				C66,197.6,65.2,200.5,65.2,203.3z"/>
			<path class="st4" d="M77.5,196.6c0.5,0.1,1.3,0.1,1.9,0.1c0.4,0,1.2,0,1.6-0.1c1.2,3.7,2.2,7.3,3.8,10.9H85
				c0.9-2,1.8-4.4,2.7-6.8c-0.6-1.5-1.1-2.9-1.5-4.2c0.5,0.1,1.3,0.1,1.9,0.1c0.4,0,1.2,0,1.6-0.1c0.7,3.4,1.7,7.4,3.1,10.9H93
				c1.3-3.1,2.8-7.2,3.9-10.9c0.3,0.1,0.8,0.1,1.1,0.1s1.1,0,1.4-0.1c-1.8,4-4.4,10.1-6,13.9c-0.3-0.1-0.9-0.1-1.2-0.1
				c-0.3,0-0.5,0-0.8,0.1c-0.9-2.5-1.9-5.1-2.9-7.6c-1,2.5-2,5.1-2.8,7.6c-0.3-0.1-0.8-0.1-1.2-0.1c-0.3,0-0.7,0-1.1,0.1
				C81.7,205.8,79.7,201.3,77.5,196.6z"/>
			<path class="st4" d="M110.1,207.1c0.9,1.2,2.2,2.3,3.8,2.3c1.7,0,2.9-1,2.9-2.7c0-1.6-1.4-2.1-3.2-2.6c-1.9-0.5-3.8-1.4-3.8-3.9
				c0-2.7,2.5-3.9,4.8-3.9c1.6,0,3.4,0.5,4.3,1l0.1,0.1l-0.6,2.4l-0.4,0c-0.7-0.9-1.8-2.2-3.4-2.2c-1.4,0-2.4,0.7-2.4,2
				c0,1.6,1.8,2.2,3,2.5c2.3,0.5,4.4,1.6,4.4,4.2c0,1.8-1,4.4-5.4,4.4c-1.2,0-3-0.2-4.8-0.9l0.5-2.7L110.1,207.1z"/>
			<path class="st4" d="M127.5,210.7c-3.2,0-4.2-2.2-4.2-4.4v-3.8c0-2.4,0-3.9-0.3-5.8l0.1-0.1c0.4,0.1,1.1,0.1,1.5,0.1
				c0.4,0,1.1,0,1.5-0.1l0.1,0.1c-0.3,1.7-0.3,3.4-0.3,5.8v3.2c0,3,1,3.3,2.1,3.3c1.6,0,3.4-1.7,4.4-3.4v-3.1c0-2.4,0-3.9-0.3-5.8
				l0.1-0.1c0.4,0.1,1.1,0.1,1.5,0.1c0.4,0,1.1,0,1.5-0.1l0.1,0.1c-0.3,1.7-0.3,3.4-0.3,5.8v1.8c0,2.4,0.3,4.8,0.5,6.1l-0.1,0.1
				c-0.4-0.1-1-0.1-1.4-0.1c-0.5,0-0.8,0-1.3,0.1c-0.1,0-0.1,0-0.1-0.1l-0.2-2.8l-0.1-0.1C131.3,209.1,129.5,210.7,127.5,210.7z"/>
			<path class="st4" d="M143.3,199.8c1.4-2.4,2.3-3.4,4.1-3.4c0.6,0,0.6,0.1,1.2,0.2l0.1,0.1l-0.6,2.4l-0.3,0.1
				c-0.4-0.4-1-0.4-1.7-0.4c-0.6,0-1.3,0.4-1.8,1.1c-0.7,1.1-1.1,1.8-1.1,3.2v1.7c0,2.4,0,3.9,0.3,5.8l-0.1,0.1
				c-0.4-0.1-1.1-0.1-1.5-0.1c-0.4,0-1.1,0-1.5,0.1l-0.1-0.1c0.2-1.7,0.3-3.4,0.3-5.8v-1.8c0-2.4-0.1-4.8-0.3-6.2l0.1-0.1
				c0.7,0.1,1.9,0,2.6-0.1c0.2,0,0.2,0.1,0.2,0.3L143.3,199.8L143.3,199.8z"/>
			<path class="st4" d="M152.4,195.4c0-1.9,0.5-3.4,1.8-4.9c1.2-1.5,3.2-2.5,5.2-2.5c0.6,0,1.2,0.2,1.4,0.3l0,0.1
				c-0.3,0.7-0.7,1.8-0.9,2.6l-0.4,0c-0.4-0.6-1-1.1-1.9-1.1c-1.8,0-3,1.2-3,3c0,0.6,0.2,2.2,0.2,3.4v0.3h1.4c0.7,0,1.7,0,2.2-0.1
				l0.2,0.2c-0.2,0.5-0.3,0.8-0.4,1.3c-0.4,0-1.5-0.1-2.3-0.1h-1.1v6c0,2.4,0,4.5,0.3,6.4l-0.1,0.1c-0.4-0.1-1.2-0.1-1.5-0.1
				c-0.4,0-1.2,0-1.5,0.1l-0.1-0.1c0.3-1.7,0.3-4,0.3-6.4v-6h0c-0.7,0-1.8,0-2.4,0.1l-0.2-0.2c0.3-0.5,0.5-0.8,0.7-1.3
				c0.4,0.1,1.2,0.1,1.9,0.1V195.4z"/>
			<path class="st4" d="M169.1,208.9c-1.7,1.4-2.6,1.9-4.4,1.9c-2.4,0-4-1.1-4-3.5c0-2.2,2-3.9,5.3-4.6l3-0.7c0.1,0,0.2-0.2,0.2-0.4
				c0-3.6-1.9-3.8-3.1-3.8c-1.5,0-2.6,1.3-3.5,2.7l-0.4,0l-0.5-2.1l0.1-0.1c0.8-0.7,2.3-1.9,4.7-1.9c2.4,0,5.3,0.9,5.3,5.2
				c0,0.4-0.1,3.9-0.1,4.8c0,1.4,0.2,2.2,0.5,2.5c0.2,0.2,0.6,0.2,0.9,0.2c0.2,0,0.5,0,0.9-0.2l0.2,0.8c-0.8,0.8-1.7,1-2.5,1
				c-1.2,0-2.1-0.6-2.5-1.9H169.1z M166.5,203.9c-2.5,0.7-3.2,1.8-3.2,3.2c0,1,0.9,2,2.4,2c1,0,2-0.6,2.9-1.2
				c0.3-0.2,0.4-0.4,0.4-0.8l0.1-3.8L166.5,203.9z"/>
			<path class="st4" d="M178.7,203.3c0,3.7,1.8,5.9,4.2,5.9c1.2,0,2.2-0.3,3.4-1.3h0.1l0.6,0.7c-1.3,1.6-2.8,2.3-4.7,2.3
				c-3.9,0-6.4-2.8-6.4-7.3c0-4.4,3.5-7.1,6.8-7.1c1.6,0,3.3,0.4,4.3,0.9l0.1,0.1l-0.7,2.6l-0.4,0c-0.8-1.5-2-2.4-3.2-2.4
				C180.5,197.6,178.7,199.7,178.7,203.3z"/>
			<path class="st4" d="M201.6,207.9c-1.2,1.7-3.3,2.8-5.6,2.8c-2.2,0-4-0.8-5.1-2.1c-1.1-1.3-1.4-3.1-1.4-4.9
				c0-4.7,3.3-7.4,6.6-7.4c4.2,0,5.5,3.4,5.5,6c0,0.4-0.2,0.5-0.6,0.5h-8.7c0,1.9,0.2,3.2,0.8,4.1c0.9,1.4,2.4,1.8,3.5,1.8
				c1.8,0,3.3-0.5,4.4-1.8L201.6,207.9z M198.3,201.7c0.3,0,0.4-0.2,0.4-0.4c0-2.4-1.4-3.6-2.7-3.6c-1,0-3.1,0.7-3.6,4H198.3z"/>
		</g>
		<g>
			<path class="st5" d="M13.3,181.8c0.6,1.1,1.7,1.8,3,1.8c1.3,0,2.3-0.6,2.3-1.8c0-1.1-1-1.9-2.5-2.4c-1.6-0.6-3.2-1.3-3.2-3.2
				c0-2.1,2-3,3.9-3c1.6,0,2.9,0.5,3.6,0.9l0,0.1l-0.5,1.7l-0.4,0c-0.3-0.7-1.3-1.7-2.7-1.7c-1.1,0-2.1,0.6-2.1,1.7
				c0,1.2,1.4,1.7,2.4,2c1.9,0.6,3.5,1.6,3.5,3.5c0,1.4-0.8,3.4-4.3,3.4c-1,0-2.3-0.2-3.8-0.7l0.4-2L13.3,181.8z"/>
			<path class="st5" d="M22.4,174.9L22.4,174.9c0-0.4,0-1,0-1.6l0,0c0.4,0,0.9,0,1.3,0h6.9c0.5,0,1,0,1.3,0l0,0c0,0.6,0,1.2,0,1.5
				l0,0.1c0,0-0.8-0.3-3.8-0.3v5.4c0,1.8,0,3,0.2,4.3l0,0.1c0,0-0.4-0.1-1.2-0.1c-0.8,0-1.2,0.1-1.2,0.1l0-0.1
				c0.2-1.3,0.2-2.5,0.2-4.3v-5.4C23.2,174.7,22.4,174.9,22.4,174.9z"/>
			<path class="st5" d="M33.5,184.4c-0.2,0-0.6,0-0.8,0c-0.2,0-0.7,0-1,0c1.8-3.8,3.4-7.6,5.1-11.4h1.5c1.5,3.8,3.9,9.7,4.7,11.4
				c-0.3,0-1.4,0-1.7,0s-0.6,0-0.9,0c-0.1-0.3-0.6-1.9-1.3-3.9c-0.7,0-1.4,0-2.1,0c-0.6,0-1.6,0-2.3,0
				C34.3,182,33.8,183.4,33.5,184.4z M37.1,175.4L37.1,175.4c-0.6,1.3-1.3,2.8-1.9,4.3c0.5,0,1.3,0,1.8,0c0.5,0,1.2,0,1.8,0
				C38.3,178.1,37.7,176.6,37.1,175.4z"/>
			<path class="st5" d="M45.3,173.4L45.3,173.4c0,0,0.3,0,0.9,0c0.4,0,0.8,0,0.8,0c2.1,2.5,4.4,5.3,6.2,7.8l0.2,0l0-4.1
				c0-1.3-0.1-2.8-0.4-3.7l0,0c0,0,0.5,0,0.9,0c0.4,0,1,0,1,0v0c-0.1,0.9-0.2,1.9-0.2,3.2l-0.1,7.8c-0.2,0-1.3,0-1.5,0.1
				c0-0.1-0.2-0.3-0.4-0.5c-2.5-3.5-4.4-5.9-6-7.6l-0.1,0.1l0,4.3c0,1.3,0.1,2.9,0.4,3.7l0,0.1c0,0-0.5-0.1-0.9-0.1
				c-0.4,0-0.9,0.1-0.9,0.1l0-0.1c0.1-0.9,0.2-1.9,0.2-3.2l0.1-4.4C45.5,175.5,45.4,174.3,45.3,173.4z"/>
			<path class="st5" d="M62.9,173.3c3.6,0,6,2.5,6,5.7c0,4.2-3,5.4-5.6,5.4c-1.9,0-3,0-3.6,0c-0.8,0-1.2,0.1-1.2,0.1l0-0.1
				c0.2-1.3,0.2-2.5,0.2-4.3v-2.4c0-1.7,0-3-0.2-4.3l0-0.1c0,0,0.3,0.1,1.2,0.1C60.8,173.3,62.2,173.3,62.9,173.3z M62.6,183.5
				c2.6,0,4.2-0.8,4.2-4.1c0-2.5-1.1-5.2-4.6-5.2c-0.9,0-1.6,0.2-1.6,0.8v7.5C60.6,183.1,60.8,183.5,62.6,183.5z"/>
			<path class="st5" d="M72.1,184.4c-0.2,0-0.6,0-0.8,0c-0.2,0-0.7,0-1,0c1.8-3.8,3.4-7.6,5.1-11.4h1.5c1.5,3.8,3.9,9.7,4.7,11.4
				c-0.3,0-1.4,0-1.7,0s-0.6,0-0.9,0c-0.1-0.3-0.6-1.9-1.3-3.9c-0.7,0-1.4,0-2.1,0c-0.6,0-1.6,0-2.3,0
				C72.8,182,72.3,183.4,72.1,184.4z M75.7,175.4L75.7,175.4c-0.6,1.3-1.3,2.8-1.9,4.3c0.5,0,1.3,0,1.8,0c0.5,0,1.2,0,1.8,0
				C76.9,178.1,76.3,176.6,75.7,175.4z"/>
			<path class="st5" d="M87.7,179.8h-1.6v0.3c0,1.8,0,2.9,0.2,4.3l0,0.1c0,0-0.4-0.1-1.2-0.1c-0.9,0-1.2,0.1-1.2,0.1l0-0.1
				c0.2-1.3,0.2-2.5,0.2-4.3v-2.4c0-1.7,0-3-0.2-4.3l0-0.1c0,0,0.4,0.1,1.2,0.1c0.7,0,1.8-0.1,3-0.1c3,0,4.1,1,4.1,2.8
				c0,1.6-1,2.6-2.1,3.1c0.6,0.8,1.1,1.6,1.6,2.4c0.7,1.1,1.3,2.1,2,2.8l0,0.1c-0.5-0.1-0.7-0.1-1.2-0.1c-0.4,0-0.9,0-1.3,0.1
				c-0.2-0.8-0.9-1.8-1.3-2.4c-0.6-0.9-1.1-1.6-1.7-2.3C88,179.8,87.8,179.8,87.7,179.8z M88.1,174.3c-1.8,0-2.1,0.1-2.1,0.7v3.8
				h1.5c1.8,0,2.5-0.7,2.5-2.7C90.1,174.7,89.3,174.3,88.1,174.3z"/>
			<path class="st5" d="M100,173.3c3.6,0,6,2.5,6,5.7c0,4.2-3,5.4-5.6,5.4c-1.9,0-3,0-3.6,0c-0.8,0-1.2,0.1-1.2,0.1l0-0.1
				c0.2-1.3,0.2-2.5,0.2-4.3v-2.4c0-1.7,0-3-0.2-4.3l0-0.1c0,0,0.3,0.1,1.2,0.1C97.9,173.3,99.4,173.3,100,173.3z M99.7,183.5
				c2.6,0,4.2-0.8,4.2-4.1c0-2.5-1.1-5.2-4.6-5.2c-0.9,0-1.6,0.2-1.6,0.8v7.5C97.7,183.1,97.9,183.5,99.7,183.5z"/>
			<path class="st5" d="M115.1,173.4L115.1,173.4c0-0.1,0.4,0,1.2,0c0.8,0,1.2-0.1,1.2-0.1l0,0.1c-0.2,1.5-0.2,2.5-0.2,4.3v1
				c0.2-0.1,0.5-0.3,0.7-0.5c1-0.8,3-3.2,4.2-4.8c0.7,0,1.8,0,2.3-0.1l0,0.1c-1.7,1.4-4.2,4.2-5.1,5.3c1.5,2,3.3,3.8,5.2,5.8l0,0.1
				c-0.2,0-0.9-0.1-1.3-0.1s-1.2,0-1.6,0.1c-1.5-2.2-2.5-3.3-4.2-5.1c-0.1-0.1-0.2-0.1-0.2-0.2v0.9c0,1.8,0,2.9,0.2,4.3l0,0.1
				c0,0-0.3-0.1-1.2-0.1c-0.8,0-1.2,0.1-1.2,0.1l0-0.1c0.2-1.3,0.2-2.5,0.2-4.3v-2.4C115.3,175.9,115.3,174.6,115.1,173.4z"/>
			<path class="st5" d="M126.7,173.4L126.7,173.4c0,0,0.3,0,0.9,0c0.4,0,0.8,0,0.8,0c2.1,2.5,4.4,5.3,6.2,7.8l0.2,0l0-4.1
				c0-1.3-0.1-2.8-0.4-3.7l0,0c0,0,0.5,0,0.9,0c0.4,0,1,0,1,0v0c-0.1,0.9-0.2,1.9-0.2,3.2l-0.1,7.8c-0.2,0-1.3,0-1.5,0.1
				c0-0.1-0.2-0.3-0.4-0.5c-2.5-3.5-4.4-5.9-6-7.6l-0.1,0.1l0,4.3c0,1.3,0.1,2.9,0.4,3.7l0,0.1c0,0-0.5-0.1-0.9-0.1
				c-0.4,0-0.9,0.1-0.9,0.1l0-0.1c0.1-0.9,0.2-1.9,0.2-3.2l0.1-4.4C126.9,175.5,126.8,174.3,126.7,173.4z"/>
			<path class="st5" d="M139.8,173.4L139.8,173.4c0-0.1,0.4,0,1.2,0c0.8,0,1.2-0.1,1.2-0.1l0,0.1c-0.2,1.5-0.2,2.5-0.2,4.3v2.4
				c0,1.8,0,2.9,0.2,4.3l0,0.1c0,0-0.3-0.1-1.2-0.1c-0.8,0-1.2,0.1-1.2,0.1l0-0.1c0.2-1.3,0.2-2.5,0.2-4.3v-2.4
				C140,175.9,140,174.6,139.8,173.4z"/>
			<path class="st5" d="M144.6,174.9L144.6,174.9c0-0.4,0-1,0-1.6l0,0c0.4,0,0.9,0,1.3,0h6.9c0.5,0,1,0,1.3,0l0,0c0,0.6,0,1.2,0,1.5
				l0,0.1c0,0-0.8-0.3-3.8-0.3v5.4c0,1.8,0,3,0.2,4.3l0,0.1c0,0-0.4-0.1-1.2-0.1c-0.8,0-1.2,0.1-1.2,0.1l0-0.1
				c0.2-1.3,0.2-2.5,0.2-4.3v-5.4C145.4,174.7,144.6,174.9,144.6,174.9z"/>
			<path class="st5" d="M155.5,174.9L155.5,174.9c0-0.4,0-1,0-1.6l0,0c0.4,0,0.9,0,1.3,0h6.9c0.5,0,1,0,1.3,0l0,0c0,0.6,0,1.2,0,1.5
				l0,0.1c0,0-0.8-0.3-3.8-0.3v5.4c0,1.8,0,3,0.2,4.3l0,0.1c0,0-0.4-0.1-1.2-0.1c-0.8,0-1.2,0.1-1.2,0.1l0-0.1
				c0.2-1.3,0.2-2.5,0.2-4.3v-5.4C156.3,174.7,155.5,174.9,155.5,174.9z"/>
			<path class="st5" d="M167.5,173.4L167.5,173.4c0-0.1,0.4,0,1.2,0c0.8,0,1.2-0.1,1.2-0.1l0,0.1c-0.2,1.5-0.2,2.5-0.2,4.3v2.4
				c0,1.8,0,2.9,0.2,4.3l0,0.1c0,0-0.3-0.1-1.2-0.1c-0.8,0-1.2,0.1-1.2,0.1l0-0.1c0.2-1.3,0.2-2.5,0.2-4.3v-2.4
				C167.7,175.9,167.7,174.6,167.5,173.4z"/>
			<path class="st5" d="M173.5,173.4L173.5,173.4c0,0,0.3,0,0.9,0c0.4,0,0.8,0,0.8,0c2.1,2.5,4.4,5.3,6.2,7.8l0.2,0l0-4.1
				c0-1.3-0.1-2.8-0.4-3.7l0,0c0,0,0.5,0,0.9,0c0.4,0,1,0,1,0v0c-0.1,0.9-0.2,1.9-0.2,3.2l-0.1,7.8c-0.2,0-1.3,0-1.5,0.1
				c0-0.1-0.2-0.3-0.4-0.5c-2.5-3.5-4.4-5.9-6-7.6l-0.1,0.1l0,4.3c0,1.3,0.1,2.9,0.4,3.7l0,0.1c0,0-0.5-0.1-0.9-0.1
				c-0.4,0-0.9,0.1-0.9,0.1l0-0.1c0.1-0.9,0.2-1.9,0.2-3.2l0.1-4.4C173.7,175.5,173.6,174.3,173.5,173.4z"/>
			<path class="st5" d="M193.8,179.8L193.8,179.8c0-0.1,0.4,0,1.2,0c0.8,0,1.1-0.1,1.1-0.1l0,0.1c-0.1,0.9-0.2,1.9-0.2,3v0.3
				c0,0.2,0,0.4,0.2,0.6c-1.6,0.8-3.1,1-4.8,1c-3.4,0-5.6-2.4-5.6-5.5c0-3.8,2.5-6,6-6c2.1,0,3.4,0.6,4.2,1l0,0.1l-0.6,2l-0.4,0
				c-0.7-1-1.7-2-3.3-2c-2.5,0-3.8,1.8-3.8,4.7c0,2,0.9,4.8,3.9,4.8c0.8,0,1.5-0.1,2.3-0.4v-0.1C194,181.6,194,181.2,193.8,179.8z"
				/>
			<path class="st5" d="M199.1,175.8c0.2-0.6,0.6-1,1.3-1.3h0.1c0.7,0.3,1.1,0.6,1.3,1.3v0.1c-0.2,0.8-0.6,1.1-1.3,1.3h-0.1
				C199.6,177,199.3,176.7,199.1,175.8L199.1,175.8z M199.1,182.1c0.2-0.6,0.6-1,1.3-1.3h0.1c0.7,0.3,1.1,0.6,1.3,1.3v0.1
				c-0.2,0.8-0.6,1.1-1.3,1.3h-0.1C199.6,183.3,199.3,183,199.1,182.1L199.1,182.1z"/>
			<path class="st5" d="M16.9,199.2c2-2.4,4.3-2.9,5.5-2.9c2.9,0,4,1.7,4,5.1c0,1-0.1,2.2-0.1,3.2c0,2.4,0,3.9,0.3,5.8l-0.1,0.1
				c-0.4-0.1-1.1-0.1-1.5-0.1c-0.4,0-1.1,0-1.5,0.1l-0.1-0.1c0.3-1.7,0.3-3.4,0.3-5.8v-3.1c0-2.6-0.7-3.2-2.3-3.2
				c-1.1,0-3,0.7-4.6,2.6v3.7c0,2.4,0,3.9,0.3,5.8l-0.1,0.1c-0.4-0.1-1.1-0.1-1.5-0.1s-1.1,0-1.5,0.1l-0.1-0.1
				c0.2-1.8,0.3-3.4,0.3-5.8V195c0-2.4,0-4.8-0.3-6.2l0.1-0.1c1.3-0.1,2-0.3,2.8-0.6c0.2,0,0.3,0.1,0.3,0.3c-0.2,2-0.3,3.6-0.3,6
				L16.9,199.2L16.9,199.2z"/>
			<path class="st5" d="M37.1,196.3c4.3,0,6.7,2.8,6.7,7.2c0,4.2-2.6,7.2-6.8,7.2c-4.3,0-6.8-3-6.8-6.9
				C30.2,199.3,32.9,196.3,37.1,196.3z M33,203.3c0,2.5,0.9,6.1,4.3,6.1c2.1,0,3.7-2.3,3.7-5.3c0-3.9-0.7-6.5-4.1-6.5
				C33.9,197.6,33,200.5,33,203.3z"/>
			<path class="st5" d="M47.9,195c0-2.4,0-4.8-0.3-6.2l0.1-0.1c1.3-0.1,2-0.3,2.8-0.6c0.2,0,0.3,0.1,0.3,0.3c-0.2,2-0.3,3.6-0.3,6
				v9.6c0,2.4,0,4.6,0.3,6.4l-0.1,0.1c-0.4-0.1-1.1-0.1-1.5-0.1s-1.1,0-1.5,0.1l-0.1-0.1c0.2-1.7,0.3-4,0.3-6.4V195z"/>
			<path class="st5" d="M55.9,195c0-2.4,0-4.8-0.3-6.2l0.1-0.1c1.3-0.1,2-0.3,2.8-0.6c0.2,0,0.3,0.1,0.3,0.3c-0.2,2-0.3,3.6-0.3,6
				v9.6c0,2.4,0,4.6,0.3,6.4l-0.1,0.1c-0.4-0.1-1.1-0.1-1.5-0.1s-1.1,0-1.5,0.1l-0.1-0.1c0.2-1.7,0.3-4,0.3-6.4V195z"/>
			<path class="st5" d="M69.2,196.3c4.3,0,6.7,2.8,6.7,7.2c0,4.2-2.6,7.2-6.8,7.2c-4.3,0-6.8-3-6.8-6.9
				C62.3,199.3,65.1,196.3,69.2,196.3z M65.2,203.3c0,2.5,0.9,6.1,4.3,6.1c2.1,0,3.7-2.3,3.7-5.3c0-3.9-0.7-6.5-4.1-6.5
				C66,197.6,65.2,200.5,65.2,203.3z"/>
			<path class="st5" d="M77.5,196.6c0.5,0.1,1.3,0.1,1.9,0.1c0.4,0,1.2,0,1.6-0.1c1.2,3.7,2.2,7.3,3.8,10.9H85
				c0.9-2,1.8-4.4,2.7-6.8c-0.6-1.5-1.1-2.9-1.5-4.2c0.5,0.1,1.3,0.1,1.9,0.1c0.4,0,1.2,0,1.6-0.1c0.7,3.4,1.7,7.4,3.1,10.9H93
				c1.3-3.1,2.8-7.2,3.9-10.9c0.3,0.1,0.8,0.1,1.1,0.1s1.1,0,1.4-0.1c-1.8,4-4.4,10.1-6,13.9c-0.3-0.1-0.9-0.1-1.2-0.1
				c-0.3,0-0.5,0-0.8,0.1c-0.9-2.5-1.9-5.1-2.9-7.6c-1,2.5-2,5.1-2.8,7.6c-0.3-0.1-0.8-0.1-1.2-0.1c-0.3,0-0.7,0-1.1,0.1
				C81.7,205.8,79.7,201.3,77.5,196.6z"/>
			<path class="st5" d="M110.1,207.1c0.9,1.2,2.2,2.3,3.8,2.3c1.7,0,2.9-1,2.9-2.7c0-1.6-1.4-2.1-3.2-2.6c-1.9-0.5-3.8-1.4-3.8-3.9
				c0-2.7,2.5-3.9,4.8-3.9c1.6,0,3.4,0.5,4.3,1l0.1,0.1l-0.6,2.4l-0.4,0c-0.7-0.9-1.8-2.2-3.4-2.2c-1.4,0-2.4,0.7-2.4,2
				c0,1.6,1.8,2.2,3,2.5c2.3,0.5,4.4,1.6,4.4,4.2c0,1.8-1,4.4-5.4,4.4c-1.2,0-3-0.2-4.8-0.9l0.5-2.7L110.1,207.1z"/>
			<path class="st5" d="M127.5,210.7c-3.2,0-4.2-2.2-4.2-4.4v-3.8c0-2.4,0-3.9-0.3-5.8l0.1-0.1c0.4,0.1,1.1,0.1,1.5,0.1
				c0.4,0,1.1,0,1.5-0.1l0.1,0.1c-0.3,1.7-0.3,3.4-0.3,5.8v3.2c0,3,1,3.3,2.1,3.3c1.6,0,3.4-1.7,4.4-3.4v-3.1c0-2.4,0-3.9-0.3-5.8
				l0.1-0.1c0.4,0.1,1.1,0.1,1.5,0.1c0.4,0,1.1,0,1.5-0.1l0.1,0.1c-0.3,1.7-0.3,3.4-0.3,5.8v1.8c0,2.4,0.3,4.8,0.5,6.1l-0.1,0.1
				c-0.4-0.1-1-0.1-1.4-0.1c-0.5,0-0.8,0-1.3,0.1c-0.1,0-0.1,0-0.1-0.1l-0.2-2.8l-0.1-0.1C131.3,209.1,129.5,210.7,127.5,210.7z"/>
			<path class="st5" d="M143.3,199.8c1.4-2.4,2.3-3.4,4.1-3.4c0.6,0,0.6,0.1,1.2,0.2l0.1,0.1l-0.6,2.4l-0.3,0.1
				c-0.4-0.4-1-0.4-1.7-0.4c-0.6,0-1.3,0.4-1.8,1.1c-0.7,1.1-1.1,1.8-1.1,3.2v1.7c0,2.4,0,3.9,0.3,5.8l-0.1,0.1
				c-0.4-0.1-1.1-0.1-1.5-0.1c-0.4,0-1.1,0-1.5,0.1l-0.1-0.1c0.2-1.7,0.3-3.4,0.3-5.8v-1.8c0-2.4-0.1-4.8-0.3-6.2l0.1-0.1
				c0.7,0.1,1.9,0,2.6-0.1c0.2,0,0.2,0.1,0.2,0.3L143.3,199.8L143.3,199.8z"/>
			<path class="st5" d="M152.4,195.4c0-1.9,0.5-3.4,1.8-4.9c1.2-1.5,3.2-2.5,5.2-2.5c0.6,0,1.2,0.2,1.4,0.3l0,0.1
				c-0.3,0.7-0.7,1.8-0.9,2.6l-0.4,0c-0.4-0.6-1-1.1-1.9-1.1c-1.8,0-3,1.2-3,3c0,0.6,0.2,2.2,0.2,3.4v0.3h1.4c0.7,0,1.7,0,2.2-0.1
				l0.2,0.2c-0.2,0.5-0.3,0.8-0.4,1.3c-0.4,0-1.5-0.1-2.3-0.1h-1.1v6c0,2.4,0,4.5,0.3,6.4l-0.1,0.1c-0.4-0.1-1.2-0.1-1.5-0.1
				c-0.4,0-1.2,0-1.5,0.1l-0.1-0.1c0.3-1.7,0.3-4,0.3-6.4v-6h0c-0.7,0-1.8,0-2.4,0.1l-0.2-0.2c0.3-0.5,0.5-0.8,0.7-1.3
				c0.4,0.1,1.2,0.1,1.9,0.1V195.4z"/>
			<path class="st5" d="M169.1,208.9c-1.7,1.4-2.6,1.9-4.4,1.9c-2.4,0-4-1.1-4-3.5c0-2.2,2-3.9,5.3-4.6l3-0.7c0.1,0,0.2-0.2,0.2-0.4
				c0-3.6-1.9-3.8-3.1-3.8c-1.5,0-2.6,1.3-3.5,2.7l-0.4,0l-0.5-2.1l0.1-0.1c0.8-0.7,2.3-1.9,4.7-1.9c2.4,0,5.3,0.9,5.3,5.2
				c0,0.4-0.1,3.9-0.1,4.8c0,1.4,0.2,2.2,0.5,2.5c0.2,0.2,0.6,0.2,0.9,0.2c0.2,0,0.5,0,0.9-0.2l0.2,0.8c-0.8,0.8-1.7,1-2.5,1
				c-1.2,0-2.1-0.6-2.5-1.9H169.1z M166.5,203.9c-2.5,0.7-3.2,1.8-3.2,3.2c0,1,0.9,2,2.4,2c1,0,2-0.6,2.9-1.2
				c0.3-0.2,0.4-0.4,0.4-0.8l0.1-3.8L166.5,203.9z"/>
			<path class="st5" d="M178.7,203.3c0,3.7,1.8,5.9,4.2,5.9c1.2,0,2.2-0.3,3.4-1.3h0.1l0.6,0.7c-1.3,1.6-2.8,2.3-4.7,2.3
				c-3.9,0-6.4-2.8-6.4-7.3c0-4.4,3.5-7.1,6.8-7.1c1.6,0,3.3,0.4,4.3,0.9l0.1,0.1l-0.7,2.6l-0.4,0c-0.8-1.5-2-2.4-3.2-2.4
				C180.5,197.6,178.7,199.7,178.7,203.3z"/>
			<path class="st5" d="M201.6,207.9c-1.2,1.7-3.3,2.8-5.6,2.8c-2.2,0-4-0.8-5.1-2.1c-1.1-1.3-1.4-3.1-1.4-4.9
				c0-4.7,3.3-7.4,6.6-7.4c4.2,0,5.5,3.4,5.5,6c0,0.4-0.2,0.5-0.6,0.5h-8.7c0,1.9,0.2,3.2,0.8,4.1c0.9,1.4,2.4,1.8,3.5,1.8
				c1.8,0,3.3-0.5,4.4-1.8L201.6,207.9z M198.3,201.7c0.3,0,0.4-0.2,0.4-0.4c0-2.4-1.4-3.6-2.7-3.6c-1,0-3.1,0.7-3.6,4H198.3z"/>
		</g>
	</g>
	<g>
		<polyline class="st6" points="238.6,101.1 326.4,153.7 339.1,146.4 250.4,94.2 263.3,86.6 351.1,139.5 364.1,132 274.3,80.1 
			286.2,73.1 375.1,125.7 388.5,118.1 300.4,64.7 311.9,57.9 401.1,110.8 412.6,104.2 322.5,51.7 322.5,36.1 		"/>
		<polyline class="st7" points="322.5,36.1 412.6,88.6 401.1,95.2 311.9,42.3 300.4,49.1 388.5,102.4 375.1,110.1 286.2,57.5 
			274.3,64.5 364.1,116.4 351.1,123.9 263.3,71 250.4,78.6 339.1,130.8 326.4,138.1 238.6,85.5 238.6,68.5 		"/>
		<polyline class="st8" points="322.5,19.1 412.6,71.6 401.1,78.2 311.9,25.3 300.4,32.1 388.5,85.4 375.1,93.1 286.2,40.5 
			274.3,47.5 364.1,99.4 351.1,106.9 263.3,54 250.4,61.6 339.1,113.8 326.4,121.1 238.6,68.5 		"/>
	</g>
	<g>
		<path class="st9" d="M239.6,181.4c0.7,1.3,2,2.1,3.4,2.1c1.6,0,2.6-0.7,2.6-2.1c0-1.3-1.1-2.2-2.9-2.9c-1.9-0.7-3.8-1.6-3.8-3.8
			c0-2.5,2.3-3.6,4.5-3.6c1.8,0,3.3,0.6,4.2,1l0.1,0.1l-0.6,2l-0.4,0c-0.4-0.9-1.6-2-3.1-2c-1.3,0-2.4,0.7-2.4,1.9
			c0,1.4,1.7,2,2.8,2.4c2.2,0.7,4.1,1.8,4.1,4.1c0,1.7-1,3.9-5.1,3.9c-1.1,0-2.7-0.3-4.4-0.9l0.5-2.4L239.6,181.4z"/>
		<path class="st9" d="M256.7,184.7c-3.5,0-6.2-2.6-6.2-6.4c0-4.1,2.4-7,6.4-7c3.8,0,6.4,2.7,6.4,6.6
			C263.3,181.8,261,184.7,256.7,184.7z M253,177.9c0,3.4,1.7,5.6,4.1,5.6c2.2,0,3.7-1.8,3.7-5.2c0-3.8-1.8-5.9-4.1-5.9
			C254.8,172.4,253,174.1,253,177.9z"/>
		<path class="st9" d="M269.2,183c3.8,0,6.4-0.3,6.4-0.3l0.1,0.1c0,0.2-0.1,0.6-0.1,0.9c0,0.3,0,0.3,0.1,0.7l-0.1,0.1
			c-0.4-0.1-1.1-0.1-1.7-0.1h-6c-1,0-1.4,0.1-1.4,0.1l0-0.1c0.3-1.5,0.3-2.9,0.3-5v-2.9c0-2,0-3.5-0.3-5l0-0.1c0,0,0.4,0.1,1.3,0.1
			c1,0,1.4-0.1,1.4-0.1l0.1,0.1c-0.3,1.6-0.3,2.9-0.3,5v2.9C269,179.8,269,182.3,269.2,183z"/>
		<path class="st9" d="M278.6,171.5L278.6,171.5c0-0.1,0.4,0,1.4,0c1,0,1.3-0.1,1.3-0.1l0.1,0.1c-0.2,1.7-0.3,2.9-0.3,5v2.9
			c0,2.1,0,3.4,0.3,5l-0.1,0.1c0,0-0.4-0.1-1.3-0.1c-1,0-1.4,0.1-1.4,0.1l0-0.1c0.3-1.5,0.3-2.9,0.3-5v-2.9
			C278.9,174.5,278.9,173,278.6,171.5z"/>
		<path class="st9" d="M290.8,171.4c4.2,0,7,2.9,7,6.7c0,4.9-3.5,6.4-6.6,6.4c-2.2,0-3.5-0.1-4.2-0.1c-1,0-1.4,0.1-1.4,0.1l0-0.1
			c0.3-1.5,0.3-2.9,0.3-5v-2.9c0-2,0-3.5-0.3-5l0-0.1c0,0,0.4,0.1,1.4,0.1C288.4,171.5,290.1,171.4,290.8,171.4z M290.5,183.4
			c3.1,0,4.8-0.9,4.8-4.8c0-2.9-1.3-6.1-5.4-6.1c-1.1,0-1.8,0.2-1.8,0.9v8.7C288.2,182.9,288.4,183.4,290.5,183.4z"/>
		<path class="st9" d="M308.5,171.5L308.5,171.5c0-0.1,0.4,0,1.4,0c1,0,1.3-0.1,1.3-0.1l0.1,0.1c-0.2,1.7-0.3,2.9-0.3,5v1.1
			c0.3-0.1,0.5-0.3,0.9-0.6c1.2-0.9,3.6-3.7,4.9-5.6c0.8,0,2.1,0,2.7-0.1l0.1,0.1c-1.9,1.7-4.9,4.9-5.9,6.1c1.8,2.3,3.8,4.4,6.1,6.7
			l-0.1,0.1c-0.3-0.1-1.1-0.1-1.6-0.1s-1.4,0-1.9,0.1c-1.8-2.6-2.9-3.9-4.8-5.9c-0.1-0.1-0.2-0.1-0.3-0.2v1c0,2.1,0,3.4,0.3,5
			l-0.1,0.1c0,0-0.4-0.1-1.3-0.1c-1,0-1.4,0.1-1.4,0.1l0-0.1c0.3-1.5,0.3-2.9,0.3-5v-2.9C308.7,174.5,308.7,173,308.5,171.5z"/>
		<path class="st9" d="M322,171.5L322,171.5c0-0.1,0.4,0,1.1,0c0.4,0,1-0.1,1-0.1c2.4,2.9,5.1,6.1,7.2,9.2l0.2-0.1l0-4.8
			c0-1.5-0.1-3.2-0.5-4.3l0.1-0.1c0,0,0.5,0.1,1,0.1c0.4,0,1.2-0.1,1.2-0.1v0.1c-0.1,1.1-0.3,2.2-0.3,3.7l-0.1,9.2
			c-0.2,0-1.6,0.1-1.8,0.1c-0.1-0.1-0.2-0.3-0.4-0.6c-2.9-4.1-5.1-6.9-6.9-8.9l-0.2,0.1l0,5.1c0,1.5,0.1,3.3,0.4,4.3l0,0.1
			c0,0-0.6-0.1-1.1-0.1c-0.4,0-1.1,0.1-1.1,0.1l0-0.1c0.2-1.1,0.3-2.2,0.3-3.7l0.1-5.2C322.2,174,322.2,172.7,322,171.5z"/>
		<path class="st9" d="M337.3,171.5L337.3,171.5c0-0.1,0.4,0,1.4,0c1,0,1.3-0.1,1.3-0.1l0.1,0.1c-0.2,1.7-0.3,2.9-0.3,5v2.9
			c0,2.1,0,3.4,0.3,5l-0.1,0.1c0,0-0.4-0.1-1.3-0.1c-1,0-1.4,0.1-1.4,0.1l0-0.1c0.3-1.5,0.3-2.9,0.3-5v-2.9
			C337.6,174.5,337.5,173,337.3,171.5z"/>
		<path class="st9" d="M342.9,173.4L342.9,173.4c0-0.5,0-1.1-0.1-1.8l0.1-0.1c0.4,0,1,0.1,1.5,0.1h8.1c0.5,0,1.1,0,1.5-0.1l0.1,0.1
			c-0.1,0.7-0.1,1.4,0,1.8l-0.1,0.1c0,0-0.9-0.3-4.4-0.3v6.3c0,2.1,0,3.4,0.3,5l-0.1,0.1c0,0-0.4-0.1-1.4-0.1c-1,0-1.4,0.1-1.4,0.1
			l0-0.1c0.3-1.5,0.3-2.9,0.3-5v-6.3C343.9,173.1,342.9,173.4,342.9,173.4z"/>
		<path class="st9" d="M355.6,173.4L355.6,173.4c0-0.5,0-1.1-0.1-1.8l0.1-0.1c0.4,0,1,0.1,1.5,0.1h8.1c0.5,0,1.1,0,1.5-0.1l0.1,0.1
			c-0.1,0.7-0.1,1.4,0,1.8l-0.1,0.1c0,0-0.9-0.3-4.4-0.3v6.3c0,2.1,0,3.4,0.3,5l-0.1,0.1c0,0-0.4-0.1-1.4-0.1c-1,0-1.4,0.1-1.4,0.1
			l0-0.1c0.3-1.5,0.3-2.9,0.3-5v-6.3C356.5,173.1,355.6,173.4,355.6,173.4z"/>
		<path class="st9" d="M369.6,171.5L369.6,171.5c0-0.1,0.4,0,1.4,0c1,0,1.3-0.1,1.3-0.1l0.1,0.1c-0.2,1.7-0.3,2.9-0.3,5v2.9
			c0,2.1,0,3.4,0.3,5l-0.1,0.1c0,0-0.4-0.1-1.3-0.1c-1,0-1.4,0.1-1.4,0.1l0-0.1c0.3-1.5,0.3-2.9,0.3-5v-2.9
			C369.9,174.5,369.8,173,369.6,171.5z"/>
		<path class="st9" d="M376.6,171.5L376.6,171.5c0-0.1,0.4,0,1.1,0c0.4,0,1-0.1,1-0.1c2.4,2.9,5.1,6.1,7.2,9.2l0.2-0.1l0-4.8
			c0-1.5-0.1-3.2-0.5-4.3l0.1-0.1c0,0,0.5,0.1,1,0.1c0.4,0,1.2-0.1,1.2-0.1v0.1c-0.1,1.1-0.3,2.2-0.3,3.7l-0.1,9.2
			c-0.2,0-1.6,0.1-1.8,0.1c-0.1-0.1-0.2-0.3-0.4-0.6c-2.9-4.1-5.1-6.9-6.9-8.9l-0.2,0.1l0,5.1c0,1.5,0.1,3.3,0.4,4.3l0,0.1
			c0,0-0.6-0.1-1.1-0.1c-0.4,0-1.1,0.1-1.1,0.1l0-0.1c0.2-1.1,0.3-2.2,0.3-3.7l0.1-5.2C376.8,174,376.8,172.7,376.6,171.5z"/>
		<path class="st9" d="M400.2,179L400.2,179c0.1-0.1,0.4,0,1.4,0c1,0,1.3-0.1,1.3-0.1l0,0.1c-0.2,1-0.2,2.2-0.2,3.5v0.3
			c0,0.2,0.1,0.4,0.2,0.6c-1.9,0.9-3.7,1.2-5.6,1.2c-4,0-6.6-2.8-6.6-6.4c0-4.5,2.9-7.1,7-7.1c2.4,0,4,0.7,4.9,1.1l0.1,0.1l-0.6,2.3
			l-0.4,0c-0.8-1.2-2-2.4-3.9-2.4c-2.9,0-4.5,2.1-4.5,5.5c0,2.3,1,5.6,4.5,5.6c1,0,1.8-0.1,2.6-0.4V183
			C400.5,181.2,400.5,180.6,400.2,179z"/>
		<path class="st9" d="M406.4,174.3c0.3-0.7,0.7-1.2,1.5-1.5h0.1c0.8,0.3,1.3,0.7,1.5,1.5v0.1c-0.3,0.9-0.7,1.3-1.5,1.5h-0.1
			c-0.9-0.2-1.3-0.6-1.5-1.5V174.3z M406.4,181.7c0.3-0.7,0.7-1.2,1.5-1.5h0.1c0.8,0.3,1.3,0.7,1.5,1.5v0.1
			c-0.3,0.9-0.7,1.3-1.5,1.5h-0.1c-0.9-0.2-1.3-0.6-1.5-1.5V181.7z"/>
		<path class="st9" d="M244.9,212.7c-3.5,0-5.8-3.2-5.8-7.1c0-4.4,3.1-7.2,7.2-7.2c0.6,0,2,0.3,2.7,0.7V197c0-2.4,0-4.8-0.3-6.2
			l0.1-0.1c1.3-0.1,2-0.3,2.8-0.6c0.2,0,0.3,0.1,0.3,0.3c-0.2,2-0.3,3.6-0.3,6v9.9c0,2.4,0.3,4.8,0.5,6.1l-0.1,0.1
			c-0.4-0.1-1-0.1-1.4-0.1c-0.5,0-0.7,0-1.1,0.1c-0.2,0-0.3,0-0.3-0.1l-0.2-1.9H249C247.8,212,246.4,212.7,244.9,212.7z M249,201.5
			c-0.8-1.2-1.5-1.9-3-1.9c-1.5,0-4.1,0.9-4.1,5.7c0,4,1.5,5.7,3.2,5.7c1.3,0,2.8-0.8,3.9-2.3V201.5z"/>
		<path class="st9" d="M267.6,209.9c-1.2,1.7-3.3,2.8-5.6,2.8c-2.2,0-4-0.8-5.1-2.1c-1.1-1.3-1.4-3.1-1.4-4.9c0-4.7,3.3-7.4,6.6-7.4
			c4.2,0,5.5,3.4,5.5,6c0,0.4-0.2,0.5-0.6,0.5h-8.7c0,1.9,0.2,3.2,0.8,4.1c0.9,1.4,2.4,1.8,3.5,1.8c1.8,0,3.3-0.5,4.4-1.8
			L267.6,209.9z M264.3,203.7c0.3,0,0.4-0.2,0.4-0.4c0-2.4-1.4-3.6-2.7-3.6c-1,0-3.1,0.7-3.6,4H264.3z"/>
		<path class="st9" d="M283.9,212.4L283.9,212.4c-0.4,0-1.2,0-1.6,0c-0.4,0-1.1,0-1.5,0.1l-0.1-0.1c0.2-1.7,0.3-3.4,0.3-5.8v-3.1
			c0-2.6-0.7-3.2-2.3-3.2c-1.2,0-3,0.7-4.6,2.6v3.7c0,2.4,0,3.9,0.3,5.8l-0.1,0.1c-0.4-0.1-1.1-0.1-1.5-0.1s-1.1,0-1.5,0.1l-0.1-0.1
			c0.3-1.7,0.3-3.4,0.3-5.8v-1.8c0-2.4-0.1-4.8-0.3-6.2l0.1-0.1c0.7,0.1,1.9,0,2.6-0.1c0.2,0,0.2,0.1,0.2,0.3v2.3l0.1,0.1
			c2-2.4,4.3-2.9,5.5-2.9c2.9,0,4,1.7,4,5.1c0,1-0.1,2.2-0.1,3.2C283.6,209.1,283.6,210.6,283.9,212.4z"/>
		<path class="st9" d="M288.2,209.1c0.9,1.2,2.2,2.3,3.8,2.3c1.7,0,2.9-1,2.9-2.7c0-1.6-1.4-2.1-3.2-2.6c-1.9-0.5-3.8-1.4-3.8-3.9
			c0-2.7,2.5-3.9,4.8-3.9c1.6,0,3.4,0.5,4.3,1l0.1,0.1l-0.6,2.4l-0.4,0c-0.7-0.9-1.8-2.2-3.4-2.2c-1.4,0-2.4,0.7-2.4,2
			c0,1.6,1.8,2.2,3,2.5c2.3,0.5,4.4,1.6,4.4,4.2c0,1.8-1,4.4-5.4,4.4c-1.2,0-3-0.2-4.8-0.9l0.5-2.7L288.2,209.1z"/>
		<path class="st9" d="M312,209.9c-1.2,1.7-3.3,2.8-5.6,2.8c-2.2,0-4-0.8-5.1-2.1c-1.1-1.3-1.4-3.1-1.4-4.9c0-4.7,3.3-7.4,6.6-7.4
			c4.2,0,5.5,3.4,5.5,6c0,0.4-0.2,0.5-0.6,0.5h-8.7c0,1.9,0.2,3.2,0.8,4.1c0.9,1.4,2.4,1.8,3.5,1.8c1.8,0,3.3-0.5,4.4-1.8L312,209.9
			z M308.7,203.7c0.3,0,0.4-0.2,0.4-0.4c0-2.4-1.4-3.6-2.7-3.6c-1,0-3.1,0.7-3.6,4H308.7z"/>
		<path class="st9" d="M321.9,198.6c0.5,0.1,1.3,0.1,1.9,0.1c0.4,0,1.2,0,1.6-0.1c1.2,3.7,2.2,7.3,3.8,10.9h0.1
			c1.5-3.1,2.6-7.3,3.9-10.9c0.3,0.1,0.8,0.1,1.1,0.1c0.3,0,0.9,0,1.2-0.1c-2.1,4.7-4.1,9.2-5.7,13.9c-0.3-0.1-0.6-0.1-1-0.1
			c-0.3,0-0.7,0-1,0.1C326,207.8,324.1,203.3,321.9,198.6z"/>
		<path class="st9" d="M344,198.3c4.3,0,6.7,2.8,6.7,7.2c0,4.2-2.6,7.2-6.8,7.2c-4.3,0-6.8-3-6.8-6.9
			C337,201.3,339.8,198.3,344,198.3z M339.9,205.3c0,2.5,0.9,6.1,4.3,6.1c2.1,0,3.7-2.3,3.7-5.3c0-3.9-0.7-6.5-4.1-6.5
			C340.7,199.6,339.9,202.5,339.9,205.3z"/>
		<path class="st9" d="M354.7,197c0-2.4,0-4.8-0.3-6.2l0.1-0.1c1.3-0.1,2-0.3,2.8-0.6c0.2,0,0.3,0.1,0.3,0.3c-0.2,2-0.3,3.6-0.3,6
			v9.6c0,2.4,0,4.6,0.3,6.4l-0.1,0.1c-0.4-0.1-1.1-0.1-1.5-0.1c-0.4,0-1.1,0-1.5,0.1l-0.1-0.1c0.2-1.7,0.3-4,0.3-6.4V197z"/>
		<path class="st9" d="M366.7,212.7c-3.2,0-4.2-2.2-4.2-4.4v-3.8c0-2.4,0-3.9-0.3-5.8l0.1-0.1c0.4,0.1,1.1,0.1,1.5,0.1
			s1.1,0,1.5-0.1l0.1,0.1c-0.3,1.7-0.3,3.4-0.3,5.8v3.2c0,3,1,3.3,2.1,3.3c1.6,0,3.4-1.7,4.4-3.4v-3.1c0-2.4,0-3.9-0.3-5.8l0.1-0.1
			c0.4,0.1,1.1,0.1,1.5,0.1c0.4,0,1.1,0,1.5-0.1l0.1,0.1c-0.3,1.7-0.3,3.4-0.3,5.8v1.8c0,2.4,0.3,4.8,0.5,6.1l-0.1,0.1
			c-0.4-0.1-1-0.1-1.4-0.1c-0.5,0-0.8,0-1.3,0.1c-0.1,0-0.1,0-0.1-0.1l-0.2-2.8l-0.1-0.1C370.5,211.1,368.7,212.7,366.7,212.7z"/>
		<path class="st9" d="M382.4,201.2c1.5-1.6,3.4-2.9,5.4-2.9c1.8,0,3.1,1,3.4,2.5c1.8-1.9,3.7-2.5,5.4-2.5c3.5,0,4,2.2,4,5.1v3.2
			c0,2.4,0,3.9,0.3,5.8l-0.1,0.1c-0.4-0.1-1.1-0.1-1.5-0.1s-1.1,0-1.5,0.1l-0.1-0.1c0.3-1.7,0.3-3.4,0.3-5.8v-3.5
			c0-2.1-0.8-2.8-2.6-2.8c-1.2,0-2.5,0.2-4.1,1.9c0,0.4,0,0.8,0,1.2v3.2c0,2.4,0,3.9,0.3,5.8l-0.1,0.1c-0.4-0.1-1.1-0.1-1.5-0.1
			s-1.1,0-1.5,0.1l-0.1-0.1c0.3-1.7,0.3-3.4,0.3-5.8v-3.5c0-2.1-0.9-2.8-2.1-2.8c-1.1,0-2.9,1-4.4,2.5v3.9c0,2.4,0,3.9,0.3,5.8
			l-0.1,0.1c-0.4-0.1-1.1-0.1-1.5-0.1c-0.4,0-1.1,0-1.5,0.1l-0.1-0.1c0.3-1.7,0.3-3.4,0.3-5.8v-1.8c0-2.4-0.1-4.8-0.3-6.2l0.1-0.1
			c0.7,0.1,1.9,0,2.6-0.1c0.2,0,0.2,0.1,0.2,0.3L382.4,201.2L382.4,201.2z"/>
		<path class="st9" d="M416.1,209.9c-1.2,1.7-3.3,2.8-5.6,2.8c-2.2,0-4-0.8-5.1-2.1c-1.1-1.3-1.4-3.1-1.4-4.9c0-4.7,3.3-7.4,6.6-7.4
			c4.2,0,5.5,3.4,5.5,6c0,0.4-0.2,0.5-0.6,0.5h-8.7c0,1.9,0.2,3.2,0.8,4.1c0.9,1.4,2.4,1.8,3.5,1.8c1.8,0,3.3-0.5,4.4-1.8
			L416.1,209.9z M412.8,203.7c0.3,0,0.4-0.2,0.4-0.4c0-2.4-1.4-3.6-2.7-3.6c-1,0-3.1,0.7-3.6,4H412.8z"/>
	</g>
</g>
<g id="Layer_2">
</g>
</svg>
