<?xml version="1.0" encoding="utf-8"?>
<!-- Generator: Adobe Illustrator 28.3.0, SVG Export Plug-In . SVG Version: 6.00 Build 0)  -->
<svg version="1.1" xmlns="http://www.w3.org/2000/svg" xmlns:xlink="http://www.w3.org/1999/xlink" x="0px" y="0px"
	 viewBox="0 0 106.4 57" style="enable-background:new 0 0 106.4 57;" xml:space="preserve">
<style type="text/css">
	.st0{fill:#FFFFFF;}
	.st1{opacity:0.75;fill:none;stroke:#5EBEEB;stroke-width:1.8;stroke-linecap:round;stroke-linejoin:round;stroke-miterlimit:10;}
	.st2{fill:none;stroke:#FFFFFF;stroke-width:3.6;stroke-linecap:round;stroke-linejoin:round;stroke-miterlimit:10;}
	.st3{fill:none;stroke:#4AA8D4;stroke-width:1.8;stroke-linecap:round;stroke-linejoin:round;stroke-miterlimit:10;}
	.st4{fill:#A32C25;}
	.st5{font-family:'LinBiolinumO';}
	.st6{font-size:6px;}
	.st7{font-size:8px;}
	.st8{fill:#3D8BB0;}
	.st9{fill:none;stroke:#FFC299;stroke-width:1.8;stroke-linecap:round;stroke-linejoin:round;stroke-miterlimit:10;}
	.st10{fill:none;stroke:#F29B61;stroke-width:1.8;stroke-linecap:round;stroke-linejoin:round;stroke-miterlimit:10;}
	.st11{fill:none;stroke:#D45500;stroke-width:1.8;stroke-linecap:round;stroke-linejoin:round;stroke-miterlimit:10;}
	.st12{fill:#993D00;}
	.st13{font-size:7px;}
</style>
<g id="Layer_1">
</g>
<g id="Layer_4">
</g>
<g id="Layer_3">
	<rect class="st0" width="106.4" height="57"/>
	
		<image style="display:none;overflow:visible;" width="1934" height="954" xlink:href="../../../../../../Papers/solid-knitting/64d567e7b646ac8e00416601/img/surfaceknittingVsolidknitting.jpg"  transform="matrix(5.962342e-02 0 0 5.962342e-02 -63.7237 33.9234)">
	</image>
	<g>
		<polyline class="st1" points="47.4,24.8 43.1,22.3 43.1,14.1 39.5,12 39.5,20.1 35.3,17.6 35.3,9.4 31.8,7.4 31.8,15.7 27.8,13.2 
			27.8,5 25.3,3.7 25.3,12 22.4,13.5 22.4,5.4 19,7.3 19,15.5 16,17.2 16,9.1 12.9,10.8 12.9,18.9 10,20.6 10,12.4 6.9,14.1 
			6.9,22.3 3.5,24.2 		"/>
		<g>
			<polyline class="st2" points="3.5,24.2 3.5,16.1 7.3,18.3 7.3,26.4 10.8,28.5 10.8,20.3 14.8,22.7 14.8,30.8 18.3,32.9 
				18.3,24.8 22.5,27.2 22.5,35.4 25.8,37.3 25.8,29.2 29.2,27.3 29.2,35.4 32.1,33.7 32.1,25.5 35.1,23.8 35.1,32 38.1,30.2 
				38.1,22 41.3,20.2 41.3,28.3 44.6,26.4 44.6,18.2 47.4,16.6 47.4,24.8 			"/>
			<polyline class="st3" points="3.5,24.2 3.5,16.1 7.3,18.3 7.3,26.4 10.8,28.5 10.8,20.3 14.8,22.7 14.8,30.8 18.3,32.9 
				18.3,24.8 22.5,27.2 22.5,35.4 25.8,37.3 25.8,29.2 29.2,27.3 29.2,35.4 32.1,33.7 32.1,25.5 35.1,23.8 35.1,32 38.1,30.2 
				38.1,22 41.3,20.2 41.3,28.3 44.6,26.4 44.6,18.2 47.4,16.6 47.4,24.8 			"/>
		</g>
	</g>
	<g>
		<text transform="matrix(1 0 0 1 2.8556 46.098)"><tspan x="0" y="0" class="st4 st5 st6">standard knitting:</tspan><tspan x="0" y="6.5" class="st4 st5 st7">hollow surface</tspan></text>
		<text transform="matrix(1 0 0 1 2.8556 46.098)"><tspan x="0" y="0" class="st8 st5 st6">standard knitting:</tspan><tspan x="0" y="6.5" class="st8 st5 st7">hollow surface</tspan></text>
	</g>
	<g>
		<polyline class="st9" points="59.7,25.3 81.6,38.4 84.8,36.6 62.6,23.5 65.8,21.6 87.8,34.9 91,33 68.6,20 71.6,18.3 93.8,31.4 
			97.1,29.5 75.1,16.2 78,14.5 100.3,27.7 103.2,26.1 80.6,12.9 80.6,9 		"/>
		<polyline class="st10" points="80.6,9 103.2,22.1 100.3,23.8 78,10.6 75.1,12.3 97.1,25.6 93.8,27.5 71.6,14.4 68.6,16.1 91,29.1 
			87.8,31 65.8,17.7 62.6,19.6 84.8,32.7 81.6,34.5 59.7,21.4 59.7,17.1 		"/>
		<polyline class="st11" points="80.6,4.8 103.2,17.9 100.3,19.5 78,6.3 75.1,8 97.1,21.4 93.8,23.3 71.6,10.1 68.6,11.9 91,24.9 
			87.8,26.7 65.8,13.5 62.6,15.4 84.8,28.4 81.6,30.3 59.7,17.1 		"/>
	</g>
	<text transform="matrix(1 0 0 1 59.3579 46.0978)"><tspan x="0" y="0" class="st12 st5 st13">solid knitting:</tspan><tspan x="0" y="7" class="st12 st5 st7">dense volume</tspan></text>
</g>
<g id="Layer_2">
</g>
</svg>
