<?xml version="1.0" encoding="utf-8"?>
<!-- Generator: Adobe Illustrator 23.0.1, SVG Export Plug-In . SVG Version: 6.00 Build 0)  -->
<svg version="1.1" xmlns="http://www.w3.org/2000/svg" xmlns:xlink="http://www.w3.org/1999/xlink" x="0px" y="0px"
	 viewBox="0 0 164.94 147.33" style="enable-background:new 0 0 164.94 147.33;" xml:space="preserve">
<style type="text/css">
	.st0{opacity:0.15;fill:#006837;stroke:#2C2E5C;stroke-miterlimit:10;}
	.st1{fill:none;stroke:#000000;stroke-miterlimit:10;}
	.st2{opacity:0.25;fill:#006837;}
	.st3{opacity:0.3;}
	.st4{fill:none;stroke:#000000;stroke-linejoin:round;stroke-miterlimit:10;}
	.st5{opacity:0.6;fill:none;stroke:#006837;stroke-width:2;stroke-linecap:round;stroke-linejoin:round;stroke-miterlimit:10;}
	.st6{opacity:0.15;fill:#006837;stroke:#2C2E5C;stroke-linecap:round;stroke-miterlimit:10;}
	.st7{fill:none;stroke:#000000;stroke-linecap:round;stroke-miterlimit:10;}
	.st8{opacity:0.4;fill:none;stroke:#006837;stroke-width:2;stroke-linecap:round;stroke-linejoin:round;stroke-miterlimit:10;}
	.st9{fill:none;stroke:#009245;stroke-width:2;stroke-miterlimit:10;}
</style>
<g id="Layer_5">
	<circle class="st0" cx="-126.76" cy="70.9" r="64.32"/>
	<circle class="st1" cx="-126.76" cy="70.9" r="64.32"/>
	<polygon class="st2" points="-183.57,40.73 -64.42,86.79 -143,133.15 	"/>
	<polygon class="st2" points="-183.57,40.73 -64.42,86.79 -98.3,13.2 	"/>
</g>
<g id="Layer_6" class="st3">
</g>
<g id="Overlay">
	<polygon class="st4" points="-183.57,40.73 -64.42,86.79 -143,133.15 	"/>
	<polygon class="st4" points="-64.42,86.79 -183.57,40.73 -98.3,13.2 	"/>
	<circle cx="-183.57" cy="40.73" r="1.74"/>
	<circle cx="-64.42" cy="86.79" r="1.74"/>
	<circle cx="-143.2" cy="133.15" r="1.74"/>
	<circle cx="-98.3" cy="13.2" r="1.74"/>
</g>
<g id="Layer_7">
	<polyline class="st5" points="-160.27,55.8 -88.28,84.88 -100.8,86.06 	"/>
	<polyline class="st5" points="-82.72,89.38 -137.1,120.4 -130.26,109.84 	"/>
	<polyline class="st5" points="-141.89,115.58 -167.14,58.3 -157.34,66.18 	"/>
	<polyline class="st5" points="-122.85,56.75 -155.97,43.78 -143.46,42.47 	"/>
	<polyline class="st5" points="-156.78,39.65 -103.32,23.09 -112.28,31.92 	"/>
	<polyline class="st5" points="-98.66,28.7 -78.22,74.65 -88.05,66.79 	"/>
	<line class="st5" x1="-90.58" y1="69.26" x2="-114.55" y2="59.87"/>
</g>
<g id="Text">
	<g>
		<path d="M-79.89,50.05l0.58-0.39l0.12,0.04c-0.01,0.07-0.01,0.13-0.01,0.18c0,0.24,0.08,0.44,0.23,0.6s0.33,0.23,0.55,0.23
			c0.14,0,0.29-0.04,0.44-0.11s0.29-0.18,0.42-0.33c0.17-0.2,0.35-0.51,0.55-0.96s0.42-1.08,0.67-1.92l0.45-1.63
			c-0.29,0.43-0.58,0.81-0.87,1.13c-0.51,0.56-0.85,0.89-1.02,0.99s-0.3,0.15-0.41,0.15c-0.12,0-0.23-0.06-0.32-0.19
			c-0.14-0.2-0.21-0.48-0.21-0.86c0-0.15,0.03-0.46,0.08-0.94c0.09-0.86,0.14-1.61,0.14-2.26c0-0.26-0.01-0.45-0.04-0.57
			c-0.02-0.07-0.04-0.13-0.08-0.16c-0.03-0.02-0.06-0.04-0.1-0.04c-0.12,0-0.36,0.14-0.74,0.43c-0.07,0.05-0.12,0.09-0.15,0.11
			l-0.16-0.21c0.46-0.39,0.88-0.71,1.27-0.95c0.22-0.14,0.39-0.21,0.52-0.21c0.11,0,0.2,0.05,0.27,0.15s0.1,0.3,0.1,0.6
			c0,0.25-0.04,0.79-0.11,1.61c-0.09,0.96-0.13,1.65-0.13,2.08c0,0.2,0.02,0.33,0.07,0.4c0.04,0.05,0.09,0.08,0.16,0.08
			s0.13-0.02,0.2-0.05c0.15-0.08,0.33-0.23,0.53-0.44s0.4-0.45,0.58-0.73c0.3-0.45,0.56-0.96,0.77-1.55c0.13-0.36,0.31-1,0.53-1.93
			c0.23-0.04,0.53-0.11,0.88-0.22l0.13,0.12c-0.11,0.23-0.22,0.5-0.32,0.81c-0.18,0.53-0.44,1.35-0.76,2.45
			c-0.26,0.89-0.45,1.53-0.58,1.9c-0.24,0.72-0.49,1.3-0.74,1.76s-0.57,0.86-0.93,1.21c-0.27,0.27-0.55,0.46-0.82,0.58
			s-0.54,0.18-0.78,0.18c-0.17,0-0.34-0.04-0.51-0.13s-0.29-0.2-0.38-0.35s-0.13-0.3-0.13-0.47
			C-79.92,50.19-79.91,50.12-79.89,50.05z"/>
	</g>
	<g>
		<path d="M-167.8,95.25l-0.12-0.23c0.36-0.27,0.83-0.57,1.42-0.89c0.24-0.13,0.43-0.2,0.56-0.2c0.07,0,0.14,0.03,0.18,0.08
			s0.07,0.13,0.07,0.23c0,0.09-0.03,0.26-0.09,0.52c-0.55,2.22-0.82,3.53-0.82,3.92c0,0.09,0.02,0.16,0.05,0.2s0.08,0.06,0.13,0.06
			c0.07,0,0.16-0.03,0.27-0.09c0.29-0.15,0.6-0.41,0.96-0.78s0.67-0.78,0.97-1.26c0.18-0.28,0.33-0.62,0.46-1.03
			s0.26-0.96,0.39-1.65c0.1-0.02,0.37-0.08,0.8-0.19l0.09,0.09l-0.32,1.06c-0.15,0.55-0.3,1.16-0.44,1.81s-0.23,1.11-0.27,1.38
			c-0.02,0.13-0.02,0.26-0.02,0.39c0,0.1,0.02,0.17,0.05,0.21s0.08,0.06,0.13,0.06s0.13-0.03,0.22-0.08s0.33-0.22,0.72-0.52
			l0.13,0.22c-0.66,0.54-1.13,0.88-1.41,1.04c-0.2,0.11-0.36,0.17-0.47,0.17c-0.07,0-0.14-0.04-0.2-0.11s-0.09-0.17-0.09-0.31
			c0-0.08,0.01-0.18,0.02-0.29c0.03-0.18,0.11-0.54,0.22-1.08l0.24-1.03l-0.04-0.02c-0.4,0.57-0.64,0.9-0.71,1
			c-0.29,0.36-0.63,0.7-1,1.03s-0.74,0.58-1.08,0.74c-0.11,0.05-0.21,0.08-0.29,0.08c-0.11,0-0.21-0.05-0.29-0.16
			s-0.13-0.27-0.13-0.5c0-0.3,0.08-0.76,0.23-1.38c0.22-0.91,0.38-1.62,0.48-2.15c0.06-0.34,0.09-0.56,0.09-0.67
			c0-0.06-0.01-0.11-0.04-0.14s-0.06-0.05-0.11-0.05C-166.99,94.76-167.3,94.92-167.8,95.25z"/>
	</g>
	<g>
		<path d="M-100.35,111.3l0.49-1.39c0.18-0.06,0.35-0.09,0.5-0.09c0.14,0,0.3,0.01,0.47,0.02c0.48,0.05,0.82,0.08,1,0.08
			c0.21,0,0.42-0.03,0.62-0.1l0.11,0.16c-0.34,0.45-0.56,0.74-0.66,0.89c-0.22,0.34-0.4,0.67-0.54,1s-0.25,0.64-0.31,0.95
			s-0.1,0.61-0.1,0.9c0,0.43,0.09,0.75,0.27,0.96s0.4,0.31,0.67,0.31c0.3,0,0.6-0.13,0.89-0.39c0.39-0.34,0.71-0.84,0.96-1.51
			s0.37-1.25,0.37-1.73c0-0.29-0.05-0.49-0.16-0.63c-0.08-0.1-0.2-0.15-0.36-0.15c-0.1,0-0.21,0.03-0.32,0.1l-0.13-0.21
			c0.12-0.1,0.22-0.18,0.29-0.25l0.37-0.39c0.07-0.04,0.15-0.05,0.23-0.05c0.15,0,0.29,0.04,0.42,0.13s0.23,0.21,0.3,0.38
			s0.11,0.37,0.11,0.59c0,0.38-0.07,0.77-0.2,1.19s-0.32,0.84-0.55,1.25s-0.49,0.78-0.77,1.1c-0.37,0.42-0.72,0.72-1.06,0.91
			s-0.63,0.28-0.86,0.28c-0.21,0-0.43-0.06-0.64-0.19s-0.39-0.31-0.5-0.54s-0.18-0.51-0.18-0.81c0-0.57,0.13-1.13,0.38-1.67
			s0.72-1.19,1.4-1.94c-0.2,0.04-0.4,0.05-0.6,0.05l-0.52-0.02c-0.25,0-0.49,0.02-0.71,0.06c-0.08,0.12-0.22,0.37-0.42,0.74
			L-100.35,111.3z"/>
	</g>
	<g>
		<path d="M-141.41,24.05l0.11-0.59c0.02-0.12,0.03-0.27,0.04-0.45l0.23-0.04l0.13,0.34c0.11,0.07,0.2,0.1,0.28,0.1
			c0.14,0,0.26-0.03,0.36-0.1c0.18-0.11,0.4-0.33,0.66-0.67c0.13-0.17,0.38-0.55,0.75-1.15c-0.16-1.14-0.34-1.87-0.53-2.16
			c-0.09-0.14-0.22-0.22-0.39-0.22c-0.11,0-0.22,0.02-0.32,0.07s-0.23,0.16-0.4,0.34l-0.15,0.15l-0.21-0.12l0.7-1
			c0.1-0.07,0.21-0.12,0.33-0.16s0.24-0.05,0.37-0.05c0.38,0,0.67,0.17,0.87,0.52c0.14,0.26,0.26,0.8,0.35,1.64l0.66-0.99
			c0.2-0.29,0.4-0.54,0.63-0.76c0.16-0.16,0.31-0.28,0.45-0.34s0.26-0.09,0.38-0.09c0.12,0,0.24,0.03,0.36,0.1
			c-0.07,0.32-0.13,0.66-0.18,1.02l-0.16,0.04c-0.06-0.11-0.11-0.18-0.17-0.21s-0.12-0.05-0.21-0.05c-0.13,0-0.25,0.03-0.37,0.09
			c-0.16,0.09-0.34,0.25-0.53,0.47c-0.12,0.14-0.39,0.5-0.79,1.07c0.13,0.8,0.23,1.33,0.29,1.59c0.11,0.42,0.23,0.7,0.36,0.84
			c0.09,0.09,0.18,0.13,0.29,0.13s0.22-0.03,0.34-0.1s0.31-0.22,0.58-0.45l0.13,0.21c-0.48,0.46-0.88,0.78-1.18,0.97
			c-0.14,0.09-0.29,0.13-0.43,0.13c-0.25,0-0.46-0.15-0.6-0.46s-0.28-0.92-0.4-1.83c-0.64,1.07-1.15,1.76-1.51,2.06
			c-0.2,0.16-0.42,0.25-0.65,0.25C-141.12,24.21-141.28,24.15-141.41,24.05z"/>
	</g>
	<g>
		<path d="M-116.55,59.98l0.11,0.22c-0.23,0.21-0.5,0.42-0.8,0.64s-0.56,0.38-0.78,0.47c-0.12,0.05-0.21,0.08-0.28,0.08
			c-0.07,0-0.13-0.04-0.19-0.12s-0.09-0.21-0.09-0.4c0-0.12,0.01-0.26,0.04-0.41s0.15-0.7,0.36-1.64l-0.03-0.01
			c-0.29,0.5-0.65,0.97-1.07,1.4s-0.83,0.76-1.23,0.98c-0.25,0.14-0.46,0.21-0.62,0.21s-0.29-0.11-0.39-0.34s-0.15-0.51-0.15-0.84
			c0-0.46,0.07-0.97,0.2-1.53s0.31-1.05,0.52-1.47c0.16-0.32,0.35-0.57,0.56-0.77c0.33-0.3,0.71-0.55,1.14-0.74
			c0.21-0.09,0.43-0.13,0.68-0.13c0.2,0,0.52,0.05,0.96,0.14l0.26-1.47c0.05-0.32,0.08-0.51,0.08-0.59c0-0.12-0.02-0.21-0.07-0.25
			s-0.15-0.07-0.3-0.07l-0.57-0.01l0.03-0.23c0.48-0.06,0.83-0.12,1.05-0.19s0.49-0.18,0.81-0.35l0.15,0.12
			c-0.06,0.23-0.17,0.74-0.32,1.51c-0.09,0.49-0.35,1.73-0.77,3.72c-0.21,0.98-0.34,1.67-0.4,2.06c-0.02,0.12-0.02,0.24-0.02,0.34
			c0,0.11,0.02,0.18,0.05,0.22s0.07,0.06,0.12,0.06c0.07,0,0.17-0.04,0.29-0.12C-116.95,60.3-116.73,60.14-116.55,59.98z
			 M-117.71,56.39c-0.36-0.19-0.74-0.29-1.13-0.29c-0.29,0-0.52,0.04-0.7,0.12c-0.13,0.05-0.24,0.15-0.34,0.28s-0.22,0.41-0.38,0.83
			s-0.26,0.81-0.34,1.14c-0.13,0.55-0.19,1.06-0.19,1.52c0,0.18,0.01,0.3,0.04,0.38s0.05,0.12,0.09,0.15s0.08,0.04,0.14,0.04
			c0.1,0,0.2-0.03,0.32-0.08c0.3-0.15,0.59-0.35,0.86-0.61s0.52-0.55,0.74-0.89s0.4-0.7,0.53-1.08
			C-117.99,57.63-117.87,57.12-117.71,56.39z"/>
	</g>
	<g>
		<g>
			<path d="M-59.19,88.08c0.27-0.36,0.47-0.61,0.62-0.76c0.23-0.24,0.48-0.44,0.73-0.6s0.5-0.28,0.76-0.35s0.48-0.11,0.66-0.11
				c0.16,0,0.29,0.06,0.37,0.18c0.14,0.23,0.22,0.58,0.22,1.07c0,0.66-0.15,1.35-0.44,2.06c-0.22,0.55-0.5,1-0.82,1.35
				s-0.7,0.64-1.11,0.86s-0.79,0.33-1.12,0.33c-0.34,0-0.63-0.1-0.87-0.31s-0.36-0.43-0.36-0.66c0-0.09,0.01-0.18,0.02-0.27
				c0.01-0.07,0.05-0.29,0.13-0.66c0.14-0.62,0.43-2.15,0.87-4.61c0.13-0.73,0.19-1.17,0.19-1.33c0-0.1-0.03-0.16-0.09-0.19
				c-0.08-0.05-0.38-0.07-0.89-0.08l0.03-0.25c0.57-0.07,0.97-0.14,1.2-0.2s0.48-0.16,0.75-0.29l0.15,0.12
				c-0.05,0.19-0.12,0.46-0.18,0.79L-59.19,88.08z M-59.67,90.74c0,0.27,0.08,0.49,0.24,0.64s0.38,0.23,0.65,0.23
				c0.32,0,0.6-0.11,0.84-0.32c0.32-0.28,0.61-0.78,0.87-1.5s0.39-1.38,0.39-1.98c0-0.37-0.04-0.61-0.13-0.73
				c-0.06-0.09-0.16-0.13-0.31-0.13c-0.18,0-0.36,0.03-0.54,0.1s-0.36,0.18-0.56,0.34s-0.38,0.36-0.55,0.59s-0.31,0.47-0.42,0.71
				s-0.21,0.59-0.31,1.04S-59.67,90.53-59.67,90.74z"/>
		</g>
	</g>
	<g>
		<path d="M-186.18,38.41l0.06,0.25l-0.88,0.68c-0.28,0.2-0.5,0.33-0.66,0.4c-0.05,0.03-0.11,0.04-0.15,0.04
			c-0.07,0-0.14-0.04-0.21-0.11s-0.1-0.17-0.1-0.28c0-0.41,0.13-1.1,0.39-2.07l-0.04-0.02c-0.29,0.41-0.52,0.72-0.69,0.91
			c-0.3,0.36-0.61,0.68-0.93,0.94s-0.6,0.46-0.86,0.57c-0.07,0.03-0.14,0.05-0.21,0.05c-0.11,0-0.19-0.05-0.25-0.15
			c-0.11-0.16-0.16-0.44-0.16-0.83c0-0.5,0.09-1.09,0.27-1.76s0.4-1.26,0.65-1.75c0.12-0.25,0.3-0.46,0.53-0.64
			c0.38-0.29,0.72-0.49,1.03-0.6c0.21-0.07,0.44-0.11,0.69-0.11c0.17,0,0.33,0.01,0.48,0.04s0.34,0.08,0.58,0.17l0.38-0.22
			l0.13,0.11c-0.25,0.86-0.47,1.68-0.66,2.45c-0.12,0.46-0.2,0.81-0.24,1.04c-0.07,0.36-0.13,0.71-0.18,1.04
			c-0.01,0.06-0.01,0.12-0.01,0.16c0,0.08,0.02,0.14,0.05,0.18c0.03,0.03,0.06,0.04,0.11,0.04c0.06,0,0.14-0.03,0.24-0.08
			S-186.51,38.66-186.18,38.41z M-187.15,34.73c-0.14-0.07-0.3-0.12-0.46-0.16s-0.33-0.05-0.5-0.05c-0.34,0-0.6,0.06-0.77,0.17
			c-0.08,0.05-0.17,0.18-0.27,0.39c-0.2,0.41-0.37,0.88-0.52,1.39c-0.23,0.8-0.34,1.5-0.34,2.1c0,0.11,0.01,0.18,0.03,0.23
			s0.04,0.09,0.08,0.11s0.07,0.04,0.1,0.04c0.07,0,0.19-0.05,0.34-0.15c0.3-0.21,0.62-0.5,0.95-0.89s0.61-0.83,0.82-1.32
			S-187.3,35.48-187.15,34.73z"/>
	</g>
	<g>
		<path d="M-149.87,139.87c0.27-0.36,0.47-0.61,0.62-0.76c0.23-0.24,0.48-0.44,0.73-0.6s0.5-0.28,0.76-0.35s0.48-0.11,0.66-0.11
			c0.16,0,0.29,0.06,0.37,0.18c0.14,0.23,0.22,0.58,0.22,1.07c0,0.66-0.15,1.35-0.44,2.06c-0.22,0.55-0.5,1-0.82,1.35
			s-0.7,0.64-1.11,0.86s-0.79,0.33-1.12,0.33c-0.34,0-0.63-0.1-0.87-0.31s-0.36-0.43-0.36-0.66c0-0.09,0.01-0.18,0.02-0.27
			c0.01-0.07,0.05-0.29,0.13-0.66c0.14-0.62,0.43-2.15,0.87-4.61c0.13-0.73,0.19-1.17,0.19-1.33c0-0.1-0.03-0.16-0.09-0.19
			c-0.08-0.05-0.38-0.07-0.89-0.08l0.03-0.25c0.57-0.07,0.97-0.14,1.2-0.2s0.48-0.16,0.75-0.29l0.15,0.12
			c-0.05,0.19-0.12,0.46-0.18,0.79L-149.87,139.87z M-150.35,142.53c0,0.27,0.08,0.49,0.24,0.64s0.38,0.23,0.65,0.23
			c0.32,0,0.6-0.11,0.84-0.32c0.32-0.28,0.61-0.78,0.87-1.5s0.39-1.38,0.39-1.98c0-0.37-0.04-0.61-0.13-0.73
			c-0.06-0.09-0.16-0.13-0.31-0.13c-0.18,0-0.36,0.03-0.54,0.1s-0.36,0.18-0.56,0.34s-0.38,0.36-0.55,0.59s-0.31,0.47-0.42,0.71
			s-0.21,0.59-0.31,1.04S-150.35,142.33-150.35,142.53z"/>
		<path d="M-141.15,142.52l0.06,0.25l-0.88,0.68c-0.28,0.2-0.5,0.33-0.66,0.4c-0.05,0.03-0.11,0.04-0.15,0.04
			c-0.07,0-0.14-0.04-0.21-0.11s-0.1-0.17-0.1-0.28c0-0.41,0.13-1.1,0.39-2.07l-0.04-0.02c-0.29,0.41-0.52,0.72-0.69,0.91
			c-0.3,0.36-0.61,0.68-0.93,0.94s-0.6,0.46-0.86,0.57c-0.07,0.03-0.14,0.05-0.21,0.05c-0.11,0-0.19-0.05-0.25-0.15
			c-0.11-0.16-0.16-0.44-0.16-0.83c0-0.5,0.09-1.09,0.27-1.76s0.4-1.26,0.65-1.75c0.12-0.25,0.3-0.46,0.53-0.64
			c0.38-0.29,0.72-0.49,1.03-0.6c0.21-0.07,0.44-0.11,0.69-0.11c0.17,0,0.33,0.01,0.48,0.04s0.34,0.08,0.58,0.17l0.38-0.22
			l0.13,0.11c-0.25,0.86-0.47,1.68-0.66,2.45c-0.12,0.46-0.2,0.81-0.24,1.04c-0.07,0.36-0.13,0.71-0.18,1.04
			c-0.01,0.06-0.01,0.12-0.01,0.16c0,0.08,0.02,0.14,0.05,0.18c0.03,0.03,0.06,0.04,0.11,0.04c0.06,0,0.14-0.03,0.24-0.08
			S-141.48,142.78-141.15,142.52z M-142.12,138.84c-0.14-0.07-0.3-0.12-0.46-0.16s-0.33-0.05-0.5-0.05c-0.34,0-0.6,0.06-0.77,0.17
			c-0.08,0.05-0.17,0.18-0.27,0.39c-0.2,0.41-0.37,0.88-0.52,1.39c-0.23,0.8-0.34,1.5-0.34,2.1c0,0.11,0.01,0.18,0.03,0.23
			s0.04,0.09,0.08,0.11s0.07,0.04,0.1,0.04c0.07,0,0.19-0.05,0.34-0.15c0.3-0.21,0.62-0.5,0.95-0.89s0.61-0.83,0.82-1.32
			S-142.27,139.6-142.12,138.84z"/>
		<path d="M-140.59,143.64c0.09-0.4,0.15-0.7,0.18-0.9s0.05-0.43,0.07-0.68h0.29l-0.01,0.98c0.19,0.15,0.36,0.26,0.52,0.33
			c0.21,0.09,0.42,0.13,0.64,0.13c0.26,0,0.5-0.06,0.71-0.17s0.38-0.27,0.49-0.48s0.17-0.43,0.17-0.67c0-0.17-0.03-0.32-0.1-0.45
			s-0.16-0.21-0.26-0.26s-0.33-0.1-0.67-0.15c-0.49-0.07-0.83-0.16-1.01-0.25s-0.32-0.23-0.42-0.41s-0.16-0.4-0.16-0.64
			c0-0.22,0.04-0.43,0.13-0.62s0.22-0.36,0.39-0.52s0.38-0.31,0.61-0.45s0.44-0.24,0.61-0.29s0.38-0.08,0.61-0.08
			c0.23,0,0.44,0.02,0.64,0.07s0.38,0.12,0.55,0.23c-0.05,0.18-0.09,0.35-0.12,0.49c-0.02,0.09-0.05,0.38-0.1,0.88h-0.28
			c0-0.32-0.01-0.56-0.02-0.72c-0.14-0.15-0.3-0.27-0.48-0.34s-0.39-0.11-0.62-0.11c-0.37,0-0.66,0.11-0.89,0.32
			s-0.34,0.47-0.34,0.77c0,0.24,0.07,0.43,0.22,0.57c0.14,0.14,0.44,0.25,0.9,0.32s0.76,0.13,0.91,0.19
			c0.23,0.09,0.4,0.22,0.52,0.39s0.18,0.37,0.18,0.6c0,0.28-0.06,0.54-0.19,0.79s-0.32,0.48-0.58,0.7s-0.54,0.4-0.84,0.55
			s-0.63,0.22-0.98,0.22c-0.21,0-0.42-0.02-0.61-0.07S-140.33,143.76-140.59,143.64z"/>
		<path d="M-132.12,142.45l0.08,0.23c-0.45,0.41-0.89,0.72-1.33,0.93s-0.81,0.31-1.12,0.31c-0.2,0-0.41-0.05-0.63-0.16
			s-0.39-0.26-0.52-0.48s-0.19-0.53-0.19-0.93c0-0.44,0.07-0.93,0.22-1.46s0.3-0.93,0.45-1.2s0.35-0.5,0.61-0.71
			c0.36-0.29,0.73-0.53,1.14-0.72c0.28-0.13,0.55-0.2,0.81-0.2c0.29,0,0.53,0.08,0.72,0.23s0.28,0.38,0.28,0.66
			c0,0.2-0.04,0.4-0.13,0.6s-0.2,0.37-0.35,0.52c-0.21,0.2-0.49,0.38-0.86,0.56c-0.37,0.17-0.75,0.31-1.15,0.43l-0.76,0.18
			c-0.07,0.4-0.11,0.71-0.11,0.94c0,0.38,0.08,0.67,0.25,0.86c0.17,0.19,0.38,0.29,0.63,0.29c0.23,0,0.48-0.06,0.76-0.17
			C-133.02,143.04-132.63,142.8-132.12,142.45z M-134.8,140.94c0.5-0.09,0.93-0.23,1.29-0.41s0.62-0.39,0.78-0.65
			s0.24-0.5,0.24-0.74c0-0.2-0.05-0.35-0.15-0.46s-0.23-0.16-0.39-0.16c-0.23,0-0.46,0.07-0.69,0.2s-0.42,0.34-0.56,0.61
			S-134.59,140.14-134.8,140.94z"/>
	</g>
	<g>
		<path d="M-98.07,7.64c0-0.48,0.05-0.93,0.15-1.35s0.24-0.78,0.42-1.09s0.4-0.58,0.66-0.82s0.56-0.43,0.88-0.57S-95.31,3.6-95,3.6
			c0.28,0,0.55,0.06,0.8,0.18s0.45,0.31,0.59,0.57s0.21,0.62,0.21,1.07c0,0.6-0.12,1.2-0.36,1.8c-0.19,0.48-0.41,0.86-0.66,1.16
			s-0.56,0.55-0.95,0.76s-0.78,0.31-1.16,0.31c-0.47,0-0.84-0.15-1.12-0.45S-98.07,8.25-98.07,7.64z M-97.14,7.56
			c0,0.38,0.04,0.66,0.12,0.86s0.21,0.34,0.37,0.45s0.36,0.15,0.59,0.15c0.25,0,0.47-0.07,0.66-0.2s0.37-0.38,0.55-0.73
			s0.31-0.77,0.4-1.26s0.12-0.92,0.12-1.3c0-0.49-0.09-0.86-0.27-1.12s-0.45-0.38-0.8-0.38c-0.56,0-1,0.34-1.3,1.01
			S-97.14,6.55-97.14,7.56z"/>
		<path d="M-92.96,12.61l-0.07-0.07c0.2-0.91,0.35-1.65,0.46-2.21c0.3-1.61,0.53-2.86,0.68-3.74c0.09-0.55,0.17-1.14,0.23-1.76
			c0.01-0.09,0.02-0.16,0.02-0.21c0-0.06-0.02-0.11-0.05-0.15s-0.07-0.05-0.11-0.05c-0.02,0-0.05,0-0.08,0.01s-0.08,0.03-0.16,0.07
			s-0.18,0.1-0.34,0.2l-0.46,0.29l-0.12-0.22c0.45-0.38,0.9-0.68,1.33-0.91c0.3-0.15,0.52-0.23,0.67-0.23c0.09,0,0.15,0.02,0.2,0.07
			s0.07,0.12,0.07,0.21c0,0.05,0,0.11-0.01,0.18s-0.03,0.22-0.06,0.44c-0.06,0.34-0.1,0.54-0.11,0.62
			c-0.07,0.36-0.12,0.59-0.13,0.69c0.33-0.55,0.68-0.98,1.05-1.31s0.74-0.57,1.11-0.72c0.28-0.11,0.51-0.17,0.71-0.17
			c0.15,0,0.27,0.04,0.35,0.11s0.17,0.22,0.24,0.45s0.11,0.49,0.11,0.79c0,0.48-0.11,1.04-0.33,1.68c-0.17,0.51-0.37,0.92-0.59,1.24
			s-0.53,0.61-0.93,0.88s-0.77,0.47-1.14,0.62c-0.14,0.05-0.27,0.08-0.4,0.08c-0.09,0-0.18-0.01-0.26-0.03s-0.26-0.07-0.51-0.14
			c-0.04,0.3-0.12,0.79-0.23,1.48l-0.26,1.66C-92.49,12.47-92.78,12.54-92.96,12.61z M-91.47,8.62c0.32,0.19,0.66,0.28,1.01,0.28
			c0.29,0,0.53-0.06,0.72-0.18s0.37-0.33,0.54-0.62c0.27-0.47,0.49-0.98,0.64-1.53s0.23-1.03,0.23-1.44c0-0.35-0.04-0.57-0.11-0.67
			s-0.17-0.15-0.3-0.15c-0.19,0-0.39,0.05-0.6,0.15s-0.42,0.26-0.64,0.46c-0.28,0.27-0.52,0.59-0.74,0.97s-0.38,0.81-0.49,1.29
			C-91.25,7.33-91.34,7.82-91.47,8.62z"/>
		<path d="M-86.96,12.61l-0.07-0.07c0.2-0.91,0.35-1.65,0.46-2.21c0.3-1.61,0.53-2.86,0.68-3.74c0.09-0.55,0.17-1.14,0.23-1.76
			c0.01-0.09,0.02-0.16,0.02-0.21c0-0.06-0.02-0.11-0.05-0.15s-0.07-0.05-0.11-0.05c-0.02,0-0.05,0-0.08,0.01s-0.08,0.03-0.16,0.07
			s-0.18,0.1-0.34,0.2l-0.46,0.29l-0.12-0.22c0.45-0.38,0.9-0.68,1.33-0.91c0.3-0.15,0.52-0.23,0.67-0.23c0.09,0,0.15,0.02,0.2,0.07
			s0.07,0.12,0.07,0.21c0,0.05,0,0.11-0.01,0.18s-0.03,0.22-0.06,0.44c-0.06,0.34-0.1,0.54-0.11,0.62
			c-0.07,0.36-0.12,0.59-0.13,0.69c0.33-0.55,0.68-0.98,1.05-1.31s0.74-0.57,1.11-0.72c0.28-0.11,0.51-0.17,0.71-0.17
			c0.15,0,0.27,0.04,0.35,0.11s0.17,0.22,0.24,0.45s0.11,0.49,0.11,0.79c0,0.48-0.11,1.04-0.33,1.68c-0.17,0.51-0.37,0.92-0.59,1.24
			s-0.53,0.61-0.93,0.88s-0.77,0.47-1.14,0.62c-0.14,0.05-0.27,0.08-0.4,0.08c-0.09,0-0.18-0.01-0.26-0.03s-0.26-0.07-0.51-0.14
			c-0.04,0.3-0.12,0.79-0.23,1.48l-0.26,1.66C-86.49,12.47-86.78,12.54-86.96,12.61z M-85.47,8.62c0.32,0.19,0.66,0.28,1.01,0.28
			c0.29,0,0.53-0.06,0.72-0.18s0.37-0.33,0.54-0.62c0.27-0.47,0.49-0.98,0.64-1.53s0.23-1.03,0.23-1.44c0-0.35-0.04-0.57-0.11-0.67
			s-0.17-0.15-0.3-0.15c-0.19,0-0.39,0.05-0.6,0.15s-0.42,0.26-0.64,0.46c-0.28,0.27-0.52,0.59-0.74,0.97s-0.38,0.81-0.49,1.29
			C-85.25,7.33-85.34,7.82-85.47,8.62z"/>
	</g>
	<g>
		<path d="M47.13,141.64c0.27-0.36,0.47-0.61,0.62-0.76c0.23-0.24,0.48-0.44,0.73-0.6s0.5-0.28,0.76-0.35s0.48-0.11,0.66-0.11
			c0.16,0,0.29,0.06,0.37,0.18c0.14,0.23,0.22,0.58,0.22,1.07c0,0.66-0.15,1.35-0.44,2.06c-0.22,0.55-0.5,1-0.82,1.35
			s-0.7,0.64-1.11,0.86s-0.79,0.33-1.12,0.33c-0.34,0-0.63-0.1-0.87-0.31s-0.36-0.43-0.36-0.66c0-0.09,0.01-0.18,0.02-0.27
			c0.01-0.07,0.05-0.29,0.13-0.66c0.14-0.62,0.43-2.15,0.87-4.61c0.13-0.73,0.19-1.17,0.19-1.33c0-0.1-0.03-0.16-0.09-0.19
			c-0.08-0.05-0.38-0.07-0.89-0.08l0.03-0.25c0.57-0.07,0.97-0.14,1.2-0.2s0.48-0.16,0.75-0.29l0.15,0.12
			c-0.05,0.19-0.12,0.46-0.18,0.79L47.13,141.64z M46.65,144.29c0,0.27,0.08,0.49,0.24,0.64s0.38,0.23,0.65,0.23
			c0.32,0,0.6-0.11,0.84-0.32c0.32-0.28,0.61-0.78,0.87-1.5s0.39-1.38,0.39-1.98c0-0.37-0.04-0.61-0.13-0.73
			c-0.06-0.09-0.16-0.13-0.31-0.13c-0.18,0-0.36,0.03-0.54,0.1s-0.36,0.18-0.56,0.34s-0.38,0.36-0.55,0.59s-0.31,0.47-0.42,0.71
			s-0.21,0.59-0.31,1.04S46.65,144.09,46.65,144.29z"/>
		<path d="M55.85,144.29l0.06,0.25l-0.88,0.68c-0.28,0.2-0.5,0.33-0.66,0.4c-0.05,0.03-0.11,0.04-0.15,0.04
			c-0.07,0-0.14-0.04-0.21-0.11s-0.1-0.17-0.1-0.28c0-0.41,0.13-1.1,0.39-2.07l-0.04-0.02c-0.29,0.41-0.52,0.72-0.69,0.91
			c-0.3,0.36-0.61,0.68-0.93,0.94s-0.6,0.46-0.86,0.57c-0.07,0.03-0.14,0.05-0.21,0.05c-0.11,0-0.19-0.05-0.25-0.15
			c-0.11-0.16-0.16-0.44-0.16-0.83c0-0.5,0.09-1.09,0.27-1.76s0.4-1.26,0.65-1.75c0.12-0.25,0.3-0.46,0.53-0.64
			c0.38-0.29,0.72-0.49,1.03-0.6c0.21-0.07,0.44-0.11,0.69-0.11c0.17,0,0.33,0.01,0.48,0.04s0.34,0.08,0.58,0.17l0.38-0.22
			l0.13,0.11c-0.25,0.86-0.47,1.68-0.66,2.45c-0.12,0.46-0.2,0.81-0.24,1.04c-0.07,0.36-0.13,0.71-0.18,1.04
			c-0.01,0.06-0.01,0.12-0.01,0.16c0,0.08,0.02,0.14,0.05,0.18c0.03,0.03,0.06,0.04,0.11,0.04c0.06,0,0.14-0.03,0.24-0.08
			S55.52,144.54,55.85,144.29z M54.88,140.61c-0.14-0.07-0.3-0.12-0.46-0.16s-0.33-0.05-0.5-0.05c-0.34,0-0.6,0.06-0.77,0.17
			c-0.08,0.05-0.17,0.18-0.27,0.39c-0.2,0.41-0.37,0.88-0.52,1.39c-0.23,0.8-0.34,1.5-0.34,2.1c0,0.11,0.01,0.18,0.03,0.23
			s0.04,0.09,0.08,0.11s0.07,0.04,0.1,0.04c0.07,0,0.19-0.05,0.34-0.15c0.3-0.21,0.62-0.5,0.95-0.89s0.61-0.83,0.82-1.32
			S54.73,141.36,54.88,140.61z"/>
		<path d="M56.41,145.4c0.09-0.4,0.15-0.7,0.18-0.9s0.05-0.43,0.07-0.68h0.29l-0.01,0.98c0.19,0.15,0.36,0.26,0.52,0.33
			c0.21,0.09,0.42,0.13,0.64,0.13c0.26,0,0.5-0.06,0.71-0.17s0.38-0.27,0.49-0.48s0.17-0.43,0.17-0.67c0-0.17-0.03-0.32-0.1-0.45
			s-0.16-0.21-0.26-0.26s-0.33-0.1-0.67-0.15c-0.49-0.07-0.83-0.16-1.01-0.25s-0.32-0.23-0.42-0.41s-0.16-0.4-0.16-0.64
			c0-0.22,0.04-0.43,0.13-0.62s0.22-0.36,0.39-0.52s0.38-0.31,0.61-0.45s0.44-0.24,0.61-0.29s0.38-0.08,0.61-0.08
			c0.23,0,0.44,0.02,0.64,0.07s0.38,0.12,0.55,0.23c-0.05,0.18-0.09,0.35-0.12,0.49c-0.02,0.09-0.05,0.38-0.1,0.88h-0.28
			c0-0.32-0.01-0.56-0.02-0.72c-0.14-0.15-0.3-0.27-0.48-0.34s-0.39-0.11-0.62-0.11c-0.37,0-0.66,0.11-0.89,0.32
			s-0.34,0.47-0.34,0.77c0,0.24,0.07,0.43,0.22,0.57c0.14,0.14,0.44,0.25,0.9,0.32s0.76,0.13,0.91,0.19
			c0.23,0.09,0.4,0.22,0.52,0.39s0.18,0.37,0.18,0.6c0,0.28-0.06,0.54-0.19,0.79s-0.32,0.48-0.58,0.7s-0.54,0.4-0.84,0.55
			s-0.63,0.22-0.98,0.22c-0.21,0-0.42-0.02-0.61-0.07S56.67,145.52,56.41,145.4z"/>
		<path d="M64.88,144.21l0.08,0.23c-0.45,0.41-0.89,0.72-1.33,0.93c-0.44,0.21-0.81,0.31-1.12,0.31c-0.2,0-0.41-0.05-0.63-0.16
			s-0.39-0.26-0.52-0.48s-0.19-0.53-0.19-0.93c0-0.44,0.07-0.93,0.22-1.46s0.3-0.93,0.45-1.2s0.35-0.5,0.61-0.71
			c0.36-0.29,0.73-0.53,1.14-0.72c0.28-0.13,0.55-0.2,0.81-0.2c0.29,0,0.53,0.08,0.72,0.23s0.28,0.38,0.28,0.66
			c0,0.2-0.04,0.4-0.13,0.6s-0.2,0.37-0.35,0.52c-0.21,0.2-0.49,0.38-0.86,0.56c-0.37,0.17-0.75,0.31-1.15,0.43l-0.76,0.18
			c-0.07,0.4-0.11,0.71-0.11,0.94c0,0.38,0.08,0.67,0.25,0.86c0.17,0.19,0.38,0.29,0.63,0.29c0.23,0,0.48-0.06,0.76-0.17
			C63.98,144.8,64.37,144.57,64.88,144.21z M62.2,142.71c0.5-0.09,0.93-0.23,1.29-0.41s0.62-0.39,0.78-0.65s0.24-0.5,0.24-0.74
			c0-0.2-0.05-0.35-0.15-0.46s-0.23-0.16-0.39-0.16c-0.23,0-0.46,0.07-0.69,0.2s-0.42,0.34-0.56,0.61S62.41,141.91,62.2,142.71z"/>
	</g>
</g>
<g id="Layer_8">
	<circle class="st6" cx="85.79" cy="75.78" r="64.32"/>
	<path class="st7" d="M26.46,100.67c-3.22-7.66-4.99-16.07-4.99-24.89c0-35.52,28.8-64.32,64.32-64.32s64.32,28.8,64.32,64.32
		s-28.8,64.32-64.32,64.32c-20.91,0-39.48-9.97-51.23-25.42"/>
	<polygon class="st2" points="28.97,45.61 148.13,91.68 69.54,138.03 	"/>
	<polygon class="st2" points="28.97,45.61 148.13,91.68 114.24,18.09 	"/>
	<circle cx="28.97" cy="45.61" r="1.74"/>
	<circle cx="148.13" cy="91.68" r="1.74"/>
	<circle cx="69.34" cy="138.03" r="1.74"/>
	<circle cx="114.24" cy="18.09" r="1.74"/>
	<g>
		<path d="M132.65,54.93l0.58-0.39l0.12,0.04c-0.01,0.07-0.01,0.13-0.01,0.18c0,0.24,0.08,0.44,0.23,0.6s0.33,0.23,0.55,0.23
			c0.14,0,0.29-0.04,0.44-0.11s0.29-0.18,0.42-0.33c0.17-0.2,0.35-0.51,0.55-0.96s0.42-1.08,0.67-1.92l0.45-1.63
			c-0.29,0.43-0.58,0.81-0.87,1.13c-0.51,0.56-0.85,0.89-1.02,0.99s-0.3,0.15-0.41,0.15c-0.12,0-0.23-0.06-0.32-0.19
			c-0.14-0.2-0.21-0.48-0.21-0.86c0-0.15,0.03-0.46,0.08-0.94c0.09-0.86,0.14-1.61,0.14-2.26c0-0.26-0.01-0.45-0.04-0.57
			c-0.02-0.07-0.04-0.13-0.08-0.16c-0.03-0.02-0.06-0.04-0.1-0.04c-0.12,0-0.36,0.14-0.74,0.43c-0.07,0.05-0.12,0.09-0.15,0.11
			l-0.16-0.21c0.46-0.39,0.88-0.71,1.27-0.95c0.22-0.14,0.39-0.21,0.52-0.21c0.11,0,0.2,0.05,0.27,0.15s0.1,0.3,0.1,0.6
			c0,0.25-0.04,0.79-0.11,1.61c-0.09,0.96-0.13,1.65-0.13,2.08c0,0.2,0.02,0.33,0.07,0.4c0.04,0.05,0.09,0.08,0.16,0.08
			s0.13-0.02,0.2-0.05c0.15-0.08,0.33-0.23,0.53-0.44s0.4-0.45,0.58-0.73c0.3-0.45,0.56-0.96,0.77-1.55c0.13-0.36,0.31-1,0.53-1.93
			c0.23-0.04,0.53-0.11,0.88-0.22l0.13,0.12c-0.11,0.23-0.22,0.5-0.32,0.81c-0.18,0.53-0.44,1.35-0.76,2.45
			c-0.26,0.89-0.45,1.53-0.58,1.9c-0.24,0.72-0.49,1.3-0.74,1.76s-0.57,0.86-0.93,1.21c-0.27,0.27-0.55,0.46-0.82,0.58
			s-0.54,0.18-0.78,0.18c-0.17,0-0.34-0.04-0.51-0.13s-0.29-0.2-0.38-0.35s-0.13-0.3-0.13-0.47
			C132.62,55.07,132.63,55.01,132.65,54.93z"/>
	</g>
	<g>
		<path d="M71.13,28.93l0.11-0.59c0.02-0.12,0.03-0.27,0.04-0.45l0.23-0.04l0.13,0.34c0.11,0.07,0.2,0.1,0.28,0.1
			c0.14,0,0.26-0.03,0.36-0.1c0.18-0.11,0.4-0.33,0.66-0.67c0.13-0.17,0.38-0.55,0.75-1.15c-0.16-1.14-0.34-1.87-0.53-2.16
			c-0.09-0.14-0.22-0.22-0.39-0.22c-0.11,0-0.22,0.02-0.32,0.07s-0.23,0.16-0.4,0.34l-0.15,0.15l-0.21-0.12l0.7-1
			c0.1-0.07,0.21-0.12,0.33-0.16s0.24-0.05,0.37-0.05c0.38,0,0.67,0.17,0.87,0.52c0.14,0.26,0.26,0.8,0.35,1.64l0.66-0.99
			c0.2-0.29,0.4-0.54,0.63-0.76c0.16-0.16,0.31-0.28,0.45-0.34s0.26-0.09,0.38-0.09c0.12,0,0.24,0.03,0.36,0.1
			c-0.07,0.32-0.13,0.66-0.18,1.02l-0.16,0.04c-0.06-0.11-0.11-0.18-0.17-0.21s-0.12-0.05-0.21-0.05c-0.13,0-0.25,0.03-0.37,0.09
			c-0.16,0.09-0.34,0.25-0.53,0.47c-0.12,0.14-0.39,0.5-0.79,1.07c0.13,0.8,0.23,1.33,0.29,1.59c0.11,0.42,0.23,0.7,0.36,0.84
			c0.09,0.09,0.18,0.13,0.29,0.13s0.22-0.03,0.34-0.1s0.31-0.22,0.58-0.45l0.13,0.21c-0.48,0.46-0.88,0.78-1.18,0.97
			c-0.14,0.09-0.29,0.13-0.43,0.13c-0.25,0-0.46-0.15-0.6-0.46s-0.28-0.92-0.4-1.83c-0.64,1.07-1.15,1.76-1.51,2.06
			c-0.2,0.16-0.42,0.25-0.65,0.25C71.42,29.09,71.26,29.04,71.13,28.93z"/>
	</g>
	<g>
		<path d="M95.99,64.87l0.11,0.22c-0.23,0.21-0.5,0.42-0.8,0.64s-0.56,0.38-0.78,0.47c-0.12,0.05-0.21,0.08-0.28,0.08
			c-0.07,0-0.13-0.04-0.19-0.12s-0.09-0.21-0.09-0.4c0-0.12,0.01-0.26,0.04-0.41s0.15-0.7,0.36-1.64l-0.03-0.01
			c-0.29,0.5-0.65,0.97-1.07,1.4s-0.83,0.76-1.23,0.98c-0.25,0.14-0.46,0.21-0.62,0.21s-0.29-0.11-0.39-0.34s-0.15-0.51-0.15-0.84
			c0-0.46,0.07-0.97,0.2-1.53s0.31-1.05,0.52-1.47c0.16-0.32,0.35-0.57,0.56-0.77c0.33-0.3,0.71-0.55,1.14-0.74
			c0.21-0.09,0.43-0.13,0.68-0.13c0.2,0,0.52,0.05,0.96,0.14l0.26-1.47c0.05-0.32,0.08-0.51,0.08-0.59c0-0.12-0.02-0.21-0.07-0.25
			s-0.15-0.07-0.3-0.07l-0.57-0.01l0.03-0.23c0.48-0.06,0.83-0.12,1.05-0.19s0.49-0.18,0.81-0.35l0.15,0.12
			c-0.06,0.23-0.17,0.74-0.32,1.51c-0.09,0.49-0.35,1.73-0.77,3.72c-0.21,0.98-0.34,1.67-0.4,2.06c-0.02,0.12-0.02,0.24-0.02,0.34
			c0,0.11,0.02,0.18,0.05,0.22s0.07,0.06,0.12,0.06c0.07,0,0.17-0.04,0.29-0.12C95.59,65.19,95.81,65.03,95.99,64.87z M94.83,61.27
			c-0.36-0.19-0.74-0.29-1.13-0.29c-0.29,0-0.52,0.04-0.7,0.12c-0.13,0.05-0.24,0.15-0.34,0.28s-0.22,0.41-0.38,0.83
			s-0.26,0.81-0.34,1.14c-0.13,0.55-0.19,1.06-0.19,1.52c0,0.18,0.01,0.3,0.04,0.38s0.05,0.12,0.09,0.15s0.08,0.04,0.14,0.04
			c0.1,0,0.2-0.03,0.32-0.08c0.3-0.15,0.59-0.35,0.86-0.61s0.52-0.55,0.74-0.89s0.4-0.7,0.53-1.08
			C94.55,62.52,94.68,62.01,94.83,61.27z"/>
	</g>
	<g>
		<g>
			<path d="M153.35,92.97c0.27-0.36,0.47-0.61,0.62-0.76c0.23-0.24,0.48-0.44,0.73-0.6s0.5-0.28,0.76-0.35s0.48-0.11,0.66-0.11
				c0.16,0,0.29,0.06,0.37,0.18c0.14,0.23,0.22,0.58,0.22,1.07c0,0.66-0.15,1.35-0.44,2.06c-0.22,0.55-0.5,1-0.82,1.35
				s-0.7,0.64-1.11,0.86s-0.79,0.33-1.12,0.33c-0.34,0-0.63-0.1-0.87-0.31s-0.36-0.43-0.36-0.66c0-0.09,0.01-0.18,0.02-0.27
				c0.01-0.07,0.05-0.29,0.13-0.66c0.14-0.62,0.43-2.15,0.87-4.61c0.13-0.73,0.19-1.17,0.19-1.33c0-0.1-0.03-0.16-0.09-0.19
				c-0.08-0.05-0.38-0.07-0.89-0.08l0.03-0.25c0.57-0.07,0.97-0.14,1.2-0.2s0.48-0.16,0.75-0.29l0.15,0.12
				c-0.05,0.19-0.12,0.46-0.18,0.79L153.35,92.97z M152.87,95.62c0,0.27,0.08,0.49,0.24,0.64s0.38,0.23,0.65,0.23
				c0.32,0,0.6-0.11,0.84-0.32c0.32-0.28,0.61-0.78,0.87-1.5s0.39-1.38,0.39-1.98c0-0.37-0.04-0.61-0.13-0.73
				c-0.06-0.09-0.16-0.13-0.31-0.13c-0.18,0-0.36,0.03-0.54,0.1s-0.36,0.18-0.56,0.34s-0.38,0.36-0.55,0.59s-0.31,0.47-0.42,0.71
				s-0.21,0.59-0.31,1.04S152.87,95.42,152.87,95.62z"/>
		</g>
	</g>
	<g>
		<path d="M26.36,43.29l0.06,0.25l-0.88,0.68c-0.28,0.2-0.5,0.33-0.66,0.4c-0.05,0.03-0.11,0.04-0.15,0.04
			c-0.07,0-0.14-0.04-0.21-0.11s-0.1-0.17-0.1-0.28c0-0.41,0.13-1.1,0.39-2.07l-0.04-0.02c-0.29,0.41-0.52,0.72-0.69,0.91
			c-0.3,0.36-0.61,0.68-0.93,0.94s-0.6,0.46-0.86,0.57c-0.07,0.03-0.14,0.05-0.21,0.05c-0.11,0-0.19-0.05-0.25-0.15
			c-0.11-0.16-0.16-0.44-0.16-0.83c0-0.5,0.09-1.09,0.27-1.76s0.4-1.26,0.65-1.75c0.12-0.25,0.3-0.46,0.53-0.64
			c0.38-0.29,0.72-0.49,1.03-0.6c0.21-0.07,0.44-0.11,0.69-0.11c0.17,0,0.33,0.01,0.48,0.04s0.34,0.08,0.58,0.17l0.38-0.22
			l0.13,0.11c-0.25,0.86-0.47,1.68-0.66,2.45c-0.12,0.46-0.2,0.81-0.24,1.04c-0.07,0.36-0.13,0.71-0.18,1.04
			c-0.01,0.06-0.01,0.12-0.01,0.16c0,0.08,0.02,0.14,0.05,0.18c0.03,0.03,0.06,0.04,0.11,0.04c0.06,0,0.14-0.03,0.24-0.08
			S26.03,43.55,26.36,43.29z M25.39,39.61c-0.14-0.07-0.3-0.12-0.46-0.16s-0.33-0.05-0.5-0.05c-0.34,0-0.6,0.06-0.77,0.17
			c-0.08,0.05-0.17,0.18-0.27,0.39c-0.2,0.41-0.37,0.88-0.52,1.39c-0.23,0.8-0.34,1.5-0.34,2.1c0,0.11,0.01,0.18,0.03,0.23
			s0.04,0.09,0.08,0.11s0.07,0.04,0.1,0.04c0.07,0,0.19-0.05,0.34-0.15c0.3-0.21,0.62-0.5,0.95-0.89s0.61-0.83,0.82-1.32
			S25.24,40.37,25.39,39.61z"/>
	</g>
	<g>
		<path d="M114.47,12.53c0-0.48,0.05-0.93,0.15-1.35s0.24-0.78,0.42-1.09s0.4-0.58,0.66-0.82s0.56-0.43,0.88-0.57
			s0.64-0.21,0.95-0.21c0.28,0,0.55,0.06,0.8,0.18s0.45,0.31,0.59,0.57s0.21,0.62,0.21,1.07c0,0.6-0.12,1.2-0.36,1.8
			c-0.19,0.48-0.41,0.86-0.66,1.16s-0.56,0.55-0.95,0.76s-0.78,0.31-1.16,0.31c-0.47,0-0.84-0.15-1.12-0.45
			S114.47,13.13,114.47,12.53z M115.4,12.45c0,0.38,0.04,0.66,0.12,0.86s0.21,0.34,0.37,0.45s0.36,0.15,0.59,0.15
			c0.25,0,0.47-0.07,0.66-0.2s0.37-0.38,0.55-0.73s0.31-0.77,0.4-1.26s0.12-0.92,0.12-1.3c0-0.49-0.09-0.86-0.27-1.12
			s-0.45-0.38-0.8-0.38c-0.56,0-1,0.34-1.3,1.01S115.4,11.43,115.4,12.45z"/>
		<path d="M119.58,17.5l-0.07-0.07c0.2-0.91,0.35-1.65,0.46-2.21c0.3-1.61,0.53-2.86,0.68-3.74c0.09-0.55,0.17-1.14,0.23-1.76
			c0.01-0.09,0.02-0.16,0.02-0.21c0-0.06-0.02-0.11-0.05-0.15s-0.07-0.05-0.11-0.05c-0.02,0-0.05,0-0.08,0.01s-0.08,0.03-0.16,0.07
			s-0.18,0.1-0.34,0.2l-0.46,0.29l-0.12-0.22c0.45-0.38,0.9-0.68,1.33-0.91c0.3-0.15,0.52-0.23,0.67-0.23c0.09,0,0.15,0.02,0.2,0.07
			s0.07,0.12,0.07,0.21c0,0.05,0,0.11-0.01,0.18s-0.03,0.22-0.06,0.44c-0.06,0.34-0.1,0.54-0.11,0.62
			c-0.07,0.36-0.12,0.59-0.13,0.69c0.33-0.55,0.68-0.98,1.05-1.31s0.74-0.57,1.11-0.72c0.28-0.11,0.51-0.17,0.71-0.17
			c0.15,0,0.27,0.04,0.35,0.11s0.17,0.22,0.24,0.45s0.11,0.49,0.11,0.79c0,0.48-0.11,1.04-0.33,1.68c-0.17,0.51-0.37,0.92-0.59,1.24
			s-0.53,0.61-0.93,0.88s-0.77,0.47-1.14,0.62c-0.14,0.05-0.27,0.08-0.4,0.08c-0.09,0-0.18-0.01-0.26-0.03s-0.26-0.07-0.51-0.14
			c-0.04,0.3-0.12,0.79-0.23,1.48l-0.26,1.66C120.06,17.36,119.76,17.42,119.58,17.5z M121.07,13.51c0.32,0.19,0.66,0.28,1.01,0.28
			c0.29,0,0.53-0.06,0.72-0.18s0.37-0.33,0.54-0.62c0.27-0.47,0.49-0.98,0.64-1.53s0.23-1.03,0.23-1.44c0-0.35-0.04-0.57-0.11-0.67
			s-0.17-0.15-0.3-0.15c-0.19,0-0.39,0.05-0.6,0.15s-0.42,0.26-0.64,0.46c-0.28,0.27-0.52,0.59-0.74,0.97s-0.38,0.81-0.49,1.29
			C121.29,12.22,121.2,12.71,121.07,13.51z"/>
		<path d="M125.58,17.5l-0.07-0.07c0.2-0.91,0.35-1.65,0.46-2.21c0.3-1.61,0.53-2.86,0.68-3.74c0.09-0.55,0.17-1.14,0.23-1.76
			c0.01-0.09,0.02-0.16,0.02-0.21c0-0.06-0.02-0.11-0.05-0.15s-0.07-0.05-0.11-0.05c-0.02,0-0.05,0-0.08,0.01s-0.08,0.03-0.16,0.07
			s-0.18,0.1-0.34,0.2l-0.46,0.29l-0.12-0.22c0.45-0.38,0.9-0.68,1.33-0.91c0.3-0.15,0.52-0.23,0.67-0.23c0.09,0,0.15,0.02,0.2,0.07
			s0.07,0.12,0.07,0.21c0,0.05,0,0.11-0.01,0.18s-0.03,0.22-0.06,0.44c-0.06,0.34-0.1,0.54-0.11,0.62
			c-0.07,0.36-0.12,0.59-0.13,0.69c0.33-0.55,0.68-0.98,1.05-1.31s0.74-0.57,1.11-0.72c0.28-0.11,0.51-0.17,0.71-0.17
			c0.15,0,0.27,0.04,0.35,0.11s0.17,0.22,0.24,0.45s0.11,0.49,0.11,0.79c0,0.48-0.11,1.04-0.33,1.68c-0.17,0.51-0.37,0.92-0.59,1.24
			s-0.53,0.61-0.93,0.88s-0.77,0.47-1.14,0.62c-0.14,0.05-0.27,0.08-0.4,0.08c-0.09,0-0.18-0.01-0.26-0.03s-0.26-0.07-0.51-0.14
			c-0.04,0.3-0.12,0.79-0.23,1.48l-0.26,1.66C126.06,17.36,125.76,17.42,125.58,17.5z M127.07,13.51c0.32,0.19,0.66,0.28,1.01,0.28
			c0.29,0,0.53-0.06,0.72-0.18s0.37-0.33,0.54-0.62c0.27-0.47,0.49-0.98,0.64-1.53s0.23-1.03,0.23-1.44c0-0.35-0.04-0.57-0.11-0.67
			s-0.17-0.15-0.3-0.15c-0.19,0-0.39,0.05-0.6,0.15s-0.42,0.26-0.64,0.46c-0.28,0.27-0.52,0.59-0.74,0.97
			c-0.21,0.38-0.38,0.81-0.49,1.29C127.29,12.22,127.2,12.71,127.07,13.51z"/>
	</g>
	<g>
		<path d="M6.52,109.69c0.06-0.27,0.1-0.47,0.12-0.6s0.04-0.28,0.05-0.45h0.2l0,0.66c0.12,0.1,0.24,0.17,0.35,0.22
			c0.14,0.06,0.28,0.09,0.43,0.09c0.17,0,0.33-0.04,0.48-0.11c0.14-0.08,0.25-0.18,0.33-0.32s0.11-0.29,0.11-0.45
			c0-0.11-0.02-0.21-0.07-0.3c-0.05-0.08-0.1-0.14-0.17-0.17c-0.07-0.03-0.22-0.07-0.45-0.1c-0.33-0.05-0.55-0.1-0.67-0.16
			c-0.12-0.06-0.21-0.15-0.28-0.28c-0.07-0.12-0.1-0.26-0.1-0.42c0-0.15,0.03-0.29,0.09-0.41s0.15-0.24,0.26-0.35
			c0.12-0.11,0.25-0.21,0.41-0.3s0.29-0.16,0.41-0.2c0.12-0.04,0.25-0.05,0.4-0.05c0.15,0,0.29,0.02,0.42,0.05
			c0.13,0.03,0.25,0.08,0.37,0.15c-0.04,0.12-0.06,0.23-0.08,0.32c-0.01,0.06-0.03,0.25-0.07,0.59H8.85c0-0.21-0.01-0.37-0.01-0.48
			c-0.09-0.1-0.2-0.18-0.32-0.23c-0.12-0.05-0.26-0.07-0.42-0.07c-0.25,0-0.44,0.07-0.59,0.21s-0.22,0.31-0.22,0.51
			c0,0.16,0.05,0.29,0.15,0.38c0.1,0.1,0.3,0.17,0.6,0.21c0.3,0.05,0.5,0.09,0.61,0.13c0.15,0.06,0.27,0.15,0.34,0.26
			c0.08,0.11,0.12,0.25,0.12,0.4c0,0.19-0.04,0.36-0.13,0.53c-0.08,0.17-0.21,0.32-0.39,0.47s-0.36,0.27-0.56,0.37
			c-0.2,0.1-0.42,0.15-0.65,0.15c-0.14,0-0.28-0.02-0.41-0.05C6.84,109.82,6.69,109.77,6.52,109.69z"/>
		<path d="M11.66,108.85l0.09,0.14c-0.23,0.19-0.47,0.37-0.7,0.53s-0.4,0.27-0.51,0.32c-0.06,0.03-0.12,0.04-0.18,0.04
			c-0.07,0-0.13-0.03-0.18-0.1c-0.05-0.06-0.07-0.17-0.07-0.31c0-0.06,0-0.13,0.02-0.21c0.01-0.08,0.03-0.19,0.05-0.32l0.18-0.8
			c0.06-0.28,0.15-0.76,0.28-1.44l-0.67,0.02l0.02-0.12c0.21-0.08,0.35-0.14,0.43-0.17c0.08-0.03,0.17-0.07,0.27-0.13
			c0.04-0.2,0.07-0.36,0.08-0.46s0.06-0.4,0.12-0.88l0.34-0.14l0.27-0.14l0.09,0.07c-0.1,0.42-0.16,0.64-0.17,0.68
			c-0.02,0.09-0.08,0.4-0.19,0.93c0.12,0.01,0.21,0.01,0.28,0.01c0.26,0,0.44-0.02,0.55-0.05l0.04,0.03l-0.09,0.38
			c-0.11,0-0.39-0.01-0.84-0.02c-0.05,0.22-0.12,0.58-0.22,1.1s-0.17,0.9-0.2,1.13c-0.01,0.09-0.02,0.17-0.02,0.22
			c0,0.06,0.01,0.11,0.04,0.13c0.03,0.03,0.06,0.04,0.11,0.04c0.03,0,0.07-0.01,0.11-0.02c0.08-0.03,0.17-0.09,0.29-0.16
			L11.66,108.85z"/>
		<path d="M15.48,108.94l0.04,0.17l-0.59,0.45c-0.18,0.13-0.33,0.22-0.44,0.27c-0.04,0.02-0.07,0.03-0.1,0.03
			c-0.05,0-0.09-0.02-0.14-0.07c-0.04-0.05-0.07-0.11-0.07-0.18c0-0.28,0.09-0.74,0.26-1.38l-0.03-0.01
			c-0.2,0.28-0.35,0.48-0.46,0.61c-0.2,0.24-0.41,0.45-0.62,0.63c-0.21,0.18-0.4,0.3-0.57,0.38c-0.05,0.02-0.1,0.03-0.14,0.03
			c-0.07,0-0.13-0.03-0.17-0.1c-0.07-0.11-0.11-0.29-0.11-0.55c0-0.33,0.06-0.72,0.18-1.17c0.12-0.45,0.26-0.84,0.43-1.17
			c0.08-0.17,0.2-0.31,0.36-0.43c0.25-0.19,0.48-0.33,0.68-0.4c0.14-0.05,0.29-0.07,0.46-0.07c0.11,0,0.22,0.01,0.32,0.03
			c0.1,0.02,0.23,0.06,0.38,0.11l0.25-0.15l0.09,0.07c-0.17,0.58-0.31,1.12-0.44,1.63c-0.08,0.31-0.13,0.54-0.16,0.69
			c-0.05,0.24-0.09,0.47-0.12,0.69c0,0.04-0.01,0.08-0.01,0.11c0,0.05,0.01,0.09,0.03,0.12c0.02,0.02,0.04,0.03,0.07,0.03
			c0.04,0,0.1-0.02,0.16-0.05C15.11,109.22,15.25,109.11,15.48,108.94z M14.83,106.49c-0.1-0.05-0.2-0.08-0.3-0.1
			c-0.11-0.02-0.22-0.03-0.34-0.03c-0.23,0-0.4,0.04-0.52,0.11c-0.05,0.03-0.11,0.12-0.18,0.26c-0.13,0.28-0.25,0.58-0.34,0.93
			c-0.15,0.53-0.23,1-0.23,1.4c0,0.07,0.01,0.12,0.02,0.16c0.01,0.03,0.03,0.06,0.05,0.08c0.02,0.02,0.05,0.03,0.07,0.03
			c0.05,0,0.12-0.03,0.23-0.1c0.2-0.14,0.41-0.34,0.63-0.59s0.4-0.55,0.55-0.88S14.73,106.99,14.83,106.49z"/>
		<path d="M16.22,109.86l-0.07-0.05c0.13-0.44,0.23-0.8,0.3-1.09c0.13-0.56,0.23-1.07,0.29-1.5c0.04-0.25,0.05-0.43,0.05-0.52
			c0-0.07-0.01-0.12-0.03-0.14c-0.01-0.02-0.03-0.03-0.06-0.03c-0.09,0-0.31,0.13-0.66,0.38l-0.09-0.13
			c0.35-0.29,0.66-0.51,0.92-0.65c0.18-0.1,0.32-0.15,0.41-0.15c0.05,0,0.08,0.02,0.11,0.05s0.04,0.08,0.04,0.14
			c0,0.07-0.02,0.2-0.05,0.38c-0.06,0.33-0.13,0.71-0.23,1.13c0.28-0.48,0.55-0.89,0.84-1.23c0.18-0.21,0.31-0.35,0.41-0.4
			s0.18-0.08,0.27-0.08c0.05,0,0.1,0.01,0.16,0.04c-0.04,0.23-0.09,0.52-0.13,0.86l-0.11,0.02c-0.08-0.1-0.17-0.16-0.26-0.16
			c-0.09,0-0.19,0.04-0.29,0.11c-0.17,0.12-0.35,0.31-0.53,0.59s-0.33,0.61-0.44,1.01c-0.06,0.21-0.16,0.64-0.29,1.29
			C16.52,109.78,16.34,109.82,16.22,109.86z"/>
		<path d="M20.99,108.85l0.09,0.14c-0.23,0.19-0.47,0.37-0.7,0.53s-0.4,0.27-0.51,0.32c-0.06,0.03-0.12,0.04-0.18,0.04
			c-0.07,0-0.13-0.03-0.18-0.1c-0.05-0.06-0.07-0.17-0.07-0.31c0-0.06,0-0.13,0.02-0.21c0.01-0.08,0.03-0.19,0.05-0.32l0.18-0.8
			c0.06-0.28,0.15-0.76,0.28-1.44l-0.67,0.02l0.02-0.12c0.21-0.08,0.35-0.14,0.43-0.17c0.08-0.03,0.17-0.07,0.27-0.13
			c0.04-0.2,0.07-0.36,0.08-0.46s0.06-0.4,0.12-0.88l0.34-0.14l0.27-0.14l0.09,0.07c-0.1,0.42-0.16,0.64-0.17,0.68
			c-0.02,0.09-0.08,0.4-0.19,0.93c0.12,0.01,0.21,0.01,0.28,0.01c0.26,0,0.44-0.02,0.55-0.05l0.04,0.03l-0.09,0.38
			c-0.11,0-0.39-0.01-0.84-0.02c-0.05,0.22-0.12,0.58-0.22,1.1s-0.17,0.9-0.2,1.13c-0.01,0.09-0.02,0.17-0.02,0.22
			c0,0.06,0.01,0.11,0.04,0.13c0.03,0.03,0.06,0.04,0.11,0.04c0.03,0,0.07-0.01,0.11-0.02c0.08-0.03,0.17-0.09,0.29-0.16
			L20.99,108.85z"/>
		<path d="M21.54,111.05v-0.46h4v0.46H21.54z"/>
		<path d="M25.69,109.85l-0.05-0.05c0.19-0.74,0.34-1.37,0.46-1.88c0.14-0.64,0.27-1.25,0.37-1.84c0.1-0.58,0.17-1.02,0.22-1.32
			c0-0.04,0.01-0.08,0.01-0.12c0-0.05-0.01-0.09-0.03-0.11c-0.02-0.02-0.06-0.04-0.11-0.05c-0.05-0.01-0.22-0.01-0.51-0.01
			l0.02-0.16c0.59-0.09,1.02-0.2,1.29-0.33l0.08,0.08c-0.05,0.2-0.08,0.35-0.11,0.45l-0.34,1.58l-0.32,1.52l0.03,0.02
			c0.21-0.27,0.37-0.46,0.5-0.6c0.21-0.23,0.42-0.43,0.64-0.58s0.44-0.27,0.66-0.36c0.16-0.05,0.28-0.08,0.36-0.08
			c0.06,0,0.11,0.02,0.15,0.07c0.04,0.04,0.06,0.1,0.06,0.17c0,0.05-0.01,0.11-0.02,0.18c-0.02,0.09-0.07,0.32-0.16,0.68
			c-0.17,0.66-0.3,1.23-0.39,1.7c-0.04,0.21-0.07,0.35-0.07,0.42c0,0.04,0.01,0.07,0.03,0.09c0.02,0.02,0.04,0.03,0.07,0.03
			c0.1,0,0.32-0.13,0.68-0.4l0.08,0.14c-0.14,0.12-0.33,0.26-0.56,0.42c-0.23,0.16-0.43,0.27-0.6,0.35
			c-0.05,0.02-0.09,0.03-0.12,0.03c-0.05,0-0.09-0.03-0.13-0.08c-0.04-0.05-0.06-0.13-0.06-0.25c0-0.1,0.03-0.27,0.08-0.49
			l0.29-1.25c0.1-0.44,0.17-0.76,0.21-0.97c0.01-0.06,0.02-0.12,0.02-0.16c0-0.04-0.01-0.08-0.04-0.1
			c-0.03-0.02-0.06-0.04-0.11-0.04c-0.08,0-0.16,0.02-0.25,0.07c-0.22,0.12-0.46,0.3-0.71,0.54c-0.25,0.25-0.44,0.51-0.58,0.78
			c-0.14,0.28-0.25,0.58-0.32,0.9l-0.17,0.89l-0.4,0.09C25.78,109.82,25.73,109.83,25.69,109.85z"/>
		<path d="M32.16,108.89l0.05,0.15c-0.3,0.27-0.6,0.48-0.89,0.62c-0.29,0.14-0.54,0.21-0.74,0.21c-0.13,0-0.27-0.03-0.42-0.1
			c-0.15-0.07-0.26-0.18-0.35-0.32c-0.08-0.15-0.13-0.35-0.13-0.62c0-0.29,0.05-0.62,0.15-0.97s0.2-0.62,0.3-0.8
			c0.1-0.18,0.23-0.33,0.41-0.47c0.24-0.2,0.49-0.36,0.76-0.48c0.19-0.09,0.37-0.13,0.54-0.13c0.2,0,0.36,0.05,0.48,0.16
			c0.13,0.1,0.19,0.25,0.19,0.44c0,0.14-0.03,0.27-0.08,0.4s-0.13,0.25-0.23,0.34c-0.14,0.13-0.33,0.26-0.57,0.37
			c-0.25,0.12-0.5,0.21-0.76,0.29l-0.51,0.12c-0.05,0.27-0.07,0.47-0.07,0.62c0,0.26,0.06,0.45,0.17,0.57
			c0.11,0.13,0.25,0.19,0.42,0.19c0.15,0,0.32-0.04,0.51-0.11C31.56,109.29,31.82,109.13,32.16,108.89z M30.37,107.89
			c0.33-0.06,0.62-0.15,0.86-0.27c0.24-0.12,0.41-0.26,0.52-0.43c0.11-0.17,0.16-0.33,0.16-0.49c0-0.13-0.03-0.23-0.1-0.3
			s-0.15-0.11-0.26-0.11c-0.15,0-0.3,0.04-0.46,0.13s-0.28,0.22-0.37,0.4S30.51,107.36,30.37,107.89z"/>
		<path d="M36.26,108.91l0.07,0.14c-0.15,0.14-0.33,0.28-0.53,0.43c-0.2,0.15-0.38,0.25-0.52,0.31c-0.08,0.04-0.14,0.05-0.19,0.05
			c-0.05,0-0.09-0.03-0.13-0.08c-0.04-0.05-0.06-0.14-0.06-0.27c0-0.08,0.01-0.17,0.03-0.28c0.02-0.1,0.1-0.46,0.24-1.09l-0.02,0
			c-0.2,0.33-0.43,0.64-0.71,0.93s-0.55,0.51-0.82,0.65c-0.17,0.09-0.31,0.14-0.41,0.14s-0.19-0.08-0.26-0.23s-0.1-0.34-0.1-0.56
			c0-0.3,0.04-0.64,0.13-1.02c0.09-0.38,0.21-0.7,0.35-0.98c0.11-0.21,0.23-0.38,0.38-0.51c0.22-0.2,0.47-0.37,0.76-0.5
			c0.14-0.06,0.29-0.09,0.45-0.09c0.13,0,0.34,0.03,0.64,0.09l0.17-0.98c0.04-0.21,0.05-0.34,0.05-0.39c0-0.08-0.02-0.14-0.05-0.17
			s-0.1-0.05-0.2-0.05l-0.38,0l0.02-0.16c0.32-0.04,0.55-0.08,0.7-0.12c0.14-0.04,0.33-0.12,0.54-0.23l0.1,0.08
			c-0.04,0.16-0.11,0.49-0.21,1c-0.06,0.33-0.23,1.16-0.51,2.48c-0.14,0.65-0.23,1.11-0.27,1.38c-0.01,0.08-0.02,0.16-0.02,0.23
			c0,0.07,0.01,0.12,0.03,0.15s0.05,0.04,0.08,0.04c0.05,0,0.11-0.03,0.2-0.08C35.99,109.13,36.14,109.02,36.26,108.91z
			 M35.48,106.51c-0.24-0.13-0.49-0.19-0.75-0.19c-0.19,0-0.35,0.03-0.47,0.08c-0.09,0.04-0.16,0.1-0.23,0.19
			c-0.07,0.09-0.15,0.27-0.25,0.56c-0.1,0.28-0.18,0.54-0.23,0.76c-0.09,0.37-0.13,0.71-0.13,1.02c0,0.12,0.01,0.2,0.02,0.25
			c0.02,0.05,0.04,0.08,0.06,0.1c0.02,0.02,0.06,0.03,0.09,0.03c0.07,0,0.14-0.02,0.21-0.05c0.2-0.1,0.39-0.23,0.58-0.41
			s0.35-0.37,0.5-0.59c0.15-0.22,0.26-0.46,0.35-0.72C35.3,107.34,35.38,107.01,35.48,106.51z"/>
		<path d="M38.05,109.63c-0.08-0.09-0.13-0.15-0.15-0.18c-0.02-0.03-0.03-0.06-0.03-0.09c0-0.05,0.02-0.1,0.06-0.17
			c0.07-0.11,0.23-0.27,0.47-0.49c-0.07,0-0.13,0-0.18,0c-0.33,0-0.58-0.08-0.75-0.25c-0.17-0.17-0.26-0.41-0.26-0.71
			c0-0.31,0.07-0.59,0.22-0.86c0.14-0.26,0.36-0.48,0.65-0.65c0.29-0.17,0.59-0.25,0.89-0.25c0.25,0,0.45,0.04,0.61,0.13
			c0.12,0.07,0.23,0.17,0.31,0.3c0.24-0.01,0.37-0.01,0.39-0.01c0.07-0.01,0.17-0.02,0.29-0.04l0.02,0.02l-0.06,0.39
			c-0.07,0-0.14-0.01-0.19-0.01c-0.09,0-0.2,0.01-0.33,0.02c0.01,0.09,0.02,0.16,0.02,0.23c0,0.18-0.02,0.34-0.07,0.47
			c-0.05,0.14-0.11,0.27-0.19,0.38c-0.07,0.12-0.16,0.22-0.25,0.31s-0.21,0.18-0.37,0.26s-0.31,0.15-0.46,0.18
			c-0.15,0.14-0.22,0.26-0.22,0.36c0,0.1,0.04,0.19,0.11,0.27c0.08,0.09,0.31,0.29,0.7,0.62c0.22,0.18,0.36,0.33,0.43,0.47
			c0.07,0.14,0.11,0.27,0.11,0.4c0,0.17-0.06,0.35-0.18,0.53c-0.12,0.18-0.34,0.34-0.65,0.48c-0.32,0.14-0.68,0.21-1.11,0.21
			c-0.48,0-0.83-0.09-1.06-0.27c-0.22-0.18-0.34-0.41-0.34-0.68c0-0.16,0.05-0.33,0.14-0.5c0.09-0.17,0.26-0.33,0.51-0.49
			S37.69,109.74,38.05,109.63z M38.17,109.77c-0.23,0.06-0.44,0.15-0.64,0.28c-0.2,0.13-0.33,0.26-0.42,0.41s-0.12,0.3-0.12,0.46
			c0,0.23,0.09,0.43,0.28,0.59s0.46,0.24,0.82,0.24c0.4,0,0.71-0.09,0.95-0.27c0.17-0.13,0.26-0.3,0.26-0.49
			c0-0.1-0.03-0.2-0.08-0.3s-0.14-0.2-0.26-0.31L38.17,109.77z M37.78,107.58c0,0.28,0.07,0.5,0.2,0.64s0.31,0.22,0.54,0.22
			c0.2,0,0.36-0.06,0.5-0.18s0.24-0.29,0.31-0.52c0.07-0.23,0.11-0.46,0.11-0.7c0-0.27-0.06-0.48-0.19-0.62
			c-0.13-0.14-0.3-0.21-0.52-0.21c-0.31,0-0.55,0.13-0.71,0.4C37.86,106.9,37.78,107.22,37.78,107.58z"/>
		<path d="M43.27,108.89l0.05,0.15c-0.3,0.27-0.6,0.48-0.89,0.62c-0.29,0.14-0.54,0.21-0.74,0.21c-0.13,0-0.27-0.03-0.42-0.1
			c-0.15-0.07-0.26-0.18-0.35-0.32c-0.08-0.15-0.13-0.35-0.13-0.62c0-0.29,0.05-0.62,0.15-0.97s0.2-0.62,0.3-0.8
			c0.1-0.18,0.23-0.33,0.41-0.47c0.24-0.2,0.49-0.36,0.76-0.48c0.19-0.09,0.37-0.13,0.54-0.13c0.2,0,0.36,0.05,0.48,0.16
			c0.13,0.1,0.19,0.25,0.19,0.44c0,0.14-0.03,0.27-0.08,0.4s-0.13,0.25-0.23,0.34c-0.14,0.13-0.33,0.26-0.57,0.37
			c-0.25,0.12-0.5,0.21-0.76,0.29l-0.51,0.12c-0.05,0.27-0.07,0.47-0.07,0.62c0,0.26,0.06,0.45,0.17,0.57
			c0.11,0.13,0.25,0.19,0.42,0.19c0.15,0,0.32-0.04,0.51-0.11C42.67,109.29,42.93,109.13,43.27,108.89z M41.49,107.89
			c0.33-0.06,0.62-0.15,0.86-0.27c0.24-0.12,0.41-0.26,0.52-0.43c0.11-0.17,0.16-0.33,0.16-0.49c0-0.13-0.03-0.23-0.1-0.3
			s-0.15-0.11-0.26-0.11c-0.15,0-0.3,0.04-0.46,0.13s-0.28,0.22-0.37,0.4S41.63,107.36,41.49,107.89z"/>
	</g>
	<g>
		<path d="M56.84,71.43l-0.03-0.08l0.51-0.65c0.2-0.26,0.38-0.52,0.56-0.77c0.22-0.32,0.41-0.61,0.55-0.87
			c0.07-0.12,0.12-0.21,0.14-0.27c0.03-0.07,0.04-0.12,0.03-0.16c-0.01-0.04-0.03-0.06-0.06-0.07c-0.04-0.01-0.1-0.02-0.18-0.01
			c-0.16,0.01-0.33,0.04-0.51,0.08l0.01-0.18c0.15-0.04,0.36-0.09,0.61-0.14c0.26-0.05,0.46-0.07,0.62-0.07
			c0.08,0.01,0.15,0.02,0.2,0.04c0.05,0.02,0.08,0.05,0.1,0.09c0.02,0.04,0.01,0.09-0.02,0.15c-0.02,0.06-0.07,0.14-0.13,0.24
			c-0.02,0.03-0.24,0.35-0.65,0.96c0.37-0.22,0.66-0.38,0.88-0.47c0.37-0.15,0.73-0.24,1.07-0.27c0.22-0.02,0.41,0,0.55,0.06
			c0.06,0.03,0.1,0.06,0.12,0.1c0.02,0.04,0.01,0.08-0.01,0.14c-0.04,0.09-0.1,0.21-0.19,0.35c-0.06,0.09-0.26,0.38-0.6,0.86
			c0.38-0.24,0.75-0.41,1.1-0.52c0.35-0.11,0.68-0.18,1.01-0.19c0.22-0.01,0.39,0.02,0.52,0.07c0.06,0.03,0.1,0.06,0.12,0.1
			c0.02,0.04,0.01,0.09-0.01,0.15c-0.03,0.07-0.09,0.18-0.18,0.31c-0.16,0.23-0.43,0.6-0.82,1.11c-0.46,0.6-0.72,0.96-0.78,1.11
			c-0.02,0.05-0.03,0.09-0.01,0.12c0.01,0.03,0.03,0.06,0.05,0.07c0.03,0.01,0.07,0.02,0.11,0.02c0.06,0,0.15-0.01,0.26-0.03
			l0.36-0.08v0.17c-0.15,0.05-0.35,0.1-0.62,0.15c-0.27,0.05-0.47,0.08-0.62,0.08c-0.07,0-0.13-0.01-0.18-0.03
			c-0.06-0.02-0.09-0.07-0.12-0.13s-0.02-0.14,0.02-0.23c0.03-0.07,0.06-0.13,0.09-0.18s0.12-0.17,0.25-0.33
			c0.13-0.17,0.36-0.46,0.67-0.89c0.26-0.35,0.44-0.61,0.53-0.77c0.1-0.16,0.15-0.25,0.16-0.28c0.02-0.04,0.02-0.08,0.01-0.11
			c-0.01-0.03-0.03-0.06-0.06-0.07c-0.06-0.03-0.18-0.03-0.36-0.02c-0.18,0.01-0.39,0.07-0.65,0.17c-0.26,0.1-0.49,0.22-0.68,0.36
			s-0.39,0.32-0.59,0.56c-0.19,0.23-0.46,0.62-0.79,1.15c-0.16-0.04-0.34-0.07-0.55-0.11l-0.03-0.07c0.28-0.35,0.57-0.75,0.88-1.17
			c0.3-0.43,0.54-0.78,0.7-1.05c0.12-0.2,0.19-0.33,0.22-0.4c0.02-0.05,0.03-0.1,0.02-0.14c-0.01-0.03-0.03-0.05-0.06-0.06
			c-0.07-0.03-0.16-0.03-0.28-0.02c-0.18,0.01-0.39,0.07-0.63,0.17s-0.48,0.23-0.7,0.39c-0.22,0.16-0.44,0.37-0.64,0.64
			c-0.21,0.26-0.46,0.62-0.74,1.05C57.18,71.49,57,71.46,56.84,71.43z"/>
		<path d="M63.66,71.06l0-0.17c0.55-0.12,0.91-0.18,1.08-0.19c0.17-0.01,0.3,0,0.38,0.04c0.05,0.02,0.07,0.05,0.08,0.09
			c0.01,0.06,0,0.13-0.03,0.22c-0.02,0.04-0.05,0.09-0.1,0.16c-0.09,0.13-0.27,0.37-0.53,0.71c-0.67,0.87-1.04,1.39-1.11,1.56
			c-0.02,0.05-0.03,0.09-0.02,0.12c0.01,0.03,0.03,0.05,0.06,0.07c0.05,0.02,0.12,0.03,0.21,0.02c0.09,0,0.26-0.04,0.51-0.1
			l0.01,0.17c-0.51,0.14-0.89,0.21-1.13,0.23c-0.11,0.01-0.2,0-0.26-0.02c-0.06-0.03-0.1-0.08-0.13-0.15
			c-0.02-0.08-0.02-0.16,0.03-0.26c0.03-0.08,0.08-0.16,0.13-0.25c0.06-0.09,0.17-0.24,0.34-0.46c0.7-0.89,1.1-1.46,1.2-1.7
			c0.02-0.05,0.03-0.09,0.02-0.11c0-0.02-0.02-0.04-0.04-0.05c-0.03-0.01-0.07-0.02-0.12-0.02C64.23,70.97,64.03,71,63.66,71.06z
			 M65.44,69.4c0.06-0.13,0.14-0.23,0.27-0.29c0.12-0.06,0.24-0.06,0.35-0.02c0.08,0.04,0.14,0.09,0.17,0.16
			c0.03,0.07,0.02,0.15-0.01,0.25c-0.05,0.12-0.14,0.23-0.25,0.3c-0.12,0.07-0.23,0.09-0.35,0.04c-0.08-0.04-0.14-0.09-0.17-0.17
			C65.4,69.58,65.4,69.5,65.44,69.4z"/>
		<path d="M67.94,75.05l0.01,0.16c-0.19,0.07-0.41,0.13-0.66,0.19c-0.24,0.06-0.44,0.09-0.6,0.09c-0.09,0-0.15,0-0.19-0.02
			c-0.04-0.02-0.07-0.06-0.09-0.12c-0.02-0.06,0-0.15,0.05-0.27c0.03-0.08,0.08-0.16,0.13-0.25s0.27-0.39,0.64-0.92l-0.02-0.01
			c-0.31,0.23-0.65,0.43-1.01,0.59s-0.7,0.26-1.01,0.29c-0.19,0.02-0.33,0.01-0.43-0.03c-0.1-0.04-0.15-0.14-0.15-0.31
			c0-0.17,0.04-0.35,0.12-0.56c0.12-0.28,0.29-0.58,0.52-0.89c0.23-0.31,0.46-0.57,0.7-0.77c0.18-0.15,0.36-0.26,0.54-0.33
			c0.28-0.1,0.58-0.16,0.89-0.17c0.15,0,0.3,0.03,0.45,0.09c0.12,0.05,0.31,0.16,0.56,0.33l0.53-0.84c0.11-0.18,0.18-0.3,0.2-0.34
			c0.03-0.07,0.04-0.13,0.02-0.17s-0.07-0.08-0.16-0.12l-0.35-0.15l0.08-0.14c0.31,0.08,0.54,0.13,0.69,0.15
			c0.15,0.02,0.35,0.01,0.59,0l0.06,0.11c-0.1,0.13-0.29,0.41-0.58,0.84c-0.18,0.28-0.66,0.98-1.42,2.09
			c-0.38,0.55-0.64,0.94-0.77,1.17c-0.04,0.07-0.08,0.14-0.1,0.2c-0.03,0.07-0.04,0.11-0.03,0.15c0.01,0.03,0.03,0.06,0.06,0.07
			c0.04,0.02,0.11,0.02,0.21,0C67.6,75.15,67.78,75.1,67.94,75.05z M68.14,72.54c-0.17-0.21-0.38-0.37-0.62-0.47
			c-0.18-0.07-0.33-0.11-0.46-0.1c-0.09,0-0.19,0.03-0.28,0.08c-0.1,0.05-0.24,0.19-0.45,0.42c-0.2,0.22-0.37,0.43-0.5,0.62
			c-0.22,0.31-0.39,0.6-0.51,0.89c-0.04,0.11-0.07,0.19-0.07,0.24c0,0.05,0,0.09,0.02,0.12c0.02,0.03,0.04,0.05,0.07,0.06
			c0.06,0.03,0.13,0.04,0.22,0.03c0.22-0.01,0.45-0.07,0.69-0.15c0.24-0.09,0.46-0.21,0.69-0.36s0.42-0.33,0.6-0.53
			C67.65,73.24,67.86,72.96,68.14,72.54z"/>
		<path d="M67.48,77.18l0.18-0.43l3.69,1.53l-0.18,0.43L67.48,77.18z"/>
		<path d="M71.77,77.66l-0.03-0.07c0.46-0.61,0.84-1.13,1.15-1.56c0.38-0.54,0.73-1.06,1.04-1.55c0.32-0.5,0.55-0.88,0.71-1.14
			c0.02-0.04,0.04-0.07,0.05-0.11c0.02-0.04,0.02-0.08,0.01-0.11c-0.01-0.03-0.04-0.06-0.08-0.09c-0.04-0.03-0.2-0.1-0.46-0.21
			l0.08-0.14c0.58,0.14,1.02,0.2,1.32,0.19l0.04,0.1c-0.12,0.16-0.21,0.29-0.27,0.38l-0.92,1.33l-0.88,1.28l0.02,0.02
			c0.29-0.17,0.52-0.29,0.69-0.36c0.28-0.13,0.56-0.23,0.82-0.29c0.26-0.06,0.51-0.09,0.75-0.07c0.17,0.01,0.29,0.03,0.36,0.06
			c0.06,0.02,0.09,0.06,0.12,0.12s0.02,0.12,0,0.18c-0.02,0.05-0.05,0.1-0.09,0.15c-0.05,0.08-0.19,0.26-0.41,0.56
			c-0.41,0.55-0.75,1.02-1.01,1.41c-0.12,0.18-0.2,0.3-0.22,0.36c-0.01,0.04-0.02,0.07-0.01,0.1c0.01,0.03,0.03,0.05,0.05,0.06
			c0.09,0.04,0.35,0,0.78-0.11l0.02,0.16c-0.18,0.06-0.4,0.11-0.68,0.17s-0.5,0.09-0.68,0.09c-0.05,0-0.09,0-0.13-0.02
			c-0.05-0.02-0.08-0.06-0.09-0.12c-0.02-0.06,0-0.15,0.04-0.25c0.04-0.1,0.13-0.24,0.26-0.42l0.75-1.04
			c0.26-0.36,0.45-0.64,0.56-0.82c0.04-0.06,0.06-0.1,0.07-0.14c0.02-0.04,0.02-0.08,0-0.11c-0.01-0.03-0.04-0.06-0.09-0.08
			c-0.07-0.03-0.16-0.04-0.25-0.03c-0.25,0.02-0.54,0.1-0.86,0.23c-0.32,0.13-0.6,0.3-0.84,0.5s-0.45,0.44-0.64,0.71l-0.5,0.76
			l-0.4-0.07C71.87,77.67,71.82,77.66,71.77,77.66z"/>
		<path d="M78.11,79.26l-0.01,0.16c-0.38,0.14-0.73,0.21-1.06,0.23c-0.32,0.02-0.58-0.02-0.77-0.09c-0.12-0.05-0.24-0.14-0.35-0.26
			c-0.11-0.12-0.17-0.26-0.2-0.43c-0.02-0.17,0.02-0.38,0.12-0.62c0.11-0.27,0.28-0.55,0.51-0.84s0.42-0.5,0.58-0.62
			c0.16-0.13,0.34-0.22,0.56-0.28c0.29-0.09,0.59-0.14,0.88-0.15c0.21-0.01,0.39,0.02,0.55,0.09c0.18,0.07,0.31,0.18,0.39,0.33
			c0.08,0.14,0.08,0.3,0.01,0.48c-0.05,0.12-0.13,0.24-0.23,0.34c-0.1,0.1-0.22,0.18-0.35,0.23c-0.18,0.07-0.4,0.11-0.67,0.12
			c-0.27,0.01-0.54,0-0.82-0.03l-0.51-0.08c-0.15,0.23-0.25,0.41-0.31,0.55c-0.1,0.24-0.12,0.43-0.06,0.59
			c0.06,0.16,0.16,0.27,0.32,0.34c0.14,0.06,0.31,0.09,0.51,0.09C77.41,79.39,77.71,79.35,78.11,79.26z M76.85,77.65
			c0.33,0.07,0.63,0.1,0.9,0.08c0.27-0.02,0.48-0.08,0.65-0.2c0.17-0.12,0.28-0.25,0.34-0.39c0.05-0.12,0.06-0.23,0.03-0.32
			c-0.04-0.09-0.1-0.16-0.2-0.2c-0.14-0.06-0.3-0.08-0.48-0.05c-0.18,0.02-0.34,0.1-0.5,0.23S77.18,77.21,76.85,77.65z"/>
		<path d="M81.89,80.85l0.01,0.16c-0.19,0.07-0.41,0.13-0.66,0.19c-0.24,0.06-0.44,0.09-0.6,0.09c-0.09,0-0.15-0.01-0.19-0.02
			c-0.04-0.02-0.07-0.06-0.09-0.12c-0.02-0.06,0-0.15,0.05-0.27c0.03-0.08,0.08-0.16,0.13-0.25c0.05-0.09,0.27-0.39,0.64-0.92
			l-0.02-0.01c-0.31,0.23-0.65,0.43-1.01,0.59c-0.37,0.16-0.7,0.26-1.01,0.29c-0.19,0.02-0.33,0.01-0.43-0.03s-0.15-0.14-0.15-0.31
			c0-0.17,0.04-0.35,0.12-0.56c0.12-0.28,0.29-0.58,0.52-0.89s0.46-0.57,0.7-0.77c0.18-0.15,0.36-0.26,0.54-0.33
			c0.28-0.1,0.58-0.16,0.89-0.17c0.15,0,0.3,0.03,0.45,0.09c0.12,0.05,0.31,0.16,0.56,0.33l0.54-0.84c0.11-0.18,0.18-0.3,0.2-0.34
			c0.03-0.08,0.04-0.13,0.02-0.17c-0.02-0.04-0.07-0.08-0.16-0.12l-0.35-0.15l0.08-0.14c0.31,0.08,0.54,0.13,0.69,0.15
			c0.15,0.02,0.35,0.02,0.59,0L84,76.44c-0.1,0.13-0.29,0.41-0.58,0.84c-0.18,0.28-0.66,0.98-1.42,2.1
			c-0.38,0.55-0.64,0.94-0.77,1.17c-0.04,0.07-0.08,0.14-0.1,0.2c-0.03,0.06-0.04,0.11-0.03,0.15c0.01,0.03,0.03,0.06,0.06,0.07
			c0.04,0.02,0.11,0.02,0.21,0C81.56,80.94,81.74,80.9,81.89,80.85z M82.09,78.34c-0.17-0.21-0.38-0.37-0.62-0.47
			c-0.18-0.07-0.33-0.11-0.46-0.1c-0.09,0-0.19,0.03-0.28,0.08s-0.24,0.19-0.44,0.42c-0.2,0.22-0.37,0.43-0.5,0.62
			c-0.22,0.31-0.39,0.6-0.51,0.89c-0.05,0.11-0.07,0.19-0.08,0.24c0,0.05,0,0.09,0.02,0.12c0.02,0.03,0.04,0.05,0.07,0.06
			c0.06,0.03,0.13,0.04,0.22,0.03c0.22-0.01,0.45-0.07,0.69-0.15c0.24-0.09,0.46-0.21,0.69-0.36c0.22-0.15,0.42-0.33,0.6-0.53
			C81.61,79.03,81.81,78.75,82.09,78.34z"/>
		<path d="M83.27,82.2c-0.04-0.11-0.07-0.19-0.07-0.22c0-0.04,0-0.07,0.01-0.1c0.02-0.04,0.06-0.09,0.12-0.13
			c0.11-0.07,0.32-0.17,0.62-0.27c-0.07-0.03-0.12-0.05-0.17-0.07c-0.3-0.12-0.5-0.3-0.6-0.52c-0.1-0.22-0.08-0.48,0.03-0.76
			c0.12-0.28,0.29-0.52,0.53-0.71c0.23-0.19,0.52-0.3,0.85-0.35c0.33-0.04,0.64-0.01,0.92,0.11c0.23,0.09,0.4,0.21,0.51,0.36
			c0.09,0.11,0.14,0.24,0.17,0.4c0.22,0.08,0.35,0.13,0.37,0.14c0.07,0.02,0.16,0.04,0.28,0.07l0.01,0.02l-0.21,0.34
			c-0.07-0.03-0.12-0.06-0.17-0.08c-0.08-0.03-0.18-0.07-0.31-0.11c-0.02,0.09-0.05,0.16-0.07,0.22c-0.07,0.16-0.15,0.3-0.25,0.41
			s-0.21,0.2-0.32,0.28c-0.11,0.08-0.23,0.14-0.35,0.19c-0.12,0.05-0.27,0.08-0.44,0.1c-0.17,0.02-0.34,0.02-0.49-0.01
			c-0.19,0.07-0.3,0.15-0.34,0.25c-0.04,0.09-0.04,0.19,0,0.3c0.04,0.11,0.17,0.39,0.41,0.84c0.13,0.25,0.21,0.45,0.22,0.6
			c0.02,0.16,0,0.29-0.05,0.41c-0.07,0.16-0.19,0.3-0.37,0.42c-0.18,0.12-0.44,0.19-0.79,0.19s-0.71-0.07-1.1-0.23
			c-0.45-0.19-0.74-0.41-0.87-0.66s-0.15-0.5-0.05-0.75c0.06-0.15,0.17-0.29,0.32-0.41c0.15-0.12,0.37-0.21,0.66-0.26
			C82.56,82.17,82.89,82.16,83.27,82.2z M83.33,82.38c-0.23-0.04-0.46-0.03-0.69,0.01c-0.23,0.04-0.41,0.12-0.54,0.22
			s-0.23,0.23-0.29,0.37c-0.09,0.22-0.08,0.43,0.03,0.65c0.11,0.22,0.33,0.4,0.66,0.54c0.37,0.15,0.69,0.19,0.98,0.11
			c0.21-0.06,0.35-0.17,0.43-0.36c0.04-0.09,0.05-0.2,0.04-0.31c-0.01-0.11-0.05-0.24-0.12-0.39L83.33,82.38z M83.8,80.21
			c-0.11,0.26-0.13,0.49-0.06,0.67c0.07,0.19,0.21,0.32,0.41,0.41c0.18,0.08,0.36,0.08,0.53,0.03c0.17-0.06,0.34-0.18,0.49-0.36
			c0.16-0.19,0.28-0.39,0.37-0.6c0.1-0.25,0.12-0.47,0.06-0.64c-0.06-0.18-0.2-0.31-0.4-0.39c-0.29-0.12-0.56-0.09-0.81,0.1
			C84.14,79.6,83.95,79.87,83.8,80.21z"/>
		<path d="M88.37,83.52l-0.01,0.16c-0.38,0.14-0.73,0.21-1.06,0.23c-0.32,0.02-0.58-0.02-0.77-0.09c-0.12-0.05-0.24-0.14-0.35-0.26
			c-0.11-0.12-0.17-0.26-0.2-0.43c-0.02-0.17,0.02-0.38,0.12-0.62c0.11-0.27,0.28-0.55,0.51-0.84s0.42-0.5,0.58-0.62
			c0.16-0.12,0.34-0.22,0.56-0.28c0.29-0.09,0.59-0.14,0.88-0.15c0.21-0.01,0.39,0.02,0.55,0.09c0.18,0.08,0.31,0.19,0.39,0.33
			c0.08,0.14,0.08,0.3,0.01,0.48c-0.05,0.12-0.13,0.24-0.23,0.34c-0.1,0.1-0.22,0.18-0.35,0.23c-0.18,0.07-0.4,0.11-0.67,0.12
			c-0.27,0.01-0.54,0-0.82-0.03l-0.51-0.08c-0.15,0.23-0.25,0.41-0.31,0.55c-0.1,0.24-0.12,0.43-0.06,0.6s0.16,0.27,0.32,0.34
			c0.14,0.06,0.31,0.09,0.51,0.09C87.67,83.66,87.97,83.61,88.37,83.52z M87.11,81.91c0.33,0.07,0.63,0.1,0.9,0.08
			c0.27-0.02,0.48-0.08,0.65-0.2c0.17-0.12,0.28-0.25,0.34-0.39c0.05-0.12,0.06-0.23,0.03-0.32c-0.04-0.09-0.1-0.16-0.2-0.2
			c-0.14-0.06-0.3-0.07-0.48-0.05s-0.34,0.1-0.5,0.23S87.45,81.48,87.11,81.91z"/>
	</g>
	<g>
		<path d="M93.2,46.47l0.05,0.15c-0.3,0.27-0.6,0.48-0.89,0.62s-0.54,0.21-0.74,0.21c-0.13,0-0.27-0.03-0.42-0.1
			s-0.26-0.18-0.35-0.32s-0.13-0.35-0.13-0.62c0-0.29,0.05-0.62,0.15-0.97s0.2-0.62,0.3-0.8s0.23-0.33,0.41-0.47
			c0.24-0.2,0.49-0.36,0.76-0.48c0.19-0.09,0.37-0.13,0.54-0.13c0.2,0,0.36,0.05,0.48,0.16s0.19,0.25,0.19,0.44
			c0,0.14-0.03,0.27-0.08,0.4s-0.13,0.25-0.23,0.34c-0.14,0.13-0.33,0.26-0.57,0.37c-0.25,0.11-0.5,0.21-0.76,0.29l-0.51,0.12
			c-0.05,0.27-0.07,0.47-0.07,0.62c0,0.26,0.06,0.45,0.17,0.57c0.11,0.13,0.25,0.19,0.42,0.19c0.15,0,0.32-0.04,0.51-0.11
			C92.6,46.86,92.86,46.71,93.2,46.47z M91.42,45.47c0.33-0.06,0.62-0.15,0.86-0.27s0.41-0.26,0.52-0.43s0.16-0.33,0.16-0.49
			c0-0.13-0.03-0.23-0.1-0.3s-0.15-0.11-0.26-0.11c-0.15,0-0.3,0.04-0.46,0.13s-0.28,0.22-0.37,0.4S91.56,44.94,91.42,45.47z"/>
		<path d="M94.16,47.42l-0.05-0.07c0.18-0.55,0.34-1.21,0.49-1.98c0.11-0.56,0.16-0.93,0.16-1.11c0-0.06-0.01-0.1-0.03-0.12
			s-0.04-0.03-0.08-0.03c-0.03,0-0.06,0.01-0.1,0.02c-0.07,0.02-0.15,0.06-0.24,0.12L94,44.46l-0.05-0.16l0.36-0.27
			c0.14-0.1,0.29-0.19,0.44-0.28s0.27-0.14,0.34-0.16c0.04-0.01,0.08-0.02,0.12-0.02c0.05,0,0.1,0.02,0.13,0.05
			c0.04,0.05,0.06,0.11,0.06,0.19c0,0.05,0,0.11-0.02,0.18c-0.02,0.11-0.07,0.33-0.15,0.64l-0.18,0.72l0.03,0.01
			c0.23-0.37,0.49-0.7,0.79-0.98s0.61-0.5,0.93-0.65c0.23-0.11,0.41-0.16,0.52-0.16c0.07,0,0.13,0.02,0.17,0.07s0.06,0.11,0.06,0.19
			c0,0.18-0.09,0.62-0.27,1.31c-0.24,0.93-0.36,1.47-0.36,1.64c0,0.05,0.01,0.09,0.03,0.11s0.04,0.03,0.08,0.03
			c0.04,0,0.1-0.02,0.19-0.07c0.18-0.1,0.34-0.21,0.5-0.33l0.07,0.16c-0.22,0.18-0.4,0.32-0.54,0.41c-0.25,0.16-0.44,0.27-0.56,0.31
			c-0.05,0.02-0.1,0.03-0.16,0.03c-0.07,0-0.13-0.02-0.17-0.07s-0.06-0.12-0.06-0.22c0-0.08,0.01-0.17,0.03-0.29
			c0.04-0.2,0.14-0.6,0.29-1.21c0.19-0.73,0.29-1.18,0.29-1.35c0-0.08-0.01-0.13-0.04-0.16s-0.06-0.04-0.11-0.04
			c-0.09,0-0.19,0.03-0.31,0.1c-0.2,0.11-0.41,0.27-0.62,0.49s-0.4,0.46-0.54,0.71s-0.27,0.57-0.38,0.97
			c-0.04,0.15-0.11,0.45-0.19,0.92C94.52,47.33,94.33,47.37,94.16,47.42z"/>
		<path d="M101.75,46.49l0.07,0.14c-0.15,0.14-0.33,0.28-0.53,0.43s-0.38,0.25-0.52,0.31c-0.08,0.04-0.14,0.05-0.19,0.05
			c-0.05,0-0.09-0.03-0.13-0.08s-0.06-0.14-0.06-0.27c0-0.08,0.01-0.18,0.03-0.28s0.1-0.46,0.24-1.09l-0.02,0
			c-0.2,0.33-0.43,0.64-0.71,0.93s-0.55,0.51-0.82,0.65c-0.17,0.09-0.31,0.14-0.41,0.14s-0.19-0.08-0.26-0.23s-0.1-0.34-0.1-0.56
			c0-0.3,0.04-0.65,0.13-1.02s0.21-0.7,0.35-0.98c0.11-0.21,0.23-0.38,0.38-0.51c0.22-0.2,0.47-0.37,0.76-0.5
			c0.14-0.06,0.29-0.09,0.45-0.09c0.13,0,0.34,0.03,0.64,0.09l0.17-0.98c0.04-0.21,0.05-0.34,0.05-0.39c0-0.08-0.02-0.14-0.05-0.17
			s-0.1-0.05-0.2-0.05l-0.38,0l0.02-0.16c0.32-0.04,0.55-0.08,0.7-0.12s0.33-0.12,0.54-0.23l0.1,0.08c-0.04,0.16-0.11,0.49-0.21,1
			c-0.06,0.33-0.23,1.15-0.51,2.48c-0.14,0.65-0.23,1.11-0.27,1.38C101,46.55,101,46.63,101,46.7c0,0.07,0.01,0.12,0.03,0.15
			s0.05,0.04,0.08,0.04c0.05,0,0.11-0.03,0.2-0.08C101.48,46.7,101.63,46.6,101.75,46.49z M100.98,44.09
			c-0.24-0.13-0.49-0.19-0.75-0.19c-0.19,0-0.35,0.03-0.47,0.08c-0.09,0.04-0.16,0.1-0.23,0.19s-0.15,0.27-0.25,0.56
			s-0.18,0.54-0.23,0.76c-0.09,0.37-0.13,0.71-0.13,1.02c0,0.12,0.01,0.2,0.02,0.25s0.04,0.08,0.06,0.1s0.06,0.03,0.09,0.03
			c0.07,0,0.14-0.02,0.21-0.05c0.2-0.1,0.39-0.23,0.58-0.41s0.35-0.37,0.5-0.59s0.26-0.46,0.35-0.72
			C100.79,44.92,100.87,44.58,100.98,44.09z"/>
		<path d="M102.14,48.63v-0.46h4v0.46H102.14z"/>
		<path d="M106.3,47.43l-0.05-0.05c0.19-0.74,0.34-1.37,0.46-1.88c0.14-0.64,0.27-1.26,0.37-1.84s0.17-1.02,0.22-1.32
			c0-0.04,0.01-0.08,0.01-0.12c0-0.05-0.01-0.09-0.03-0.11s-0.06-0.04-0.11-0.05s-0.22-0.01-0.51-0.01l0.02-0.16
			c0.59-0.09,1.02-0.2,1.29-0.33l0.08,0.08c-0.05,0.2-0.08,0.35-0.11,0.45l-0.34,1.58l-0.32,1.52l0.03,0.02
			c0.21-0.27,0.37-0.46,0.5-0.6c0.21-0.23,0.42-0.43,0.64-0.58s0.44-0.27,0.66-0.36c0.16-0.05,0.28-0.08,0.36-0.08
			c0.06,0,0.11,0.02,0.15,0.07s0.06,0.1,0.06,0.17c0,0.05-0.01,0.11-0.02,0.18c-0.02,0.09-0.07,0.31-0.16,0.68
			c-0.17,0.66-0.3,1.23-0.39,1.7c-0.04,0.21-0.07,0.35-0.07,0.42c0,0.04,0.01,0.07,0.03,0.09s0.04,0.03,0.07,0.03
			c0.1,0,0.32-0.13,0.68-0.4l0.08,0.14c-0.14,0.12-0.33,0.26-0.56,0.42s-0.43,0.27-0.6,0.35c-0.05,0.02-0.09,0.03-0.12,0.03
			c-0.05,0-0.09-0.03-0.13-0.08s-0.06-0.14-0.06-0.25c0-0.1,0.03-0.27,0.08-0.49l0.29-1.25c0.1-0.44,0.17-0.76,0.21-0.97
			c0.01-0.06,0.02-0.12,0.02-0.16c0-0.04-0.01-0.08-0.04-0.1s-0.06-0.04-0.11-0.04c-0.08,0-0.16,0.02-0.25,0.07
			c-0.22,0.11-0.46,0.3-0.71,0.54s-0.44,0.51-0.58,0.78s-0.25,0.58-0.32,0.9l-0.17,0.89l-0.4,0.09
			C106.39,47.4,106.34,47.41,106.3,47.43z"/>
		<path d="M112.76,46.47l0.05,0.15c-0.3,0.27-0.6,0.48-0.89,0.62s-0.54,0.21-0.74,0.21c-0.13,0-0.27-0.03-0.42-0.1
			s-0.26-0.18-0.35-0.32s-0.13-0.35-0.13-0.62c0-0.29,0.05-0.62,0.15-0.97s0.2-0.62,0.3-0.8s0.23-0.33,0.41-0.47
			c0.24-0.2,0.49-0.36,0.76-0.48c0.19-0.09,0.37-0.13,0.54-0.13c0.2,0,0.36,0.05,0.48,0.16s0.19,0.25,0.19,0.44
			c0,0.14-0.03,0.27-0.08,0.4s-0.13,0.25-0.23,0.34c-0.14,0.13-0.33,0.26-0.57,0.37c-0.25,0.11-0.5,0.21-0.76,0.29l-0.51,0.12
			c-0.05,0.27-0.07,0.47-0.07,0.62c0,0.26,0.06,0.45,0.17,0.57c0.11,0.13,0.25,0.19,0.42,0.19c0.15,0,0.32-0.04,0.51-0.11
			C112.16,46.86,112.43,46.71,112.76,46.47z M110.98,45.47c0.33-0.06,0.62-0.15,0.86-0.27s0.41-0.26,0.52-0.43s0.16-0.33,0.16-0.49
			c0-0.13-0.03-0.23-0.1-0.3s-0.15-0.11-0.26-0.11c-0.15,0-0.3,0.04-0.46,0.13s-0.28,0.22-0.37,0.4S111.12,44.94,110.98,45.47z"/>
		<path d="M116.87,46.49l0.07,0.14c-0.15,0.14-0.33,0.28-0.53,0.43s-0.38,0.25-0.52,0.31c-0.08,0.04-0.14,0.05-0.19,0.05
			c-0.05,0-0.09-0.03-0.13-0.08s-0.06-0.14-0.06-0.27c0-0.08,0.01-0.18,0.03-0.28s0.1-0.46,0.24-1.09l-0.02,0
			c-0.2,0.33-0.43,0.64-0.71,0.93s-0.55,0.51-0.82,0.65c-0.17,0.09-0.31,0.14-0.41,0.14s-0.19-0.08-0.26-0.23s-0.1-0.34-0.1-0.56
			c0-0.3,0.04-0.65,0.13-1.02s0.21-0.7,0.35-0.98c0.11-0.21,0.23-0.38,0.38-0.51c0.22-0.2,0.47-0.37,0.76-0.5
			c0.14-0.06,0.29-0.09,0.45-0.09c0.13,0,0.34,0.03,0.64,0.09l0.17-0.98c0.04-0.21,0.05-0.34,0.05-0.39c0-0.08-0.02-0.14-0.05-0.17
			s-0.1-0.05-0.2-0.05l-0.38,0l0.02-0.16c0.32-0.04,0.55-0.08,0.7-0.12s0.33-0.12,0.54-0.23l0.1,0.08c-0.04,0.16-0.11,0.49-0.21,1
			c-0.06,0.33-0.23,1.15-0.51,2.48c-0.14,0.65-0.23,1.11-0.27,1.38c-0.01,0.08-0.02,0.16-0.02,0.23c0,0.07,0.01,0.12,0.03,0.15
			s0.05,0.04,0.08,0.04c0.05,0,0.11-0.03,0.2-0.08C116.6,46.7,116.74,46.6,116.87,46.49z M116.09,44.09
			c-0.24-0.13-0.49-0.19-0.75-0.19c-0.19,0-0.35,0.03-0.47,0.08c-0.09,0.04-0.16,0.1-0.23,0.19s-0.15,0.27-0.25,0.56
			s-0.18,0.54-0.23,0.76c-0.09,0.37-0.13,0.71-0.13,1.02c0,0.12,0.01,0.2,0.02,0.25s0.04,0.08,0.06,0.1s0.06,0.03,0.09,0.03
			c0.07,0,0.14-0.02,0.21-0.05c0.2-0.1,0.39-0.23,0.58-0.41s0.35-0.37,0.5-0.59s0.26-0.46,0.35-0.72
			C115.91,44.92,115.99,44.58,116.09,44.09z"/>
		<path d="M118.66,47.21c-0.08-0.09-0.13-0.15-0.15-0.18s-0.03-0.06-0.03-0.09c0-0.05,0.02-0.1,0.06-0.17
			c0.07-0.11,0.23-0.27,0.47-0.49c-0.07,0-0.13,0-0.18,0c-0.33,0-0.58-0.08-0.75-0.25s-0.26-0.41-0.26-0.71s0.07-0.59,0.22-0.86
			s0.36-0.48,0.65-0.65s0.59-0.25,0.89-0.25c0.25,0,0.45,0.04,0.61,0.13c0.12,0.07,0.23,0.17,0.31,0.3
			c0.24-0.01,0.37-0.01,0.39-0.01c0.07-0.01,0.17-0.02,0.29-0.04l0.02,0.02l-0.06,0.39c-0.07-0.01-0.14-0.01-0.19-0.01
			c-0.09,0-0.2,0.01-0.33,0.02c0.01,0.09,0.02,0.16,0.02,0.23c0,0.18-0.02,0.34-0.07,0.47s-0.11,0.27-0.19,0.38
			s-0.16,0.22-0.25,0.31s-0.21,0.18-0.37,0.26s-0.31,0.15-0.46,0.18c-0.15,0.14-0.22,0.26-0.22,0.36c0,0.1,0.04,0.19,0.11,0.27
			c0.08,0.09,0.31,0.29,0.7,0.62c0.22,0.18,0.36,0.33,0.43,0.47s0.11,0.27,0.11,0.4c0,0.17-0.06,0.35-0.18,0.53
			s-0.34,0.34-0.65,0.48s-0.68,0.21-1.11,0.21c-0.48,0-0.83-0.09-1.06-0.27s-0.34-0.41-0.34-0.68c0-0.16,0.05-0.33,0.14-0.5
			s0.26-0.33,0.51-0.49S118.29,47.32,118.66,47.21z M118.78,47.35c-0.23,0.06-0.44,0.15-0.64,0.28s-0.33,0.26-0.42,0.41
			s-0.12,0.3-0.12,0.46c0,0.23,0.09,0.43,0.28,0.59s0.46,0.24,0.82,0.24c0.4,0,0.71-0.09,0.95-0.27c0.17-0.13,0.26-0.3,0.26-0.49
			c0-0.1-0.03-0.2-0.08-0.3s-0.14-0.2-0.26-0.31L118.78,47.35z M118.39,45.16c0,0.28,0.07,0.5,0.2,0.64s0.31,0.22,0.54,0.22
			c0.2,0,0.36-0.06,0.5-0.18s0.24-0.29,0.31-0.52s0.11-0.46,0.11-0.7c0-0.27-0.06-0.48-0.19-0.62s-0.3-0.21-0.52-0.21
			c-0.31,0-0.55,0.13-0.71,0.4S118.39,44.79,118.39,45.16z"/>
		<path d="M123.88,46.47l0.05,0.15c-0.3,0.27-0.6,0.48-0.89,0.62s-0.54,0.21-0.74,0.21c-0.13,0-0.27-0.03-0.42-0.1
			s-0.26-0.18-0.35-0.32s-0.13-0.35-0.13-0.62c0-0.29,0.05-0.62,0.15-0.97s0.2-0.62,0.3-0.8s0.23-0.33,0.41-0.47
			c0.24-0.2,0.49-0.36,0.76-0.48c0.19-0.09,0.37-0.13,0.54-0.13c0.2,0,0.36,0.05,0.48,0.16s0.19,0.25,0.19,0.44
			c0,0.14-0.03,0.27-0.08,0.4s-0.13,0.25-0.23,0.34c-0.14,0.13-0.33,0.26-0.57,0.37c-0.25,0.11-0.5,0.21-0.76,0.29l-0.51,0.12
			c-0.05,0.27-0.07,0.47-0.07,0.62c0,0.26,0.06,0.45,0.17,0.57c0.11,0.13,0.25,0.19,0.42,0.19c0.15,0,0.32-0.04,0.51-0.11
			C123.28,46.86,123.54,46.71,123.88,46.47z M122.09,45.47c0.33-0.06,0.62-0.15,0.86-0.27s0.41-0.26,0.52-0.43s0.16-0.33,0.16-0.49
			c0-0.13-0.03-0.23-0.1-0.3s-0.15-0.11-0.26-0.11c-0.15,0-0.3,0.04-0.46,0.13s-0.28,0.22-0.37,0.4S122.23,44.94,122.09,45.47z"/>
	</g>
</g>
<g id="Layer_9">
	<polyline class="st8" points="52.27,60.68 124.27,89.77 111.74,90.94 	"/>
	<polyline class="st8" points="129.82,94.27 75.44,125.28 82.28,114.72 	"/>
	<polyline class="st8" points="70.65,120.47 45.4,63.18 55.2,71.07 	"/>
	<polyline class="st8" points="89.69,61.64 56.57,48.66 69.08,47.35 	"/>
	<polyline class="st8" points="55.76,44.54 109.22,27.97 100.26,36.81 	"/>
	<polyline class="st8" points="121.22,50.09 134.32,79.54 124.49,71.68 	"/>
	<line class="st8" x1="121.96" y1="74.15" x2="98" y2="64.76"/>
	<polyline class="st8" points="33.92,72.16 59.1,129.48 49.31,121.58 	"/>
	<line class="st8" x1="112.5" y1="30.89" x2="116.61" y2="40.12"/>
</g>
<g id="Layer_10">
	<line class="st9" x1="54.77" y1="104.39" x2="107.08" y2="75.81"/>
	<line class="st9" x1="107.08" y1="75.81" x2="127.2" y2="46.23"/>
</g>
<g id="Layer_11">
	<polygon class="st4" points="28.97,45.61 148.13,91.68 69.54,138.03 	"/>
	<polygon class="st4" points="148.13,91.68 28.97,45.61 114.24,18.09 	"/>
	<g>
	</g>
	<g>
	</g>
	<g>
	</g>
	<g>
	</g>
	<g>
	</g>
	<g>
	</g>
	<g>
	</g>
	<g>
	</g>
	<g>
	</g>
	<g>
	</g>
	<g>
	</g>
	<g>
	</g>
	<g>
	</g>
	<g>
	</g>
	<g>
	</g>
</g>
</svg>
