<?xml version="1.0" encoding="utf-8"?>
<!-- Generator: Adobe Illustrator 23.0.4, SVG Export Plug-In . SVG Version: 6.00 Build 0)  -->
<svg version="1.1" xmlns="http://www.w3.org/2000/svg" xmlns:xlink="http://www.w3.org/1999/xlink" x="0px" y="0px"
	 viewBox="0 0 132.68 132.2" style="enable-background:new 0 0 132.68 132.2;" xml:space="preserve">
<style type="text/css">
	.st0{fill:#FFFFFF;}
	.st1{opacity:0.2;fill:#FF2F92;}
	.st2{fill:none;stroke:#FF2F92;stroke-miterlimit:10;}
	.st3{opacity:0.35;fill:#FF2F92;}
	.st4{opacity:0.3;}
	.st5{opacity:0.5;fill:#FFCE6A;}
	.st6{opacity:0.45;}
	.st7{fill:#FFCE6A;stroke:#FF7815;stroke-miterlimit:10;}
	.st8{fill:none;stroke:#FF7815;stroke-miterlimit:10;}
	.st9{fill:none;stroke:#FF2F92;stroke-linejoin:round;stroke-miterlimit:10;}
	.st10{fill:#FF2F92;}
</style>
<g id="Layer_5">
	<circle class="st0" cx="66.34" cy="66.1" r="64.32"/>
	<circle class="st1" cx="67" cy="65.91" r="64.32"/>
	<circle class="st2" cx="66.45" cy="65.91" r="64.32"/>
	<polygon class="st3" points="9.63,35.74 120.69,31.33 50.2,128.16 	"/>
</g>
<g id="Layer_6" class="st4">
</g>
<g id="Angle_Areas">
	<path class="st5" d="M103.94,54.34c-2.19-2.29-4.29-4.95-6.2-7.91c-3.03-4.69-5.16-9.5-6.34-13.93l29.87-1.25L103.94,54.34z"/>
	<path class="st5" d="M67.3,104.67c-3.16-1.53-6.74-2.82-10.61-3.76c-6.94-1.67-13.58-1.9-18.91-0.93l12.34,28.14L67.3,104.67z"/>
	<path class="st5" d="M21.83,64.06c4.39-3.2,8.82-8.21,12.38-14.45c2.94-5.14,4.87-10.37,5.76-15.08L9.92,35.71L21.83,64.06z"/>
	<g class="st6">
		
			<ellipse transform="matrix(0.2345 -0.9721 0.9721 0.2345 -70.4431 139.5964)" class="st7" cx="53.41" cy="114.52" rx="14" ry="28"/>
		<path class="st7" d="M67.3,104.67c9.11,4.42,14.67,10.84,13.33,16.42c-1.81,7.52-15.47,10.67-30.5,7.04
			c-15.03-3.63-25.75-12.66-23.94-20.17c0.98-4.05,5.39-6.83,11.6-7.97"/>
	</g>
	<g class="st6">
		<ellipse transform="matrix(0.4967 -0.868 0.868 0.4967 -25.925 40.6293)" class="st7" cx="22.07" cy="42.67" rx="28" ry="14"/>
		<path class="st7" d="M21.83,64.06c-5.06,3.69-10.08,4.96-13.67,2.9c-6.71-3.84-5.93-17.83,1.75-31.25s19.35-21.19,26.06-17.35
			c4.14,2.37,5.43,8.6,4,16.17"/>
	</g>
	<g class="st6">
		<path class="st7" d="M124.69,62.36c-6.5,4.19-18.56-2.94-26.94-15.93s-9.92-26.92-3.42-31.12c6.5-4.19,17.99,3.03,26.37,16.02
			S131.18,58.17,124.69,62.36z"/>
		<path class="st7" d="M91.4,32.5c-2.1-7.85-1.23-14.51,2.93-17.18c6.5-4.19,17.99,3.03,26.37,16.02s10.49,26.84,3.99,31.03
			c-5.01,3.24-13.35-0.28-20.74-8.02"/>
	</g>
</g>
<g id="Angles">
	<path class="st8" d="M37.79,99.99c5.32-0.98,11.97-0.75,18.91,0.93c3.87,0.93,7.45,2.22,10.61,3.76"/>
	<path class="st8" d="M39.98,34.54c-0.88,4.71-2.81,9.94-5.76,15.08c-3.57,6.23-7.99,11.25-12.38,14.45"/>
	<path class="st8" d="M103.94,54.34c-2.19-2.29-4.29-4.95-6.2-7.91c-3.03-4.69-5.16-9.5-6.34-13.93"/>
</g>
<g id="Overlay">
	<polygon class="st9" points="9.63,35.74 120.69,31.33 50.2,128.16 	"/>
	<circle class="st10" cx="9.63" cy="35.74" r="1.74"/>
	<circle class="st10" cx="120.69" cy="31.33" r="1.74"/>
	<circle class="st10" cx="50.01" cy="128.16" r="1.74"/>
</g>
<g id="Text">
	<g>
		<path d="M61.82,21.63l-0.63,2.94c-0.07,0.31-0.1,0.55-0.1,0.72c0,0.49,0.23,0.73,0.69,0.73c0.56,0,1.1-0.47,1.6-1.41l0.22,0.08
			c-0.6,1.18-1.31,1.78-2.13,1.78c-0.38,0-0.68-0.1-0.89-0.3c-0.22-0.2-0.33-0.46-0.33-0.79c0-0.23,0.07-0.68,0.22-1.36l0.34-1.57
			l-1.1,0.73l-0.13-0.21l1.32-0.91l0.36-1.37c0.21-0.81,0.4-1.39,0.55-1.75c0.16-0.36,0.4-0.67,0.73-0.92
			c0.33-0.25,0.68-0.38,1.05-0.38c0.28,0,0.52,0.09,0.71,0.26c0.19,0.17,0.29,0.4,0.29,0.67c0,0.39-0.18,0.81-0.54,1.25
			C63.68,20.27,62.94,20.87,61.82,21.63z M61.93,21.27c1.02-0.73,1.66-1.29,1.92-1.65s0.39-0.69,0.39-0.98
			c0-0.36-0.19-0.54-0.57-0.54c-0.26,0-0.5,0.14-0.72,0.41s-0.38,0.61-0.5,0.99L61.93,21.27z"/>
	</g>
	<g>
		<path d="M63.36,28.15l0.03-0.23c0.42-0.03,0.68-0.06,0.78-0.1c0.05-0.02,0.1-0.05,0.13-0.09c0.04-0.05,0.08-0.16,0.12-0.32
			c0.04-0.16,0.14-0.73,0.32-1.72c0.22-1.23,0.35-2.08,0.41-2.53c-0.45,0.17-0.95,0.39-1.49,0.65l-0.05-0.04l0.08-0.47
			c0.18-0.03,0.42-0.1,0.74-0.19s0.55-0.17,0.73-0.24s0.39-0.16,0.63-0.27l0.11,0.09c-0.11,0.5-0.22,1.04-0.32,1.62l-0.36,2.04
			c-0.08,0.51-0.13,0.86-0.15,1.04c-0.01,0.07-0.01,0.13-0.01,0.18c0,0.07,0.01,0.12,0.04,0.16s0.07,0.07,0.12,0.09
			c0.07,0.03,0.19,0.05,0.36,0.06l0.52,0.03l-0.04,0.22c-0.52-0.02-1.03-0.03-1.53-0.03C64.09,28.12,63.7,28.13,63.36,28.15z"/>
	</g>
	<g>
		<path d="M19.42,73.42l-0.63,2.94c-0.07,0.31-0.1,0.55-0.1,0.72c0,0.49,0.23,0.73,0.69,0.73c0.56,0,1.1-0.47,1.6-1.41l0.22,0.08
			c-0.6,1.18-1.31,1.78-2.13,1.78c-0.38,0-0.68-0.1-0.89-0.3c-0.22-0.2-0.33-0.46-0.33-0.79c0-0.23,0.07-0.68,0.22-1.36l0.34-1.57
			l-1.1,0.73l-0.13-0.21l1.32-0.91l0.36-1.37c0.21-0.81,0.4-1.39,0.55-1.75c0.16-0.36,0.4-0.67,0.73-0.92
			c0.33-0.25,0.68-0.38,1.05-0.38c0.28,0,0.52,0.09,0.71,0.26c0.19,0.17,0.29,0.4,0.29,0.67c0,0.39-0.18,0.81-0.54,1.25
			C21.28,72.06,20.54,72.66,19.42,73.42z M19.54,73.06c1.02-0.73,1.66-1.29,1.92-1.65s0.39-0.69,0.39-0.98
			c0-0.36-0.19-0.54-0.57-0.54c-0.26,0-0.5,0.14-0.72,0.41s-0.38,0.61-0.5,0.99L19.54,73.06z"/>
	</g>
	<g>
		<path d="M21.07,80.39l0.01-0.15c0.12-0.13,0.46-0.49,1.01-1.08c0.49-0.53,0.85-0.96,1.08-1.31c0.24-0.34,0.4-0.64,0.48-0.9
			s0.12-0.48,0.12-0.67c0-0.16-0.04-0.31-0.11-0.45c-0.07-0.13-0.18-0.24-0.32-0.31c-0.14-0.07-0.29-0.11-0.46-0.11
			c-0.23,0-0.44,0.07-0.63,0.21c-0.19,0.14-0.36,0.35-0.51,0.63l-0.18-0.07c0.28-0.53,0.44-0.84,0.48-0.93
			c0.16-0.11,0.33-0.2,0.49-0.26c0.17-0.06,0.35-0.08,0.55-0.08c0.41,0,0.74,0.12,0.98,0.34c0.24,0.23,0.36,0.53,0.36,0.9
			c0,0.18-0.02,0.35-0.07,0.53c-0.05,0.17-0.12,0.34-0.22,0.51c-0.14,0.23-0.33,0.5-0.6,0.79c-0.17,0.2-0.54,0.58-1.11,1.16
			l-0.62,0.66l0.01,0.05l1.57,0c0.38,0,0.7-0.02,0.95-0.07l0.05,0.05c-0.06,0.22-0.1,0.41-0.13,0.55c-0.69-0.03-1.2-0.04-1.53-0.04
			c-0.03,0-0.12,0-0.25,0c-0.38,0.01-0.72,0.02-1.03,0.02C21.32,80.37,21.19,80.38,21.07,80.39z"/>
	</g>
	<g>
		<path d="M93.41,75.06l-0.63,2.94c-0.07,0.31-0.1,0.55-0.1,0.72c0,0.49,0.23,0.73,0.69,0.73c0.56,0,1.1-0.47,1.6-1.41l0.22,0.08
			c-0.6,1.18-1.31,1.78-2.13,1.78c-0.38,0-0.68-0.1-0.89-0.3s-0.33-0.46-0.33-0.79c0-0.23,0.07-0.68,0.22-1.36l0.34-1.57l-1.1,0.73
			l-0.13-0.21l1.32-0.92l0.36-1.37c0.21-0.81,0.4-1.39,0.55-1.75c0.16-0.36,0.4-0.67,0.73-0.92c0.33-0.25,0.68-0.38,1.05-0.38
			c0.28,0,0.52,0.09,0.71,0.26c0.19,0.17,0.29,0.4,0.29,0.67c0,0.39-0.18,0.81-0.54,1.25C95.27,73.7,94.53,74.3,93.41,75.06z
			 M93.53,74.7c1.02-0.73,1.66-1.29,1.92-1.65s0.39-0.69,0.39-0.98c0-0.36-0.19-0.54-0.57-0.54c-0.26,0-0.5,0.14-0.72,0.41
			s-0.38,0.61-0.5,0.99L93.53,74.7z"/>
	</g>
	<g>
		<path d="M95.18,81.77l0.22-1.12l0.19,0.03c-0.02,0.16-0.03,0.28-0.03,0.37c0,0.23,0.08,0.43,0.25,0.58
			c0.17,0.15,0.4,0.23,0.7,0.23c0.27,0,0.51-0.07,0.71-0.22c0.2-0.15,0.36-0.35,0.47-0.61s0.17-0.54,0.17-0.83
			c0-0.2-0.04-0.38-0.13-0.54c-0.08-0.16-0.21-0.28-0.38-0.36c-0.17-0.08-0.35-0.12-0.56-0.12c-0.07,0-0.16,0.01-0.27,0.02
			s-0.23,0.04-0.37,0.07l-0.03-0.03l0.13-0.37c0.09,0.01,0.17,0.01,0.23,0.01s0.1,0.01,0.13,0.01c0.22,0,0.42-0.05,0.62-0.15
			c0.2-0.1,0.35-0.25,0.45-0.43c0.1-0.18,0.16-0.37,0.16-0.56c0-0.22-0.07-0.4-0.21-0.54c-0.14-0.13-0.32-0.2-0.56-0.2
			c-0.23,0-0.43,0.05-0.58,0.16c-0.12,0.08-0.27,0.24-0.46,0.49l-0.15-0.1l0.47-0.79c0.14-0.08,0.29-0.14,0.44-0.18
			c0.16-0.04,0.32-0.06,0.49-0.06c0.37,0,0.66,0.1,0.87,0.29s0.31,0.44,0.31,0.74c0,0.19-0.04,0.37-0.12,0.54s-0.21,0.32-0.39,0.46
			c-0.12,0.1-0.32,0.22-0.61,0.37l0,0.02c0.22,0.03,0.43,0.1,0.62,0.21s0.33,0.24,0.43,0.41c0.09,0.17,0.14,0.37,0.14,0.62
			c0,0.33-0.09,0.64-0.26,0.94c-0.17,0.3-0.44,0.54-0.8,0.73c-0.36,0.19-0.74,0.28-1.14,0.28c-0.21,0-0.42-0.03-0.61-0.09
			C95.54,81.98,95.35,81.89,95.18,81.77z"/>
	</g>
	<g>
		<path d="M56.42,96.87h0.08l0.07,0.07l0.01,0.08c-0.76,0.8-1.34,1.2-1.72,1.2c-0.21,0-0.34-0.1-0.41-0.31s-0.11-0.68-0.13-1.42
			l-0.05-0.04c-0.45,0.53-0.93,0.95-1.44,1.27s-0.99,0.48-1.46,0.48c-0.7,0-1.05-0.43-1.05-1.29c0-0.42,0.1-0.92,0.31-1.51
			s0.49-1.12,0.85-1.6s0.75-0.85,1.18-1.09s0.85-0.37,1.28-0.37c0.25,0,0.44,0.04,0.58,0.12s0.25,0.2,0.33,0.35s0.13,0.34,0.15,0.58
			s0.04,0.61,0.04,1.12c0,0.06,0,0.19-0.01,0.39l0.07,0.05c0.25-0.41,0.49-0.82,0.71-1.25s0.37-0.82,0.44-1.17h0.13
			c0.1,0.18,0.19,0.36,0.28,0.54c-0.4,0.77-0.93,1.55-1.57,2.36c0,0.31,0.02,0.67,0.06,1.08s0.1,0.65,0.17,0.73s0.16,0.12,0.25,0.12
			c0.11,0,0.23-0.03,0.34-0.09S56.2,97.08,56.42,96.87z M54.3,96.06c0-0.17,0.01-0.28,0.01-0.33c0-0.66-0.03-1.21-0.09-1.67
			s-0.15-0.78-0.28-0.98s-0.32-0.29-0.57-0.29c-0.16,0-0.32,0.05-0.48,0.14s-0.33,0.25-0.51,0.46s-0.36,0.5-0.55,0.88
			s-0.33,0.77-0.44,1.19s-0.16,0.81-0.16,1.19c0,0.34,0.06,0.6,0.18,0.77s0.31,0.26,0.59,0.26c0.35,0,0.73-0.15,1.13-0.46
			S53.92,96.54,54.3,96.06z"/>
	</g>
	<g>
	</g>
	<g>
	</g>
	<g>
	</g>
	<g>
	</g>
	<g>
	</g>
	<g>
	</g>
	<g>
	</g>
	<g>
	</g>
	<g>
	</g>
	<g>
	</g>
	<g>
	</g>
	<g>
	</g>
	<g>
	</g>
	<g>
	</g>
	<g>
	</g>
</g>
</svg>
