<?xml version="1.0" encoding="utf-8"?>
<!-- Generator: Adobe Illustrator 23.0.4, SVG Export Plug-In . SVG Version: 6.00 Build 0)  -->
<svg version="1.1" xmlns="http://www.w3.org/2000/svg" xmlns:xlink="http://www.w3.org/1999/xlink" x="0px" y="0px"
	 viewBox="0 0 132.68 132.2" style="enable-background:new 0 0 132.68 132.2;" xml:space="preserve">
<style type="text/css">
	.st0{fill:#FFFFFF;}
	.st1{opacity:0.2;fill:#FF2F92;}
	.st2{opacity:0.35;fill:#FF2F92;}
	.st3{opacity:0.3;}
	.st4{opacity:0.45;fill:#FFCE6A;}
	.st5{opacity:0.5;fill:#FFCE6A;}
	.st6{opacity:0.45;fill:none;stroke:#FF7815;stroke-miterlimit:10;}
	.st7{fill:none;stroke:#FF7815;stroke-miterlimit:10;}
	.st8{fill:none;stroke:#FF2F92;stroke-miterlimit:10;}
	.st9{fill:none;stroke:#FF2F92;stroke-linejoin:round;stroke-miterlimit:10;}
	.st10{fill:#FF2F92;}
</style>
<g id="Layer_5">
	<circle class="st0" cx="66.13" cy="66.1" r="64.32"/>
	<circle class="st1" cx="67" cy="65.67" r="64.32"/>
	<polyline class="st2" points="2.68,65.91 50.01,128.16 129.59,53.72 70.37,2.17 2.68,65.91 	"/>
</g>
<g id="Layer_6" class="st3">
</g>
<g id="Angle_Areas">
</g>
<g id="Angles">
	<g>
		<path d="M28.37,67.94h0.08l0.07,0.07l0.01,0.08c-0.76,0.8-1.34,1.2-1.72,1.2c-0.21,0-0.34-0.1-0.41-0.31s-0.11-0.68-0.13-1.42
			l-0.05-0.04c-0.45,0.53-0.93,0.95-1.44,1.27s-0.99,0.48-1.46,0.48c-0.7,0-1.05-0.43-1.05-1.29c0-0.42,0.1-0.92,0.31-1.51
			s0.49-1.12,0.85-1.6s0.75-0.85,1.18-1.09s0.85-0.37,1.28-0.37c0.25,0,0.44,0.04,0.58,0.12s0.25,0.2,0.33,0.35s0.13,0.34,0.15,0.58
			S27,65.08,27,65.59c0,0.06,0,0.19-0.01,0.39l0.07,0.05c0.25-0.41,0.49-0.82,0.71-1.25s0.37-0.82,0.44-1.17h0.13
			c0.1,0.18,0.19,0.36,0.28,0.54c-0.4,0.77-0.93,1.55-1.57,2.36c0,0.31,0.02,0.67,0.06,1.08s0.1,0.65,0.17,0.73s0.16,0.12,0.25,0.12
			c0.11,0,0.23-0.03,0.34-0.09S28.15,68.15,28.37,67.94z M26.26,67.13c0-0.17,0.01-0.28,0.01-0.33c0-0.66-0.03-1.21-0.09-1.67
			s-0.15-0.78-0.28-0.98s-0.32-0.29-0.57-0.29c-0.16,0-0.32,0.05-0.48,0.14s-0.33,0.25-0.51,0.46s-0.36,0.5-0.55,0.88
			s-0.33,0.77-0.44,1.19s-0.16,0.81-0.16,1.19c0,0.34,0.06,0.6,0.18,0.77s0.31,0.26,0.59,0.26c0.35,0,0.73-0.15,1.13-0.46
			S25.87,67.6,26.26,67.13z"/>
	</g>
	<g>
		<path d="M102.45,58.26h0.08l0.07,0.07l0.01,0.08c-0.76,0.8-1.34,1.2-1.72,1.2c-0.21,0-0.34-0.1-0.41-0.31s-0.11-0.68-0.13-1.42
			l-0.05-0.04c-0.45,0.53-0.93,0.95-1.44,1.27s-0.99,0.48-1.46,0.48c-0.7,0-1.05-0.43-1.05-1.29c0-0.42,0.1-0.92,0.31-1.51
			s0.49-1.12,0.85-1.6s0.75-0.85,1.18-1.09s0.85-0.37,1.28-0.37c0.25,0,0.44,0.04,0.58,0.12s0.25,0.2,0.33,0.35s0.13,0.34,0.15,0.58
			s0.04,0.61,0.04,1.12c0,0.06,0,0.19-0.01,0.39l0.07,0.05c0.25-0.41,0.49-0.82,0.71-1.25s0.37-0.82,0.44-1.17h0.13
			c0.1,0.18,0.19,0.36,0.28,0.54c-0.4,0.77-0.93,1.55-1.57,2.36c0,0.31,0.02,0.67,0.06,1.08s0.1,0.65,0.17,0.73s0.16,0.12,0.25,0.12
			c0.11,0,0.23-0.03,0.34-0.09S102.23,58.47,102.45,58.26z M100.33,57.45c0-0.17,0.01-0.28,0.01-0.33c0-0.66-0.03-1.21-0.09-1.67
			s-0.15-0.78-0.28-0.98s-0.32-0.29-0.57-0.29c-0.16,0-0.32,0.05-0.48,0.14s-0.33,0.25-0.51,0.46s-0.36,0.5-0.55,0.88
			s-0.33,0.77-0.44,1.19s-0.16,0.81-0.16,1.19c0,0.34,0.06,0.6,0.18,0.77s0.31,0.26,0.59,0.26c0.35,0,0.73-0.15,1.13-0.46
			S99.94,57.93,100.33,57.45z"/>
		<path d="M104.41,53.94l-0.09-0.08c0.18-0.27,0.31-0.48,0.4-0.64s0.16-0.33,0.23-0.5s0.12-0.36,0.18-0.55l0.2-0.8
			c0.51-0.14,0.86-0.24,1.05-0.32l0.13,0.16c-0.25,0.54-0.53,1.03-0.84,1.49s-0.6,0.83-0.86,1.12L104.41,53.94z"/>
	</g>
	<g>
		<path d="M41.69,96.98l-0.09-0.12c0.21-0.99,0.59-3.24,1.12-6.75c0.12-0.77,0.22-1.35,0.3-1.75s0.2-0.77,0.35-1.11
			s0.38-0.65,0.69-0.94s0.64-0.5,1.01-0.66s0.73-0.23,1.08-0.23c0.38,0,0.67,0.1,0.87,0.3c0.21,0.2,0.31,0.5,0.31,0.89
			c0,0.29-0.05,0.56-0.16,0.83c-0.11,0.27-0.28,0.53-0.52,0.79s-0.47,0.45-0.69,0.58s-0.47,0.24-0.73,0.33l-0.01,0.12
			c0.06,0,0.21,0.02,0.47,0.06s0.5,0.14,0.74,0.3s0.43,0.37,0.57,0.64c0.14,0.27,0.21,0.56,0.21,0.86c0,0.68-0.27,1.29-0.8,1.83
			c-0.53,0.54-1.19,0.81-1.99,0.81c-0.59,0-1.07-0.18-1.44-0.54c-0.18,1.34-0.3,2.5-0.35,3.47C42.39,96.75,42.08,96.85,41.69,96.98z
			 M43.96,89.55c0.05-0.13,0.09-0.26,0.12-0.4c0.23,0,0.44-0.02,0.62-0.05s0.38-0.11,0.6-0.23s0.42-0.28,0.61-0.5
			s0.33-0.44,0.42-0.7s0.14-0.51,0.14-0.77c0-0.32-0.08-0.58-0.23-0.77s-0.38-0.29-0.67-0.29c-0.23,0-0.45,0.06-0.65,0.19
			s-0.39,0.36-0.57,0.7s-0.37,0.92-0.57,1.75s-0.35,1.64-0.45,2.42s-0.15,1.27-0.15,1.45c0,0.36,0.1,0.63,0.31,0.82
			s0.48,0.29,0.82,0.29c0.39,0,0.73-0.11,1.02-0.34s0.51-0.53,0.65-0.91s0.22-0.76,0.22-1.12c0-0.53-0.15-0.92-0.45-1.18
			s-0.68-0.39-1.13-0.39c-0.21,0-0.4,0.04-0.57,0.11L43.96,89.55z"/>
	</g>
	<g>
		<path d="M60.69,100.01l-0.09-0.12c0.21-0.99,0.59-3.24,1.12-6.75c0.12-0.77,0.22-1.35,0.3-1.75s0.2-0.77,0.35-1.11
			s0.38-0.65,0.69-0.94s0.64-0.5,1.01-0.66s0.73-0.23,1.08-0.23c0.38,0,0.67,0.1,0.87,0.3c0.21,0.2,0.31,0.5,0.31,0.89
			c0,0.29-0.05,0.56-0.16,0.83c-0.11,0.27-0.28,0.53-0.52,0.79s-0.47,0.45-0.69,0.58s-0.47,0.24-0.73,0.33l-0.01,0.12
			c0.06,0,0.21,0.02,0.47,0.06s0.5,0.14,0.74,0.3s0.43,0.37,0.57,0.64c0.14,0.27,0.21,0.56,0.21,0.86c0,0.68-0.27,1.29-0.8,1.83
			c-0.53,0.54-1.19,0.81-1.99,0.81c-0.59,0-1.07-0.18-1.44-0.54c-0.18,1.34-0.3,2.5-0.35,3.47C61.39,99.78,61.08,99.88,60.69,100.01
			z M62.96,92.58c0.05-0.13,0.09-0.26,0.12-0.4c0.23,0,0.44-0.02,0.62-0.05s0.38-0.11,0.6-0.23s0.42-0.28,0.61-0.5
			s0.33-0.44,0.42-0.7s0.14-0.51,0.14-0.77c0-0.32-0.08-0.58-0.23-0.77s-0.38-0.29-0.67-0.29c-0.23,0-0.45,0.06-0.65,0.19
			s-0.39,0.36-0.57,0.7s-0.37,0.92-0.57,1.75s-0.35,1.64-0.45,2.42s-0.15,1.27-0.15,1.45c0,0.36,0.1,0.63,0.31,0.82
			s0.48,0.29,0.82,0.29c0.39,0,0.73-0.11,1.02-0.34s0.51-0.53,0.65-0.91s0.22-0.76,0.22-1.12c0-0.53-0.15-0.92-0.45-1.18
			s-0.68-0.39-1.13-0.39c-0.21,0-0.4,0.04-0.57,0.11L62.96,92.58z"/>
		<path d="M68.07,91.13l-0.09-0.08c0.18-0.27,0.31-0.48,0.4-0.64s0.16-0.33,0.23-0.5s0.12-0.36,0.18-0.55l0.2-0.8
			c0.51-0.14,0.86-0.24,1.05-0.32l0.13,0.16c-0.25,0.54-0.53,1.03-0.84,1.49s-0.6,0.83-0.86,1.12L68.07,91.13z"/>
	</g>
	<g>
		<path d="M52.66,45.79l0.08,0.05c0.32-0.45,0.71-0.95,1.17-1.51c0.43-0.52,0.76-0.94,0.98-1.24s0.38-0.6,0.5-0.89
			s0.17-0.54,0.17-0.74c0-0.13-0.03-0.33-0.1-0.6l0.07-0.13c0.4-0.18,0.67-0.26,0.8-0.26c0.08,0,0.13,0.03,0.16,0.1
			s0.04,0.15,0.04,0.26c0,0.2-0.06,0.45-0.17,0.75s-0.29,0.61-0.52,0.92s-0.58,0.73-1.05,1.26c-0.43,0.47-0.88,1-1.37,1.6
			s-0.8,0.98-0.93,1.16c-0.04,0.23-0.16,0.68-0.35,1.34s-0.32,1.07-0.38,1.24c-0.26,0.13-0.5,0.22-0.73,0.26
			c-0.06-0.09-0.11-0.18-0.16-0.28c0.08-0.21,0.29-0.64,0.63-1.3s0.6-1.1,0.78-1.33c0.18-1.02,0.27-2.02,0.27-2.99
			c0-0.79-0.11-1.36-0.34-1.74s-0.54-0.56-0.93-0.56c-0.21,0-0.38,0.04-0.52,0.13s-0.29,0.22-0.44,0.41l-0.08,0.01l-0.06-0.05v-0.08
			c0.29-0.46,0.56-0.77,0.81-0.93s0.51-0.23,0.79-0.23c0.48,0,0.82,0.18,1.03,0.55s0.31,0.93,0.31,1.67c0,0.48-0.04,0.96-0.11,1.45
			S52.82,45.14,52.66,45.79z"/>
	</g>
	<g>
		<path d="M73.8,48.05l0.08,0.05c0.32-0.45,0.71-0.95,1.17-1.51c0.43-0.52,0.76-0.94,0.98-1.24s0.38-0.6,0.5-0.89
			s0.17-0.54,0.17-0.74c0-0.13-0.03-0.33-0.1-0.6l0.07-0.13c0.4-0.18,0.67-0.26,0.8-0.26c0.08,0,0.13,0.03,0.16,0.1
			s0.04,0.15,0.04,0.26c0,0.2-0.06,0.45-0.17,0.75s-0.29,0.61-0.52,0.92s-0.58,0.73-1.05,1.26c-0.43,0.47-0.88,1-1.37,1.6
			s-0.8,0.98-0.93,1.16c-0.04,0.23-0.16,0.68-0.35,1.34s-0.32,1.07-0.38,1.24c-0.26,0.13-0.5,0.22-0.73,0.26
			c-0.06-0.09-0.11-0.18-0.16-0.28c0.08-0.21,0.29-0.64,0.63-1.3s0.6-1.1,0.78-1.33c0.18-1.02,0.27-2.02,0.27-2.99
			c0-0.79-0.11-1.36-0.34-1.74s-0.54-0.56-0.93-0.56c-0.21,0-0.38,0.04-0.52,0.13s-0.29,0.22-0.44,0.41l-0.08,0.01l-0.06-0.05v-0.08
			c0.29-0.46,0.56-0.77,0.81-0.93s0.51-0.23,0.79-0.23c0.48,0,0.82,0.18,1.03,0.55s0.31,0.93,0.31,1.67c0,0.48-0.04,0.96-0.11,1.45
			S73.96,47.4,73.8,48.05z"/>
		<path d="M79.39,42.84l-0.09-0.08c0.18-0.27,0.31-0.48,0.4-0.64s0.16-0.33,0.23-0.5s0.12-0.36,0.18-0.55l0.2-0.8
			c0.51-0.14,0.86-0.24,1.05-0.32l0.13,0.16c-0.25,0.54-0.53,1.03-0.84,1.49s-0.6,0.83-0.86,1.12L79.39,42.84z"/>
	</g>
</g>
<g id="Ellipses">
	
		<ellipse transform="matrix(0.9995 -0.0319 0.0319 0.9995 -2.1024 0.3942)" class="st4" cx="11.31" cy="66.1" rx="9.16" ry="18.33"/>
	
		<ellipse transform="matrix(0.0502 -0.9987 0.9987 0.0502 47.2938 87.8105)" class="st4" cx="69.81" cy="19.04" rx="17.37" ry="34.74"/>
	
		<ellipse transform="matrix(0.2345 -0.9721 0.9721 0.2345 -70.4431 139.5964)" class="st4" cx="53.41" cy="114.52" rx="14" ry="28"/>
	
		<ellipse transform="matrix(0.9836 -0.1802 0.1802 0.9836 -8.0401 22.3899)" class="st4" cx="119.25" cy="55.46" rx="10.31" ry="20.61"/>
	<path class="st5" d="M42.09,28.46c6.16,4.32,15.84,7.38,26.85,7.93c13.93,0.7,26.15-2.8,31.97-8.45L70.37,1.71L42.09,28.46z"/>
	<path class="st5" d="M113.32,69.03c-1.87-3.14-3.38-7.19-4.2-11.71c-1.49-8.14-0.38-15.59,2.49-19.45l17.99,15.86L113.32,69.03z"/>
	<path class="st5" d="M17.03,52.43c1.95,3.29,3.26,8.09,3.43,13.46c0.24,7.51-1.82,14.04-4.96,16.97L3.02,66.1L17.03,52.43z"/>
	<path class="st5" d="M30.93,102.51c5.56-3.34,15.48-4.15,26.07-1.59c6.07,1.46,11.43,3.81,15.55,6.58L50.2,128.16L30.93,102.51z"/>
	
		<ellipse transform="matrix(0.9836 -0.1802 0.1802 0.9836 -8.0401 22.3899)" class="st6" cx="119.25" cy="55.46" rx="10.31" ry="20.61"/>
	
		<ellipse transform="matrix(0.2345 -0.9721 0.9721 0.2345 -70.4431 139.5964)" class="st6" cx="53.41" cy="114.52" rx="14" ry="28"/>
	
		<ellipse transform="matrix(0.9995 -0.0319 0.0319 0.9995 -2.1024 0.3942)" class="st6" cx="11.31" cy="66.1" rx="9.16" ry="18.33"/>
</g>
<g id="Horocycles">
	<path class="st7" d="M100.61,28.23c-5.93,5.48-17.97,8.85-31.67,8.16c-11.11-0.56-20.87-3.67-27.01-8.04"/>
	<path class="st7" d="M17.03,52.34c1.95,3.29,3.26,8.09,3.43,13.46c0.24,7.51-1.82,14.04-4.96,16.97"/>
	<path class="st7" d="M30.62,102.51c5.56-3.34,15.48-4.15,26.07-1.59c6.07,1.46,11.43,3.81,15.55,6.58"/>
	<path class="st7" d="M113.32,69.03c-1.87-3.14-3.38-7.19-4.2-11.71c-1.49-8.14-0.38-15.59,2.49-19.45"/>
	
		<ellipse transform="matrix(0.0502 -0.9987 0.9987 0.0502 47.2369 87.8595)" class="st6" cx="69.81" cy="19.09" rx="17.37" ry="34.74"/>
</g>
<g id="Overlay">
	<circle class="st8" cx="66.45" cy="65.91" r="64.32"/>
	<polygon class="st9" points="2.68,65.91 70.37,1.71 50.2,128.16 	"/>
	<polygon class="st8" points="129.59,53.72 70.37,1.71 50.2,128.16 	"/>
	<circle class="st10" cx="2.68" cy="65.91" r="1.74"/>
	<circle class="st10" cx="129.59" cy="53.72" r="1.74"/>
	<circle class="st10" cx="50.01" cy="128.16" r="1.74"/>
	<circle class="st10" cx="70.37" cy="2.17" r="1.74"/>
</g>
<g id="Text">
	<g>
	</g>
	<g>
	</g>
	<g>
	</g>
	<g>
	</g>
	<g>
	</g>
	<g>
	</g>
	<g>
	</g>
	<g>
	</g>
	<g>
	</g>
	<g>
	</g>
	<g>
	</g>
	<g>
	</g>
	<g>
	</g>
	<g>
	</g>
	<g>
	</g>
</g>
</svg>
