<svg xmlns="http://www.w3.org/2000/svg" viewBox="0 0 129.21 204.66"><title>NormalCoordinateComplicatedFlipSetup</title><g id="Layer_5" data-name="Layer 5"><polygon points="9.06 96.41 45.89 13.12 120.12 92 49.63 188.83 9.06 96.41" fill="#fff"/><polygon points="9.06 96.41 45.89 13.12 120.12 92 49.63 188.83 9.06 96.41" fill="#ff2f92" opacity="0.35"/></g><g id="Overlay"><polygon points="9.06 96.41 45.89 13.12 120.12 92 49.63 188.83 9.06 96.41" fill="none" stroke="#ff2f92" stroke-linejoin="round"/><circle cx="9.06" cy="96.41" r="1.74" fill="#ff2f92"/><circle cx="120.12" cy="92" r="1.74" fill="#ff2f92"/><circle cx="49.44" cy="188.83" r="1.74" fill="#ff2f92"/><circle cx="45.56" cy="13.12" r="1.74" fill="#ff2f92"/></g><g id="Text"><text transform="translate(10.8 62.5)" font-size="12" font-family="Palatino-Italic, Palatino" font-style="italic">b</text><text transform="translate(15.11 149.52)" font-size="12" font-family="Palatino-Italic, Palatino" font-style="italic">c</text><text transform="translate(93.87 53.69)" font-size="12" font-family="Palatino-Italic, Palatino" font-style="italic">a</text><text transform="translate(0 98.15)" font-size="12" font-family="Palatino-Italic, Palatino" font-style="italic">z</text><text transform="translate(45.56 199.02)" font-size="12" font-family="Palatino-Italic, Palatino" font-style="italic">w</text><text transform="translate(123.21 94.67)" font-size="12" font-family="Palatino-Italic, Palatino" font-style="italic">x</text><text transform="translate(87.33 149.52)" font-size="12" font-family="Palatino-Italic, Palatino" font-style="italic">d</text><text transform="translate(38.59 10.16)" font-size="12" font-family="Palatino-Italic, Palatino" font-style="italic">y</text><line x1="9.06" y1="96.41" x2="120.12" y2="92" fill="none" stroke="#ff2f92" stroke-miterlimit="10"/><text transform="translate(55.19 92)" font-size="12" font-family="Palatino-Italic, Palatino" font-style="italic">e</text><line x1="49.6" y1="188.75" x2="45.86" y2="13.03" fill="none" stroke="#ff2f92" stroke-miterlimit="10"/><text transform="translate(51.82 135.76)" font-size="12" font-family="Palatino-Italic, Palatino" font-style="italic">f</text></g></svg>