<svg xmlns="http://www.w3.org/2000/svg" viewBox="0 0 284.06 208.92"><title>NormalCoordinateComplicatedFlipW</title><g id="Layer_5" data-name="Layer 5"><polygon points="9.06 100.67 45.89 17.38 120.12 96.26 49.63 193.09 9.06 100.67" fill="#fff"/><polygon points="9.06 100.67 45.89 17.38 120.12 96.26 49.63 193.09 9.06 100.67" fill="#ff2f92" opacity="0.35"/></g><g id="Curves"><path d="M32.61,70.68C53.22,79.4,55.36,135.46,60.84,191" transform="translate(-11.21 2.08)" fill="none" stroke="#93278f" stroke-miterlimit="10" stroke-width="2"/><path d="M101.9,62.9c-13.49,11-35.5,74.26-41.06,127.82" transform="translate(-11.21 2.08)" fill="none" stroke="#93278f" stroke-miterlimit="10" stroke-width="2"/><path d="M112.42,74.08c-13.49,11-46,63.08-51.58,116.64" transform="translate(-11.21 2.08)" fill="none" stroke="#93278f" stroke-miterlimit="10" stroke-width="2"/><path d="M26.32,85.05c13.34,6.65,7.42,21.36.15,27.65" transform="translate(-11.21 2.08)" fill="none" stroke="#93278f" stroke-miterlimit="10" stroke-width="2"/><path d="M120.54,82.56c-13.33,6.65-7.86,21-.58,27.25" transform="translate(-11.21 2.08)" fill="none" stroke="#93278f" stroke-miterlimit="10" stroke-width="2"/><path d="M28.68,79.34c19.53,18.14,12.86,44.85,5.59,51.13" transform="translate(-11.21 2.08)" fill="none" stroke="#93278f" stroke-miterlimit="10" stroke-width="2"/><path d="M101.22,135.55" transform="translate(-11.21 2.08)" fill="none" stroke="#93278f" stroke-miterlimit="10" stroke-width="2"/><path d="M37.67,59.37" transform="translate(-11.21 2.08)" fill="none" stroke="#93278f" stroke-miterlimit="10" stroke-width="2"/><path d="M75.8,35.17c-13.41,10.06-21.42,9.2-28.86,3.11" transform="translate(-11.21 2.08)" fill="none" stroke="#93278f" stroke-miterlimit="10" stroke-width="2"/><path d="M84.92,44.86c-13.41,10-35.14,10.53-42.58,4.44" transform="translate(-11.21 2.08)" fill="none" stroke="#93278f" stroke-miterlimit="10" stroke-width="2"/></g><g id="Overlay"><polygon points="9.06 100.67 45.89 17.38 120.12 96.26 49.63 193.09 9.06 100.67" fill="none" stroke="#ff2f92" stroke-linejoin="round"/><circle cx="9.06" cy="100.67" r="1.74" fill="#ff2f92"/><circle cx="120.12" cy="96.26" r="1.74" fill="#ff2f92"/><circle cx="49.44" cy="193.09" r="1.74" fill="#ff2f92"/><circle cx="45.89" cy="17.38" r="1.74" fill="#ff2f92"/></g><g id="Text"><text transform="translate(12.95 49.87)" font-size="12" font-family="Palatino-Italic, Palatino" font-style="italic">b</text><text transform="translate(15.11 153.78)" font-size="12" font-family="Palatino-Italic, Palatino" font-style="italic">c</text><text transform="translate(83.01 44.89)" font-size="12" font-family="Palatino-Italic, Palatino" font-style="italic">a</text><text transform="translate(0 102.41)" font-size="12" font-family="Palatino-Italic, Palatino" font-style="italic">z</text><text transform="translate(45.56 203.28)" font-size="12" font-family="Palatino-Italic, Palatino" font-style="italic">w</text><text transform="translate(123.21 98.93)" font-size="12" font-family="Palatino-Italic, Palatino" font-style="italic">x</text><text transform="translate(87.33 153.78)" font-size="12" font-family="Palatino-Italic, Palatino" font-style="italic">d</text><text transform="translate(38.33 14.26)" font-size="12" font-family="Palatino-Italic, Palatino" font-style="italic">y</text><line x1="9.06" y1="100.67" x2="120.12" y2="96.26" fill="none" stroke="#ff2f92" stroke-miterlimit="10"/><text transform="translate(65.83 96.26)" font-size="12" font-family="Palatino-Italic, Palatino" font-style="italic">e</text><line x1="49.63" y1="193.09" x2="45.89" y2="17.38" fill="none" stroke="#ff2f92" stroke-miterlimit="10"/><text transform="translate(51.17 89.11)" font-size="12" font-family="Palatino-Italic, Palatino" font-style="italic">f</text><text transform="translate(98.1 67.1)" font-size="12" font-family="Palatino-Italic, Palatino" font-style="italic">k</text><text transform="translate(102.96 69.64)" font-size="8" font-family="Palatino-Italic, Palatino" font-style="italic">a</text><text transform="translate(9.31 71.04)" font-size="12" font-family="Palatino-Italic, Palatino" font-style="italic">k</text><text transform="translate(14.46 74.2)" font-size="8" font-family="Palatino-Italic, Palatino" font-style="italic">b</text><polygon points="163.91 96.57 200.74 13.27 274.97 92.16 204.48 188.99 163.91 96.57" fill="#fff"/><polygon points="163.91 96.57 200.74 13.27 274.97 92.16 204.48 188.99 163.91 96.57" fill="#ff2f92" opacity="0.35"/><path d="M194.58,139.79c20.6,8.72,31.38-62.64,54.49-89.15" transform="translate(-11.21 2.08)" fill="none" stroke="#93278f" stroke-miterlimit="10" stroke-width="2"/><path d="M256.75,58.8c-13.49,11-35.5,74.26-41.06,127.82" transform="translate(-11.21 2.08)" fill="none" stroke="#93278f" stroke-miterlimit="10" stroke-width="2"/><path d="M267.27,70c-13.49,11-46,63.08-51.58,116.64" transform="translate(-11.21 2.08)" fill="none" stroke="#93278f" stroke-miterlimit="10" stroke-width="2"/><path d="M181.17,80.94c13.34,6.66,7.42,21.37.15,27.66" transform="translate(-11.21 2.08)" fill="none" stroke="#93278f" stroke-miterlimit="10" stroke-width="2"/><path d="M275.39,78.46c-13.33,6.65-7.86,21-.59,27.25" transform="translate(-11.21 2.08)" fill="none" stroke="#93278f" stroke-miterlimit="10" stroke-width="2"/><path d="M183.53,75.24c19.53,18.14,12.86,44.84,5.59,51.13" transform="translate(-11.21 2.08)" fill="none" stroke="#93278f" stroke-miterlimit="10" stroke-width="2"/><path d="M256.07,131.45" transform="translate(-11.21 2.08)" fill="none" stroke="#93278f" stroke-miterlimit="10" stroke-width="2"/><path d="M192.51,55.27" transform="translate(-11.21 2.08)" fill="none" stroke="#93278f" stroke-miterlimit="10" stroke-width="2"/><path d="M230.65,31.07c-13.41,10-21.42,9.19-28.86,3.11" transform="translate(-11.21 2.08)" fill="none" stroke="#93278f" stroke-miterlimit="10" stroke-width="2"/><path d="M239.77,40.76c-13.42,10.05-35.14,10.52-42.58,4.44" transform="translate(-11.21 2.08)" fill="none" stroke="#93278f" stroke-miterlimit="10" stroke-width="2"/><polygon points="163.91 96.57 200.74 13.27 274.97 92.16 204.48 188.99 163.91 96.57" fill="none" stroke="#ff2f92" stroke-linejoin="round"/><circle cx="163.91" cy="96.57" r="1.74" fill="#ff2f92"/><circle cx="274.97" cy="92.16" r="1.74" fill="#ff2f92"/><circle cx="204.29" cy="188.99" r="1.74" fill="#ff2f92"/><circle cx="200.74" cy="13.27" r="1.74" fill="#ff2f92"/><text transform="translate(167.8 45.76)" font-size="12" font-family="Palatino-Italic, Palatino" font-style="italic">b</text><text transform="translate(169.96 149.68)" font-size="12" font-family="Palatino-Italic, Palatino" font-style="italic">c</text><text transform="translate(237.86 40.78)" font-size="12" font-family="Palatino-Italic, Palatino" font-style="italic">a</text><text transform="translate(154.85 98.31)" font-size="12" font-family="Palatino-Italic, Palatino" font-style="italic">z</text><text transform="translate(200.41 199.18)" font-size="12" font-family="Palatino-Italic, Palatino" font-style="italic">w</text><text transform="translate(278.06 94.83)" font-size="12" font-family="Palatino-Italic, Palatino" font-style="italic">x</text><text transform="translate(242.18 149.68)" font-size="12" font-family="Palatino-Italic, Palatino" font-style="italic">d</text><text transform="translate(193.18 10.16)" font-size="12" font-family="Palatino-Italic, Palatino" font-style="italic">y</text><line x1="163.91" y1="96.57" x2="274.97" y2="92.16" fill="none" stroke="#ff2f92" stroke-miterlimit="10"/><text transform="translate(220.68 92.16)" font-size="12" font-family="Palatino-Italic, Palatino" font-style="italic">e</text><line x1="204.48" y1="188.99" x2="200.74" y2="13.27" fill="none" stroke="#ff2f92" stroke-miterlimit="10"/><text transform="translate(206.02 85.01)" font-size="12" font-family="Palatino-Italic, Palatino" font-style="italic">f</text><text transform="translate(252.95 63)" font-size="12" font-family="Palatino-Italic, Palatino" font-style="italic">k</text><text transform="translate(257.81 65.53)" font-size="8" font-family="Palatino-Italic, Palatino" font-style="italic">a</text></g></svg>