<svg xmlns="http://www.w3.org/2000/svg" viewBox="0 0 342.29 214.89"><title>NormalCoordinateVertexTileAmbiguous</title><g id="Layer_5" data-name="Layer 5"><polygon points="11.73 21.33 122.79 16.92 52.3 113.75 11.73 21.33" fill="#fff"/><polygon points="11.73 21.33 122.79 16.92 52.3 113.75 11.73 21.33" fill="#ff2f92" opacity="0.35"/></g><g id="Curves"><path d="M36.15,57.67c7.22-3.89,17.56-22.59,12.25-37" transform="translate(-8.55 -0.44)" fill="none" stroke="#93278f" stroke-miterlimit="10" stroke-width="2"/><path d="M39.88,66.44C54,59.36,64.5,35.08,59.19,20.66" transform="translate(-8.55 -0.44)" fill="none" stroke="#93278f" stroke-miterlimit="10" stroke-width="2"/><polygon points="115.28 104.31 226.35 99.9 155.85 196.73 115.28 104.31" fill="#fff"/><polygon points="115.28 104.31 226.35 99.9 155.85 196.73 115.28 104.31" fill="#ff2f92" opacity="0.35"/><path d="M139.71,140.65c7.22-3.89,17.55-22.59,12.25-37" transform="translate(-8.55 -0.44)" fill="none" stroke="#93278f" stroke-miterlimit="10" stroke-width="2"/><path d="M143.44,149.42c14.16-7.08,24.61-31.36,19.31-45.78" transform="translate(-8.55 -0.44)" fill="none" stroke="#93278f" stroke-miterlimit="10" stroke-width="2"/><path d="M164.4,197.17c2.71-28.51,30.16-85.26,70.49-96.83" transform="translate(-8.55 -0.44)" fill="none" stroke="#93278f" stroke-miterlimit="10" stroke-width="2"/><polygon points="115.28 104.31 226.35 99.9 155.85 196.73 115.28 104.31" fill="none" stroke="#ff2f92" stroke-linejoin="round"/><circle cx="115.28" cy="104.31" r="1.74" fill="#ff2f92"/><circle cx="226.35" cy="99.9" r="1.74" fill="#ff2f92"/><circle cx="155.66" cy="196.73" r="1.74" fill="#ff2f92"/><text transform="translate(158.57 97)" font-size="12" font-family="Palatino-Italic, Palatino" font-style="italic">b</text><text transform="translate(121.33 157.42)" font-size="12" font-family="Palatino-Italic, Palatino" font-style="italic">c</text><text transform="translate(194.69 155.79)" font-size="12" font-family="Palatino-Italic, Palatino" font-style="italic">a</text><text transform="translate(103.56 104.31)" font-size="12" font-family="Palatino-Italic, Palatino" font-style="italic" letter-spacing="-0.04em">A</text><text transform="translate(152.11 209.25)" font-size="12" font-family="Palatino-Italic, Palatino" font-style="italic">B</text><text transform="translate(229.43 99.9)" font-size="12" font-family="Palatino-Italic, Palatino" font-style="italic">C</text><polygon points="220.14 17.47 331.2 13.06 260.71 109.89 220.14 17.47" fill="#fff"/><polygon points="220.14 17.47 331.2 13.06 260.71 109.89 220.14 17.47" fill="#ff2f92" opacity="0.35"/><path d="M269.26,110.33c-5.46-45.2,18-90,69.35-96.16" transform="translate(-8.55 -0.44)" fill="none" stroke="#93278f" stroke-miterlimit="10" stroke-width="2"/><path d="M244.56,53.81c7.23-3.89,17.56-22.59,12.25-37" transform="translate(-8.55 -0.44)" fill="none" stroke="#93278f" stroke-miterlimit="10" stroke-width="2"/><path d="M248.3,62.58c14.15-7.08,24.61-31.36,19.3-45.78" transform="translate(-8.55 -0.44)" fill="none" stroke="#93278f" stroke-miterlimit="10" stroke-width="2"/><path d="M269.26,110.33C272,81.82,298.7,25.62,339,14.05" transform="translate(-8.55 -0.44)" fill="none" stroke="#93278f" stroke-miterlimit="10" stroke-width="2"/><polygon points="220.14 17.47 331.2 13.06 260.71 109.89 220.14 17.47" fill="none" stroke="#ff2f92" stroke-linejoin="round"/><circle cx="220.14" cy="17.47" r="1.74" fill="#ff2f92"/><circle cx="331.2" cy="13.06" r="1.74" fill="#ff2f92"/><circle cx="260.52" cy="109.89" r="1.74" fill="#ff2f92"/><text transform="translate(263.42 10.16)" font-size="12" font-family="Palatino-Italic, Palatino" font-style="italic">b</text><text transform="translate(226.19 70.58)" font-size="12" font-family="Palatino-Italic, Palatino" font-style="italic">c</text><text transform="translate(299.54 68.95)" font-size="12" font-family="Palatino-Italic, Palatino" font-style="italic">a</text><text transform="translate(208.42 17.47)" font-size="12" font-family="Palatino-Italic, Palatino" font-style="italic" letter-spacing="-0.04em">A</text><text transform="translate(256.97 122.41)" font-size="12" font-family="Palatino-Italic, Palatino" font-style="italic">B</text><text transform="translate(334.29 13.06)" font-size="12" font-family="Palatino-Italic, Palatino" font-style="italic">C</text></g><g id="Overlay"><polygon points="11.73 21.33 122.79 16.92 52.3 113.75 11.73 21.33" fill="none" stroke="#ff2f92" stroke-linejoin="round"/><circle cx="11.73" cy="21.33" r="1.74" fill="#ff2f92"/><circle cx="122.79" cy="16.92" r="1.74" fill="#ff2f92"/><circle cx="52.1" cy="113.75" r="1.74" fill="#ff2f92"/></g><g id="Text"><text transform="translate(55.01 14.02)" font-size="12" font-family="Palatino-Italic, Palatino" font-style="italic">b</text><text transform="translate(17.78 74.44)" font-size="12" font-family="Palatino-Italic, Palatino" font-style="italic">c</text><text transform="translate(91.13 72.82)" font-size="12" font-family="Palatino-Italic, Palatino" font-style="italic">a</text><text transform="translate(0.01 21.33)" font-size="12" font-family="Palatino-Italic, Palatino" font-style="italic" letter-spacing="-0.04em">A</text><text transform="translate(48.56 126.27)" font-size="12" font-family="Palatino-Italic, Palatino" font-style="italic">B</text><text transform="translate(125.87 16.92)" font-size="12" font-family="Palatino-Italic, Palatino" font-style="italic">C</text></g></svg>