<svg xmlns="http://www.w3.org/2000/svg" viewBox="0 0 279.95 207.87"><title>NormalCoordinateComplicatedFlipYW</title><g id="Layer_5" data-name="Layer 5"><polygon points="9.06 99.63 45.89 16.33 120.12 95.22 49.63 192.04 9.06 99.63" fill="#fff"/><polygon points="9.06 99.63 45.89 16.33 120.12 95.22 49.63 192.04 9.06 99.63" fill="#ff2f92" opacity="0.35"/></g><g id="Curves"><path d="M41.53,50.57c13.33,6.65,39.33,61.11,65.14,77.49" transform="translate(-11.21 1.03)" fill="none" stroke="#93278f" stroke-miterlimit="10" stroke-width="2"/><path d="M30.28,74.86c20.6,8.72,25.08,60.6,30.56,116.15" transform="translate(-11.21 1.03)" fill="none" stroke="#93278f" stroke-miterlimit="10" stroke-width="2"/><path d="M112,120.7c-13.49-11-49.37-51.84-54.93-105.4" transform="translate(-11.21 1.03)" fill="none" stroke="#93278f" stroke-miterlimit="10" stroke-width="2"/><path d="M117.86,112.7c-13.49-11-55.2-43.84-60.76-97.4" transform="translate(-11.21 1.03)" fill="none" stroke="#93278f" stroke-miterlimit="10" stroke-width="2"/><path d="M26.32,85.05c13.34,6.65,7.42,21.36.15,27.65" transform="translate(-11.21 1.03)" fill="none" stroke="#93278f" stroke-miterlimit="10" stroke-width="2"/><path d="M120.54,82.56c-13.33,6.65-7.86,21-.58,27.25" transform="translate(-11.21 1.03)" fill="none" stroke="#93278f" stroke-miterlimit="10" stroke-width="2"/><path d="M28.68,79.34c19.53,18.14,12.86,44.85,5.59,51.13" transform="translate(-11.21 1.03)" fill="none" stroke="#93278f" stroke-miterlimit="10" stroke-width="2"/><path d="M37.67,59.37C51,66,75.4,119.17,101.22,135.55" transform="translate(-11.21 1.03)" fill="none" stroke="#93278f" stroke-miterlimit="10" stroke-width="2"/><polygon points="159.81 96.57 196.63 13.27 270.87 92.16 200.38 188.99 159.81 96.57" fill="#fff"/><polygon points="159.81 96.57 196.63 13.27 270.87 92.16 200.38 188.99 159.81 96.57" fill="#ff2f92" opacity="0.35"/><path d="M181,71.8c20.5,8.67,27,63.4,30.57,116.16" transform="translate(-11.21 1.03)" fill="none" stroke="#93278f" stroke-miterlimit="10" stroke-width="2"/><path d="M262.78,117.64c-13.49-11-46.88-52.21-54.93-105.4" transform="translate(-11.21 1.03)" fill="none" stroke="#93278f" stroke-miterlimit="10" stroke-width="2"/><path d="M268.6,109.64c-13.49-11-52.53-44-60.75-97.4" transform="translate(-11.21 1.03)" fill="none" stroke="#93278f" stroke-miterlimit="10" stroke-width="2"/><path d="M177.07,82c13.33,6.65,7.41,21.37.14,27.65" transform="translate(-11.21 1.03)" fill="none" stroke="#93278f" stroke-miterlimit="10" stroke-width="2"/><path d="M271.29,79.51c-13.34,6.65-7.86,21-.59,27.25" transform="translate(-11.21 1.03)" fill="none" stroke="#93278f" stroke-miterlimit="10" stroke-width="2"/><path d="M207.85,12.24c6.72,48.12,28.42,119.28,3.74,175.72" transform="translate(-11.21 1.03)" fill="none" stroke="#93278f" stroke-miterlimit="10" stroke-width="2"/><path d="M179.43,76.29C199,94.43,192.28,121.13,185,127.41" transform="translate(-11.21 1.03)" fill="none" stroke="#93278f" stroke-miterlimit="10" stroke-width="2"/><path d="M249.29,136.17" transform="translate(-11.21 1.03)" fill="none" stroke="#93278f" stroke-miterlimit="10" stroke-width="2"/><path d="M186.34,60.36" transform="translate(-11.21 1.03)" fill="none" stroke="#93278f" stroke-miterlimit="10" stroke-width="2"/><polygon points="159.81 96.57 196.63 13.27 270.87 92.16 200.38 188.99 159.81 96.57" fill="none" stroke="#ff2f92" stroke-linejoin="round"/><circle cx="159.81" cy="96.57" r="1.74" fill="#ff2f92"/><circle cx="270.87" cy="92.16" r="1.74" fill="#ff2f92"/><circle cx="200.18" cy="188.99" r="1.74" fill="#ff2f92"/><circle cx="196.63" cy="13.27" r="1.74" fill="#ff2f92"/><text transform="translate(161.54 62.65)" font-size="12" font-family="Palatino-Italic, Palatino" font-style="italic">b</text><text transform="translate(165.85 149.68)" font-size="12" font-family="Palatino-Italic, Palatino" font-style="italic">c</text><text transform="translate(244.61 53.84)" font-size="12" font-family="Palatino-Italic, Palatino" font-style="italic">a</text><text transform="translate(150.74 98.31)" font-size="12" font-family="Palatino-Italic, Palatino" font-style="italic">z</text><text transform="translate(196.3 199.18)" font-size="12" font-family="Palatino-Italic, Palatino" font-style="italic">w</text><text transform="translate(273.95 94.83)" font-size="12" font-family="Palatino-Italic, Palatino" font-style="italic">x</text><text transform="translate(238.07 149.68)" font-size="12" font-family="Palatino-Italic, Palatino" font-style="italic">d</text><text transform="translate(189.08 10.16)" font-size="12" font-family="Palatino-Italic, Palatino" font-style="italic">y</text><line x1="159.81" y1="96.57" x2="270.87" y2="92.16" fill="none" stroke="#ff2f92" stroke-miterlimit="10"/><text transform="translate(216.57 92.16)" font-size="12" font-family="Palatino-Italic, Palatino" font-style="italic">e</text></g><g id="Overlay"><polygon points="9.06 99.63 45.89 16.33 120.12 95.22 49.63 192.04 9.06 99.63" fill="none" stroke="#ff2f92" stroke-linejoin="round"/><circle cx="9.06" cy="99.63" r="1.74" fill="#ff2f92"/><circle cx="120.12" cy="95.22" r="1.74" fill="#ff2f92"/><circle cx="49.44" cy="192.05" r="1.74" fill="#ff2f92"/><circle cx="45.89" cy="16.33" r="1.74" fill="#ff2f92"/></g><g id="Text"><text transform="translate(10.8 65.71)" font-size="12" font-family="Palatino-Italic, Palatino" font-style="italic">b</text><text transform="translate(15.11 152.74)" font-size="12" font-family="Palatino-Italic, Palatino" font-style="italic">c</text><text transform="translate(93.87 56.9)" font-size="12" font-family="Palatino-Italic, Palatino" font-style="italic">a</text><text transform="translate(0 101.37)" font-size="12" font-family="Palatino-Italic, Palatino" font-style="italic">z</text><text transform="translate(45.56 202.24)" font-size="12" font-family="Palatino-Italic, Palatino" font-style="italic">w</text><text transform="translate(123.21 97.89)" font-size="12" font-family="Palatino-Italic, Palatino" font-style="italic">x</text><text transform="translate(87.33 152.74)" font-size="12" font-family="Palatino-Italic, Palatino" font-style="italic">d</text><text transform="translate(38.33 13.21)" font-size="12" font-family="Palatino-Italic, Palatino" font-style="italic">y</text><line x1="9.06" y1="99.63" x2="120.12" y2="95.22" fill="none" stroke="#ff2f92" stroke-miterlimit="10"/><text transform="translate(65.83 95.22)" font-size="12" font-family="Palatino-Italic, Palatino" font-style="italic">e</text><line x1="49.63" y1="192.05" x2="45.89" y2="16.33" fill="none" stroke="#ff2f92" stroke-miterlimit="10"/><text transform="translate(51.86 139.05)" font-size="12" font-family="Palatino-Italic, Palatino" font-style="italic">f</text><line x1="200.57" y1="189.22" x2="196.83" y2="13.51" fill="none" stroke="#ff2f92" stroke-miterlimit="10"/><text transform="translate(202.79 136.23)" font-size="12" font-family="Palatino-Italic, Palatino" font-style="italic">f</text></g></svg>