<svg xmlns="http://www.w3.org/2000/svg" viewBox="0 0 422.08 208.35"><title>NormalCoordinateComplicatedFlipXZ</title><g id="Layer_5" data-name="Layer 5"><polygon points="9.06 100.11 45.89 16.81 120.12 95.7 49.63 192.53 9.06 100.11" fill="#fff"/><polygon points="9.06 100.11 45.89 16.81 120.12 95.7 49.63 192.53 9.06 100.11" fill="#ff2f92" opacity="0.35"/></g><g id="Curves"><path d="M20.27,98.59C39.8,116.73,77,138.12,88.2,153.43" transform="translate(-11.21 1.51)" fill="none" stroke="#93278f" stroke-miterlimit="10" stroke-width="2"/><path d="M101.22,135.55" transform="translate(-11.21 1.51)" fill="none" stroke="#93278f" stroke-miterlimit="10" stroke-width="2"/><path d="M37.67,59.37" transform="translate(-11.21 1.51)" fill="none" stroke="#93278f" stroke-miterlimit="10" stroke-width="2"/><path d="M75.8,35.17c-13.41,10.06-21.42,9.2-28.86,3.11" transform="translate(-11.21 1.51)" fill="none" stroke="#93278f" stroke-miterlimit="10" stroke-width="2"/><path d="M84.92,44.86c-13.41,10-35.14,10.53-42.58,4.44" transform="translate(-11.21 1.51)" fill="none" stroke="#93278f" stroke-miterlimit="10" stroke-width="2"/><path d="M20.27,98.59c19.53,18.14,69.79,21.65,81,37" transform="translate(-11.21 1.51)" fill="none" stroke="#93278f" stroke-miterlimit="10" stroke-width="2"/><path d="M78.74,166.44c-9-7.49-23.38-10.15-29.9-2.78" transform="translate(-11.21 1.51)" fill="none" stroke="#93278f" stroke-miterlimit="10" stroke-width="2"/><path d="M83.27,160.2c-12.44-12.55-30.95-11.5-37.47-4.14" transform="translate(-11.21 1.51)" fill="none" stroke="#93278f" stroke-miterlimit="10" stroke-width="2"/><path d="M131.34,95C111.81,76.84,47.76,77,36.59,61.69" transform="translate(-11.21 1.51)" fill="none" stroke="#93278f" stroke-miterlimit="10" stroke-width="2"/><path d="M131.34,95C111.81,76.84,42.23,89.5,31.07,74.18" transform="translate(-11.21 1.51)" fill="none" stroke="#93278f" stroke-miterlimit="10" stroke-width="2"/><path d="M122.22,106.7c-19.53-18.14-83.55-9.34-94.71-24.65" transform="translate(-11.21 1.51)" fill="none" stroke="#93278f" stroke-miterlimit="10" stroke-width="2"/></g><g id="Overlay"><polygon points="9.06 100.11 45.89 16.81 120.12 95.7 49.63 192.53 9.06 100.11" fill="none" stroke="#ff2f92" stroke-linejoin="round"/><circle cx="9.06" cy="100.11" r="1.74" fill="#ff2f92"/><circle cx="120.12" cy="95.7" r="1.74" fill="#ff2f92"/><circle cx="49.44" cy="192.53" r="1.74" fill="#ff2f92"/><circle cx="45.89" cy="16.81" r="1.74" fill="#ff2f92"/></g><g id="Outline"><g id="Text"><text transform="translate(12.95 49.3)" font-size="12" font-family="Palatino-Italic, Palatino" font-style="italic">b</text><text transform="translate(15.11 153.22)" font-size="12" font-family="Palatino-Italic, Palatino" font-style="italic">c</text><text transform="translate(83.01 44.32)" font-size="12" font-family="Palatino-Italic, Palatino" font-style="italic">a</text><text transform="translate(0 101.85)" font-size="12" font-family="Palatino-Italic, Palatino" font-style="italic">z</text><text transform="translate(45.56 202.72)" font-size="12" font-family="Palatino-Italic, Palatino" font-style="italic">w</text><text transform="translate(123.21 98.37)" font-size="12" font-family="Palatino-Italic, Palatino" font-style="italic">x</text><text transform="translate(101.52 141.24)" font-size="12" font-family="Palatino-Italic, Palatino" font-style="italic">d</text><text transform="translate(38.33 13.69)" font-size="12" font-family="Palatino-Italic, Palatino" font-style="italic">y</text><line x1="9.06" y1="100.11" x2="120.12" y2="95.7" fill="none" stroke="#ff2f92" stroke-miterlimit="10"/><text transform="translate(61.62 106.34)" font-size="12" font-family="Palatino-Italic, Palatino" font-style="italic">e</text><line x1="49.63" y1="192.53" x2="45.89" y2="16.81" fill="none" stroke="#ff2f92" stroke-miterlimit="10"/><text transform="translate(50.16 66.54)" font-size="12" font-family="Palatino-Italic, Palatino" font-style="italic">f</text><text transform="translate(86.56 155.66)" font-size="12" font-family="Palatino-Italic, Palatino" font-style="italic">k</text><text transform="translate(91.42 158.19)" font-size="8" font-family="Palatino-Italic, Palatino" font-style="italic">d</text><text transform="translate(9.31 70.47)" font-size="12" font-family="Palatino-Italic, Palatino" font-style="italic">k</text><text transform="translate(14.46 73.63)" font-size="8" font-family="Palatino-Italic, Palatino" font-style="italic">b</text><polygon points="159.94 96.57 196.77 13.27 271 92.16 200.51 188.99 159.94 96.57" fill="#fff"/><polygon points="159.94 96.57 196.77 13.27 271 92.16 200.51 188.99 159.94 96.57" fill="#ff2f92" opacity="0.35"/><path d="M282.77,90.32c-19.53,18.14-85,24.69-96.14,40" transform="translate(-11.21 1.51)" fill="none" stroke="#93278f" stroke-miterlimit="10" stroke-width="2"/><path d="M252.1,132" transform="translate(-11.21 1.51)" fill="none" stroke="#93278f" stroke-miterlimit="10" stroke-width="2"/><path d="M188.54,55.83" transform="translate(-11.21 1.51)" fill="none" stroke="#93278f" stroke-miterlimit="10" stroke-width="2"/><path d="M226.68,31.63c-13.41,10.06-21.42,9.2-28.86,3.11" transform="translate(-11.21 1.51)" fill="none" stroke="#93278f" stroke-miterlimit="10" stroke-width="2"/><path d="M235.8,41.32c-13.42,10.06-35.14,10.53-42.58,4.44" transform="translate(-11.21 1.51)" fill="none" stroke="#93278f" stroke-miterlimit="10" stroke-width="2"/><path d="M282.77,90.32c-19.53,18.14-90.5,12.1-101.66,27.42" transform="translate(-11.21 1.51)" fill="none" stroke="#93278f" stroke-miterlimit="10" stroke-width="2"/><path d="M229.61,162.9c-9-7.48-23.37-10.14-29.89-2.78" transform="translate(-11.21 1.51)" fill="none" stroke="#93278f" stroke-miterlimit="10" stroke-width="2"/><path d="M234.15,156.67c-12.44-12.56-31-11.51-37.47-4.14" transform="translate(-11.21 1.51)" fill="none" stroke="#93278f" stroke-miterlimit="10" stroke-width="2"/><path d="M282.21,91.44c-19.52-18.14-83.58-18-94.74-33.29" transform="translate(-11.21 1.51)" fill="none" stroke="#93278f" stroke-miterlimit="10" stroke-width="2"/><path d="M282.21,91.44C262.69,73.3,193.11,86,182,70.64" transform="translate(-11.21 1.51)" fill="none" stroke="#93278f" stroke-miterlimit="10" stroke-width="2"/><polygon points="159.94 96.57 196.77 13.27 271 92.16 200.51 188.99 159.94 96.57" fill="none" stroke="#ff2f92" stroke-linejoin="round"/><circle cx="159.94" cy="96.57" r="1.74" fill="#ff2f92"/><circle cx="271" cy="92.16" r="1.74" fill="#ff2f92"/><circle cx="200.31" cy="188.99" r="1.74" fill="#ff2f92"/><circle cx="196.77" cy="13.27" r="1.74" fill="#ff2f92"/><text transform="translate(163.83 45.76)" font-size="12" font-family="Palatino-Italic, Palatino" font-style="italic">b</text><text transform="translate(165.99 149.68)" font-size="12" font-family="Palatino-Italic, Palatino" font-style="italic">c</text><text transform="translate(233.89 40.78)" font-size="12" font-family="Palatino-Italic, Palatino" font-style="italic">a</text><text transform="translate(150.88 98.31)" font-size="12" font-family="Palatino-Italic, Palatino" font-style="italic">z</text><text transform="translate(196.44 199.18)" font-size="12" font-family="Palatino-Italic, Palatino" font-style="italic">w</text><text transform="translate(274.09 94.83)" font-size="12" font-family="Palatino-Italic, Palatino" font-style="italic">x</text><text transform="translate(252.4 137.71)" font-size="12" font-family="Palatino-Italic, Palatino" font-style="italic">d</text><text transform="translate(189.21 10.16)" font-size="12" font-family="Palatino-Italic, Palatino" font-style="italic">y</text><line x1="159.94" y1="96.57" x2="271" y2="92.16" fill="none" stroke="#ff2f92" stroke-miterlimit="10"/><text transform="translate(212.5 102.8)" font-size="12" font-family="Palatino-Italic, Palatino" font-style="italic">e</text><line x1="200.51" y1="188.99" x2="196.77" y2="13.27" fill="none" stroke="#ff2f92" stroke-miterlimit="10"/><text transform="translate(201.04 63)" font-size="12" font-family="Palatino-Italic, Palatino" font-style="italic">f</text><text transform="translate(162.91 132.26)" font-size="12" font-family="Palatino-Italic, Palatino" font-style="italic">k</text><text transform="translate(167.77 134.8)" font-size="8" font-family="Palatino-Italic, Palatino" font-style="italic">c</text><text transform="translate(160.19 66.93)" font-size="12" font-family="Palatino-Italic, Palatino" font-style="italic">k</text><text transform="translate(165.34 70.09)" font-size="8" font-family="Palatino-Italic, Palatino" font-style="italic">b</text><path d="M177.85,110.32c11-12.65,8-25,.57-31.09" transform="translate(-11.21 1.51)" fill="none" stroke="#93278f" stroke-miterlimit="10" stroke-width="2"/><polygon points="301.93 96.57 338.76 13.27 413 92.16 342.5 188.99 301.93 96.57" fill="#fff"/><polygon points="301.93 96.57 338.76 13.27 413 92.16 342.5 188.99 301.93 96.57" fill="#ff2f92" opacity="0.35"/><g id="Layer_6" data-name="Layer 6"><path d="M409.88,110.32c-19.52-18.14-75-23.89-86.15-39.21" transform="translate(-11.21 1.51)" fill="none" stroke="#93278f" stroke-miterlimit="10" stroke-width="2"/></g><path d="M394.09,132" transform="translate(-11.21 1.51)" fill="none" stroke="#93278f" stroke-miterlimit="10" stroke-width="2"/><path d="M330.54,55.83" transform="translate(-11.21 1.51)" fill="none" stroke="#93278f" stroke-miterlimit="10" stroke-width="2"/><path d="M368.68,31.63c-13.42,10.06-21.43,9.2-28.87,3.11" transform="translate(-11.21 1.51)" fill="none" stroke="#93278f" stroke-miterlimit="10" stroke-width="2"/><path d="M377.8,41.32c-13.42,10.06-35.15,10.53-42.59,4.44" transform="translate(-11.21 1.51)" fill="none" stroke="#93278f" stroke-miterlimit="10" stroke-width="2"/><path d="M371.61,162.9c-9-7.48-23.37-10.14-29.9-2.78" transform="translate(-11.21 1.51)" fill="none" stroke="#93278f" stroke-miterlimit="10" stroke-width="2"/><path d="M376.15,156.67c-12.45-12.56-30.95-11.51-37.48-4.14" transform="translate(-11.21 1.51)" fill="none" stroke="#93278f" stroke-miterlimit="10" stroke-width="2"/><path d="M424.21,91.44c-19.53-18.14-81.33-23.06-92.5-38.38" transform="translate(-11.21 1.51)" fill="none" stroke="#93278f" stroke-miterlimit="10" stroke-width="2"/><path d="M424.21,91.44c-19.53-18.14-83-17-97.13-28.76" transform="translate(-11.21 1.51)" fill="none" stroke="#93278f" stroke-miterlimit="10" stroke-width="2"/><polygon points="301.93 96.57 338.76 13.27 413 92.16 342.5 188.99 301.93 96.57" fill="none" stroke="#ff2f92" stroke-linejoin="round"/><circle cx="301.93" cy="96.57" r="1.74" fill="#ff2f92"/><circle cx="413" cy="92.16" r="1.74" fill="#ff2f92"/><circle cx="342.31" cy="188.99" r="1.74" fill="#ff2f92"/><circle cx="338.76" cy="13.27" r="1.74" fill="#ff2f92"/><text transform="translate(301.93 40.78)" font-size="12" font-family="Palatino-Italic, Palatino" font-style="italic">b</text><text transform="translate(307.98 149.68)" font-size="12" font-family="Palatino-Italic, Palatino" font-style="italic">c</text><text transform="translate(375.88 40.78)" font-size="12" font-family="Palatino-Italic, Palatino" font-style="italic">a</text><text transform="translate(292.87 98.31)" font-size="12" font-family="Palatino-Italic, Palatino" font-style="italic">z</text><text transform="translate(338.43 199.18)" font-size="12" font-family="Palatino-Italic, Palatino" font-style="italic">w</text><text transform="translate(416.08 94.83)" font-size="12" font-family="Palatino-Italic, Palatino" font-style="italic">x</text><text transform="translate(394.39 137.71)" font-size="12" font-family="Palatino-Italic, Palatino" font-style="italic">d</text><text transform="translate(331.21 10.16)" font-size="12" font-family="Palatino-Italic, Palatino" font-style="italic">y</text><line x1="301.93" y1="96.57" x2="413" y2="92.16" fill="none" stroke="#ff2f92" stroke-miterlimit="10"/><text transform="translate(354.49 102.8)" font-size="12" font-family="Palatino-Italic, Palatino" font-style="italic">e</text><line x1="342.5" y1="188.99" x2="338.76" y2="13.27" fill="none" stroke="#ff2f92" stroke-miterlimit="10"/><text transform="translate(343.03 63)" font-size="12" font-family="Palatino-Italic, Palatino" font-style="italic">f</text><text transform="translate(307.1 59.2)" font-size="12" font-family="Palatino-Italic, Palatino" font-style="italic">k</text><text transform="translate(312.25 62.36)" font-size="8" font-family="Palatino-Italic, Palatino" font-style="italic">b</text><path d="M319.85,110.32c11-12.65,8-25,.57-31.09" transform="translate(-11.21 1.51)" fill="none" stroke="#93278f" stroke-miterlimit="10" stroke-width="2"/></g></g></svg>