<svg xmlns="http://www.w3.org/2000/svg" viewBox="0 0 133.88 128.04"><title>NormalCoordinateVertexTile</title><g id="Layer_5" data-name="Layer 5"><polygon points="11.73 17.47 122.79 13.06 52.3 109.89 11.73 17.47" fill="#fff"/><polygon points="11.73 17.47 122.79 13.06 52.3 109.89 11.73 17.47" fill="#ff2f92" opacity="0.35"/></g><g id="Curves"><path d="M91.37,19.28c1.76,7.9,11.39,14,24.85,18.29" transform="translate(-8.55 -4.31)" fill="none" stroke="#93278f" stroke-miterlimit="10" stroke-width="2"/><path d="M46,80.45c14.21-5,26.36-1.78,38.2,1.42" transform="translate(-8.55 -4.31)" fill="none" stroke="#93278f" stroke-miterlimit="10" stroke-width="2"/><path d="M51.3,93.05c7.23-3.89,13.93-5.61,24.5.59" transform="translate(-8.55 -4.31)" fill="none" stroke="#93278f" stroke-miterlimit="10" stroke-width="2"/><path d="M87.92,77C70.48,61.92,35.15,34.63,20.27,21.78" transform="translate(-8.55 -4.31)" fill="none" stroke="#93278f" stroke-miterlimit="10" stroke-width="2"/><path d="M104.79,53.83C85,48.38,64.38,32.28,64.38,20" transform="translate(-8.55 -4.31)" fill="none" stroke="#93278f" stroke-miterlimit="10" stroke-width="2"/><path d="M97,64.56C73.91,53.83,35.15,34.63,20.27,21.78" transform="translate(-8.55 -4.31)" fill="none" stroke="#93278f" stroke-miterlimit="10" stroke-width="2"/></g><g id="Overlay"><polygon points="11.73 17.47 122.79 13.06 52.3 109.89 11.73 17.47" fill="none" stroke="#ff2f92" stroke-linejoin="round"/><circle cx="11.73" cy="17.47" r="1.74" fill="#ff2f92"/><circle cx="122.79" cy="13.06" r="1.74" fill="#ff2f92"/><circle cx="52.1" cy="109.89" r="1.74" fill="#ff2f92"/></g><g id="Text"><text transform="translate(55.01 10.16)" font-size="12" font-family="Palatino-Italic, Palatino" font-style="italic">b</text><text transform="translate(17.78 70.58)" font-size="12" font-family="Palatino-Italic, Palatino" font-style="italic">c</text><text transform="translate(91.13 68.95)" font-size="12" font-family="Palatino-Italic, Palatino" font-style="italic">a</text><text transform="translate(0.01 17.47)" font-size="12" font-family="Palatino-Italic, Palatino" font-style="italic" letter-spacing="-0.04em">A</text><text transform="translate(48.56 122.41)" font-size="12" font-family="Palatino-Italic, Palatino" font-style="italic">B</text><text transform="translate(125.87 13.06)" font-size="12" font-family="Palatino-Italic, Palatino" font-style="italic">C</text></g></svg>