<svg xmlns="http://www.w3.org/2000/svg" viewBox="0 0 267.07 218.32"><title>NormalCoordinates</title><g id="Layer_5" data-name="Layer 5"><polygon points="1.74 25.32 112.8 20.91 209.54 10.16 254.95 85.74 260.81 186.91 128.76 210.94 42.31 117.74 1.74 25.32" fill="#fff"/><polygon points="1.74 25.32 112.8 20.91 209.54 10.16 254.95 85.74 260.81 186.91 128.76 210.94 42.31 117.74 1.74 25.32" fill="#ff2f92" opacity="0.35"/></g><g id="Curves"><path d="M42.28,110.11c13.92-3,23.56-7,37.86,3.47s10,25.06,15,42.05c5.61,19,21.24,48.22,51.17,47.22s79.89-20.62,86.54-36.25,12.22-39.82,1.91-59.81.63-41.62,5.95-47.61" transform="translate(-7.89 -10.42)" fill="none" stroke="#93278f" stroke-miterlimit="10" stroke-width="2"/><path d="M25.46,71.79c15-7.11,43.7,1.87,62,4.89,18.6,3.07,28.63-8.18,44.87-16.16s28.93-12,30.6-33.92" transform="translate(-7.89 -10.42)" fill="none" stroke="#93278f" stroke-miterlimit="10" stroke-width="2"/><path d="M72.49,33.25C75.82,48.13,127,67.84,141,28.94" transform="translate(-7.89 -10.42)" fill="none" stroke="#93278f" stroke-miterlimit="10" stroke-width="2"/><path d="M35.39,94.42c29.46-10.29,50.07,14.42,77.34,1.74s43.9-46.28,70.83-47.94,35.13,14.63,50.49,0" transform="translate(-7.89 -10.42)" fill="none" stroke="#93278f" stroke-miterlimit="10" stroke-width="2"/><path d="M198,113.58c0,17,3.44,31.12-30.73,51.36-28.06,16.63-30.73-34.39-30.73-51.36a30.73,30.73,0,0,1,61.46,0Z" transform="translate(-7.89 -10.42)" fill="none" stroke="#93278f" stroke-miterlimit="10" stroke-width="2"/><path d="M267,168.23c-20.61,1.37-31.91,17-35.23,36" transform="translate(-7.89 -10.42)" fill="none" stroke="#93278f" stroke-miterlimit="10" stroke-width="2"/><path d="M253,79.75c-7.57,12.7-6.78,29.67,11.11,38" transform="translate(-7.89 -10.42)" fill="none" stroke="#93278f" stroke-miterlimit="10" stroke-width="2"/></g><g id="Overlay"><polygon points="1.74 25.32 112.8 20.91 42.31 117.74 1.74 25.32" fill="none" stroke="#ff2f92" stroke-linejoin="round"/><circle cx="1.74" cy="25.33" r="1.74" fill="#ff2f92"/><circle cx="112.8" cy="20.91" r="1.74" fill="#ff2f92"/><circle cx="42.11" cy="117.74" r="1.74" fill="#ff2f92"/><polygon points="161.07 101.43 112.6 20.91 42.11 117.74 161.07 101.43" fill="none" stroke="#ff2f92" stroke-linejoin="round"/><polygon points="161.07 101.43 112.6 20.77 209.54 10.16 161.07 101.43" fill="none" stroke="#ff2f92" stroke-linejoin="round"/><polygon points="161.07 101.43 128.78 210.94 42.11 117.6 161.07 101.43" fill="none" stroke="#ff2f92" stroke-linejoin="round"/><polygon points="161.07 101.43 128.76 210.94 261.07 187.08 161.07 101.43" fill="none" stroke="#ff2f92" stroke-linejoin="round"/><polygon points="161.07 101.43 254.95 85.74 260.81 186.91 161.07 101.43" fill="none" stroke="#ff2f92" stroke-linejoin="round"/><polygon points="161.07 101.43 255.22 85.91 209.54 10.16 161.07 101.43" fill="none" stroke="#ff2f92" stroke-linejoin="round"/><circle cx="209.55" cy="10.16" r="1.74" fill="#ff2f92"/><circle cx="161.07" cy="101.43" r="1.74" fill="#ff2f92"/><circle cx="255.22" cy="85.74" r="1.74" fill="#ff2f92"/><circle cx="260.81" cy="186.91" r="1.74" fill="#ff2f92"/><circle cx="128.76" cy="210.94" r="1.74" fill="#ff2f92"/></g><g id="Text"><text transform="translate(50.76 19.17)" font-size="12" font-family="Palatino-Italic, Palatino" font-style="italic">1</text><text transform="translate(12.28 79.47)" font-size="12" font-family="Palatino-Italic, Palatino" font-style="italic">3</text><text transform="translate(78.45 79.47)" font-size="12" font-family="Palatino-Italic, Palatino" font-style="italic">4</text><text transform="translate(76.13 172.58)" font-size="12" font-family="Palatino-Italic, Palatino" font-style="italic">0</text><text transform="translate(190.16 212.68)" font-size="12" font-family="Palatino-Italic, Palatino" font-style="italic">1</text><text transform="translate(143.63 175.8)" font-size="12" font-family="Palatino-Italic, Palatino" font-style="italic">2</text><text transform="translate(107.38 120.61)" font-size="12" font-family="Palatino-Italic, Palatino" font-style="italic">2</text><text transform="translate(145.65 69.33)" font-size="12" font-family="Palatino-Italic, Palatino" font-style="italic">4</text><text transform="translate(188.52 60.18)" font-size="12" font-family="Palatino-Italic, Palatino" font-style="italic">2</text><text transform="translate(206.15 136.32)" font-size="12" font-family="Palatino-Italic, Palatino" font-style="italic">3</text><text transform="translate(203.49 91.77)" font-size="12" font-family="Palatino-Italic, Palatino" font-style="italic">3</text><text transform="translate(162.81 10.16)" font-size="12" font-family="Palatino-Italic, Palatino" font-style="italic">2</text><text transform="translate(235.41 45.21)" font-size="12" font-family="Palatino-Italic, Palatino" font-style="italic">3</text><text transform="translate(261.07 136.32)" font-size="12" font-family="Palatino-Italic, Palatino" font-style="italic">2</text></g></svg>