<svg xmlns="http://www.w3.org/2000/svg" viewBox="0 0 373.62 109.3"><title>NormalCoordinateFlip</title><g id="Layer_5" data-name="Layer 5"><polygon points="1.74 48.96 83.7 1.74 169.51 54.28 68.73 104.3 1.74 48.96" fill="#fff"/><polygon points="1.74 48.96 83.7 1.74 169.51 54.28 68.74 104.3 1.74 48.96" fill="#ff2f92" opacity="0.35"/></g><g id="Curves"><path d="M42.91,40.66c7.15,15.71,67.84,28.18,84,49.24" transform="translate(-9.58 -9.9)" fill="none" stroke="#93278f" stroke-miterlimit="10" stroke-width="2"/><path d="M74.34,22.55c4.87,7.07,30.76,9.71,41.28,2.7" transform="translate(-9.58 -9.9)" fill="none" stroke="#93278f" stroke-miterlimit="10" stroke-width="2"/><path d="M57.33,96.86C70,82.8,97,87.38,108.26,99.11" transform="translate(-9.58 -9.9)" fill="none" stroke="#93278f" stroke-miterlimit="10" stroke-width="2"/><path d="M64.41,102.71c7.23-3.89,18.28-7.6,31.45,2.52" transform="translate(-9.58 -9.9)" fill="none" stroke="#93278f" stroke-miterlimit="10" stroke-width="2"/><path d="M27.32,72.07C36.78,65.29,37.76,56,34.51,45.5" transform="translate(-9.58 -9.9)" fill="none" stroke="#93278f" stroke-miterlimit="10" stroke-width="2"/><path d="M119.92,27.89c-8.84,12-42.76,9.69-51.5-1.93" transform="translate(-9.58 -9.9)" fill="none" stroke="#93278f" stroke-miterlimit="10" stroke-width="2"/><path d="M51.52,35.7C58.66,51.41,119.79,64.38,136,85.44" transform="translate(-9.58 -9.9)" fill="none" stroke="#93278f" stroke-miterlimit="10" stroke-width="2"/><path d="M128.6,33.27C117,47.11,76.44,50.66,60.51,30.52" transform="translate(-9.58 -9.9)" fill="none" stroke="#93278f" stroke-miterlimit="10" stroke-width="2"/><path d="M154.52,76.3c-4.78-9.4-5.36-17.51,0-27.16" transform="translate(-9.58 -9.9)" fill="none" stroke="#93278f" stroke-miterlimit="10" stroke-width="2"/><path d="M161.25,73a23.31,23.31,0,0,1,0-19.56" transform="translate(-9.58 -9.9)" fill="none" stroke="#93278f" stroke-miterlimit="10" stroke-width="2"/></g><g id="Overlay"><polygon points="1.74 48.96 83.7 1.74 68.73 104.3 1.74 48.96" fill="none" stroke="#ff2f92" stroke-linejoin="round"/><circle cx="1.74" cy="48.89" r="1.74" fill="#ff2f92"/><circle cx="83.7" cy="1.74" r="1.74" fill="#ff2f92"/><circle cx="68.54" cy="104.3" r="1.74" fill="#ff2f92"/><circle cx="169.51" cy="54.54" r="1.74" fill="#ff2f92"/><polygon points="169.51 54.28 83.5 1.52 68.54 104.08 169.51 54.28" fill="none" stroke="#ff2f92" stroke-linejoin="round"/></g><g id="Text"><text transform="translate(23.34 18.53)" font-size="12" font-family="Palatino-Italic, Palatino" font-style="italic">b = 6</text><text transform="translate(18.92 92.48)" font-size="12" font-family="Palatino-Italic, Palatino" font-style="italic">c = 3</text><text transform="translate(124.86 19.91)" font-size="12" font-family="Palatino-Italic, Palatino" font-style="italic">a = 5</text><text transform="translate(115.19 91.68)" font-size="12" font-family="Palatino-Italic, Palatino" font-style="italic">d = 6</text><text transform="translate(62.76 73.72)" font-size="12" font-family="Palatino-Italic, Palatino" font-style="italic">e = 7</text><polygon points="204.12 52.22 286.07 5 371.88 57.54 271.11 107.56 204.12 52.22" fill="#fff"/><polygon points="204.12 52.22 286.07 5 371.88 57.54 271.11 107.56 204.12 52.22" fill="#ff2f92" opacity="0.35"/><path d="M245.29,43.92c7.15,15.71,67.84,28.18,84,49.25" transform="translate(-9.58 -9.9)" fill="none" stroke="#93278f" stroke-miterlimit="10" stroke-width="2"/><path d="M276.72,25.81c4.87,7.07,30.75,9.71,41.28,2.7" transform="translate(-9.58 -9.9)" fill="none" stroke="#93278f" stroke-miterlimit="10" stroke-width="2"/><path d="M259.71,100.12c12.68-14.05,39.62-9.48,50.93,2.26" transform="translate(-9.58 -9.9)" fill="none" stroke="#93278f" stroke-miterlimit="10" stroke-width="2"/><path d="M266.79,106c7.22-3.88,18.28-7.6,31.45,2.52" transform="translate(-9.58 -9.9)" fill="none" stroke="#93278f" stroke-miterlimit="10" stroke-width="2"/><path d="M229.69,75.34c9.47-6.79,10.44-16.1,7.19-26.58" transform="translate(-9.58 -9.9)" fill="none" stroke="#93278f" stroke-miterlimit="10" stroke-width="2"/><path d="M322.3,31.15c-8.84,12-42.76,9.69-51.5-1.93" transform="translate(-9.58 -9.9)" fill="none" stroke="#93278f" stroke-miterlimit="10" stroke-width="2"/><path d="M253.89,39c7.15,15.71,68.28,28.68,84.46,49.75" transform="translate(-9.58 -9.9)" fill="none" stroke="#93278f" stroke-miterlimit="10" stroke-width="2"/><path d="M331,36.53c-11.59,13.85-52.16,17.39-68.09-2.75" transform="translate(-9.58 -9.9)" fill="none" stroke="#93278f" stroke-miterlimit="10" stroke-width="2"/><path d="M356.9,79.56c-4.79-9.4-5.37-17.5,0-27.16" transform="translate(-9.58 -9.9)" fill="none" stroke="#93278f" stroke-miterlimit="10" stroke-width="2"/><path d="M363.63,76.29a23.25,23.25,0,0,1,0-19.55" transform="translate(-9.58 -9.9)" fill="none" stroke="#93278f" stroke-miterlimit="10" stroke-width="2"/><polyline points="271.11 107.56 204.12 52.22 286.07 5" fill="none" stroke="#ff2f92" stroke-linejoin="round"/><circle cx="204.12" cy="52.16" r="1.74" fill="#ff2f92"/><circle cx="286.07" cy="5" r="1.74" fill="#ff2f92"/><circle cx="270.92" cy="107.56" r="1.74" fill="#ff2f92"/><circle cx="371.88" cy="57.8" r="1.74" fill="#ff2f92"/><polyline points="270.92 107.34 371.88 57.54 285.88 4.79" fill="none" stroke="#ff2f92" stroke-linejoin="round"/><line x1="204.12" y1="52.16" x2="371.88" y2="57.54" fill="none" stroke="#ff2f92" stroke-linejoin="round"/><text transform="translate(301.06 54.28)" font-size="12" font-family="Palatino-Italic, Palatino" font-style="italic">f = 5</text><text transform="translate(224.11 22.57)" font-size="12" font-family="Palatino-Italic, Palatino" font-style="italic">b = 6</text><text transform="translate(219.69 96.52)" font-size="12" font-family="Palatino-Italic, Palatino" font-style="italic">c = 3</text><text transform="translate(325.63 23.95)" font-size="12" font-family="Palatino-Italic, Palatino" font-style="italic">a = 5</text><text transform="translate(315.96 95.72)" font-size="12" font-family="Palatino-Italic, Palatino" font-style="italic">d = 6</text></g></svg>