<?xml version="1.0" encoding="utf-8"?>
<!-- Generator: Adobe Illustrator 27.2.0, SVG Export Plug-In . SVG Version: 6.00 Build 0)  -->
<svg version="1.1" id="Layer_1" xmlns="http://www.w3.org/2000/svg" xmlns:xlink="http://www.w3.org/1999/xlink" x="0px" y="0px"
	 viewBox="0 0 161.5 52.3" style="enable-background:new 0 0 161.5 52.3;" xml:space="preserve">
<style type="text/css">
	.st0{fill:#FFFFFF;}
	.st1{opacity:0.35;fill:#FF2F92;}
	.st2{fill:none;stroke:#FF2F92;stroke-miterlimit:10;}
</style>
<rect x="9.7" y="4" class="st0" width="30.4" height="35.8"/>
<rect x="80.1" y="7.8" class="st0" width="69.6" height="28"/>
<rect x="9.7" y="4" class="st1" width="30.4" height="35.8"/>
<rect x="9.7" y="4" class="st2" width="30.4" height="35.8"/>
<rect x="80.1" y="7.8" class="st1" width="69.6" height="28"/>
<rect x="80.1" y="7.8" class="st2" width="69.6" height="28"/>
<path d="M25.5,45.6c-0.4,0.8-1.1,1.6-1.4,1.6c-0.3,0-0.4-0.4-0.4-0.9c0-1,0.7-2.4,1.6-2.4c0.2,0,0.4,0.1,0.6,0.2
	C25.8,44.1,25.7,45,25.5,45.6 M26,43.7c-0.2,0-0.4-0.1-0.7-0.1c-1,0-2.3,1.4-2.3,2.8c0,0.5,0.1,1.2,0.9,1.2c0.5,0,1-0.5,1.5-1.3l0,0
	l-0.1,0.4c-0.1,0.2-0.1,0.4-0.1,0.5c0,0.2,0.1,0.4,0.4,0.4c0.6,0,0.9-0.4,1.2-0.9c0-0.1-0.1-0.1-0.2-0.1c-0.2,0.3-0.4,0.5-0.5,0.5
	c0,0-0.1,0-0.1-0.1c0-0.1,0.1-0.3,0.1-0.5l0.6-2.8C26.4,43.7,26.1,43.7,26,43.7z"/>
<g>
	<path d="M111.5,43.6c-0.4,0.8-1.1,1.6-1.4,1.6c-0.3,0-0.4-0.4-0.4-0.9c0-1,0.7-2.4,1.6-2.4c0.2,0,0.4,0.1,0.6,0.2
		C111.8,42,111.8,43,111.5,43.6 M112,41.6c-0.2,0-0.4-0.1-0.7-0.1c-1,0-2.3,1.4-2.3,2.8c0,0.5,0.1,1.2,0.9,1.2c0.5,0,1-0.5,1.5-1.3
		l0,0l-0.1,0.4c-0.1,0.2-0.1,0.4-0.1,0.5c0,0.2,0.1,0.4,0.4,0.4c0.6,0,0.9-0.4,1.2-0.9c0-0.1-0.1-0.1-0.2-0.1
		c-0.2,0.3-0.4,0.5-0.5,0.5c0,0-0.1,0-0.1-0.1c0-0.1,0.1-0.3,0.1-0.5l0.6-2.8C112.4,41.7,112.2,41.7,112,41.6z"/>
	<path d="M114.9,39.1c0-0.2-0.2-0.4-0.4-0.4c-0.2,0-0.4,0.2-0.4,0.4l-0.7,2c0,0.1-0.1,0.2-0.1,0.2c0,0.1,0,0.1,0.1,0.1
		c0.1,0,0.2-0.1,0.3-0.2l1.1-1.7C114.8,39.5,114.9,39.3,114.9,39.1"/>
</g>
<path d="M4.9,22.2c0,1.3-1.1,2.5-1.8,2.5c-0.3,0-0.4-0.4-0.2-1l0.3-1.3c0.4-0.5,0.8-1,1.3-1C4.7,21.4,4.9,21.6,4.9,22.2 M3.7,19.7
	C3.9,19.1,4,18.8,4,18.8c0-0.1,0-0.1-0.1-0.1c-0.2,0.1-0.9,0.2-1.3,0.2l0,0.2c0,0,0,0,0,0l0.3,0c0.1,0,0.2,0.1,0.2,0.3
	c0,0.1,0,0.3-0.1,0.5L2.1,24C2,24.6,2.2,25,3,25c0.3,0,0.6-0.1,0.9-0.3c0.8-0.6,1.6-1.7,1.6-2.6c0-0.6-0.1-1.1-0.9-1.1
	c-0.6,0-1.1,0.6-1.4,0.9l0,0L3.7,19.7z"/>
<g>
	<path d="M157.2,20.8c0,1.3-1.1,2.5-1.8,2.5c-0.3,0-0.4-0.4-0.2-1l0.3-1.3c0.4-0.5,0.8-1,1.3-1C157,19.9,157.2,20.2,157.2,20.8
		 M156.1,18.2c0.1-0.6,0.2-0.9,0.2-0.9c0-0.1,0-0.1-0.1-0.1c-0.2,0.1-0.9,0.2-1.3,0.2l0,0.2c0,0,0,0,0,0l0.3,0
		c0.1,0,0.2,0.1,0.2,0.3c0,0.1,0,0.3-0.1,0.5l-0.9,4.1c-0.1,0.6,0.1,1,0.9,1c0.3,0,0.6-0.1,0.9-0.3c0.8-0.6,1.7-1.7,1.7-2.6
		c0-0.6-0.1-1.1-0.9-1.1c-0.6,0-1.1,0.6-1.4,0.9l0,0L156.1,18.2z"/>
	<path d="M160.4,17.1c0-0.2-0.2-0.4-0.4-0.4c-0.2,0-0.4,0.2-0.4,0.4l-0.7,2c0,0.1-0.1,0.2-0.1,0.2c0,0.1,0,0.1,0.1,0.1
		c0.1,0,0.2-0.1,0.3-0.2l1.1-1.7C160.3,17.4,160.4,17.2,160.4,17.1"/>
</g>
<path d="M58.9,11.5c-0.2,1-0.3,1.6-0.4,2.2c-0.1,0.9-0.3,2.3-0.6,2.8c-0.1,0.2-0.3,0.3-0.4,0.3c-0.1,0-0.2-0.1-0.3-0.2
	c-0.1-0.1-0.2-0.3-0.4-0.3c-0.3,0-0.3,0.2-0.3,0.3c0,0.2,0.2,0.4,0.8,0.4c0.4,0,0.8-0.2,1-0.6c0.3-0.4,0.5-1,0.8-2.8
	c0.1-0.7,0.3-1.4,0.4-2.2l0-0.2h0.8c0.1,0,0.2,0,0.2-0.1c0,0,0-0.2,0-0.2c0,0,0,0-0.1,0h-1l0.1-0.5c0.1-0.3,0.2-0.6,0.3-0.9
	C60.3,9.2,60.6,9,60.8,9c0.2,0,0.3,0,0.4,0.2c0,0.2,0.1,0.4,0.4,0.4c0.3,0,0.3-0.2,0.3-0.3c0-0.4-0.4-0.7-1-0.7
	c-0.3,0-0.8,0.1-1.2,0.6c-0.3,0.4-0.5,1.1-0.7,1.8l-0.6,0c-0.2,0-0.2,0.1-0.3,0.2c0,0,0,0.1,0,0.2c0,0,0,0,0.1,0H58.9"/>
<g>
	<g>
		<path d="M74.8,21.9c-10.9-2.5-22.3-2.9-33.3-1.3c11-2,22.5-1.8,33.5,0.4L74.8,21.9z"/>
		<g>
			<polygon points="78.7,22.3 73.8,18.9 74.6,21.4 72.8,23.3 			"/>
		</g>
	</g>
</g>
</svg>
