<?xml version="1.0" encoding="utf-8"?>
<!-- Generator: Adobe Illustrator 27.2.0, SVG Export Plug-In . SVG Version: 6.00 Build 0)  -->
<svg version="1.1" id="Layer_1" xmlns="http://www.w3.org/2000/svg" xmlns:xlink="http://www.w3.org/1999/xlink" x="0px" y="0px"
	 viewBox="0 0 161.5 178.4" style="enable-background:new 0 0 161.5 178.4;" xml:space="preserve">
<style type="text/css">
	.st0{fill:#FFFFFF;}
	.st1{opacity:0.25;fill:#FF2F92;}
	.st2{fill:none;stroke:#FF2F92;stroke-miterlimit:10;}
	.st3{opacity:0;fill:none;stroke:#000000;stroke-width:1.000000e-06;stroke-miterlimit:10;}
	.st4{opacity:0.15;fill:#FF2F92;}
	.st5{opacity:0.5;}
	.st6{clip-path:url(#SVGID_00000162329882513693385460000002645138121128431025_);}
	.st7{fill:none;stroke:#FFFFFF;stroke-linejoin:round;stroke-miterlimit:10;}
	.st8{fill:#FF2F92;}
	.st9{fill:#FFFFFF;stroke:#FF2F92;stroke-miterlimit:10;}
	
		.st10{opacity:0.25;clip-path:url(#SVGID_00000091010821102137439440000008643190441117954233_);fill:#FF2F92;enable-background:new    ;}
	.st11{opacity:0.65;}
</style>
<polygon class="st0" points="105.2,166.7 136.1,119.3 56.3,119.3 25.4,166.7 "/>
<polygon class="st1" points="105.2,166.7 136.1,119.3 56.3,119.3 25.4,166.7 "/>
<polygon class="st2" points="105.2,166.7 136.1,119.3 56.3,119.3 25.4,166.7 "/>
<polygon class="st3" points="91.2,-6.7 91.2,-6.7 91.2,-6.7 91.2,-6.7 91.2,-6.7 91.2,-6.7 91.2,-6.7 91.2,-6.7 91.2,-6.7 
	91.2,-6.7 91.2,-6.7 91.2,-6.7 91.2,-6.7 91.2,-6.7 91.2,-6.7 91.2,-6.7 91.2,-6.7 91.2,-6.7 91.2,-6.7 91.2,-6.7 91.2,-6.7 
	91.2,-6.7 91.2,-6.7 91.2,-6.7 91.2,-6.7 91.2,-6.7 91.2,-6.7 91.2,-6.7 91.2,-6.7 91.2,-6.7 91.2,-6.7 91.2,-6.7 91.2,-6.7 
	91.2,-6.7 91.2,-6.7 91.2,-6.7 91.2,-6.7 91.2,-6.7 91.2,-6.7 91.2,-6.7 91.2,-6.7 91.2,-6.7 91.2,-6.7 91.2,-6.7 91.2,-6.7 
	91.2,-6.7 91.2,-6.7 91.2,-6.7 91.2,-6.7 91.2,-6.7 91.2,-6.7 91.2,-6.7 91.2,-6.7 91.2,-6.7 91.2,-6.7 91.2,-6.7 91.2,-6.7 
	91.2,-6.7 91.2,-6.7 91.2,-6.7 91.2,-6.7 91.2,-6.7 91.2,-6.7 91.2,-6.7 91.2,-6.7 91.2,-6.7 91.2,-6.7 91.2,-6.7 91.2,-6.7 
	91.2,-6.7 91.2,-6.7 91.2,-6.7 91.2,-6.7 91.2,-6.7 91.2,-6.7 91.2,-6.7 91.2,-6.7 91.2,-6.7 91.2,-6.7 91.2,-6.7 91.2,-6.7 
	91.2,-6.7 91.2,-6.7 91.2,-6.7 91.2,-6.7 91.2,-6.7 91.2,-6.7 91.2,-6.7 91.2,-6.7 91.2,-6.7 91.2,-6.7 91.2,-6.7 91.2,-6.7 
	91.2,-6.7 "/>
<path class="st3" d="M91.7-6.9L91.7-6.9z"/>
<g>
	<g>
		<rect x="4.2" y="2.6" class="st0" width="153.2" height="104.9"/>
		<rect x="4.2" y="2.6" class="st4" width="153.2" height="104.9"/>
	</g>
	<g class="st5">
		<defs>
			<rect id="SVGID_1_" x="4.2" y="2.6" class="st5" width="153.2" height="104.9"/>
		</defs>
		<clipPath id="SVGID_00000103951461053828383320000004158122899651668101_">
			<use xlink:href="#SVGID_1_"  style="overflow:visible;"/>
		</clipPath>
		<g style="clip-path:url(#SVGID_00000103951461053828383320000004158122899651668101_);">
			<line class="st2" x1="208.4" y1="12.3" x2="-56.5" y2="102.4"/>
			<line class="st2" x1="213.2" y1="26.5" x2="-51.7" y2="116.5"/>
			<line class="st2" x1="203.6" y1="-1.8" x2="-61.3" y2="88.2"/>
			<line class="st2" x1="198.8" y1="-16" x2="-66.1" y2="74"/>
			<line class="st2" x1="193.9" y1="-30.2" x2="-70.9" y2="59.9"/>
			<line class="st2" x1="189.1" y1="-44.3" x2="-75.7" y2="45.7"/>
			<line class="st2" x1="184.3" y1="-58.5" x2="-80.6" y2="31.5"/>
			<line class="st2" x1="179.5" y1="-72.7" x2="-85.4" y2="17.3"/>
			<line class="st2" x1="174.7" y1="-86.8" x2="-90.2" y2="3.2"/>
			<line class="st2" x1="218" y1="40.7" x2="-46.9" y2="130.7"/>
			<line class="st2" x1="222.8" y1="54.9" x2="-42" y2="144.9"/>
			<line class="st2" x1="227.6" y1="69" x2="-37.2" y2="159"/>
			<line class="st2" x1="232.5" y1="83.2" x2="-32.4" y2="173.2"/>
			<line class="st2" x1="237.3" y1="97.4" x2="-27.6" y2="187.4"/>
			<line class="st2" x1="246.9" y1="125.7" x2="-18" y2="215.7"/>
			<line class="st2" x1="251.7" y1="139.9" x2="-13.2" y2="229.9"/>
			<line class="st2" x1="242.1" y1="111.5" x2="-22.8" y2="201.5"/>
		</g>
	</g>
	<path d="M148.2,8.1c0,1-1,1.1-1.8,1.1v-2c0-0.2,0.1-0.2,0.2-0.2C147.4,7.1,148.2,7.2,148.2,8.1 M148.4,8.1c0-1-0.8-1.3-1.6-1.3
		c-0.3,0-0.7,0-0.7,0.4v2.3C147.1,9.5,148.4,9.5,148.4,8.1z M149.8,12.3h-0.9l-2.1-2.7l-0.7,0v1.8c0,0.3,0,0.7,0.4,0.8h-1.3
		c0.3-0.1,0.4-0.5,0.4-0.8V7.6c0-0.3,0-0.7-0.4-0.8h1.9c0.9,0,2.1,0.3,2.1,1.4c0,1-0.9,1.2-1.7,1.4l1.9,2.4
		C149.5,12.1,149.6,12.2,149.8,12.3z M150.3,12.5v-0.4c-0.3,0-0.6-0.1-0.8-0.4l-1.7-2c0.8-0.2,1.5-0.6,1.5-1.5
		c0-1.3-1.3-1.6-2.3-1.6h-2.5v0.4c0.6,0,0.7,0,0.7,0.7v3.8c0,0.7-0.1,0.7-0.7,0.8v0.4h2.7v-0.4c-0.6,0-0.8,0-0.8-0.7V9.9l0.3,0
		l2.1,2.7H150.3z"/>
	<path d="M154.2,4.6C154.2,4.5,154.2,4.5,154.2,4.6c-0.1,0-0.2,0-0.4,0h-1.7c-0.3,0-0.5,0-0.9,0l0,0l0,0.1c0,0,0,0,0,0l0.2,0
		c0.2,0,0.3,0.1,0.3,0.2c0,0,0,0.1,0,0.1l-0.7,3.3c0,0.2-0.1,0.3-0.4,0.3l-0.2,0c0,0-0.1,0-0.1,0l0,0.1l0,0c0.3,0,0.6,0,0.9,0h1.5
		c0.3,0,0.9,0,0.9,0c0.1-0.3,0.3-0.8,0.5-1.1l-0.2,0c-0.2,0.5-0.6,0.9-1.1,0.9h-0.9c-0.1,0-0.2,0-0.2-0.2c0,0,0,0,0-0.1l0.4-1.6h0.8
		c0.2,0,0.3,0,0.3,0.2v0.1l0,0.2c0,0,0,0.1,0,0.1h0.2l0,0c0-0.3,0.1-0.5,0.1-0.6c0-0.1,0.1-0.3,0.2-0.6l0,0h-0.1c0,0-0.1,0-0.1,0.1
		l-0.1,0.2c-0.1,0.2-0.2,0.3-0.4,0.3h-0.9l0.3-1.4c0-0.2,0.1-0.2,0.3-0.2h0.7c0.5,0,0.6,0.3,0.6,0.7l0.2,0
		C154.2,5.2,154.2,4.6,154.2,4.6"/>
	<g>
		<g>
			<path class="st7" d="M39.7,36.3c-0.3-0.2-0.5-0.6-0.6-0.9c-0.3-0.8-0.2-1.5,0.1-2.1c0.2-0.5,0.7-0.9,1-1c0.9-0.3,1.1,0.2,1.2,0.5
				c0.1,0.2-0.1,0.5-0.3,0.5c-0.1,0-0.3-0.1-0.3-0.2c0-0.1,0-0.1,0-0.2c0-0.1,0-0.1,0-0.2c-0.1-0.3-0.3-0.2-0.5-0.2
				c-0.7,0.2-1,1.2-0.6,2.4c0.2,0.5,0.3,0.7,0.5,0.8c0.2,0.1,0.4,0.1,0.5,0.1c0.5-0.2,0.7-0.5,0.9-1c0.1,0,0.2,0,0.2,0.1
				c-0.2,0.7-0.6,1.3-1.2,1.5C40.3,36.5,39.9,36.4,39.7,36.3z"/>
			<path class="st8" d="M39.7,36.3c-0.3-0.2-0.5-0.6-0.6-0.9c-0.3-0.8-0.2-1.5,0.1-2.1c0.2-0.5,0.7-0.9,1-1c0.9-0.3,1.1,0.2,1.2,0.5
				c0.1,0.2-0.1,0.5-0.3,0.5c-0.1,0-0.3-0.1-0.3-0.2c0-0.1,0-0.1,0-0.2c0-0.1,0-0.1,0-0.2c-0.1-0.3-0.3-0.2-0.5-0.2
				c-0.7,0.2-1,1.2-0.6,2.4c0.2,0.5,0.3,0.7,0.5,0.8c0.2,0.1,0.4,0.1,0.5,0.1c0.5-0.2,0.7-0.5,0.9-1c0.1,0,0.2,0,0.2,0.1
				c-0.2,0.7-0.6,1.3-1.2,1.5C40.3,36.5,39.9,36.4,39.7,36.3z"/>
		</g>
		<g>
			<path class="st7" d="M43.6,31.1c1-0.4,1.5,0.4,1.7,1c0.3,1,0.1,2.1-0.5,2.7c-0.2,0.2-0.5,0.3-0.7,0.4c-1.1,0.4-1.5-0.6-1.7-1.1
				C42,33.1,42.2,31.6,43.6,31.1z M44.1,34.9c0.3-0.1,0.6-0.4,0.7-0.8c0.1-0.6,0-1.3-0.2-1.7c-0.1-0.3-0.2-0.6-0.4-0.7
				c-0.2-0.2-0.4-0.3-0.6-0.2c-0.9,0.3-0.8,1.7-0.6,2.4C43.3,34.8,43.8,35,44.1,34.9z"/>
			<path class="st8" d="M43.6,31.1c1-0.4,1.5,0.4,1.7,1c0.3,1,0.1,2.1-0.5,2.7c-0.2,0.2-0.5,0.3-0.7,0.4c-1.1,0.4-1.5-0.6-1.7-1.1
				C42,33.1,42.2,31.6,43.6,31.1z M44.1,34.9c0.3-0.1,0.6-0.4,0.7-0.8c0.1-0.6,0-1.3-0.2-1.7c-0.1-0.3-0.2-0.6-0.4-0.7
				c-0.2-0.2-0.4-0.3-0.6-0.2c-0.9,0.3-0.8,1.7-0.6,2.4C43.3,34.8,43.8,35,44.1,34.9z"/>
		</g>
		<g>
			<path class="st7" d="M49.4,32.7c0,0.1,0.1,0.1,0.1,0.1c0.1,0,0.3-0.3,0.4-0.6c0.1,0,0.2,0,0.2,0.1c-0.2,0.6-0.5,1.1-0.9,1.2
				c-0.3,0.1-0.4,0-0.4-0.2c-0.1-0.2-0.1-0.5-0.1-0.8L48.5,31c0-0.3-0.1-0.5-0.1-0.6c-0.1-0.3-0.2-0.3-0.4-0.2
				c-0.3,0.1-0.6,0.8-0.9,1.6l0.2,1.5c0,0.3,0.2,0.7-0.2,0.8c-0.3,0.1-0.4,0-0.4-0.1c0-0.1,0-0.3-0.1-0.5l-0.2-2.3
				c0-0.3,0-0.4-0.1-0.5c0-0.1-0.1-0.1-0.2-0.1l-0.3,0.1c-0.1-0.1-0.1-0.1-0.1-0.2c0.4-0.2,0.8-0.4,1-0.5c0.1,0,0.2,0,0.2,0.1
				c0,0.1,0.1,0.5,0.1,0.9l0,0.1l0,0c0.5-1.2,0.8-1.5,1.2-1.6c0.3-0.1,0.6,0,0.8,0.5c0.1,0.2,0.1,0.4,0.1,0.7l0.1,1.5
				C49.3,32.4,49.3,32.6,49.4,32.7z"/>
			<path class="st8" d="M49.4,32.7c0,0.1,0.1,0.1,0.1,0.1c0.1,0,0.3-0.3,0.4-0.6c0.1,0,0.2,0,0.2,0.1c-0.2,0.6-0.5,1.1-0.9,1.2
				c-0.3,0.1-0.4,0-0.4-0.2c-0.1-0.2-0.1-0.5-0.1-0.8L48.5,31c0-0.3-0.1-0.5-0.1-0.6c-0.1-0.3-0.2-0.3-0.4-0.2
				c-0.3,0.1-0.6,0.8-0.9,1.6l0.2,1.5c0,0.3,0.2,0.7-0.2,0.8c-0.3,0.1-0.4,0-0.4-0.1c0-0.1,0-0.3-0.1-0.5l-0.2-2.3
				c0-0.3,0-0.4-0.1-0.5c0-0.1-0.1-0.1-0.2-0.1l-0.3,0.1c-0.1-0.1-0.1-0.1-0.1-0.2c0.4-0.2,0.8-0.4,1-0.5c0.1,0,0.2,0,0.2,0.1
				c0,0.1,0.1,0.5,0.1,0.9l0,0.1l0,0c0.5-1.2,0.8-1.5,1.2-1.6c0.3-0.1,0.6,0,0.8,0.5c0.1,0.2,0.1,0.4,0.1,0.7l0.1,1.5
				C49.3,32.4,49.3,32.6,49.4,32.7z"/>
		</g>
		<g>
			<path class="st7" d="M50.1,29.4C50.1,29.4,50.1,29.4,50.1,29.4c-0.1,0-0.1-0.1-0.1-0.2c0-0.1,0-0.2,0.2-0.2l0.6-0.2
				c-0.1-0.8-0.1-1.5,0.1-2c0.2-0.5,0.7-0.8,0.9-0.9c0.6-0.2,1.1,0,1.2,0.3c0,0.1,0,0.3-0.2,0.4c-0.3,0.1-0.4-0.1-0.5-0.3
				c-0.1-0.2-0.2-0.2-0.4-0.1c-0.1,0-0.4,0.3-0.5,0.9c0,0.3,0,0.6,0,0.9l0.1,0.5l0.9-0.3c0,0,0.1,0,0.1,0c0,0,0,0.2,0,0.2
				c0,0.1-0.1,0.2-0.2,0.2l-0.8,0.3l0,0.2c0.1,0.8,0.2,1.5,0.3,2.2c0.2,1.7,0.3,2.4,0.1,2.9c-0.1,0.5-0.5,0.8-0.8,0.9
				c-0.6,0.2-0.9,0.1-0.9-0.1c0-0.1,0-0.3,0.2-0.4c0.2-0.1,0.4,0,0.5,0.1c0.1,0.1,0.1,0.1,0.3,0.1c0.1,0,0.3-0.2,0.3-0.4
				c0.1-0.6-0.2-2-0.3-2.9c-0.1-0.7-0.2-1.2-0.4-2.2L50.1,29.4z"/>
			<path class="st8" d="M50.1,29.4C50.1,29.4,50.1,29.4,50.1,29.4c-0.1,0-0.1-0.1-0.1-0.2c0-0.1,0-0.2,0.2-0.2l0.6-0.2
				c-0.1-0.8-0.1-1.5,0.1-2c0.2-0.5,0.7-0.8,0.9-0.9c0.6-0.2,1.1,0,1.2,0.3c0,0.1,0,0.3-0.2,0.4c-0.3,0.1-0.4-0.1-0.5-0.3
				c-0.1-0.2-0.2-0.2-0.4-0.1c-0.1,0-0.4,0.3-0.5,0.9c0,0.3,0,0.6,0,0.9l0.1,0.5l0.9-0.3c0,0,0.1,0,0.1,0c0,0,0,0.2,0,0.2
				c0,0.1-0.1,0.2-0.2,0.2l-0.8,0.3l0,0.2c0.1,0.8,0.2,1.5,0.3,2.2c0.2,1.7,0.3,2.4,0.1,2.9c-0.1,0.5-0.5,0.8-0.8,0.9
				c-0.6,0.2-0.9,0.1-0.9-0.1c0-0.1,0-0.3,0.2-0.4c0.2-0.1,0.4,0,0.5,0.1c0.1,0.1,0.1,0.1,0.3,0.1c0.1,0,0.3-0.2,0.3-0.4
				c0.1-0.6-0.2-2-0.3-2.9c-0.1-0.7-0.2-1.2-0.4-2.2L50.1,29.4z"/>
		</g>
		<g>
			<path class="st7" d="M54.5,27.4c1-0.4,1.5,0.4,1.7,1c0.3,1,0.1,2.1-0.5,2.7c-0.2,0.2-0.5,0.3-0.7,0.4c-1.1,0.4-1.5-0.6-1.7-1.1
				C52.9,29.4,53.1,27.9,54.5,27.4z M55,31.2c0.3-0.1,0.6-0.4,0.7-0.8c0.1-0.6,0-1.3-0.2-1.7c-0.1-0.3-0.2-0.6-0.4-0.7
				c-0.2-0.2-0.4-0.3-0.6-0.2c-0.9,0.3-0.8,1.7-0.6,2.4C54.2,31.1,54.7,31.3,55,31.2z"/>
			<path class="st8" d="M54.5,27.4c1-0.4,1.5,0.4,1.7,1c0.3,1,0.1,2.1-0.5,2.7c-0.2,0.2-0.5,0.3-0.7,0.4c-1.1,0.4-1.5-0.6-1.7-1.1
				C52.9,29.4,53.1,27.9,54.5,27.4z M55,31.2c0.3-0.1,0.6-0.4,0.7-0.8c0.1-0.6,0-1.3-0.2-1.7c-0.1-0.3-0.2-0.6-0.4-0.7
				c-0.2-0.2-0.4-0.3-0.6-0.2c-0.9,0.3-0.8,1.7-0.6,2.4C54.2,31.1,54.7,31.3,55,31.2z"/>
		</g>
		<g>
			<path class="st7" d="M57.9,27.7c0.1-0.9,0.4-1.6,0.8-1.8c0.3-0.1,0.5,0.1,0.6,0.2c0.1,0.2,0,0.5-0.2,0.6c-0.1,0-0.3,0-0.4-0.1
				c-0.1,0-0.1-0.1-0.2,0c-0.2,0.1-0.4,1-0.6,1.9l0.1,1.1c0,0.4,0.1,0.7-0.2,0.8c-0.2,0.1-0.4,0-0.4-0.1c0-0.1,0-0.3-0.1-0.5
				l-0.3-2.3c0-0.3-0.1-0.4-0.1-0.5c0-0.1-0.1-0.1-0.2-0.1l-0.3,0.1c-0.1-0.1-0.1-0.1-0.1-0.2c0.4-0.2,0.7-0.4,1-0.5
				c0.1,0,0.2,0,0.3,0.2c0,0.1,0.1,0.5,0.1,0.8L57.9,27.7L57.9,27.7z"/>
			<path class="st8" d="M57.9,27.7c0.1-0.9,0.4-1.6,0.8-1.8c0.3-0.1,0.5,0.1,0.6,0.2c0.1,0.2,0,0.5-0.2,0.6c-0.1,0-0.3,0-0.4-0.1
				c-0.1,0-0.1-0.1-0.2,0c-0.2,0.1-0.4,1-0.6,1.9l0.1,1.1c0,0.4,0.1,0.7-0.2,0.8c-0.2,0.1-0.4,0-0.4-0.1c0-0.1,0-0.3-0.1-0.5
				l-0.3-2.3c0-0.3-0.1-0.4-0.1-0.5c0-0.1-0.1-0.1-0.2-0.1l-0.3,0.1c-0.1-0.1-0.1-0.1-0.1-0.2c0.4-0.2,0.7-0.4,1-0.5
				c0.1,0,0.2,0,0.3,0.2c0,0.1,0.1,0.5,0.1,0.8L57.9,27.7L57.9,27.7z"/>
		</g>
		<g>
			<path class="st7" d="M60.4,26c0-0.1-0.1-0.1-0.2-0.1L59.9,26c-0.1-0.1-0.1-0.1-0.1-0.2c0.4-0.2,0.7-0.4,1-0.5
				c0.1,0,0.2,0,0.2,0.1c0,0.1,0.1,0.5,0.1,0.9l0,0.1l0,0c0.3-0.8,0.7-1.5,1.3-1.7c0.2-0.1,0.5,0,0.7,0.6c0,0.1,0.1,0.3,0.1,0.4
				c0.3-0.8,0.6-1.5,1.2-1.7c0.3-0.1,0.6,0,0.8,0.6c0.1,0.2,0.1,0.4,0.1,0.7l0.1,1.7c0,0.1,0.1,0.3,0.1,0.4c0,0,0,0.1,0.1,0.1
				c0.2-0.1,0.3-0.4,0.4-0.8c0.1,0,0.2,0,0.2,0.1c-0.1,0.8-0.4,1.2-0.9,1.4c-0.1,0-0.3,0-0.4-0.2c0-0.1-0.1-0.4-0.1-0.8l-0.1-1.5
				c0-0.3-0.1-0.5-0.1-0.6c-0.1-0.3-0.2-0.3-0.4-0.2c-0.3,0.1-0.5,0.5-0.9,1.7l0.1,1.4c0,0.3,0.2,0.7-0.2,0.8
				c-0.3,0.1-0.4,0-0.4-0.1c0-0.1,0-0.3-0.1-0.5l-0.2-1.9c0-0.3-0.1-0.5-0.1-0.6c-0.1-0.3-0.2-0.3-0.3-0.2c-0.3,0.1-0.7,0.5-1,1.7
				l0.1,1.5c0,0.4,0.2,0.7-0.2,0.8c-0.3,0.1-0.4,0-0.4-0.1c0-0.1,0-0.3,0-0.5l-0.2-2.3C60.5,26.2,60.5,26.1,60.4,26z"/>
			<path class="st8" d="M60.4,26c0-0.1-0.1-0.1-0.2-0.1L59.9,26c-0.1-0.1-0.1-0.1-0.1-0.2c0.4-0.2,0.7-0.4,1-0.5
				c0.1,0,0.2,0,0.2,0.1c0,0.1,0.1,0.5,0.1,0.9l0,0.1l0,0c0.3-0.8,0.7-1.5,1.3-1.7c0.2-0.1,0.5,0,0.7,0.6c0,0.1,0.1,0.3,0.1,0.4
				c0.3-0.8,0.6-1.5,1.2-1.7c0.3-0.1,0.6,0,0.8,0.6c0.1,0.2,0.1,0.4,0.1,0.7l0.1,1.7c0,0.1,0.1,0.3,0.1,0.4c0,0,0,0.1,0.1,0.1
				c0.2-0.1,0.3-0.4,0.4-0.8c0.1,0,0.2,0,0.2,0.1c-0.1,0.8-0.4,1.2-0.9,1.4c-0.1,0-0.3,0-0.4-0.2c0-0.1-0.1-0.4-0.1-0.8l-0.1-1.5
				c0-0.3-0.1-0.5-0.1-0.6c-0.1-0.3-0.2-0.3-0.4-0.2c-0.3,0.1-0.5,0.5-0.9,1.7l0.1,1.4c0,0.3,0.2,0.7-0.2,0.8
				c-0.3,0.1-0.4,0-0.4-0.1c0-0.1,0-0.3-0.1-0.5l-0.2-1.9c0-0.3-0.1-0.5-0.1-0.6c-0.1-0.3-0.2-0.3-0.3-0.2c-0.3,0.1-0.7,0.5-1,1.7
				l0.1,1.5c0,0.4,0.2,0.7-0.2,0.8c-0.3,0.1-0.4,0-0.4-0.1c0-0.1,0-0.3,0-0.5l-0.2-2.3C60.5,26.2,60.5,26.1,60.4,26z"/>
		</g>
		<g>
			<path class="st7" d="M69.4,22.4l0.3,2.9c0,0.2,0.1,0.4,0.1,0.5c0,0.1,0.1,0.1,0.1,0.1c0.1,0,0.2-0.2,0.3-0.6c0.1,0,0.2,0,0.2,0.1
				c-0.1,0.6-0.3,1-0.8,1.2c-0.3,0.1-0.4-0.1-0.5-0.3c0-0.1-0.1-0.3-0.1-0.5l0-0.4l0,0c-0.3,0.9-0.6,1.6-1,1.7
				c-0.7,0.2-1.1-0.4-1.2-0.9c-0.5-1.3,0.3-3.1,1.2-3.4c0.3-0.1,0.5-0.1,0.7-0.2C69,22.6,69.2,22.5,69.4,22.4z M68.8,23
				c-0.2,0-0.4,0-0.6,0c-0.8,0.3-1,1.9-0.7,2.8c0.2,0.5,0.4,0.8,0.7,0.7c0.3-0.1,0.7-1,0.8-1.9C69,23.9,68.8,23,68.8,23z"/>
			<path class="st8" d="M69.4,22.4l0.3,2.9c0,0.2,0.1,0.4,0.1,0.5c0,0.1,0.1,0.1,0.1,0.1c0.1,0,0.2-0.2,0.3-0.6c0.1,0,0.2,0,0.2,0.1
				c-0.1,0.6-0.3,1-0.8,1.2c-0.3,0.1-0.4-0.1-0.5-0.3c0-0.1-0.1-0.3-0.1-0.5l0-0.4l0,0c-0.3,0.9-0.6,1.6-1,1.7
				c-0.7,0.2-1.1-0.4-1.2-0.9c-0.5-1.3,0.3-3.1,1.2-3.4c0.3-0.1,0.5-0.1,0.7-0.2C69,22.6,69.2,22.5,69.4,22.4z M68.8,23
				c-0.2,0-0.4,0-0.6,0c-0.8,0.3-1,1.9-0.7,2.8c0.2,0.5,0.4,0.8,0.7,0.7c0.3-0.1,0.7-1,0.8-1.9C69,23.9,68.8,23,68.8,23z"/>
		</g>
		<g>
			<path class="st7" d="M71.9,24.5c0,0.4,0.1,0.5,0.1,0.6s0.1,0.1,0.1,0.1c0.1,0,0.3-0.3,0.5-0.7c0.1,0,0.2,0,0.2,0.1
				c-0.2,0.8-0.6,1.1-0.9,1.3c-0.3,0.1-0.4-0.1-0.5-0.3c-0.1-0.2-0.1-0.5-0.1-0.8l-0.4-4.1c0-0.2-0.1-0.4-0.1-0.4
				C70.7,20,70.6,20,70.5,20l-0.3,0.1c0,0,0,0-0.1,0l0-0.2c0.3-0.1,0.9-0.5,1.1-0.6c0.1,0,0.1,0,0.1,0c0,0,0,0.4,0.1,1L71.9,24.5z"
				/>
			<path class="st8" d="M71.9,24.5c0,0.4,0.1,0.5,0.1,0.6s0.1,0.1,0.1,0.1c0.1,0,0.3-0.3,0.5-0.7c0.1,0,0.2,0,0.2,0.1
				c-0.2,0.8-0.6,1.1-0.9,1.3c-0.3,0.1-0.4-0.1-0.5-0.3c-0.1-0.2-0.1-0.5-0.1-0.8l-0.4-4.1c0-0.2-0.1-0.4-0.1-0.4
				C70.7,20,70.6,20,70.5,20l-0.3,0.1c0,0,0,0-0.1,0l0-0.2c0.3-0.1,0.9-0.5,1.1-0.6c0.1,0,0.1,0,0.1,0c0,0,0,0.4,0.1,1L71.9,24.5z"
				/>
		</g>
		<g>
			<path class="st7" d="M76,23.9c-0.3-0.2-0.5-0.6-0.6-0.9c-0.3-0.8-0.2-1.5,0.1-2.1c0.2-0.5,0.7-0.9,1-1c0.9-0.3,1.1,0.2,1.2,0.5
				c0.1,0.2-0.1,0.5-0.3,0.5c-0.1,0-0.3-0.1-0.3-0.2c0-0.1,0-0.1,0-0.2c0-0.1,0-0.1,0-0.2c-0.1-0.3-0.3-0.2-0.5-0.2
				c-0.7,0.2-1,1.2-0.6,2.4c0.2,0.5,0.3,0.7,0.5,0.8c0.2,0.1,0.4,0.1,0.5,0.1c0.5-0.2,0.7-0.5,0.9-1c0.1,0,0.2,0,0.2,0.1
				c-0.2,0.7-0.6,1.3-1.2,1.5C76.6,24.2,76.2,24.1,76,23.9z"/>
			<path class="st8" d="M76,23.9c-0.3-0.2-0.5-0.6-0.6-0.9c-0.3-0.8-0.2-1.5,0.1-2.1c0.2-0.5,0.7-0.9,1-1c0.9-0.3,1.1,0.2,1.2,0.5
				c0.1,0.2-0.1,0.5-0.3,0.5c-0.1,0-0.3-0.1-0.3-0.2c0-0.1,0-0.1,0-0.2c0-0.1,0-0.1,0-0.2c-0.1-0.3-0.3-0.2-0.5-0.2
				c-0.7,0.2-1,1.2-0.6,2.4c0.2,0.5,0.3,0.7,0.5,0.8c0.2,0.1,0.4,0.1,0.5,0.1c0.5-0.2,0.7-0.5,0.9-1c0.1,0,0.2,0,0.2,0.1
				c-0.2,0.7-0.6,1.3-1.2,1.5C76.6,24.2,76.2,24.1,76,23.9z"/>
		</g>
		<g>
			<path class="st7" d="M79.6,21.8c0,0.4,0.1,0.5,0.1,0.6s0.1,0.1,0.1,0.1c0.1,0,0.3-0.3,0.5-0.7c0.1,0,0.2,0,0.2,0.1
				c-0.2,0.8-0.6,1.1-0.9,1.3c-0.3,0.1-0.4-0.1-0.5-0.3c-0.1-0.2-0.1-0.5-0.1-0.8L78.5,18c0-0.2-0.1-0.4-0.1-0.4
				c-0.1-0.2-0.1-0.2-0.3-0.2l-0.3,0.1c0,0,0,0-0.1,0l0-0.2c0.3-0.1,0.9-0.5,1.1-0.6c0.1,0,0.1,0,0.1,0c0,0,0,0.4,0.1,1L79.6,21.8z"
				/>
			<path class="st8" d="M79.6,21.8c0,0.4,0.1,0.5,0.1,0.6s0.1,0.1,0.1,0.1c0.1,0,0.3-0.3,0.5-0.7c0.1,0,0.2,0,0.2,0.1
				c-0.2,0.8-0.6,1.1-0.9,1.3c-0.3,0.1-0.4-0.1-0.5-0.3c-0.1-0.2-0.1-0.5-0.1-0.8L78.5,18c0-0.2-0.1-0.4-0.1-0.4
				c-0.1-0.2-0.1-0.2-0.3-0.2l-0.3,0.1c0,0,0,0-0.1,0l0-0.2c0.3-0.1,0.9-0.5,1.1-0.6c0.1,0,0.1,0,0.1,0c0,0,0,0.4,0.1,1L79.6,21.8z"
				/>
		</g>
		<g>
			<path class="st7" d="M83.5,17.6l0.3,2.9c0,0.2,0.1,0.4,0.1,0.5c0,0.1,0.1,0.1,0.1,0.1c0.1,0,0.2-0.2,0.3-0.6c0.1,0,0.2,0,0.2,0.1
				c-0.1,0.6-0.3,1-0.8,1.2c-0.3,0.1-0.4-0.1-0.5-0.3c0-0.1-0.1-0.3-0.1-0.5l0-0.4l0,0c-0.3,0.9-0.6,1.6-1,1.7
				c-0.7,0.2-1.1-0.4-1.2-0.9c-0.5-1.3,0.3-3.1,1.2-3.4c0.3-0.1,0.5-0.1,0.7-0.2C83.1,17.8,83.3,17.7,83.5,17.6z M82.9,18.2
				c-0.2,0-0.4,0-0.6,0c-0.8,0.3-1,1.9-0.7,2.8c0.2,0.5,0.4,0.8,0.7,0.7c0.3-0.1,0.7-1,0.8-1.9C83.1,19.1,82.9,18.2,82.9,18.2z"/>
			<path class="st8" d="M83.5,17.6l0.3,2.9c0,0.2,0.1,0.4,0.1,0.5c0,0.1,0.1,0.1,0.1,0.1c0.1,0,0.2-0.2,0.3-0.6c0.1,0,0.2,0,0.2,0.1
				c-0.1,0.6-0.3,1-0.8,1.2c-0.3,0.1-0.4-0.1-0.5-0.3c0-0.1-0.1-0.3-0.1-0.5l0-0.4l0,0c-0.3,0.9-0.6,1.6-1,1.7
				c-0.7,0.2-1.1-0.4-1.2-0.9c-0.5-1.3,0.3-3.1,1.2-3.4c0.3-0.1,0.5-0.1,0.7-0.2C83.1,17.8,83.3,17.7,83.5,17.6z M82.9,18.2
				c-0.2,0-0.4,0-0.6,0c-0.8,0.3-1,1.9-0.7,2.8c0.2,0.5,0.4,0.8,0.7,0.7c0.3-0.1,0.7-1,0.8-1.9C83.1,19.1,82.9,18.2,82.9,18.2z"/>
		</g>
		<g>
			<path class="st7" d="M85.1,20.5c0-0.1,0-0.3,0.2-0.4c0.3-0.1,0.5,0.1,0.6,0.3c0.1,0.2,0.2,0.2,0.4,0.1c0.4-0.1,0.7-0.4,0.5-0.9
				c-0.1-0.2-0.2-0.4-0.8-0.6c-0.7-0.2-1-0.5-1.1-0.8c-0.2-0.5,0.1-1.2,0.8-1.5c0.5-0.2,1.1,0,1.2,0.4c0,0.1,0,0.3-0.2,0.4
				c-0.2,0.1-0.4-0.1-0.5-0.3C86.2,17,86,17,85.8,17.1c-0.4,0.1-0.4,0.5-0.3,0.8c0.1,0.2,0.2,0.3,0.5,0.4c1,0.3,1.3,0.6,1.5,1
				c0.2,0.6-0.1,1.3-1,1.5l-0.1,0C85.7,21,85.2,20.8,85.1,20.5z"/>
			<path class="st8" d="M85.1,20.5c0-0.1,0-0.3,0.2-0.4c0.3-0.1,0.5,0.1,0.6,0.3c0.1,0.2,0.2,0.2,0.4,0.1c0.4-0.1,0.7-0.4,0.5-0.9
				c-0.1-0.2-0.2-0.4-0.8-0.6c-0.7-0.2-1-0.5-1.1-0.8c-0.2-0.5,0.1-1.2,0.8-1.5c0.5-0.2,1.1,0,1.2,0.4c0,0.1,0,0.3-0.2,0.4
				c-0.2,0.1-0.4-0.1-0.5-0.3C86.2,17,86,17,85.8,17.1c-0.4,0.1-0.4,0.5-0.3,0.8c0.1,0.2,0.2,0.3,0.5,0.4c1,0.3,1.3,0.6,1.5,1
				c0.2,0.6-0.1,1.3-1,1.5l-0.1,0C85.7,21,85.2,20.8,85.1,20.5z"/>
		</g>
		<g>
			<path class="st7" d="M88.1,19.5c0-0.1,0-0.3,0.2-0.4c0.3-0.1,0.5,0.1,0.6,0.3c0.1,0.2,0.2,0.2,0.4,0.1c0.4-0.1,0.7-0.4,0.5-0.9
				c-0.1-0.2-0.2-0.4-0.8-0.6c-0.7-0.2-1-0.5-1.1-0.8c-0.2-0.5,0.1-1.2,0.8-1.5c0.5-0.2,1.1,0,1.2,0.4c0,0.1,0,0.3-0.2,0.4
				c-0.2,0.1-0.4-0.1-0.5-0.3C89.2,16,89,16,88.8,16.1c-0.4,0.1-0.4,0.5-0.3,0.8c0.1,0.2,0.2,0.3,0.5,0.4c1,0.3,1.3,0.6,1.5,1
				c0.2,0.6-0.1,1.3-1,1.5l-0.1,0C88.7,20,88.2,19.8,88.1,19.5z"/>
			<path class="st8" d="M88.1,19.5c0-0.1,0-0.3,0.2-0.4c0.3-0.1,0.5,0.1,0.6,0.3c0.1,0.2,0.2,0.2,0.4,0.1c0.4-0.1,0.7-0.4,0.5-0.9
				c-0.1-0.2-0.2-0.4-0.8-0.6c-0.7-0.2-1-0.5-1.1-0.8c-0.2-0.5,0.1-1.2,0.8-1.5c0.5-0.2,1.1,0,1.2,0.4c0,0.1,0,0.3-0.2,0.4
				c-0.2,0.1-0.4-0.1-0.5-0.3C89.2,16,89,16,88.8,16.1c-0.4,0.1-0.4,0.5-0.3,0.8c0.1,0.2,0.2,0.3,0.5,0.4c1,0.3,1.3,0.6,1.5,1
				c0.2,0.6-0.1,1.3-1,1.5l-0.1,0C88.7,20,88.2,19.8,88.1,19.5z"/>
		</g>
	</g>
	<path class="st2" d="M97.3,18.5c24,21.1-15.7,43.2,10,59.8"/>
	<path d="M101.2,13.7l-0.2-0.2c-0.2,0.2-0.4,0.3-0.5,0.3c-0.3,0-0.3-0.3-0.4-1.5L100,9.1c0-1.1-0.5-1.2-0.7-1.2
		c-0.3,0-0.7,0.3-1,0.6l0.1,0.2c0.2-0.1,0.4-0.2,0.6-0.2c0.2,0,0.5,0.2,0.6,1.4l0,0.4l-2.8,3.9l0.2,0.1c0.2-0.1,0.4-0.1,0.7-0.1
		l1.9-3.3l0.1,2.1c0,0.8,0.1,1.2,0.6,1.2C100.6,14.3,101,14,101.2,13.7"/>
	<g>
		<path d="M114.6,72.6c-0.2,0-0.3-0.1-0.5-0.2c-0.2-0.1-0.4-0.3-0.6-0.3c-0.4,0-0.6,0.4-0.7,0.9c0.1,0.1,0.1,0.1,0.2,0
			c0.1-0.3,0.2-0.4,0.4-0.4c0.2,0,0.3,0.1,0.5,0.2c0.2,0.1,0.4,0.3,0.6,0.3c0.4,0,0.7-0.4,0.8-0.9c-0.1,0-0.1-0.1-0.2-0.1
			C114.9,72.5,114.8,72.6,114.6,72.6"/>
		<path d="M115.5,80.2l-0.2-0.2c-0.2,0.2-0.4,0.3-0.5,0.3c-0.3,0-0.3-0.3-0.4-1.5l-0.2-3.2c0-1.1-0.5-1.2-0.7-1.2
			c-0.3,0-0.7,0.3-1,0.6l0.1,0.2c0.2-0.1,0.4-0.2,0.6-0.2c0.2,0,0.5,0.2,0.6,1.4l0,0.4l-2.8,3.9l0.2,0.1c0.2-0.1,0.4-0.1,0.7-0.1
			l1.9-3.3l0.1,2.1c0,0.8,0.1,1.2,0.6,1.2C114.9,80.8,115.3,80.5,115.5,80.2"/>
	</g>
	<polygon class="st9" points="101.5,17.1 97.7,18.2 99.9,20.9 103.3,19.7 	"/>
	<polygon class="st9" points="108,27 104.6,27.9 105.6,31.4 109,30.3 	"/>
	<polygon class="st9" points="107.1,43.6 103.7,44.6 102.8,48.2 106.2,47.1 	"/>
	<polygon class="st9" points="101.8,61 98.5,61.9 98.4,65.5 101.8,64.4 	"/>
	<polygon class="st9" points="107.8,74.5 103.7,75.6 106.9,78.3 111,77.1 	"/>
	<circle class="st9" cx="97.3" cy="18.2" r="1.7"/>
	<circle class="st9" cx="107.3" cy="78.3" r="1.7"/>
</g>
<g>
	<g>
		<line class="st2" x1="25.4" y1="166.7" x2="99.4" y2="166.7"/>
		<g>
			<path class="st8" d="M102.8,166.7c-1.6,0.6-3.5,1.6-4.7,2.6l0.9-2.6l-0.9-2.6C99.3,165.1,101.2,166.1,102.8,166.7z"/>
		</g>
	</g>
</g>
<line class="st2" x1="56.3" y1="119.3" x2="105.2" y2="166.7"/>
<g>
	<g>
		<line class="st2" x1="56.3" y1="119.3" x2="101.3" y2="162.9"/>
		<g>
			<path class="st8" d="M103.7,165.2c-1.5-0.7-3.6-1.3-5.2-1.4l2.5-1.2l1.1-2.5C102.3,161.6,103,163.7,103.7,165.2z"/>
		</g>
	</g>
</g>
<g>
	<g>
		<line class="st2" x1="25.4" y1="166.7" x2="53.7" y2="123.2"/>
		<g>
			<path class="st8" d="M55.5,120.4c-0.4,1.6-0.6,3.8-0.4,5.4l-1.7-2.2l-2.7-0.6C52.3,122.5,54.2,121.4,55.5,120.4z"/>
		</g>
	</g>
</g>
<circle class="st8" cx="25.4" cy="166.7" r="2.8"/>
<circle class="st8" cx="56.3" cy="119.3" r="2.8"/>
<circle class="st8" cx="105.2" cy="166.7" r="2.8"/>
<circle class="st8" cx="136.1" cy="119.3" r="2.8"/>
<g>
	<g>
		<defs>
			<polygon id="SVGID_00000128470837147345567970000013632162276936287900_" points="25.4,166.7 105.2,166.7 56.3,119.3 			"/>
		</defs>
		<clipPath id="SVGID_00000156589956793093266740000013222350088582285737_">
			<use xlink:href="#SVGID_00000128470837147345567970000013632162276936287900_"  style="overflow:visible;"/>
		</clipPath>
		
			<circle style="opacity:0.25;clip-path:url(#SVGID_00000156589956793093266740000013222350088582285737_);fill:#FF2F92;enable-background:new    ;" cx="25.4" cy="166.8" r="17"/>
		
			<circle style="opacity:0.25;clip-path:url(#SVGID_00000156589956793093266740000013222350088582285737_);fill:#FF2F92;enable-background:new    ;" cx="102.9" cy="166.8" r="17"/>
		
			<circle style="opacity:0.25;clip-path:url(#SVGID_00000156589956793093266740000013222350088582285737_);fill:#FF2F92;enable-background:new    ;" cx="56.2" cy="118" r="17"/>
	</g>
</g>
<g class="st11">
	<path d="M55.7,127.3c0.5,0,0.6,0.6,0.6,1.3c0,0.1,0,0.1,0,0.2v0.2l-0.2,0.4c-0.5,0.9-1,1.4-1.3,1.4c-0.4,0-0.6-0.3-0.6-0.9
		C54.1,128.7,54.8,127.3,55.7,127.3 M56.6,129.3l1.5-2.2c-0.1,0-0.3,0-0.4,0s-0.3,0-0.4,0l-0.7,1.3l0,0v-0.1c0-0.8-0.2-1.3-0.8-1.3
		c-0.8,0-1.9,0.6-2.3,2.2c-0.1,0.3-0.1,0.5-0.1,0.7c0,0.7,0.3,1.1,1.2,1.1c0.6,0,1-0.4,1.7-1.3v0.4v0.1c0,0.6,0.2,0.8,0.5,0.8
		c0.4,0,0.6-0.2,0.9-0.8h-0.3c-0.2,0.3-0.3,0.3-0.5,0.3c-0.2,0-0.3-0.3-0.3-0.7l0,0V129.3z"/>
	<path d="M59.4,132.4c0.5,0,1.3-0.5,1.3-2.1c0-0.7-0.2-1.2-0.4-1.6c-0.2-0.2-0.4-0.4-0.8-0.4c-0.7,0-1.3,0.8-1.3,2.1
		c0,0.7,0.2,1.4,0.6,1.7C58.9,132.3,59.2,132.4,59.4,132.4 M59.5,128.5c0.1,0,0.2,0,0.3,0.1c0.2,0.2,0.4,0.7,0.4,1.6
		c0,0.6,0,1-0.1,1.4c-0.1,0.5-0.5,0.6-0.6,0.6c-0.6,0-0.7-1.1-0.7-1.7C58.8,128.8,59.2,128.5,59.5,128.5z"/>
</g>
<g class="st11">
	<path d="M91.6,159.7c0.5,0,0.6,0.6,0.6,1.3c0,0.1,0,0.1,0,0.2v0.2l-0.2,0.4c-0.5,0.9-1,1.4-1.3,1.4c-0.4,0-0.6-0.3-0.6-0.9
		C90.1,161,90.8,159.7,91.6,159.7 M92.6,161.6l1.5-2.2c-0.1,0-0.3,0-0.4,0s-0.3,0-0.4,0l-0.7,1.3l0,0v-0.1c0-0.8-0.2-1.3-0.8-1.3
		c-0.8,0-1.9,0.6-2.3,2.2c-0.1,0.3-0.1,0.5-0.1,0.7c0,0.7,0.3,1.1,1.2,1.1c0.6,0,1-0.4,1.7-1.3v0.4v0.1c0,0.6,0.2,0.8,0.5,0.8
		c0.4,0,0.6-0.2,0.9-0.8l-0.2-0.1c-0.2,0.3-0.3,0.3-0.5,0.3c-0.2,0-0.3-0.3-0.3-0.7l0,0L92.6,161.6z"/>
	<path d="M95.8,163.8v-2.3c0-0.4,0-0.8,0-0.9l0,0c-0.4,0.2-0.7,0.4-1.3,0.7c0,0.1,0,0.1,0.1,0.2c0.3-0.1,0.4-0.2,0.6-0.2
		c0.1,0,0.1,0.2,0.1,0.4v2.1c0,0.5-0.2,0.6-0.6,0.6v0.2c0.3,0,0.6,0,0.9,0c0.3,0,0.5,0,0.8,0v-0.2C95.9,164.4,95.8,164.4,95.8,163.8
		"/>
</g>
<g class="st11">
	<path d="M34.1,159c0.5,0,0.6,0.6,0.6,1.3c0,0.1,0,0.1,0,0.2v0.2l-0.2,0.4c-0.5,0.9-1,1.4-1.3,1.4c-0.4,0-0.6-0.3-0.6-0.9
		C32.6,160.4,33.3,159,34.1,159 M35.1,161l1.5-2.2c-0.1,0-0.3,0-0.4,0c-0.1,0-0.3,0-0.4,0l-0.7,1.3l0,0V160c0-0.8-0.2-1.3-0.8-1.3
		c-0.8,0-1.9,0.6-2.3,2.2c-0.1,0.3-0.1,0.5-0.1,0.7c0,0.7,0.3,1.1,1.2,1.1c0.6,0,1-0.4,1.7-1.3v0.4v0.1c0,0.6,0.2,0.8,0.5,0.8
		c0.4,0,0.6-0.2,0.9-0.8l-0.2-0.1c-0.2,0.3-0.3,0.3-0.5,0.3s-0.3-0.3-0.3-0.7l0,0L35.1,161z"/>
	<path d="M36.8,160.9c0,0.1,0.1,0.3,0.3,0.3c0.1,0,0.3-0.1,0.3-0.3c0-0.1,0-0.1,0-0.1s-0.1-0.1-0.1-0.2c0-0.2,0.2-0.4,0.6-0.4
		c0.2,0,0.6,0.2,0.6,0.8c0,0.4-0.1,0.8-0.5,1.2l-0.5,0.5c-0.6,0.7-0.7,1-0.7,1.4c0,0,0.3,0,0.5,0h1.2c0.2,0,0.5,0,0.5,0
		c0.1-0.3,0.2-0.8,0.2-1c0,0-0.1,0-0.2,0c-0.1,0.5-0.2,0.6-0.5,0.6h-1.2c0-0.3,0.5-0.8,0.5-0.8l0.7-0.6c0.4-0.4,0.7-0.7,0.7-1.2
		c0-0.7-0.6-1-1.1-1C37.2,160,36.8,160.5,36.8,160.9"/>
</g>
<g>
	<path d="M60.3,170.5c0,1.1-0.3,2.3-1.2,2.3c-0.4,0-0.7-0.3-0.7-0.9c0-0.5,0.1-1.1,0.4-1.5c0.5-0.6,0.6-0.8,0.6-1
		c0-0.1-0.1-0.1-0.2-0.1h-0.9c-0.1,0-0.2,0-0.3,0.1c-0.2,0.2-0.4,0.6-0.5,1c0.1,0.1,0.1,0.1,0.3,0.1c0.1-0.3,0.3-0.5,0.3-0.6
		c0.1-0.1,0.2-0.1,0.3-0.1h0.1c0.3,0,0.3,0.1,0.3,0.2c0,0.1-0.1,0.2-0.2,0.3c-0.6,0.8-0.9,1.5-0.9,1.9c0,0.7,0.5,1.1,1.3,1.1
		c1.7,0,1.9-2.5,1.9-3.2c0-0.6-0.3-0.8-0.5-0.8c-0.2,0-0.4,0.1-0.4,0.3C60,169.9,60.3,169.8,60.3,170.5"/>
	<path d="M62.6,174.5c0.5,0,1.3-0.5,1.3-2.1c0-0.7-0.2-1.2-0.4-1.6c-0.2-0.2-0.4-0.4-0.8-0.4c-0.7,0-1.3,0.8-1.3,2.1
		c0,0.7,0.2,1.4,0.6,1.7C62.1,174.4,62.4,174.5,62.6,174.5 M62.6,170.7c0.1,0,0.2,0,0.3,0.1c0.2,0.2,0.4,0.7,0.4,1.6
		c0,0.6,0,1-0.1,1.4c-0.1,0.5-0.5,0.6-0.6,0.6c-0.6,0-0.7-1.1-0.7-1.7C61.9,171,62.3,170.7,62.6,170.7z"/>
</g>
<g>
	<path d="M36.3,136.8c0,1.1-0.3,2.3-1.2,2.3c-0.4,0-0.7-0.3-0.7-0.9c0-0.5,0.1-1.1,0.4-1.5c0.5-0.6,0.6-0.8,0.6-1
		c0-0.1-0.1-0.1-0.2-0.1h-0.9c-0.1,0-0.2,0-0.3,0.1c-0.2,0.2-0.4,0.6-0.5,1c0.1,0.1,0.1,0.1,0.3,0.1c0.1-0.3,0.3-0.5,0.3-0.6
		c0.1-0.1,0.2-0.1,0.3-0.1h0.1c0.3,0,0.3,0.1,0.3,0.2c0,0.1-0.1,0.2-0.2,0.3c-0.6,0.8-0.9,1.5-0.9,1.9c0,0.7,0.5,1.1,1.3,1.1
		c1.7,0,1.9-2.5,1.9-3.2c0-0.6-0.3-0.8-0.5-0.8c-0.2,0-0.4,0.1-0.4,0.3C36,136.3,36.3,136.2,36.3,136.8"/>
	<path d="M39,140v-2.3c0-0.4,0-0.8,0-0.9c0,0,0,0,0,0c-0.4,0.2-0.7,0.4-1.3,0.7c0,0.1,0,0.1,0.1,0.2c0.3-0.1,0.4-0.2,0.6-0.2
		c0.1,0,0.1,0.2,0.1,0.4v2.1c0,0.5-0.2,0.6-0.6,0.6c0,0,0,0.2,0,0.2c0.3,0,0.6,0,0.9,0c0.3,0,0.5,0,0.8,0c0,0,0-0.2,0-0.2
		C39.1,140.6,39,140.6,39,140"/>
</g>
<g>
	<path d="M84.2,138.2c0,1.1-0.3,2.3-1.2,2.3c-0.4,0-0.7-0.3-0.7-0.9c0-0.5,0.1-1.1,0.4-1.5c0.4-0.6,0.6-0.8,0.6-1
		c0-0.1-0.1-0.1-0.2-0.1h-0.9c-0.1,0-0.2,0-0.3,0.1c-0.2,0.2-0.4,0.6-0.5,1c0.1,0.1,0.1,0.1,0.3,0.1c0.1-0.3,0.3-0.5,0.3-0.6
		c0.1-0.1,0.2-0.1,0.3-0.1h0.1c0.3,0,0.3,0.1,0.3,0.2c0,0.1-0.1,0.2-0.2,0.3c-0.6,0.8-0.9,1.5-0.9,1.9c0,0.7,0.5,1.1,1.3,1.1
		c1.7,0,1.9-2.5,1.9-3.2c0-0.6-0.3-0.8-0.5-0.8c-0.2,0-0.4,0.1-0.4,0.3C83.9,137.7,84.2,137.6,84.2,138.2"/>
	<path d="M85.4,139.1c0,0.1,0.1,0.3,0.3,0.3c0.1,0,0.3-0.1,0.3-0.3c0-0.1,0-0.1,0-0.1c0,0-0.1-0.1-0.1-0.2c0-0.2,0.2-0.4,0.6-0.4
		c0.2,0,0.6,0.2,0.6,0.8c0,0.4-0.2,0.8-0.5,1.2l-0.5,0.5c-0.6,0.7-0.7,1-0.7,1.4c0,0,0.3,0,0.5,0h1.2c0.2,0,0.5,0,0.5,0
		c0.1-0.3,0.2-0.8,0.2-1c0,0-0.1,0-0.2,0c-0.1,0.5-0.2,0.6-0.5,0.6h-1.2c0-0.3,0.5-0.8,0.5-0.8l0.7-0.6c0.4-0.4,0.7-0.7,0.7-1.1
		c0-0.7-0.6-1-1.1-1C85.9,138.2,85.4,138.7,85.4,139.1"/>
</g>
</svg>
