<?xml version="1.0" encoding="utf-8"?>
<!-- Generator: Adobe Illustrator 27.2.0, SVG Export Plug-In . SVG Version: 6.00 Build 0)  -->
<svg version="1.1" id="Layer_1" xmlns="http://www.w3.org/2000/svg" xmlns:xlink="http://www.w3.org/1999/xlink" x="0px" y="0px"
	 viewBox="0 0 161.5 159.9" style="enable-background:new 0 0 161.5 159.9;" xml:space="preserve">
<style type="text/css">
	.st0{fill:#FFFFFF;}
	.st1{opacity:0.35;fill:#FF2F92;}
	.st2{fill:none;stroke:#FF2F92;stroke-linejoin:round;stroke-miterlimit:10;}
	.st3{fill:#FF2F92;}
	.st4{opacity:0.15;fill:#FF2F92;}
	.st5{fill:none;stroke:#FF2F92;stroke-miterlimit:10;}
	.st6{opacity:0.35;fill:none;stroke:#FF2F92;stroke-miterlimit:10;}
	.st7{opacity:0.65;fill:none;stroke:#FF2F92;stroke-miterlimit:10;}
	.st8{font-family:'LinLibertineOI';}
	.st9{font-size:9px;}
	.st10{opacity:0.25;clip-path:url(#SVGID_00000071549769521211926090000009543981824848111238_);fill:#FF2F92;}
	.st11{opacity:0.25;clip-path:url(#SVGID_00000151532458571013568930000017989710459382766515_);fill:#FF2F92;}
	.st12{opacity:0.65;}
</style>
<path d="M75.9,14.1c-0.2,1-0.3,1.6-0.4,2.2c-0.1,0.9-0.3,2.3-0.6,2.9c-0.1,0.2-0.3,0.3-0.4,0.3c-0.1,0-0.2-0.1-0.3-0.2
	C74.2,19.1,74,19,73.8,19c-0.3,0-0.3,0.2-0.3,0.3c0,0.2,0.2,0.4,0.8,0.4c0.4,0,0.8-0.2,1-0.6c0.3-0.4,0.5-1,0.8-2.8
	c0.1-0.7,0.3-1.4,0.4-2.2l0-0.2h0.8c0.1,0,0.2,0,0.2-0.1c0,0,0-0.2,0-0.2c0,0,0,0-0.1,0h-1l0.1-0.5c0.1-0.3,0.2-0.6,0.3-0.9
	c0.2-0.6,0.6-0.7,0.7-0.7c0.2,0,0.3,0,0.4,0.2c0,0.2,0.1,0.4,0.4,0.4c0.3,0,0.3-0.2,0.3-0.3c0-0.4-0.4-0.7-1-0.7
	c-0.3,0-0.8,0.1-1.2,0.6c-0.3,0.4-0.6,1.1-0.7,1.8l-0.6,0c-0.2,0-0.2,0.1-0.3,0.2c0,0,0,0.1,0,0.2c0,0,0,0,0.1,0H75.9"/>
<g>
	<g>
		<path d="M94.1,26.4c-12.2-2.8-25-3.3-37.4-1.5c12.4-2.2,25.2-2,37.6,0.6L94.1,26.4z"/>
		<g>
			<polygon points="97.9,26.9 93.1,23.5 93.9,25.9 92.1,27.8 			"/>
		</g>
	</g>
</g>
<polygon class="st0" points="2.8,46 59,46 29.9,5.8 "/>
<polygon class="st1" points="2.8,46 59,46 29.9,5.8 "/>
<polygon class="st2" points="2.8,46 59,46 29.9,5.8 "/>
<polygon class="st0" points="76.3,46 144.1,46 157.4,4.9 "/>
<polygon class="st1" points="76.3,46 144.1,46 157.4,4.9 "/>
<polygon class="st2" points="76.3,46 144.1,46 157.4,4.9 "/>
<circle class="st3" cx="29.9" cy="4.9" r="2.5"/>
<circle class="st3" cx="58.2" cy="45.5" r="2.5"/>
<circle class="st3" cx="2.8" cy="46.1" r="2.5"/>
<circle class="st3" cx="157.4" cy="4.9" r="2.5"/>
<circle class="st3" cx="144.1" cy="46" r="2.5"/>
<circle class="st3" cx="76.3" cy="46" r="2.5"/>
<rect x="3.5" y="66.3" class="st0" width="153.2" height="82.9"/>
<rect x="3.5" y="66.3" class="st4" width="153.2" height="82.9"/>
<line class="st5" x1="156.7" y1="149.2" x2="3.5" y2="149.2"/>
<polygon class="st1" points="14.8,149.2 106.8,149.2 124.7,93.5 "/>
<polygon class="st2" points="14.8,149.2 106.8,149.2 124.7,93.5 "/>
<polygon class="st1" points="14.8,149.2 107.8,149.2 59.5,82.6 "/>
<polygon class="st2" points="14.8,149.2 107.8,149.2 59.5,82.6 "/>
<path class="st6" d="M125.3,93c16.8,12.9,27.7,33.2,27.7,56.1"/>
<path class="st7" d="M58.8,82.4c7.3-2.6,15.3-4,23.5-4c16.2,0,31.1,5.4,43,14.6"/>
<path class="st6" d="M11.6,149.1c0-30.8,19.7-57,47.2-66.7"/>
<circle class="st3" cx="58.8" cy="82.7" r="2.5"/>
<circle class="st3" cx="124.7" cy="93.5" r="2.5"/>
<circle class="st3" cx="106.8" cy="149.1" r="2.5"/>
<circle class="st3" cx="15.4" cy="149.4" r="2.5"/>
<text transform="matrix(1 0 0 1 12.2281 158.7987)" class="st8 st9">0</text>
<text transform="matrix(1 0 0 1 104.2901 158.7987)" class="st8 st9">1</text>
<g>
	<defs>
		<polygon id="SVGID_1_" points="2.8,46 59,46 29.9,5.8 		"/>
	</defs>
	<clipPath id="SVGID_00000106833955460258659180000006601294425785346714_">
		<use xlink:href="#SVGID_1_"  style="overflow:visible;"/>
	</clipPath>
	
		<circle style="opacity:0.25;clip-path:url(#SVGID_00000106833955460258659180000006601294425785346714_);fill:#FF2F92;" cx="2.8" cy="46.1" r="17"/>
	
		<circle style="opacity:0.25;clip-path:url(#SVGID_00000106833955460258659180000006601294425785346714_);fill:#FF2F92;" cx="58.2" cy="45.5" r="17"/>
	
		<circle style="opacity:0.25;clip-path:url(#SVGID_00000106833955460258659180000006601294425785346714_);fill:#FF2F92;" cx="29.9" cy="4.9" r="17"/>
</g>
<g>
	<defs>
		<polygon id="SVGID_00000010302155455242787570000010940355464410466719_" points="77.3,45.6 144.1,46 157.4,4.9 		"/>
	</defs>
	<clipPath id="SVGID_00000161597422198664749760000000920422670249737104_">
		<use xlink:href="#SVGID_00000010302155455242787570000010940355464410466719_"  style="overflow:visible;"/>
	</clipPath>
	
		<circle style="opacity:0.25;clip-path:url(#SVGID_00000161597422198664749760000000920422670249737104_);fill:#FF2F92;" cx="144.1" cy="45" r="12.5"/>
	
		<circle style="opacity:0.25;clip-path:url(#SVGID_00000161597422198664749760000000920422670249737104_);fill:#FF2F92;" cx="157.4" cy="4.9" r="21.5"/>
	
		<circle style="opacity:0.25;clip-path:url(#SVGID_00000161597422198664749760000000920422670249737104_);fill:#FF2F92;" cx="76.3" cy="46.1" r="26.5"/>
</g>
<g>
	<path d="M48.4,24.3c-0.4,0-0.3-0.4-0.1-1.1l0.3-1.3l0.1-0.1c0.8-0.6,1.4-1.2,1.5-1.9c0.1-0.3,0.1-0.7-0.5-0.7
		c-0.6,0-1.3,0.3-1.6,1.8l-0.3,1.3c-0.3,0.2-0.6,0.4-0.8,0.6L47,23l0.7-0.5l-0.2,1c-0.2,1,0,1.2,0.5,1.2c0.4,0,0.9-0.2,1.4-0.8
		c0-0.1-0.1-0.1-0.1-0.2C48.8,24.2,48.5,24.3,48.4,24.3 M48.6,21.6l0.2-1.1c0.2-0.8,0.4-1,0.7-1c0.2,0,0.4,0.2,0.3,0.5
		C49.7,20.5,49.2,21,48.6,21.6L48.6,21.6z"/>
	<path d="M51,26.1c0.5,0,1.3-0.5,1.3-2.1c0-0.7-0.2-1.2-0.4-1.6c-0.2-0.2-0.4-0.4-0.8-0.4c-0.7,0-1.3,0.8-1.3,2.1
		c0,0.7,0.2,1.4,0.6,1.7C50.6,26,50.8,26.1,51,26.1 M51.1,22.3c0.1,0,0.2,0,0.3,0.1c0.2,0.2,0.4,0.7,0.4,1.6c0,0.6,0,1-0.1,1.4
		c-0.1,0.5-0.5,0.6-0.6,0.6c-0.6,0-0.7-1.1-0.7-1.7C50.4,22.6,50.8,22.3,51.1,22.3z"/>
</g>
<g>
	<path d="M11.5,22.8c-0.4,0-0.3-0.4-0.1-1.1l0.3-1.3l0.1-0.1c0.8-0.6,1.4-1.2,1.5-1.9c0.1-0.3,0.1-0.7-0.6-0.7
		c-0.6,0-1.3,0.3-1.6,1.8l-0.3,1.3c-0.3,0.2-0.6,0.4-0.8,0.6l0.1,0.2l0.7-0.5l-0.2,1c-0.2,1,0,1.2,0.5,1.2c0.4,0,0.9-0.2,1.4-0.8
		c0-0.1-0.1-0.1-0.1-0.2C12,22.8,11.7,22.8,11.5,22.8 M11.8,20.1l0.2-1.1c0.2-0.8,0.4-1,0.7-1c0.2,0,0.4,0.2,0.3,0.5
		C12.8,19.1,12.4,19.5,11.8,20.1L11.8,20.1z"/>
	<path d="M14.5,23.8v-2.3c0-0.4,0-0.8,0-0.9c0,0,0,0,0,0c-0.4,0.2-0.7,0.4-1.3,0.7c0,0.1,0,0.1,0.1,0.2c0.3-0.1,0.4-0.2,0.6-0.2
		c0.1,0,0.1,0.2,0.1,0.4v2.1c0,0.5-0.2,0.6-0.6,0.6c0,0,0,0.2,0,0.2c0.3,0,0.6,0,0.9,0c0.3,0,0.5,0,0.8,0c0,0,0-0.2,0-0.2
		C14.6,24.4,14.5,24.4,14.5,23.8"/>
</g>
<g>
	<path d="M29,53c-0.4,0-0.3-0.4-0.1-1.1l0.3-1.3l0.1-0.1c0.8-0.6,1.4-1.2,1.5-1.9c0.1-0.3,0.1-0.7-0.5-0.7c-0.6,0-1.3,0.3-1.6,1.8
		l-0.3,1.3c-0.3,0.2-0.6,0.4-0.8,0.6l0.1,0.2l0.7-0.5l-0.2,1c-0.2,1,0,1.2,0.5,1.2c0.4,0,0.9-0.2,1.4-0.8c0-0.1-0.1-0.1-0.1-0.2
		C29.5,52.9,29.1,53,29,53 M29.2,50.3l0.2-1.1c0.2-0.8,0.4-1,0.7-1c0.2,0,0.4,0.2,0.3,0.5C30.3,49.2,29.9,49.7,29.2,50.3L29.2,50.3z
		"/>
	<path d="M30.6,51.7c0,0.1,0.1,0.3,0.3,0.3c0.1,0,0.3-0.1,0.3-0.3c0-0.1,0-0.1,0-0.1c0,0-0.1-0.1-0.1-0.2c0-0.2,0.2-0.4,0.6-0.4
		c0.2,0,0.6,0.2,0.6,0.8c0,0.4-0.2,0.8-0.5,1.2l-0.5,0.5c-0.6,0.7-0.7,1-0.7,1.4c0,0,0.3,0,0.5,0h1.1c0.2,0,0.5,0,0.5,0
		c0.1-0.3,0.2-0.8,0.2-1c0,0-0.1,0-0.2,0c-0.1,0.5-0.2,0.6-0.5,0.6h-1.2c0-0.3,0.5-0.8,0.5-0.8l0.7-0.6c0.4-0.4,0.7-0.7,0.7-1.2
		c0-0.7-0.6-1-1.1-1C31,50.8,30.6,51.3,30.6,51.7"/>
</g>
<g>
	<path d="M155.3,26c-0.2,0-0.3-0.1-0.5-0.2c-0.2-0.1-0.4-0.3-0.6-0.3c-0.4,0-0.6,0.4-0.7,0.9c0.1,0.1,0.1,0.1,0.2,0
		c0.1-0.3,0.2-0.4,0.4-0.4c0.2,0,0.3,0.1,0.5,0.2c0.2,0.1,0.4,0.3,0.6,0.3c0.4,0,0.7-0.4,0.8-0.9c-0.1,0-0.1-0.1-0.2-0.1
		C155.6,25.9,155.5,26,155.3,26"/>
	<path d="M153.4,32.8c-0.4,0-0.3-0.4-0.1-1.1l0.3-1.3l0.1-0.1c0.8-0.6,1.4-1.2,1.5-1.9c0.1-0.3,0.1-0.7-0.6-0.7
		c-0.6,0-1.3,0.3-1.6,1.8l-0.3,1.3c-0.3,0.2-0.6,0.4-0.8,0.6l0.1,0.2l0.7-0.5l-0.2,1c-0.2,1,0,1.2,0.5,1.2c0.4,0,0.9-0.2,1.4-0.8
		c0-0.1-0.1-0.1-0.1-0.2C153.9,32.7,153.5,32.8,153.4,32.8 M153.6,30.1l0.2-1.1c0.2-0.8,0.4-1,0.7-1c0.2,0,0.4,0.2,0.3,0.5
		C154.7,29,154.3,29.5,153.6,30.1L153.6,30.1z"/>
	<path d="M156.1,34.6c0.5,0,1.3-0.5,1.3-2.1c0-0.7-0.2-1.2-0.4-1.6c-0.2-0.2-0.4-0.4-0.8-0.4c-0.7,0-1.3,0.8-1.3,2.1
		c0,0.7,0.2,1.4,0.6,1.7C155.6,34.5,155.8,34.6,156.1,34.6 M156.1,30.8c0.1,0,0.2,0,0.3,0.1c0.2,0.2,0.4,0.7,0.4,1.6
		c0,0.6,0,1-0.1,1.4c-0.1,0.5-0.5,0.6-0.6,0.6c-0.6,0-0.7-1.1-0.7-1.7C155.4,31.1,155.8,30.8,156.1,30.8z"/>
</g>
<g>
	<path d="M115.3,14.2c-0.2,0-0.3-0.1-0.5-0.2c-0.2-0.1-0.4-0.3-0.6-0.3c-0.4,0-0.6,0.4-0.7,0.9c0.1,0.1,0.1,0.1,0.2,0
		c0.1-0.3,0.2-0.4,0.4-0.4c0.2,0,0.3,0.1,0.5,0.2c0.2,0.1,0.4,0.3,0.6,0.3c0.4,0,0.7-0.4,0.8-0.9c-0.1,0-0.1-0.1-0.2-0.1
		C115.6,14.1,115.5,14.2,115.3,14.2"/>
	<path d="M113.4,21c-0.4,0-0.3-0.4-0.1-1.1l0.3-1.3l0.1-0.1c0.8-0.6,1.4-1.2,1.5-1.9c0.1-0.3,0.1-0.7-0.6-0.7
		c-0.6,0-1.3,0.3-1.6,1.8l-0.3,1.3c-0.3,0.2-0.6,0.4-0.8,0.6l0.1,0.2l0.7-0.5l-0.2,1c-0.2,1,0,1.2,0.5,1.2c0.4,0,0.9-0.2,1.4-0.8
		c0-0.1-0.1-0.1-0.1-0.2C113.8,20.9,113.5,21,113.4,21 M113.6,18.3l0.2-1.1c0.2-0.8,0.4-1,0.7-1c0.2,0,0.4,0.2,0.3,0.5
		C114.7,17.2,114.3,17.7,113.6,18.3L113.6,18.3z"/>
	<path d="M116.5,22v-2.3c0-0.4,0-0.8,0-0.9c0,0,0,0,0,0c-0.4,0.2-0.7,0.4-1.3,0.7c0,0.1,0,0.1,0.1,0.2c0.3-0.1,0.4-0.2,0.6-0.2
		c0.1,0,0.1,0.2,0.1,0.4V22c0,0.5-0.2,0.6-0.6,0.6c0,0,0,0.2,0,0.2c0.3,0,0.6,0,0.9,0c0.3,0,0.5,0,0.8,0c0,0,0-0.2,0-0.2
		C116.6,22.6,116.5,22.5,116.5,22"/>
</g>
<g>
	<path d="M118.7,48.8c-0.2,0-0.3-0.1-0.5-0.2c-0.2-0.1-0.4-0.3-0.6-0.3c-0.4,0-0.6,0.4-0.7,0.9c0.1,0.1,0.1,0.1,0.2,0
		c0.1-0.3,0.2-0.4,0.4-0.4c0.2,0,0.3,0.1,0.5,0.2c0.2,0.1,0.4,0.3,0.6,0.3c0.4,0,0.7-0.4,0.8-0.9c-0.1,0-0.1-0.1-0.2-0.1
		C119,48.7,118.9,48.8,118.7,48.8"/>
	<path d="M116.8,55.6c-0.4,0-0.3-0.4-0.1-1.1l0.3-1.3l0.1-0.1c0.8-0.6,1.4-1.2,1.5-1.9c0.1-0.3,0.1-0.7-0.6-0.7
		c-0.6,0-1.3,0.3-1.6,1.8l-0.3,1.3c-0.3,0.2-0.6,0.4-0.8,0.6l0.1,0.2l0.7-0.5l-0.2,1c-0.2,1,0,1.2,0.5,1.2c0.4,0,0.9-0.2,1.4-0.8
		c0-0.1-0.1-0.1-0.1-0.2C117.3,55.5,117,55.6,116.8,55.6 M117.1,52.9l0.2-1.1c0.2-0.8,0.4-1,0.7-1c0.2,0,0.4,0.2,0.3,0.5
		C118.1,51.8,117.7,52.3,117.1,52.9L117.1,52.9z"/>
	<path d="M118.3,54.3c0,0.1,0.1,0.3,0.3,0.3c0.1,0,0.3-0.1,0.3-0.3c0-0.1,0-0.1,0-0.1c0,0-0.1-0.1-0.1-0.2c0-0.2,0.2-0.4,0.7-0.4
		c0.2,0,0.6,0.2,0.6,0.8c0,0.4-0.2,0.8-0.5,1.2L119,56c-0.6,0.7-0.7,1-0.7,1.4c0,0,0.3,0,0.5,0h1.2c0.2,0,0.5,0,0.5,0
		c0.1-0.3,0.2-0.8,0.2-1c0,0-0.1,0-0.2,0c-0.1,0.5-0.2,0.6-0.5,0.6h-1.2c0-0.3,0.5-0.8,0.5-0.8l0.7-0.6c0.4-0.4,0.7-0.7,0.7-1.2
		c0-0.7-0.6-1-1.1-1C118.8,53.3,118.3,53.9,118.3,54.3"/>
</g>
<g class="st12">
	<path d="M11,39.1c0.5,0,0.6,0.6,0.6,1.3c0,0.1,0,0.1,0,0.2v0.2l-0.2,0.4c-0.5,0.9-1,1.4-1.3,1.4c-0.4,0-0.6-0.3-0.6-0.9
		C9.4,40.5,10.1,39.1,11,39.1 M11.9,41.1l1.5-2.2c-0.1,0-0.3,0-0.4,0s-0.3,0-0.4,0l-0.7,1.3v0v-0.1c0-0.8-0.2-1.3-0.8-1.3
		c-0.8,0-1.9,0.6-2.3,2.2c-0.1,0.3-0.1,0.5-0.1,0.7c0,0.7,0.3,1.1,1.2,1.1c0.6,0,1-0.4,1.7-1.3l0,0.4v0.1c0,0.6,0.2,0.8,0.5,0.8
		c0.4,0,0.6-0.2,0.9-0.8L12.7,42c-0.2,0.3-0.3,0.3-0.5,0.3c-0.2,0-0.3-0.3-0.3-0.7v0L11.9,41.1z"/>
	<path d="M14.7,44.2c0.5,0,1.3-0.5,1.3-2.1c0-0.7-0.2-1.2-0.4-1.6c-0.2-0.2-0.4-0.4-0.8-0.4c-0.7,0-1.3,0.8-1.3,2.1
		c0,0.7,0.2,1.4,0.6,1.7C14.2,44.1,14.5,44.2,14.7,44.2 M14.8,40.3c0.1,0,0.2,0,0.3,0.1c0.2,0.2,0.4,0.7,0.4,1.6c0,0.6,0,1-0.1,1.4
		c-0.1,0.5-0.5,0.6-0.6,0.6c-0.6,0-0.7-1.1-0.7-1.7C14.1,40.6,14.5,40.3,14.8,40.3z"/>
</g>
<g class="st12">
	<path d="M48,39.4c0.5,0,0.6,0.6,0.6,1.3c0,0.1,0,0.1,0,0.2v0.2l-0.2,0.4c-0.5,0.9-1,1.4-1.3,1.4c-0.4,0-0.6-0.3-0.6-0.9
		C46.5,40.7,47.2,39.4,48,39.4 M49,41.3l1.5-2.2c-0.1,0-0.3,0-0.4,0c-0.1,0-0.3,0-0.4,0L49,40.4v0v-0.1c0-0.8-0.2-1.3-0.8-1.3
		c-0.8,0-1.9,0.6-2.3,2.2c-0.1,0.3-0.1,0.5-0.1,0.7c0,0.7,0.3,1.1,1.2,1.1c0.6,0,1-0.4,1.7-1.3l0,0.4v0.1c0,0.6,0.2,0.8,0.5,0.8
		c0.4,0,0.6-0.2,0.9-0.8l-0.2-0.1c-0.2,0.3-0.3,0.3-0.5,0.3c-0.2,0-0.3-0.3-0.3-0.7v0L49,41.3z"/>
	<path d="M52.2,43.5v-2.3c0-0.4,0-0.8,0-0.9c0,0,0,0,0,0c-0.4,0.2-0.7,0.4-1.3,0.7c0,0.1,0,0.1,0.1,0.2c0.3-0.1,0.4-0.2,0.6-0.2
		c0.1,0,0.1,0.2,0.1,0.4v2.1c0,0.5-0.2,0.6-0.6,0.6c0,0,0,0.2,0,0.2c0.3,0,0.6,0,0.9,0c0.3,0,0.5,0,0.8,0c0,0,0-0.2,0-0.2
		C52.3,44.1,52.2,44.1,52.2,43.5"/>
</g>
<g class="st12">
	<path d="M28.5,13.3c0.5,0,0.6,0.6,0.6,1.3c0,0.1,0,0.1,0,0.2V15l-0.2,0.4c-0.5,0.9-1,1.4-1.3,1.4c-0.4,0-0.6-0.3-0.6-0.9
		C27,14.7,27.7,13.3,28.5,13.3 M29.5,15.3l1.5-2.2c-0.1,0-0.3,0-0.4,0c-0.1,0-0.3,0-0.4,0l-0.7,1.3v0v-0.1c0-0.8-0.2-1.3-0.8-1.3
		c-0.8,0-1.9,0.6-2.3,2.2c-0.1,0.3-0.1,0.5-0.1,0.7c0,0.7,0.3,1.1,1.2,1.1c0.6,0,1-0.4,1.7-1.3l0,0.4v0.1c0,0.6,0.2,0.8,0.5,0.8
		c0.4,0,0.6-0.2,0.9-0.8l-0.2-0.1c-0.2,0.3-0.3,0.3-0.5,0.3c-0.2,0-0.3-0.3-0.3-0.7v0L29.5,15.3z"/>
	<path d="M31.2,15.2c0,0.1,0.1,0.3,0.3,0.3c0.1,0,0.3-0.1,0.3-0.3c0-0.1,0-0.1,0-0.1c0,0-0.1-0.1-0.1-0.2c0-0.2,0.2-0.4,0.6-0.4
		c0.2,0,0.6,0.2,0.6,0.8c0,0.4-0.1,0.8-0.5,1.2l-0.5,0.5c-0.6,0.7-0.7,1-0.7,1.4c0,0,0.3,0,0.5,0h1.2c0.2,0,0.5,0,0.5,0
		c0.1-0.3,0.2-0.8,0.2-1c0,0-0.1,0-0.2,0c-0.1,0.5-0.2,0.6-0.5,0.6h-1.2c0-0.3,0.5-0.8,0.5-0.8l0.7-0.6c0.4-0.4,0.7-0.7,0.7-1.2
		c0-0.7-0.6-1-1.1-1C31.6,14.3,31.2,14.8,31.2,15.2"/>
</g>
<g class="st12">
	<path d="M96.7,38.1c-0.2,0-0.3-0.1-0.5-0.2c-0.2-0.1-0.4-0.3-0.6-0.3c-0.4,0-0.6,0.4-0.7,0.9c0.1,0.1,0.1,0.1,0.2,0
		c0.1-0.3,0.2-0.4,0.4-0.4c0.2,0,0.3,0.1,0.5,0.2c0.2,0.1,0.4,0.3,0.6,0.3c0.4,0,0.7-0.4,0.8-0.9c-0.1,0-0.1-0.1-0.2-0.1
		C97,38,96.9,38.1,96.7,38.1"/>
	<path d="M95.6,40.1c0.5,0,0.6,0.6,0.6,1.3c0,0.1,0,0.1,0,0.2v0.2l-0.2,0.4c-0.5,0.9-1,1.4-1.3,1.4c-0.4,0-0.6-0.3-0.6-0.9
		C94,41.5,94.7,40.1,95.6,40.1 M96.5,42.1l1.5-2.2c-0.1,0-0.3,0-0.4,0c-0.1,0-0.3,0-0.4,0l-0.7,1.3v0v-0.1c0-0.8-0.2-1.3-0.8-1.3
		c-0.8,0-1.9,0.6-2.3,2.2c-0.1,0.3-0.1,0.5-0.1,0.7c0,0.7,0.3,1.1,1.2,1.1c0.6,0,1-0.4,1.7-1.3l0,0.4v0.1c0,0.6,0.2,0.8,0.5,0.8
		c0.4,0,0.6-0.2,0.9-0.8L97.3,43c-0.2,0.3-0.3,0.3-0.5,0.3c-0.2,0-0.3-0.3-0.3-0.7v0L96.5,42.1z"/>
	<path d="M99.3,45.2c0.5,0,1.3-0.5,1.3-2.1c0-0.7-0.2-1.2-0.4-1.6c-0.2-0.2-0.4-0.4-0.8-0.4c-0.7,0-1.3,0.8-1.3,2.1
		c0,0.7,0.2,1.4,0.6,1.7C98.8,45.1,99.1,45.2,99.3,45.2 M99.3,41.3c0.1,0,0.2,0,0.3,0.1c0.2,0.2,0.4,0.7,0.4,1.6c0,0.6,0,1-0.1,1.4
		c-0.1,0.5-0.5,0.6-0.6,0.6c-0.6,0-0.7-1.1-0.7-1.7C98.6,41.6,99,41.3,99.3,41.3z"/>
</g>
<g class="st12">
	<path d="M139.6,36.4c-0.2,0-0.3-0.1-0.5-0.2c-0.2-0.1-0.4-0.3-0.6-0.3c-0.4,0-0.6,0.4-0.7,0.9c0.1,0.1,0.1,0.1,0.2,0
		c0.1-0.3,0.2-0.4,0.4-0.4c0.2,0,0.3,0.1,0.5,0.2c0.2,0.1,0.4,0.3,0.6,0.3c0.4,0,0.7-0.4,0.8-0.9c-0.1,0-0.1-0.1-0.2-0.1
		C139.9,36.3,139.8,36.4,139.6,36.4"/>
	<path d="M138.6,38.4c0.5,0,0.6,0.6,0.6,1.3c0,0.1,0,0.1,0,0.2v0.2l-0.2,0.4c-0.5,0.9-1,1.4-1.3,1.4c-0.4,0-0.6-0.3-0.6-0.9
		C137,39.8,137.7,38.4,138.6,38.4 M139.5,40.4l1.5-2.2c-0.1,0-0.3,0-0.4,0c-0.1,0-0.3,0-0.4,0l-0.7,1.3v0v-0.1
		c0-0.8-0.2-1.3-0.8-1.3c-0.8,0-1.9,0.6-2.3,2.2c-0.1,0.3-0.1,0.5-0.1,0.7c0,0.7,0.3,1.1,1.2,1.1c0.6,0,1-0.4,1.7-1.3l0,0.4v0.1
		c0,0.6,0.2,0.8,0.5,0.8c0.4,0,0.6-0.2,0.9-0.8l-0.2-0.1c-0.2,0.3-0.3,0.3-0.5,0.3c-0.2,0-0.3-0.3-0.3-0.7v0L139.5,40.4z"/>
	<path d="M142.7,42.6v-2.3c0-0.4,0-0.8,0-0.9c0,0,0,0,0,0c-0.4,0.2-0.7,0.4-1.3,0.7c0,0.1,0,0.1,0.1,0.2c0.3-0.1,0.4-0.2,0.6-0.2
		c0.1,0,0.1,0.2,0.1,0.4v2.1c0,0.5-0.2,0.6-0.6,0.6c0,0,0,0.2,0,0.2c0.3,0,0.6,0,0.9,0c0.3,0,0.5,0,0.8,0c0,0,0-0.2,0-0.2
		C142.8,43.2,142.7,43.1,142.7,42.6"/>
</g>
<g class="st12">
	<path d="M147.2,12.2c-0.2,0-0.3-0.1-0.5-0.2c-0.2-0.1-0.4-0.3-0.6-0.3c-0.4,0-0.6,0.4-0.7,0.9c0.1,0.1,0.1,0.1,0.2,0
		c0.1-0.3,0.2-0.4,0.4-0.4c0.2,0,0.3,0.1,0.5,0.2c0.2,0.1,0.4,0.3,0.6,0.3c0.4,0,0.7-0.4,0.8-0.9c-0.1,0-0.1-0.1-0.2-0.1
		C147.5,12.1,147.4,12.2,147.2,12.2"/>
	<path d="M146.1,14.2c0.5,0,0.6,0.6,0.6,1.3c0,0.1,0,0.1,0,0.2v0.2l-0.2,0.4c-0.5,0.9-1,1.4-1.3,1.4c-0.4,0-0.6-0.3-0.6-0.9
		C144.5,15.6,145.2,14.2,146.1,14.2 M147,16.2l1.5-2.2c-0.1,0-0.3,0-0.4,0c-0.1,0-0.3,0-0.4,0l-0.7,1.3v0v-0.1
		c0-0.8-0.2-1.3-0.8-1.3c-0.8,0-1.9,0.6-2.3,2.2c-0.1,0.3-0.1,0.5-0.1,0.7c0,0.7,0.3,1.1,1.2,1.1c0.6,0,1-0.4,1.7-1.3l0,0.4v0.1
		c0,0.6,0.2,0.8,0.5,0.8c0.4,0,0.6-0.2,0.9-0.8l-0.2-0.1c-0.2,0.3-0.3,0.3-0.5,0.3c-0.2,0-0.3-0.3-0.3-0.7v0L147,16.2z"/>
	<path d="M148.7,16.1c0,0.1,0.1,0.3,0.3,0.3c0.1,0,0.3-0.1,0.3-0.3c0-0.1,0-0.1,0-0.1c0,0-0.1-0.1-0.1-0.2c0-0.2,0.2-0.4,0.6-0.4
		c0.2,0,0.6,0.2,0.6,0.8c0,0.4-0.2,0.8-0.5,1.2l-0.5,0.5c-0.6,0.7-0.7,1-0.7,1.4c0,0,0.3,0,0.5,0h1.1c0.2,0,0.5,0,0.5,0
		c0.1-0.3,0.2-0.8,0.2-1c0,0-0.1,0-0.2,0c-0.1,0.5-0.2,0.6-0.5,0.6h-1.2c0-0.3,0.5-0.8,0.5-0.8l0.7-0.6c0.4-0.4,0.7-0.7,0.7-1.1
		c0-0.7-0.6-1-1.1-1C149.2,15.2,148.7,15.7,148.7,16.1"/>
</g>
</svg>
