<?xml version="1.0" encoding="utf-8"?>
<!-- Generator: Adobe Illustrator 27.2.0, SVG Export Plug-In . SVG Version: 6.00 Build 0)  -->
<svg version="1.1" id="Layer_1" xmlns="http://www.w3.org/2000/svg" xmlns:xlink="http://www.w3.org/1999/xlink" x="0px" y="0px"
	 viewBox="0 0 161.5 286.6" style="enable-background:new 0 0 161.5 286.6;" xml:space="preserve">
<style type="text/css">
	.st0{fill:#FFFFFF;}
	.st1{opacity:0.22;fill:#FF2F92;}
	.st2{fill:none;stroke:#FF2F92;stroke-miterlimit:10;}
	.st3{opacity:0.35;fill:#FF2F92;}
	.st4{fill:none;stroke:#FF2F92;stroke-linejoin:round;stroke-miterlimit:10;}
	.st5{fill:#FF2F92;}
	.st6{opacity:0.15;fill:#FF2F92;}
	.st7{opacity:0.25;fill:#FF2F92;}
	.st8{font-family:'LinLibertineOI';}
	.st9{font-size:9px;}
	.st10{opacity:0.5;fill:none;stroke:#FF2F92;stroke-miterlimit:10;}
	.st11{opacity:0.75;clip-path:url(#SVGID_00000053520709045388311250000008941221260409188522_);}
	.st12{fill:none;stroke:#FF2F92;stroke-miterlimit:10;stroke-dasharray:3.022,3.022;}
	.st13{fill:none;stroke:#FF2F92;stroke-miterlimit:10;stroke-dasharray:2.9892,2.9892;}
	.st14{fill:#FFFFFF;stroke:#FF2F92;stroke-miterlimit:10;}
</style>
<circle class="st0" cx="80.2" cy="233.9" r="45.9"/>
<circle class="st1" cx="80.2" cy="233.9" r="45.9"/>
<circle class="st2" cx="80.2" cy="233.9" r="45.9"/>
<g>
	<polygon class="st0" points="3.3,37.2 17.9,62.5 59.5,37.2 29.9,5.8 	"/>
	<g>
		<g>
			<path d="M94.1,26.4c-12.2-2.8-25-3.3-37.4-1.5c12.4-2.2,25.2-2,37.6,0.6L94.1,26.4z"/>
			<g>
				<polygon points="97.9,26.9 93.1,23.5 93.9,25.9 92.1,27.8 				"/>
			</g>
		</g>
	</g>
	<polygon class="st3" points="3.3,37.2 17.9,62.5 59.5,37.2 29.9,5.8 	"/>
	<polygon class="st4" points="3.3,37.2 17.9,62.5 59.5,37.2 29.9,5.8 	"/>
	<line class="st4" x1="59.5" y1="37.2" x2="3.3" y2="37.2"/>
	<circle class="st5" cx="29.9" cy="4.9" r="2.5"/>
	<circle class="st5" cx="58.6" cy="36.7" r="2.5"/>
	<circle class="st5" cx="17.7" cy="62.5" r="2.5"/>
	<circle class="st5" cx="3.3" cy="37.2" r="2.5"/>
	<polygon class="st0" points="86,37.2 89.1,60 153.3,37.2 148.2,6.6 	"/>
	<polygon class="st3" points="86,37.2 89.1,60 153.3,37.2 148.2,6.6 	"/>
	<polygon class="st4" points="86,37.2 89.1,60 153.3,37.2 148.2,6.6 	"/>
	<line class="st4" x1="153.3" y1="37.2" x2="86" y2="37.2"/>
	<circle class="st5" cx="148.2" cy="5.8" r="2.5"/>
	<circle class="st5" cx="152.4" cy="36.7" r="2.5"/>
	<circle class="st5" cx="89" cy="60" r="2.5"/>
	<circle class="st5" cx="86" cy="37.2" r="2.5"/>
</g>
<g>
	<rect x="3.5" y="74" class="st0" width="153.2" height="104.9"/>
	<rect x="3.5" y="74" class="st6" width="153.2" height="104.9"/>
	<rect x="3.5" y="143.7" class="st7" width="153.2" height="35.2"/>
	<line class="st2" x1="156.7" y1="143.5" x2="3.5" y2="143.5"/>
</g>
<polygon class="st3" points="42,143.5 40.1,167.4 134,143.5 113.8,105.7 "/>
<polygon class="st4" points="42,143.5 40.1,167.4 134,143.5 113.8,105.7 "/>
<polygon class="st3" points="42,143.5 64.8,172.4 135,143.5 64.2,104.4 "/>
<polygon class="st4" points="42,143.5 64.8,172.4 135,143.5 64.2,104.4 "/>
<circle class="st5" cx="134" cy="143.4" r="2.5"/>
<circle class="st5" cx="65" cy="172.4" r="2.5"/>
<circle class="st5" cx="39.8" cy="167.4" r="2.5"/>
<circle class="st5" cx="42.6" cy="143.7" r="2.5"/>
<text transform="matrix(1 0 0 1 35.3974 151.2348)" class="st8 st9">0</text>
<text transform="matrix(1 0 0 1 131.5017 153.0716)" class="st8 st9">1</text>
<path class="st10" d="M134,143.7c0-25.4-20.6-45.9-45.9-45.9s-45.9,20.6-45.9,45.9"/>
<g>
	<defs>
		<rect id="SVGID_1_" x="3.5" y="74" width="153.2" height="104.9"/>
	</defs>
	<clipPath id="SVGID_00000005233766189591691940000003440102386816138882_">
		<use xlink:href="#SVGID_1_"  style="overflow:visible;"/>
	</clipPath>
	<g style="opacity:0.75;clip-path:url(#SVGID_00000005233766189591691940000003440102386816138882_);">
		<g>
			<path class="st2" d="M78.1,143.4c0-0.5,0-1,0-1.5"/>
			<path class="st12" d="M77.9,138.8c-2.3-31.9-28.9-57-61.4-57c-33,0-59.9,26-61.5,58.6"/>
			<path class="st2" d="M-45,141.9c0,0.5,0,1,0,1.5"/>
		</g>
	</g>
	<g style="opacity:0.75;clip-path:url(#SVGID_00000005233766189591691940000003440102386816138882_);">
		<g>
			<path class="st2" d="M223.1,149.1c0-0.5,0-1,0-1.5"/>
			<path class="st13" d="M222.9,144.6c-2.3-32.4-28.9-62.8-61.4-62.8c-33,0-59.9,26-61.5,58.6"/>
			<path class="st2" d="M100,141.9c0,0.5,0,1,0,1.5"/>
		</g>
	</g>
</g>
<polygon class="st14" points="78,139.9 74.5,139.9 74.5,143.5 78.1,143.4 "/>
<polygon class="st14" points="103.4,139.9 99.9,139.9 99.9,143.5 103.5,143.4 "/>
<polygon class="st14" points="115.4,108.8 113.7,105.8 110.6,107.5 112.4,110.6 "/>
<polygon class="st14" points="67.4,106.5 64.5,104.7 62.6,107.6 65.7,109.5 "/>
<circle class="st5" cx="113.4" cy="105.7" r="2.5"/>
<circle class="st5" cx="64" cy="104.4" r="2.5"/>
<polygon class="st3" points="34.1,233.6 111.7,266.9 126.1,233.6 93.2,189.8 "/>
<polygon class="st4" points="34.1,233.6 111.7,266.9 126.1,233.6 93.2,189.8 "/>
<polygon class="st3" points="34.1,233.6 64.5,277 127.2,233.6 49.7,199.4 "/>
<polygon class="st4" points="34.1,233.6 64.5,277 127.2,233.6 49.7,199.4 "/>
<circle class="st5" cx="126.1" cy="233.5" r="2.5"/>
<circle class="st5" cx="64.1" cy="277" r="2.5"/>
<circle class="st5" cx="111.7" cy="266.9" r="2.5"/>
<circle class="st5" cx="34.7" cy="233.9" r="2.5"/>
<text transform="matrix(1 0 0 1 27.5342 241.4128)" class="st8 st9">0</text>
<text transform="matrix(1 0 0 1 127.3752 241.4128)" class="st8 st9">1</text>
<circle class="st5" cx="93.5" cy="189.2" r="2.5"/>
<circle class="st5" cx="49.3" cy="199.4" r="2.5"/>
<line class="st2" x1="126.1" y1="233.6" x2="34.3" y2="233.9"/>
</svg>
