<?xml version="1.0" encoding="utf-8"?>
<!-- Generator: Adobe Illustrator 25.3.1, SVG Export Plug-In . SVG Version: 6.00 Build 0)  -->
<svg version="1.1" id="Layer_1" xmlns="http://www.w3.org/2000/svg" xmlns:xlink="http://www.w3.org/1999/xlink" x="0px" y="0px"
	 viewBox="0 0 129.2 77.2" style="enable-background:new 0 0 129.2 77.2;" xml:space="preserve">
<style type="text/css">
	.st0{opacity:0.1;fill:url(#SVGID_1_);}
	.st1{fill:none;}
	.st2{fill:#E3E3E3;}
	.st3{fill:none;stroke:#000000;stroke-width:0.3081;stroke-linejoin:round;stroke-miterlimit:10;}
	.st4{fill:#D6D6D6;}
	.st5{fill:#F2F2F2;}
	.st6{opacity:0.3;fill:#1B1F8A;}
	.st7{opacity:0.2;fill:#1B1F8A;}
	.st8{fill:none;stroke:#000000;stroke-width:0.3081;stroke-miterlimit:10;stroke-dasharray:1.2325;}
	.st9{fill:none;stroke:#848484;stroke-width:0.3081;stroke-linejoin:round;stroke-miterlimit:10;}
	.st10{fill:none;stroke:#000000;stroke-width:0.3081;stroke-miterlimit:10;}
	.st11{fill:none;stroke:#000000;stroke-width:0.4622;stroke-linejoin:round;stroke-miterlimit:10;}
	.st12{fill:#FFFFFF;}
</style>
<linearGradient id="SVGID_1_" gradientUnits="userSpaceOnUse" x1="26.9433" y1="76.4227" x2="51.4106" y2="35.7478">
	<stop  offset="0" style="stop-color:#FFFFFF"/>
	<stop  offset="1" style="stop-color:#000000"/>
</linearGradient>
<polygon class="st0" points="71.7,64.8 79,46.4 42,31.5 11.8,38.8 3.7,56.3 27,78.5 "/>
<rect x="45.4" y="29" class="st1" width="36.8" height="37.1"/>
<path class="st2" d="M3.5,54.2c7.6,7.4,15.2,14.9,22.8,22.3c-0.4-16.8-0.7-33.6-1.1-50.4L0.9,9.3C1.8,24.3,2.6,39.3,3.5,54.2"/>
<path class="st3" d="M0.9,9.3c0.9,15,1.7,30,2.6,44.9c7.6,7.4,15.2,14.9,22.8,22.3"/>
<path class="st4" d="M39.5,22.9C34.7,24,30,25,25.2,26.1c0.4,16.8,0.7,33.6,1.1,50.4L70,62.6c0.9-15.7,1.9-31.4,2.8-47.2
	c-4.9,1.1-9.8,2.2-14.7,3.3"/>
<path class="st3" d="M26.3,76.5L70,62.6c0.9-15.7,1.9-31.4,2.8-47.2c-4.9,1.1-9.8,2.2-14.7,3.3"/>
<path class="st3" d="M39.5,22.9"/>
<path class="st5" d="M58.1,18.7c4.9-1.1,9.8-2.2,14.7-3.3c-9.6-4.6-19.3-9.1-28.9-13.7c-14.3,2.5-28.6,5-42.9,7.5l24.3,16.8
	C30,25,34.7,24,39.5,22.9"/>
<path class="st3" d="M39.5,22.9"/>
<path class="st3" d="M58,8.5C53.3,6.3,48.6,4,43.8,1.8c-14.3,2.5-28.6,5-42.9,7.5"/>
<path class="st3" d="M72.8,15.5c-3.8-1.8-7.6-3.6-11.4-5.4"/>
<path class="st6" d="M39.5,22.9L44.1,44c4.7-8.4,9.3-16.8,14-25.3"/>
<path class="st7" d="M58.1,18.8c0-1.9,0.1-3.7,0.1-5.6c-12.7,0.7-25.5,1.4-38.2,2.1c6.5,2.5,13,5.1,19.5,7.6"/>
<path class="st8" d="M39.5,22.9c6.2-1.4,12.4-2.8,18.6-4.2"/>
<rect x="-2.7" y="-8.7" class="st1" width="96.5" height="96.5"/>
<rect x="-2.7" y="-8.7" class="st1" width="96.5" height="96.5"/>
<circle cx="20" cy="15.3" r="0.8"/>
<circle cx="58.2" cy="13.2" r="0.8"/>
<circle cx="44.1" cy="44" r="0.8"/>
<path class="st9" d="M58.1,18.7c4.9-1.1,9.8-2.2,14.7-3.3"/>
<path class="st9" d="M26.3,76.5c-0.4-16.8-0.7-33.6-1.1-50.4L0.9,9.3"/>
<path class="st9" d="M39.5,22.9C34.7,24,30,25,25.2,26.1c0.4,16.8,0.7,33.6,1.1,50.4"/>
<path class="st9" d="M0.9,9.3l24.3,16.8C30,25,34.7,24,39.5,22.9"/>
<path class="st10" d="M39.5,22.9L44.1,44c4.7-8.4,9.3-16.8,14-25.3"/>
<path class="st10" d="M58.1,18.8c0-1.9,0.1-3.7,0.1-5.6c-12.7,0.7-25.5,1.4-38.2,2.1c6.5,2.5,13,5.1,19.5,7.6"/>
<polygon class="st11" points="58.9,8.9 43.8,1.8 0.9,9.3 3.5,54.2 26.3,76.5 70,62.6 72.8,15.5 60.7,9.7 "/>
<g>
	<polygon class="st12" points="90.3,7.9 123.1,28.9 100.2,67.6 	"/>
	<polygon class="st7" points="90.3,7.9 123.1,28.9 100.2,67.6 	"/>
	<polygon class="st10" points="90.3,7.9 123.1,28.9 100.2,67.6 	"/>
	<line class="st8" x1="117.3" y1="38.7" x2="95.8" y2="40.9"/>
	<circle cx="90.3" cy="7.9" r="0.8"/>
	<circle cx="123.1" cy="28.9" r="0.8"/>
	<circle cx="100.2" cy="67.6" r="0.8"/>
</g>
<line class="st10" x1="100.2" y1="67.6" x2="90.3" y2="7.9"/>
<line class="st10" x1="123.1" y1="28.9" x2="100.2" y2="67.6"/>
<line class="st10" x1="90.3" y1="7.9" x2="123.1" y2="28.9"/>
<g>
	<g>
		<line class="st10" x1="96.9" y1="68" x2="87" y2="8.6"/>
		<g>
			<rect x="95.9" y="67.9" transform="matrix(0.9864 -0.1644 0.1644 0.9864 -9.8687 16.8586)" width="2" height="0.3"/>
		</g>
		<g>
			<rect x="86" y="8.5" transform="matrix(0.9864 -0.1644 0.1644 0.9864 -0.2382 14.4157)" width="2" height="0.3"/>
		</g>
	</g>
</g>
<g>
	<g>
		<line class="st10" x1="125.9" y1="31" x2="103.2" y2="69.6"/>
		<g>
			<rect x="125.8" y="30" transform="matrix(0.5075 -0.8617 0.8617 0.5075 35.2783 123.8033)" width="0.3" height="2"/>
		</g>
		<g>
			<rect x="103.1" y="68.6" transform="matrix(0.5074 -0.8617 0.8617 0.5074 -9.0873 123.2347)" width="0.3" height="2"/>
		</g>
	</g>
</g>
<g>
	<g>
		<line class="st10" x1="92.5" y1="5.2" x2="125" y2="25.9"/>
		<g>
			<rect x="91.5" y="5" transform="matrix(0.5376 -0.8432 0.8432 0.5376 38.4028 80.3823)" width="2" height="0.3"/>
		</g>
		<g>
			<rect x="124" y="25.8" transform="matrix(0.5376 -0.8432 0.8432 0.5376 35.9556 117.4008)" width="2" height="0.3"/>
		</g>
	</g>
</g>
</svg>
