<?xml version="1.0" encoding="utf-8"?>
<!-- Generator: Adobe Illustrator 25.3.1, SVG Export Plug-In . SVG Version: 6.00 Build 0)  -->
<svg version="1.1" xmlns="http://www.w3.org/2000/svg" xmlns:xlink="http://www.w3.org/1999/xlink" x="0px" y="0px"
	 viewBox="0 0 510.2 255.1" style="enable-background:new 0 0 510.2 255.1;" xml:space="preserve">
<style type="text/css">
	.st0{opacity:0.15;}
	.st1{clip-path:url(#SVGID_2_);fill:url(#SVGID_3_);}
	.st2{fill:#FFFFFF;}
	.st3{opacity:0.3;}
	.st4{opacity:0.9;clip-path:url(#SVGID_5_);}
	.st5{clip-path:url(#SVGID_7_);fill:#1B1F8A;}
	.st6{opacity:0.5;clip-path:url(#SVGID_9_);}
	.st7{clip-path:url(#SVGID_11_);fill:#1B1F8A;}
	.st8{opacity:0.2;clip-path:url(#SVGID_13_);}
	.st9{clip-path:url(#SVGID_15_);fill:#1B1F8A;}
	.st10{fill:none;stroke:#6072D8;stroke-width:2.9353;stroke-linejoin:round;stroke-miterlimit:10;}
	.st11{fill:#6072D8;}
	.st12{fill:none;stroke:#000000;stroke-width:1.1741;stroke-miterlimit:10;}
	.st13{fill:none;stroke:#6072D8;stroke-width:1.5146;stroke-miterlimit:10.0002;}
	.st14{fill:#253784;}
	.st15{font-family:'LinLibertineO';}
	.st16{font-size:23.4809px;}
	.st17{fill:none;stroke:#6072D8;stroke-width:1.5148;stroke-miterlimit:10.001;}
	.st18{font-size:23.4831px;}
	.st19{fill:none;stroke:#6072D8;stroke-width:1.5146;stroke-miterlimit:10;}
	.st20{font-size:23.4785px;}
	.st21{fill:none;stroke:#6072D8;stroke-width:1.5146;stroke-miterlimit:9.9998;}
	.st22{font-size:23.481px;}
	.st23{opacity:0.15;fill:url(#SVGID_16_);}
	.st24{opacity:0.7;}
	.st25{fill:#B7BBE5;}
	.st26{fill:#BFC3EF;}
	.st27{fill:#A2A4CB;}
	.st28{fill:#9496BA;}
	.st29{fill:#999BC0;}
	.st30{fill:#DEE0FF;}
	.st31{fill:#E1E3FF;}
	.st32{fill:#D9DBFF;}
	.st33{fill:#D1D3FF;}
	.st34{fill:#D4D6FF;}
	.st35{opacity:5.000000e-02;}
	.st36{clip-path:url(#SVGID_18_);fill:none;stroke:#1B1F8A;stroke-width:1.4507;stroke-miterlimit:10;}
	.st37{clip-path:url(#SVGID_20_);fill:none;stroke:#1B1F8A;stroke-width:1.4507;stroke-miterlimit:10;}
	.st38{clip-path:url(#SVGID_22_);fill:none;stroke:#1B1F8A;stroke-width:1.4507;stroke-miterlimit:10;}
	.st39{clip-path:url(#SVGID_24_);fill:none;stroke:#1B1F8A;stroke-width:1.4507;stroke-miterlimit:10;}
	.st40{clip-path:url(#SVGID_26_);fill:none;stroke:#1B1F8A;stroke-width:1.4507;stroke-miterlimit:10;}
	.st41{clip-path:url(#SVGID_28_);fill:none;stroke:#1B1F8A;stroke-width:1.4507;stroke-miterlimit:10;}
	.st42{clip-path:url(#SVGID_30_);fill:none;stroke:#1B1F8A;stroke-width:1.4507;stroke-miterlimit:10;}
	.st43{clip-path:url(#SVGID_32_);fill:none;stroke:#1B1F8A;stroke-width:1.4507;stroke-miterlimit:10;}
	.st44{clip-path:url(#SVGID_34_);fill:none;stroke:#1B1F8A;stroke-width:1.4507;stroke-miterlimit:10;}
	.st45{clip-path:url(#SVGID_36_);fill:none;stroke:#1B1F8A;stroke-width:1.4507;stroke-miterlimit:10;}
	.st46{clip-path:url(#SVGID_38_);fill:none;stroke:#1B1F8A;stroke-width:1.4507;stroke-miterlimit:10;}
	.st47{clip-path:url(#SVGID_40_);fill:none;stroke:#1B1F8A;stroke-width:1.4507;stroke-miterlimit:10;}
	.st48{font-family:'LinLibertineOI';}
	.st49{font-size:22.1963px;}
	.st50{font-size:23.2118px;}
	.st51{fill:#BF1F9F;}
	.st52{fill:none;stroke:#6072D8;stroke-width:3.6268;stroke-linecap:round;stroke-miterlimit:10;}
	.st53{fill:none;stroke:#6072D8;stroke-width:3.6268;stroke-miterlimit:10;}
	.st54{fill:none;stroke:#6072D8;stroke-width:5.0776;stroke-miterlimit:10;}
	.st55{fill:none;stroke:#BF1F9F;stroke-width:2.9015;stroke-linecap:square;stroke-miterlimit:10;}
	.st56{fill:none;stroke:#000000;stroke-width:1.4507;stroke-miterlimit:10;}
</style>
<g id="Layer_2">
</g>
<g id="Layer_1">
	<g>
		<g>
			<g>
				<path d="M30.4,33.8c0,1.9-1.5,3.4-3.4,3.4s-3.4-1.5-3.4-3.4s1.5-3.4,3.4-3.4S30.4,31.9,30.4,33.8"/>
				<path d="M148.5,78.6c0,1.9-1.5,3.4-3.4,3.4s-3.4-1.5-3.4-3.4s1.5-3.4,3.4-3.4S148.5,76.8,148.5,78.6"/>
				<path d="M269.7,31.6c0,1.9-1.5,3.4-3.4,3.4s-3.4-1.5-3.4-3.4s1.5-3.4,3.4-3.4S269.7,29.7,269.7,31.6"/>
				<path d="M55.7,172c0,1.9-1.5,3.4-3.4,3.4s-3.4-1.5-3.4-3.4s1.5-3.4,3.4-3.4C54.1,168.6,55.7,170.1,55.7,172"/>
				<path d="M252.7,168.6c0,1.9-1.5,3.4-3.4,3.4s-3.4-1.5-3.4-3.4s1.5-3.4,3.4-3.4C251.1,165.1,252.7,166.7,252.7,168.6"/>
				<path d="M153.9,247.4c0,1.9-1.5,3.4-3.4,3.4s-3.4-1.5-3.4-3.4s1.5-3.4,3.4-3.4C152.3,244,153.9,245.5,153.9,247.4"/>
				<path d="M151.9,7.4c0,1.9-1.5,3.4-3.4,3.4s-3.4-1.5-3.4-3.4s1.5-3.4,3.4-3.4S151.9,5.5,151.9,7.4"/>
			</g>
			<g class="st0">
				<g>
					<g>
						<defs>
							<polygon id="SVGID_1_" points="5.9,176 150.4,249.2 249.2,168.9 91,102.8 							"/>
						</defs>
						<clipPath id="SVGID_2_">
							<use xlink:href="#SVGID_1_"  style="overflow:visible;"/>
						</clipPath>
						
							<linearGradient id="SVGID_3_" gradientUnits="userSpaceOnUse" x1="54.0013" y1="178.6082" x2="56.3495" y2="178.6082" gradientTransform="matrix(78.5768 55.7209 55.7209 -78.5768 -14190.6934 11114.4443)">
							<stop  offset="1.301126e-02" style="stop-color:#001F20;stop-opacity:0"/>
							<stop  offset="1" style="stop-color:#231F20"/>
						</linearGradient>
						<polygon class="st1" points="87.3,-12 318.3,151.8 167.8,364.1 -63.2,200.3 						"/>
					</g>
				</g>
			</g>
			<g>
				<polygon class="st2" points="27,33.4 148.8,7.4 266.9,31.6 249.2,168.9 150.4,247.4 52.2,172 				"/>
				<g class="st3">
					<g>
						<g>
							<g>
								<defs>
									<rect id="SVGID_4_" x="27" y="7.4" width="239.8" height="240"/>
								</defs>
								<clipPath id="SVGID_5_">
									<use xlink:href="#SVGID_4_"  style="overflow:visible;"/>
								</clipPath>
								<g class="st4">
									<g>
										<g>
											<g>
												<defs>
													<rect id="SVGID_6_" x="27" y="33.4" width="123.4" height="214"/>
												</defs>
												<clipPath id="SVGID_7_">
													<use xlink:href="#SVGID_6_"  style="overflow:visible;"/>
												</clipPath>
												<polygon class="st5" points="150.4,247.4 145.1,78.1 27,33.4 52.2,172 												"/>
											</g>
										</g>
									</g>
								</g>
							</g>
						</g>
						<g>
							<g>
								<defs>
									<rect id="SVGID_8_" x="27" y="7.4" width="239.8" height="240"/>
								</defs>
								<clipPath id="SVGID_9_">
									<use xlink:href="#SVGID_8_"  style="overflow:visible;"/>
								</clipPath>
								<g class="st6">
									<g>
										<g>
											<g>
												<defs>
													<rect id="SVGID_10_" x="145.1" y="31.6" width="121.8" height="215.9"/>
												</defs>
												<clipPath id="SVGID_11_">
													<use xlink:href="#SVGID_10_"  style="overflow:visible;"/>
												</clipPath>
												<polygon class="st7" points="150.4,247.4 145.1,78.1 266.9,31.6 249.2,168.9 												"/>
											</g>
										</g>
									</g>
								</g>
							</g>
						</g>
						<g>
							<g>
								<defs>
									<rect id="SVGID_12_" x="27" y="7.4" width="239.8" height="240"/>
								</defs>
								<clipPath id="SVGID_13_">
									<use xlink:href="#SVGID_12_"  style="overflow:visible;"/>
								</clipPath>
								<g class="st8">
									<g>
										<g>
											<g>
												<defs>
													<rect id="SVGID_14_" x="27.2" y="7.4" width="239.6" height="70.7"/>
												</defs>
												<clipPath id="SVGID_15_">
													<use xlink:href="#SVGID_14_"  style="overflow:visible;"/>
												</clipPath>
												<polygon class="st9" points="27.2,33.8 145.1,78.1 266.9,31.6 148.8,7.4 												"/>
											</g>
										</g>
									</g>
								</g>
							</g>
						</g>
					</g>
				</g>
				<polyline class="st10" points="67,102.8 148,156.2 257.3,105.9 				"/>
				<line class="st10" x1="145.1" y1="78.1" x2="148.8" y2="7.4"/>
				<line class="st10" x1="150.4" y1="247.4" x2="27.2" y2="33.8"/>
				<polyline class="st10" points="67,102.8 148.8,189.8 249.2,168.9 				"/>
				<line class="st10" x1="52.2" y1="172" x2="67" y2="102.8"/>
				<line class="st10" x1="67" y1="102.8" x2="145.1" y2="78.1"/>
				<line class="st10" x1="27.2" y1="33.8" x2="145.1" y2="78.1"/>
				<line class="st10" x1="266.9" y1="31.6" x2="145.1" y2="78.1"/>
				<line class="st10" x1="257.3" y1="105.9" x2="145.1" y2="78.1"/>
				<polygon class="st10" points="27.1,33.4 148.9,7.4 267,31.6 249.3,168.9 150.5,247.4 52.3,172 				"/>
				<path d="M27,38.1c-2.4,0-4.3-1.9-4.3-4.3s1.9-4.3,4.3-4.3s4.3,1.9,4.3,4.3S29.4,38.1,27,38.1"/>
				<path class="st11" d="M27,30.4c1.9,0,3.4,1.5,3.4,3.4c0,1.9-1.5,3.4-3.4,3.4s-3.4-1.5-3.4-3.4C23.6,31.9,25.1,30.4,27,30.4
					 M27,28.6c-2.9,0-5.2,2.3-5.2,5.2c0,2.8,2.3,5.2,5.2,5.2s5.2-2.3,5.2-5.2C32.2,31,29.9,28.6,27,28.6"/>
				<path d="M145.1,82.9c-2.4,0-4.3-1.9-4.3-4.3s1.9-4.3,4.3-4.3c2.4,0,4.3,1.9,4.3,4.3C149.4,81,147.5,82.9,145.1,82.9"/>
				<path class="st11" d="M145.1,75.2c1.9,0,3.4,1.5,3.4,3.4S147,82,145.1,82s-3.4-1.5-3.4-3.4C141.7,76.8,143.2,75.2,145.1,75.2
					 M145.1,73.5c-2.9,0-5.2,2.3-5.2,5.2c0,2.8,2.3,5.2,5.2,5.2s5.2-2.3,5.2-5.2S148,73.5,145.1,73.5"/>
				<path d="M266.3,35.9c-2.4,0-4.3-1.9-4.3-4.3s1.9-4.3,4.3-4.3s4.3,1.9,4.3,4.3C270.6,33.9,268.7,35.9,266.3,35.9"/>
				<path class="st11" d="M266.3,28.2c1.9,0,3.4,1.5,3.4,3.4s-1.5,3.4-3.4,3.4s-3.4-1.5-3.4-3.4S264.4,28.2,266.3,28.2 M266.3,26.4
					c-2.9,0-5.2,2.3-5.2,5.2c0,2.8,2.3,5.2,5.2,5.2s5.2-2.3,5.2-5.2C271.5,28.7,269.2,26.4,266.3,26.4"/>
				<path d="M52.2,176.3c-2.4,0-4.3-1.9-4.3-4.3s1.9-4.3,4.3-4.3s4.3,1.9,4.3,4.3S54.6,176.3,52.2,176.3"/>
				<path class="st11" d="M52.2,168.6c1.9,0,3.4,1.5,3.4,3.4s-1.5,3.4-3.4,3.4s-3.4-1.5-3.4-3.4S50.4,168.6,52.2,168.6 M52.2,166.8
					c-2.9,0-5.2,2.3-5.2,5.2s2.3,5.2,5.2,5.2s5.2-2.3,5.2-5.2S55.1,166.8,52.2,166.8"/>
				<path d="M249.2,172.9c-2.4,0-4.3-1.9-4.3-4.3s1.9-4.3,4.3-4.3c2.4,0,4.3,1.9,4.3,4.3S251.6,172.9,249.2,172.9"/>
				<path class="st11" d="M249.2,165.1c1.9,0,3.4,1.5,3.4,3.4s-1.5,3.4-3.4,3.4s-3.4-1.5-3.4-3.4
					C245.8,166.7,247.3,165.1,249.2,165.1 M249.2,163.4c-2.9,0-5.2,2.3-5.2,5.2s2.3,5.2,5.2,5.2s5.2-2.3,5.2-5.2
					S252.1,163.4,249.2,163.4"/>
				<path d="M150.4,251.7c-2.4,0-4.3-1.9-4.3-4.3c0-2.4,1.9-4.3,4.3-4.3c2.4,0,4.3,1.9,4.3,4.3S152.8,251.7,150.4,251.7"/>
				<path class="st11" d="M150.4,244c1.9,0,3.4,1.5,3.4,3.4s-1.5,3.4-3.4,3.4s-3.4-1.5-3.4-3.4S148.6,244,150.4,244 M150.4,242.2
					c-2.9,0-5.2,2.3-5.2,5.2s2.3,5.2,5.2,5.2s5.2-2.3,5.2-5.2C155.6,244.6,153.3,242.2,150.4,242.2"/>
				<path d="M148.5,11.7c-2.4,0-4.3-1.9-4.3-4.3s1.9-4.3,4.3-4.3c2.4,0,4.3,1.9,4.3,4.3C152.8,9.7,150.9,11.7,148.5,11.7"/>
				<path class="st11" d="M148.5,4c1.9,0,3.4,1.5,3.4,3.4s-1.5,3.4-3.4,3.4s-3.4-1.5-3.4-3.4S146.6,4,148.5,4 M148.5,2.2
					c-2.9,0-5.2,2.3-5.2,5.2c0,2.8,2.3,5.2,5.2,5.2s5.2-2.3,5.2-5.2S151.4,2.2,148.5,2.2"/>
				<path class="st11" d="M72.8,108.6c-2.4,2.4-6.2,2.4-8.6,0s-2.4-6.2,0-8.6s6.2-2.4,8.6,0C75.2,102.3,75.2,106.2,72.8,108.6"/>
				<path class="st11" d="M260.9,109.5c-2,2-5.1,2-7.1,0s-2-5.2,0-7.1c2-2,5.2-2,7.1,0C262.8,104.3,262.8,107.5,260.9,109.5"/>
				<polygon class="st12" points="27,33.4 148.8,7.4 266.9,31.6 249.2,168.9 150.4,247.4 52.2,172 				"/>
				<polyline class="st12" points="27,33.4 145.1,78.1 266.9,31.6 				"/>
				<line class="st12" x1="150.4" y1="247.4" x2="266.9" y2="31.6"/>
				<line class="st12" x1="27" y1="33.4" x2="266.9" y2="31.6"/>
				<line class="st12" x1="145.1" y1="78.1" x2="52.2" y2="172"/>
				<line class="st12" x1="145.1" y1="78.1" x2="150.4" y2="247.4"/>
				
					<rect x="206.8" y="40.8" transform="matrix(0.9459 -0.3245 0.3245 0.9459 -4.8134 73.7316)" class="st2" width="23.7" height="21"/>
				
					<rect x="206.8" y="40.8" transform="matrix(0.9459 -0.3245 0.3245 0.9459 -4.8134 73.7316)" class="st13" width="23.7" height="21"/>
			</g>
			<text transform="matrix(0.9459 -0.3245 0.3245 0.9459 212.1545 60.4198)" class="st14 st15 st16">-1</text>
			<g>
				
					<rect x="42.8" y="65.5" transform="matrix(0.8744 -0.4853 0.4853 0.8744 -30.4924 34.2607)" class="st2" width="16.2" height="21"/>
				
					<rect x="42.8" y="65.5" transform="matrix(0.8744 -0.4853 0.4853 0.8744 -30.4924 34.2607)" class="st17" width="16.2" height="21"/>
			</g>
			<text transform="matrix(0.8744 -0.4853 0.4853 0.8744 49.3134 84.4375)" class="st14 st15 st18">0</text>
			<g>
				
					<rect x="93.7" y="80.9" transform="matrix(0.9611 -0.2762 0.2762 0.9611 -21.2818 31.6728)" class="st2" width="16.2" height="21"/>
				
					<rect x="93.7" y="80.9" transform="matrix(0.9611 -0.2762 0.2762 0.9611 -21.2818 31.6728)" class="st19" width="16.2" height="21"/>
			</g>
			<text transform="matrix(0.9611 -0.2762 0.2762 0.9611 98.2601 99.3596)" class="st14 st15 st16">0</text>
			<g>
				
					<rect x="50.4" y="123.9" transform="matrix(0.2079 -0.9782 0.9782 0.2079 -80.8558 164.0879)" class="st2" width="21" height="16.2"/>
				
					<rect x="50.4" y="123.9" transform="matrix(0.2079 -0.9782 0.9782 0.2079 -80.8558 164.0879)" class="st17" width="21" height="16.2"/>
			</g>
			<text transform="matrix(0.9781 0.2079 -0.2079 0.9781 54.0218 137.4645)" class="st14 st15 st20">0</text>
			<g>
				
					<rect x="200.6" y="168.1" transform="matrix(0.9977 -6.760168e-02 6.760168e-02 0.9977 -11.5959 14.517)" class="st2" width="16.2" height="21"/>
				
					<rect x="200.6" y="168.1" transform="matrix(0.9977 -6.760168e-02 6.760168e-02 0.9977 -11.5959 14.517)" class="st21" width="16.2" height="21"/>
			</g>
			<text transform="matrix(0.9977 -6.770000e-02 6.770000e-02 0.9977 203.7734 185.552)" class="st14 st15 st22">2</text>
			<g>
				
					<rect x="164.8" y="133" transform="matrix(0.9611 -0.2762 0.2762 0.9611 -32.9062 53.3337)" class="st2" width="16.2" height="21"/>
				
					<rect x="164.8" y="133" transform="matrix(0.9611 -0.2762 0.2762 0.9611 -32.9062 53.3337)" class="st19" width="16.2" height="21"/>
			</g>
			<text transform="matrix(0.9611 -0.2762 0.2762 0.9611 169.3757 151.51)" class="st14 st15 st16">3</text>
			<g>
				
					<rect x="99" y="165.5" transform="matrix(0.8744 -0.4853 0.4853 0.8744 -71.9619 74.0821)" class="st2" width="16.2" height="21"/>
				
					<rect x="99" y="165.5" transform="matrix(0.8744 -0.4853 0.4853 0.8744 -71.9619 74.0821)" class="st17" width="16.2" height="21"/>
			</g>
			<text transform="matrix(0.8744 -0.4853 0.4853 0.8744 105.4917 184.4946)" class="st14 st15 st18">1</text>
			<g>
				<rect x="138.9" y="40.9" class="st2" width="16.2" height="21"/>
				<rect x="138.9" y="40.9" class="st19" width="16.2" height="21"/>
			</g>
			<text transform="matrix(1 0 0 1 141.4943 58.224)" class="st14 st15 st22">1</text>
			<g>
				
					<rect x="185.3" y="84.5" transform="matrix(0.2745 -0.9616 0.9616 0.2745 53.0253 255.3899)" class="st2" width="21" height="16.2"/>
				
					<rect x="185.3" y="84.5" transform="matrix(0.2745 -0.9616 0.9616 0.2745 53.0253 255.3899)" class="st13" width="21" height="16.2"/>
			</g>
			<text transform="matrix(0.9616 0.2744 -0.2744 0.9616 188.6059 97.5828)" class="st14 st15 st16">1</text>
		</g>
	</g>
	<linearGradient id="SVGID_16_" gradientUnits="userSpaceOnUse" x1="270.6" y1="140" x2="472.3" y2="140">
		<stop  offset="0" style="stop-color:#000000;stop-opacity:0"/>
		<stop  offset="0.5401" style="stop-color:#231F20;stop-opacity:0.9387"/>
		<stop  offset="1" style="stop-color:#000000"/>
	</linearGradient>
	<polygon class="st23" points="270.6,176.4 362.5,242.4 435.9,209.9 472.3,103.7 381,37.6 305.1,67.7 	"/>
	<polygon class="st2" points="393.5,227.5 454.9,207 496.2,152.8 493.7,89.9 457,32 393.9,16.7 329.9,32 293.6,88.6 290.7,152.8 
		331.5,206.7 	"/>
	<g>
		<g>
			<g>
				<g class="st24">
					<polygon class="st25" points="393.9,16.7 329.9,32 457,32 					"/>
					<polygon class="st26" points="457,32 496.3,152.8 493.7,89.9 					"/>
					<polygon class="st27" points="496.2,152.8 393.5,227.5 454.9,207 					"/>
					<polygon class="st28" points="290.7,152.8 331.5,206.7 393.5,227.5 					"/>
					<polygon class="st29" points="329.9,32 293.6,88.6 290.7,152.8 					"/>
					<polygon class="st30" points="329.9,32 393.5,117.5 457,32 					"/>
					<polygon class="st31" points="457,32 393.5,117.5 496.3,152.8 					"/>
					<polygon class="st32" points="393.5,117.5 393.5,227.5 496.3,152.8 					"/>
					<polygon class="st33" points="393.5,117.5 290.7,152.8 393.5,227.5 					"/>
					<polygon class="st34" points="393.5,117.5 329.9,32 290.7,152.8 					"/>
				</g>
				<g class="st35">
					<g>
						<g>
							<g>
								<defs>
									<rect id="SVGID_17_" x="292.9" y="16.1" width="201.5" height="201.4"/>
								</defs>
								<clipPath id="SVGID_18_">
									<use xlink:href="#SVGID_17_"  style="overflow:visible;"/>
								</clipPath>
								<line class="st36" x1="393.4" y1="122.8" x2="293.6" y2="88.6"/>
							</g>
						</g>
						<g>
							<g>
								<defs>
									<rect id="SVGID_19_" x="292.9" y="16.1" width="201.5" height="201.4"/>
								</defs>
								<clipPath id="SVGID_20_">
									<use xlink:href="#SVGID_19_"  style="overflow:visible;"/>
								</clipPath>
								<line class="st37" x1="393.4" y1="122.8" x2="393.9" y2="16.7"/>
							</g>
						</g>
						<g>
							<g>
								<defs>
									<rect id="SVGID_21_" x="292.9" y="16.1" width="201.5" height="201.4"/>
								</defs>
								<clipPath id="SVGID_22_">
									<use xlink:href="#SVGID_21_"  style="overflow:visible;"/>
								</clipPath>
								<line class="st38" x1="393.4" y1="122.8" x2="493.7" y2="89.9"/>
							</g>
						</g>
						<g>
							<g>
								<defs>
									<rect id="SVGID_23_" x="292.9" y="16.1" width="201.5" height="201.4"/>
								</defs>
								<clipPath id="SVGID_24_">
									<use xlink:href="#SVGID_23_"  style="overflow:visible;"/>
								</clipPath>
								<line class="st39" x1="393.4" y1="122.8" x2="331.5" y2="206.7"/>
							</g>
						</g>
						<g>
							<g>
								<defs>
									<rect id="SVGID_25_" x="292.9" y="16.1" width="201.5" height="201.4"/>
								</defs>
								<clipPath id="SVGID_26_">
									<use xlink:href="#SVGID_25_"  style="overflow:visible;"/>
								</clipPath>
								<line class="st40" x1="393.4" y1="122.8" x2="454.9" y2="207"/>
							</g>
						</g>
						<g>
							<g>
								<defs>
									<rect id="SVGID_27_" x="292.9" y="16.1" width="201.5" height="201.4"/>
								</defs>
								<clipPath id="SVGID_28_">
									<use xlink:href="#SVGID_27_"  style="overflow:visible;"/>
								</clipPath>
								<line class="st41" x1="331.5" y1="206.7" x2="454.9" y2="207"/>
							</g>
						</g>
						<g>
							<g>
								<defs>
									<rect id="SVGID_29_" x="292.9" y="16.1" width="201.5" height="201.4"/>
								</defs>
								<clipPath id="SVGID_30_">
									<use xlink:href="#SVGID_29_"  style="overflow:visible;"/>
								</clipPath>
								<line class="st42" x1="454.9" y1="207" x2="493.7" y2="89.9"/>
							</g>
						</g>
						<g>
							<g>
								<defs>
									<rect id="SVGID_31_" x="292.9" y="16.1" width="201.5" height="201.4"/>
								</defs>
								<clipPath id="SVGID_32_">
									<use xlink:href="#SVGID_31_"  style="overflow:visible;"/>
								</clipPath>
								<line class="st43" x1="493.7" y1="89.9" x2="393.9" y2="16.7"/>
							</g>
						</g>
						<g>
							<g>
								<defs>
									<rect id="SVGID_33_" x="292.9" y="16.1" width="201.5" height="201.4"/>
								</defs>
								<clipPath id="SVGID_34_">
									<use xlink:href="#SVGID_33_"  style="overflow:visible;"/>
								</clipPath>
								<line class="st44" x1="393.9" y1="16.7" x2="293.6" y2="88.6"/>
							</g>
						</g>
						<g>
							<g>
								<defs>
									<rect id="SVGID_35_" x="292.9" y="16.1" width="201.5" height="201.4"/>
								</defs>
								<clipPath id="SVGID_36_">
									<use xlink:href="#SVGID_35_"  style="overflow:visible;"/>
								</clipPath>
								<line class="st45" x1="293.6" y1="88.6" x2="331.5" y2="206.7"/>
							</g>
						</g>
						<g>
							<g>
								<defs>
									<rect id="SVGID_37_" x="292.9" y="16.1" width="201.5" height="201.4"/>
								</defs>
								<clipPath id="SVGID_38_">
									<use xlink:href="#SVGID_37_"  style="overflow:visible;"/>
								</clipPath>
								<line class="st46" x1="425.2" y1="216.9" x2="413.5" y2="206.8"/>
							</g>
						</g>
						<g>
							<g>
								<defs>
									<rect id="SVGID_39_" x="292.9" y="16.1" width="201.5" height="201.4"/>
								</defs>
								<clipPath id="SVGID_40_">
									<use xlink:href="#SVGID_39_"  style="overflow:visible;"/>
								</clipPath>
								<line class="st47" x1="413.5" y1="206.8" x2="393.4" y2="122.8"/>
							</g>
						</g>
					</g>
				</g>
			</g>
			<text transform="matrix(1 0 0 1 390.0548 108.7671)" class="st48 st49">i</text>
			<text transform="matrix(1 0 0 1 476.6232 143.474)" class="st15 st50">0</text>
			<text transform="matrix(1 0 0 1 454.5001 172.5072)" class="st51 st15 st50">0</text>
			<text transform="matrix(1 0 0 1 336.3282 174.4799)" class="st51 st15 st50">3</text>
			<text transform="matrix(1 0 0 1 431.545 93.3588)" class="st51 st15 st50">1</text>
			<text transform="matrix(1 0 0 1 363.4435 194.9077)" class="st51 st15 st50">4</text>
			<text transform="matrix(1 0 0 1 399.8146 199.3178)" class="st51 st15 st50">4</text>
			<text transform="matrix(1 0 0 1 423.7677 150.9467)" class="st51 st15 st50">0</text>
			<text transform="matrix(1 0 0 1 460.1896 116.4995)" class="st51 st15 st50">0</text>
			<text transform="matrix(1 0 0 1 450.9513 58.6557)" class="st15 st50">1</text>
			<text transform="matrix(1 0 0 1 327.9982 64.5072)" class="st15 st50">2</text>
			<text transform="matrix(1 0 0 1 308.0587 163.6909)" class="st15 st50">3</text>
			<text transform="matrix(1 0 0 1 378.295 214.9877)" class="st15 st50">4</text>
			<g>
				<polyline class="st52" points="393.5,117.5 427.4,202.8 425.2,216.9 				"/>
				<polyline class="st53" points="426.2,163.7 444.9,190.1 449.1,197.2 				"/>
				<polygon class="st11" points="453,203.8 443.7,196.7 448.8,196.7 451.3,192.2 				"/>
				<line class="st53" x1="393.5" y1="117.5" x2="423.8" y2="160.3"/>
				<polyline class="st52" points="393.5,117.5 476.6,92.4 482.4,91.6 				"/>
				<polygon class="st11" points="490,90.5 479.9,96.4 481.8,91.6 478.6,87.6 				"/>
				<polyline class="st52" points="457,32 361.1,73.9 290.7,152.8 				"/>
				<polyline class="st52" points="393.5,117.5 341.3,189.6 337.2,196.8 				"/>
				<polygon class="st11" points="333.4,203.5 334.9,191.9 337.5,196.3 342.6,196.2 				"/>
				<polyline class="st52" points="290.7,152.8 371.5,87.9 425.9,73.9 469.9,71.9 493.7,89.9 				"/>
				<line class="st54" x1="393.5" y1="117.5" x2="290.7" y2="152.8"/>
				<line class="st54" x1="393.5" y1="117.5" x2="393.5" y2="227.5"/>
				<line class="st54" x1="393.5" y1="117.5" x2="496.3" y2="152.8"/>
				<line class="st52" x1="329.9" y1="32" x2="457" y2="32"/>
				<line class="st52" x1="290.7" y1="152.8" x2="329.9" y2="32"/>
				<line class="st52" x1="457" y1="32" x2="493.7" y2="89.9"/>
				<line class="st52" x1="496.2" y1="152.8" x2="493.7" y2="89.9"/>
				<line class="st52" x1="454.9" y1="207" x2="496.3" y2="152.8"/>
				<line class="st52" x1="331.5" y1="206.7" x2="393.5" y2="227.5"/>
				<line class="st52" x1="290.7" y1="152.8" x2="331.5" y2="206.7"/>
				<line class="st52" x1="293.6" y1="88.6" x2="290.7" y2="152.8"/>
				<line class="st52" x1="329.9" y1="32" x2="293.6" y2="88.6"/>
				<line class="st52" x1="393.9" y1="16.7" x2="457" y2="32"/>
				<line class="st52" x1="329.9" y1="32" x2="393.9" y2="16.7"/>
				<path class="st55" d="M413.6,168.2c11.3-4.5,20.8-12.7,26.9-23.1"/>
				<polygon class="st51" points="444.8,135.8 443.9,151.4 440.1,145.7 433.3,146.2 				"/>
				<path class="st55" d="M433.8,174.5c8.9-6.3,16.2-14.6,21.4-24.3"/>
				<polygon class="st51" points="459.3,140.8 458.7,156.4 454.8,150.8 448,151.5 				"/>
				<path class="st55" d="M434.1,105.2c-1.6-5.4-4.3-10.3-7.7-14.5"/>
				<polygon class="st51" points="419,83.6 433.4,89.7 426.8,91.5 425,98 				"/>
				<path class="st55" d="M356.2,168.6c7.6,5.6,16.7,9.5,26.5,11.2"/>
				<polygon class="st51" points="392.8,180.7 377.9,185.1 381.9,179.6 379.1,173.3 				"/>
				<path class="st55" d="M472,145.4c0.7-2.1,1.3-5.1,1.3-7.4c0-11.2-9.1-20.2-20.2-20.2c-4.6,0-8.9,1.5-12.3,4.1"/>
				<polygon class="st51" points="434.4,129.9 439.2,115.1 441.5,121.5 448.2,122.6 				"/>
				<path class="st55" d="M326.5,139.6c2.7,7.9,10.6,14.5,19.5,14.5c9.7,0,17.9-6.9,19.8-16"/>
				<polygon class="st51" points="365.3,127.9 371.2,142.3 365.3,138.9 359.4,142.3 				"/>
				<path class="st55" d="M392.6,211.1c11.2,0,21.1-9,21.1-20.2c0-7.4-3.9-13.8-9.8-17.3"/>
				<polygon class="st51" points="394.1,170.6 409.6,169.6 404.5,174.1 405.9,180.8 				"/>
				<polygon class="st56" points="393.5,227.5 496.2,152.8 457,32 329.9,32 290.7,152.8 				"/>
				<polygon class="st56" points="393.5,227.5 454.9,207 496.2,152.8 493.7,89.9 457,32 393.9,16.7 329.9,32 293.6,88.6 
					290.7,152.8 331.5,206.7 				"/>
				<line class="st56" x1="393.5" y1="117.5" x2="489" y2="150.3"/>
				<polygon points="496.2,152.8 484.6,153.5 488.4,150.1 487.4,145.1 				"/>
				<line class="st56" x1="393.5" y1="117.5" x2="450.2" y2="41.2"/>
				<polygon points="454.8,35 451.9,46.3 449.8,41.6 444.8,41.1 				"/>
				<line class="st56" x1="393.5" y1="117.5" x2="297.9" y2="150.3"/>
				<polygon points="290.7,152.8 299.5,145.1 298.5,150.1 302.3,153.5 				"/>
				<line class="st56" x1="393.5" y1="117.5" x2="336.8" y2="41.2"/>
				<polygon points="332.2,35 342.2,41 337.1,41.6 335.1,46.3 				"/>
				<line class="st56" x1="393.5" y1="117.5" x2="393.5" y2="219.8"/>
				<polygon points="393.5,227.5 389,216.7 393.5,219.2 397.9,216.7 				"/>
				<path d="M397.3,117.5c0-2.1-1.7-3.8-3.8-3.8c-2.1,0-3.8,1.7-3.8,3.8c0,2.1,1.7,3.8,3.8,3.8C395.6,121.3,397.3,119.6,397.3,117.5
					"/>
			</g>
		</g>
	</g>
</g>
<g id="Layer_3">
</g>
</svg>
