<?xml version="1.0" encoding="UTF-8"?>
<svg id="Layer_1" data-name="Layer 1" xmlns="http://www.w3.org/2000/svg" width="534.12" height="475.53" xmlns:xlink="http://www.w3.org/1999/xlink" viewBox="0 0 534.12 475.53">
  <defs>
    <linearGradient id="linear-gradient" x1="536.57" y1="282.28" x2="26.16" y2="410.75" gradientUnits="userSpaceOnUse">
      <stop offset="0" stop-color="#000" stop-opacity="0"/>
      <stop offset="1" stop-color="#000"/>
    </linearGradient>
  </defs>
  <polygon points="2.91 472.27 534.12 302.46 398.93 261.25 438.28 302.46 2.91 472.27" style="fill: url(#linear-gradient); opacity: .35;"/>
  <line x1="94.96" y1="115.27" x2="438.28" y2="304.34" style="fill: none; opacity: .6; stroke: #000; stroke-miterlimit: 10; stroke-width: 4px;"/>
  <polygon points="339.23 344.69 381.52 244.87 316.98 172.66 203.16 214.8 246.94 94.32 121.58 72.06 76.06 193.99 339.23 344.69" style="fill: #fff; opacity: .8;"/>
  <g style="opacity: .75;">
    <g style="opacity: .6;">
      <polygon points="316.98 172.66 175.5 225.04 381.52 244.87 316.98 172.66" style="fill: #1b1f8a;"/>
    </g>
    <g style="opacity: .35;">
      <polygon points="339.23 344.69 175.5 225.04 381.52 244.87 339.23 344.69" style="fill: #1b1f8a;"/>
    </g>
    <g style="opacity: .65;">
      <polygon points="339.23 344.69 175.5 225.04 76.06 193.99 339.23 344.69" style="fill: #1b1f8a;"/>
    </g>
    <g style="opacity: .55;">
      <polygon points="121.58 72.06 175.5 225.04 76.06 193.99 121.58 72.06" style="fill: #1b1f8a;"/>
    </g>
    <g style="opacity: .4;">
      <polygon points="121.58 72.06 175.5 225.04 246.94 94.32 121.58 72.06" style="fill: #1b1f8a;"/>
    </g>
    <polygon points="316.98 172.66 54.31 272.98 232.78 384.91 316.98 172.66" style="fill: #fff;"/>
    <g style="opacity: .43;">
      <polygon points="54.31 272.98 175.5 225.04 232.78 384.91 54.31 272.98" style="fill: #1b1f8a;"/>
    </g>
    <g style="opacity: .35;">
      <polygon points="316.98 172.66 175.5 225.04 232.78 384.91 316.98 172.66" style="fill: #1b1f8a;"/>
    </g>
    <g style="opacity: .6;">
      <polygon points="121.58 421.11 175.5 225.04 246.94 94.32 121.58 421.11" style="fill: #fff;"/>
    </g>
    <g style="opacity: .45;">
      <polygon points="121.58 421.11 175.5 225.04 246.94 94.32 121.58 421.11" style="fill: #1b1f8a;"/>
    </g>
    <g style="opacity: .6;">
      <polygon points="121.58 428.19 175.5 225.04 54.31 272.98 26.85 366.45 121.58 428.19" style="fill: #fff;"/>
    </g>
    <g style="opacity: .25;">
      <polygon points="121.58 428.19 175.5 225.04 26.85 366.45 121.58 428.19" style="fill: #1b1f8a;"/>
    </g>
    <g style="opacity: .4;">
      <polygon points="54.31 272.98 175.5 225.04 26.85 366.45 54.31 272.98" style="fill: #1b1f8a;"/>
    </g>
    <g>
      <line x1="121.58" y1="428.19" x2="26.85" y2="366.45" style="fill: none; stroke: #1b1f8a; stroke-miterlimit: 10; stroke-width: 4px;"/>
      <line x1="155.93" y1="336.71" x2="232.78" y2="384.91" style="fill: none; stroke: #1b1f8a; stroke-miterlimit: 10; stroke-width: 4px;"/>
      <line x1="54.31" y1="272.98" x2="155.93" y2="336.71" style="fill: none; opacity: .3; stroke: #1b1f8a; stroke-miterlimit: 10; stroke-width: 4px;"/>
      <line x1="265.49" y1="302.46" x2="339.23" y2="344.69" style="fill: none; stroke: #1b1f8a; stroke-miterlimit: 10; stroke-width: 4px;"/>
      <line x1="148.77" y1="235.62" x2="265.49" y2="302.46" style="fill: none; opacity: .3; stroke: #1b1f8a; stroke-miterlimit: 10; stroke-width: 4px;"/>
      <line x1="76.06" y1="193.99" x2="148.77" y2="235.62" style="fill: none; stroke: #1b1f8a; stroke-miterlimit: 10; stroke-width: 4px;"/>
      <line x1="246.94" y1="94.32" x2="121.58" y2="72.06" style="fill: none; stroke: #1b1f8a; stroke-miterlimit: 10; stroke-width: 4px;"/>
    </g>
  </g>
  <polygon points="2.91 472.27 438.28 304.34 163.37 3.31 94.96 115.27 2.91 472.27" style="fill: none; stroke: #000; stroke-miterlimit: 10; stroke-width: 4px;"/>
  <line x1="163.37" y1="3.31" x2="2.91" y2="472.27" style="fill: none; stroke: #000; stroke-miterlimit: 10; stroke-width: 4px;"/>
  <g>
    <line x1="339.23" y1="344.69" x2="381.52" y2="244.87" style="fill: none; stroke: #1b1f8a; stroke-miterlimit: 10; stroke-width: 4px;"/>
    <polyline points="232.78 384.91 316.98 172.66 381.52 244.87" style="fill: none; stroke: #1b1f8a; stroke-miterlimit: 10; stroke-width: 4px;"/>
    <line x1="121.58" y1="428.19" x2="246.94" y2="94.32" style="fill: none; stroke: #1b1f8a; stroke-miterlimit: 10; stroke-width: 4px;"/>
    <line x1="54.31" y1="272.98" x2="29.98" y2="366.45" style="fill: none; stroke: #1b1f8a; stroke-miterlimit: 10; stroke-width: 4px;"/>
    <line x1="76.06" y1="193.99" x2="121.58" y2="72.06" style="fill: none; stroke: #1b1f8a; stroke-miterlimit: 10; stroke-width: 4px;"/>
  </g>
  <g style="opacity: .05;">
    <polygon points="163.37 3.31 438.28 304.34 2.91 472.27 163.37 3.31"/>
  </g>
  <g style="opacity: .18;">
    <polygon points="163.37 3.31 2.91 472.27 94.96 115.27 163.37 3.31"/>
  </g>
  <g>
    <circle cx="246.94" cy="94.32" r="7.08"/>
    <circle cx="316.98" cy="172.66" r="7.08"/>
    <circle cx="381.52" cy="244.87" r="7.08"/>
    <circle cx="339.23" cy="344.69" r="7.08"/>
    <circle cx="232.78" cy="384.91" r="7.08"/>
    <circle cx="121.58" cy="428.19" r="7.08"/>
    <circle cx="29.98" cy="366.45" r="7.08"/>
    <circle cx="54.31" cy="272.98" r="7.08"/>
    <circle cx="76.06" cy="193.99" r="7.08"/>
    <circle cx="121.58" cy="72.06" r="7.08"/>
  </g>
</svg>