<?xml version="1.0" encoding="UTF-8"?>
<svg id="Layer_1" xmlns="http://www.w3.org/2000/svg" version="1.1" viewBox="0 0 171 79.9">
  <!-- Generator: Adobe Illustrator 29.5.1, SVG Export Plug-In . SVG Version: 2.1.0 Build 141)  -->
  <defs>
    <style>
      .st0 {
        fill: #b8e1ff;
      }

      .st1 {
        fill: #060606;
      }

      .st2 {
        fill: #ec5a18;
      }
    </style>
  </defs>
  <path class="st0" d="M6,44.2C-3.6,45.7.5,28.1,3.4,23.3,12.2,6.7,30.5-2.3,49.1.5c11.8,1.8,21.6,9.9,33.7,10.7,21.7,1.6,47.1-19.6,66.6-3.8,36.2,33.9,27.6,90.8-30.3,66.7-16.5-10.4-20.3-30.5-44.3-21.2s-26.6,14.4-43.9,9.2-22.2-9-23.8-13.6M56.4,25.7c-9-5.4-17.7.6-19.8,3.9,6.3,0,11.3,2.2,19.8-3.9ZM127.7,35.8c5.6,3,7.1,4.9,17.4,3.5-4.4-9-14.3-5.9-17.8-3.9"/>
  <path class="st1" d="M6,44.2C-3.6,45.7.5,28.1,3.4,23.3,12.2,6.7,30.5-2.3,49.1.5c11.8,1.8,21.6,9.9,33.7,10.7,21.7,1.6,47.1-19.6,66.6-3.8,36.2,33.9,27.6,90.8-30.3,66.7-16.5-10.4-20.3-30.5-44.3-21.2-15.1,5.9-26.6,14.4-43.9,9.2s-22.2-9-23.8-13.6.3-1.8,1.2-1.6c42.4,39.9,65.8-17.8,95.5,10.5,43.6,48,92.1,5.8,48-45-17.7-19.5-42,.5-63,1.4-22.9,1-33.7-17.4-59.5-9.7C16.7,8,0,23.6,1.1,37.7s1.2,6.8,5,6.5Z"/>
  <path class="st2" d="M156.1,54.5c-7.7,3.3-18.1,2.4-25.9-.6-12.7-5-16.8-16.7-24.6-20.6-12.1-7-32.1,3.9-44.6,7.2-1.5,0-17.7,5.1-12.8.6,2.6-1.2,11.3-2.2,15-3.2,64-26.6,40.3,22,89.4,16.4,11.2-2.3,7.7-9,4.4-16.9-5.5-13.1-7.5-16.6-22.5-15.5-56.9,11.2-59.3-12.2-99.5-8.9-22.5,4-11,32.8,7.8,30.7C11.9,47.8,4.7-11.9,82.6,20.2c10.2,2.8,19.8,3.3,30.3,2.5s27.3-5.1,35.4-.4c6.1,4.2,20.6,29,7.8,32.3Z"/>
  <path class="st1" d="M30.6,23.5c-2.4,2.4,1.3,4.5,3.3,5.2,5.7,1.9,13.8-.3,19.4-2.3,1.7-.3,6.3-4.2,6.7-1.5-6.7,4.6-21.3,8.4-28.8,3.1-1.5-1.2-3.1-3.7-.5-4.6Z"/>
  <path class="st1" d="M124.4,29c.9,9.7,15.6,12.5,22.9,9.4,2.5.1-1.6,2.1-2.3,2.3-6.9,1.8-22.3-3-20.6-11.7Z"/>
  <path class="st1" d="M142.6,36c-.4.4-3.7-1.7-4.7-2-2.4-.5-4.9.2-7.2-.2,3.6-.8,10.1-1.6,12,2.2Z"/>
  <path class="st1" d="M38.2,27.6c.4-2,10.3-5.5,10.8-4.1l-10.8,4.1Z"/>
</svg>