<?xml version="1.0" encoding="UTF-8"?>
<svg id="Layer_1" xmlns="http://www.w3.org/2000/svg" version="1.1" viewBox="0 0 87.9 43.3">
  <!-- Generator: Adobe Illustrator 30.3.0, SVG Export Plug-In . SVG Version: 2.1.3 Build 182)  -->
  <defs>
    <style>
      .st0 {
        fill: #be1e2d;
      }

      .st1 {
        fill: #fff;
      }
    </style>
  </defs>
  <path class="st0" d="M79.1,9.4c-6.4,2.8-3.2,12.5-12.2,13.9-1.8-4.8-3.8-10.7-6.6-14.4C26.7,7.5,56.8.2,40.7,0c-14.9.5,14.1,7.4-19.1,9-.9.8-1.3,1.7-1.9,3.3-6.5.1-18.5-.8-19.4,4.6-1.4,7.9,6.2,14.1,14.5,17.7,1.1,2.2,5.9,6.4,5.9,6.8,6.3,2.1,32.2,2.8,40.9,0,0-.2,4.4-3.6,6-7.3,15.5-5.7,6.7-20.2,20.4-24.8-2.1,0-5.7.2-8.7.2h0ZM13.7,30.6c-5.2-2-10.2-8.8-9.4-12.7.6-2.8,8.2-2.4,13.7-2.5-2.1,4.5-4.2,10.2-4.4,15.2Z"/>
  <polygon class="st1" points="54.1 18.6 52.1 18.6 52.1 33.2 47.4 38.6 34.4 38.6 30.2 34 30.2 18.6 27.8 18.6 27.8 11.8 40.3 11.8 40.3 18.5 38.9 18.5 38.9 30.8 43.9 30.8 43.9 18.4 42.1 18.4 42.1 11.8 54.1 11.8 54.1 18.6 54.1 18.6"/>
</svg>