<?xml version="1.0" encoding="utf-8"?>
<!-- Generator: Adobe Illustrator 27.2.0, SVG Export Plug-In . SVG Version: 6.00 Build 0)  -->
<svg version="1.1" id="Layer_1" xmlns="http://www.w3.org/2000/svg" xmlns:xlink="http://www.w3.org/1999/xlink" x="0px" y="0px"
	 viewBox="0 0 260.3 141.2" style="enable-background:new 0 0 260.3 141.2;" xml:space="preserve">
<style type="text/css">
	.st0{display:none;fill:none;stroke:#000000;stroke-width:0.5398;stroke-miterlimit:10;}
	.st1{fill:#FFFFFF;}
	.st2{opacity:0.2;fill:url(#SVGID_1_);}
	.st3{opacity:0.3;fill:#0A014F;}
	.st4{opacity:0.5;fill:#0A014F;}
	.st5{opacity:0.55;fill:#0A014F;}
	.st6{opacity:0.6;fill:#0A014F;}
	.st7{opacity:0.75;fill:#0A014F;}
	.st8{opacity:0.85;fill:#0A014F;}
	.st9{fill:none;stroke:#000000;stroke-width:1.5;stroke-miterlimit:10;}
	.st10{fill:none;stroke:#000000;stroke-width:0.75;stroke-miterlimit:10;}
	.st11{opacity:0.38;fill:#0A014F;}
	.st12{opacity:0.65;fill:#0A014F;}
	.st13{fill:none;stroke:#000000;stroke-width:1.5;stroke-linejoin:round;stroke-miterlimit:10;}
	.st14{fill:none;stroke:#000000;stroke-width:0.75;stroke-linejoin:round;stroke-miterlimit:10;}
	.st15{opacity:0.2;fill:url(#SVGID_00000101790306965809125100000002468428983970002363_);}
	.st16{opacity:0.55;fill:none;stroke:#0A014F;stroke-width:2;stroke-miterlimit:10;}
	.st17{fill:none;stroke:#E6E7E8;stroke-width:4;stroke-miterlimit:10;}
	.st18{fill:#E6E7E8;}
	.st19{fill:none;stroke:#000000;stroke-width:2;stroke-miterlimit:10;}
</style>
<line class="st0" x1="23.2" y1="111.9" x2="44.3" y2="113.5"/>
<g>
	<polygon class="st1" points="170.3,3.5 118.8,48.8 140.1,111.9 206.4,134.5 250.5,87.2 239.3,19.9 	"/>
	<linearGradient id="SVGID_1_" gradientUnits="userSpaceOnUse" x1="185.8622" y1="65.5243" x2="175.4637" y2="130.5152">
		<stop  offset="0.6436" style="stop-color:#231F20;stop-opacity:0"/>
		<stop  offset="1" style="stop-color:#000000"/>
	</linearGradient>
	<polygon class="st2" points="121.3,83.8 157.1,61.8 209.4,69.3 240.6,108.6 206.7,141.2 139.4,129.4 	"/>
	<g>
		<polygon class="st3" points="187.6,18.6 161.1,113.5 250.5,87.2 		"/>
		<polygon class="st4" points="187.6,18.6 250.5,87.2 239.3,19.9 		"/>
		<polygon class="st5" points="187.6,18.6 239.3,19.9 170.3,3.5 		"/>
		<polygon class="st5" points="187.6,18.6 118.8,48.8 161.1,113.5 		"/>
		<polygon class="st6" points="187.6,18.6 170.3,3.5 118.8,48.8 		"/>
		<polygon class="st7" points="118.8,48.8 140.1,111.9 161.1,113.5 		"/>
		<polygon class="st6" points="161.1,113.5 206.4,134.5 250.5,87.2 		"/>
		<polygon class="st8" points="140.1,111.9 206.4,134.5 161.1,113.5 		"/>
	</g>
	<polygon class="st9" points="170.3,3.5 118.8,48.8 140.1,111.9 206.4,134.5 250.5,87.2 239.3,19.9 	"/>
	<g>
		<line class="st10" x1="187.6" y1="18.6" x2="250.5" y2="87.2"/>
		<line class="st10" x1="161.1" y1="113.5" x2="187.6" y2="18.6"/>
		<line class="st10" x1="187.6" y1="18.6" x2="170.3" y2="3.5"/>
		<line class="st10" x1="187.6" y1="18.6" x2="118.8" y2="48.8"/>
		<line class="st10" x1="161.1" y1="113.5" x2="118.8" y2="48.8"/>
		<line class="st10" x1="161.1" y1="113.5" x2="206.4" y2="134.5"/>
		<line class="st10" x1="161.1" y1="113.5" x2="250.5" y2="87.2"/>
		<line class="st10" x1="187.6" y1="18.6" x2="239.3" y2="19.9"/>
	</g>
</g>
<polygon class="st1" points="114.1,49.4 92.7,121.1 24.5,103.4 49.7,31.6 "/>
<polygon class="st11" points="114.1,49.4 92.7,121.1 49.7,31.6 "/>
<polygon class="st12" points="92.7,121.1 24.5,103.4 49.7,31.6 "/>
<polygon class="st13" points="114.1,49.4 92.7,121.1 24.5,103.4 49.7,31.6 "/>
<line class="st14" x1="92.7" y1="121.1" x2="49.7" y2="31.6"/>
<linearGradient id="SVGID_00000141414201529664210990000002493448405812440199_" gradientUnits="userSpaceOnUse" x1="122.9366" y1="75.8287" x2="42.0192" y2="141.5688">
	<stop  offset="0.6436" style="stop-color:#231F20;stop-opacity:0"/>
	<stop  offset="1" style="stop-color:#000000"/>
</linearGradient>
<polygon style="opacity:0.2;fill:url(#SVGID_00000141414201529664210990000002493448405812440199_);" points="58.6,85.5 19.9,121.1 
	99.7,137.3 124.1,94.7 "/>
<polyline class="st16" points="162.6,88.9 176.9,37.9 172.5,40.7 "/>
<polyline class="st16" points="172.4,30.9 130,48.9 135,50.6 "/>
<polyline class="st16" points="129,56.1 159.7,101.5 160.5,96.3 "/>
<g>
	<polyline class="st16" points="87.3,95.9 64.5,48.1 69.4,50.1 	"/>
	<polyline class="st16" points="61,38.5 105.2,51.7 100.4,53.9 	"/>
	<polyline class="st16" points="107.7,55.5 91.2,107.8 89,103.1 	"/>
</g>
<g>
	<g>
		<path class="st17" d="M94.6,39c14.5-6.1,30.5-7,45.3-2.8"/>
		<g>
			<polygon class="st18" points="98.6,43.9 86.7,42.4 93.9,32.8 			"/>
		</g>
		<g>
			<polygon class="st18" points="136.6,41.5 148.2,38.6 139.9,30 			"/>
		</g>
	</g>
	<g>
		<path class="st19" d="M94.6,39c14.5-6.1,30.5-7,45.3-2.8"/>
		<g>
			<polygon points="97.6,42.7 88.7,41.5 94.1,34.4 			"/>
		</g>
		<g>
			<polygon points="137.5,40.2 146.2,38 139.9,31.6 			"/>
		</g>
	</g>
</g>
<g>
	<g>
		<path class="st17" d="M86.6,69c22.7-9.6,48-11,71.3-4.4"/>
		<g>
			<polygon class="st18" points="90.5,73.8 78.7,72.4 85.9,62.8 			"/>
		</g>
		<g>
			<polygon class="st18" points="154.6,69.9 166.2,66.9 157.8,58.4 			"/>
		</g>
	</g>
	<g>
		<path class="st19" d="M86.6,69c22.7-9.6,48-11,71.3-4.4"/>
		<g>
			<polygon points="89.5,72.6 80.6,71.5 86.1,64.4 			"/>
		</g>
		<g>
			<polygon points="155.4,68.6 164.1,66.3 157.8,59.9 			"/>
		</g>
	</g>
</g>
<g>
	<g>
		<path class="st17" d="M141.1,92.4c-11.6,4.4-24.3,4.7-35.9,1"/>
		<g>
			<polygon class="st18" points="137.3,87.4 149.1,89.3 141.6,98.6 			"/>
		</g>
		<g>
			<polygon class="st18" points="108.7,88.2 97,90.8 105,99.6 			"/>
		</g>
	</g>
	<g>
		<path class="st19" d="M141.1,92.4c-11.6,4.4-24.3,4.7-35.9,1"/>
		<g>
			<polygon points="138.2,88.7 147.1,90.1 141.4,97 			"/>
		</g>
		<g>
			<polygon points="107.8,89.5 99,91.4 105.1,98.1 			"/>
		</g>
	</g>
</g>
</svg>
