<?xml version="1.0" encoding="utf-8"?>
<!-- Generator: Adobe Illustrator 23.0.2, SVG Export Plug-In . SVG Version: 6.00 Build 0)  -->
<svg version="1.1" id="Layer_1" xmlns="http://www.w3.org/2000/svg" xmlns:xlink="http://www.w3.org/1999/xlink" x="0px" y="0px"
	 viewBox="0 0 366.5 164.6" style="enable-background:new 0 0 366.5 164.6;" xml:space="preserve">
<style type="text/css">
	.st0{display:none;fill:#FFFFFF;}
	.st1{fill:#FFFFFF;}
	.st2{display:none;}
	.st3{display:inline;}
	.st4{opacity:0.5;clip-path:url(#SVGID_2_);fill:#E0E5DB;enable-background:new    ;}
	.st5{opacity:0.75;clip-path:url(#SVGID_4_);fill:#E0E5DB;enable-background:new    ;}
	.st6{opacity:0.3;clip-path:url(#SVGID_6_);fill:url(#SVGID_7_);enable-background:new    ;}
	.st7{opacity:0.3;fill:url(#SVGID_8_);enable-background:new    ;}
	.st8{display:none;opacity:0.5;}
	.st9{opacity:0.3;fill:#00B8B8;enable-background:new    ;}
	.st10{fill:none;stroke:#00B8B8;stroke-width:0.5;stroke-miterlimit:10;}
	.st11{opacity:0.35;}
	.st12{fill:none;stroke:#00B8B8;stroke-width:0.5;stroke-miterlimit:10;stroke-dasharray:4.0921,4.0921;}
	.st13{fill:none;stroke:#00B8B8;stroke-width:0.5;stroke-miterlimit:10;stroke-dasharray:3.9499,3.9499;}
	.st14{fill:none;stroke:#00B8B8;stroke-width:0.5;stroke-miterlimit:10;stroke-dasharray:3.8964,3.8964;}
	.st15{fill:none;stroke:#00B8B8;stroke-width:0.5;stroke-miterlimit:10;stroke-dasharray:3.6882,3.6882;}
	.st16{fill:none;stroke:#00B8B8;stroke-width:0.5;stroke-miterlimit:10;stroke-dasharray:3.6383,3.6383;}
	.st17{fill:none;stroke:#00B8B8;stroke-width:0.5;stroke-miterlimit:10;stroke-dasharray:3.8439,3.8439;}
	.st18{fill:none;stroke:#00B8B8;stroke-width:0.5;stroke-miterlimit:10;stroke-dasharray:3.9702,3.9702;}
	.st19{fill:none;stroke:#00B8B8;stroke-width:0.5;stroke-miterlimit:10;stroke-dasharray:3.903,3.903;}
	.st20{fill:none;stroke:#00B8B8;stroke-width:0.5;stroke-miterlimit:10;stroke-dasharray:3.9631,3.9631;}
	.st21{fill:none;stroke:#00B8B8;stroke-width:0.5;stroke-miterlimit:10;stroke-dasharray:4;}
	.st22{opacity:0.5;}
	.st23{fill:none;stroke:#000000;stroke-miterlimit:10;}
	.st24{fill:none;stroke:#000000;stroke-linejoin:round;stroke-miterlimit:10;}
	.st25{display:inline;opacity:0.4;fill:#00B8B8;enable-background:new    ;}
	.st26{fill:none;stroke:#65C8D0;stroke-width:0.25;stroke-miterlimit:10;}
	.st27{display:inline;fill:none;stroke:#000000;stroke-linecap:round;stroke-miterlimit:10;}
</style>
<g id="White_Base">
	<circle class="st0" cx="180.6" cy="84.3" r="124"/>
	<path class="st1" d="M30,23c50.9,41.5,123.4,103.6,149.8,103.6c34.8,0,102-61,154.5-102.9C349.6,13.1,233.9,10.7,185.8,10
		S18.7,13.8,30,23z"/>
	<ellipse class="st0" cx="181.9" cy="155.7" rx="31.6" ry="12.8"/>
</g>
<g id="Background">
	<g class="st2">
		<g class="st3">
			<defs>
				<circle id="SVGID_1_" cx="180.6" cy="84.3" r="124"/>
			</defs>
			<clipPath id="SVGID_2_">
				<use xlink:href="#SVGID_1_"  style="overflow:visible;"/>
			</clipPath>
			<rect x="-23" y="-69.5" class="st4" width="421.3" height="327.9"/>
		</g>
		<g class="st3">
			<defs>
				<circle id="SVGID_3_" cx="180.6" cy="84.3" r="124"/>
			</defs>
			<clipPath id="SVGID_4_">
				<use xlink:href="#SVGID_3_"  style="overflow:visible;"/>
			</clipPath>
			<rect x="-23" y="99.5" class="st5" width="421.3" height="158.8"/>
		</g>
		<g class="st3">
			<defs>
				<circle id="SVGID_5_" cx="180.6" cy="84.3" r="124"/>
			</defs>
			<clipPath id="SVGID_6_">
				<use xlink:href="#SVGID_5_"  style="overflow:visible;"/>
			</clipPath>
			
				<linearGradient id="SVGID_7_" gradientUnits="userSpaceOnUse" x1="-9.5749" y1="68.3572" x2="178.9479" y2="-64.5507" gradientTransform="matrix(0.9946 -0.1042 -0.1042 -0.9946 4.5819 172.0462)">
				<stop  offset="0.2509" style="stop-color:#FFFFFF;stop-opacity:0"/>
				<stop  offset="1" style="stop-color:#1B1464"/>
			</linearGradient>
			<path class="st6" d="M-34.5,171.4c134.1-5,171.2-4.5,201.3-9.6c39.7-6.8-5.1-35.9-22-51c-2.1-4.2-60.5,5.3-116.6,14.6
				C-27.9,134.6-64.2,172.5-34.5,171.4z"/>
		</g>
	</g>
	
		<linearGradient id="SVGID_8_" gradientUnits="userSpaceOnUse" x1="-20.5753" y1="76.3459" x2="167.9476" y2="-56.562" gradientTransform="matrix(0.9946 -0.1042 -0.1042 -0.9946 4.5819 172.0462)">
		<stop  offset="0.2509" style="stop-color:#FFFFFF;stop-opacity:0"/>
		<stop  offset="1" style="stop-color:#1B1464"/>
	</linearGradient>
	<path class="st7" d="M-46.3,164.6c134.1-5,171.2-4.5,201.3-9.6c39.7-6.8-5.1-35.9-22-51c-2.1-4.2-60.5,5.3-116.6,14.6
		S-76,165.7-46.3,164.6z"/>
</g>
<g id="Reference" class="st8">
</g>
<g id="Hyperboloid">
	<g id="Colors">
		<path class="st9" d="M29.8,23.1c50.9,41.5,123.4,103.6,149.8,103.6c34.8,0,102-61,154.5-102.9c-13.2,6.6-101.3,10.9-149.4,10.2
			C136.6,33.4,46.6,32.4,29.8,23.1z"/>
		<path class="st9" d="M29.8,23.1c50.9,41.5,123.4,103.6,149.8,103.6c34.8,0,102-61,154.5-102.9c15.3-10.6-100.4-13.1-148.5-13.8
			C137.4,9.4,18.5,13.9,29.8,23.1z"/>
	</g>
	<g id="y-outlines">
		<g id="Front_1_">
			<path class="st10" d="M121.9,32.8c17.4,32.6,47.8,96,56.2,93.8"/>
			<path class="st10" d="M83.6,31.4c20.1,31.8,50.1,74.1,60.1,79.8"/>
			<path class="st10" d="M53.5,28.4c11.9,15,35.4,41.5,44.5,49.9"/>
			<path class="st10" d="M166.9,33.8c12.9,33.5,30.6,85.9,40.7,84.4"/>
			<path class="st10" d="M216.7,34.3c5.9,25.6,14.8,65.7,21.5,65.2"/>
			<path class="st10" d="M267.1,32c0.4,12.7,1.3,41.6,5.2,42"/>
			<path class="st10" d="M313.4,28.2c-0.8,5.4-2.3,12.9-3.7,15.3"/>
		</g>
		<g id="Under_Strokes" class="st11">
			<g>
				<g>
					<path class="st10" d="M178.1,126.7c0.5-0.1,1.1-0.5,1.7-1.1"/>
					<path class="st12" d="M182.2,122.3C189,110.4,198,76.2,206.8,38"/>
					<path class="st10" d="M207.2,36c0.1-0.7,0.3-1.3,0.4-1.9"/>
				</g>
			</g>
			<g>
				<g>
					<path class="st10" d="M209.2,117.4c0.4-0.4,0.8-0.9,1.2-1.6"/>
					<path class="st13" d="M212.2,112.3c4.9-11.7,10.4-39.1,17.9-74.8"/>
					<path class="st10" d="M230.5,35.5c0.1-0.7,0.3-1.3,0.4-2"/>
				</g>
			</g>
			<g>
				<g>
					<path class="st10" d="M237.2,99.9c0.4-0.5,0.9-1,1.3-1.5"/>
					<path class="st14" d="M240.5,95.1c5.2-9.7,8.6-28.3,14.1-58.6"/>
					<path class="st10" d="M254.9,34.6c0.1-0.7,0.2-1.3,0.4-2"/>
				</g>
			</g>
			<g>
				<g>
					<path class="st10" d="M271.5,74.6c0.3-0.4,0.6-0.9,0.9-1.8"/>
					<path class="st15" d="M273.6,69.4c2.1-7.7,4.5-21.9,6.5-34.4"/>
					<path class="st10" d="M280.4,33.1c0.1-0.7,0.2-1.3,0.3-2"/>
				</g>
			</g>
			<g>
				<g>
					<path class="st10" d="M310,43.4c-0.2-0.3-0.3-1-0.4-1.9"/>
					<path class="st16" d="M309.5,37.8c0-1.6,0.1-3.5,0.2-5.4"/>
					<path class="st10" d="M309.8,30.5c0-0.7,0.1-1.3,0.1-2"/>
				</g>
			</g>
			<g>
				<g>
					<path class="st10" d="M145.8,112.5c0.7,0.2,1.3,0.4,1.9,0.6"/>
					<path class="st17" d="M151.5,113c11.6-2.8,17.9-31,30-75.1"/>
					<path class="st10" d="M181.9,36.1c0.2-0.6,0.4-1.3,0.5-1.9"/>
				</g>
			</g>
			<g>
				<g>
					<path class="st10" d="M105.3,84.1c0.6,0.4,1.1,0.8,1.6,1.1"/>
					<path class="st18" d="M110.4,87.2c19.2,10.3,31.5-6.5,45.9-49.4"/>
					<path class="st10" d="M156.9,35.9c0.2-0.6,0.4-1.3,0.6-1.9"/>
				</g>
			</g>
			<g>
				<g>
					<path class="st10" d="M65.4,52.3c0.6,0.4,1.1,0.7,1.7,1.1"/>
					<path class="st19" d="M70.4,55.4c18.2,10.8,36,15,55.1-18.9"/>
					<path class="st10" d="M126.4,34.8c0.3-0.6,0.6-1.2,0.9-1.8"/>
				</g>
			</g>
			<g>
				<g>
					<path class="st10" d="M29.3,21.2c0.6,0.3,1.2,0.7,1.7,1"/>
					<path class="st20" d="M34.5,24.1c14.3,7.7,29.1,13.1,43.5,8.4"/>
					<path class="st10" d="M79.8,31.8c0.6-0.2,1.2-0.5,1.8-0.8"/>
				</g>
			</g>
		</g>
		<g id="Peaking_Under_Strokes" class="st11">
			<path class="st10" d="M81.7,31.1c7.2-3.3,14.3-9.3,21.1-19.1"/>
			<path class="st10" d="M127.3,33c3.3-6.3,6.6-13.7,9.9-22.4"/>
			<path class="st10" d="M157.6,34.1c2.3-7.2,4.7-15,7.2-23.5"/>
			<path class="st10" d="M182.5,34.1c2-7.4,4.3-15.3,6.7-23.5"/>
			<path class="st10" d="M309.9,28.5c0.3-5,0.8-10.1,1.2-13"/>
			<path class="st10" d="M280.7,31.1c1.2-7.8,2.2-14.6,2.8-17.9"/>
			<path class="st10" d="M255.3,32.6c1.2-6.4,2.4-13.2,3.8-20.6"/>
			<path class="st10" d="M230.9,33.6c1.5-7.2,3.1-14.7,4.8-22.4"/>
			<path class="st10" d="M207.6,34.1c1.7-7.5,3.4-15.2,5.1-22.9"/>
		</g>
	</g>
	<g id="x-outlines">
		<g id="Front">
			<path class="st10" d="M45,27.3c49.8,27.9,105.6,46.3,189.9,6.1"/>
			<path class="st10" d="M68.8,55.1c89,60.3,146.2,23.9,224-24.9"/>
			<path class="st10" d="M107.9,85.8c87.3,59.8,140.2-7.9,212.6-58.5"/>
		</g>
		<g id="back" class="st11">
			<path class="st21" d="M150,33.5c42.8,27.9,71.3,24.7,118-1.4"/>
			<path class="st21" d="M116,32.7c75.4,67.1,100.9,58.9,184.1-3.1"/>
			<path class="st21" d="M88.8,31.5c96.9,109.3,117.3,87.3,229.1-3.8"/>
		</g>
		<g id="peeking" class="st11">
			<path class="st10" d="M73.3,13.7c5.4,6.3,10.5,12.2,15.5,17.8"/>
			<path class="st10" d="M94.7,13c7.6,7.2,14.6,13.7,21.3,19.7"/>
			<path class="st10" d="M317.9,27.7c3.7-3,7.5-6.1,11.4-9.2"/>
			<path class="st10" d="M120.1,11.2c10.8,8.9,20.7,16.4,29.9,22.4"/>
			<path class="st10" d="M300.1,29.6c5.6-4.2,11.6-8.7,17.8-13.4"/>
			<path class="st10" d="M268.1,32.1c9.1-5.1,18.9-11,29.7-17.8"/>
			<path class="st10" d="M155.9,10.2c34.4,20.3,71.6,23.5,111.4,1.6"/>
		</g>
	</g>
	<g id="Behind_x5F_Plane" class="st22">
	</g>
</g>
<g id="Hyperboloid_Outline">
	<path class="st23" d="M30,23.1c50.9,41.5,123.4,103.6,149.8,103.6c34.8,0,102-61,154.5-102.9c15.3-10.6-100.4-13.1-148.5-13.8
		C137.7,9.4,18.7,13.9,30,23.1z"/>
	<path class="st24" d="M30.4,23.4c50.9,41.5,122.9,103.2,149.4,103.2c34.8,0,101.7-61,154.3-102.9c-13.2,6.6-99.9,10.9-148.1,10.2
		C137.9,33.4,47.2,32.7,30.4,23.4z"/>
</g>
<g id="Poincare" class="st2">
	<ellipse class="st25" cx="182" cy="155.9" rx="31.6" ry="12.8"/>
	<g id="y-stripes" class="st3">
		<line class="st26" x1="190.7" y1="143.6" x2="170.5" y2="167.8"/>
		<path class="st26" d="M190.7,143.6c9,8.7,0.5,19.6-20.1,24.2"/>
		<path class="st26" d="M190.7,143.6c21,9.8,3,23.6-20.1,24.2"/>
		<path class="st26" d="M190.7,143.6c28.6,10.1,4.5,24.5-20.1,24.2"/>
		<path class="st26" d="M190.9,143.6c32.7,12.1,4.5,24.5-20.1,24.2"/>
		<path class="st26" d="M190.7,143.6c-20.8,4.7-28.2,16.7-20.1,24.2"/>
		<path class="st26" d="M190.7,143.6c-30.3,3.2-34.9,17.8-20.1,24.2"/>
		<path class="st26" d="M190.7,143.6c-36.4,2.3-37.9,18.6-20.1,24.2"/>
		<path class="st26" d="M190.7,143.6c-40.9,1.9-37.9,18.6-20.1,24.2"/>
	</g>
	<g id="x-stripes" class="st3">
		<line class="st26" x1="153.5" y1="150.2" x2="213.3" y2="157.8"/>
		<path class="st26" d="M153.5,150.2c10.3,8.6,43.1,12,59.8,7.6"/>
		<path class="st26" d="M153.5,150.2c8.1,15.2,44.9,13.9,59.8,7.6"/>
		<path class="st26" d="M153.5,150.2c5.4,18.1,48.3,16.6,59.8,7.6"/>
		<path class="st26" d="M153.5,150.2c5.4,21.8,48.3,16.6,59.8,7.6"/>
		<path class="st26" d="M153.5,150.2c14.1-3.4,48.3,0.2,59.8,7.6"/>
		<path class="st26" d="M153.5,150.2c13.5-4.9,50.5-4.1,59.8,7.6"/>
		<path class="st26" d="M153.3,150.2c16-6.1,49.8-6.2,59.8,7.6"/>
		<path class="st26" d="M153.5,150.2c18.4-7.6,49.3-7,59.8,7.6"/>
	</g>
	<ellipse class="st27" cx="182" cy="155.9" rx="31.6" ry="12.8"/>
</g>
<g id="Layer_19">
</g>
</svg>
