<?xml version="1.0" encoding="utf-8"?>
<!-- Generator: Adobe Illustrator 23.0.2, SVG Export Plug-In . SVG Version: 6.00 Build 0)  -->
<svg version="1.1" xmlns="http://www.w3.org/2000/svg" xmlns:xlink="http://www.w3.org/1999/xlink" x="0px" y="0px"
	 viewBox="0 0 603.91 267.91" style="enable-background:new 0 0 603.91 267.91;" xml:space="preserve">
<style type="text/css">
	.st0{display:none;}
	.st1{display:inline;fill:none;stroke:#00FF00;stroke-miterlimit:10;}
	.st2{opacity:0.4;fill:#3F2370;}
	.st3{fill:none;stroke:#000000;stroke-miterlimit:10;}
	.st4{opacity:0.47;fill:#3F2370;}
	.st5{fill:none;stroke:#000000;stroke-width:0.5;stroke-linejoin:round;stroke-miterlimit:10;}
	.st6{display:none;fill:#FFFFFF;}
	.st7{fill:#FFFFFF;}
	.st8{opacity:0.15;fill:url(#SVGID_1_);}
	.st9{fill:none;stroke:#000000;stroke-width:0.5;stroke-miterlimit:10;}
	.st10{opacity:0.2;fill:#F15A24;}
	.st11{opacity:0.4;fill:#F15A24;}
	.st12{opacity:0.25;fill:#F15A24;}
	.st13{opacity:0.25;}
	.st14{opacity:0.5;}
	.st15{fill:none;stroke:#000000;stroke-width:0.5;stroke-miterlimit:10;stroke-dasharray:4.004,2.002;}
	.st16{fill:none;stroke:#000000;stroke-width:0.5;stroke-miterlimit:10;stroke-dasharray:4.0254,2.0127;}
	.st17{fill:none;stroke:#000000;stroke-width:0.5;stroke-miterlimit:10;stroke-dasharray:3.9756,1.9878;}
	.st18{fill:none;stroke:#000000;stroke-width:0.5;stroke-miterlimit:10;stroke-dasharray:4.0017,2.0009;}
	.st19{fill:none;stroke:#000000;stroke-width:0.5;stroke-miterlimit:10;stroke-dasharray:3.9496,1.9748;}
	.st20{fill:none;stroke:#000000;stroke-width:0.5;stroke-miterlimit:10;stroke-dasharray:3.9971,1.9985;}
	.st21{fill:none;stroke:#000000;stroke-width:0.5;stroke-miterlimit:10;stroke-dasharray:3.9753,1.9877;}
	.st22{fill:none;stroke:#000000;stroke-width:0.5;stroke-miterlimit:10;stroke-dasharray:3.9482,1.9741;}
	.st23{fill:none;stroke:#000000;stroke-width:0.5;stroke-miterlimit:10;stroke-dasharray:4.0047,2.0023;}
	.st24{fill:none;stroke:#000000;stroke-width:0.5;stroke-miterlimit:10;stroke-dasharray:3.9284,1.9642;}
	.st25{fill:none;stroke:#000000;stroke-width:0.5;stroke-miterlimit:10;stroke-dasharray:4.007,2.0035;}
	.st26{fill:none;stroke:#000000;stroke-width:0.5;stroke-miterlimit:10;stroke-dasharray:3.9236,1.9618;}
	.st27{fill:none;stroke:#000000;stroke-width:0.5;stroke-miterlimit:10;stroke-dasharray:3.9244,1.9622;}
	.st28{fill:none;stroke:#000000;stroke-width:0.5;stroke-miterlimit:10;stroke-dasharray:3.9258,1.9629;}
	.st29{fill:none;stroke:#000000;stroke-width:0.5;stroke-miterlimit:10;stroke-dasharray:4.0023,2.0012;}
	.st30{fill:none;stroke:#000000;stroke-width:0.5;stroke-miterlimit:10;stroke-dasharray:4.0473,2.0236;}
	.st31{fill:none;stroke:#000000;stroke-width:2;stroke-miterlimit:10;}
	.st32{fill:#FFFFFF;stroke:#000000;stroke-width:0.5;stroke-linecap:round;stroke-linejoin:round;stroke-miterlimit:10;}
	.st33{fill:#FFFFFF;stroke:#000000;stroke-width:0.5;stroke-linejoin:round;stroke-miterlimit:10;}
	.st34{opacity:0.4;fill:#662D91;}
	.st35{opacity:0.35;fill:#662D91;}
	.st36{opacity:0.5;fill:#662D91;}
	.st37{opacity:0.25;fill:#662D91;}
	.st38{opacity:0.3;fill:#662D91;}
	.st39{opacity:0.2;fill:#662D91;}
	.st40{opacity:0.23;fill:#662D91;}
	.st41{opacity:0.28;fill:#662D91;}
	.st42{opacity:0.33;fill:#662D91;}
	.st43{fill:#F15A24;}
	.st44{opacity:0.4;}
	.st45{fill:#FFFFFF;stroke:#000000;stroke-width:0.5;stroke-miterlimit:10;}
	.st46{opacity:0.12;fill:#662D91;}
	.st47{opacity:0.18;fill:#662D91;}
	.st48{opacity:0.15;fill:#662D91;}
</style>
<g id="Outline_1_" class="st0">
	<ellipse class="st1" cx="289.18" cy="81.73" rx="89.11" ry="29.06"/>
	<ellipse class="st1" cx="289.18" cy="78.72" rx="120.48" ry="44.06"/>
	<ellipse class="st1" cx="289.18" cy="87.85" rx="150.94" ry="56.2"/>
	<ellipse class="st1" cx="289.63" cy="112.98" rx="170.46" ry="66.64"/>
	<ellipse class="st1" cx="289.18" cy="141.4" rx="176.02" ry="75.11"/>
	<ellipse class="st1" cx="287.31" cy="166.66" rx="166.75" ry="75.11"/>
	<ellipse class="st1" cx="290.51" cy="180.34" rx="153.77" ry="68.08"/>
	<ellipse class="st1" cx="289.18" cy="97.58" rx="65.9" ry="24.64"/>
	<ellipse class="st1" cx="289.18" cy="126.59" rx="59.19" ry="20.27"/>
	<ellipse class="st1" cx="289.18" cy="153.77" rx="64.6" ry="23.48"/>
	<ellipse class="st1" cx="289.18" cy="169.98" rx="83.11" ry="32.5"/>
	<ellipse class="st1" cx="289.18" cy="181.25" rx="109.33" ry="53.38"/>
</g>
<g id="Layer_11">
	<path d="M459.35,148c0,0-25.77,57.4-25.49,57.3c0.28-0.09,10.23-0.47,10.23-0.47l31.08-42.3l-12.85-18.96L459.35,148z"/>
	<polygon class="st2" points="400.69,207.91 427.62,223.95 446.31,202.05 	"/>
	<polygon class="st3" points="400.69,207.91 427.62,223.95 445.99,201.94 	"/>
	<path class="st4" d="M181.67,43.81c0.21-0.14,25.77-5.67,25.77-5.67l-3.16,13.95L181.67,43.81z"/>
	<path class="st5" d="M181.67,43.81c0.21-0.14,25.77-5.67,25.77-5.67l-3.16,13.95L181.67,43.81z"/>
</g>
<g id="Layer_16">
</g>
<g id="Layer_17">
</g>
<g id="base_white">
	<path class="st6" d="M463.02,115.87c1.87,7.86,2.85,16.4,2.86,25.68c0.02,45.93-32.91,79.41-89.97,95.96"/>
	<path class="st7" d="M464.89,141.55c0.03,65.57-67.09,105.76-175.71,107.56c-110.41,1.83-175.71-47.57-175.71-107.56
		c0-75.47,72.7-107.56,175.71-107.56C386.22,33.99,464.85,58.29,464.89,141.55z"/>
</g>
<g id="Shadow">
	<linearGradient id="SVGID_1_" gradientUnits="userSpaceOnUse" x1="454.3842" y1="206.6946" x2="-30.6983" y2="151.1796">
		<stop  offset="0" style="stop-color:#FFFFFF;stop-opacity:0"/>
		<stop  offset="0.9626" style="stop-color:#000000"/>
	</linearGradient>
	<ellipse class="st8" cx="241.14" cy="182.29" rx="205.6" ry="76.93"/>
</g>
<g id="Foreground_Lines">
	<ellipse class="st9" cx="289.18" cy="81.91" rx="89.11" ry="29.06"/>
	<ellipse class="st9" cx="289.18" cy="78.9" rx="120.48" ry="44.06"/>
	<ellipse class="st9" cx="290.35" cy="89.27" rx="149.77" ry="54.96"/>
	<path class="st9" d="M457.71,101.99c1.57,3.63,2.38,7.37,2.38,11.17c0,36.8-76.32,66.64-170.46,66.64s-170.46-29.84-170.46-66.64
		c0-4.18,0.98-8.27,2.87-12.24"/>
	<path class="st9" d="M465.2,141.58c0,41.48-78.81,75.11-176.02,75.11s-176.02-33.63-176.02-75.11"/>
	<path class="st9" d="M448.22,193.76c-24.39,28.19-85.95,48.19-158.05,48.19c-75.07,0-138.73-21.69-160.88-51.73"/>
	<path class="st9" d="M224.15,101.78c-0.57-1.31-0.87-2.65-0.87-4.02c0-13.61,29.5-24.64,65.9-24.64s65.9,11.03,65.9,24.64
		c0,1.37-0.3,2.71-0.87,4.02"/>
	<path class="st9" d="M259.87,109.15c8.64-1.69,18.65-2.66,29.31-2.66c10.94,0,21.18,1.02,29.97,2.79"/>
</g>
<g id="shading">
	<path class="st10" d="M348.69,103.49c-15.08,4.79-34.07,7.48-59.52,7.48c-28.26,0-42.34-2.83-56.19-6.5
		c9.43-5.68,33.56-16.01,57.36-15.2C313.12,90.05,338.6,97.21,348.69,103.49z"/>
	<path class="st11" d="M346.88,96.98l15.81-38.79l97.34,37.3l13.78,65.68L438,204.74c0,0,32.33-41.03,4.4-61.99
		c-17.25-12.94,5.77-24.1-1.62-32.17c-5.57-6.08-35.57-10.48-50.08-12.07c-10.34-1.13,3-8.89-6.19-10.39
		C373.04,86.26,360.98,88.23,346.88,96.98z"/>
	<path class="st12" d="M193.25,47.42l25.27-8.35l40.45,11.02l15.42,39.18l-19.66,5.66c0,0-7.99-17.27-13.06-22
		C229.69,61.74,240,64.65,237.32,60c-3.2-5.54-15.68-6-25.57-7.34c-7.04-0.96,4.35-4.91-1.91-6.14
		C205.31,45.63,200.54,45.45,193.25,47.42z"/>
</g>
<g id="Background_Line" class="st13">
	<g class="st14">
		<g>
			<path class="st9" d="M122.03,100.92c0.28-0.6,0.59-1.19,0.91-1.78"/>
			<path class="st15" d="M123.94,97.42c18.09-29.21,85.41-50.9,165.68-50.9c81.98,0,150.44,22.62,166.77,52.77"/>
			<path class="st9" d="M456.86,100.18c0.3,0.6,0.59,1.2,0.85,1.81"/>
		</g>
	</g>
	<g class="st14">
		<g>
			<path class="st9" d="M113.16,141.58c0-0.67,0.02-1.33,0.06-2"/>
			<path class="st16" d="M113.4,137.58c4.87-39.63,81.7-71.12,175.77-71.12c94.86,0,172.19,32.02,175.88,72.11"/>
			<path class="st9" d="M465.14,139.58c0.04,0.66,0.06,1.33,0.06,2"/>
		</g>
	</g>
	<g class="st14">
		<g>
			<path class="st9" d="M129.92,190.23c-0.4-0.54-0.79-1.09-1.16-1.63"/>
			<path class="st17" d="M127.68,186.93c-3.99-6.39-6.12-13.13-6.12-20.09c0-41.48,75.77-75.11,169.24-75.11
				s169.24,33.63,169.24,75.11c0,8.62-3.27,16.9-9.29,24.61"/>
			<path class="st9" d="M450.13,192.23c-0.42,0.51-0.84,1.03-1.28,1.54"/>
		</g>
	</g>
	<g class="st14">
		<g>
			<path class="st9" d="M156.59,216.69c-0.55-0.38-1.1-0.77-1.64-1.16"/>
			<path class="st18" d="M153.35,214.34c-13.13-9.96-20.63-21.51-20.63-33.82c0-37.6,70.05-68.08,156.46-68.08
				s156.46,30.48,156.46,68.08c0,13.9-9.57,26.82-25.99,37.59"/>
			<path class="st9" d="M418.82,218.66c-0.56,0.36-1.12,0.71-1.7,1.07"/>
		</g>
	</g>
	<g>
		<g>
			<path class="st9" d="M352.82,149.9c0.3,0.62,0.53,1.24,0.69,1.88"/>
			<path class="st19" d="M353.78,153.73c0,0.07,0,0.15,0,0.22c0,12.97-28.92,23.48-64.6,23.48s-64.6-10.51-64.6-23.48
				c0-0.3,0.02-0.6,0.05-0.9"/>
			<path class="st9" d="M224.78,152.07c0.14-0.64,0.35-1.27,0.63-1.9"/>
		</g>
	</g>
	<g class="st14">
		<g>
			<path class="st9" d="M225.41,150.17c0.26-0.59,0.59-1.17,0.97-1.75"/>
			<path class="st20" d="M227.59,146.84c8.28-9.49,32.73-16.37,61.59-16.37c29.4,0,54.21,7.13,62.03,16.9"/>
			<path class="st9" d="M351.81,148.17c0.39,0.57,0.73,1.14,1.01,1.72"/>
		</g>
	</g>
	<g>
		<g>
			<path class="st9" d="M352.37,149.05c0.61,0.28,1.22,0.57,1.81,0.86"/>
			<path class="st21" d="M355.95,150.81c10.27,5.41,16.34,12.1,16.34,19.36c0,17.95-37.21,32.5-83.11,32.5s-83.11-14.55-83.11-32.5
				c0-7.24,6.06-13.93,16.3-19.33"/>
			<path class="st9" d="M223.25,150.37c0.59-0.3,1.18-0.59,1.8-0.88"/>
		</g>
	</g>
	<g class="st14">
		<g>
			<path class="st9" d="M225.04,149.49c0.59-0.28,1.2-0.56,1.81-0.83"/>
			<path class="st22" d="M228.67,147.88c15.16-6.29,36.66-10.22,60.51-10.22c23.82,0,45.3,3.92,60.45,10.2"/>
			<path class="st9" d="M350.54,148.24c0.62,0.27,1.23,0.53,1.83,0.81"/>
		</g>
	</g>
	<g>
		<g>
			<path class="st9" d="M347.38,136.24c0.64,0.2,1.28,0.4,1.91,0.6"/>
			<path class="st23" d="M351.2,137.46c28.58,9.63,47.31,25.73,47.31,43.97c0,29.48-48.95,53.38-109.33,53.38
				s-109.33-23.9-109.33-53.38c0-18.45,19.17-34.72,48.32-44.31"/>
			<path class="st9" d="M229.11,136.82c0.63-0.2,1.27-0.4,1.91-0.6"/>
		</g>
	</g>
	<g class="st14">
		<g>
			<path class="st9" d="M231.02,136.22c0.63-0.19,1.27-0.39,1.91-0.57"/>
			<path class="st24" d="M234.82,135.1c16.01-4.49,34.57-7.05,54.35-7.05c20.2,0,39.11,2.67,55.35,7.34"/>
			<path class="st9" d="M345.47,135.66c0.64,0.19,1.28,0.38,1.91,0.58"/>
		</g>
	</g>
	<g class="st14">
		<g>
			<path class="st9" d="M231.56,126.77c0-0.67,0.09-1.32,0.27-1.97"/>
			<path class="st25" d="M232.58,122.94c2.99-5.49,12.28-10.2,25.14-13.15"/>
			<path class="st9" d="M258.71,109.57c0.64-0.14,1.3-0.28,1.96-0.41"/>
		</g>
	</g>
	<g>
		<g>
			<path class="st9" d="M346.88,126.77c0,0.67-0.09,1.32-0.27,1.97"/>
			<path class="st26" d="M345.88,130.55c-5.05,9.38-28.49,16.48-56.66,16.48c-29.04,0-53.07-7.55-57.08-17.37"/>
			<path class="st9" d="M231.83,128.74c-0.18-0.65-0.27-1.31-0.27-1.97"/>
		</g>
	</g>
	<g class="st14">
		<g>
			<path class="st9" d="M318.42,109.29c0.66,0.14,1.31,0.28,1.95,0.42"/>
			<path class="st27" d="M322.28,110.16c12.74,3.14,21.7,8.04,24.01,13.71"/>
			<path class="st9" d="M346.61,124.79c0.18,0.65,0.27,1.31,0.27,1.97"/>
		</g>
	</g>
	<g>
		<g>
			<path class="st9" d="M355.2,101.78c-0.26,0.59-0.58,1.18-0.95,1.76"/>
			<path class="st28" d="M353.09,105.12c-8.37,10.01-33.37,17.28-62.91,17.28c-30.29,0-55.81-7.64-63.52-18.05"/>
			<path class="st9" d="M226.1,103.54c-0.37-0.58-0.69-1.16-0.95-1.76"/>
		</g>
	</g>
	<g>
		<g>
			<path class="st9" d="M372.29,167.08c-0.61-0.27-1.21-0.56-1.8-0.86"/>
			<path class="st29" d="M368.72,165.28c-12.17-6.9-21.84-20.18-21.84-34.8c0-7.55,0.71-15.3,4.05-21.47"/>
			<path class="st9" d="M351.43,108.13c0.34-0.57,0.71-1.13,1.1-1.67"/>
		</g>
	</g>
	<g>
		<g>
			<path class="st9" d="M206.15,164.64c0.61-0.27,1.21-0.55,1.82-0.84"/>
			<path class="st30" d="M209.78,162.9c12.22-6.26,22.22-16.06,21.78-34.87c-0.18-7.55-0.75-15.29-4.06-21.46"/>
			<path class="st9" d="M227,105.69c-0.34-0.57-0.7-1.13-1.1-1.67"/>
		</g>
	</g>
</g>
<g id="Color">
	<path class="st10" d="M465.91,141.87c0.03,65.57-67.35,105.76-176.4,107.56c-110.84,1.83-176.4-47.57-176.4-107.56
		c0-75.47,72.98-107.56,176.4-107.56C386.93,34.31,465.87,58.6,465.91,141.87z"/>
</g>
<g id="Outline_2_">
	<path class="st31" d="M465.58,141.87c0.03,65.57-67.35,105.76-176.4,107.56c-110.84,1.83-176.4-47.57-176.4-107.56
		c0-75.47,72.98-107.56,176.4-107.56C386.6,34.31,465.54,58.6,465.58,141.87z"/>
</g>
<g id="overlay_white">
	<polygon class="st32" points="475.23,162.53 448.37,183.26 446.37,202.05 	"/>
	<polygon class="st32" points="456.63,102.35 440.84,127.84 475.23,162.53 	"/>
	<polygon class="st32" points="462.84,89.86 475.23,162.53 479.44,139.81 	"/>
	<polygon class="st32" points="456.63,102.35 462.84,89.86 475.23,162.53 	"/>
	<polygon class="st32" points="405.21,75.21 388.46,82.74 456.63,102.35 	"/>
	<polygon class="st33" points="462.84,89.86 405.21,75.21 456.63,102.35 	"/>
	<polygon class="st32" points="411.44,64.65 405.21,75.21 462.84,89.86 	"/>
	<polygon class="st32" points="454.79,74.33 462.84,89.86 411.44,64.65 	"/>
	<polygon class="st32" points="408.42,55.67 411.44,64.65 454.79,74.33 	"/>
	<path class="st32" d="M438,60c-0.84,0-29.58-4.33-29.58-4.33l46.37,18.65L438,60z"/>
	<path class="st32" d="M357.35,81.21c0.7-0.14,51.07-25.53,51.07-25.53s4.23,8.6,3.02,8.98C410.23,65.02,357.35,81.21,357.35,81.21z
		"/>
	<path class="st32" d="M354,87.84c0.42-0.35,3.35-6.63,3.35-6.63l47.86-6L354,87.84z"/>
	<polygon class="st32" points="411.44,64.65 357.35,81.21 405.21,75.21 	"/>
	<path class="st32" d="M345.35,103.87c0.42-0.42,12-22.66,12-22.66l-7.78,21.71L345.35,103.87z"/>
	<polygon class="st32" points="354.98,77.95 357.35,81.21 408.42,55.67 	"/>
	<path class="st32" d="M398.79,47.02c0.42,0,9.63,8.65,9.63,8.65l-53.44,22.28L398.79,47.02z"/>
	<polygon class="st32" points="438,60 398.79,47.02 408.42,55.67 	"/>
	<polygon class="st32" points="414,48.98 398.79,47.02 438,60 	"/>
	<polygon class="st32" points="381.7,40.19 398.79,47.02 414,48.98 	"/>
	<polygon class="st32" points="354.98,77.95 398.79,47.02 351.35,74.33 	"/>
	<polygon class="st32" points="381.7,40.19 351.35,74.33 398.79,47.02 	"/>
	<polygon class="st32" points="345.35,103.87 357.35,81.21 354.98,77.95 	"/>
	<path class="st32" d="M340.32,105.71c0.37,0,5.02-1.84,5.02-1.84l9.63-25.92L340.32,105.71z"/>
	<polygon class="st32" points="351.35,74.33 340.32,105.71 354.98,77.95 	"/>
	<polygon class="st32" points="343.81,63.63 351.35,74.33 381.7,40.19 	"/>
	<polygon class="st32" points="357.35,35.53 381.7,40.19 343.81,63.63 	"/>
	<polygon class="st32" points="332.28,61.58 343.81,63.63 357.35,35.53 	"/>
	<path class="st32" d="M336.84,27.77c-0.42,0.14-4.56,33.81-4.56,33.81l25.07-26.05L336.84,27.77z"/>
	<polygon class="st32" points="320.51,58.05 336.84,27.77 332.28,61.58 	"/>
	<polygon class="st32" points="317.02,26.37 320.51,58.05 336.84,27.77 	"/>
	<path class="st32" d="M305.72,55.67c0.7-0.98,11.3-29.3,11.3-29.3l3.49,31.67L305.72,55.67z"/>
	<polygon class="st32" points="291.63,25.26 305.72,55.67 317.02,26.37 	"/>
	<path class="st32" d="M284.79,55.67c0.7-2.09,6.84-30.42,6.84-30.42l14.09,30.42H284.79z"/>
	<path class="st32" d="M282.28,25.26c-0.14,0.28,2.51,30.42,2.51,30.42l6.84-30.42H282.28z"/>
	<polygon class="st32" points="254.79,32.93 284.79,55.67 282.28,25.26 	"/>
	<path class="st32" d="M262.74,63.63c-0.14-1.12-7.95-30.7-7.95-30.7l30,22.74L262.74,63.63z"/>
	<polygon class="st32" points="228,29.3 254.79,32.93 262.74,63.63 	"/>
	<path class="st32" d="M208.74,34.33L228,29.3c0,0,23.72,33.02,22.6,32.28C249.49,60.84,208.74,34.33,208.74,34.33z"/>
	<polygon class="st32" points="262.74,63.63 250.6,61.58 228,29.3 	"/>
	<polygon class="st32" points="262.74,103.72 250.6,61.58 239.16,60 	"/>
	<path class="st32" d="M276,105.35c-0.28-0.98-25.4-43.77-25.4-43.77l12.14,42.14L276,105.35z"/>
	<polygon class="st32" points="262.74,63.63 250.6,61.58 276,105.35 	"/>
	<path class="st32" d="M286.05,103.72c0,0.09-23.3-40.09-23.3-40.09L276,105.35L286.05,103.72z"/>
	<polygon class="st32" points="284.79,55.67 262.74,63.63 286.05,103.72 	"/>
	<polygon class="st32" points="298.05,105.35 286.05,103.72 284.79,55.67 	"/>
	<polygon class="st32" points="305.72,55.67 284.79,55.67 298.05,105.35 	"/>
	<polygon class="st32" points="304.32,98.51 298.05,105.35 305.72,55.67 	"/>
	<polygon class="st32" points="320.51,58.05 305.72,55.67 304.32,98.51 	"/>
	<polygon class="st32" points="314.79,109.4 304.32,98.51 320.51,58.05 321.77,109.4 	"/>
	<polygon class="st32" points="332.28,61.58 320.51,58.05 321.77,109.4 	"/>
	<polygon class="st32" points="343.81,63.63 332.28,61.58 328.48,108 	"/>
	<polygon class="st32" points="321.77,109.4 328.48,108 332.28,61.58 	"/>
	<polygon class="st32" points="340.32,105.71 343.81,63.63 351.35,74.33 	"/>
	<polygon class="st32" points="328.48,108 340.32,105.71 343.81,63.63 	"/>
	<path class="st32" d="M181.67,43.81c0.21-0.14,27.07-9.49,27.07-9.49l9.84,6.98L181.67,43.81z"/>
	<path class="st32" d="M260.72,109.4c0.07,0,2.02-5.67,2.02-5.67l13.26,1.63l-10.47,4.05H260.72z"/>
	<polygon class="st32" points="276,110.58 276,105.35 265.53,109.4 	"/>
	<polyline class="st32" points="286.05,103.72 276,105.35 276,110.58 282,110.58 286.05,103.72 	"/>
	<polygon class="st32" points="286.36,110.93 286.05,103.72 282,110.58 	"/>
	<polyline class="st32" points="298.05,105.35 286.05,103.72 289.19,110.93 298.19,110.93 298.05,105.35 	"/>
	<polygon class="st32" points="286.36,110.93 289.19,110.93 286.05,103.72 	"/>
	<path class="st32" d="M304.53,110.58c0.1,0-0.21-12.07-0.21-12.07l-6.28,6.84l2.27,5.58L304.53,110.58z"/>
	<polygon class="st32" points="298.19,110.93 300.31,110.93 298.05,105.35 	"/>
	<polygon class="st32" points="304.53,110.58 314.79,109.4 304.32,98.51 	"/>
</g>
<g id="Layer_10">
	<polygon class="st34" points="475.17,162.53 448.22,183.44 446.31,202.05 	"/>
	<polygon class="st35" points="456.57,102.35 440.78,127.84 475.17,162.53 	"/>
	<polygon class="st36" points="462.78,89.86 475.17,162.53 479.38,139.81 	"/>
	<polygon class="st36" points="456.57,102.35 462.78,89.86 475.17,162.53 	"/>
	<polygon class="st37" points="405.15,75.21 388.41,82.74 456.57,102.35 	"/>
	<polygon class="st38" points="462.78,89.86 405.15,75.21 456.57,102.35 	"/>
	<polygon class="st35" points="411.38,64.65 405.15,75.21 462.78,89.86 	"/>
	<polygon class="st34" points="454.73,74.33 462.78,89.86 411.38,64.65 	"/>
	<polygon class="st35" points="408.36,55.67 411.38,64.65 454.73,74.33 	"/>
	<path class="st34" d="M437.94,60c-0.84,0-29.58-4.33-29.58-4.33l46.37,18.65L437.94,60z"/>
	<path class="st38" d="M357.29,81.21c0.7-0.14,51.07-25.53,51.07-25.53s4.23,8.6,3.02,8.98C410.17,65.02,357.29,81.21,357.29,81.21z
		"/>
	<path class="st38" d="M353.94,87.84c0.42-0.35,3.35-6.63,3.35-6.63l47.86-6L353.94,87.84z"/>
	<polygon class="st38" points="411.38,64.65 357.29,81.21 405.15,75.21 	"/>
	<path class="st34" d="M345.29,103.87c0.42-0.42,12-22.66,12-22.66l-7.78,21.71L345.29,103.87z"/>
	<polygon class="st35" points="354.92,77.95 357.29,81.21 408.36,55.67 	"/>
	<path class="st38" d="M398.73,47.02c0.42,0,9.63,8.65,9.63,8.65l-53.44,22.28L398.73,47.02z"/>
	<polygon class="st35" points="437.94,60 398.73,47.02 408.36,55.67 	"/>
	<polygon class="st35" points="413.94,48.98 398.73,47.02 437.94,60 	"/>
	<polygon class="st34" points="381.64,40.19 398.73,47.02 413.94,48.98 	"/>
	<polygon class="st35" points="354.92,77.95 398.73,47.02 351.29,74.33 	"/>
	<polygon class="st38" points="381.64,40.19 351.29,74.33 398.73,47.02 	"/>
	<polygon class="st34" points="345.29,103.87 357.29,81.21 354.92,77.95 	"/>
	<path class="st34" d="M340.32,105.71c0.37,0,4.97-1.84,4.97-1.84l9.63-25.92L340.32,105.71z"/>
	<polygon class="st34" points="351.29,74.33 340.32,105.71 354.92,77.95 	"/>
	<polygon class="st35" points="343.76,63.63 351.29,74.33 381.64,40.19 	"/>
	<polygon class="st38" points="357.29,35.53 381.64,40.19 343.76,63.63 	"/>
	<polygon class="st35" points="332.22,61.58 343.76,63.63 357.29,35.53 	"/>
	<path class="st38" d="M336.78,27.77c-0.42,0.14-4.56,33.81-4.56,33.81l25.07-26.05L336.78,27.77z"/>
	<polygon class="st35" points="320.45,58.05 336.78,27.77 332.22,61.58 	"/>
	<polygon class="st37" points="316.96,26.51 320.45,58.19 336.78,27.91 	"/>
	<path class="st39" d="M305.66,55.67c0.7-0.98,11.3-29.3,11.3-29.3l3.49,31.67L305.66,55.67z"/>
	<polygon class="st37" points="292.11,25.4 306.21,55.81 317.51,26.51 	"/>
	<path class="st39" d="M284.73,55.67c0.7-2.09,6.84-30.42,6.84-30.42l14.09,30.42H284.73z"/>
	<path class="st37" d="M282.76,25.4c-0.14,0.28,2.51,30.42,2.51,30.42l6.84-30.42H282.76z"/>
	<polygon class="st37" points="255.28,33.07 285.28,55.81 282.76,25.4 	"/>
	<path class="st39" d="M262.69,63.63c-0.14-1.12-7.95-30.7-7.95-30.7l30,22.74L262.69,63.63z"/>
	<polygon class="st37" points="227.94,29.3 254.73,32.93 262.69,63.63 	"/>
	<path class="st38" d="M208.69,34.33l19.26-5.02c0,0,23.72,33.02,22.6,32.28C249.43,60.84,208.69,34.33,208.69,34.33z"/>
	<polygon class="st37" points="262.69,63.63 250.55,61.58 227.94,29.3 	"/>
	<polygon class="st38" points="262.69,103.72 250.55,61.58 239.1,60 	"/>
	<path class="st37" d="M275.94,105.35c-0.28-0.98-25.4-43.77-25.4-43.77l12.14,42.14L275.94,105.35z"/>
	<polygon class="st37" points="262.69,63.63 250.55,61.58 275.94,105.35 	"/>
	<path class="st40" d="M285.99,103.72c0,0.09-23.3-40.09-23.3-40.09l13.26,41.72L285.99,103.72z"/>
	<polygon class="st37" points="284.73,55.67 262.69,63.63 285.99,103.72 	"/>
	<path class="st40" d="M298.05,105.35c-0.84-0.7-12-1.63-12-1.63l-1.26-48.05L298.05,105.35z"/>
	<polygon class="st37" points="305.66,55.67 284.73,55.67 297.99,105.35 	"/>
	<polygon class="st40" points="304.27,98.51 297.99,105.35 305.66,55.67 	"/>
	<polygon class="st37" points="320.45,58.05 305.66,55.67 304.27,98.51 	"/>
	<polygon class="st41" points="314.73,109.4 304.27,98.51 320.45,58.05 321.71,109.4 	"/>
	<polygon class="st42" points="332.22,61.58 320.45,58.05 321.71,109.4 	"/>
	<polygon class="st42" points="343.76,63.79 332.22,61.74 328.62,107.6 	"/>
	<polygon class="st41" points="321.71,109.29 328.48,108 332.22,61.47 	"/>
	<polygon class="st42" points="340.32,105.71 343.76,63.63 351.29,74.33 	"/>
	<polygon class="st41" points="328.48,108 340.32,105.71 343.76,63.63 	"/>
	<path class="st38" d="M181.62,43.81c0.21-0.14,27.07-9.49,27.07-9.49l9.84,6.98L181.62,43.81z"/>
	<path class="st35" d="M260.85,109.36c0.07,0,1.83-5.64,1.83-5.64l13.66,1.63l-10.47,4.05L260.85,109.36z"/>
	<polygon class="st35" points="276.35,110.58 276.35,105.35 265.88,109.4 	"/>
	<polyline class="st34" points="285.99,103.72 276.35,105.35 276.35,110.58 282.35,110.58 285.99,103.72 	"/>
	<polygon class="st35" points="286.3,110.93 285.99,103.72 281.94,110.58 	"/>
	<polyline class="st35" points="297.95,105.35 285.95,103.72 289.09,110.93 298.09,110.93 297.95,105.35 	"/>
	<polygon class="st34" points="286.3,110.93 289.13,110.93 285.99,103.72 	"/>
	<path class="st35" d="M304.48,110.58c0.1,0-0.21-12.07-0.21-12.07l-6.28,6.84l2.27,5.58L304.48,110.58z"/>
	<polygon class="st34" points="298.13,110.93 300.26,110.93 297.99,105.35 	"/>
	<polygon class="st35" points="304.48,110.58 314.73,109.4 304.27,98.51 	"/>
</g>
<g id="Shard_Shadows" class="st13">
	<polygon class="st43" points="390.22,97.93 409,104.08 389.1,115.71 	"/>
	<polygon class="st43" points="421.78,105.84 426.33,112.79 416.01,114.77 	"/>
	<polygon class="st43" points="455.03,168.38 442.04,164.11 435.46,142.22 	"/>
	<polygon class="st43" points="410.79,131.2 402.64,117.05 400.9,135.2 	"/>
	<polygon class="st44" points="424.28,251.51 409.02,255.64 414.32,237.16 	"/>
	<polygon class="st44" points="444.65,228.67 443.68,240.19 426.26,244.06 	"/>
	<polygon class="st44" points="463.01,232.03 450.25,234 452.57,217.37 	"/>
	<polygon class="st43" points="443.31,114.92 432.21,133.2 432.79,109.68 	"/>
</g>
<g id="Shard_Outlines">
	<polygon class="st45" points="389.58,88.78 408.36,94.93 388.46,106.56 	"/>
	<polygon class="st45" points="421.81,101.95 426.36,108.9 416.04,110.88 	"/>
	<polygon class="st45" points="459.7,158.61 446.71,154.33 440.12,132.44 	"/>
	<polygon class="st45" points="413.96,127.98 405.81,113.83 404.08,131.98 	"/>
	<polygon class="st45" points="428.16,239.93 412.91,244.06 418.21,225.58 	"/>
	<polygon class="st45" points="452.42,210.19 451.44,221.71 434.02,225.58 	"/>
	<polygon class="st45" points="466.47,184.6 453.71,186.57 456.03,169.94 	"/>
	<polygon class="st45" points="448.09,107.78 435.12,125.36 432.15,100.53 	"/>
</g>
<g id="Shard_Colors">
	<polygon class="st46" points="389.52,88.88 408.3,95.04 388.41,106.66 	"/>
	<polygon class="st37" points="421.75,102.05 426.31,109 415.98,110.98 	"/>
	<polygon class="st37" points="459.64,158.71 446.65,154.44 440.06,132.55 	"/>
	<polygon class="st39" points="413.9,128.09 405.75,113.94 404.02,132.09 	"/>
	<polygon class="st38" points="428.11,240.04 412.85,244.16 418.15,225.68 	"/>
	<polygon class="st47" points="452.36,210.3 451.38,221.81 433.96,225.68 	"/>
	<polygon class="st48" points="466.42,184.7 453.65,186.67 455.98,170.04 	"/>
	<polygon class="st47" points="448.03,107.89 435.06,125.47 432.09,100.64 	"/>
	<g>
	</g>
	<g>
	</g>
	<g>
	</g>
	<g>
	</g>
	<g>
	</g>
</g>
</svg>
