<?xml version="1.0" encoding="utf-8"?>
<!-- Generator: Adobe Illustrator 28.2.0, SVG Export Plug-In . SVG Version: 6.00 Build 0)  -->
<svg version="1.1" baseProfile="basic" id="Layer_1"
	 xmlns="http://www.w3.org/2000/svg" xmlns:xlink="http://www.w3.org/1999/xlink" x="0px" y="0px" viewBox="0 0 360 180"
	 xml:space="preserve">
<style type="text/css">
	.st0{opacity:0.6;fill:#0B5394;}
	.st1{fill:#A1BCD1;}
	.st2{fill:#FFFFFF;}
	.st3{fill:none;stroke:#0F1B4A;stroke-width:2;stroke-linejoin:round;stroke-miterlimit:10;}
	.st4{fill:#101B4A;}
	.st5{opacity:0.5;}
	.st6{fill:none;stroke:#101B4A;stroke-width:2;stroke-miterlimit:10;}
	.st7{opacity:0;fill:none;stroke:#000000;stroke-width:5.676027e-07;stroke-miterlimit:10;}
</style>
<polygon class="st0" points="218.5,25 39.4,139.8 304.5,139.8 "/>
<g>
	<path class="st1" d="M39.4,139.8H109c0-13.8-4.2-26.6-11.5-37.3L39.4,139.8z"/>
	<path class="st2" d="M98.3,102l-0.8,0.5c7.3,10.7,11.5,23.5,11.5,37.3h1C110,125.8,105.7,112.8,98.3,102z"/>
</g>
<polygon class="st3" points="218.5,25 39.4,139.8 304.5,139.8 "/>
<circle class="st4" cx="304.5" cy="139.3" r="3.6"/>
<circle class="st4" cx="217.9" cy="25" r="3.6"/>
<circle class="st4" cx="39.4" cy="139.8" r="3.6"/>
<g class="st5">
	<line class="st6" x1="40.4" y1="151.6" x2="303.5" y2="151.6"/>
	<g>
		<rect x="39.4" y="145.1" class="st4" width="2" height="13"/>
	</g>
	<g>
		<rect x="302.5" y="145.1" class="st4" width="2" height="13"/>
	</g>
</g>
<g class="st5">
	<line class="st6" x1="230.3" y1="19.9" x2="313.4" y2="130.3"/>
	<g>
		<rect x="223.8" y="18.9" transform="matrix(0.799 -0.6013 0.6013 0.799 34.3195 142.5054)" class="st4" width="13" height="2"/>
	</g>
	<g>
		<rect x="306.9" y="129.3" transform="matrix(0.799 -0.6013 0.6013 0.799 -15.378 214.662)" class="st4" width="13" height="2"/>
	</g>
</g>
<g class="st5">
	<line class="st6" x1="205.8" y1="19.5" x2="34" y2="127.5"/>
	<g>
		<rect x="204.8" y="13" transform="matrix(0.8466 -0.5322 0.5322 0.8466 21.1858 112.498)" class="st4" width="2" height="13"/>
	</g>
	<g>
		<rect x="33" y="121" transform="matrix(0.8466 -0.5322 0.5322 0.8466 -62.634 37.6329)" class="st4" width="2" height="13"/>
	</g>
</g>
<polygon class="st7" points="231.5,160.5 231.5,160.5 231.5,160.5 231.5,160.5 231.5,160.5 231.5,160.5 231.5,160.5 231.5,160.5 
	231.5,160.5 231.5,160.5 231.5,160.5 231.5,160.5 231.5,160.5 231.5,160.5 231.5,160.5 231.5,160.5 231.5,160.5 231.5,160.5 
	231.5,160.5 231.5,160.5 231.5,160.5 231.5,160.5 231.5,160.5 231.5,160.5 231.5,160.5 231.5,160.5 231.5,160.5 231.5,160.5 
	231.5,160.5 231.5,160.5 231.5,160.5 231.5,160.5 231.5,160.5 231.5,160.5 231.5,160.5 231.5,160.5 231.5,160.5 231.5,160.5 
	231.5,160.5 231.5,160.5 231.5,160.5 231.5,160.5 231.5,160.5 231.5,160.5 231.5,160.5 231.5,160.5 231.5,160.5 231.5,160.5 
	231.5,160.5 231.5,160.5 231.5,160.5 231.5,160.5 231.5,160.5 231.5,160.5 231.5,160.5 231.5,160.5 231.5,160.5 231.5,160.5 
	231.5,160.5 231.5,160.5 231.5,160.5 231.5,160.5 231.5,160.5 231.5,160.5 231.5,160.5 231.5,160.5 231.5,160.5 231.5,160.5 
	231.5,160.5 231.5,160.5 231.5,160.5 231.5,160.5 231.5,160.5 231.5,160.5 231.5,160.5 231.5,160.5 231.5,160.5 231.5,160.5 
	231.5,160.5 231.5,160.5 231.5,160.5 231.5,160.5 231.5,160.5 231.5,160.5 231.5,160.5 231.5,160.5 231.5,160.5 231.5,160.5 
	231.5,160.5 231.5,160.5 231.5,160.5 231.5,160.5 231.5,160.5 231.5,160.5 231.5,160.5 231.5,160.5 231.5,160.5 231.5,160.5 "/>
<g>
	<path d="M166.7,170.3c-0.8,0-0.6-0.9-0.3-2.4l0.6-2.9l0.3-0.2c1.9-1.4,3.1-2.7,3.5-4.3c0.2-0.8,0.2-1.7-1.2-1.7c-1.3,0-3,0.8-3.7,4
		l-0.6,2.8c-0.6,0.4-1.3,0.9-1.9,1.3l0.2,0.4l1.5-1.1l-0.5,2.3c-0.5,2.2-0.1,2.8,1.2,2.8c0.8,0,2-0.6,3.1-1.7c0-0.2-0.1-0.3-0.3-0.4
		C167.7,170.1,167,170.3,166.7,170.3 M167.2,164.2l0.5-2.4c0.4-1.8,0.9-2.3,1.5-2.3c0.5,0,0.8,0.5,0.7,1.2c-0.2,1.2-1.2,2.2-2.5,3.4
		L167.2,164.2z"/>
	<path d="M172.8,169.5c0.1-0.6,0.3-1.2,0.3-1.4c0-0.2-0.1-0.3-0.4-0.3c-0.5,0-1.3,0.1-2,0.2c-0.1,0.1-0.1,0.3,0,0.4l0.6,0
		c0.2,0,0.3,0.1,0.3,0.3c0,0.1,0,0.3-0.1,0.8l-0.8,3.1c-0.1,0.5-0.3,1.1-0.3,1.4c0,0.3,0.2,0.5,0.7,0.5c0.8,0,1.6-0.5,2.3-1.4
		c0-0.1-0.2-0.3-0.4-0.3c-0.4,0.4-0.9,0.7-1.1,0.7c-0.1,0-0.2-0.1-0.2-0.3c0-0.1,0.1-0.5,0.2-0.8L172.8,169.5 M172,165.8
		c0,0.4,0.4,0.7,0.8,0.7c0.4,0,0.8-0.3,0.8-0.7c0-0.4-0.4-0.7-0.8-0.7C172.4,165.1,172,165.4,172,165.8z"/>
	<path d="M176.6,165.8c0,0.4,0.4,0.7,0.8,0.7c0.4,0,0.8-0.3,0.8-0.7c0-0.4-0.4-0.7-0.8-0.7C177,165.1,176.6,165.4,176.6,165.8
		 M177.4,169.5c0.1-0.6,0.3-1.2,0.3-1.4c0-0.2-0.1-0.3-0.3-0.3c-0.5,0-1.3,0.1-2.1,0.2c-0.1,0.1-0.1,0.3,0,0.4l0.6,0.1
		c0.2,0,0.3,0.2,0.3,0.4c0,0.2-0.1,0.5-0.3,1.2l-0.4,1.6c-0.4,1.5-0.5,2.4-0.8,3.4c-0.4,1.3-0.9,1.5-1.2,1.5c-0.4,0-0.4-0.6-1.1-0.6
		c-0.2,0-0.5,0.1-0.5,0.5c0,0.5,0.6,0.7,1.3,0.7c2,0,2.9-2.8,3.7-6.4L177.4,169.5z"/>
</g>
<g>
	<path d="M278.4,71.4c-0.8,0-0.6-0.9-0.3-2.4l0.6-2.9l0.3-0.2c1.9-1.4,3.1-2.7,3.5-4.3c0.2-0.8,0.2-1.7-1.2-1.7c-1.3,0-3,0.8-3.7,4
		l-0.6,2.8c-0.6,0.4-1.3,0.9-1.9,1.3l0.2,0.4l1.5-1.1l-0.5,2.3c-0.5,2.2-0.1,2.8,1.2,2.8c0.8,0,2-0.6,3.1-1.7c0-0.2-0.1-0.3-0.3-0.4
		C279.4,71.2,278.7,71.4,278.4,71.4 M278.9,65.3l0.5-2.4c0.4-1.8,0.9-2.3,1.5-2.3c0.5,0,0.8,0.5,0.7,1.2c-0.2,1.2-1.2,2.2-2.5,3.4
		L278.9,65.3z"/>
	<path d="M285.6,67.1c0,0.4,0.4,0.7,0.8,0.7c0.4,0,0.8-0.3,0.8-0.7c0-0.4-0.4-0.7-0.8-0.7C286,66.4,285.6,66.8,285.6,67.1
		 M286.4,70.9c0.1-0.6,0.3-1.2,0.3-1.4c0-0.2-0.1-0.3-0.3-0.3c-0.5,0-1.3,0.1-2.1,0.2c-0.1,0.1-0.1,0.3,0,0.4l0.6,0.1
		c0.2,0,0.3,0.2,0.3,0.4c0,0.2-0.1,0.5-0.3,1.2l-0.4,1.6c-0.4,1.5-0.5,2.4-0.8,3.4c-0.4,1.3-0.9,1.5-1.2,1.5c-0.4,0-0.4-0.6-1.1-0.6
		c-0.2,0-0.5,0.1-0.5,0.5c0,0.5,0.6,0.7,1.3,0.7c2,0,2.9-2.8,3.7-6.4L286.4,70.9z"/>
	<path d="M288.8,74.5c-0.1,0.3-0.2,0.7-0.2,0.8c0,0.3,0.1,0.4,0.7,0.4c0.6,0,0.6-0.7,0.7-1.2l0.6-2.4c0.1,0,0.2,0,0.3,0
		c0.1,0,0.3,0.1,0.3,0.2c0.3,0.5,0.5,1.2,0.8,1.9c0.5,1.1,0.9,1.5,1.6,1.5c0.5,0,1.1-0.5,1.6-1.3c-0.1-0.1-0.2-0.2-0.3-0.2
		c-0.3,0.4-0.7,0.7-0.8,0.7c-0.3,0-0.4-0.3-0.6-0.6c-0.4-0.8-0.7-1.4-0.9-1.8c-0.3-0.5-0.4-0.7-0.9-0.8v-0.1l0.8-0.7
		c0.8-0.7,1.2-0.9,1.5-0.9c0.4,0,0.4,0.2,0.9,0.2c0.2,0,0.7-0.3,0.7-0.7c0-0.4-0.3-0.5-0.8-0.5c-0.5,0-1.5,0.6-2.6,1.5l-0.6,0.5
		c-0.3,0.2-0.6,0.5-0.9,0.5l1.1-4.6c0.2-1,0.4-1.6,0.4-1.6c0-0.1,0-0.1-0.2-0.1c-0.4,0.1-1.6,0.3-2.2,0.4l-0.1,0.4
		c0,0,0,0.1,0.1,0.1l0.5,0c0.2,0,0.3,0.1,0.3,0.4c0,0.2,0,0.4-0.1,0.7L288.8,74.5"/>
</g>
<g>
	<path class="st7" d="M111.3,59.8L111.3,59.8z"/>
	<path d="M99.3,63c-0.8,0-0.6-0.9-0.3-2.4l0.6-2.9l0.3-0.2c1.9-1.4,3.1-2.7,3.5-4.3c0.2-0.8,0.2-1.7-1.2-1.7c-1.3,0-3,0.8-3.7,4
		l-0.6,2.8c-0.6,0.4-1.3,0.9-1.9,1.3l0.2,0.4l1.5-1.1l-0.5,2.3c-0.5,2.2-0.1,2.8,1.2,2.8c0.8,0,2-0.6,3.1-1.7c0-0.2-0.1-0.3-0.3-0.4
		C100.3,62.8,99.6,63,99.3,63 M99.8,56.8l0.5-2.4c0.4-1.8,0.9-2.3,1.5-2.3c0.5,0,0.8,0.5,0.7,1.2c-0.2,1.2-1.2,2.2-2.5,3.4
		L99.8,56.8z"/>
	<path d="M102.7,66.1c-0.1,0.3-0.2,0.7-0.2,0.8c0,0.3,0.1,0.4,0.7,0.4c0.6,0,0.6-0.7,0.7-1.2l0.6-2.4c0.1,0,0.2,0,0.3,0
		c0.1,0,0.3,0.1,0.3,0.2c0.3,0.5,0.5,1.2,0.8,1.9c0.5,1.1,0.9,1.5,1.6,1.5c0.5,0,1.1-0.5,1.6-1.3c-0.1-0.1-0.2-0.2-0.3-0.2
		c-0.3,0.4-0.7,0.7-0.8,0.7c-0.3,0-0.4-0.3-0.6-0.6c-0.4-0.8-0.7-1.4-0.9-1.8c-0.3-0.5-0.4-0.7-0.9-0.8v-0.1l0.8-0.7
		c0.8-0.7,1.2-0.9,1.5-0.9c0.4,0,0.4,0.2,0.9,0.2c0.2,0,0.7-0.3,0.7-0.7c0-0.4-0.3-0.5-0.8-0.5c-0.5,0-1.5,0.6-2.6,1.5l-0.6,0.5
		c-0.3,0.2-0.6,0.5-0.9,0.5l1.1-4.6c0.2-1,0.4-1.6,0.4-1.6c0-0.1,0-0.1-0.2-0.1c-0.4,0.1-1.6,0.3-2.2,0.4l-0.1,0.4
		c0,0,0,0.1,0.1,0.1l0.5,0c0.2,0,0.3,0.1,0.3,0.4c0,0.2,0,0.4-0.1,0.7L102.7,66.1"/>
	<path d="M113.7,62.4c0.1-0.6,0.3-1.2,0.3-1.4c0-0.2-0.1-0.3-0.4-0.3c-0.5,0-1.3,0.1-2,0.2c-0.1,0.1-0.1,0.3,0,0.4l0.6,0
		c0.2,0,0.3,0.1,0.3,0.3c0,0.1,0,0.3-0.1,0.8l-0.8,3.1c-0.1,0.5-0.3,1.1-0.3,1.4c0,0.3,0.2,0.5,0.7,0.5c0.8,0,1.6-0.5,2.3-1.4
		c0-0.1-0.2-0.3-0.4-0.3c-0.4,0.4-0.9,0.7-1.1,0.7c-0.1,0-0.2-0.1-0.2-0.3c0-0.1,0.1-0.5,0.2-0.8L113.7,62.4 M112.9,58.7
		c0,0.4,0.4,0.7,0.8,0.7c0.4,0,0.8-0.3,0.8-0.7c0-0.4-0.4-0.7-0.8-0.7C113.3,58,112.9,58.3,112.9,58.7z"/>
</g>
<path d="M27,149c0.2-0.8,0.4-1.6,0.4-1.9c0-0.3-0.2-0.4-0.4-0.4c-0.7,0-1.6,0.1-2.5,0.3c-0.1,0.2-0.1,0.4,0,0.6l0.8,0.1
	c0.2,0,0.4,0.2,0.4,0.4c0,0.2,0,0.5-0.2,1l-1,4.2c-0.1,0.7-0.3,1.5-0.3,1.9c0,0.4,0.2,0.7,0.8,0.7c1,0,1.9-0.7,2.8-1.9
	c-0.1-0.2-0.2-0.3-0.5-0.3c-0.5,0.6-1.1,1-1.3,1c-0.1,0-0.2-0.1-0.2-0.3c0-0.2,0.1-0.6,0.2-1.2L27,149 M26.1,143.9c0,0.5,0.4,1,1,1
	c0.5,0,1-0.4,1-1c0-0.5-0.4-1-1-1C26.6,142.9,26.1,143.4,26.1,143.9z"/>
<path d="M317,139.3c0,0.5,0.4,1,1,1c0.5,0,1-0.4,1-1c0-0.5-0.4-1-1-1C317.5,138.3,317,138.8,317,139.3 M317.9,144.4
	c0.2-0.8,0.4-1.6,0.4-1.9c0-0.3-0.1-0.4-0.4-0.4c-0.7,0-1.6,0.1-2.5,0.3c-0.1,0.2-0.1,0.4,0,0.6l0.8,0.1c0.2,0,0.4,0.2,0.4,0.4
	c0,0.2-0.1,0.5-0.2,1l-0.6,3c-0.4,2-0.6,3.3-1,4.7c-0.4,1.8-1.1,2.1-1.5,2.1c-0.6,0-0.4-0.9-1.4-0.9c-0.3,0-0.6,0.2-0.6,0.6
	c0,0.7,0.8,1,1.7,1c2.5,0,3.7-3.8,4.7-8.8L317.9,144.4z"/>
<path d="M213.6,15.3c-0.1,0.4-0.3,0.9-0.3,1.1c0,0.3,0.2,0.6,0.8,0.6c0.8,0,0.8-0.9,0.9-1.7l0.7-3.3c0.2-0.1,0.3-0.1,0.4-0.1
	c0.2,0,0.3,0.1,0.4,0.3c0.4,0.7,0.6,1.7,1,2.6c0.7,1.5,1.2,2.1,2,2.1c0.7,0,1.4-0.6,2.1-1.8c-0.1-0.2-0.2-0.3-0.4-0.3
	c-0.4,0.6-0.8,1-1.1,1c-0.4,0-0.5-0.4-0.7-0.8c-0.6-1.1-0.8-1.9-1.1-2.5c-0.3-0.6-0.4-0.9-1.1-1.1v-0.1l1.1-0.9c1-0.9,1.5-1.3,2-1.3
	c0.5,0,0.4,0.3,1.1,0.3c0.3,0,0.9-0.4,0.9-1c0-0.6-0.4-0.7-1-0.7c-0.7,0-1.9,0.8-3.4,2.1l-0.8,0.7c-0.3,0.3-0.8,0.6-1.2,0.6l1.5-6.3
	c0.3-1.3,0.5-2.1,0.5-2.1c0-0.1-0.1-0.2-0.2-0.2c-0.6,0.2-2,0.5-2.9,0.5l-0.1,0.5c0,0.1,0,0.1,0.1,0.1l0.6,0c0.3,0,0.4,0.1,0.4,0.6
	c0,0.2,0,0.6-0.1,1L213.6,15.3"/>
<g>
	<path d="M83.5,120.7c1.1,0,1.3,1.3,1.3,3c0,0.1,0,0.2,0,0.4v0.4l-0.5,0.8c-1.1,2-2.2,3.2-3,3.2c-0.9,0-1.3-0.8-1.3-2
		C80,123.8,81.6,120.7,83.5,120.7 M85.6,125.2l3.4-5c-0.2,0-0.6,0.1-0.9,0.1c-0.3,0-0.6-0.1-0.9-0.1l-1.7,2.9v0v-0.2
		c0-1.8-0.4-2.9-1.8-2.9c-1.7,0-4.3,1.3-5.2,5c-0.1,0.6-0.2,1.1-0.2,1.7c0,1.6,0.8,2.6,2.6,2.6c1.3,0,2.4-0.8,3.8-2.9l0,0.8v0.2
		c0,1.3,0.3,1.9,1,1.9c0.8,0,1.4-0.5,2.1-1.8l-0.5-0.2c-0.5,0.6-0.7,0.8-1.2,0.8c-0.4,0-0.7-0.6-0.7-1.6v-0.1L85.6,125.2z"/>
	<path d="M92,127.4c0.1-0.6,0.3-1.2,0.3-1.4c0-0.2-0.1-0.3-0.4-0.3c-0.5,0-1.3,0.1-2,0.2c-0.1,0.1-0.1,0.3,0,0.4l0.6,0
		c0.2,0,0.3,0.1,0.3,0.3c0,0.1,0,0.3-0.1,0.8l-0.8,3.1c-0.1,0.5-0.3,1.1-0.3,1.4c0,0.3,0.2,0.5,0.7,0.5c0.8,0,1.6-0.5,2.3-1.4
		c0-0.1-0.2-0.3-0.4-0.3c-0.4,0.4-0.9,0.7-1.1,0.7c-0.1,0-0.2-0.1-0.2-0.3c0-0.1,0.1-0.5,0.2-0.8L92,127.4 M91.2,123.7
		c0,0.4,0.4,0.7,0.8,0.7c0.4,0,0.8-0.3,0.8-0.7c0-0.4-0.4-0.7-0.8-0.7C91.6,123,91.2,123.3,91.2,123.7z"/>
</g>
</svg>
