<?xml version="1.0" encoding="UTF-8"?>
<svg id="Layer_1" xmlns="http://www.w3.org/2000/svg" xmlns:xlink="http://www.w3.org/1999/xlink" version="1.1" viewBox="0 0 162.5 78.2">
  <!-- Generator: Adobe Illustrator 29.3.1, SVG Export Plug-In . SVG Version: 2.1.0 Build 151)  -->
  <defs>
    <style>
      .st0, .st1 {
        opacity: .2;
      }

      .st0, .st1, .st2 {
        isolation: isolate;
      }

      .st3 {
        fill: #fff;
      }

      .st1, .st2, .st4 {
        fill: #0a014f;
      }

      .st2, .st5 {
        opacity: .8;
      }

      .st6 {
        fill: none;
        stroke: #000;
        stroke-miterlimit: 10;
      }
    </style>
  </defs>
  <g id="Layer_11" data-name="Layer_1">
    <path class="st0" d="M81.2,78.3c-7.3,0-7.9,0-8-4.3-4.3.7-8.1,0-13.1,0-9.2-.2-53.5,2.2-56.5-.3-1.8-1.5,7.1-18.3,14.5-34.7,4.9-10.9,8.5-20.7,10.4-22.7,3.8-4.1,49.3-2.6,52.7-2.7,3.4-.1,48.9-1.4,52.7,2.7,1.9,2,5.5,11.8,10.4,22.7,7.3,16.4,16.3,33.2,14.5,34.7-3,2.5-47.3.2-56.5.3-5,0-8.9.7-13.1,0,0,4.3-.7,4.3-8,4.3Z"/>
    <path class="st3" d="M81.2,74.6c-7.3,0-7.9,0-8-4.3-4.3.7-8.1,0-13.1,0-9.2-.2-53.5,2.2-56.5-.3-1.8-1.5,7.1-18.3,14.5-34.7,4.9-10.9,8.5-20.7,10.4-22.7,3.8-4.1,49.3-2.6,52.7-2.7,3.4-.1,48.9-1.4,52.7,2.7,1.9,2,5.5,11.8,10.4,22.7,7.3,16.4,16.3,33.2,14.5,34.7-3,2.5-47.3.2-56.5.3-5,0-8.9.7-13.1,0,0,4.3-.7,4.3-8,4.3Z"/>
    <path class="st2" d="M81.2,74.6c-7.3,0-7.9,0-8-4.3-4.3.7-8.1,0-13.1,0-9.2-.2-53.5,2.2-56.5-.3-1.8-1.5,7.1-18.3,14.5-34.7,4.9-10.9,8.5-20.7,10.4-22.7,3.8-4.1,49.3-2.6,52.7-2.7,3.4-.1,48.9-1.4,52.7,2.7,1.9,2,5.5,11.8,10.4,22.7,7.3,16.4,16.3,33.2,14.5,34.7-3,2.5-47.3.2-56.5.3-5,0-8.9.7-13.1,0,0,4.3-.7,4.3-8,4.3Z"/>
    <path class="st1" d="M81.2,74.6c-7.3,0-7.9,0-8-4.3-4.3.7-8.1,0-13.1,0-9.2-.2-53.6,2.4-56.5-.3-1.1-1.1.8-4.7,1.9-7.5-.8,7.9,7.2,6.5,9.9,6.4,6.3-.3,30.9-1,57.8-1.1,4.8,0,1.8,3.9,8.3,3.9s3.3-4.1,7.3-4.1c32.2.2,63.3,1.3,66.1,1,2.6-.3,3.2-.7,1.8-6.1,1.1,2.8,2.9,6.3,1.9,7.4-2.6,2.9-47.3.2-56.5.3-5,0-8.9.7-13.1,0,0,4.4-.5,4.4-7.8,4.4Z"/>
    <path class="st2" d="M81.8,62.5c13-8.4,51.6-4.3,64.3,2.2-8.2-15.9-22.6-51.4-22.6-51.4H43.6s-18.7,31.6-26.1,52c17.2-2.4,45.4-14,64.3-2.8Z"/>
    <path class="st6" d="M81.2,74.6c-7.3,0-7.9,0-8-4.3-4.3.7-8.1,0-13.1,0-9.2-.2-53.5,2.2-56.5-.3-1.8-1.5,7.1-18.3,14.5-34.7,4.9-10.9,8.5-20.7,10.4-22.7,3.8-4.1,49.3-2.6,52.7-2.7,3.4-.1,48.9-1.4,52.7,2.7,1.9,2,5.5,11.8,10.4,22.7,7.3,16.4,16.3,33.2,14.5,34.7-3,2.5-47.3.2-56.5.3-5,0-8.9.7-13.1,0,0,4.3-.7,4.3-8,4.3Z"/>
    <path class="st3" d="M81.8,62.5c-3.3-8.4-12-11.5-21.2-11.7-9.2-.2-31,12.3-43.1,11.7,4.2-10.9,16.6-43.5,20.3-54.4,3.8,1.1,9,2.8,21.2-2.4s17.2-6.8,22.9,1.1c5.7-7.9,10.7-6.3,22.9-1.1s17.4,3.5,21.2,2.4c3.6,10.9,16.1,43.5,20.2,54.3-12.1.6-33.9-11.8-43.1-11.7-9.3.2-18,3.4-21.3,11.8Z"/>
    <path class="st6" d="M81.8,62.5c-3.3-8.4-12-11.5-21.2-11.7-9.2-.2-31,12.3-43.1,11.7,4.2-10.9,16.6-43.5,20.3-54.4,3.8,1.1,9,2.8,21.2-2.4s17.2-6.8,22.9,1.1c5.7-7.9,10.7-6.3,22.9-1.1s17.4,3.5,21.2,2.4c3.6,10.9,16.1,43.5,20.2,54.3-12.1.6-33.9-11.8-43.1-11.7-9.3.2-18,3.4-21.3,11.8Z"/>
    <path class="st6" d="M81.8,6.9v55.6"/>
    <g class="st5">
      <path class="st4" d="M42.3,23.8l2.4,12.1,3-14.9c.2-1.3.9-2,1.9-2s1.7.6,2,1.7l2.9,15.4,2.4-11.9c.2-.8.3-1.5.3-1.9,0-.8-.4-1.2-1.2-1.2s-.4,0-.7.1c-.3,0-.6.1-.7.1-.8,0-1.2-.3-1.2-1s.4-1,1.2-1,.6,0,.9.1c1.6.2,2.6.3,3.1.3s1-.1,1.7-.2c.8-.1,1.3-.2,1.7-.2.7,0,1.1.3,1.1,1s-.3.9-1,.9-.3,0-.5-.1c-.2,0-.4-.1-.5-.1-.4,0-.7.2-.9.5-.2.3-.4,1-.6,2.1l-3.2,13.7c-.2,1.1-.8,1.6-1.8,1.6s-1.6-.7-1.9-2l-2.9-15.2-3.2,15.6c-.2,1-.8,1.5-1.6,1.5s-1.5-.5-1.7-1.6l-3.7-14.2c-.2-.7-.4-1.2-.6-1.5s-.7-.4-1.2-.4h-.8c-.6.1-.9-.2-.9-.9s.3-1,1-1,.6,0,.9.1c1,.2,2,.3,3,.3s1.5-.1,3.2-.3c.3,0,.6-.1.8-.1.7,0,1,.3,1,.9s-.4,1-1.3,1-.4,0-.8-.1c-.4,0-.6-.1-.8-.1-.7,0-1,.3-1,.9s0,.5,0,.8v1.2Z"/>
      <path class="st4" d="M66.7,24.1c0,.5.2.9.7,1.2v-.3c0-.3,0-.5.3-.7.2-.2.5-.3.8-.3.8,0,1.3.4,1.3,1.3s-.2,1-.7,1.4c-.4.4-1,.6-1.6.6s-1.5-.3-2.1-.8c-.5-.6-.8-1.3-.8-2.2,0-1.6.7-2.9,2.1-4,1.4-1,3.1-1.6,5.3-1.6s3.8.5,5.1,1.5c1.3,1,1.9,2.3,1.9,3.9s-1,3.6-3,4.6c-.3.2-.8.4-1.3.6-1.1.5-1.9.9-2.3,1.4s-.6,1-.6,1.8,0,.9,0,1.1c-.2.3-.5.4-.9.4-.8,0-1.2-.5-1.2-1.5s.2-1.7.7-2.4c.6-.8,1.6-1.6,3.2-2.4s2.3-1.3,2.7-1.8c.4-.5.6-1.1.6-1.9s-.4-1.9-1.3-2.5-2-1-3.4-1-2.6.3-3.6,1c-1.3.8-1.8,1.6-1.8,2.6ZM70.8,39c-.5,0-.9-.2-1.3-.5-.4-.4-.5-.8-.5-1.3s.2-.9.5-1.3c.4-.4.8-.5,1.3-.5s.9.2,1.3.5c.3.4.5.8.5,1.3s-.2.9-.5,1.3c-.4.3-.8.5-1.3.5Z"/>
      <path class="st4" d="M99.2,27.9c-.6.3-1.3.5-2.1.7,1.1.2,1.9.6,2.3,1.3.4.6.6,1.7.6,3.1v1.6c0,1.4.4,2.1,1.3,2.1s1.3-.8,1.3-2.4v-2c0-.5,0-.9.1-1.1.2-.3.4-.5.9-.5s1,.4,1,1.2v3.2c0,1.1-.3,2-.9,2.6-.6.6-1.5.9-2.6.9-2.3,0-3.4-1.1-3.4-3.4v-2.5c0-1.3-.2-2.1-.7-2.5s-1.5-.6-3-.6h-2.7c-.6,0-.9.4-.9,1.1v2.3c0,1.4,0,2.2,0,2.4.2,1,.7,1.4,1.4,1.4h.6c.3,0,.6,0,.7,0,.6,0,.9.3.9.9s-.4,1-1.2,1h-.4c0,0-1.5-.3-1.5-.3-.6,0-1.1,0-1.6,0s-1.2,0-2,0l-1.4.2c-.3,0-.5,0-.4,0-.8,0-1.2-.3-1.2-1s.3-.9.9-.9.4,0,.8,0c.2,0,.4,0,.6,0,1,0,1.5-.7,1.5-2.2v-11.5c0-1.4-.5-2.2-1.5-2.2s-.4,0-.7.1c-.3,0-.5.1-.7.1s-.5-.1-.6-.3c-.2-.2-.3-.4-.3-.6,0-.7.4-1,1.3-1h1.9c.4.1.9.2,1.4.2s1.3,0,2-.1h2.2c.7-.1,1.4-.2,2-.2,4.2,0,6.3,1.6,6.3,4.8-.1,2-.9,3.2-2.3,3.9ZM91.2,27.7h2.7c1.6,0,2.8-.2,3.6-.7,1-.6,1.5-1.5,1.5-2.8,0-2.2-1.5-3.3-4.5-3.3s-2.7.1-3.2.4c-.6.2-.9.7-.9,1.4v4.3c0,.3,0,.5.2.6s.3.1.6.1Z"/>
      <path class="st4" d="M109,23.2c0-1.4-.5-2.2-1.5-2.2s-.4,0-.6.1c-.3.1-.6.1-.8.1-.6,0-.9-.3-.9-.9s.4-1,1.3-1h.4l1.5.2c.6.1,1.2.1,1.8.1s1.1,0,1.6-.1l1.9-.2c.4,0,.8-.1,1.4-.1,1.7,0,3.2.2,4.4.7,1.5.7,2.7,1.8,3.6,3.4.9,1.6,1.3,3.5,1.3,5.6s-.4,3.6-1.1,5.1c-.7,1.5-1.7,2.6-2.9,3.3-1.5.9-3.3,1.3-5.3,1.3s-.9,0-1.3,0l-2-.2c-.7,0-1.4,0-2.1,0s-1.1,0-1.5,0l-1.4.2h-.4c-.8,0-1.2-.3-1.2-1s.1-.5.3-.7.4-.3.6-.3.5,0,.8,0c.1,0,.3,0,.6,0,1,0,1.5-.7,1.5-2.2v-11.3h0ZM111.4,22.9v12.1c0,.9.4,1.4,1.3,1.6.3,0,1.1,0,2.4,0,2.3,0,4-.6,5-1.9,1.2-1.5,1.9-3.4,1.9-5.9s-.4-3.5-1.1-4.8c-.8-1.3-1.8-2.2-3.1-2.6-.8-.2-1.9-.4-3-.4s-2.4.1-2.8.3c-.5.2-.6.7-.6,1.5Z"/>
    </g>
  </g>
</svg>