<?xml version="1.0" encoding="utf-8"?>
<!-- Generator: Adobe Illustrator 27.2.0, SVG Export Plug-In . SVG Version: 6.00 Build 0)  -->
<svg version="1.1" xmlns="http://www.w3.org/2000/svg" xmlns:xlink="http://www.w3.org/1999/xlink" x="0px" y="0px"
	 viewBox="0 0 236 78.2" style="enable-background:new 0 0 236 78.2;" xml:space="preserve">
<style type="text/css">
	.st0{opacity:0.25;}
	.st1{fill:#FFFFFF;}
	.st2{opacity:0.75;fill:#0A014F;}
	.st3{opacity:0.25;fill:#0A014F;}
	.st4{fill:none;stroke:#000000;stroke-miterlimit:10;}
	.st5{opacity:0.75;}
	.st6{fill:#0A014F;}
</style>
<g id="Layer_1">
	<path class="st0" d="M118,78.3c-7.3,0-7.9,0-8-4.3c-4.3,0.7-8.1,0-13.1,0c-9.2-0.2-53.5,2.2-56.5-0.3c-1.8-1.5,7.1-18.3,14.5-34.7
		c4.9-10.9,8.5-20.7,10.4-22.7c3.8-4.1,49.3-2.6,52.7-2.7c3.4-0.1,48.9-1.4,52.7,2.7c1.9,2,5.5,11.8,10.4,22.7
		c7.3,16.4,16.3,33.2,14.5,34.7c-3,2.5-47.3,0.2-56.5,0.3c-5,0.1-8.9,0.7-13.1,0C125.9,78.3,125.3,78.3,118,78.3z"/>
	<path class="st1" d="M118,74.6c-7.3,0-7.9,0-8-4.3c-4.3,0.7-8.1,0-13.1,0c-9.2-0.2-53.5,2.2-56.5-0.3c-1.8-1.5,7.1-18.3,14.5-34.7
		c4.9-10.9,8.5-20.7,10.4-22.7c3.8-4.1,49.3-2.6,52.7-2.7c3.4-0.1,48.9-1.4,52.7,2.7c1.9,2,5.5,11.8,10.4,22.7
		c7.3,16.4,16.3,33.2,14.5,34.7c-3,2.5-47.3,0.2-56.5,0.3c-5,0.1-8.9,0.7-13.1,0C125.9,74.6,125.3,74.6,118,74.6z"/>
	<path class="st2" d="M118,74.6c-7.3,0-7.9,0-8-4.3c-4.3,0.7-8.1,0-13.1,0c-9.2-0.2-53.5,2.2-56.5-0.3c-1.8-1.5,7.1-18.3,14.5-34.7
		c4.9-10.9,8.5-20.7,10.4-22.7c3.8-4.1,49.3-2.6,52.7-2.7c3.4-0.1,48.9-1.4,52.7,2.7c1.9,2,5.5,11.8,10.4,22.7
		c7.3,16.4,16.3,33.2,14.5,34.7c-3,2.5-47.3,0.2-56.5,0.3c-5,0.1-8.9,0.7-13.1,0C125.9,74.6,125.3,74.6,118,74.6z"/>
	<path class="st3" d="M118,74.6c-7.3,0-7.9,0-8-4.3c-4.3,0.7-8.1,0-13.1,0c-9.2-0.2-53.6,2.4-56.5-0.3c-1.1-1.1,0.8-4.7,1.9-7.5
		c-0.8,7.9,7.2,6.5,9.9,6.4c6.3-0.3,30.9-1,57.8-1.1c4.8,0,1.8,3.9,8.3,3.9c7.5,0,3.3-4.1,7.3-4.1c32.2,0.2,63.3,1.3,66.1,1
		c2.6-0.3,3.2-0.7,1.8-6.1c1.1,2.8,2.9,6.3,1.9,7.4c-2.6,2.9-47.3,0.2-56.5,0.3c-5,0.1-8.9,0.7-13.1,0
		C125.9,74.6,125.3,74.6,118,74.6z"/>
	<path class="st2" d="M118.6,62.5c13-8.4,51.6-4.3,64.3,2.2c-8.2-15.9-22.6-51.4-22.6-51.4H80.4c0,0-18.7,31.6-26.1,52
		C71.5,62.9,99.7,51.3,118.6,62.5z"/>
	<path class="st4" d="M118,74.6c-7.3,0-7.9,0-8-4.3c-4.3,0.7-8.1,0-13.1,0c-9.2-0.2-53.5,2.2-56.5-0.3c-1.8-1.5,7.1-18.3,14.5-34.7
		c4.9-10.9,8.5-20.7,10.4-22.7c3.8-4.1,49.3-2.6,52.7-2.7c3.4-0.1,48.9-1.4,52.7,2.7c1.9,2,5.5,11.8,10.4,22.7
		c7.3,16.4,16.3,33.2,14.5,34.7c-3,2.5-47.3,0.2-56.5,0.3c-5,0.1-8.9,0.7-13.1,0C125.9,74.6,125.3,74.6,118,74.6z"/>
	<path class="st1" d="M118.6,62.5c-3.3-8.4-12-11.5-21.2-11.7c-9.2-0.2-31,12.3-43.1,11.7C58.5,51.6,70.9,19,74.6,8.1
		c3.8,1.1,9,2.8,21.2-2.4s17.2-6.8,22.9,1.1c5.7-7.9,10.7-6.3,22.9-1.1s17.4,3.5,21.2,2.4c3.6,10.9,16.1,43.5,20.2,54.3
		c-12.1,0.6-33.9-11.8-43.1-11.7C130.6,50.9,121.9,54.1,118.6,62.5z"/>
	<path class="st4" d="M118.6,62.5c-3.3-8.4-12-11.5-21.2-11.7c-9.2-0.2-31,12.3-43.1,11.7C58.5,51.6,70.9,19,74.6,8.1
		c3.8,1.1,9,2.8,21.2-2.4s17.2-6.8,22.9,1.1c5.7-7.9,10.7-6.3,22.9-1.1s17.4,3.5,21.2,2.4c3.6,10.9,16.1,43.5,20.2,54.3
		c-12.1,0.6-33.9-11.8-43.1-11.7C130.6,50.9,121.9,54.1,118.6,62.5z"/>
	<path class="st4" d="M118.6,6.9v55.6"/>
	<g class="st5">
		<path class="st6" d="M79.1,23.8l2.4,12.1l3-14.9c0.2-1.3,0.9-2,1.9-2c1.1,0,1.7,0.6,2,1.7l2.9,15.4l2.4-11.9
			c0.2-0.8,0.3-1.5,0.3-1.9c0-0.8-0.4-1.2-1.2-1.2c-0.2,0-0.4,0-0.7,0.1c-0.3,0-0.6,0.1-0.7,0.1c-0.8,0-1.2-0.3-1.2-1
			c0-0.6,0.4-1,1.2-1c0.3,0,0.6,0,0.9,0.1c1.6,0.2,2.6,0.3,3.1,0.3c0.4,0,1-0.1,1.7-0.2c0.8-0.1,1.3-0.2,1.7-0.2
			c0.7,0,1.1,0.3,1.1,1c0,0.6-0.3,0.9-1,0.9c-0.1,0-0.3,0-0.5-0.1c-0.2,0-0.4-0.1-0.5-0.1c-0.4,0-0.7,0.2-0.9,0.5
			c-0.2,0.3-0.4,1-0.6,2.1l-3.2,13.7c-0.2,1.1-0.8,1.6-1.8,1.6c-1,0-1.6-0.7-1.9-2l-2.9-15.2l-3.2,15.6c-0.2,1-0.8,1.5-1.6,1.5
			c-0.9,0-1.5-0.5-1.7-1.6L76.4,23c-0.2-0.7-0.4-1.2-0.6-1.5s-0.7-0.4-1.2-0.4h-0.2l-0.6,0.1c-0.6,0-0.9-0.3-0.9-1c0-0.7,0.3-1,1-1
			c0.3,0,0.6,0,0.9,0.1c1,0.2,2,0.3,3,0.3c0.5,0,1.5-0.1,3.2-0.3c0.3,0,0.6-0.1,0.8-0.1c0.7,0,1,0.3,1,0.9c0,0.7-0.4,1-1.3,1
			c-0.2,0-0.4,0-0.8-0.1c-0.4,0-0.6-0.1-0.8-0.1c-0.7,0-1,0.3-1,0.9c0,0.2,0,0.5,0.1,0.8L79.1,23.8z"/>
		<path class="st6" d="M103.5,24.1c0,0.5,0.2,0.9,0.7,1.2c0-0.1,0-0.2,0-0.3c0-0.3,0.1-0.5,0.3-0.7c0.2-0.2,0.5-0.3,0.8-0.3
			c0.8,0,1.3,0.4,1.3,1.3c0,0.6-0.2,1-0.7,1.4c-0.4,0.4-1,0.6-1.6,0.6c-0.8,0-1.5-0.3-2.1-0.8c-0.5-0.6-0.8-1.3-0.8-2.2
			c0-1.6,0.7-2.9,2.1-4c1.4-1,3.1-1.6,5.3-1.6c2.1,0,3.8,0.5,5.1,1.5c1.3,1,1.9,2.3,1.9,3.9c0,2-1,3.6-3,4.6
			c-0.3,0.2-0.8,0.4-1.3,0.6c-1.1,0.5-1.9,0.9-2.3,1.4s-0.6,1-0.6,1.8c0,0.5,0,0.9-0.1,1.1c-0.2,0.3-0.5,0.4-0.9,0.4
			c-0.8,0-1.2-0.5-1.2-1.5c0-0.9,0.2-1.7,0.7-2.4c0.6-0.8,1.6-1.6,3.2-2.4c1.4-0.7,2.3-1.3,2.7-1.8c0.4-0.5,0.6-1.1,0.6-1.9
			c0-1.1-0.4-1.9-1.3-2.5c-0.9-0.6-2-1-3.4-1c-1.4,0-2.6,0.3-3.6,1C104,22.3,103.5,23.1,103.5,24.1z M107.6,39
			c-0.5,0-0.9-0.2-1.3-0.5c-0.4-0.4-0.5-0.8-0.5-1.3c0-0.5,0.2-0.9,0.5-1.3c0.4-0.4,0.8-0.5,1.3-0.5c0.5,0,0.9,0.2,1.3,0.5
			c0.3,0.4,0.5,0.8,0.5,1.3c0,0.5-0.2,0.9-0.5,1.3C108.5,38.8,108.1,39,107.6,39z"/>
		<path class="st6" d="M136,27.9c-0.6,0.3-1.3,0.5-2.1,0.7c1.1,0.2,1.9,0.6,2.3,1.3c0.4,0.6,0.6,1.7,0.6,3.1v1.3c0,0.1,0,0.2,0,0.3
			c0,1.4,0.4,2.1,1.3,2.1c0.9,0,1.3-0.8,1.3-2.4v-0.9v-0.7v-0.4c0-0.5,0-0.9,0.1-1.1c0.2-0.3,0.4-0.5,0.9-0.5c0.7,0,1,0.4,1,1.2
			c0,0,0,0.2,0,0.6v0.6c0,0.4,0,0.7,0,0.8v0.7c0,0.1,0,0.3,0,0.5c0,1.1-0.3,2-0.9,2.6c-0.6,0.6-1.5,0.9-2.6,0.9
			c-2.3,0-3.4-1.1-3.4-3.4v-0.9v-1v-0.6c0-1.3-0.2-2.1-0.7-2.5c-0.5-0.4-1.5-0.6-3-0.6h-2.7c-0.6,0-0.9,0.4-0.9,1.1V33
			c0,1.4,0,2.2,0.1,2.4c0.2,1,0.7,1.4,1.4,1.4c0.3,0,0.5,0,0.6,0c0.3,0,0.6-0.1,0.7-0.1c0.6,0,0.9,0.3,0.9,0.9c0,0.7-0.4,1-1.2,1
			l-0.4-0.1l-1.5-0.2c-0.6-0.1-1.1-0.1-1.6-0.1c-0.6,0-1.2,0-2,0.1l-1.4,0.2c-0.3,0-0.5,0.1-0.4,0.1c-0.8,0-1.2-0.3-1.2-1
			c0-0.6,0.3-0.9,0.9-0.9c0.1,0,0.4,0,0.8,0.1c0.2,0.1,0.4,0.1,0.6,0.1c1,0,1.5-0.7,1.5-2.2V23.2c0-1.4-0.5-2.2-1.5-2.2
			c-0.2,0-0.4,0-0.7,0.1c-0.3,0-0.5,0.1-0.7,0.1c-0.2,0-0.5-0.1-0.6-0.3c-0.2-0.2-0.3-0.4-0.3-0.6c0-0.7,0.4-1,1.3-1
			c0.1,0,0.2,0,0.4,0l1.5,0.1c0.4,0,0.9,0.1,1.4,0.1c0.6,0,1.3,0,2-0.1l2.2-0.1c0.7,0,1.4-0.1,2-0.1c4.2,0,6.3,1.6,6.3,4.8
			C138.2,26,137.4,27.2,136,27.9z M128,27.7h2.7c1.6,0,2.8-0.2,3.6-0.7c1-0.6,1.5-1.5,1.5-2.8c0-2.2-1.5-3.3-4.5-3.3
			c-1.6,0-2.7,0.1-3.2,0.4c-0.6,0.2-0.9,0.7-0.9,1.4v0.9V27c0,0.3,0.1,0.5,0.2,0.6C127.5,27.7,127.7,27.7,128,27.7z"/>
		<path class="st6" d="M145.8,23.2c0-1.4-0.5-2.2-1.5-2.2c-0.2,0-0.4,0-0.6,0.1c-0.3,0.1-0.6,0.1-0.8,0.1c-0.6,0-0.9-0.3-0.9-0.9
			c0-0.7,0.4-1,1.3-1c0.1,0,0.2,0,0.4,0l1.5,0.2c0.6,0.1,1.2,0.1,1.8,0.1c0.5,0,1.1,0,1.6-0.1l1.9-0.2c0.4,0,0.8-0.1,1.4-0.1
			c1.7,0,3.2,0.2,4.4,0.7c1.5,0.7,2.7,1.8,3.6,3.4c0.9,1.6,1.3,3.5,1.3,5.6c0,1.9-0.4,3.6-1.1,5.1c-0.7,1.5-1.7,2.6-2.9,3.3
			c-1.5,0.9-3.3,1.3-5.3,1.3c-0.4,0-0.9,0-1.3-0.1l-2-0.2c-0.7-0.1-1.4-0.1-2.1-0.1c-0.6,0-1.1,0-1.5,0.1l-1.4,0.2c0,0-0.1,0-0.2,0
			c-0.1,0-0.2,0-0.2,0c-0.8,0-1.2-0.3-1.2-1c0-0.3,0.1-0.5,0.3-0.7c0.2-0.2,0.4-0.3,0.6-0.3c0.2,0,0.5,0,0.8,0.1
			c0.1,0,0.3,0.1,0.6,0.1c1,0,1.5-0.7,1.5-2.2V23.2z M148.2,22.9V35c0,0.9,0.4,1.4,1.3,1.6c0.3,0.1,1.1,0.1,2.4,0.1
			c2.3,0,4-0.6,5-1.9c1.2-1.5,1.9-3.4,1.9-5.9c0-1.9-0.4-3.5-1.1-4.8c-0.8-1.3-1.8-2.2-3.1-2.6c-0.8-0.2-1.9-0.4-3-0.4
			c-1.5,0-2.4,0.1-2.8,0.3C148.3,21.6,148.2,22.1,148.2,22.9z"/>
	</g>
</g>
<g id="Layer_2">
</g>
</svg>
