<?xml version="1.0" encoding="utf-8"?>
<!-- Generator: Adobe Illustrator 28.3.0, SVG Export Plug-In . SVG Version: 6.00 Build 0)  -->
<svg version="1.1" id="Layer_1" xmlns="http://www.w3.org/2000/svg" xmlns:xlink="http://www.w3.org/1999/xlink" x="0px" y="0px"
	 viewBox="0 0 245.7 182.9" style="enable-background:new 0 0 245.7 182.9;" xml:space="preserve">
<style type="text/css">
	.st0{fill:#EDEDED;}
	.st1{fill:#B5B5B5;}
	.st2{fill:#FFFFFF;}
	.st3{opacity:0.2;fill:url(#SVGID_1_);}
	.st4{opacity:0.3;fill:#941B22;}
	.st5{opacity:0.5;fill:#941B22;}
	.st6{opacity:0.55;fill:#941B22;}
	.st7{opacity:0.6;fill:#941B22;}
	.st8{opacity:0.75;fill:#941B22;}
	.st9{opacity:0.85;fill:#941B22;}
	.st10{fill:none;stroke:#941B22;stroke-linecap:round;stroke-miterlimit:10;}
	.st11{fill:none;stroke:#941B22;stroke-miterlimit:10;}
	.st12{fill:none;stroke:#000000;stroke-width:1.5;stroke-miterlimit:10;}
	.st13{fill:none;stroke:#000000;stroke-width:0.5398;stroke-miterlimit:10;}
	.st14{opacity:0.45;fill:#941B22;}
	.st15{fill:#C41230;}
	.st16{fill:#231F20;stroke:#231F20;stroke-width:0.25;stroke-miterlimit:10;}
	.st17{fill:#9B9B9B;}
	.st18{fill:#717171;}
</style>
<g>
	<rect x="0.5" y="0.5" class="st0" width="244.7" height="40.4"/>
	<path class="st1" d="M244.7,1v39.4H1V1H244.7 M245.7,0H0v41.4h245.7V0L245.7,0z"/>
</g>
<g>
	<polygon class="st2" points="108.4,45.2 57,90.5 78.2,153.7 144.6,176.3 188.7,128.9 177.5,61.7 	"/>
	<linearGradient id="SVGID_1_" gradientUnits="userSpaceOnUse" x1="124.0534" y1="107.2809" x2="113.6549" y2="172.2718">
		<stop  offset="0.6436" style="stop-color:#221F1F;stop-opacity:0"/>
		<stop  offset="1" style="stop-color:#000000"/>
	</linearGradient>
	<polygon class="st3" points="59.5,125.5 95.3,103.6 147.6,111.1 178.8,150.4 144.9,182.9 77.6,171.2 	"/>
	<g>
		<polygon class="st4" points="125.8,60.3 99.3,155.3 188.7,128.9 		"/>
		<polygon class="st5" points="125.8,60.3 188.7,128.9 177.5,61.7 		"/>
		<polygon class="st6" points="125.8,60.3 177.5,61.7 108.4,45.2 		"/>
		<polygon class="st6" points="125.8,60.3 57,90.5 99.3,155.3 		"/>
		<polygon class="st7" points="125.8,60.3 108.4,45.2 57,90.5 		"/>
		<polygon class="st8" points="57,90.5 78.2,153.7 99.3,155.3 		"/>
		<polygon class="st7" points="99.3,155.3 144.6,176.3 188.7,128.9 		"/>
		<polygon class="st9" points="78.2,153.7 144.6,176.3 99.3,155.3 		"/>
	</g>
	<g>
		<polyline class="st10" points="177.5,61.7 158.3,95.8 99.3,155.3 		"/>
		<polyline class="st10" points="177.5,61.7 147.9,84.4 112.6,108.3 83.3,130.9 78.2,153.7 		"/>
		<polyline class="st10" points="78.2,153.7 76.1,119.8 125.8,60.3 		"/>
		<polyline class="st10" points="57,90.5 115.8,51.6 177.5,61.7 		"/>
		<line class="st10" x1="78.2" y1="153.7" x2="99.3" y2="155.3"/>
		<line class="st10" x1="99.3" y1="155.3" x2="188.7" y2="128.9"/>
		<line class="st10" x1="99.3" y1="155.3" x2="144.6" y2="176.3"/>
		<line class="st10" x1="57" y1="90.5" x2="125.8" y2="60.3"/>
		<line class="st10" x1="125.8" y1="60.3" x2="177.5" y2="61.7"/>
		<polygon class="st11" points="108.4,45.2 57,90.5 78.2,153.7 144.6,176.3 188.7,128.9 177.5,61.7 		"/>
	</g>
	<polygon class="st12" points="108.4,45.2 57,90.5 78.2,153.7 144.6,176.3 188.7,128.9 177.5,61.7 	"/>
	<line class="st13" x1="125.8" y1="60.3" x2="188.7" y2="128.9"/>
	<line class="st13" x1="99.3" y1="155.3" x2="125.8" y2="60.3"/>
	<line class="st13" x1="125.8" y1="60.3" x2="108.4" y2="45.2"/>
	<line class="st13" x1="125.8" y1="60.3" x2="57" y2="90.5"/>
	<line class="st13" x1="99.3" y1="155.3" x2="57" y2="90.5"/>
	<line class="st13" x1="99.3" y1="155.3" x2="144.6" y2="176.3"/>
	<line class="st13" x1="99.3" y1="155.3" x2="188.7" y2="128.9"/>
	<line class="st13" x1="125.8" y1="60.3" x2="177.5" y2="61.7"/>
	<polygon class="st14" points="78.2,153.7 83.3,130.9 112.6,108.3 147.9,84.4 177.5,61.7 125.8,60.3 76.1,119.8 	"/>
</g>
<g>
	<polygon class="st15" points="88.1,9.6 88.1,15.5 89.1,15.5 89.1,15.9 85.1,15.9 85.1,15.5 86.1,15.5 86.1,10 85.3,10 85.3,9.6 	
		"/>
	<path class="st15" d="M48.9,5.7h-0.4c0,0.3-0.2,0.4-0.5,0.4c-0.6,0-1.5-0.7-2.6-0.7c-3,0-4.8,3-4.8,5.5s1.7,5.2,4.6,5.2
		c1.7,0,2.4-0.8,2.9-0.8c0.3,0,0.4,0.3,0.4,0.6h0.4v-3.6h-0.4l-0.1,0.5c-0.2,1.2-1.1,2.9-3,2.9c-1.7,0-2.3-1.4-2.3-5
		c0-3.7,0.9-5,2.3-5c1.7,0,2.8,1.9,3,3.3h0.4L48.9,5.7z"/>
	<path class="st15" d="M54,14.2c0,0.8-0.5,1.4-1.1,1.4c-1,0-1-0.8-1-1.5c0-0.8,0.1-1.3,1-1.4l1.1-0.1V14.2z M56.6,14.7
		c0,0.4-0.2,0.8-0.4,0.8c-0.3,0-0.3-0.3-0.3-0.7v-3.3c0-1.6-1.5-2-3-2s-2.5,0.7-2.5,1.5c-0.1,0.5,0.3,0.9,0.7,0.9c0.1,0,0.1,0,0.2,0
		c0.4,0,0.8-0.3,0.9-0.8c0,0,0-0.1,0-0.1c0-0.7-0.8-0.7-0.8-0.8c0-0.3,0.8-0.4,1.3-0.4c1.1,0,1.2,0.4,1.2,1.3v1.2l-1.4,0.1
		c-1.3,0.1-2.7,0.4-2.7,1.9c0,1.3,1.1,1.8,2.2,1.8c0.6,0,1.6-0.2,1.9-0.9c0.2,0.6,0.8,0.9,1.4,0.9c0.9,0,1.5-0.6,1.5-1.4L56.6,14.7z
		"/>
	<polygon class="st15" points="190.4,9.6 190.4,15.5 191.4,15.5 191.4,15.9 187.4,15.9 187.4,15.5 188.4,15.5 188.4,10 187.4,10 
		187.4,9.6 	"/>
	<path class="st15" d="M104.1,12.6l2.4-6.8h3.3v0.4h-0.9v9.3h0.9v0.4h-3.9v-0.4h1V6.3h0l-3.3,9.6H103l-3.5-9.8l0,0v8.2
		c0,1.2,0.3,1.2,1.1,1.2h0v0.4h-2.5v-0.4l0,0c0.8,0,1-0.5,1-1.1V6.2h-1V5.8h3.6L104.1,12.6z"/>
	<path class="st15" d="M112.1,12.1v-1c0-1,0.4-1.3,0.9-1.3c0.7,0,0.9,0.5,0.9,1.3v1H112.1z M112.1,12.5h4c0-1.6-1.5-3-3-3
		c-1.8,0.1-3.2,1.6-3.2,3.4c-0.1,1.7,1.3,3.2,3,3.3c0.1,0,0.1,0,0.2,0c1.8,0,2.6-1.1,3-2.5h-0.4c-0.3,1.3-1,2.1-2.1,2.1
		c-1.3,0-1.5-1-1.5-2L112.1,12.5z"/>
	<path class="st15" d="M171.8,12v-1c0-1,0.4-1.3,0.9-1.3c0.7,0,0.9,0.5,0.9,1.3v1H171.8z M171.8,12.4h4c0-1.6-1.5-3-3-3
		c-1.8,0.1-3.2,1.6-3.2,3.4c0,0,0,0,0,0c-0.1,1.7,1.3,3.2,3,3.3c0.1,0,0.1,0,0.2,0c1.8,0,2.6-1.1,3-2.5h-0.4c-0.3,1.3-1,2.1-2.1,2.1
		c-1.3,0-1.5-1-1.5-2L171.8,12.4z"/>
	<polygon class="st15" points="116.1,5.8 116.1,6.2 117.1,6.2 117.1,15.5 116.1,15.5 116.1,15.9 120.1,15.9 120.1,15.5 119.1,15.5 
		119.1,5.8 	"/>
	<polygon class="st15" points="120.3,5.8 120.3,6.2 121.3,6.2 121.3,15.5 120.3,15.5 120.3,15.9 124.3,15.9 124.3,15.5 123.3,15.5 
		123.3,5.8 	"/>
	<path class="st15" d="M128.9,14.2c0,1.1-0.4,1.5-1.2,1.5c-0.7,0-1.2-0.4-1.2-1.5v-2.8c0-1.1,0.4-1.5,1.2-1.5c0.7,0,1.2,0.4,1.2,1.5
		V14.2z M131.1,12.8c0-1.9-1.4-3.5-3.3-3.5c-1.9,0-3.5,1.4-3.5,3.3c0,1.9,1.4,3.5,3.3,3.5c0,0,0.1,0,0.1,0c1.8,0.1,3.3-1.3,3.4-3.2
		C131.1,12.9,131.1,12.8,131.1,12.8"/>
	<path class="st15" d="M141.4,6.2h1v6.4c0,2.2,1.5,3.6,3.9,3.6c2.6,0,3.8-1.4,3.8-3.5V7.2c0-0.8,0.2-1,0.7-1h0.3V5.8h-2.5v0.4h0.2
		c0.7,0,0.8,0.2,0.8,1.1v5.5c0,2-1.2,2.8-2.4,2.8c-2.1,0-2.5-1.4-2.6-3.3V6.2h0.9V5.8h-4.1V6.2z"/>
	<path class="st15" d="M166.4,16.1h0.4l2.1-5c0.4-0.9,0.7-1.1,1-1.1h0.1V9.6h-2.2V10h0.3c0.4,0,0.6,0,0.6,0.3c0,0.3-0.1,0.6-0.2,0.9
		l-1,2.3l-1.6-3.5h0.8V9.6H163V10h0.7L166.4,16.1z"/>
	<path class="st15" d="M182.4,16.1h0.3c0.1-0.2,0.3-0.4,0.5-0.3c0.4,0,0.8,0.3,1.6,0.3c1.3,0,2.3-1.1,2.3-2.4c0-1.8-1.2-1.9-2.7-2.1
		c-0.8-0.1-1.3-0.2-1.3-0.8c0-0.6,0.6-1,1.4-1c1.1,0,1.5,0.7,1.9,1.6h0.3v-2h-0.3c0,0.2-0.2,0.3-0.4,0.3c-0.5,0-0.8-0.3-1.5-0.3
		c-1.2,0-2.1,1-2.1,2.1c0,0,0,0,0,0c0,1.9,1.4,2,2.5,2.1c1.1,0.1,1.4,0.2,1.4,0.8c0,0.8-0.6,1.1-1.4,1.1c-1.1,0-1.8-0.9-2.1-2h-0.3
		L182.4,16.1z"/>
	<polygon class="st15" points="162.5,9.6 162.5,15.5 163.5,15.5 163.5,15.9 159.5,15.9 159.5,15.5 160.5,15.5 160.5,10 159.5,10 
		159.5,9.6 	"/>
	<path class="st15" d="M160.5,7.6c0,0.5,0.4,1,1,1c0.5,0,1-0.4,1-1s-0.4-1-1-1c0,0,0,0,0,0C161,6.6,160.5,7,160.5,7.6
		C160.5,7.6,160.5,7.6,160.5,7.6"/>
	<path class="st15" d="M188.4,7.6c0,0.5,0.4,1,1,1c0.5,0,1-0.4,1-1c0-0.5-0.4-1-1-1c0,0,0,0,0,0C188.8,6.6,188.4,7,188.4,7.6"/>
	<path class="st15" d="M73.9,12.1v-1c0-1,0.4-1.3,0.9-1.3c0.7,0,0.9,0.5,0.9,1.3v1L73.9,12.1z M73.9,12.5h4c0-1.6-1.5-3-3-3
		c-1.8,0.1-3.2,1.6-3.2,3.4c0,0,0,0,0,0c-0.1,1.7,1.3,3.2,3,3.3c0.1,0,0.1,0,0.2,0c1.8,0,2.6-1.1,3-2.5h-0.4c-0.3,1.3-1,2.1-2.1,2.1
		c-1.3,0-1.5-1-1.5-2V12.5z"/>
	<path class="st15" d="M91.3,12.1v-1c0-1,0.4-1.3,0.9-1.3s0.9,0.3,0.9,1.3v1L91.3,12.1z M91.3,12.5h4c0-1.6-1.5-3-3-3
		c-1.8,0.1-3.2,1.6-3.2,3.4c0,0,0,0,0,0c-0.1,1.7,1.3,3.2,3,3.3c0.1,0,0.1,0,0.2,0c1.8,0,2.6-1.1,3-2.5h-0.4c-0.3,1.3-1,2.1-2.1,2.1
		c-1.3,0-1.5-1-1.5-2L91.3,12.5z"/>
	<path class="st15" d="M158.3,15.5v-3.9c0-1.6-0.7-2.3-2-2.3c-1,0-1.9,0.5-2.3,1.4l0,0V9.6h-3V10h1v5.6h-1v0.4h3.8v-0.4h-0.8v-3.8
		c0.1-0.5,0.8-1.8,1.6-1.8c0.5,0,0.8,0.2,0.8,1.1v4.4h-0.8v0.4h3.8v-0.4H158.3z"/>
	<path class="st15" d="M134.1,9.6v1.2l0,0c0.5-0.9,1.4-1.4,2.3-1.4c1.4,0,2,0.7,2,2.3v3.9h1v0.4h-3.8v-0.4h0.8v-4.4
		c0-1-0.3-1.1-0.8-1.1c-0.8,0-1.5,1.2-1.6,1.8v3.8h0.8v0.4h-3.8v-0.4h1V10h-1V9.6H134.1z"/>
	<path class="st15" d="M70.8,15.5v-3.9c0-1.6-0.7-2.3-2-2.3c-1,0-1.9,0.5-2.3,1.4l0,0V9.6h-3V10h1v5.6h-1v0.4h3.8v-0.4h-0.8v-3.8
		c0.1-0.5,0.8-1.8,1.6-1.8c0.5,0,0.8,0.2,0.8,1.1v4.4H68v0.4h3.8v-0.4H70.8z"/>
	<path class="st15" d="M86.1,7.6c0,0.5,0.4,1,1,1c0.5,0,1-0.4,1-1c0-0.5-0.4-1-1-1C86.5,6.6,86.1,7.1,86.1,7.6
		C86.1,7.6,86.1,7.6,86.1,7.6"/>
	<path class="st15" d="M200,9.6V10c0.6,0,0.9,0.1,0.9,0.3c0,0.3-0.1,0.6-0.2,0.9l-1,2.3l-1.6-3.5h0.8V9.5h-5V6.5h-0.3
		c0,1.5-1,3.1-2.5,3.1V10h0.8v4.4c0,0.9,0.6,1.6,1.5,1.6c0,0,0,0,0.1,0c0.8,0,1.5-0.4,1.9-1.1l-0.3-0.2c-0.2,0.3-0.4,0.6-0.8,0.6
		c-0.3,0-0.4-0.2-0.4-0.7V10h2l2.6,6.1l-0.9,2.1l0,0l0,0c0,0-0.1,0.1-0.1,0.1c-0.1,0-0.1,0-0.1-0.1l0,0c-0.2-0.5-0.7-0.8-1.2-0.7
		c-0.5,0.2-0.8,0.7-0.7,1.2c0.1,0.3,0.3,0.5,0.5,0.6l0,0h0l0.1,0c0.1,0,0.2,0.1,0.4,0.1c0.8,0.1,1.3-0.5,1.6-1.2
		c0.1-0.1,0.1-0.3,0.2-0.4c0.1-0.3,0.3-0.8,0.6-1.4l0,0l0.2-0.6l0,0l2-4.8c0.4-0.9,0.6-1.1,1.1-1.1l0,0V9.5L200,9.6z"/>
	<path class="st15" d="M62,9.4c-0.9,0-1.6,0.6-1.9,1.3h0V9.6h-3V10h1v5.5h-1V16h4.3v-0.4H60v-3.1c0-0.9,0.2-1.9,0.8-2.4
		c0,0,0.1,0,0.1,0c0,0,0.1,0.1,0.1,0.1l0,0c0,0.1-0.1,0.3-0.1,0.4c0,0.5,0.4,0.9,0.9,0.9c0,0,0,0,0.1,0c0.6,0,1.1-0.4,1.1-1
		c0,0,0,0,0-0.1c0-0.6-0.4-1.1-1-1.1C62.1,9.4,62,9.4,62,9.4z"/>
	<path class="st15" d="M83.6,9.8C83.6,9.8,83.7,9.8,83.6,9.8C83.7,9.9,83.7,9.9,83.6,9.8L83.6,9.8c-0.1,0.4,0,0.8,0.3,0.9
		c0.1,0,0.1,0.1,0.2,0.1c0.3,0.1,0.7-0.1,0.8-0.5c0,0,0-0.1,0-0.1c0-0.2-0.1-0.4-0.3-0.6c-0.2-0.1-0.4-0.2-0.6-0.2
		c-0.4,0-0.8,0.2-1.1,0.5l0,0l-0.2-0.1c-0.5-0.3-1-0.4-1.6-0.4c-1.2,0-2.5,0.8-2.5,2.1c0,0.8,0.5,1.5,1.2,1.7v0
		c-0.8,0.1-1.5,0.8-1.4,1.7c-0.1,0.6,0.3,1.2,0.9,1.4v0c-0.7,0.2-1.2,0.7-1.2,1.4c0,1.1,1.3,1.9,2.8,1.9c2,0,3.3-1.4,3.3-3.1
		c0-1.4-0.7-2-2.1-2h-2.4c-0.4,0-0.6,0-0.6-0.4s0.6-0.8,1.1-0.8c0.1,0,0.2,0,0.3,0.1c0.2,0.1,0.4,0.1,0.6,0.1c1.2,0,2.5-0.7,2.5-2.1
		c0-0.5-0.2-1-0.5-1.4c0,0,0,0,0-0.1c0,0,0,0,0,0c0.1-0.1,0.2-0.2,0.4-0.2C83.5,9.9,83.5,9.8,83.6,9.8L83.6,9.8z M81.7,16.4
		c1.4,0,1.8,0.1,1.8,0.9c0,1.1-1.3,2-2.7,2c-1.3,0-1.9-0.8-1.9-1.5c0-0.6,0.3-1.1,0.7-1.5H81.7z M81.9,11.5c0,1.7-0.4,1.7-0.9,1.7
		c-0.5,0-0.9-0.1-0.9-1.8c0-1.2,0.1-1.7,0.9-1.7C81.7,9.8,81.9,9.9,81.9,11.5L81.9,11.5z"/>
	<path class="st15" d="M180.9,9.3c-0.9,0-1.6,0.6-1.9,1.4h0V9.6h-3V10h1v5.5h-1v0.4h4.3v-0.4h-1.3v-3.1c0-0.9,0.2-1.9,0.8-2.4
		c0,0,0.1,0,0.1,0c0,0,0.1,0.1,0.1,0.1l0,0c0,0.1-0.1,0.3-0.1,0.4c0,0.5,0.4,0.9,0.9,0.9c0,0,0,0,0.1,0c0.6,0,1.1-0.4,1.1-1
		c0,0,0,0,0-0.1c0-0.6-0.4-1.1-1-1.1C181,9.3,180.9,9.3,180.9,9.3z"/>
	<path class="st16" d="M46.1,24.2c-1.1-0.1-2.3,0.4-3,1.2c-0.7,0.8-1.1,2-1.1,3.4c0,1.4,0.4,2.6,1.1,3.4c0.8,0.8,1.9,1.3,3,1.2
		c0.8,0,1.6-0.1,2.4-0.3v0.6c-0.8,0.3-1.7,0.4-2.5,0.4c-1.3,0.1-2.5-0.4-3.4-1.4c-0.8-0.9-1.2-2.2-1.2-3.9c0-1,0.2-1.9,0.6-2.8
		c0.4-0.8,1-1.4,1.7-1.8c0.8-0.4,1.7-0.7,2.6-0.7c0.9,0,1.9,0.2,2.7,0.6l-0.3,0.6C47.7,24.3,46.9,24.2,46.1,24.2z"/>
	<path class="st16" d="M55.8,30.1c0.1,1.1-0.3,2.1-0.9,2.9c-0.6,0.7-1.6,1.1-2.5,1.1c-0.6,0-1.2-0.2-1.8-0.5
		c-0.5-0.3-0.9-0.8-1.2-1.4c-0.3-0.7-0.4-1.4-0.4-2.1c-0.1-1.1,0.3-2.1,0.9-2.9c0.6-0.7,1.5-1.1,2.5-1c0.9,0,1.9,0.3,2.5,1.1
		C55.5,28,55.9,29.1,55.8,30.1z M49.8,30.1c-0.1,0.9,0.2,1.7,0.7,2.5c1,1.1,2.6,1.2,3.7,0.2c0.1-0.1,0.2-0.1,0.2-0.2
		c0.5-0.7,0.7-1.6,0.7-2.5c0.1-0.9-0.2-1.7-0.7-2.5c-0.5-0.6-1.2-0.9-2-0.9c-0.8,0-1.5,0.3-2,0.9C50,28.4,49.7,29.2,49.8,30.1z"/>
	<path class="st16" d="M67.5,34v-5c0-0.6-0.1-1.2-0.4-1.6c-0.3-0.4-0.8-0.6-1.3-0.5c-0.7-0.1-1.3,0.2-1.8,0.6
		c-0.4,0.6-0.6,1.3-0.6,2V34h-0.7v-5.2c0-1.3-0.6-1.9-1.8-1.9c-0.7-0.1-1.3,0.2-1.8,0.7c-0.4,0.5-0.5,1.2-0.5,2.2V34h-0.7v-7.7h0.6
		l0.1,1h0c0.2-0.4,0.5-0.7,0.9-0.9c0.4-0.2,0.8-0.3,1.3-0.3c1.2,0,2,0.5,2.3,1.4h0c0.2-0.4,0.6-0.8,1-1c0.4-0.2,0.9-0.4,1.4-0.4
		c0.7-0.1,1.4,0.2,1.9,0.7c0.4,0.4,0.6,1.2,0.6,2.1v5H67.5z"/>
	<path class="st16" d="M74.1,34.1c-1,0.1-2-0.4-2.6-1.3h0l0,0.6c0,0.3,0,0.7,0,1.1v2.9h-0.7V26.3h0.6l0.1,1.1h0
		c0.6-0.8,1.5-1.3,2.5-1.2c0.9-0.1,1.8,0.3,2.4,1c0.5,0.7,0.8,1.7,0.8,3c0,1.3-0.3,2.2-0.8,2.9C75.9,33.8,75,34.1,74.1,34.1z
		 M74.1,33.5c0.7,0,1.4-0.3,1.8-0.9c0.5-0.7,0.7-1.6,0.6-2.4c0-2.3-0.8-3.4-2.4-3.4c-0.7-0.1-1.5,0.2-2,0.7
		c-0.4,0.5-0.6,1.3-0.6,2.4v0.2c0,1.2,0.2,2.1,0.6,2.6C72.5,33.2,73.2,33.5,74.1,33.5L74.1,33.5z"/>
	<path class="st16" d="M80.3,26.3v5c-0.1,0.6,0.1,1.2,0.5,1.7c0.4,0.4,1,0.6,1.5,0.5c0.7,0.1,1.5-0.2,2-0.7c0.4-0.5,0.6-1.2,0.6-2.2
		v-4.2h0.7V34H85l-0.1-1.1h0c-0.5,0.8-1.4,1.2-2.7,1.2c-1.7,0-2.6-0.9-2.6-2.8v-5H80.3z"/>
	<path class="st16" d="M90.6,33.5c0.4,0,0.8,0,1.2-0.1v0.6c-0.4,0.1-0.8,0.2-1.2,0.2c-0.6,0-1.1-0.2-1.5-0.5
		c-0.4-0.5-0.5-1.1-0.5-1.7v-5h-1.1v-0.4l1.1-0.3l0.4-1.7h0.4v1.9h2.2v0.6h-2.2v4.9c0,0.5,0.1,0.9,0.3,1.3
		C89.9,33.4,90.2,33.5,90.6,33.5z"/>
	<path class="st16" d="M96.5,34.1c-1,0.1-1.9-0.3-2.6-1c-0.7-0.8-1-1.8-0.9-2.9c-0.1-1.1,0.3-2.1,0.9-2.9c0.6-0.7,1.5-1.1,2.4-1.1
		c0.8,0,1.6,0.3,2.1,0.9c0.6,0.7,0.8,1.6,0.8,2.6v0.6h-5.5c-0.1,0.9,0.2,1.7,0.7,2.4c0.5,0.6,1.3,0.9,2.1,0.8c0.4,0,0.8,0,1.2-0.1
		c0.4-0.1,0.9-0.2,1.3-0.4v0.6c-0.4,0.2-0.8,0.3-1.2,0.4C97.4,34.1,97,34.1,96.5,34.1z M96.3,26.8c-0.7,0-1.3,0.2-1.8,0.7
		c-0.5,0.6-0.8,1.3-0.8,2.1h4.7c0-0.7-0.2-1.5-0.6-2.1C97.6,27,97,26.8,96.3,26.8z"/>
	<path class="st16" d="M104.9,26.2c0.3,0,0.7,0,1,0.1l-0.1,0.7c-0.3-0.1-0.7-0.1-1-0.1c-0.6,0-1.2,0.3-1.6,0.8
		c-0.4,0.6-0.7,1.4-0.6,2.1V34h-0.7v-7.7h0.6l0.1,1.4h0c0.2-0.5,0.6-0.9,1-1.2C103.9,26.3,104.4,26.1,104.9,26.2z"/>
	<path class="st16" d="M116.5,31.3c0,0.8-0.3,1.6-1,2c-0.7,0.5-1.6,0.8-2.5,0.8c-1,0-2-0.1-2.9-0.4V33c0.9,0.3,1.9,0.5,2.8,0.5
		c0.7,0,1.4-0.2,2-0.6c0.5-0.4,0.8-0.9,0.7-1.5c0-0.3-0.1-0.7-0.2-1c-0.2-0.3-0.5-0.5-0.8-0.7c-0.5-0.3-1.1-0.5-1.6-0.7
		c-0.8-0.2-1.6-0.6-2.2-1.2c-0.4-0.5-0.6-1.1-0.6-1.7c0-0.7,0.3-1.4,0.9-1.9c0.7-0.5,1.5-0.8,2.3-0.7c0.9,0,1.9,0.2,2.7,0.5
		l-0.3,0.6c-0.8-0.3-1.6-0.5-2.5-0.5c-0.6,0-1.3,0.2-1.8,0.5c-0.4,0.3-0.7,0.9-0.7,1.4c0,0.3,0.1,0.6,0.2,0.9
		c0.2,0.3,0.4,0.5,0.7,0.7c0.5,0.3,1.1,0.5,1.6,0.7c0.6,0.2,1.2,0.5,1.8,0.8c0.4,0.2,0.7,0.5,0.9,0.9
		C116.4,30.5,116.5,30.9,116.5,31.3z"/>
	<path class="st16" d="M121.4,34.1c-1,0.1-1.9-0.3-2.6-1c-0.7-0.8-1-1.8-0.9-2.9c-0.1-1.1,0.3-2.1,1-3c0.7-0.7,1.6-1.1,2.6-1.1
		c0.7,0,1.3,0.1,1.9,0.3l-0.2,0.6c-0.6-0.2-1.1-0.3-1.7-0.3c-0.8-0.1-1.6,0.3-2.1,0.9c-0.5,0.7-0.8,1.6-0.7,2.5
		c-0.1,0.9,0.2,1.7,0.7,2.4c0.5,0.6,1.3,0.9,2,0.9c0.7,0,1.3-0.1,1.9-0.4v0.6C122.7,34,122,34.1,121.4,34.1z"/>
	<path class="st16" d="M124.7,24.2c0-0.5,0.1-0.7,0.4-0.7c0.1,0,0.3,0.1,0.3,0.2c0.1,0.1,0.1,0.3,0.1,0.5c0,0.2,0,0.3-0.1,0.5
		c-0.1,0.1-0.2,0.2-0.3,0.2C124.9,24.9,124.7,24.6,124.7,24.2z M125.5,34h-0.7v-7.7h0.7V34z"/>
	<path class="st16" d="M131.1,34.1c-1,0.1-1.9-0.3-2.6-1c-0.7-0.8-1-1.8-0.9-2.9c-0.1-1.1,0.3-2.1,0.9-2.9c0.6-0.7,1.5-1.1,2.4-1.1
		c0.8,0,1.6,0.3,2.1,0.9c0.6,0.7,0.8,1.6,0.8,2.6v0.6h-5.5c-0.1,0.9,0.2,1.7,0.7,2.4c0.5,0.6,1.3,0.9,2.1,0.8c0.4,0,0.8,0,1.2-0.1
		c0.4-0.1,0.9-0.2,1.3-0.4v0.6c-0.4,0.2-0.8,0.3-1.2,0.4C131.9,34.1,131.5,34.1,131.1,34.1z M130.9,26.8c-0.7,0-1.3,0.2-1.8,0.7
		c-0.5,0.6-0.8,1.3-0.8,2.1h4.7c0-0.7-0.2-1.5-0.6-2.1C132.1,27,131.5,26.8,130.9,26.8z"/>
	<path class="st16" d="M141.2,34v-5c0.1-0.6-0.1-1.2-0.5-1.7c-0.4-0.4-1-0.6-1.5-0.5c-0.7-0.1-1.5,0.2-2,0.7
		c-0.4,0.5-0.6,1.2-0.6,2.2V34h-0.7v-7.6h0.6l0.1,1h0c0.5-0.8,1.4-1.2,2.7-1.2c1.7,0,2.6,0.9,2.6,2.8v5H141.2z"/>
	<path class="st16" d="M147.1,34.1c-1,0.1-1.9-0.3-2.6-1c-0.7-0.8-1-1.8-0.9-2.9c-0.1-1.1,0.3-2.1,1-3c0.7-0.7,1.7-1.1,2.6-1.1
		c0.6,0,1.3,0.1,1.9,0.3l-0.2,0.6c-0.6-0.2-1.1-0.3-1.7-0.3c-0.8,0-1.6,0.3-2.1,0.9c-0.5,0.7-0.8,1.6-0.7,2.5
		c-0.1,0.9,0.2,1.7,0.7,2.4c0.5,0.6,1.3,0.9,2,0.9c0.7,0,1.3-0.1,1.9-0.4v0.6C148.4,34,147.7,34.1,147.1,34.1z"/>
	<path class="st16" d="M153.4,34.1c-1,0.1-1.9-0.3-2.6-1c-0.7-0.8-1-1.8-0.9-2.9c-0.1-1.1,0.3-2.1,0.9-2.9c0.6-0.7,1.5-1.1,2.4-1.1
		c0.8,0,1.6,0.3,2.1,0.9c0.6,0.7,0.8,1.6,0.8,2.6v0.6h-5.5c-0.1,0.9,0.2,1.7,0.7,2.4c0.5,0.6,1.3,0.9,2.1,0.8c0.4,0,0.8,0,1.2-0.1
		c0.4-0.1,0.9-0.2,1.3-0.4v0.6c-0.4,0.2-0.8,0.3-1.2,0.4C154.3,34.1,153.8,34.1,153.4,34.1z M153.2,26.8c-0.7,0-1.3,0.2-1.8,0.7
		c-0.5,0.6-0.8,1.3-0.8,2.1h4.7c0-0.7-0.2-1.5-0.6-2.1C154.4,27,153.8,26.8,153.2,26.8L153.2,26.8z"/>
	<path class="st16" d="M169.4,28.7c0,1.7-0.5,3-1.4,3.9c-0.9,0.9-2.2,1.3-4,1.3h-2.5V23.7h2.8c1.6,0,2.9,0.4,3.8,1.3
		C169,25.8,169.4,27.1,169.4,28.7z M168.6,28.7c0-1.5-0.4-2.6-1.1-3.3c-0.7-0.7-1.9-1.1-3.3-1.1h-1.9v9.1h1.7
		C167.1,33.3,168.6,31.8,168.6,28.7L168.6,28.7z"/>
	<path class="st16" d="M174.5,34.1c-1,0.1-1.9-0.3-2.6-1c-0.7-0.8-1-1.8-0.9-2.9c-0.1-1.1,0.3-2.1,0.9-2.9c0.6-0.7,1.5-1.1,2.4-1.1
		c0.8,0,1.6,0.3,2.1,0.9c0.6,0.7,0.8,1.6,0.8,2.6v0.6h-5.5c-0.1,0.9,0.2,1.7,0.7,2.4c0.5,0.6,1.3,0.9,2.1,0.8c0.4,0,0.8,0,1.1-0.1
		c0.4-0.1,0.9-0.2,1.3-0.4v0.6c-0.4,0.2-0.8,0.3-1.2,0.4C175.3,34.1,174.9,34.1,174.5,34.1z M174.3,26.8c-0.7,0-1.3,0.2-1.8,0.7
		c-0.5,0.6-0.8,1.3-0.8,2.1h4.7c0-0.7-0.2-1.5-0.6-2.1C175.5,27,174.9,26.8,174.3,26.8z"/>
	<path class="st16" d="M182.5,34.1c-1,0.1-2-0.4-2.6-1.3h0v0.6c0,0.3,0,0.7,0,1.1v2.9h-0.7V26.3h0.6l0.1,1.1h0
		c0.6-0.8,1.5-1.3,2.5-1.2c0.9-0.1,1.8,0.3,2.4,1c0.5,0.7,0.8,1.7,0.8,3c0,1.3-0.3,2.2-0.8,2.9C184.3,33.8,183.4,34.1,182.5,34.1z
		 M182.5,33.5c0.7,0,1.4-0.3,1.8-0.9c0.5-0.7,0.7-1.6,0.6-2.4c0-2.3-0.8-3.4-2.4-3.4c-0.7-0.1-1.5,0.2-2,0.7
		c-0.4,0.5-0.7,1.3-0.7,2.4v0.2c0,1.2,0.2,2.1,0.6,2.6C180.9,33.2,181.6,33.5,182.5,33.5L182.5,33.5z"/>
	<path class="st16" d="M192.2,34l-0.2-1.2H192c-0.3,0.4-0.7,0.8-1.2,1c-0.5,0.2-0.9,0.3-1.4,0.3c-0.6,0-1.3-0.2-1.8-0.6
		c-0.4-0.4-0.7-1-0.6-1.6c0-0.7,0.3-1.4,0.9-1.7c0.8-0.5,1.8-0.7,2.7-0.6l1.5,0V29c0-0.6-0.1-1.2-0.4-1.6c-0.4-0.4-0.9-0.6-1.4-0.6
		c-0.8,0-1.5,0.2-2.2,0.6l-0.3-0.6c0.8-0.4,1.6-0.6,2.5-0.6c0.7-0.1,1.4,0.2,1.9,0.7c0.5,0.6,0.7,1.3,0.6,2V34H192.2z M189.4,33.5
		c1.3,0.1,2.5-0.9,2.6-2.2c0-0.1,0-0.3,0-0.4v-0.7l-1.3,0.1c-0.8,0-1.6,0.2-2.3,0.5c-0.5,0.3-0.7,0.8-0.7,1.3c0,0.4,0.1,0.8,0.4,1.1
		C188.5,33.4,189,33.5,189.4,33.5z"/>
	<path class="st16" d="M198.5,26.2c0.3,0,0.7,0,1,0.1l-0.1,0.7c-0.3-0.1-0.7-0.1-1-0.1c-0.6,0-1.2,0.3-1.6,0.8
		c-0.4,0.6-0.7,1.4-0.6,2.1V34h-0.7v-7.7h0.6l0.1,1.4h0.1c0.2-0.5,0.6-0.9,1-1.2C197.6,26.3,198.1,26.1,198.5,26.2z"/>
	<path class="st16" d="M203.3,33.5c0.4,0,0.8,0,1.2-0.1v0.6c-0.4,0.1-0.8,0.2-1.2,0.2c-0.6,0-1.1-0.2-1.5-0.5
		c-0.4-0.5-0.5-1.1-0.5-1.7v-5h-1.1v-0.4l1.1-0.3l0.4-1.7h0.4v1.9h2.2v0.6H202v4.9c0,0.5,0.1,0.9,0.3,1.3
		C202.5,33.4,202.9,33.5,203.3,33.5z"/>
	<path class="st16" d="M215.7,34v-5c0.1-0.6-0.1-1.2-0.4-1.6c-0.3-0.4-0.8-0.6-1.3-0.5c-0.7-0.1-1.3,0.2-1.8,0.6
		c-0.4,0.6-0.6,1.3-0.6,2V34h-0.7v-5.2c0-1.3-0.6-1.9-1.8-1.9c-0.7-0.1-1.3,0.2-1.8,0.7c-0.4,0.5-0.5,1.2-0.5,2.2V34h-0.7v-7.7h0.6
		l0.1,1h0c0.2-0.4,0.5-0.7,0.9-0.9c0.4-0.2,0.8-0.3,1.3-0.3c1.2,0,2,0.5,2.3,1.4h0c0.2-0.4,0.6-0.8,1-1c0.4-0.2,0.9-0.4,1.4-0.4
		c0.7-0.1,1.4,0.2,1.9,0.7c0.4,0.4,0.6,1.2,0.6,2.1v5H215.7z"/>
	<path class="st16" d="M222.3,34.1c-1,0.1-1.9-0.3-2.6-1c-0.7-0.8-1-1.8-0.9-2.9c0-1.1,0.3-2.1,0.9-2.9c0.6-0.7,1.5-1.1,2.4-1.1
		c0.8,0,1.6,0.3,2.1,0.9c0.6,0.7,0.8,1.6,0.8,2.6v0.6h-5.5c-0.1,0.9,0.2,1.7,0.7,2.4c0.5,0.6,1.3,0.9,2.1,0.8c0.4,0,0.8,0,1.1-0.1
		c0.4-0.1,0.9-0.2,1.3-0.4v0.6c-0.4,0.2-0.8,0.3-1.2,0.4C223.1,34.1,222.7,34.1,222.3,34.1z M222.1,26.8c-0.7,0-1.3,0.2-1.8,0.7
		c-0.5,0.6-0.8,1.3-0.8,2.1h4.7c0-0.7-0.2-1.5-0.6-2.1C223.3,27,222.7,26.8,222.1,26.8z"/>
	<path class="st16" d="M232.7,34v-5c0.1-0.6-0.1-1.2-0.5-1.7c-0.4-0.4-1-0.6-1.5-0.5c-0.7-0.1-1.5,0.2-2,0.7
		c-0.4,0.5-0.6,1.2-0.6,2.2V34h-0.7v-7.6h0.6l0.1,1h0c0.5-0.8,1.4-1.2,2.7-1.2c1.7,0,2.6,0.9,2.6,2.8v5H232.7z"/>
	<path class="st16" d="M238.2,33.5c0.4,0,0.8,0,1.2-0.1v0.6c-0.4,0.1-0.8,0.2-1.2,0.2c-0.6,0-1.1-0.2-1.5-0.5
		c-0.4-0.5-0.5-1.1-0.5-1.7v-5H235v-0.4l1.1-0.3l0.4-1.7h0.4v1.9h2.2v0.6h-2.2v4.9c0,0.5,0.1,0.9,0.3,1.3
		C237.4,33.4,237.8,33.5,238.2,33.5z"/>
	<g id="Group-7">
		<g id="Group-3">
			<path id="Fill-1" class="st17" d="M22.5,15h-2.8c-1.3,0-2.4,1.1-2.4,2.4c0,1.3,1.1,2.4,2.4,2.4c0,0,0,0,0,0h1.7
				c3.7,0,6.4,2.2,6.4,6.2c0,4.3-3,6.2-6.4,6.2h-1.6c-1.3,0-2.4,1.1-2.5,2.4l0,0c0,1.3,1.1,2.4,2.5,2.4h2.8c6.2,0,11.4-4.8,11.4-11
				S28.7,15,22.5,15"/>
		</g>
		<g id="Group-6">
			<path id="Fill-4" class="st18" d="M17.8,6.1h2.8c1.4,0,2.5,1.1,2.5,2.4l0,0c0,1.4-1.1,2.4-2.5,2.4h-1.7c-3.7,0-6.4,2.2-6.4,6.2
				c0,4.3,3,6.2,6.4,6.2h1.7c1.4,0,2.5,1.1,2.5,2.4c0,0,0,0,0,0l0,0c0,1.4-1.1,2.4-2.5,2.4h-2.8c-6.2,0-11.4-4.8-11.4-11
				S11.5,6.1,17.8,6.1"/>
		</g>
	</g>
</g>
</svg>
