<?xml version="1.0" encoding="UTF-8"?>
<svg id="Layer_1" xmlns="http://www.w3.org/2000/svg" xmlns:xlink="http://www.w3.org/1999/xlink" version="1.1" viewBox="0 0 245.7 141.8">
  <!-- Generator: Adobe Illustrator 29.5.0, SVG Export Plug-In . SVG Version: 2.1.0 Build 137)  -->
  <defs>
    <style>
      .st0 {
        opacity: .3;
      }

      .st0, .st1, .st2, .st3, .st4, .st5, .st6 {
        fill: #941b22;
      }

      .st0, .st1, .st2, .st3, .st4, .st5, .st6, .st7 {
        isolation: isolate;
      }

      .st1 {
        opacity: .8;
      }

      .st2 {
        opacity: .9;
      }

      .st3 {
        opacity: .4;
      }

      .st4 {
        opacity: .6;
      }

      .st5 {
        opacity: .5;
      }

      .st6 {
        opacity: .6;
      }

      .st8 {
        fill: #b5b5b5;
      }

      .st9 {
        fill: #231f20;
        stroke: #231f20;
        stroke-width: .2px;
      }

      .st9, .st10, .st11, .st12, .st13 {
        stroke-miterlimit: 10;
      }

      .st10 {
        stroke-width: 1.5px;
      }

      .st10, .st11, .st12, .st13 {
        fill: none;
      }

      .st10, .st12 {
        stroke: #000;
      }

      .st11, .st13 {
        stroke: #941b22;
      }

      .st14 {
        fill: #717171;
      }

      .st15 {
        fill: #9b9b9b;
      }

      .st16 {
        fill: #fff;
      }

      .st17 {
        fill: #c41230;
      }

      .st12 {
        stroke-width: .5px;
      }

      .st13 {
        stroke-linecap: round;
      }

      .st7 {
        fill: url(#linear-gradient);
        opacity: .2;
      }

      .st18 {
        fill: #ededed;
      }
    </style>
    <linearGradient id="linear-gradient" x1="128.4" y1="101.3" x2="120.4" y2="51.2" gradientTransform="translate(0 184) scale(1 -1)" gradientUnits="userSpaceOnUse">
      <stop offset=".6" stop-color="#221f1f" stop-opacity="0"/>
      <stop offset="1" stop-color="#000"/>
    </linearGradient>
  </defs>
  <g>
    <g>
      <rect class="st18" x="12.4" y=".5" width="223.5" height="36.9"/>
      <path class="st8" d="M235.4.9v36H12.8V.9h222.6M236.4,0H11.9v37.8h224.4V0h0Z"/>
    </g>
    <g>
      <polygon class="st17" points="92.4 8.8 92.4 14.2 93.3 14.2 93.3 14.5 89.7 14.5 89.7 14.2 90.6 14.2 90.6 9.1 89.8 9.1 89.8 8.8 92.4 8.8"/>
      <path class="st17" d="M56.6,5.2h-.4c0,.3-.2.4-.5.4-.5,0-1.4-.6-2.4-.6-2.7,0-4.4,2.7-4.4,5s1.6,4.7,4.2,4.7,2.2-.7,2.6-.7.4.3.4.5h.4v-3.3h-.4v.5c-.3,1.1-1.1,2.6-2.8,2.6s-2.1-1.3-2.1-4.6.8-4.6,2.1-4.6,2.6,1.7,2.7,3h.4v-3Z"/>
      <path class="st17" d="M61.2,13c0,.7-.5,1.3-1,1.3-.9,0-.9-.7-.9-1.4s0-1.2.9-1.3h1c0,0,0,1.4,0,1.4ZM63.6,13.4c0,.4-.2.7-.4.7-.3,0-.3-.3-.3-.6v-3c0-1.5-1.4-1.8-2.7-1.8s-2.3.6-2.3,1.4c0,.5.3.8.6.8h.2c.4,0,.7-.3.8-.7h0c0-.7-.7-.7-.7-.8,0-.3.7-.4,1.2-.4,1,0,1.1.4,1.1,1.2v1.1h-1.3c-1.2.2-2.5.5-2.5,1.8s1,1.6,2,1.6,1.5-.2,1.7-.8c.2.5.7.8,1.3.8.8,0,1.4-.5,1.4-1.3h-.2Z"/>
      <polygon class="st17" points="185.8 8.8 185.8 14.2 186.8 14.2 186.8 14.5 183.1 14.5 183.1 14.2 184 14.2 184 9.1 183.1 9.1 183.1 8.8 185.8 8.8"/>
      <path class="st17" d="M107,11.5l2.2-6.2h3v.4h-.8v8.5h.8v.4h-3.6v-.4h.9V5.8h0l-3,8.8h-.5l-3.2-9h0v7.5c0,1.1.3,1.1,1,1.1h0v.4h-2.3v-.4h0c.7,0,.9-.5.9-1v-7.5h-.9v-.4h3.3l2.2,6.2Z"/>
      <path class="st17" d="M114.3,11.1v-.9c0-.9.4-1.2.8-1.2s.8.5.8,1.2v.9h-1.6ZM114.3,11.4h3.7c0-1.5-1.4-2.7-2.7-2.7-1.6,0-2.9,1.5-2.9,3.1,0,1.6,1.2,2.9,2.7,3h.2c1.6,0,2.4-1,2.7-2.3h-.4c-.3,1.2-.9,1.9-1.9,1.9s-1.4-.9-1.4-1.8v-1.2Z"/>
      <path class="st17" d="M168.9,11v-.9c0-.9.4-1.2.8-1.2s.8.5.8,1.2v.9h-1.6ZM168.9,11.3h3.7c0-1.5-1.4-2.7-2.7-2.7-1.6,0-2.9,1.5-2.9,3.1h0c0,1.6,1.2,2.9,2.7,3h.2c1.6,0,2.4-1,2.7-2.3h-.4c-.3,1.2-.9,1.9-1.9,1.9s-1.4-.9-1.4-1.8v-1.2Z"/>
      <polygon class="st17" points="118 5.3 118 5.7 118.9 5.7 118.9 14.2 118 14.2 118 14.5 121.6 14.5 121.6 14.2 120.7 14.2 120.7 5.3 118 5.3"/>
      <polygon class="st17" points="121.8 5.3 121.8 5.7 122.7 5.7 122.7 14.2 121.8 14.2 121.8 14.5 125.5 14.5 125.5 14.2 124.6 14.2 124.6 5.3 121.8 5.3"/>
      <path class="st17" d="M129.7,13c0,1-.4,1.4-1.1,1.4s-1.1-.4-1.1-1.4v-2.6c0-1,.4-1.4,1.1-1.4s1.1.4,1.1,1.4v2.6ZM131.7,11.7c0-1.7-1.3-3.2-3-3.2s-3.2,1.3-3.2,3,1.3,3.2,3,3.2h0c1.6,0,3-1.2,3.1-2.9h0"/>
      <path class="st17" d="M141.1,5.7h.9v5.8c0,2,1.4,3.3,3.6,3.3s3.5-1.3,3.5-3.2v-5c0-.7.2-.9.6-.9h.3v-.4h-2.3v.4h.2c.6,0,.7.2.7,1v5c0,1.8-1.1,2.6-2.2,2.6-1.9,0-2.3-1.3-2.4-3v-5.6h.8v-.4h-3.7v.4h0Z"/>
      <path class="st17" d="M163.9,14.7h.4l1.9-4.6c.4-.8.6-1,.9-1h0v-.4h-2v.4h.3c.4,0,.5,0,.5.3s0,.5-.2.8l-.9,2.1-1.5-3.2h.7v-.4h-3.4v.4h.6l2.5,5.6Z"/>
      <path class="st17" d="M178.5,14.7h.3c0-.2.3-.4.5-.3.4,0,.7.3,1.5.3,1.2,0,2.1-1,2.1-2.2s-1.1-1.7-2.5-1.9c-.7,0-1.2-.2-1.2-.7s.5-.9,1.3-.9,1.4.6,1.7,1.5h.3v-1.8h-.3c0,.2-.2.3-.4.3-.5,0-.7-.3-1.4-.3-1.1,0-1.9.9-1.9,1.9h0c0,1.7,1.3,1.8,2.3,1.9s1.3.2,1.3.7-.5,1-1.3,1-1.6-.8-1.9-1.8h-.3v2.4Z"/>
      <polygon class="st17" points="160.4 8.8 160.4 14.2 161.3 14.2 161.3 14.5 157.6 14.5 157.6 14.2 158.5 14.2 158.5 9.1 157.6 9.1 157.6 8.8 160.4 8.8"/>
      <path class="st17" d="M158.5,6.9c0,.5.4.9.9.9s.9-.4.9-.9-.4-.9-.9-.9h0c-.5,0-.9.4-.9.9h0"/>
      <path class="st17" d="M184,6.9c0,.5.4.9.9.9s.9-.4.9-.9-.4-.9-.9-.9h0c-.5,0-.9.4-.9.9"/>
      <path class="st17" d="M79.4,11.1v-.9c0-.9.4-1.2.8-1.2s.8.5.8,1.2v.9h-1.6ZM79.4,11.4h3.7c0-1.5-1.4-2.7-2.7-2.7-1.6,0-2.9,1.5-2.9,3.1h0c0,1.6,1.2,2.9,2.7,3h.2c1.6,0,2.4-1,2.7-2.3h-.4c-.3,1.2-.9,1.9-1.9,1.9s-1.4-.9-1.4-1.8v-1.2Z"/>
      <path class="st17" d="M95.3,11.1v-.9c0-.9.4-1.2.8-1.2s.8.3.8,1.2v.9h-1.6ZM95.3,11.4h3.7c0-1.5-1.4-2.7-2.7-2.7-1.6,0-2.9,1.5-2.9,3.1h0c0,1.6,1.2,2.9,2.7,3h.2c1.6,0,2.4-1,2.7-2.3h-.4c-.3,1.2-.9,1.9-1.9,1.9s-1.4-.9-1.4-1.8v-1.2Z"/>
      <path class="st17" d="M156.5,14.2v-3.6c0-1.5-.6-2.1-1.8-2.1s-1.7.5-2.1,1.3h0v-1h-2.7v.4h.9v5.1h-.9v.4h3.5v-.4h-.7v-3.5c0-.5.7-1.6,1.5-1.6s.7.2.7,1v4h-.7v.4h3.5v-.4h-1Z"/>
      <path class="st17" d="M134.4,8.8v1.1h0c.5-.8,1.3-1.3,2.1-1.3,1.3,0,1.8.6,1.8,2.1v3.6h.9v.4h-3.5v-.4h.7v-4c0-.9-.3-1-.7-1-.7,0-1.4,1.1-1.5,1.6v3.5h.7v.4h-3.5v-.4h.9v-5.2h-.9v-.4h2.8Z"/>
      <path class="st17" d="M76.6,14.2v-3.6c0-1.5-.6-2.1-1.8-2.1s-1.7.5-2.1,1.3h0v-1h-2.7v.4h.9v5.1h-.9v.4h3.5v-.4h-.7v-3.5c0-.5.7-1.6,1.5-1.6s.7.2.7,1v4h-.8v.4h3.5v-.4h-.9Z"/>
      <path class="st17" d="M90.6,6.9c0,.5.4.9.9.9s.9-.4.9-.9-.4-.9-.9-.9c-.5,0-.9.5-.9.9h0"/>
      <path class="st17" d="M194.6,8.8v.4c.5,0,.8,0,.8.3,0,.3,0,.5-.2.8l-.9,2.1-1.5-3.2h.7v-.5h-4.6v-2.7h-.3c0,1.4-.9,2.8-2.3,2.8v.4h.7v4c0,.8.5,1.5,1.4,1.5h0c.7,0,1.4-.4,1.7-1l-.3-.2c-.2.3-.4.5-.7.5s-.4-.2-.4-.6v-4.2h1.8l2.4,5.6-.8,1.9h0q0,0,0,0h0c-.2-.5-.6-.7-1.1-.6-.5.2-.7.6-.6,1.1,0,.3.3.5.5.5h0c0,0,.2,0,.4,0,.7,0,1.2-.5,1.5-1.1,0,0,0-.3.2-.4,0-.3.3-.7.5-1.3h0l.2-.5h0l1.8-4.4c.4-.8.5-1,1-1h0v-.4h-2Z"/>
      <path class="st17" d="M68.6,8.6c-.8,0-1.5.5-1.7,1.2h0v-1h-2.7v.4h.9v5h-.9v.5h3.9v-.4h-1.3v-2.8c0-.8.2-1.7.7-2.2h.2c0,.2,0,.4,0,.5,0,.5.4.8.8.8h0c.5,0,1-.4,1-.9h0c0-.6-.4-1.1-.9-1.1,0,0,0,0,0,0Z"/>
      <path class="st17" d="M88.3,9s0,0,0,0q0,0,0,0h0c0,.4,0,.7.3.8,0,0,0,0,.2,0,.3,0,.6,0,.7-.5h0c0-.3,0-.5-.3-.6-.2,0-.4-.2-.5-.2-.4,0-.7.2-1,.5h-.2c-.5-.4-.9-.5-1.5-.5-1.1,0-2.3.7-2.3,1.9s.5,1.4,1.1,1.6h0c-.7,0-1.4.7-1.3,1.6,0,.5.3,1.1.8,1.3h0c-.6.2-1.1.6-1.1,1.3,0,1,1.2,1.7,2.6,1.7s3-1.3,3-2.8-.6-1.8-1.9-1.8h-2.2c-.4,0-.5,0-.5-.4s.5-.7,1-.7.2,0,.3,0c.2,0,.4,0,.5,0,1.1,0,2.3-.6,2.3-1.9s-.2-.9-.5-1.3h0c0-.2.2-.3.4-.3,0,.2,0,0,0,0h0ZM86.6,15c1.3,0,1.6,0,1.6.8s-1.2,1.8-2.5,1.8-1.7-.7-1.7-1.4.3-1,.6-1.4h1.9ZM86.7,10.5c0,1.6-.4,1.6-.8,1.6s-.8,0-.8-1.6,0-1.6.8-1.6c.6,0,.8.2.8,1.6h0Z"/>
      <path class="st17" d="M177.2,8.5c-.8,0-1.5.5-1.7,1.3h0v-1h-2.7v.4h.9v5h-.9v.4h3.9v-.4h-1.2v-2.8c0-.8.2-1.7.7-2.2h.2c0,.2,0,.4,0,.5,0,.5.4.8.8.8h0c.5,0,1-.4,1-.9h0c0-.6-.4-1.1-.9-1.1,0,0,0,0,0,0Z"/>
      <path class="st9" d="M54,22.1c-1,0-2.1.4-2.7,1.1-.6.7-1,1.8-1,3.1s.4,2.4,1,3.1c.7.7,1.7,1.2,2.7,1.1.7,0,1.5,0,2.2-.3v.5c-.7.3-1.6.4-2.3.4-1.2,0-2.3-.4-3.1-1.3-.7-.8-1.1-2-1.1-3.6s.2-1.7.5-2.6c.4-.7.9-1.3,1.6-1.6.7-.4,1.6-.6,2.4-.6s1.7.2,2.5.5l-.3.5c-.9-.4-1.6-.5-2.4-.5Z"/>
      <path class="st9" d="M62.9,27.5c0,1-.3,1.9-.8,2.6-.5.6-1.5,1-2.3,1s-1.1-.2-1.6-.5c-.5-.3-.8-.7-1.1-1.3-.3-.6-.4-1.3-.4-1.9,0-1,.3-1.9.8-2.6.5-.6,1.4-1,2.3-.9.8,0,1.7.3,2.3,1,.5.6.9,1.6.8,2.6ZM57.4,27.5c0,.8.2,1.6.6,2.3.9,1,2.4,1.1,3.4.2,0,0,.2,0,.2-.2.5-.6.6-1.5.6-2.3,0-.8-.2-1.6-.6-2.3-.5-.5-1.1-.8-1.8-.8s-1.4.3-1.8.8c-.4.7-.6,1.5-.5,2.3Z"/>
      <path class="st9" d="M73.6,31.1v-4.6c0-.5,0-1.1-.4-1.5s-.7-.5-1.2-.5c-.6,0-1.2.2-1.6.5-.4.5-.5,1.2-.5,1.8v4.1h-.6v-4.7c0-1.2-.5-1.7-1.6-1.7-.6,0-1.2.2-1.6.6-.4.5-.5,1.1-.5,2v3.8h-.6v-7h.5v.9h0c.2-.4.5-.6.8-.8.4-.2.7-.3,1.2-.3,1.1,0,1.8.5,2.1,1.3h0c.2-.4.5-.7.9-.9.4-.2.8-.4,1.3-.4.6,0,1.3.2,1.7.6.4.4.5,1.1.5,1.9v4.6h-.5Z"/>
      <path class="st9" d="M79.6,31.1c-.9,0-1.8-.4-2.4-1.2h0v4.2h-.6v-10.1h.5v1h0c.5-.7,1.4-1.2,2.3-1.1.8,0,1.6.3,2.2.9.5.6.7,1.6.7,2.7s-.3,2-.7,2.6-1.3.9-2.1.9ZM79.6,30.6c.6,0,1.3-.3,1.6-.8.5-.6.6-1.5.5-2.2,0-2.1-.7-3.1-2.2-3.1-.6,0-1.4.2-1.8.6-.4.5-.5,1.2-.5,2.2v.2c0,1.1.2,1.9.5,2.4s1,.7,1.8.7h0Z"/>
      <path class="st9" d="M85.3,24v4.6c0,.5,0,1.1.5,1.6.4.4.9.5,1.4.5.6,0,1.4-.2,1.8-.6.4-.5.5-1.1.5-2v-3.8h.6v6.9h-.5v-1h0c-.5.7-1.3,1.1-2.5,1.1s-2.4-.8-2.4-2.6v-4.6s.6,0,.6,0Z"/>
      <path class="st9" d="M94.7,30.6c.4,0,.7,0,1.1,0v.5c-.4,0-.7.2-1.1.2-.5,0-1-.2-1.4-.5-.4-.5-.5-1-.5-1.6v-4.6h-1v-.4l1-.3.4-1.6h.4v1.7h2v.5h-2v4.5c0,.5,0,.8.3,1.2.2,0,.5.2.8.2Z"/>
      <path class="st9" d="M100.1,31.1c-.9,0-1.7-.3-2.4-.9-.6-.7-.9-1.6-.8-2.6,0-1,.3-1.9.8-2.6.5-.6,1.4-1,2.2-1s1.5.3,1.9.8c.5.6.7,1.5.7,2.4v.5h-5c0,.8.2,1.6.6,2.2.5.5,1.2.8,1.9.7.4,0,.7,0,1.1,0,.4,0,.8-.2,1.2-.4v.5c-.4.2-.7.3-1.1.4-.4,0-.7,0-1.2,0ZM99.9,24.5c-.6,0-1.2.2-1.6.6-.5.5-.7,1.2-.7,1.9h4.3c0-.6-.2-1.4-.5-1.9-.2-.5-.7-.6-1.4-.6Z"/>
      <path class="st9" d="M107.7,23.9c.3,0,.6,0,.9,0v.6c-.4,0-.7,0-1,0-.5,0-1.1.3-1.5.7-.4.5-.6,1.3-.5,1.9v3.8h-.6v-7h.5v1.3h0c.2-.5.5-.8.9-1.1.3-.2.7-.4,1.2-.3Z"/>
      <path class="st9" d="M118.3,28.6c0,.7-.3,1.5-.9,1.8-.6.5-1.5.7-2.3.7s-1.8,0-2.6-.4v-.6c.8.3,1.7.5,2.6.5s1.3-.2,1.8-.5c.5-.4.7-.8.6-1.4,0-.3,0-.6-.2-.9-.2-.3-.5-.5-.7-.6-.5-.3-1-.5-1.5-.6-.7-.2-1.5-.5-2-1.1-.4-.5-.5-1-.5-1.6s.3-1.3.8-1.7c.6-.5,1.4-.7,2.1-.6.8,0,1.7.2,2.5.5l-.3.5c-.7-.3-1.5-.5-2.3-.5s-1.2.2-1.6.5c-.4.3-.6.8-.6,1.3s0,.5.2.8c.2.3.4.5.6.6.5.3,1,.5,1.5.6.5.2,1.1.5,1.6.7.4.2.6.5.8.8.4.5.5.8.5,1.2Z"/>
      <path class="st9" d="M122.8,31.1c-.9,0-1.7-.3-2.4-.9-.6-.7-.9-1.6-.8-2.6,0-1,.3-1.9.9-2.7.6-.6,1.5-1,2.4-1s1.2,0,1.7.3l-.2.5c-.5-.2-1-.3-1.6-.3-.7,0-1.5.3-1.9.8-.5.6-.7,1.5-.6,2.3,0,.8.2,1.6.6,2.2.5.5,1.2.8,1.8.8s1.2,0,1.7-.4v.5c-.5.4-1.2.5-1.7.5Z"/>
      <path class="st9" d="M125.8,22.1c0-.5,0-.6.4-.6s.3,0,.3.2c0,0,0,.3,0,.5s0,.3,0,.5c0,0-.2.2-.3.2-.2,0-.4-.3-.4-.6ZM126.6,31.1h-.6v-7h.6v7Z"/>
      <path class="st9" d="M131.7,31.1c-.9,0-1.7-.3-2.4-.9-.6-.7-.9-1.6-.8-2.6,0-1,.3-1.9.8-2.6.5-.6,1.4-1,2.2-1s1.5.3,1.9.8c.5.6.7,1.5.7,2.4v.5h-5c0,.8.2,1.6.6,2.2.5.5,1.2.8,1.9.7.4,0,.7,0,1.1,0s.8-.2,1.2-.4v.5c-.4.2-.7.3-1.1.4-.5,0-.8,0-1.2,0ZM131.5,24.5c-.6,0-1.2.2-1.6.6-.5.5-.7,1.2-.7,1.9h4.3c0-.6-.2-1.4-.5-1.9-.3-.5-.8-.6-1.4-.6Z"/>
      <path class="st9" d="M140.9,31.1v-4.6c0-.5,0-1.1-.5-1.6-.4-.4-.9-.5-1.4-.5-.6,0-1.4.2-1.8.6-.4.5-.5,1.1-.5,2v3.9h-.6v-6.9h.5v.9h0c.5-.7,1.3-1.1,2.5-1.1s2.4.8,2.4,2.6v4.6h-.6Z"/>
      <path class="st9" d="M146.3,31.1c-.9,0-1.7-.3-2.4-.9-.6-.7-.9-1.6-.8-2.6,0-1,.3-1.9.9-2.7.6-.6,1.6-1,2.4-1s1.2,0,1.7.3l-.2.5c-.5-.2-1-.3-1.6-.3s-1.5.3-1.9.8c-.5.6-.7,1.5-.6,2.3,0,.8.2,1.6.6,2.2.5.5,1.2.8,1.8.8s1.2,0,1.7-.4v.5c-.5.4-1.2.5-1.7.5Z"/>
      <path class="st9" d="M152,31.1c-.9,0-1.7-.3-2.4-.9-.6-.7-.9-1.6-.8-2.6,0-1,.3-1.9.8-2.6.5-.6,1.4-1,2.2-1s1.5.3,1.9.8c.5.6.7,1.5.7,2.4v.5h-5c0,.8.2,1.6.6,2.2.5.5,1.2.8,1.9.7.4,0,.7,0,1.1,0s.8-.2,1.2-.4v.5c-.4.2-.7.3-1.1.4-.4,0-.8,0-1.2,0ZM151.9,24.5c-.6,0-1.2.2-1.6.6-.5.5-.7,1.2-.7,1.9h4.3c0-.6-.2-1.4-.5-1.9-.3-.5-.8-.6-1.4-.6h0Z"/>
      <path class="st9" d="M166.7,26.2c0,1.6-.5,2.7-1.3,3.6s-2,1.2-3.7,1.2h-2.3v-9.3h2.6c1.5,0,2.6.4,3.5,1.2.8.7,1.2,1.9,1.2,3.4ZM165.9,26.2c0-1.4-.4-2.4-1-3-.6-.6-1.7-1-3-1h-1.7v8.3h1.6c2.8,0,4.2-1.5,4.2-4.3h0Z"/>
      <path class="st9" d="M171.3,31.1c-.9,0-1.7-.3-2.4-.9-.6-.7-.9-1.6-.8-2.6,0-1,.3-1.9.8-2.6.5-.6,1.4-1,2.2-1s1.5.3,1.9.8c.5.6.7,1.5.7,2.4v.5h-5c0,.8.2,1.6.6,2.2.5.5,1.2.8,1.9.7.4,0,.7,0,1,0,.4,0,.8-.2,1.2-.4v.5c-.4.2-.7.3-1.1.4-.4,0-.7,0-1.1,0ZM171.1,24.5c-.6,0-1.2.2-1.6.6-.5.5-.7,1.2-.7,1.9h4.3c0-.6-.2-1.4-.5-1.9-.3-.5-.8-.6-1.4-.6Z"/>
      <path class="st9" d="M178.6,31.1c-.9,0-1.8-.4-2.4-1.2h0v4.2h-.6v-10.1h.5v1h0c.5-.7,1.4-1.2,2.3-1.1.8,0,1.6.3,2.2.9.5.6.7,1.6.7,2.7s-.3,2-.7,2.6-1.3.9-2.1.9ZM178.6,30.6c.6,0,1.3-.3,1.6-.8.5-.6.6-1.5.5-2.2,0-2.1-.7-3.1-2.2-3.1-.6,0-1.4.2-1.8.6-.4.5-.6,1.2-.6,2.2v.2c0,1.1.2,1.9.5,2.4.5.5,1.1.7,1.9.7h0Z"/>
      <path class="st9" d="M187.5,31.1l-.2-1.1h0c-.3.4-.6.7-1.1.9s-.8.3-1.3.3-1.2-.2-1.6-.5c-.4-.4-.6-.9-.5-1.5,0-.6.3-1.3.8-1.6.7-.5,1.6-.6,2.5-.5h1.4v-.5c0-.5,0-1.1-.4-1.5-.4-.4-.8-.5-1.3-.5-.7,0-1.4.2-2,.5l-.3-.5c.7-.4,1.5-.5,2.3-.5.6,0,1.3.2,1.7.6.5.5.6,1.2.5,1.8v4.7h-.5ZM184.9,30.6c1.2,0,2.3-.8,2.4-2v-1h-1.2c-.7,0-1.5.3-2.1.5-.5.3-.6.7-.6,1.2s0,.7.4,1c.4.2.8.3,1.2.3Z"/>
      <path class="st9" d="M193.2,23.9c.3,0,.6,0,.9,0v.6c-.4,0-.7,0-1,0-.5,0-1.1.3-1.5.7-.4.5-.6,1.3-.5,1.9v3.8h-.6v-7h.5v1.3h.2c.2-.5.5-.8.9-1.1.3-.2.7-.4,1.1-.3Z"/>
      <path class="st9" d="M197.6,30.6c.4,0,.7,0,1.1,0v.5c-.4,0-.7.2-1.1.2-.5,0-1-.2-1.4-.5-.4-.5-.5-1-.5-1.6v-4.6h-1v-.4l1-.3.4-1.6h.4v1.7h2v.5h-2.1v4.5c0,.5,0,.8.3,1.2.2,0,.5.2.9.2Z"/>
      <path class="st9" d="M209,31.1v-4.6c0-.5,0-1.1-.4-1.5-.3-.4-.7-.5-1.2-.5-.6,0-1.2.2-1.6.5-.4.5-.5,1.2-.5,1.8v4.1h-.6v-4.7c0-1.2-.5-1.7-1.6-1.7-.6,0-1.2.2-1.6.6-.4.5-.5,1.1-.5,2v3.8h-.6v-7h.5v.9h0c.2-.4.5-.6.8-.8.4-.2.7-.3,1.2-.3,1.1,0,1.8.5,2.1,1.3h0c.2-.4.5-.7.9-.9s.8-.4,1.3-.4c.6,0,1.3.2,1.7.6.4.4.5,1.1.5,1.9v4.6h-.5Z"/>
      <path class="st9" d="M215,31.1c-.9,0-1.7-.3-2.4-.9-.6-.7-.9-1.6-.8-2.6,0-1,.3-1.9.8-2.6.5-.6,1.4-1,2.2-1s1.5.3,1.9.8c.5.6.7,1.5.7,2.4v.5h-5c0,.8.2,1.6.6,2.2.5.5,1.2.8,1.9.7.4,0,.7,0,1,0,.4,0,.8-.2,1.2-.4v.5c-.4.2-.7.3-1.1.4-.4,0-.7,0-1.1,0ZM214.8,24.5c-.6,0-1.2.2-1.6.6-.5.5-.7,1.2-.7,1.9h4.3c0-.6-.2-1.4-.5-1.9-.3-.5-.8-.6-1.4-.6Z"/>
      <path class="st9" d="M224.5,31.1v-4.6c0-.5,0-1.1-.5-1.6-.4-.4-.9-.5-1.4-.5-.6,0-1.4.2-1.8.6-.4.5-.5,1.1-.5,2v3.9h-.6v-6.9h.5v.9h0c.5-.7,1.3-1.1,2.5-1.1s2.4.8,2.4,2.6v4.6h-.6Z"/>
      <path class="st9" d="M229.5,30.6c.4,0,.7,0,1.1,0v.5c-.4,0-.7.2-1.1.2-.5,0-1-.2-1.4-.5-.4-.5-.5-1-.5-1.6v-4.6h-1.1v-.4l1-.3.4-1.6h.4v1.7h2v.5h-2v4.5c0,.5,0,.8.3,1.2.2,0,.5.2.9.2Z"/>
      <g id="Group-7">
        <g id="Group-3">
          <path id="Fill-1" class="st15" d="M32.5,13.7h-2.6c-1.2,0-2.2,1-2.2,2.2s1,2.2,2.2,2.2h1.6c3.4,0,5.8,2,5.8,5.7s-2.7,5.7-5.8,5.7h-1.5c-1.2,0-2.2,1-2.3,2.2h0c0,1.2,1,2.2,2.3,2.2h2.6c5.7,0,10.4-4.4,10.4-10s-4.8-10-10.5-10"/>
        </g>
        <g id="Group-6">
          <path id="Fill-4" class="st14" d="M28.2,5.6h2.6c1.3,0,2.3,1,2.3,2.2h0c0,1.3-1,2.2-2.3,2.2h-1.6c-3.4,0-5.8,2-5.8,5.7s2.7,5.7,5.8,5.7h1.6c1.3,0,2.3,1,2.3,2.2h0c0,1.3-1,2.2-2.3,2.2h-2.6c-5.7,0-10.4-4.4-10.4-10s4.7-10,10.4-10"/>
        </g>
      </g>
    </g>
  </g>
  <g>
    <polygon class="st16" points="116.3 34.9 76.8 69.8 93.1 118.4 144.2 135.8 178.2 99.4 169.6 47.6 116.3 34.9"/>
    <polygon class="st7" points="78.7 96.7 106.3 79.9 146.5 85.6 170.6 115.9 144.5 140.9 92.6 131.9 78.7 96.7"/>
    <g>
      <polygon class="st0" points="129.7 46.5 109.3 119.7 178.2 99.4 129.7 46.5"/>
      <polygon class="st5" points="129.7 46.5 178.2 99.4 169.6 47.6 129.7 46.5"/>
      <polygon class="st4" points="129.7 46.5 169.6 47.6 116.3 34.9 129.7 46.5"/>
      <polygon class="st4" points="129.7 46.5 76.8 69.8 109.3 119.7 129.7 46.5"/>
      <polygon class="st6" points="129.7 46.5 116.3 34.9 76.8 69.8 129.7 46.5"/>
      <polygon class="st1" points="76.8 69.8 93.1 118.4 109.3 119.7 76.8 69.8"/>
      <polygon class="st6" points="109.3 119.7 144.2 135.8 178.2 99.4 109.3 119.7"/>
      <polygon class="st2" points="93.1 118.4 144.2 135.8 109.3 119.7 93.1 118.4"/>
    </g>
    <g>
      <polyline class="st13" points="169.6 47.6 154.8 73.9 109.3 119.7"/>
      <polyline class="st13" points="169.6 47.6 146.8 65.1 119.6 83.5 97 100.9 93.1 118.4"/>
      <polyline class="st13" points="93.1 118.4 91.5 92.3 129.7 46.5"/>
      <polyline class="st13" points="76.8 69.8 122 39.8 169.6 47.6"/>
      <line class="st13" x1="93.1" y1="118.4" x2="109.3" y2="119.7"/>
      <line class="st13" x1="109.3" y1="119.7" x2="178.2" y2="99.4"/>
      <line class="st13" x1="109.3" y1="119.7" x2="144.2" y2="135.8"/>
      <line class="st13" x1="76.8" y1="69.8" x2="129.7" y2="46.5"/>
      <line class="st13" x1="129.7" y1="46.5" x2="169.6" y2="47.6"/>
      <polygon class="st11" points="116.3 34.9 76.8 69.8 93.1 118.4 144.2 135.8 178.2 99.4 169.6 47.6 116.3 34.9"/>
    </g>
    <polygon class="st10" points="116.3 34.9 76.8 69.8 93.1 118.4 144.2 135.8 178.2 99.4 169.6 47.6 116.3 34.9"/>
    <line class="st12" x1="129.7" y1="46.5" x2="178.2" y2="99.4"/>
    <line class="st12" x1="109.3" y1="119.7" x2="129.7" y2="46.5"/>
    <line class="st12" x1="129.7" y1="46.5" x2="116.3" y2="34.9"/>
    <line class="st12" x1="129.7" y1="46.5" x2="76.8" y2="69.8"/>
    <line class="st12" x1="109.3" y1="119.7" x2="76.8" y2="69.8"/>
    <line class="st12" x1="109.3" y1="119.7" x2="144.2" y2="135.8"/>
    <line class="st12" x1="109.3" y1="119.7" x2="178.2" y2="99.4"/>
    <line class="st12" x1="129.7" y1="46.5" x2="169.6" y2="47.6"/>
    <polygon class="st3" points="93.1 118.4 97 100.9 119.6 83.5 146.8 65.1 169.6 47.6 129.7 46.5 91.5 92.3 93.1 118.4"/>
  </g>
</svg>