<?xml version="1.0" encoding="utf-8"?>
<!-- Generator: Adobe Illustrator 15.1.0, SVG Export Plug-In . SVG Version: 6.00 Build 0)  -->
<!DOCTYPE svg PUBLIC "-//W3C//DTD SVG 1.1//EN" "http://www.w3.org/Graphics/SVG/1.1/DTD/svg11.dtd">
<svg version="1.1" id="Layer_1" xmlns="http://www.w3.org/2000/svg" xmlns:xlink="http://www.w3.org/1999/xlink" x="0px" y="0px"
	 width="170px" height="220px" viewBox="0 0 170 220" enable-background="new 0 0 170 220" xml:space="preserve">
<polygon fill="#9F509F" points="2.653,8.371 15.65,171.354 121.378,191.023 156.854,3.22 "/>
<polyline opacity="0.2" fill="#231F20" enable-background="new    " points="100.314,5.111 56.86,179.008 129.344,192.001 
	134.262,3.22 "/>
<polygon fill="none" stroke="#231F20" stroke-linejoin="round" stroke-miterlimit="10" points="2.716,8.371 15.713,171.354 
	121.439,191.023 156.917,3.22 "/>
<polygon fill="#9F509F" points="156.68,3.848 102.059,10.478 106.625,217.132 155.801,196.292 "/>
<polyline opacity="0.2" fill="#231F20" enable-background="new    " points="102.074,11.179 144.083,45.333 156.537,34.833 
	159.064,45.333 136.941,66.486 "/>
<polygon fill="none" stroke="#231F20" stroke-linejoin="round" stroke-miterlimit="10" points="156.652,3.848 102.034,10.478 
	106.602,217.132 155.775,196.292 "/>
<polyline fill="#9F509F" stroke="#231F20" stroke-miterlimit="10" points="142.333,53.879 165.874,29.253 150.667,65.167 
	138.167,62.271 "/>
<polyline fill="#9F509F" stroke="#231F20" stroke-miterlimit="10" points="101.834,10.636 151.667,59.461 135.314,97.122 "/>
<polygon fill="#FFFFFF" points="101.945,10.636 79.817,87.913 85.086,113.906 128.993,113.906 134.262,83.698 "/>
<path fill="#EAEAEA" d="M104.359,62.271c0.365,37.542-22.276,48.22-22.276,48.22l50.25-7.157l2.981-10.092
	C135.314,93.241,109.749,106.395,104.359,62.271z"/>
<polygon fill="none" stroke="#231F20" stroke-linejoin="round" stroke-miterlimit="10" points="101.834,10.636 79.705,87.913 
	84.974,113.906 128.88,113.906 134.148,83.698 "/>
<polygon fill="#EAEAEA" stroke="#231F20" stroke-linejoin="round" stroke-miterlimit="10" points="85.086,106.529 106.863,86.859 
	129.344,104.421 118.455,129.712 "/>
<polygon fill="#FFFFFF" stroke="#231F20" stroke-linejoin="round" stroke-miterlimit="10" points="118.104,109.67 165.874,29.253 
	135.314,123.039 114.591,123.039 "/>
<path fill="#EAEAEA" d="M123.007,102.404c0,0,7.4,6.008,11.91,7.013c4.511,1.005,0.082,9.5,0.082,9.5l-11.992-7.667"/>
<polygon fill="#FFFFFF" points="54.263,66.486 28.667,84.751 64.713,72.809 "/>
<polyline fill="#EAEAEA" points="54.263,66.486 54.263,75.992 59.458,73.755 56.59,66.486 "/>
<polygon fill="none" stroke="#231F20" stroke-linecap="round" stroke-linejoin="round" stroke-miterlimit="10" points="
	54.263,66.486 28.667,84.751 64.713,72.809 "/>
<polygon fill="#FFFFFF" stroke="#231F20" stroke-linejoin="round" stroke-miterlimit="10" points="93.518,112.5 64.01,69.999 
	54.526,66.486 79.114,129.712 "/>
<polygon fill="#FFFFFF" stroke="#231F20" stroke-linejoin="round" stroke-miterlimit="10" points="79.114,116.014 106.863,86.859 
	135.314,114.257 116.348,142.005 "/>
<path fill="#EAEAEA" d="M107.039,108.286c-15.068,7.325-26.706,9.298-26.706,9.298l34.258,17l19.671-19.293
	C134.262,115.291,123.958,113.083,107.039,108.286z"/>
<polygon fill="#FFFFFF" stroke="#231F20" stroke-linejoin="round" stroke-miterlimit="10" points="79.114,116.014 135.314,114.257 
	139.529,131.82 112.482,207.691 74.548,132.873 "/>
<line fill="none" stroke="#231F20" stroke-width="0.5" stroke-linecap="round" stroke-linejoin="round" stroke-miterlimit="10" x1="107.215" y1="118.917" x2="111.548" y2="192.001"/>
<line fill="none" stroke="#231F20" stroke-width="0.5" stroke-linecap="round" stroke-linejoin="round" stroke-miterlimit="10" x1="105.927" y1="84.751" x2="102.059" y2="29.253"/>
<line fill="none" stroke="#231F20" stroke-width="0.5" stroke-linecap="round" stroke-miterlimit="10" x1="106.54" y1="91.333" x2="107.039" y2="111.75"/>
</svg>
