<?xml version="1.0" encoding="utf-8"?>
<!-- Generator: Adobe Illustrator 25.3.1, SVG Export Plug-In . SVG Version: 6.00 Build 0)  -->
<svg version="1.1" id="Layer_1" xmlns="http://www.w3.org/2000/svg" xmlns:xlink="http://www.w3.org/1999/xlink" x="0px" y="0px"
	 viewBox="0 0 427.7 107.7" style="enable-background:new 0 0 427.7 107.7;" xml:space="preserve">
<style type="text/css">
	.st0{fill:none;stroke:#4B75B9;stroke-linecap:round;stroke-linejoin:round;stroke-miterlimit:10;}
	.st1{fill:none;stroke:#000000;stroke-linecap:round;stroke-linejoin:round;stroke-miterlimit:10;}
	.st2{fill:none;stroke:#3A3A3A;stroke-linecap:round;stroke-linejoin:round;stroke-miterlimit:10;}
	.st3{fill:none;stroke:#000000;stroke-linecap:round;stroke-miterlimit:10;}
</style>
<g>
	<g>
		<g>
			
				<rect x="35" y="35" transform="matrix(0.7071 -0.7071 0.7071 0.7071 -22.3016 53.8409)" class="st0" width="37.7" height="37.7"/>
			<line class="st0" x1="67.2" y1="67.2" x2="53.8" y2="53.8"/>
			<line class="st0" x1="67.2" y1="93.8" x2="53.8" y2="80.5"/>
			<line class="st0" x1="122.8" y1="38.2" x2="85.1" y2="0.5"/>
			<line class="st0" x1="138.4" y1="53.8" x2="160.6" y2="0.5"/>
			<line class="st0" x1="138.4" y1="53.8" x2="107.2" y2="53.8"/>
			<line class="st0" x1="138.4" y1="53.8" x2="160.6" y2="107.2"/>
			<line class="st0" x1="107.2" y1="107.2" x2="80.5" y2="80.5"/>
			<line class="st0" x1="133.9" y1="107.2" x2="93.8" y2="67.2"/>
			<line class="st0" x1="109.5" y1="24.9" x2="93.8" y2="40.5"/>
			<line class="st0" x1="136.1" y1="51.5" x2="141.4" y2="46.1"/>
			<line class="st0" x1="141.4" y1="61.2" x2="133.9" y2="53.7"/>
			<line class="st0" x1="67.2" y1="40.5" x2="53.8" y2="53.8"/>
			<line class="st0" x1="96.1" y1="11.6" x2="80.5" y2="27.2"/>
			<line class="st0" x1="53.8" y1="0.5" x2="53.8" y2="27.2"/>
			<line class="st0" x1="189.4" y1="0.5" x2="189.4" y2="107.2"/>
			<line class="st0" x1="283.8" y1="0.5" x2="283.8" y2="107.2"/>
			<line class="st0" x1="320.5" y1="0.5" x2="320.5" y2="107.2"/>
			<line class="st0" x1="402.8" y1="82.7" x2="412.8" y2="92.8"/>
			<line class="st0" x1="107.2" y1="53.8" x2="80.5" y2="53.8"/>
			<line class="st0" x1="27.2" y1="53.8" x2="0.5" y2="53.8"/>
			<line class="st0" x1="53.8" y1="80.5" x2="53.8" y2="107.2"/>
			<path class="st0" d="M344.7,107.2"/>
			<path class="st0" d="M344.7,0.5"/>
			<line class="st0" x1="320.5" y1="0.5" x2="378.3" y2="24.5"/>
			<line class="st0" x1="378.3" y1="24.5" x2="416.1" y2="24.5"/>
			<line class="st0" x1="344.5" y1="58.3" x2="378.3" y2="58.3"/>
			<line class="st0" x1="378.3" y1="107.2" x2="427.2" y2="58.3"/>
			<line class="st0" x1="344.7" y1="96.1" x2="355.8" y2="107.2"/>
			<line class="st0" x1="389.4" y1="96.1" x2="389.4" y2="102.6"/>
			<line class="st0" x1="416.1" y1="24.8" x2="427.2" y2="35.9"/>
			<line class="st0" x1="416.1" y1="69.5" x2="422.6" y2="69.5"/>
			<line class="st0" x1="368.7" y1="48.6" x2="378.3" y2="24.5"/>
		</g>
		<g>
			
				<rect x="16.1" y="16.1" transform="matrix(0.7071 -0.7071 0.7071 0.7071 -22.3016 53.8409)" class="st1" width="75.4" height="75.4"/>
			<polyline class="st1" points="160.5,107.2 107.2,53.8 160.5,0.5 			"/>
			<line class="st2" x1="27.2" y1="107.2" x2="0.5" y2="80.5"/>
			<line class="st1" x1="80.5" y1="107.2" x2="67.2" y2="93.8"/>
			<line class="st1" x1="138.4" y1="53.8" x2="122.8" y2="38.2"/>
			<line class="st1" x1="27.2" y1="107.2" x2="53.8" y2="80.5"/>
			<line class="st1" x1="320.5" y1="0.5" x2="344.5" y2="58.3"/>
			<line class="st1" x1="80.5" y1="80.5" x2="67.2" y2="67.2"/>
			<line class="st1" x1="93.8" y1="67.2" x2="80.5" y2="53.8"/>
			<line class="st1" x1="93.8" y1="40.5" x2="80.5" y2="53.8"/>
			<line class="st1" x1="133.9" y1="0.5" x2="109.5" y2="24.9"/>
			<line class="st1" x1="133.9" y1="53.7" x2="136.1" y2="51.5"/>
			<line class="st1" x1="141.4" y1="61.2" x2="141.4" y2="46.1"/>
			<line class="st1" x1="80.5" y1="27.2" x2="67.2" y2="40.5"/>
			<line class="st1" x1="53.8" y1="27.2" x2="53.8" y2="80.5"/>
			<line class="st1" x1="160.5" y1="0.5" x2="160.5" y2="107.2"/>
			<line class="st1" x1="412.8" y1="92.8" x2="427.2" y2="107.2"/>
			<line class="st1" x1="320.5" y1="0.5" x2="402.8" y2="82.7"/>
			<line class="st1" x1="80.5" y1="53.8" x2="27.2" y2="53.8"/>
			<line class="st1" x1="344.5" y1="58.3" x2="344.5" y2="96.1"/>
			<polyline class="st1" points="378.3,107.2 412.7,92.9 427.2,58.3 			"/>
			<line class="st1" x1="378.3" y1="24.5" x2="378.3" y2="58.3"/>
			<line class="st1" x1="344.5" y1="96.1" x2="389.4" y2="96.1"/>
			<line class="st1" x1="333.6" y1="107.2" x2="344.7" y2="96.1"/>
			<line class="st1" x1="394" y1="107.2" x2="389.4" y2="102.6"/>
			<line class="st1" x1="416.1" y1="24.6" x2="416.1" y2="69.5"/>
			<line class="st1" x1="427.2" y1="13.7" x2="416.1" y2="24.8"/>
			<line class="st1" x1="107.2" y1="0.5" x2="96.1" y2="11.6"/>
			<line class="st1" x1="427.2" y1="74.1" x2="422.6" y2="69.5"/>
			<line class="st1" x1="344.5" y1="58.3" x2="368.7" y2="48.6"/>
		</g>
	</g>
	<rect x="0.5" y="0.5" class="st3" width="426.7" height="106.7"/>
</g>
</svg>
