<?xml version="1.0" encoding="utf-8"?>
<!-- Generator: Adobe Illustrator 15.1.0, SVG Export Plug-In . SVG Version: 6.00 Build 0)  -->
<!DOCTYPE svg PUBLIC "-//W3C//DTD SVG 1.1//EN" "http://www.w3.org/Graphics/SVG/1.1/DTD/svg11.dtd">
<svg version="1.1" id="Layer_1" xmlns="http://www.w3.org/2000/svg" xmlns:xlink="http://www.w3.org/1999/xlink" x="0px" y="0px"
	 width="202px" height="168px" viewBox="0 0 202 168" enable-background="new 0 0 202 168" xml:space="preserve">
<g>
	<path fill="#9F509F" stroke="#000000" stroke-linecap="round" stroke-linejoin="round" d="M141.378,109.645
		c8.026,4.15,21.593,17.994,25.19,22.563l2.354-1.106l-2.216-42.354l-8.721-0.694L142.9,97.604"/>
	<path fill="#FFFFFF" stroke="#000000" stroke-linecap="round" stroke-linejoin="round" d="M60.609,46.94
		c0,0,2.214-4.153,1.661-6.644c-0.554-2.492-6.09-6.643-6.09-6.643s0.83-2.491,5.259-13.289c4.43-10.797,6.09-15.503,6.09-15.503
		l7.476,6.366l-2.215,0.831l3.875,3.876l-1.385,1.107l7.476,2.77c0,0-0.275,3.597,1.661,4.428c1.938,0.831,20.485,7.75,20.485,7.75
		l-3.045,9.69"/>
	<path fill="#FFFFFF" stroke="#000000" stroke-linecap="round" stroke-linejoin="round" d="M58.395,27.563
		c5.26-5.814,11.351-12.734,12.735-15.504"/>
	<path fill="#FFFFFF" stroke="#000000" stroke-linecap="round" stroke-linejoin="round" d="M74.174,17.319
		c-1.107,3.322-9.136,9.412-14.949,12.458"/>
	
		<line fill="none" stroke="#000000" stroke-linecap="round" stroke-linejoin="round" x1="57.841" y1="30.884" x2="81.096" y2="20.642"/>
	
		<line fill="none" stroke="#000000" stroke-linecap="round" stroke-linejoin="round" x1="57.011" y1="32.821" x2="93.552" y2="28.947"/>
	<path fill="none" stroke="#000000" stroke-linecap="round" stroke-linejoin="round" d="M58.948,34.204c0,0,8.581,1.109,8.306,3.048
		c-0.276,1.937-4.431,8.58-4.431,8.58"/>
	
		<line fill="none" stroke="#000000" stroke-linecap="round" stroke-linejoin="round" x1="64.484" y1="45.002" x2="91.616" y2="32.821"/>
	<polyline fill="#9F509F" points="172.729,63.55 179.37,56.491 169.82,54.415 165.669,58.705 	"/>
	<polyline fill="#9F509F" points="189.477,56.63 188.922,60.367 181.727,58.705 179.926,57.045 	"/>
	<path fill="#9F509F" stroke="#000000" stroke-linecap="round" stroke-linejoin="round" d="M188.922,58.843
		c0.277-1.937,1.385-15.639,1.107-17.578c-0.277-1.938-12.182-3.6-14.672-3.321c-2.491,0.277-5.951,6.505-5.951,6.505l-8.443,6.921
		l-3.186,3.46"/>
	<path opacity="0.2" fill="#231F20" enable-background="new    " d="M169.128,47.216c0,0,2.769-6.367,5.537-7.75
		c2.771-1.385-2.215,3.598-1.106,14.67c1.106,11.075-9.414,4.154-9.414,4.154"/>
	<path fill="#9F509F" stroke="#000000" stroke-linecap="round" stroke-linejoin="round" d="M50.643,54.553
		c0,0-4.429-6.09-8.72-6.368c-4.292-0.275-13.98,18.271-16.888,19.656c-2.906,1.384-2.215,4.981,2.354,3.321
		c1.901-0.692,5.813-2.663,8.307-6.09c3.49-4.802,5.972-10.76,7.75-10.521c3.045,0.416,3.875,2.492,3.875,2.492"/>
	<path fill="#9F509F" stroke="#000000" stroke-linecap="round" stroke-linejoin="round" d="M73.345,113.104
		c-3.738,0.277-10.937,17.164-12.735,15.643c-1.8-1.521-0.692-25.189-0.692-25.189L72.651,89.71l8.859,16.334"/>
	<path opacity="0.2" fill="#231F20" enable-background="new    " d="M72.513,110.751c-1.938-0.14-9.55,14.672-10.242,14.396
		c-0.692-0.275,5.399-18.549,5.399-18.549l4.981-2.768"/>
	<path opacity="0.2" fill="#231F20" enable-background="new    " d="M141.029,109.645c8.027,4.15,21.593,17.994,25.191,22.563
		l2.354-1.106l-2.217-42.354l-8.721-0.694l-15.087,9.553"/>
	<path fill="#9F509F" stroke="#000000" stroke-linecap="round" stroke-linejoin="round" d="M160.27,33.099
		c0,0,3.047-1.247,4.432,0.276c1.386,1.524,5.783,15.024,10.521,31.006c1.107,3.737-1.078,11.747,0.274,21.314
		c2.215,15.643,0.979,38.515-1.938,48.726c-1.106,3.874-2.631,3.599-5.26,0.554c-3.664-4.244-6.367-27.822-11.352-33.772
		c-6.365,5.261-31.975,14.946-37.372,16.333c-3.601,5.951-26.578,42.633-26.578,42.633l-3.875,1.66c0,0-2.629,0-3.599-2.49
		c-0.276-8.998-1.659-40.973-18.825-54.398c-1.384,0.277-2.629,0.691-2.629,0.691l-1.106-1.938c0,0,2.352,0.83-3.046-0.139
		c-5.398-0.97-5.536-4.707-1.522-11.212c-2.906,0.554-9.136,11.903-13.012,13.564c0,0-6.227,3.6-11.903-0.831
		c-5.675-4.432-10.755,0.113-13.011-2.215c-4.153-4.291-12.597-2.905-13.565-4.706c-0.969-1.8-1.8-6.229,0.415-7.062
		c2.214-0.83,10.105-1.938,10.105-1.938l0.415,1.662l2.075-1.385l1.107,0.555l3.184-2.49l2.077,0.967c0,0,7.197-26.852,9.273-28.236
		c2.075-1.386,8.443-4.429,10.658-3.876c2.214,0.554,9.135-8.167,14.396-9.274c5.26-1.108,75.982-22.954,89.693-18.548
		c3.878,1.247,3.185,3.046,5.537,4.708C157.461,34.379,160.27,33.099,160.27,33.099z"/>
	<path opacity="0.2" fill="#231F20" enable-background="new    " d="M164.145,46.109l2.771-6.09c0,0-4.707-7.474-7.477-6.366
		c-2.769,1.107-13.842,22.699-14.396,29.344"/>
	<path opacity="0.2" fill="#231F20" enable-background="new    " d="M140.338,69.226l-1.245,0.692l-30.729-28.376l0.972-0.969
		c0,0,11.349,8.167,17.438,13.563L140.338,69.226z"/>
	<path fill="none" stroke="#000000" stroke-linecap="round" stroke-linejoin="round" d="M17.978,91.51c0,0,1.106,3.876,2.214,6.23"
		/>
	<path fill="none" stroke="#000000" stroke-linecap="round" stroke-linejoin="round" d="M21.438,90.818c0,0,1.107,5.813,3.045,7.752
		"/>
	<path fill="none" stroke="#000000" stroke-linecap="round" stroke-linejoin="round" d="M26.56,89.02c0,0,5.536,7.752,8.996,9.551"
		/>
	<path fill="none" stroke="#000000" stroke-linecap="round" stroke-linejoin="round" d="M24.205,88.465
		c0,0,3.876,8.996,6.645,11.352"/>
	<path fill="none" stroke="#000000" stroke-linecap="round" stroke-linejoin="round" d="M66.839,52.339l-15.642,4.566
		c0,0-3.6-0.83-5.123,1.107c-1.521,1.938-4.013,12.043-6.228,15.642C37.63,77.252,28.773,91.371,32.51,93.17
		c3.737,1.8,20.902-16.472,22.978-15.363c2.075,1.106,6.782,6.229,6.229,8.582c-0.554,2.354-5.536,13.842-1.8,15.918"/>
	<path opacity="0.2" fill="#231F20" enable-background="new    " d="M60.056,100.785c0,0,0.692-6.784,3.183-14.813
		c0.718-2.31-6.228-8.857-8.027-9.136c-1.798-0.276-20.07,16.196-21.178,14.812c-1.108-1.385,16.194-17.44,18.964-17.44
		c2.767,0,12.872,7.337,13.01,10.796c0.14,3.461-4.013,14.673-2.769,16.196C64.484,102.723,60.056,100.785,60.056,100.785z"/>
	<path fill="none" stroke="#000000" stroke-linecap="round" stroke-linejoin="round" d="M66.284,104.245
		c-1.384-0.415,52.46-41.386,58.967-47.615"/>
	<path fill="#9F509F" stroke="#000000" stroke-linecap="round" stroke-linejoin="round" d="M104.211,41.957
		c0,0,3.737-1.522,4.706-1.107c0.97,0.415,30.868,28.099,31.146,29.068l-0.556,0.691"/>
	<path fill="#9F509F" stroke="#000000" stroke-linecap="round" stroke-linejoin="round" d="M92.169,158.643h-1.247
		c0,0,33.357-60.35,34.188-61.316c0.834-0.971,13.567-27.13,16.336-26.715"/>
	<path fill="none" stroke="#000000" stroke-linecap="round" stroke-linejoin="round" d="M111.132,40.157
		c0,0,37.927-10.935,38.618-10.38c0.691,0.553-24.775,24.084-24.775,24.084"/>
	<path fill="#9F509F" stroke="#000000" stroke-linecap="round" stroke-linejoin="round" d="M141.029,68.118
		c0.416,0,17.718-33.774,19.379-33.635c1.66,0.138,7.475,8.721,7.475,8.721"/>
	<path opacity="0.2" fill="#231F20" enable-background="new    " d="M161.102,70.304c1.66,1.884,0.774,24.03,0.442,25.36
		c-0.333,1.327-13.287,10.188-16.942,9.743c5.092-5.537,10.853-17.052,11.627-19.269c0.774-2.216,4.207-15.283,4.207-15.283
		L161.102,70.304z"/>
	
		<line fill="none" stroke="#000000" stroke-linecap="round" stroke-linejoin="round" x1="156.947" y1="101.2" x2="160.27" y2="98.846"/>
	<path fill="none" stroke="#000000" stroke-linecap="round" stroke-linejoin="round" d="M161.652,106.874
		c0,0,0.97-33.912-0.553-36.403"/>
	<path fill="none" stroke="#000000" stroke-linecap="round" stroke-linejoin="round" d="M160.27,71.856
		c0,0-2.629,14.533-5.119,15.778"/>
	<path fill="#9F509F" stroke="#000000" stroke-linecap="round" stroke-linejoin="round" d="M174.941,61.336
		c0,0,11.074-10.797,12.457-13.288c1.386-2.493,1.105-4.568,1.105-4.568"/>
	<path fill="#9F509F" stroke="#000000" stroke-linecap="round" stroke-linejoin="round" d="M179.512,57.321
		c0,0,2.629,4.706,4.844,5.676c2.215,0.969,6.092-0.692,6.504-2.63c0.416-1.938,0.141-3.184,0.141-3.184s-0.83,2.353-2.492,2.629
		c-1.658,0.277-3.875-0.414-3.875-0.414"/>
	<path fill="none" stroke="#000000" stroke-linecap="round" stroke-linejoin="round" d="M65.869,84.313
		c0,0-8.721-11.211-12.872-10.104c-4.153,1.106-19.656,15.918-18.687,16.75"/>
	<polyline fill="#FFFFFF" stroke="#000000" stroke-linecap="round" stroke-linejoin="round" points="62.271,51.924 69.745,54.415 
		70.022,58.013 72.513,59.951 99.644,42.787 101.581,37.805 99.09,36.145 	"/>
	<polyline fill="#FFFFFF" stroke="#000000" stroke-linecap="round" stroke-linejoin="round" points="72.237,53.861 88.847,36.145 
		99.366,37.252 99.366,39.466 	"/>
	<polyline fill="#FFFFFF" stroke="#000000" stroke-linecap="round" stroke-linejoin="round" points="72.513,52.2 80.817,40.296 
		85.247,39.466 	"/>
</g>
</svg>
