<?xml version="1.0" encoding="utf-8"?>
<!-- Generator: Adobe Illustrator 15.1.0, SVG Export Plug-In . SVG Version: 6.00 Build 0)  -->
<!DOCTYPE svg PUBLIC "-//W3C//DTD SVG 1.1//EN" "http://www.w3.org/Graphics/SVG/1.1/DTD/svg11.dtd">
<svg version="1.1" id="Layer_1" xmlns="http://www.w3.org/2000/svg" xmlns:xlink="http://www.w3.org/1999/xlink" x="0px" y="0px"
	 width="153.506px" height="184.482px" viewBox="0 0 153.506 184.482" enable-background="new 0 0 153.506 184.482"
	 xml:space="preserve">
<g id="Layer_1_1_">
</g>
<g id="Layer_2">
</g>
<polygon fill="#9F509F" stroke="#231F20" stroke-width="0.5" stroke-miterlimit="10" points="95.685,162.57 22.935,153.07 
	13.685,17.57 102.935,12.07 "/>
<polyline opacity="0.2" fill="#231F20" enable-background="new    " points="99.733,12.268 52.39,156.917 106.103,164.07 "/>
<polygon fill="none" stroke="#231F20" stroke-width="0.5" stroke-miterlimit="10" points="95.603,162.57 22.852,153.07 
	13.602,17.57 102.853,12.07 "/>
<polygon fill="#9F509F" stroke="#231F20" stroke-width="0.5" stroke-miterlimit="10" points="142.435,11.07 99.935,8.07 
	91.685,179.32 134.685,165.82 "/>
<polygon fill="#FFFFFF" stroke="#231F20" stroke-width="0.5" stroke-linejoin="round" stroke-miterlimit="10" points="
	91.56,179.695 112.935,99.57 93.56,98.445 "/>
<polygon fill="#DFDFDF" points="93.56,101.57 93.456,106.508 112.04,102.154 112.935,100.945 "/>
<polygon fill="none" stroke="#231F20" stroke-width="0.5" stroke-linejoin="round" stroke-miterlimit="10" points="91.56,179.695 
	112.935,99.57 93.56,98.445 "/>
<path fill="#FFFFFF" stroke="#231F20" stroke-width="0.5" stroke-linejoin="round" stroke-miterlimit="10" d="M113.478,101.862
	c0,0-32.375,1.25-33.834,1.75c-1.457,0.5-6.125-8.583-6.125-8.583L95.353,83.57l19.832,8.333L113.478,101.862z"/>
<path fill="#DFDFDF" d="M74.644,96.1c0,0,20.792-6.904,21.875-6.904c1.084,0,18.043,4.599,18.043,4.599L98.019,81.362L73.185,93.794
	L74.644,96.1z"/>
<polygon fill="#FFFFFF" points="95.769,85.862 115.269,93.794 116.435,86.654 110.56,79.654 "/>
<path fill="#DFDFDF" d="M96.435,85.716c0.084,0.042,3.282,1.752,3.282,1.752l12.552-5.543l-1.875-2.438L96.435,85.716z"/>
<polygon fill="none" stroke="#231F20" stroke-width="0.5" stroke-linejoin="round" stroke-miterlimit="10" points="95.769,85.799 
	115.269,93.731 116.435,86.591 110.56,79.591 "/>
<path fill="#FFFFFF" stroke="#231F20" stroke-width="0.5" stroke-linejoin="round" stroke-miterlimit="10" d="M76.644,54.529
	c0,0-0.458-1.083-1.083-1.125s-15.625,9.5-16.25,10.25s-0.708,10.083-0.708,10.083l14.917-2.375L76.644,54.529z"/>
<polygon fill="#DFDFDF" points="58.831,73.716 60.029,73.544 59.542,63.793 58.602,64.108 "/>
<polygon fill="#DFDFDF" points="67.731,72.284 71.269,71.487 75.56,53.404 74.56,54.185 "/>
<path fill="none" stroke="#231F20" stroke-width="0.5" stroke-linejoin="round" stroke-miterlimit="10" d="M76.644,54.529
	c0,0-0.458-1.083-1.083-1.125s-15.625,9.5-16.25,10.25s-0.708,10.083-0.708,10.083l14.917-2.375L76.644,54.529z"/>
<path fill="#FFFFFF" stroke="#231F20" stroke-width="0.5" stroke-linejoin="round" stroke-miterlimit="10" d="M72.06,92.362
	l-4.792-6c0,0,1.388-10.045,3.083-15.833c2.443-8.341,5.208-17.208,5.208-17.208l12.792,13.833l0.625,5.875L72.06,92.362z"/>
<path fill="#FFFFFF" stroke="#231F20" stroke-width="0.5" stroke-linejoin="round" stroke-miterlimit="10" d="M70.498,91.758
	c0,0,1.39,3.789,2.625,4.25c2.03,0.759,7.956-3.315,16.896-6.896c17.584-7.042,57.168-20.854,57.168-20.854l-7.188-1.688
	l-45.563-1.125L70.498,91.758z"/>
<path fill="#FFFFFF" stroke="#231F20" stroke-width="0.5" stroke-linejoin="round" stroke-miterlimit="10" d="M58.227,79.362
	c0.125,0.083,5.625,2.167,5.625,2.167l-5.25,1.167L58.227,79.362z"/>
<polygon fill="#DFDFDF" points="58.561,82.695 59.759,82.523 59.039,79.883 58.664,79.591 "/>
<path fill="none" stroke="#231F20" stroke-width="0.5" stroke-linejoin="round" stroke-miterlimit="10" d="M58.227,79.362
	c0.125,0.083,5.625,2.167,5.625,2.167l-5.25,1.167L58.227,79.362z"/>
<path fill="#FFFFFF" stroke="#231F20" stroke-width="0.5" stroke-linejoin="round" stroke-miterlimit="10" d="M59.31,63.362
	l-0.708,19.333c0,0-2.75-2.208-3.208-3.042S54.56,69.112,54.935,68.32S59.31,63.362,59.31,63.362z"/>
</svg>
