<?xml version="1.0" encoding="UTF-8"?>
<svg id="Layer_2" data-name="Layer 2" xmlns="http://www.w3.org/2000/svg" width="171.44" height="172.85" xmlns:xlink="http://www.w3.org/1999/xlink" viewBox="0 0 171.44 172.85">
  <defs>
    <linearGradient id="linear-gradient" x1="171.44" y1="98.82" x2="12.23" y2="98.82" gradientUnits="userSpaceOnUse">
      <stop offset="0" stop-color="#231f20" stop-opacity="0"/>
      <stop offset="1" stop-color="#000"/>
    </linearGradient>
  </defs>
  <polygon points="78.94 172.35 159.21 125.42 171.44 103.37 164.86 86.5 77.67 25.29 12.23 96.54 78.94 172.35" fill="url(#linear-gradient)" opacity=".25" stroke-width="0"/>
  <polygon points="127.84 90.61 130.87 48.52 77.67 25.29 52.71 37.69 52.71 75.17 121.99 135.52 127.84 90.61" fill="#fff" stroke="#000" stroke-linejoin="round"/>
  <polygon points="127.84 90.61 130.87 48.52 77.67 25.29 52.71 37.69 52.71 75.17 121.99 135.52 127.84 90.61" fill="#010101" opacity=".08" stroke-width="0"/>
  <polygon points="52.71 75.17 59.71 67.11 61.64 46.26 55.68 45 52.71 75.17" fill="#010101" opacity=".08" stroke-width="0"/>
  <polygon points="121.99 135.52 52.71 75.17 12.23 96.54 78.94 172.35 121.99 135.52" fill="#fff" stroke="#000" stroke-linejoin="round"/>
  <path d="M.5,63.09c2.33-6.31,30.31-22.81,52.21-25.4v37.48l-40.48,21.37L.5,63.09Z" fill="#fff" stroke="#000" stroke-linejoin="round"/>
  <polygon points="52.71 75.17 56.74 67.72 58.19 36.96 43.75 42.16 52.71 75.17" fill="#fff" stroke="#000" stroke-linejoin="round"/>
  <polygon points="58.19 36.96 56.74 67.72 44.27 66.25 48.41 41.49 58.19 36.96" fill="#010101" opacity=".08" stroke-width="0"/>
  <polygon points="58.19 36.96 56.74 67.72 46.38 64.6 49.42 42.55 58.19 36.96" fill="#fff" stroke="#000" stroke-linejoin="round"/>
  <path d="M.5,63.09c2.33-6.31,30.31-22.81,52.21-25.4l12.61-3.29,69.07,30.74-10.96,69.31-44.49,37.91L12.23,96.54.5,63.09Z" fill="#010101" opacity=".08" stroke-width="0"/>
  <g opacity=".5">
    <path d="M52.71,130.08l34.05-25.25s-.48-41.56,11.17-47.85" fill="none" stroke="#000" stroke-linejoin="round"/>
    <path d="M40.51,119.35l34.05-25.25s-.48-41.56,11.17-47.85" fill="none" stroke="#000" stroke-linejoin="round"/>
    <path d="M28.22,109.18l34.05-25.25s-.48-41.56,11.17-47.85" fill="none" stroke="#000" stroke-linejoin="round"/>
    <path d="M68.59,141.79l34.05-25.25s-.48-41.56,11.17-47.85" fill="none" stroke="#000" stroke-linejoin="round"/>
  </g>
  <g>
    <path d="M73.54,131.46c-1.63-3.05-4.67-4.19-4.67-4.19l-12.43-19.26-13.49-16.59-14.93-11.61-14.04-8.54-12.85-7.67,4.14,12.24,68.26,64.92v-9.29Z" fill="#fff" stroke="#000" stroke-linejoin="round"/>
    <polygon points="68.87 127.27 63.12 110.03 56.44 108.01 58.28 127.27 68.87 127.27" fill="#fff" stroke="#000" stroke-linejoin="round"/>
    <polygon points="45.86 111.88 56.44 108.01 49.69 91.87 42.39 92.97 45.86 111.88" fill="#fff" stroke="#000" stroke-linejoin="round"/>
    <polygon points="31.01 97.62 42.95 91.42 34.88 75.83 28.02 79.81 31.01 97.62" fill="#fff" stroke="#000" stroke-linejoin="round"/>
    <polygon points="18.29 86.72 28.02 79.81 21.06 65.33 13.98 71.27 18.29 86.72" fill="#fff" stroke="#000" stroke-linejoin="round"/>
    <polygon points="8.56 76.03 13.98 71.27 4.36 58.36 2.88 67.2 8.56 76.03" fill="#fff" stroke="#000" stroke-linejoin="round"/>
    <path d="M63.12,110.03c-3.03,7.27-4.03,11.46-4.03,15.39" fill="none" stroke="#010101" stroke-linecap="round" stroke-linejoin="round"/>
    <path d="M49.42,92.86c-2.05,8.07-3.04,12.66-3.04,17.17" fill="none" stroke="#010101" stroke-linecap="round" stroke-linejoin="round"/>
    <path d="M34.21,77.27c-2.65,7.3-2.43,12.16-2.65,18.46" fill="none" stroke="#010101" stroke-linecap="round" stroke-linejoin="round"/>
    <path d="M20.39,67.2c-1.55,5.21-2.54,11.62-1.77,17.04" fill="none" stroke="#010101" stroke-linecap="round" stroke-linejoin="round"/>
    <path d="M4.69,60.02c.11,3.32,1.95,10.39,3.74,13.71" fill="none" stroke="#010101" stroke-linecap="round" stroke-linejoin="round"/>
  </g>
  <path d="M72.36,133.31c-17.06-3.35-59.39-50.12-70.54-67.67,21.09,8.92,66,59.2,70.54,67.67Z" fill="#010101" opacity=".1" stroke-width="0"/>
  <polygon points="132.61 96.54 121.99 135.52 123.83 104.4 132.61 96.54" fill="#9f509f" stroke="#231f20" stroke-linejoin="round"/>
  <polygon points="132.61 96.54 121.99 135.52 123.83 104.4 132.61 96.54" fill="#231f20" opacity=".25" stroke-width="0"/>
  <polygon points="125.46 116.76 132.93 94.63 127.19 86.68 124.59 101.05 125.46 116.76" fill="#9f509f" stroke="#231f20" stroke-linejoin="round"/>
  <polygon points="125.46 116.76 132.93 94.63 127.19 86.68 124.59 101.05 125.46 116.76" fill="#231f20" opacity=".08" stroke-width="0"/>
  <polygon points="126.2 96.54 125.46 116.76 120.67 111.97 126.2 96.54" fill="#9f509f" stroke="#231f20" stroke-linejoin="round"/>
  <path d="M.5,63.09s67.74,69.91,72.31,67.89,6.41-3.49,9-2.32c0,7.55-2.87,43.69-2.87,43.69L12.23,96.54.5,63.09Z" fill="#9f509f" stroke="#231f20" stroke-linejoin="round"/>
  <path d="M81.81,128.66c-13.97,6.39-6.9.32-2.87,43.69l2.87-43.69Z" fill="#010101" opacity=".1" stroke-width="0"/>
  <polygon points="76.42 135.52 81.81 128.66 78.94 172.35 76.42 135.52" fill="#fff" stroke="#000" stroke-linejoin="round"/>
  <g>
    <path d="M115.07,63.09l-9.21,7.13c-19.28.14-99.43-50.5-99.44-54l6.67-5.41,101.98,52.28Z" fill="#fff" stroke="#000" stroke-linejoin="round"/>
    <polygon points="27.3 14.33 9 16.79 5.78 26.74 22.45 30.32 27.3 14.33" fill="#fff" stroke="#000" stroke-linejoin="round"/>
    <path d="M26.1,15.28c-6.8,1.73-17.03,8.24-19.68,10.96" fill="none" stroke="#010101" stroke-linecap="round" stroke-linejoin="round"/>
    <polygon points="37.7 25.29 23.03 30.75 21.52 43.06 37.7 41.69 37.7 25.29" fill="#fff" stroke="#000" stroke-linejoin="round"/>
    <path d="M36.5,26.24c-6.89,3.34-12.9,12.45-14.34,16.32" fill="none" stroke="#010101" stroke-linecap="round" stroke-linejoin="round"/>
    <polygon points="53.54 31.86 38.74 41.57 38.38 54.13 55.68 51.19 53.54 31.86" fill="#fff" stroke="#000" stroke-linejoin="round"/>
    <path d="M52.71,33.82c-6.25,4.99-11.77,14.7-13.69,19.81" fill="none" stroke="#010101" stroke-linecap="round" stroke-linejoin="round"/>
    <polygon points="73.28 41.49 57.35 51.2 57.64 65.64 75.2 59.27 73.28 41.49" fill="#fff" stroke="#000" stroke-linejoin="round"/>
    <polygon points="92.34 50 76.42 59.71 77.03 70.11 97.1 65.64 92.34 50" fill="#fff" stroke="#000" stroke-linejoin="round"/>
    <path d="M91.42,51.96c-5.41,5.89-11.84,12.54-13.75,17.65" fill="none" stroke="#010101" stroke-linecap="round" stroke-linejoin="round"/>
    <path d="M72.36,43.45c-5.41,5.89-12.16,16.57-14.07,21.69" fill="none" stroke="#010101" stroke-linecap="round" stroke-linejoin="round"/>
  </g>
  <path d="M109.3,66.63C92.24,63.28,27.34,27.91,13.98,14.33c24.4,4.05,90.78,43.82,95.32,52.3Z" fill="#010101" opacity=".1" stroke-width="0"/>
  <path d="M7.99,12.05L28.22.5l17.33.38,100,43.02,4.34,18.33-6.32,20.25-10.96,14.06-4.77-5.93-.77,1.29s-13.71-14.28-16.18-24.01C104.16,61.69,24.65,15.39,7.99,12.05Z" fill="#9f509f" stroke="#231f20" stroke-linejoin="round"/>
  <path d="M145.55,43.9l4.34,18.33-6.32,20.25-10.96,14.06-4.77-5.93-.77,1.29s-13.71-14.28-16.18-24.01l19.98-22.89,14.69-1.1Z" fill="#231f20" opacity=".15" stroke-width="0"/>
  <polyline points="17.6 15.28 39.55 5.19 54.73 4.83" fill="none" stroke="#010101" stroke-linecap="round" stroke-linejoin="round"/>
  <polyline points="31.99 21.63 54.73 10.81 70.33 11.54" fill="none" stroke="#010101" stroke-linecap="round" stroke-linejoin="round"/>
  <polyline points="48.24 29.58 70.33 18.38 88.05 19.16" fill="none" stroke="#010101" stroke-linecap="round" stroke-linejoin="round"/>
  <polyline points="67.21 39.54 88.94 26.47 107.61 27.57" fill="none" stroke="#010101" stroke-linecap="round" stroke-linejoin="round"/>
  <polyline points="88.57 51.66 109.14 35.88 125.46 35.88" fill="none" stroke="#010101" stroke-linecap="round" stroke-linejoin="round"/>
  <line x1="130.87" y1="48.52" x2="127.84" y2="90.61" fill="none" stroke="#010101" stroke-linecap="round" stroke-linejoin="round"/>
  <line x1="144.61" y1="49.35" x2="129.35" y2="89.5" fill="none" stroke="#010101" stroke-linecap="round" stroke-linejoin="round"/>
  <line x1="148.12" y1="63.09" x2="128.5" y2="90.61" fill="none" stroke="#010101" stroke-linecap="round" stroke-linejoin="round"/>
  <polygon points="28.22 .5 45.55 .88 145.55 43.9 130.87 45 28.22 .5" fill="#010101" opacity=".08" stroke-width="0"/>
  <polygon points="126.2 96.54 76.42 135.52 78.94 172.35 121.99 135.52 126.2 96.54" fill="#9f509f" stroke="#231f20" stroke-linejoin="round"/>
</svg>