<?xml version="1.0" encoding="UTF-8"?>
<svg id="svg1" xmlns="http://www.w3.org/2000/svg" viewBox="0 0 401.8 371.5">
  <defs>
    <linearGradient id="linear-gradient" x1="28.8" y1="45.7" x2="401.8" y2="45.7" gradientTransform="translate(0 382.6) scale(1 -1)" gradientUnits="userSpaceOnUse">
      <stop offset="0" stop-color="#000" stop-opacity="0"/>
      <stop offset="1" stop-color="#000"/>
    </linearGradient>
  </defs>
  <polygon points="91.8 342.5 169.8 336.9 274.7 322.1 308.1 309.2 310.4 317.5 384.2 302.3 401.8 302.3 401.8 316.1 340.8 326.6 374.1 326.6 332.5 339.6 182.7 359.9 138.5 367.4 116.2 364.7 28.8 371.5 99.6 350.6 91.8 342.5" fill="url(#linear-gradient)" isolation="isolate" opacity=".1" stroke-width="0"/>
  <g id="layer2">
    <g id="g15">
      <path id="path15" d="M130.3,81.8l-11.7-21.5L61.8,2l31.3,80.5-2.6,22.2,39.7-23h.1v.1Z" fill="#9f509f" stroke="#000" stroke-linecap="round" stroke-linejoin="round" stroke-width="4"/>
      <path id="path14" d="M119.1,209.3l-27.3,133.2,56-45.9-.4-95.7-28.2,8.4h-.1Z" fill="#eedaef" stroke="#000" stroke-linecap="round" stroke-linejoin="round" stroke-width="4"/>
      <path id="path13" d="M308.3,284.3l-.2,24.9-18.3-23.4,18.6-1.5h-.1Z" fill="#9f509f" stroke="#000" stroke-linecap="round" stroke-linejoin="round" stroke-width="4"/>
      <path id="path12" d="M213.2,206.8l85.6-11.9,48.1,98.6-144.5-2.2,10.8-84.5h0Z" fill="#9f509f" stroke="#000" stroke-linecap="round" stroke-linejoin="round" stroke-width="4"/>
      <path id="path11" d="M194.9,295.7l44.2-1.4-13.5-91.4-38.4,6.4,7.7,86.5h0v-.1Z" fill="#9f509f" stroke="#000" stroke-linecap="round" stroke-linejoin="round" stroke-width="4"/>
      <path id="path10" d="M192.7,206.2l11.3,91.4-37.6,15.2-4.9-103.6,31.2-3h0Z" fill="#9f509f" stroke="#000" stroke-linecap="round" stroke-linejoin="round" stroke-width="4"/>
      <path id="path9" d="M212.2,198.4l13.8.2v26.1l-13.8-26.3h0Z" fill="#9f509f" stroke="#000" stroke-linecap="round" stroke-linejoin="round" stroke-width="4"/>
      <path id="path1" d="M309.8,261.9l83.2-64-3.8-81.3-39.4,27.4-30.3,39.4-28.1,4.7-2.9,7.7,4.1-2.1,17,68.2h.2,0Z" fill="#9f509f" stroke="#000" stroke-linecap="round" stroke-linejoin="round" stroke-width="4"/>
      <path id="path2" d="M313.2,246.2l38.6-96.3M339,180.4l-47.2,7.7" fill="#9f509f" stroke="#000" stroke-linecap="round" stroke-linejoin="round" stroke-width="4"/>
      <path id="path3" d="M319.1,183.9l18.1-1.8,13-32.6-2-3.3-29.1,37.7h0Z" fill="rgba(0, 0, 0, .4)" isolation="isolate" opacity=".7" stroke-width="0"/>
      <path id="path3-5" d="M312,244.9l27-64.1-8.5,1.9-18.5,62.2h0Z" fill="rgba(0, 0, 0, .4)" isolation="isolate" opacity=".4" stroke-width="0"/>
      <path id="path3-5-5" d="M239.3,291.5h5c0,.1-17.3-86.5-17.3-86.5l12.4,86.5h-.1Z" fill="rgba(0, 0, 0, .4)" isolation="isolate" opacity=".4" stroke-width="0"/>
      <path id="path3-5-5-64" d="M93.5,83l29-10.2-2.3-9.3-27.8,15s1.1,4.5,1.1,4.5Z" fill="rgba(0, 0, 0, .4)" isolation="isolate" opacity=".4" stroke-width="0"/>
      <path id="path3-5-5-0" d="M112.7,241.2l4.3-20.5,12.5,91.3-7.1,5.5-9.8-76.4h.1v.1Z" fill="rgba(0, 0, 0, .4)" isolation="isolate" opacity=".4" stroke-width="0"/>
      <path id="path3-5-5-2" d="M174,311.1l27.4-31.7-.2-5.4,28-42.6-1.7-6.8-53.5,86.5h0Z" fill="rgba(0, 0, 0, .4)" isolation="isolate" opacity=".4" stroke-width="0"/>
      <path id="path3-5-9" d="M308.8,264l-16.6-68.5-2,1.4,14.7,69.7,29,25.9,4.2-.5-29.4-27.9h0l.1-.1Z" fill="rgba(0, 0, 0, .4)" isolation="isolate" opacity=".4" stroke-width="0"/>
      <path id="path4" d="M356.7,225.8l17.4,100.8-64.6-63.7,47.2-37.1h0Z" fill="#9f509f" stroke="#000" stroke-linecap="round" stroke-linejoin="round" stroke-width="4"/>
      <path id="path3-5-3" d="M310.5,262.4l2.1,2.5,45.2-30.4-.8-8.3-46.6,36.1h0l.1.1Z" fill="rgba(0, 0, 0, .4)" isolation="isolate" opacity=".4" stroke-width="0"/>
      <path id="path6" d="M156.6,87.1l57.7,110.6,11.8,27.8-87.6,141.9-33.7-232.2,51.8-48h0v-.1Z" fill="#9f509f" stroke="#000" stroke-linecap="round" stroke-linejoin="round" stroke-width="4"/>
      <path id="path3-5-5-6" d="M111.6,180.3l1.1,5.5s23-15.7,28.7-20c-2.1-21.7-10.4-35.4-17.1-40.6,6.6-5.2,33.2-34.5,33.2-34.5l-.5-1.7s-40.3,37.8-40.8,37.7l-4.6,53.7h0v-.1Z" fill="rgba(0, 0, 0, .4)" isolation="isolate" opacity=".4" stroke-width="0"/>
      <path id="path5" d="M2,150.6l45.5,66.7s73.5-48.6,86.7-53c-1.1-16.3-8.4-31.2-16.6-38.2,1.4-10.9,6.4-44.5,11.1-53.7-33.7,4.6-47.5,18.3-65.3,29.5S2,150.7,2,150.7h0v-.1Z" fill="#9f509f" stroke="#000" stroke-linecap="round" stroke-linejoin="round" stroke-width="4"/>
      <path id="path8" d="M127.3,4s-3.4,88.4-11.1,122.5c17.5-17.2,43.6-43,43.6-43L127.3,3.9h0v.1Z" fill="#9f509f" stroke="#000" stroke-linecap="round" stroke-linejoin="round" stroke-width="4"/>
      <path id="path7-2" d="M116.2,126.6s11.5-36.1,15.6-56.3c4.4-21.5-4.5-66.2-4.5-66.2,0,0,15.2,51.2,9.6,69.8s-20.7,52.8-20.7,52.8h0v-.1Z" fill="#eedaef" stroke="#000" stroke-linecap="round" stroke-linejoin="round" stroke-width="4"/>
      <path id="path7" d="M116.2,126.6l43.9-42.4L127.3,4.1s15.3,50.4,9.7,69-20.8,53.6-20.8,53.6h0v-.1Z" fill="#9f509f" stroke="#000" stroke-linecap="round" stroke-linejoin="round" stroke-width="4"/>
    </g>
  </g>
</svg>