<?xml version="1.0" encoding="UTF-8"?>
<svg id="svg1" xmlns="http://www.w3.org/2000/svg" width="244.27" height="225.81" xmlns:xlink="http://www.w3.org/1999/xlink" viewBox="0 0 244.27 225.81">
  <defs>
    <linearGradient id="linear-gradient" x1="17.04" y1="614.13" x2="244.27" y2="614.13" gradientTransform="translate(0 -409.4)" gradientUnits="userSpaceOnUse">
      <stop offset="0" stop-color="#000" stop-opacity="0"/>
      <stop offset="1" stop-color="#000"/>
    </linearGradient>
  </defs>
  <polygon points="55.42 208.14 102.93 204.73 166.84 195.71 187.18 187.86 188.59 192.91 233.54 183.65 244.27 183.65 244.27 192.06 207.11 198.46 227.39 198.46 202.05 206.37 110.79 218.74 83.86 223.31 70.28 221.67 17.04 225.81 60.17 213.08 55.42 208.14" fill="url(#linear-gradient)" isolation="isolate" opacity=".1" stroke-width="0"/>
  <g id="layer2">
    <g id="g15">
      <path id="path15" d="M78.87,49.32l-7.13-13.1L37.14.71l19.07,49.04-1.58,13.52,24.19-14.01h.06v.06Z" fill="#9f509f" stroke="#000" stroke-linecap="round" stroke-linejoin="round" stroke-width="1.42"/>
      <path id="path14" d="M72.05,127l-16.63,81.15,34.12-27.96-.24-58.3-17.18,5.12h-.06Z" fill="#9f509f" opacity=".15" stroke-width="0"/>
      <path id="path14-2" data-name="path14" d="M72.05,127l-16.63,81.15,34.12-27.96-.24-58.3-17.18,5.12h-.06Z" fill="none" stroke="#000" stroke-linecap="round" stroke-linejoin="round" stroke-width="1.42"/>
      <path id="path13" d="M187.31,172.69l-.12,15.17-11.15-14.26,11.33-.91h-.06Z" fill="#9f509f" stroke="#000" stroke-linecap="round" stroke-linejoin="round" stroke-width="1.42"/>
      <path id="path12" d="M129.37,125.47l52.15-7.25,29.3,60.07-88.03-1.34,6.58-51.48h0Z" fill="#9f509f" stroke="#000" stroke-linecap="round" stroke-linejoin="round" stroke-width="1.42"/>
      <path id="path11" d="M118.22,179.63l26.93-.85-8.22-55.68-23.39,3.9,4.69,52.7h0v-.06h0Z" fill="#9f509f" stroke="#000" stroke-linecap="round" stroke-linejoin="round" stroke-width="1.42"/>
      <path id="path10" d="M116.88,125.11l6.88,55.68-22.91,9.26-2.99-63.11,19.01-1.83h0Z" fill="#9f509f" stroke="#000" stroke-linecap="round" stroke-linejoin="round" stroke-width="1.42"/>
      <path id="path9" d="M128.76,120.36l8.41.12v15.9l-8.41-16.02h0Z" fill="#9f509f" stroke="#000" stroke-linecap="round" stroke-linejoin="round" stroke-width="1.42"/>
      <path id="path1" d="M188.22,159.04l50.69-38.99-2.31-49.53-24,16.69-18.46,24-17.12,2.86-1.77,4.69,2.5-1.28,10.36,41.55h.12,0Z" fill="#9f509f" stroke="#000" stroke-linecap="round" stroke-linejoin="round" stroke-width="1.42"/>
      <path id="path2" d="M190.29,149.48l23.52-58.67M206.01,109.39l-28.75,4.69" fill="#9f509f" stroke="#000" stroke-linecap="round" stroke-linejoin="round" stroke-width="1.42"/>
      <path id="path3" d="M193.89,111.52l11.03-1.1,7.92-19.86-1.22-2.01-17.73,22.97h0Z" fill="#000" isolation="isolate" opacity=".7" stroke-width="0"/>
      <path id="path3-5" d="M189.56,148.68l16.45-39.05-5.18,1.16-11.27,37.89h0Z" fill="#000" isolation="isolate" opacity=".4" stroke-width="0"/>
      <path id="path3-5-5" d="M145.27,177.07h3.05c0,.06-10.54-52.7-10.54-52.7l7.55,52.7h-.06,0Z" fill="#000" isolation="isolate" opacity=".4" stroke-width="0"/>
      <path id="path3-5-5-64" d="M56.45,50.05l17.67-6.21-1.4-5.67-16.94,9.14s.67,2.74.67,2.74Z" fill="#000" isolation="isolate" opacity=".4" stroke-width="0"/>
      <path id="path3-5-5-0" d="M68.15,146.43l2.62-12.49,7.61,55.62-4.33,3.35-5.97-46.54h.06v.06h0Z" fill="#000" isolation="isolate" opacity=".4" stroke-width="0"/>
      <path id="path3-5-5-2" d="M105.49,189.01l16.69-19.31-.12-3.29,17.06-25.95-1.04-4.14-32.59,52.7h0Z" fill="#000" isolation="isolate" opacity=".4" stroke-width="0"/>
      <path id="path3-5-9" d="M187.61,160.32l-10.11-41.73-1.22.85,8.96,42.46,17.67,15.78,2.56-.3-17.91-17h0l.06-.06h0Z" fill="#000" isolation="isolate" opacity=".4" stroke-width="0"/>
      <path id="path4" d="M216.79,137.05l10.6,61.41-39.35-38.81,28.75-22.6h0Z" fill="#9f509f" stroke="#000" stroke-linecap="round" stroke-linejoin="round" stroke-width="1.42"/>
      <path id="path3-5-3" d="M188.65,159.34l1.28,1.52,27.54-18.52-.49-5.06-28.39,21.99h0l.06.06h0Z" fill="#000" isolation="isolate" opacity=".4" stroke-width="0"/>
      <path id="path6" d="M94.89,52.55l35.15,67.38,7.19,16.94-53.37,86.45-20.53-141.46,31.56-29.24h0v-.06Z" fill="#9f509f" stroke="#000" stroke-linecap="round" stroke-linejoin="round" stroke-width="1.42"/>
      <path id="path3-5-5-6" d="M67.48,109.33l.67,3.35s14.01-9.56,17.48-12.18c-1.28-13.22-6.34-21.57-10.42-24.73,4.02-3.17,20.23-21.02,20.23-21.02l-.3-1.04s-24.55,23.03-24.86,22.97l-2.8,32.71h0v-.06Z" fill="#000" isolation="isolate" opacity=".4" stroke-width="0"/>
      <path id="path5" d="M.71,91.24l27.72,40.63s44.78-29.61,52.82-32.29c-.67-9.93-5.12-19.01-10.11-23.27.85-6.64,3.9-27.11,6.76-32.71-20.53,2.8-28.94,11.15-39.78,17.97C27.27,68.39.71,91.3.71,91.3h0v-.06h0Z" fill="#9f509f" stroke="#000" stroke-linecap="round" stroke-linejoin="round" stroke-width="1.42"/>
      <path id="path8" d="M77.04,1.93s-2.07,53.85-6.76,74.63c10.66-10.48,26.56-26.2,26.56-26.2L77.04,1.87h0v.06Z" fill="#9f509f" stroke="#000" stroke-linecap="round" stroke-linejoin="round" stroke-width="1.42"/>
      <path id="path7-2" d="M70.28,76.62s7.01-21.99,9.5-34.3c2.68-13.1-2.74-40.33-2.74-40.33,0,0,9.26,31.19,5.85,42.52-3.41,11.33-12.61,32.17-12.61,32.17h0v-.06h0Z" fill="#eedaef" stroke="#000" stroke-linecap="round" stroke-linejoin="round" stroke-width="1.42"/>
      <path id="path7" d="M70.28,76.62l26.74-25.83L77.04,1.99s9.32,30.7,5.91,42.03-12.67,32.65-12.67,32.65h0v-.06Z" fill="#9f509f" stroke="#000" stroke-linecap="round" stroke-linejoin="round" stroke-width="1.42"/>
    </g>
  </g>
</svg>