<?xml version="1.0" encoding="UTF-8"?>
<svg id="svg1" xmlns="http://www.w3.org/2000/svg" xmlns:xlink="http://www.w3.org/1999/xlink" xmlns:svg="http://www.w3.org/2000/svg" xmlns:sodipodi="http://sodipodi.sourceforge.net/DTD/sodipodi-0.dtd" xmlns:inkscape="http://www.inkscape.org/namespaces/inkscape" version="1.1" viewBox="0 0 595.3 841.9">
  <defs>
    <style>
      .cls-1 {
        fill: #368e96;
      }

      .cls-1, .cls-2, .cls-3 {
        stroke: #000;
        stroke-linecap: round;
        stroke-linejoin: round;
        stroke-width: 4px;
      }

      .cls-4 {
        opacity: .7;
      }

      .cls-4, .cls-5 {
        fill: #000;
        fill-opacity: .4;
        stroke-width: 0px;
      }

      .cls-4, .cls-5, .cls-6 {
        isolation: isolate;
      }

      .cls-5 {
        opacity: .4;
      }

      .cls-2 {
        fill: #337678;
      }

      .cls-3 {
        fill: #accdd0;
      }
    </style>
  </defs>
  <sodipodi:namedview id="namedview1" bordercolor="#000000" borderopacity="0.25" inkscape:current-layer="layer2" inkscape:cx="166.58585" inkscape:cy="528.17978" inkscape:deskcolor="#d1d1d1" inkscape:document-units="mm" inkscape:pagecheckerboard="0" inkscape:pageopacity="0.0" inkscape:showpageshadow="2" inkscape:window-height="936" inkscape:window-maximized="0" inkscape:window-width="1512" inkscape:window-x="86" inkscape:window-y="110" inkscape:zoom="0.63330709" pagecolor="#ffffff"/>
  <g id="layer1" inkscape:groupmode="layer" inkscape:label="Layer 1">
    <image id="image1" class="cls-6" width="4080" height="3074" sodipodi:insensitive="true" transform="translate(-229.7 -57.1) scale(.3)" xlink:href="scottie-1.png"/>
  </g>
  <g id="layer2" inkscape:groupmode="layer" inkscape:label="Layer 2">
    <g id="g15">
      <path id="path15" class="cls-1" d="M244.5,216.5l-11.7-21.5-56.8-58.3,31.3,80.5-2.6,22.2,39.7-23h.1Z"/>
      <path id="path14" class="cls-3" d="M233.3,344l-27.3,133.2,56-45.9-.4-95.7-28.2,8.4h-.1Z"/>
      <path id="path13" class="cls-1" d="M422.5,419l-.2,24.9-18.3-23.4,18.6-1.5h-.1Z"/>
      <path id="path12" class="cls-1" d="M327.4,341.5l85.6-11.9,48.1,98.6-144.5-2.2,10.8-84.5Z"/>
      <path id="path11" class="cls-1" d="M309.1,430.4l44.2-1.4-13.5-91.4-38.4,6.4,7.7,86.5h0Z"/>
      <path id="path10" class="cls-1" d="M306.9,340.9l11.3,91.4-37.6,15.2-4.9-103.6,31.2-3Z" sodipodi:nodetypes="ccccc"/>
      <path id="path9" class="cls-1" d="M326.4,333.1l13.8.2v26.1l-13.8-26.3h0Z"/>
      <path id="path1" class="cls-1" d="M424,396.6l83.2-64-3.8-81.3-39.4,27.4-30.3,39.4-28.1,4.7-2.9,7.7,4.1-2.1,17,68.2h.2Z"/>
      <path id="path2" class="cls-2" d="M427.4,380.9l38.6-96.3M453.2,315.1l-47.2,7.7" sodipodi:nodetypes="cccc"/>
      <path id="path3" class="cls-4" d="M433.3,318.6l18.1-1.8,13-32.6-2-3.3-29.1,37.7h0Z" sodipodi:nodetypes="ccccc"/>
      <path id="path3-5" class="cls-5" d="M426.2,379.6l27-64.1-8.5,1.9-18.5,62.2Z" sodipodi:nodetypes="cccc"/>
      <path id="path3-5-5" class="cls-5" d="M353.5,426.2h5c0,.1-17.3-86.5-17.3-86.5l12.4,86.5h-.1Z" sodipodi:nodetypes="cccc"/>
      <path id="path3-5-5-64" class="cls-5" d="M207.7,217.7l29-10.2-2.3-9.3-27.8,15,1.1,4.5Z" sodipodi:nodetypes="ccccc"/>
      <path id="path3-5-5-0" class="cls-5" d="M226.9,375.9l4.3-20.5,12.5,91.3-7.1,5.5-9.8-76.4h.1Z" sodipodi:nodetypes="ccccc"/>
      <path id="path3-5-5-2" class="cls-5" d="M288.2,445.8l27.4-31.7-.2-5.4,28-42.6-1.7-6.8-53.5,86.5h0Z" sodipodi:nodetypes="cccccc"/>
      <path id="path3-5-9" class="cls-5" d="M423,398.7l-16.6-68.5-2,1.4,14.7,69.7,29,25.9,4.2-.5-29.4-27.9h0Z" sodipodi:nodetypes="ccccccc"/>
      <path id="path4" class="cls-1" d="M470.9,360.5l17.4,100.8-64.6-63.7,47.2-37.1h0Z" sodipodi:nodetypes="cccc"/>
      <path id="path3-5-3" class="cls-5" d="M424.7,397.1l2.1,2.5,45.2-30.4-.8-8.3-46.6,36.1h0Z" sodipodi:nodetypes="ccccc"/>
      <path id="path6" class="cls-1" d="M270.8,221.8l57.7,110.6,11.8,27.8-87.6,141.9-33.7-232.2,51.8-48h0Z"/>
      <path id="path3-5-5-6" class="cls-5" d="M225.8,315l1.1,5.5s23-15.7,28.7-20c-2.1-21.7-10.4-35.4-17.1-40.6,6.6-5.2,33.2-34.5,33.2-34.5l-.5-1.7s-40.3,37.8-40.8,37.7l-4.6,53.7h0Z" sodipodi:nodetypes="cccccccc"/>
      <path id="path5" class="cls-1" d="M116.2,285.3l45.5,66.7s73.5-48.6,86.7-53c-1.1-16.3-8.4-31.2-16.6-38.2,1.4-10.9,6.4-44.5,11.1-53.7-33.7,4.6-47.5,18.3-65.3,29.5s-61.4,48.8-61.4,48.8h0Z" sodipodi:nodetypes="cccccsc"/>
      <path id="path8" class="cls-1" d="M241.5,138.7s-3.4,88.4-11.1,122.5c17.5-17.2,43.6-43,43.6-43l-32.5-79.6h0Z" sodipodi:nodetypes="cccc"/>
      <path id="path7-2" class="cls-3" d="M230.4,261.3s11.5-36.1,15.6-56.3c4.4-21.5-4.5-66.2-4.5-66.2,0,0,15.2,51.2,9.6,69.8s-20.7,52.8-20.7,52.8h0Z" sodipodi:nodetypes="cscsc"/>
      <path id="path7" class="cls-1" d="M230.4,261.3l43.9-42.4-32.8-80.1s15.3,50.4,9.7,69-20.8,53.6-20.8,53.6h0Z" sodipodi:nodetypes="cccsc"/>
    </g>
  </g>
</svg>