<?xml version="1.0" encoding="utf-8"?>
<!-- Generator: Adobe Illustrator 26.0.2, SVG Export Plug-In . SVG Version: 6.00 Build 0)  -->
<svg version="1.1" id="Layer_1" xmlns="http://www.w3.org/2000/svg" xmlns:xlink="http://www.w3.org/1999/xlink" x="0px" y="0px"
	 viewBox="0 0 224 255.7" style="enable-background:new 0 0 224 255.7;" xml:space="preserve">
<style type="text/css">
	.st0{opacity:0.15;fill:url(#SVGID_1_);enable-background:new    ;}
	.st1{fill:#EBF5FF;stroke:#231F20;stroke-linecap:round;stroke-linejoin:round;stroke-miterlimit:10;}
	.st2{opacity:8.000000e-02;fill:#231F20;enable-background:new    ;}
	.st3{fill:none;stroke:#231F20;stroke-width:0.25;stroke-linecap:round;stroke-linejoin:round;stroke-miterlimit:10;}
	.st4{fill:#9F509F;stroke:#231F20;stroke-linecap:round;stroke-linejoin:round;stroke-miterlimit:10;}
	.st5{opacity:0.15;enable-background:new    ;}
	.st6{opacity:0.2;enable-background:new    ;}
	.st7{opacity:0.15;fill:#231F20;enable-background:new    ;}
	.st8{opacity:0.1;fill:url(#SVGID_00000008147367158217177390000011582499915272769946_);enable-background:new    ;}
	.st9{fill:none;stroke:#231F20;stroke-width:0.25;stroke-miterlimit:10;}
</style>
<g>
	
		<linearGradient id="SVGID_1_" gradientUnits="userSpaceOnUse" x1="215.1613" y1="39.1114" x2="89.9" y2="39.1114" gradientTransform="matrix(1 0 0 -1 0 244.6614)">
		<stop  offset="0" style="stop-color:#000000;stop-opacity:0"/>
		<stop  offset="1" style="stop-color:#000000"/>
	</linearGradient>
	<polyline class="st0" points="89.9,200 215.2,168.4 112.2,242.7 132.5,207.4 89.9,200 	"/>
	<g>
		<path class="st1" d="M143.4,157.4l9.1-5.9l0.4-4.4l5.1-8.7l1.7-2.5l-0.6-9.5l-1.9-3.1l2.5-7.4l-0.4-3.5l4.7-4.9l0.8-4.9l5.4-6.2
			l6.5-6.6l-38.6,5.3c0,0-4.8,10.1-7.2,13.6c-2.4,3.3-12.8,12.6-12.8,12.6L143.4,157.4z"/>
		<path class="st2" d="M125.3,119c11.1-6.9,17.7,4,25.2,33.6L125.3,119z"/>
		<polygon class="st2" points="140.8,96.1 170.3,96.5 164.8,102.7 		"/>
		<polygon class="st2" points="141.1,97 159.4,112.5 164.1,107.6 		"/>
		<polyline class="st2" points="139.3,96.9 157.3,123.3 159.8,116 		"/>
		<polyline class="st2" points="138.6,97.6 159.7,135.9 159.5,131.8 		"/>
		<polyline class="st2" points="138.1,99.2 152.9,147.1 156.5,141 		"/>
		<line class="st3" x1="139.7" y1="104.5" x2="149.6" y2="136.5"/>
		<line class="st3" x1="139" y1="101.5" x2="154.3" y2="135.9"/>
		<line class="st3" x1="142.7" y1="105.1" x2="156.7" y2="130.4"/>
		<line class="st3" x1="140.6" y1="100.8" x2="158" y2="129.4"/>
		<line class="st3" x1="142" y1="100.9" x2="154.9" y2="119.8"/>
		<line class="st3" x1="141" y1="98.4" x2="157" y2="113.7"/>
		<line class="st3" x1="144.6" y1="100" x2="156.3" y2="109.9"/>
		<line class="st3" x1="143.1" y1="97.9" x2="161.8" y2="106.5"/>
		<line class="st3" x1="145.4" y1="97.5" x2="162.2" y2="102"/>
		<line class="st3" x1="143.7" y1="96.2" x2="166.5" y2="96.4"/>
	</g>
	<path class="st1" d="M153.7,161.7l9.7-4.9l0.9-4.3l6.1-8.1l1.9-2.3l0.4-9.5l-1.5-3.2l3.2-7.1v-3.5l5.2-4.4l1.3-4.8l6.1-5.6l7.1-5.8
		l-38.9,1.1c0,0-5.8,9.6-8.6,12.7c-2.7,3.1-14.1,11.2-14.1,11.2L153.7,161.7z"/>
	<path class="st1" d="M152.9,155.1l-13-19.7l-13,6.1c0,0,0.2,29.1,0.8,37.8c0.6,8.7,5.2,25.5,5.2,25.5L152.9,155.1z"/>
	<polygon class="st4" points="152.9,155.1 139.9,135.4 127,141.5 133,204.8 	"/>
	<path class="st4" d="M95.7,21.9c0,0-7.5-10.8-16-10.7S35.5,32.6,35.5,32.6l9.6,21.9l36.1-2.9L101,32.4L95.7,21.9z"/>
	<path id="XMLID_00000154392904959284601990000013424629080841459635_" class="st4" d="M78.6,47.4c0,0,1,149.5,8.8,152.6h2.5
		l15.8-74.7l-6.3-98.9L78.6,47.4z"/>
	<path id="XMLID_00000170259538336295621770000008344304620228775045_" class="st5" d="M81,48.5c0,0,4.8,136,6.4,151.5h2.5
		l15.8-74.7l-6.3-98.9L81,48.5z"/>
	<path class="st5" d="M86,198.9h2.5l19.9-81.3l-18.6,31.2c0,0-2.9,9.6-3.8,21.1C85.1,181.4,86,198.9,86,198.9z"/>
	<path class="st4" d="M87.4,200h2.5l19.9-81.3L91.2,150c0,0-2.9,9.6-3.8,21.1C86.5,182.5,87.4,200,87.4,200z"/>
	<polygon class="st4" points="91.2,150 112.2,242.7 109.8,118.7 	"/>
	<path class="st4" d="M112.2,242.7c2.9-10.3-2.4-124-2.4-124L91.2,150C91.2,150,104.1,246,112.2,242.7z"/>
	<polygon class="st4" points="91.2,193.2 98.3,165.7 92.1,166.5 	"/>
	<polygon class="st6" points="89.9,200 97.6,164.7 97.6,148.4 90,164.1 	"/>
	<polygon class="st4" points="103.9,223.4 107.4,161.7 92.1,166.5 	"/>
	<path class="st4" d="M112.2,242.7c2.9-10.3-2.4-124-2.4-124L91.2,150C91.2,150,104.1,246,112.2,242.7z"/>
	<path class="st1" d="M162.4,164.1l-13-19.7l-13,6.1c0,0,0.2,29.1,0.8,37.8c0.6,8.7,5.2,25.5,5.2,25.5L162.4,164.1z"/>
	<polygon class="st4" points="149.4,185.1 117,188.5 122.1,160.2 145.5,159.4 	"/>
	<polygon class="st4" points="162.4,164.1 149.4,144.4 136.4,150.4 142.4,213.8 	"/>
	<polygon class="st4" points="147.2,137.1 99.8,49.3 111.6,164.1 	"/>
	<polygon class="st7" points="160.3,162.1 151.4,148.4 125.9,187.3 133.2,186.8 	"/>
	<polygon class="st4" points="161.2,157.7 142.4,123.9 129.7,122.2 111.6,205.9 	"/>
	<path class="st5" d="M79.3,51.7c0,0,10.3,75.4,12.8,91.1s17.3,99.9,17.3,99.9l4.1-1.8l-6.2-88.3L85,42.9L79.3,51.7z"/>
	<polygon class="st7" points="126,192 140.2,131.2 110.7,71.5 	"/>
	<path class="st4" d="M78.6,47.4l33.6,195.3l4.1-1.8l22-109.7c0,0-16.2-30-21.5-44.3c-5.3-14.3-17.4-60.5-17.4-60.5L78.6,47.4z"/>
	<polygon class="st4" points="92.3,15.8 99.8,0.5 101,21.2 	"/>
	<polygon class="st4" points="83.8,16.2 83.8,3.8 94.7,19.9 	"/>
	
		<linearGradient id="SVGID_00000117634745967637228230000017873729840512345269_" gradientUnits="userSpaceOnUse" x1="107.1299" y1="86.3129" x2="112.6846" y2="174.9724" gradientTransform="matrix(1 0 0 -1 0 244.6614)">
		<stop  offset="0" style="stop-color:#000000;stop-opacity:0"/>
		<stop  offset="0.134" style="stop-color:#000000;stop-opacity:0.134"/>
		<stop  offset="1" style="stop-color:#000000"/>
	</linearGradient>
	<path style="opacity:0.1;fill:url(#SVGID_00000117634745967637228230000017873729840512345269_);enable-background:new    ;" d="
		M85,42.9c13.4,17.5,29.4,87,26.6,121.1c18.6-16.9,12-31.1,26.6-32.9L100,36.3L85,42.9z"/>
	<path class="st4" d="M99.8,21.6c0,0-6.5-9-15-9s-49.2,20-49.2,20l9.6,21.9l36.1-2.9L101,32.4L99.8,21.6z"/>
	<path class="st4" d="M104,37.6c0.4,2.5,4.3,24.5,11.2,43.7c4.6,13,23.1,49.9,23.1,49.9s-16.7-22.7-27.1-41.2
		C95.7,62.8,91.6,17.2,99.8,0.5C100.3,8.4,103.6,35.1,104,37.6z"/>
	<line class="st3" x1="85" y1="26.3" x2="49.2" y2="40.6"/>
	<path class="st7" d="M116.3,240.9c-2.2-20.4,1.6-49.8,13.4-66.9L116.3,240.9z"/>
	<path class="st9" d="M115.7,229.4c0-15.1,2.7-32.4,8.8-46"/>
	<path class="st7" d="M142.4,213.8c2.7-21.2,8.9-38.7,19.9-49.7L142.4,213.8z"/>
	<path class="st2" d="M139.8,121.6c11.7-5.7,17.2,5.9,21.4,36.1L139.8,121.6z"/>
	<path class="st9" d="M143.8,205.2c2.7-14.9,7.5-27.5,14.7-36.8"/>
	<polygon class="st2" points="157.8,100.5 187,104 181,109.6 	"/>
	<polygon class="st2" points="158,101.4 174.5,118.7 179.7,114.4 	"/>
	<polyline class="st2" points="156.2,101.1 171.2,129.3 174.5,122.2 	"/>
	<polyline class="st2" points="155.4,101.7 172.3,142 172.5,137.9 	"/>
	<polyline class="st2" points="154.7,103.2 164.3,152.4 168.6,146.7 	"/>
	<line class="st3" x1="155.8" y1="108.7" x2="162.2" y2="141.5"/>
	<line class="st3" x1="155.4" y1="105.6" x2="166.9" y2="141.5"/>
	<line class="st3" x1="158.7" y1="109.6" x2="169.9" y2="136.3"/>
	<line class="st3" x1="157" y1="105.1" x2="171.3" y2="135.4"/>
	<line class="st3" x1="158.5" y1="105.3" x2="169.3" y2="125.6"/>
	<line class="st3" x1="157.8" y1="102.7" x2="172" y2="119.7"/>
	<line class="st3" x1="161.2" y1="104.7" x2="171.7" y2="115.9"/>
	<line class="st3" x1="159.9" y1="102.5" x2="177.5" y2="113.1"/>
	<line class="st3" x1="162.2" y1="102.3" x2="178.4" y2="108.6"/>
	<line class="st3" x1="160.6" y1="100.8" x2="183.3" y2="103.6"/>
</g>
</svg>
