<?xml version="1.0" encoding="UTF-8"?>
<svg id="Layer_1" data-name="Layer 1" xmlns="http://www.w3.org/2000/svg" xmlns:xlink="http://www.w3.org/1999/xlink" viewBox="0 0 180.2 243.28">
  <defs>
    <linearGradient id="linear-gradient" x1="180.2" y1="752.89" x2="54.9" y2="752.89" gradientTransform="translate(0 -547.34)" gradientUnits="userSpaceOnUse">
      <stop offset="0" stop-color="#000" stop-opacity="0"/>
      <stop offset="1" stop-color="#000"/>
    </linearGradient>
    <linearGradient id="linear-gradient-2" x1="72.13" y1="705.69" x2="77.68" y2="617.03" gradientTransform="translate(0 -547.34)" gradientUnits="userSpaceOnUse">
      <stop offset="0" stop-color="#000" stop-opacity="0"/>
      <stop offset=".13" stop-color="#000" stop-opacity=".13"/>
      <stop offset="1" stop-color="#000"/>
    </linearGradient>
  </defs>
  <polyline points="54.9 200 180.2 168.4 77.2 242.7 97.5 207.4 54.9 200" fill="url(#linear-gradient)" isolation="isolate" opacity=".15" stroke-width="0"/>
  <g>
    <path d="M108.4,157.4l9.1-5.9.4-4.4,5.1-8.7,1.7-2.5-.6-9.5-1.9-3.1,2.5-7.4-.4-3.5,4.7-4.9.8-4.9,5.4-6.2,6.5-6.6-38.6,5.3s-4.8,10.1-7.2,13.6c-2.4,3.3-12.8,12.6-12.8,12.6l25.3,36.1Z" fill="#ebf5ff" stroke="#231f20" stroke-linecap="round" stroke-linejoin="round"/>
    <path d="M90.3,119c11.1-6.9,17.7,4,25.2,33.6l-25.2-33.6Z" fill="#231f20" isolation="isolate" opacity=".08" stroke-width="0"/>
    <polygon points="105.8 96.1 135.3 96.5 129.8 102.7 105.8 96.1" fill="#231f20" isolation="isolate" opacity=".08" stroke-width="0"/>
    <polygon points="106.1 97 124.4 112.5 129.1 107.6 106.1 97" fill="#231f20" isolation="isolate" opacity=".08" stroke-width="0"/>
    <polyline points="104.3 96.9 122.3 123.3 124.8 116" fill="#231f20" isolation="isolate" opacity=".08" stroke-width="0"/>
    <polyline points="103.6 97.6 124.7 135.9 124.5 131.8" fill="#231f20" isolation="isolate" opacity=".08" stroke-width="0"/>
    <polyline points="103.1 99.2 117.9 147.1 121.5 141" fill="#231f20" isolation="isolate" opacity=".08" stroke-width="0"/>
    <line x1="104.7" y1="104.5" x2="114.6" y2="136.5" fill="none" stroke="#231f20" stroke-linecap="round" stroke-linejoin="round" stroke-width=".25"/>
    <line x1="104" y1="101.5" x2="119.3" y2="135.9" fill="none" stroke="#231f20" stroke-linecap="round" stroke-linejoin="round" stroke-width=".25"/>
    <line x1="107.7" y1="105.1" x2="121.7" y2="130.4" fill="none" stroke="#231f20" stroke-linecap="round" stroke-linejoin="round" stroke-width=".25"/>
    <line x1="105.6" y1="100.8" x2="123" y2="129.4" fill="none" stroke="#231f20" stroke-linecap="round" stroke-linejoin="round" stroke-width=".25"/>
    <line x1="107" y1="100.9" x2="119.9" y2="119.8" fill="none" stroke="#231f20" stroke-linecap="round" stroke-linejoin="round" stroke-width=".25"/>
    <line x1="106" y1="98.4" x2="122" y2="113.7" fill="none" stroke="#231f20" stroke-linecap="round" stroke-linejoin="round" stroke-width=".25"/>
    <line x1="109.6" y1="100" x2="121.3" y2="109.9" fill="none" stroke="#231f20" stroke-linecap="round" stroke-linejoin="round" stroke-width=".25"/>
    <line x1="108.1" y1="97.9" x2="126.8" y2="106.5" fill="none" stroke="#231f20" stroke-linecap="round" stroke-linejoin="round" stroke-width=".25"/>
    <line x1="110.4" y1="97.5" x2="127.2" y2="102" fill="none" stroke="#231f20" stroke-linecap="round" stroke-linejoin="round" stroke-width=".25"/>
    <line x1="108.7" y1="96.2" x2="131.5" y2="96.4" fill="none" stroke="#231f20" stroke-linecap="round" stroke-linejoin="round" stroke-width=".25"/>
  </g>
  <path d="M118.7,161.7l9.7-4.9.9-4.3,6.1-8.1,1.9-2.3.4-9.5-1.5-3.2,3.2-7.1v-3.5l5.2-4.4,1.3-4.8,6.1-5.6,7.1-5.8-38.9,1.1s-5.8,9.6-8.6,12.7c-2.7,3.1-14.1,11.2-14.1,11.2l21.2,38.5Z" fill="#ebf5ff" stroke="#231f20" stroke-linecap="round" stroke-linejoin="round"/>
  <path d="M117.9,155.1l-13-19.7-13,6.1s.2,29.1.8,37.8,5.2,25.5,5.2,25.5l20-49.7Z" fill="#ebf5ff" stroke="#231f20" stroke-linecap="round" stroke-linejoin="round"/>
  <polygon points="117.9 155.1 104.9 135.4 92 141.5 98 204.8 117.9 155.1" fill="#9f509f" stroke="#231f20" stroke-linecap="round" stroke-linejoin="round"/>
  <path d="M60.7,21.9s-7.5-10.8-16-10.7S.5,32.6.5,32.6l9.6,21.9,36.1-2.9,19.8-19.2-5.3-10.5Z" fill="#9f509f" stroke="#231f20" stroke-linecap="round" stroke-linejoin="round"/>
  <path d="M43.6,47.4s1,149.5,8.8,152.6h2.5l15.8-74.7-6.3-98.9-20.8,21Z" fill="#9f509f" stroke="#231f20" stroke-linecap="round" stroke-linejoin="round"/>
  <path d="M46,48.5s4.8,136,6.4,151.5h2.5l15.8-74.7-6.3-98.9-18.4,22.1Z" fill="#000" isolation="isolate" opacity=".15" stroke-width="0"/>
  <path d="M51,198.9h2.5l19.9-81.3-18.6,31.2s-2.9,9.6-3.8,21.1,0,29,0,29Z" fill="#000" isolation="isolate" opacity=".15" stroke-width="0"/>
  <path d="M52.4,200h2.5l19.9-81.3-18.6,31.3s-2.9,9.6-3.8,21.1c-.9,11.4,0,28.9,0,28.9Z" fill="#9f509f" stroke="#231f20" stroke-linecap="round" stroke-linejoin="round"/>
  <polygon points="56.2 150 77.2 242.7 74.8 118.7 56.2 150" fill="#9f509f" stroke="#231f20" stroke-linecap="round" stroke-linejoin="round"/>
  <path d="M77.2,242.7c2.9-10.3-2.4-124-2.4-124l-18.6,31.3s12.9,96,21,92.7Z" fill="#9f509f" stroke="#231f20" stroke-linecap="round" stroke-linejoin="round"/>
  <polygon points="56.2 193.2 63.3 165.7 57.1 166.5 56.2 193.2" fill="#9f509f" stroke="#231f20" stroke-linecap="round" stroke-linejoin="round"/>
  <polygon points="54.9 200 62.6 164.7 62.6 148.4 55 164.1 54.9 200" fill="#000" isolation="isolate" opacity=".2" stroke-width="0"/>
  <polygon points="68.9 223.4 72.4 161.7 57.1 166.5 68.9 223.4" fill="#9f509f" stroke="#231f20" stroke-linecap="round" stroke-linejoin="round"/>
  <path d="M77.2,242.7c2.9-10.3-2.4-124-2.4-124l-18.6,31.3s12.9,96,21,92.7Z" fill="#9f509f" stroke="#231f20" stroke-linecap="round" stroke-linejoin="round"/>
  <path d="M127.4,164.1l-13-19.7-13,6.1s.2,29.1.8,37.8,5.2,25.5,5.2,25.5l20-49.7Z" fill="#ebf5ff" stroke="#231f20" stroke-linecap="round" stroke-linejoin="round"/>
  <polygon points="114.4 185.1 82 188.5 87.1 160.2 110.5 159.4 114.4 185.1" fill="#9f509f" stroke="#231f20" stroke-linecap="round" stroke-linejoin="round"/>
  <polygon points="127.4 164.1 114.4 144.4 101.4 150.4 107.4 213.8 127.4 164.1" fill="#9f509f" stroke="#231f20" stroke-linecap="round" stroke-linejoin="round"/>
  <polygon points="112.2 137.1 64.8 49.3 76.6 164.1 112.2 137.1" fill="#9f509f" stroke="#231f20" stroke-linecap="round" stroke-linejoin="round"/>
  <polygon points="125.3 162.1 116.4 148.4 90.9 187.3 98.2 186.8 125.3 162.1" fill="#231f20" isolation="isolate" opacity=".15" stroke-width="0"/>
  <polygon points="126.2 157.7 107.4 123.9 94.7 122.2 76.6 205.9 126.2 157.7" fill="#9f509f" stroke="#231f20" stroke-linecap="round" stroke-linejoin="round"/>
  <path d="M44.3,51.7s10.3,75.4,12.8,91.1,17.3,99.9,17.3,99.9l4.1-1.8-6.2-88.3-22.3-109.7-5.7,8.8Z" fill="#000" isolation="isolate" opacity=".15" stroke-width="0"/>
  <polygon points="91 192 105.2 131.2 75.7 71.5 91 192" fill="#231f20" isolation="isolate" opacity=".15" stroke-width="0"/>
  <path d="M43.6,47.4l33.6,195.3,4.1-1.8,22-109.7s-16.2-30-21.5-44.3-17.4-60.5-17.4-60.5l-20.8,21Z" fill="#9f509f" stroke="#231f20" stroke-linecap="round" stroke-linejoin="round"/>
  <polygon points="57.3 15.8 64.8 .5 66 21.2 57.3 15.8" fill="#9f509f" stroke="#231f20" stroke-linecap="round" stroke-linejoin="round"/>
  <polygon points="48.8 16.2 48.8 3.8 59.7 19.9 48.8 16.2" fill="#9f509f" stroke="#231f20" stroke-linecap="round" stroke-linejoin="round"/>
  <path d="M50,42.9c13.4,17.5,29.4,87,26.6,121.1,18.6-16.9,12-31.1,26.6-32.9l-38.2-94.8-15,6.6Z" fill="url(#linear-gradient-2)" isolation="isolate" opacity=".1" stroke-width="0"/>
  <path d="M64.8,21.6s-6.5-9-15-9S.6,32.6.6,32.6l9.6,21.9,36.1-2.9,19.7-19.2-1.2-10.8Z" fill="#9f509f" stroke="#231f20" stroke-linecap="round" stroke-linejoin="round"/>
  <path d="M69,37.6c.4,2.5,4.3,24.5,11.2,43.7,4.6,13,23.1,49.9,23.1,49.9,0,0-16.7-22.7-27.1-41.2C60.7,62.8,56.6,17.2,64.8.5c.5,7.9,3.8,34.6,4.2,37.1Z" fill="#9f509f" stroke="#231f20" stroke-linecap="round" stroke-linejoin="round"/>
  <line x1="50" y1="26.3" x2="14.2" y2="40.6" fill="none" stroke="#231f20" stroke-linecap="round" stroke-linejoin="round" stroke-width=".25"/>
  <path d="M81.3,240.9c-2.2-20.4,1.6-49.8,13.4-66.9l-13.4,66.9Z" fill="#231f20" isolation="isolate" opacity=".15" stroke-width="0"/>
  <path d="M80.7,229.4c0-15.1,2.7-32.4,8.8-46" fill="none" stroke="#231f20" stroke-miterlimit="10" stroke-width=".25"/>
  <path d="M107.4,213.8c2.7-21.2,8.9-38.7,19.9-49.7l-19.9,49.7Z" fill="#231f20" isolation="isolate" opacity=".15" stroke-width="0"/>
  <path d="M104.8,121.6c11.7-5.7,17.2,5.9,21.4,36.1l-21.4-36.1Z" fill="#231f20" isolation="isolate" opacity=".08" stroke-width="0"/>
  <path d="M108.8,205.2c2.7-14.9,7.5-27.5,14.7-36.8" fill="none" stroke="#231f20" stroke-miterlimit="10" stroke-width=".25"/>
  <polygon points="122.8 100.5 152 104 146 109.6 122.8 100.5" fill="#231f20" isolation="isolate" opacity=".08" stroke-width="0"/>
  <polygon points="123 101.4 139.5 118.7 144.7 114.4 123 101.4" fill="#231f20" isolation="isolate" opacity=".08" stroke-width="0"/>
  <polyline points="121.2 101.1 136.2 129.3 139.5 122.2" fill="#231f20" isolation="isolate" opacity=".08" stroke-width="0"/>
  <polyline points="120.4 101.7 137.3 142 137.5 137.9" fill="#231f20" isolation="isolate" opacity=".08" stroke-width="0"/>
  <polyline points="119.7 103.2 129.3 152.4 133.6 146.7" fill="#231f20" isolation="isolate" opacity=".08" stroke-width="0"/>
  <line x1="120.8" y1="108.7" x2="127.2" y2="141.5" fill="none" stroke="#231f20" stroke-linecap="round" stroke-linejoin="round" stroke-width=".25"/>
  <line x1="120.4" y1="105.6" x2="131.9" y2="141.5" fill="none" stroke="#231f20" stroke-linecap="round" stroke-linejoin="round" stroke-width=".25"/>
  <line x1="123.7" y1="109.6" x2="134.9" y2="136.3" fill="none" stroke="#231f20" stroke-linecap="round" stroke-linejoin="round" stroke-width=".25"/>
  <line x1="122" y1="105.1" x2="136.3" y2="135.4" fill="none" stroke="#231f20" stroke-linecap="round" stroke-linejoin="round" stroke-width=".25"/>
  <line x1="123.5" y1="105.3" x2="134.3" y2="125.6" fill="none" stroke="#231f20" stroke-linecap="round" stroke-linejoin="round" stroke-width=".25"/>
  <line x1="122.8" y1="102.7" x2="137" y2="119.7" fill="none" stroke="#231f20" stroke-linecap="round" stroke-linejoin="round" stroke-width=".25"/>
  <line x1="126.2" y1="104.7" x2="136.7" y2="115.9" fill="none" stroke="#231f20" stroke-linecap="round" stroke-linejoin="round" stroke-width=".25"/>
  <line x1="124.9" y1="102.5" x2="142.5" y2="113.1" fill="none" stroke="#231f20" stroke-linecap="round" stroke-linejoin="round" stroke-width=".25"/>
  <line x1="127.2" y1="102.3" x2="143.4" y2="108.6" fill="none" stroke="#231f20" stroke-linecap="round" stroke-linejoin="round" stroke-width=".25"/>
  <line x1="125.6" y1="100.8" x2="148.3" y2="103.6" fill="none" stroke="#231f20" stroke-linecap="round" stroke-linejoin="round" stroke-width=".25"/>
</svg>