<?xml version="1.0" encoding="utf-8"?>
<!-- Generator: Adobe Illustrator 26.0.2, SVG Export Plug-In . SVG Version: 6.00 Build 0)  -->
<svg version="1.1" id="Layer_4" xmlns="http://www.w3.org/2000/svg" xmlns:xlink="http://www.w3.org/1999/xlink" x="0px" y="0px"
	 viewBox="0 0 708.7 708.7" style="enable-background:new 0 0 708.7 708.7;" xml:space="preserve">
<style type="text/css">
	.st0{fill:#EBF5FF;stroke:#000000;stroke-width:2;stroke-miterlimit:9.9999;}
	.st1{fill:none;stroke:#4B75B9;stroke-width:2;stroke-linecap:round;stroke-linejoin:round;stroke-miterlimit:10;}
	.st2{fill:none;stroke:#000000;stroke-width:2;stroke-linecap:round;stroke-linejoin:round;stroke-miterlimit:10;}
	.st3{fill:none;stroke:#000000;stroke-width:2;stroke-miterlimit:9.9999;}
</style>
<g>
	<rect x="12.8" y="11.5" class="st0" width="681.5" height="681.5"/>
	<g>
		<g>
			<line class="st1" x1="115.7" y1="553.1" x2="232.2" y2="541.3"/>
			<path class="st1" d="M157.1,616.6"/>
			<path class="st1" d="M138.9,572.6"/>
			<line class="st1" x1="181.3" y1="452.2" x2="274.3" y2="473"/>
			<line class="st1" x1="159.3" y1="447.3" x2="12.6" y2="493.7"/>
			<line class="st1" x1="190.3" y1="429.3" x2="159.3" y2="447.3"/>
			<line class="st1" x1="190.3" y1="429.3" x2="181.3" y2="452.2"/>
			<line class="st1" x1="157" y1="479.2" x2="170.9" y2="478.5"/>
			<line class="st1" x1="165.1" y1="363.5" x2="12.9" y2="11.5"/>
			<line class="st1" x1="274.3" y1="473" x2="133.1" y2="131.7"/>
			<line class="st1" x1="145.8" y1="479.8" x2="135.9" y2="454.7"/>
			<line class="st1" x1="453.3" y1="593.3" x2="494.6" y2="493.3"/>
			<line class="st1" x1="453.3" y1="593.3" x2="494.6" y2="693"/>
			<line class="st1" x1="453.3" y1="593.3" x2="394.7" y2="593.2"/>
			<line class="st1" x1="594.4" y1="651.7" x2="694.2" y2="692.9"/>
			<line class="st1" x1="594.4" y1="651.7" x2="494.6" y2="693"/>
			<line class="st1" x1="594.4" y1="651.7" x2="594.5" y2="593.2"/>
			<line class="st1" x1="594.5" y1="593.2" x2="494.6" y2="693"/>
			<line class="st1" x1="536" y1="593.3" x2="565.2" y2="622.5"/>
			<line class="st1" x1="374.3" y1="373" x2="274.4" y2="472.8"/>
			<line class="st1" x1="165.1" y1="363.5" x2="494.6" y2="693"/>
			<line class="st1" x1="154.1" y1="521.5" x2="165.1" y2="363.5"/>
			<line class="st1" x1="494.5" y1="493.2" x2="379.1" y2="516.3"/>
			<line class="st1" x1="379.1" y1="516.3" x2="274.4" y2="472.8"/>
			<line class="st1" x1="379.1" y1="516.3" x2="371.5" y2="570"/>
			<line class="st1" x1="318" y1="577.4" x2="394.9" y2="651.7"/>
			<line class="st1" x1="295.3" y1="692.9" x2="273.6" y2="471.7"/>
			<path class="st1" d="M154.2,521.4"/>
			<path class="st1" d="M295.2,693"/>
			<line class="st1" x1="148.7" y1="677" x2="159.8" y2="693"/>
			<line class="st1" x1="138.9" y1="693" x2="274.4" y2="472.8"/>
			<line class="st1" x1="189.6" y1="545.9" x2="274.4" y2="472.8"/>
			<line class="st1" x1="246" y1="574.4" x2="220.7" y2="560.2"/>
		</g>
		<g>
			<line class="st2" x1="189.6" y1="545.9" x2="220.7" y2="560.2"/>
			<line class="st2" x1="536" y1="593.3" x2="494.6" y2="493.3"/>
			<line class="st2" x1="536" y1="593.3" x2="494.6" y2="693"/>
			<line class="st2" x1="536" y1="593.3" x2="594.5" y2="593.2"/>
			<line class="st2" x1="594.4" y1="651.7" x2="565.2" y2="622.5"/>
			<line class="st2" x1="494.6" y1="693" x2="494.6" y2="493.3"/>
			<line class="st2" x1="295" y1="692.9" x2="232.2" y2="541.3"/>
			<line class="st2" x1="190.3" y1="429.3" x2="165.1" y2="363.5"/>
			<line class="st2" x1="190.3" y1="429.3" x2="274.3" y2="473"/>
			<line class="st2" x1="394.9" y1="651.7" x2="295" y2="692.9"/>
			<line class="st2" x1="394.9" y1="651.7" x2="494.6" y2="693"/>
			<line class="st2" x1="394.9" y1="651.7" x2="394.7" y2="593.2"/>
			<line class="st2" x1="379.1" y1="516.3" x2="453.3" y2="593.3"/>
			<line class="st2" x1="494.6" y1="493.6" x2="273.4" y2="471.9"/>
			<line class="st2" x1="253.6" y1="252.6" x2="275.3" y2="473.8"/>
			<line class="st2" x1="295" y1="692.6" x2="318" y2="577.4"/>
			<line class="st2" x1="318" y1="577.4" x2="274.6" y2="472.7"/>
			<line class="st2" x1="318" y1="577.4" x2="371.5" y2="570"/>
			<line class="st2" x1="154.1" y1="521.5" x2="274.4" y2="472.8"/>
			<line class="st2" x1="154.1" y1="521.5" x2="12.6" y2="637.7"/>
			<line class="st2" x1="148.7" y1="677" x2="12.6" y2="637.7"/>
			<line class="st2" x1="56.1" y1="693" x2="12.6" y2="637.7"/>
			<line class="st2" x1="246" y1="574.4" x2="274.4" y2="472.8"/>
			<line class="st2" x1="115.7" y1="553.1" x2="159.3" y2="447.3"/>
			<line class="st2" x1="145.8" y1="479.8" x2="157" y2="479.2"/>
			<line class="st2" x1="170.9" y1="478.5" x2="274.3" y2="473"/>
			<line class="st2" x1="135.9" y1="454.7" x2="12.6" y2="143.6"/>
			<line class="st2" x1="159.3" y1="447.3" x2="181.3" y2="452.2"/>
			<line class="st2" x1="181.3" y1="452.2" x2="153.9" y2="521.6"/>
		</g>
	</g>
	<g>
		<g>
			<line class="st1" x1="494.7" y1="493.6" x2="594.4" y2="593.4"/>
			<line class="st1" x1="253.7" y1="252.6" x2="375.1" y2="374.1"/>
			<line class="st1" x1="12.8" y1="11.7" x2="133" y2="131.9"/>
			<line class="st1" x1="542.6" y1="231.1" x2="554.3" y2="114.5"/>
			<path class="st1" d="M617.8,155.9"/>
			<path class="st1" d="M573.9,137.7"/>
			<line class="st1" x1="474.2" y1="273.1" x2="453.4" y2="180.2"/>
			<line class="st1" x1="494.9" y1="11.5" x2="448.5" y2="158.1"/>
			<line class="st1" x1="448.5" y1="158.1" x2="430.5" y2="189.1"/>
			<line class="st1" x1="453.4" y1="180.2" x2="430.5" y2="189.1"/>
			<line class="st1" x1="479.7" y1="169.8" x2="480.5" y2="155.9"/>
			<line class="st1" x1="12.8" y1="11.7" x2="364.8" y2="164"/>
			<line class="st1" x1="133" y1="131.9" x2="474.2" y2="273.1"/>
			<line class="st1" x1="455.9" y1="134.7" x2="481.1" y2="144.7"/>
			<line class="st1" x1="494.5" y1="493.5" x2="594.6" y2="452.2"/>
			<line class="st1" x1="694.3" y1="493.5" x2="594.6" y2="452.2"/>
			<line class="st1" x1="594.4" y1="393.6" x2="594.6" y2="452.2"/>
			<line class="st1" x1="694.1" y1="693.1" x2="653" y2="593.2"/>
			<line class="st1" x1="694.3" y1="493.5" x2="653" y2="593.2"/>
			<line class="st1" x1="594.4" y1="593.4" x2="653" y2="593.2"/>
			<line class="st1" x1="694.3" y1="493.5" x2="594.4" y2="593.4"/>
			<line class="st1" x1="623.8" y1="564" x2="594.6" y2="534.8"/>
			<line class="st1" x1="474.1" y1="273.3" x2="374.2" y2="373.2"/>
			<line class="st1" x1="694.3" y1="493.5" x2="364.8" y2="164"/>
			<line class="st1" x1="364.8" y1="164" x2="522.7" y2="152.9"/>
			<line class="st1" x1="517.5" y1="378" x2="494.4" y2="493.3"/>
			<line class="st1" x1="474.1" y1="273.3" x2="517.5" y2="378"/>
			<line class="st1" x1="571.2" y1="370.4" x2="517.5" y2="378"/>
			<line class="st1" x1="653" y1="393.8" x2="578.6" y2="316.9"/>
			<line class="st1" x1="473" y1="272.4" x2="694.1" y2="294.2"/>
			<path class="st1" d="M522.6,153.1"/>
			<path class="st1" d="M694.3,294"/>
			<line class="st1" x1="694.3" y1="158.6" x2="678.3" y2="147.6"/>
			<line class="st1" x1="474.1" y1="273.3" x2="694.3" y2="137.7"/>
			<line class="st1" x1="474.1" y1="273.3" x2="547.1" y2="188.5"/>
			<line class="st1" x1="561.4" y1="219.5" x2="575.7" y2="244.8"/>
		</g>
		<g>
			<line class="st2" x1="594.4" y1="593.4" x2="694.1" y2="693.1"/>
			<line class="st2" x1="375.1" y1="374.1" x2="494.7" y2="493.6"/>
			<line class="st2" x1="133" y1="131.9" x2="253.7" y2="252.6"/>
			<line class="st2" x1="561.4" y1="219.5" x2="547.1" y2="188.5"/>
			<line class="st2" x1="494.5" y1="493.5" x2="594.6" y2="534.8"/>
			<line class="st2" x1="694.3" y1="493.5" x2="594.6" y2="534.8"/>
			<line class="st2" x1="594.4" y1="593.4" x2="594.6" y2="534.8"/>
			<line class="st2" x1="623.8" y1="564" x2="653" y2="593.2"/>
			<line class="st2" x1="494.5" y1="493.5" x2="694.3" y2="493.5"/>
			<line class="st2" x1="542.6" y1="231.1" x2="694.1" y2="293.9"/>
			<line class="st2" x1="364.8" y1="164" x2="430.5" y2="189.1"/>
			<line class="st2" x1="474.2" y1="273.1" x2="430.5" y2="189.1"/>
			<line class="st2" x1="694.1" y1="293.9" x2="653" y2="393.8"/>
			<line class="st2" x1="694.3" y1="493.5" x2="653" y2="393.8"/>
			<line class="st2" x1="594.4" y1="393.6" x2="653" y2="393.8"/>
			<line class="st2" x1="594.6" y1="452.2" x2="517.5" y2="378"/>
			<line class="st2" x1="473.1" y1="272.3" x2="494.8" y2="493.5"/>
			<line class="st2" x1="475" y1="274.2" x2="253.8" y2="252.5"/>
			<line class="st2" x1="578.6" y1="316.9" x2="693.9" y2="293.9"/>
			<line class="st2" x1="473.9" y1="273.4" x2="578.6" y2="316.9"/>
			<line class="st2" x1="571.2" y1="370.4" x2="578.6" y2="316.9"/>
			<line class="st2" x1="474.1" y1="273.3" x2="522.7" y2="152.9"/>
			<line class="st2" x1="639" y1="11.5" x2="522.7" y2="152.9"/>
			<line class="st2" x1="639" y1="11.5" x2="678.3" y2="147.6"/>
			<line class="st2" x1="639" y1="11.5" x2="694.3" y2="54.9"/>
			<line class="st2" x1="474.1" y1="273.3" x2="575.7" y2="244.8"/>
			<line class="st2" x1="448.5" y1="158.1" x2="554.3" y2="114.5"/>
			<line class="st2" x1="480.5" y1="155.9" x2="481.1" y2="144.7"/>
			<line class="st2" x1="474.2" y1="273.1" x2="479.7" y2="169.8"/>
			<line class="st2" x1="144.8" y1="11.5" x2="455.9" y2="134.7"/>
			<line class="st2" x1="453.4" y1="180.2" x2="448.5" y2="158.1"/>
			<line class="st2" x1="522.9" y1="152.8" x2="453.4" y2="180.2"/>
		</g>
	</g>
	<rect x="12.8" y="11.5" class="st3" width="681.5" height="681.5"/>
</g>
</svg>
