<?xml version="1.0" encoding="utf-8"?>
<!-- Generator: Adobe Illustrator 23.0.4, SVG Export Plug-In . SVG Version: 6.00 Build 0)  -->
<svg version="1.1" xmlns="http://www.w3.org/2000/svg" xmlns:xlink="http://www.w3.org/1999/xlink" x="0px" y="0px"
	 viewBox="0 0 150.86 147.33" style="enable-background:new 0 0 150.86 147.33;" xml:space="preserve">
<style type="text/css">
	.st0{fill:#FFFFFF;}
	.st1{opacity:0.5;fill:#FFCE6A;}
	.st2{fill:none;stroke:#FF7815;stroke-miterlimit:10;}
	.st3{opacity:0.4;fill:#FF2F92;}
	.st4{opacity:0.2;fill:none;stroke:#662D91;stroke-width:2;stroke-linecap:round;stroke-linejoin:round;stroke-miterlimit:10;}
	.st5{opacity:0.3;}
	.st6{fill:none;stroke:#000000;stroke-linecap:round;stroke-linejoin:round;}
	.st7{fill:none;stroke:#000000;stroke-linecap:round;stroke-linejoin:round;stroke-dasharray:3.1269,3.1269;}
	.st8{opacity:0.6;fill:#93278F;}
	.st9{fill:none;stroke:#93278F;stroke-miterlimit:10;}
	.st10{fill:none;stroke:#000000;stroke-linecap:round;stroke-linejoin:round;stroke-dasharray:3.5054,3.5054;}
	.st11{fill:none;stroke:#FF2F92;stroke-linejoin:round;stroke-miterlimit:10;}
	.st12{fill:#FF2F92;}
</style>
<g id="Layer_5">
	<circle class="st0" cx="74.63" cy="70.74" r="64.32"/>
	<circle class="st1" cx="74.63" cy="70.74" r="64.32"/>
	<circle class="st2" cx="74.63" cy="70.74" r="64.32"/>
	<polyline class="st0" points="58.38,132.99 136.97,86.64 116.5,21.86 17.81,40.57 58.38,132.99 	"/>
	<polyline class="st3" points="58.38,132.99 136.97,86.64 116.31,22.03 17.81,40.57 58.38,132.99 	"/>
	<polyline class="st4" points="106.28,80.57 34.34,51.34 42.52,60.9 	"/>
	<polyline class="st4" points="32.45,57.8 56.81,115.47 57.79,102.93 	"/>
	<polyline class="st4" points="77.42,116.05 121.07,90.85 108.5,91.43 	"/>
	<polyline class="st4" points="98.27,28.87 58.19,36.03 70.57,38.26 	"/>
	<polyline class="st4" points="70.18,57.52 122.52,77.36 114.13,67.99 	"/>
	<polyline class="st4" points="129.58,78.66 115.94,39.89 114.19,52.35 	"/>
</g>
<g id="Layer_6" class="st5">
	<g>
		<g>
			<line class="st6" x1="18.06" y1="41.05" x2="19.84" y2="41.05"/>
			<line class="st7" x1="22.96" y1="41.05" x2="40.16" y2="41.05"/>
			<line class="st6" x1="41.73" y1="41.05" x2="43.51" y2="41.05"/>
		</g>
	</g>
</g>
<g id="Angle_Areas">
	<polygon class="st8" points="18.39,40.9 66.77,59.28 69.54,48.98 70.18,40.9 55.27,40.9 54.54,34.04 	"/>
	<path class="st8" d="M121.22,36.79c-1.51,0.49-2.46,0.56-4.14,0.56c-7.55,0-13.84-5.4-15.21-12.56l14.64-2.94L121.22,36.79z"/>
	<path class="st8" d="M73.36,124.49c-3.14-4.65-8.46-7.71-14.49-7.71c-2.41,0-4.71,0.49-6.8,1.37l6.37,14.99L73.36,124.49z"/>
	<path class="st8" d="M52.49,54.04c1.6-4.14,2.3-8.16,2.3-12.87c0-2.56-0.26-5.05-0.75-7.46l-36.29,7.46L52.49,54.04z"/>
</g>
<g id="Angles">
	<path class="st9" d="M70.18,40.9c0,6.48-1.21,12.68-3.42,18.38"/>
	<path class="st9" d="M121.22,36.79c-1.51,0.49-2.46,0.56-4.14,0.56c-7.55,0-13.84-5.4-15.21-12.56"/>
	<path class="st9" d="M73.36,124.49c-3.14-4.65-8.46-7.71-14.49-7.71c-2.41,0-4.71,0.49-6.8,1.37"/>
	<path class="st9" d="M54.06,34.04c0.47,2.34,0.72,4.77,0.72,7.25c0,4.58-0.76,8.72-2.3,12.75"/>
</g>
<g id="Overlay">
	<g>
		<g>
			<line class="st6" x1="54.78" y1="41.05" x2="56.56" y2="41.05"/>
			<line class="st10" x1="60.07" y1="41.05" x2="142.45" y2="41.05"/>
			<line class="st6" x1="144.2" y1="41.05" x2="145.98" y2="41.05"/>
		</g>
	</g>
</g>
<g id="Outlines">
	<polygon class="st11" points="17.81,40.57 136.97,86.64 58.38,132.99 	"/>
	<polygon class="st11" points="136.97,86.64 17.81,40.57 116.5,21.86 	"/>
	<circle class="st12" cx="17.81" cy="40.57" r="1.74"/>
	<circle class="st12" cx="136.97" cy="86.64" r="1.74"/>
	<circle class="st12" cx="58.19" cy="132.99" r="1.74"/>
	<circle class="st12" cx="116.51" cy="21.86" r="1.74"/>
</g>
<g id="Text">
	<g>
		<path d="M47.05,48.28l0.49-3.16c-0.75-0.04-1.33-0.17-1.72-0.38s-0.69-0.49-0.9-0.85s-0.31-0.75-0.31-1.19
			c0-0.9,0.34-1.7,1.02-2.41s1.63-1.05,2.84-1.05l0.38-2.54c0.22-0.12,0.39-0.21,0.51-0.25l0.08,0.08c-0.21,0.7-0.42,1.6-0.63,2.71
			c0.62,0,1.14,0.09,1.58,0.26s0.77,0.42,1.01,0.75s0.35,0.74,0.35,1.24c0,0.37-0.06,0.75-0.19,1.16s-0.31,0.77-0.55,1.1
			s-0.54,0.58-0.88,0.79s-0.69,0.34-1.05,0.42s-0.75,0.13-1.16,0.16c-0.1,0.9-0.15,1.68-0.15,2.34l0.01,0.61
			c-0.16,0.12-0.36,0.24-0.62,0.33L47.05,48.28z M48.43,39.52c-0.89,0.03-1.58,0.33-2.09,0.9s-0.76,1.32-0.76,2.25
			c0,0.66,0.15,1.18,0.45,1.55s0.81,0.58,1.54,0.64L48.43,39.52z M47.95,44.84c0.28-0.01,0.54-0.04,0.76-0.1s0.46-0.17,0.71-0.33
			s0.47-0.37,0.66-0.63s0.35-0.58,0.47-0.97s0.19-0.77,0.19-1.17c0-0.6-0.16-1.1-0.47-1.5s-0.82-0.61-1.52-0.62L47.95,44.84z"/>
	</g>
	<g>
		<path d="M115.24,25.85l-0.12,0.05c-0.36-0.23-0.76-0.35-1.18-0.35c-0.31,0-0.56,0.07-0.76,0.2s-0.29,0.29-0.29,0.49
			s0.08,0.41,0.25,0.65s0.53,0.58,1.08,1.01c0.37,0.29,0.63,0.5,0.76,0.63s0.26,0.27,0.38,0.44s0.2,0.36,0.26,0.56
			s0.09,0.44,0.09,0.71c0,0.62-0.15,1.21-0.45,1.79s-0.69,1.03-1.15,1.36s-1,0.49-1.61,0.49c-0.65,0-1.13-0.18-1.43-0.54
			s-0.45-0.88-0.45-1.56c0-0.45,0.08-0.9,0.25-1.35s0.39-0.84,0.68-1.17s0.57-0.57,0.87-0.71s0.62-0.26,0.99-0.35l0.02-0.08
			c-0.52-0.34-0.88-0.62-1.08-0.86s-0.3-0.48-0.3-0.74c0-0.37,0.22-0.67,0.66-0.91s0.94-0.35,1.5-0.35c0.32,0,0.62,0.03,0.9,0.1
			C115.16,25.53,115.21,25.69,115.24,25.85z M113.65,28.33c-0.7,0.2-1.23,0.58-1.58,1.15s-0.53,1.31-0.53,2.22
			c0,0.56,0.11,1.01,0.32,1.35s0.53,0.51,0.94,0.51c0.39,0,0.74-0.15,1.03-0.44s0.53-0.68,0.71-1.17s0.26-0.98,0.26-1.49
			c0-0.47-0.09-0.87-0.28-1.19S114.05,28.64,113.65,28.33z"/>
	</g>
	<g>
		<path d="M60.04,125.36l0.08,0.05c0.32-0.45,0.71-0.95,1.17-1.51c0.43-0.52,0.76-0.94,0.98-1.24s0.38-0.6,0.5-0.89
			s0.17-0.54,0.17-0.74c0-0.13-0.03-0.33-0.1-0.6l0.07-0.13c0.4-0.18,0.67-0.26,0.8-0.26c0.08,0,0.13,0.03,0.16,0.1
			s0.04,0.15,0.04,0.26c0,0.2-0.06,0.45-0.17,0.75s-0.29,0.61-0.52,0.92s-0.58,0.73-1.05,1.26c-0.43,0.47-0.88,1-1.37,1.6
			s-0.8,0.98-0.93,1.16c-0.04,0.23-0.16,0.68-0.35,1.34s-0.32,1.07-0.38,1.24c-0.26,0.13-0.5,0.22-0.73,0.26
			c-0.06-0.09-0.11-0.18-0.16-0.28c0.08-0.21,0.29-0.64,0.63-1.3s0.6-1.1,0.78-1.33c0.18-1.02,0.27-2.02,0.27-2.99
			c0-0.79-0.11-1.36-0.34-1.74s-0.54-0.56-0.93-0.56c-0.21,0-0.38,0.04-0.52,0.13s-0.29,0.22-0.44,0.41l-0.08,0.01l-0.06-0.05v-0.08
			c0.29-0.46,0.56-0.77,0.81-0.93s0.51-0.23,0.79-0.23c0.48,0,0.82,0.18,1.03,0.55s0.31,0.93,0.31,1.67c0,0.48-0.04,0.96-0.11,1.45
			S60.2,124.7,60.04,125.36z"/>
	</g>
	<g>
		<path d="M62.64,29.11l0.58-0.39l0.12,0.04c-0.01,0.07-0.01,0.13-0.01,0.18c0,0.24,0.08,0.44,0.23,0.6s0.33,0.23,0.55,0.23
			c0.14,0,0.29-0.04,0.44-0.11s0.29-0.18,0.42-0.33c0.17-0.2,0.35-0.51,0.55-0.96s0.42-1.08,0.67-1.92l0.45-1.63
			c-0.29,0.43-0.58,0.81-0.87,1.13c-0.51,0.56-0.85,0.89-1.02,0.99s-0.3,0.15-0.41,0.15c-0.12,0-0.23-0.06-0.32-0.19
			c-0.14-0.2-0.21-0.48-0.21-0.86c0-0.15,0.03-0.46,0.08-0.94c0.09-0.86,0.14-1.61,0.14-2.26c0-0.26-0.01-0.45-0.04-0.57
			c-0.02-0.07-0.04-0.13-0.08-0.16c-0.03-0.02-0.06-0.04-0.1-0.04c-0.12,0-0.36,0.14-0.74,0.43c-0.07,0.05-0.12,0.09-0.15,0.11
			l-0.16-0.21c0.46-0.39,0.88-0.71,1.27-0.95c0.22-0.14,0.39-0.21,0.52-0.21c0.11,0,0.2,0.05,0.27,0.15s0.1,0.3,0.1,0.6
			c0,0.25-0.04,0.79-0.11,1.61c-0.09,0.96-0.13,1.65-0.13,2.08c0,0.2,0.02,0.33,0.07,0.4c0.04,0.05,0.09,0.08,0.16,0.08
			s0.13-0.02,0.2-0.05c0.15-0.08,0.33-0.23,0.53-0.44s0.4-0.45,0.58-0.73c0.3-0.45,0.56-0.96,0.77-1.55c0.13-0.36,0.31-1,0.53-1.93
			c0.23-0.04,0.53-0.11,0.88-0.22l0.13,0.12c-0.11,0.23-0.22,0.5-0.32,0.81c-0.18,0.53-0.44,1.35-0.76,2.45
			c-0.26,0.89-0.45,1.53-0.58,1.9c-0.24,0.72-0.49,1.3-0.74,1.76s-0.57,0.86-0.93,1.21c-0.27,0.27-0.55,0.46-0.82,0.58
			s-0.54,0.18-0.78,0.18c-0.17,0-0.34-0.04-0.51-0.13s-0.29-0.2-0.38-0.35s-0.13-0.3-0.13-0.47C62.61,29.26,62.62,29.19,62.64,29.11
			z"/>
	</g>
	<g>
		<path d="M98.13,112.38l-0.12-0.23c0.36-0.27,0.83-0.57,1.42-0.89c0.24-0.13,0.43-0.2,0.56-0.2c0.07,0,0.14,0.03,0.18,0.08
			s0.07,0.13,0.07,0.23c0,0.09-0.03,0.26-0.09,0.52c-0.55,2.22-0.82,3.53-0.82,3.92c0,0.09,0.02,0.16,0.05,0.2s0.08,0.06,0.13,0.06
			c0.07,0,0.16-0.03,0.27-0.09c0.29-0.15,0.6-0.41,0.96-0.78s0.67-0.78,0.97-1.26c0.18-0.28,0.33-0.62,0.46-1.03
			s0.26-0.96,0.39-1.65c0.1-0.02,0.37-0.08,0.8-0.19l0.09,0.09l-0.32,1.06c-0.15,0.55-0.3,1.16-0.44,1.81s-0.23,1.11-0.27,1.38
			c-0.02,0.13-0.02,0.26-0.02,0.39c0,0.1,0.02,0.17,0.05,0.21s0.08,0.06,0.13,0.06s0.13-0.03,0.22-0.08s0.33-0.22,0.72-0.52
			l0.13,0.22c-0.66,0.54-1.13,0.88-1.41,1.04c-0.2,0.11-0.36,0.17-0.47,0.17c-0.07,0-0.14-0.04-0.2-0.11s-0.09-0.17-0.09-0.31
			c0-0.08,0.01-0.18,0.02-0.29c0.03-0.18,0.11-0.54,0.22-1.08l0.24-1.03l-0.04-0.02c-0.4,0.57-0.64,0.9-0.71,1
			c-0.29,0.36-0.63,0.7-1,1.03s-0.74,0.58-1.08,0.74c-0.11,0.05-0.21,0.08-0.29,0.08c-0.11,0-0.21-0.05-0.29-0.16
			s-0.13-0.27-0.13-0.5c0-0.3,0.08-0.76,0.23-1.38c0.22-0.91,0.38-1.62,0.48-2.15c0.06-0.34,0.09-0.56,0.09-0.67
			c0-0.06-0.01-0.11-0.04-0.14s-0.06-0.05-0.11-0.05C98.93,111.89,98.62,112.05,98.13,112.38z"/>
	</g>
	<g>
		<path d="M30.12,90.63l0.49-1.39c0.18-0.06,0.35-0.09,0.5-0.09c0.14,0,0.3,0.01,0.47,0.02c0.48,0.05,0.82,0.08,1,0.08
			c0.21,0,0.42-0.03,0.62-0.1l0.11,0.16c-0.34,0.45-0.56,0.74-0.66,0.89c-0.22,0.34-0.4,0.67-0.54,1s-0.25,0.64-0.31,0.95
			s-0.1,0.61-0.1,0.9c0,0.43,0.09,0.75,0.27,0.96s0.4,0.31,0.67,0.31c0.3,0,0.6-0.13,0.89-0.39c0.39-0.34,0.71-0.84,0.96-1.51
			s0.37-1.25,0.37-1.73c0-0.29-0.05-0.49-0.16-0.63c-0.08-0.1-0.2-0.15-0.36-0.15c-0.1,0-0.21,0.03-0.32,0.1l-0.13-0.21
			c0.12-0.1,0.22-0.18,0.29-0.25l0.37-0.39c0.07-0.04,0.15-0.05,0.23-0.05c0.15,0,0.29,0.04,0.42,0.13s0.23,0.21,0.3,0.38
			s0.11,0.37,0.11,0.59c0,0.38-0.07,0.77-0.2,1.19s-0.32,0.84-0.55,1.25s-0.49,0.78-0.77,1.1c-0.37,0.42-0.72,0.72-1.06,0.91
			s-0.63,0.28-0.86,0.28c-0.21,0-0.43-0.06-0.64-0.19s-0.39-0.31-0.5-0.54s-0.18-0.51-0.18-0.81c0-0.57,0.13-1.13,0.38-1.67
			s0.72-1.19,1.4-1.94c-0.2,0.04-0.4,0.05-0.6,0.05l-0.52-0.02c-0.25,0-0.49,0.02-0.71,0.06c-0.08,0.12-0.22,0.37-0.42,0.74
			L30.12,90.63z"/>
	</g>
	<g>
		<path d="M130.37,58.73l0.11-0.59c0.02-0.12,0.03-0.27,0.04-0.45l0.23-0.04l0.13,0.34c0.11,0.07,0.2,0.1,0.28,0.1
			c0.14,0,0.26-0.03,0.36-0.1c0.18-0.11,0.4-0.33,0.66-0.67c0.13-0.17,0.38-0.55,0.75-1.15c-0.16-1.14-0.34-1.87-0.53-2.16
			c-0.09-0.14-0.22-0.22-0.39-0.22c-0.11,0-0.22,0.02-0.32,0.07s-0.23,0.16-0.4,0.34l-0.15,0.15l-0.21-0.12l0.7-1
			c0.1-0.07,0.21-0.12,0.33-0.16s0.24-0.05,0.37-0.05c0.38,0,0.67,0.17,0.87,0.52c0.14,0.26,0.26,0.8,0.35,1.64l0.66-0.99
			c0.2-0.29,0.4-0.54,0.63-0.76c0.16-0.16,0.31-0.28,0.45-0.34s0.26-0.09,0.38-0.09c0.12,0,0.24,0.03,0.36,0.1
			c-0.07,0.32-0.13,0.66-0.18,1.02l-0.16,0.04c-0.06-0.11-0.11-0.18-0.17-0.21s-0.12-0.05-0.21-0.05c-0.13,0-0.25,0.03-0.37,0.09
			c-0.16,0.09-0.34,0.25-0.53,0.47c-0.12,0.14-0.39,0.5-0.79,1.07c0.13,0.8,0.23,1.33,0.29,1.59c0.11,0.42,0.23,0.7,0.36,0.84
			c0.09,0.09,0.18,0.13,0.29,0.13s0.22-0.03,0.34-0.1s0.31-0.22,0.58-0.45l0.13,0.21c-0.48,0.46-0.88,0.78-1.18,0.97
			c-0.14,0.09-0.29,0.13-0.43,0.13c-0.25,0-0.46-0.15-0.6-0.46s-0.28-0.92-0.4-1.83c-0.64,1.07-1.15,1.76-1.51,2.06
			c-0.2,0.16-0.42,0.25-0.65,0.25C130.67,58.89,130.51,58.84,130.37,58.73z"/>
	</g>
	<g>
		<path d="M109.69,70.79l0.11,0.22c-0.23,0.21-0.5,0.42-0.8,0.64s-0.56,0.38-0.78,0.47c-0.12,0.05-0.21,0.08-0.28,0.08
			c-0.07,0-0.13-0.04-0.19-0.12s-0.09-0.21-0.09-0.4c0-0.12,0.01-0.26,0.04-0.41s0.15-0.7,0.36-1.64l-0.03-0.01
			c-0.29,0.5-0.65,0.97-1.07,1.4s-0.83,0.76-1.23,0.98c-0.25,0.14-0.46,0.21-0.62,0.21s-0.29-0.11-0.39-0.34s-0.15-0.51-0.15-0.84
			c0-0.46,0.07-0.97,0.2-1.53s0.31-1.05,0.52-1.47c0.16-0.32,0.35-0.57,0.56-0.77c0.33-0.3,0.71-0.55,1.14-0.74
			c0.21-0.09,0.43-0.13,0.68-0.13c0.2,0,0.52,0.05,0.96,0.14l0.26-1.47c0.05-0.32,0.08-0.51,0.08-0.59c0-0.12-0.02-0.21-0.07-0.25
			s-0.15-0.07-0.3-0.07l-0.57-0.01l0.03-0.23c0.48-0.06,0.83-0.12,1.05-0.19s0.49-0.18,0.81-0.35l0.15,0.12
			c-0.06,0.23-0.17,0.74-0.32,1.51c-0.09,0.49-0.35,1.73-0.77,3.72c-0.21,0.98-0.34,1.67-0.4,2.06c-0.02,0.12-0.02,0.24-0.02,0.34
			c0,0.11,0.02,0.18,0.05,0.22s0.07,0.06,0.12,0.06c0.07,0,0.17-0.04,0.29-0.12C109.29,71.11,109.51,70.95,109.69,70.79z
			 M108.53,67.19c-0.36-0.19-0.74-0.29-1.13-0.29c-0.29,0-0.52,0.04-0.7,0.12c-0.13,0.05-0.24,0.15-0.34,0.28s-0.22,0.41-0.38,0.83
			s-0.26,0.81-0.34,1.14c-0.13,0.55-0.19,1.06-0.19,1.52c0,0.18,0.01,0.3,0.04,0.38s0.05,0.12,0.09,0.15s0.08,0.04,0.14,0.04
			c0.1,0,0.2-0.03,0.32-0.08c0.3-0.15,0.59-0.35,0.86-0.61s0.52-0.55,0.74-0.89s0.4-0.7,0.53-1.08
			C108.25,68.44,108.37,67.93,108.53,67.19z"/>
	</g>
	<g>
		<path d="M67.1,89.63l0.04-0.29l0.4-0.15c0.04-0.02,0.09-0.05,0.16-0.1c0.07-0.22,0.13-0.48,0.19-0.78
			c0.19-0.94,0.39-1.97,0.58-3.1s0.33-2.01,0.41-2.63c0.03-0.21,0.04-0.38,0.04-0.48c0-0.12-0.02-0.2-0.06-0.26s-0.1-0.09-0.17-0.11
			c-0.1-0.02-0.37-0.04-0.81-0.05v-0.36c0.84,0.04,1.37,0.06,1.59,0.06c0.14,0,0.46-0.01,0.95-0.02c0.27-0.01,0.53-0.01,0.76-0.01
			c0.68,0,1.18,0.1,1.51,0.29c0.46,0.28,0.69,0.7,0.69,1.27c0,0.38-0.1,0.72-0.3,1.03s-0.49,0.6-0.87,0.85
			c-0.24,0.16-0.57,0.31-0.99,0.46c0.55,0.08,0.93,0.17,1.13,0.26c0.27,0.12,0.48,0.3,0.63,0.54s0.22,0.52,0.22,0.85
			c0,0.31-0.07,0.61-0.2,0.9s-0.31,0.55-0.53,0.77s-0.51,0.43-0.85,0.62s-0.62,0.31-0.84,0.36s-0.55,0.08-0.98,0.08
			c-0.23,0-0.52-0.01-0.87-0.02c-0.54-0.02-0.85-0.02-0.93-0.02C67.76,89.59,67.45,89.61,67.1,89.63z M68.76,89.04
			c0.38,0.1,0.81,0.15,1.3,0.15c0.48,0,0.86-0.08,1.15-0.25s0.52-0.42,0.69-0.76s0.25-0.72,0.25-1.12c0-0.57-0.17-0.96-0.5-1.18
			s-0.84-0.33-1.53-0.33c-0.25,0-0.52,0.01-0.81,0.04c-0.04,0.22-0.09,0.5-0.15,0.84l-0.31,1.91
			C68.81,88.58,68.78,88.82,68.76,89.04z M69.39,85.1c0.25,0.02,0.45,0.02,0.62,0.02c0.38,0,0.7-0.04,0.94-0.11s0.47-0.19,0.69-0.36
			s0.4-0.39,0.54-0.67s0.21-0.58,0.21-0.92c0-0.41-0.13-0.73-0.38-0.96s-0.65-0.35-1.19-0.35c-0.25,0-0.53,0.03-0.83,0.08
			C69.78,82.74,69.59,83.82,69.39,85.1z"/>
	</g>
	<g>
		<path d="M84.21,57.52v-0.35c0.35-0.03,0.55-0.06,0.6-0.08c0.03-0.01,0.06-0.03,0.09-0.06s0.18-0.24,0.43-0.62l0.54-0.84l4.05-6.42
			h0.56l0.98,7.08c0.05,0.33,0.09,0.55,0.12,0.66c0.03,0.07,0.06,0.12,0.1,0.16s0.1,0.06,0.18,0.07c0.02,0,0.23,0.03,0.62,0.06v0.35
			l-1.56-0.05c-0.1,0-0.55,0.02-1.35,0.05v-0.35c0.42-0.02,0.69-0.03,0.8-0.05c0.07-0.02,0.13-0.05,0.16-0.09s0.05-0.11,0.05-0.21
			c0-0.05,0-0.11-0.01-0.17l-0.07-0.73l-0.23-1.73h-2.92l-0.93,1.54c-0.34,0.59-0.53,0.95-0.58,1.07c-0.02,0.05-0.02,0.09-0.02,0.13
			c0,0.05,0.02,0.09,0.06,0.12s0.14,0.06,0.29,0.07c0.07,0.01,0.28,0.02,0.64,0.04v0.35l-1.58-0.05
			C84.97,57.47,84.63,57.49,84.21,57.52z M87.63,53.74h2.58l-0.45-3.4L87.63,53.74z"/>
	</g>
	<g>
		<path d="M63.1,49.59h0.08l0.07,0.07l0.01,0.08c-0.76,0.8-1.34,1.2-1.72,1.2c-0.21,0-0.34-0.1-0.41-0.31s-0.11-0.68-0.13-1.42
			l-0.05-0.04c-0.45,0.53-0.93,0.95-1.44,1.27s-0.99,0.48-1.46,0.48c-0.7,0-1.05-0.43-1.05-1.29c0-0.42,0.1-0.92,0.31-1.51
			s0.49-1.12,0.85-1.6s0.75-0.85,1.18-1.09s0.85-0.37,1.28-0.37c0.25,0,0.44,0.04,0.58,0.12s0.25,0.2,0.33,0.35s0.13,0.34,0.15,0.58
			s0.04,0.61,0.04,1.12c0,0.06,0,0.19-0.01,0.39l0.07,0.05c0.25-0.41,0.49-0.82,0.71-1.25s0.37-0.82,0.44-1.17h0.13
			c0.1,0.18,0.19,0.36,0.28,0.54c-0.4,0.77-0.93,1.55-1.57,2.36c0,0.31,0.02,0.67,0.06,1.08s0.1,0.65,0.17,0.73s0.16,0.12,0.25,0.12
			c0.11,0,0.23-0.03,0.34-0.09S62.88,49.8,63.1,49.59z M60.99,48.78c0-0.17,0.01-0.28,0.01-0.33c0-0.66-0.03-1.21-0.09-1.67
			s-0.15-0.78-0.28-0.98s-0.32-0.29-0.57-0.29c-0.16,0-0.32,0.05-0.48,0.14s-0.33,0.25-0.51,0.46s-0.36,0.5-0.55,0.88
			s-0.33,0.77-0.44,1.19s-0.16,0.81-0.16,1.19c0,0.34,0.06,0.6,0.18,0.77s0.31,0.26,0.59,0.26c0.35,0,0.73-0.15,1.13-0.46
			S60.6,49.26,60.99,48.78z"/>
	</g>
	<g>
		<path d="M35.87,136c0.27-0.36,0.47-0.61,0.62-0.76c0.23-0.24,0.48-0.44,0.73-0.6s0.5-0.28,0.76-0.35s0.48-0.11,0.66-0.11
			c0.16,0,0.29,0.06,0.37,0.18c0.14,0.23,0.22,0.58,0.22,1.07c0,0.66-0.15,1.35-0.44,2.06c-0.22,0.55-0.5,1-0.82,1.35
			s-0.7,0.64-1.11,0.86s-0.79,0.33-1.12,0.33c-0.34,0-0.63-0.1-0.87-0.31s-0.36-0.43-0.36-0.66c0-0.09,0.01-0.18,0.02-0.27
			c0.01-0.07,0.05-0.29,0.13-0.66c0.14-0.62,0.43-2.15,0.87-4.61c0.13-0.73,0.19-1.17,0.19-1.33c0-0.1-0.03-0.16-0.09-0.19
			c-0.08-0.05-0.38-0.07-0.89-0.08l0.03-0.25c0.57-0.07,0.97-0.14,1.2-0.2s0.48-0.16,0.75-0.29l0.15,0.12
			c-0.05,0.19-0.12,0.46-0.18,0.79L35.87,136z M35.39,138.66c0,0.27,0.08,0.49,0.24,0.64s0.38,0.23,0.65,0.23
			c0.32,0,0.6-0.11,0.84-0.32c0.32-0.28,0.61-0.78,0.87-1.5s0.39-1.38,0.39-1.98c0-0.37-0.04-0.61-0.13-0.73
			c-0.06-0.09-0.16-0.13-0.31-0.13c-0.18,0-0.36,0.03-0.54,0.1s-0.36,0.18-0.56,0.34s-0.38,0.36-0.55,0.59s-0.31,0.47-0.42,0.71
			s-0.21,0.59-0.31,1.04S35.39,138.45,35.39,138.66z"/>
		<path d="M44.59,138.65l0.06,0.25l-0.88,0.68c-0.28,0.2-0.5,0.33-0.66,0.4c-0.05,0.03-0.11,0.04-0.15,0.04
			c-0.07,0-0.14-0.04-0.21-0.11s-0.1-0.17-0.1-0.28c0-0.41,0.13-1.1,0.39-2.07L43,137.56c-0.29,0.41-0.52,0.72-0.69,0.91
			c-0.3,0.36-0.61,0.68-0.93,0.94s-0.6,0.46-0.86,0.57c-0.07,0.03-0.14,0.05-0.21,0.05c-0.11,0-0.19-0.05-0.25-0.15
			c-0.11-0.16-0.16-0.44-0.16-0.83c0-0.5,0.09-1.09,0.27-1.76s0.4-1.26,0.65-1.75c0.12-0.25,0.3-0.46,0.53-0.64
			c0.38-0.29,0.72-0.49,1.03-0.6c0.21-0.07,0.44-0.11,0.69-0.11c0.17,0,0.33,0.01,0.48,0.04s0.34,0.08,0.58,0.17l0.38-0.22
			l0.13,0.11c-0.25,0.86-0.47,1.68-0.66,2.45c-0.12,0.46-0.2,0.81-0.24,1.04c-0.07,0.36-0.13,0.71-0.18,1.04
			c-0.01,0.06-0.01,0.12-0.01,0.16c0,0.08,0.02,0.14,0.05,0.18c0.03,0.03,0.06,0.04,0.11,0.04c0.06,0,0.14-0.03,0.24-0.08
			S44.26,138.91,44.59,138.65z M43.62,134.97c-0.14-0.07-0.3-0.12-0.46-0.16s-0.33-0.05-0.5-0.05c-0.34,0-0.6,0.06-0.77,0.17
			c-0.08,0.05-0.17,0.18-0.27,0.39c-0.2,0.41-0.37,0.88-0.52,1.39c-0.23,0.8-0.34,1.5-0.34,2.1c0,0.11,0.01,0.18,0.03,0.23
			s0.04,0.09,0.08,0.11s0.07,0.04,0.1,0.04c0.07,0,0.19-0.05,0.34-0.15c0.3-0.21,0.62-0.5,0.95-0.89s0.61-0.83,0.82-1.32
			S43.47,135.73,43.62,134.97z"/>
		<path d="M45.15,139.76c0.09-0.4,0.15-0.7,0.18-0.9s0.05-0.43,0.07-0.68h0.29l-0.01,0.98c0.19,0.15,0.36,0.26,0.52,0.33
			c0.21,0.09,0.42,0.13,0.64,0.13c0.26,0,0.5-0.06,0.71-0.17s0.38-0.27,0.49-0.48s0.17-0.43,0.17-0.67c0-0.17-0.03-0.32-0.1-0.45
			s-0.16-0.21-0.26-0.26s-0.33-0.1-0.67-0.15c-0.49-0.07-0.83-0.16-1.01-0.25s-0.32-0.23-0.42-0.41s-0.16-0.4-0.16-0.64
			c0-0.22,0.04-0.43,0.13-0.62s0.22-0.36,0.39-0.52s0.38-0.31,0.61-0.45s0.44-0.24,0.61-0.29s0.38-0.08,0.61-0.08
			c0.23,0,0.44,0.02,0.64,0.07s0.38,0.12,0.55,0.23c-0.05,0.18-0.09,0.35-0.12,0.49c-0.02,0.09-0.05,0.38-0.1,0.88h-0.28
			c0-0.32-0.01-0.56-0.02-0.72c-0.14-0.15-0.3-0.27-0.48-0.34s-0.39-0.11-0.62-0.11c-0.37,0-0.66,0.11-0.89,0.32
			s-0.34,0.47-0.34,0.77c0,0.24,0.07,0.43,0.22,0.57c0.14,0.14,0.44,0.25,0.9,0.32s0.76,0.13,0.91,0.19
			c0.23,0.09,0.4,0.22,0.52,0.39s0.18,0.37,0.18,0.6c0,0.28-0.06,0.54-0.19,0.79s-0.32,0.48-0.58,0.7s-0.54,0.4-0.84,0.55
			s-0.63,0.22-0.98,0.22c-0.21,0-0.42-0.02-0.61-0.07S45.41,139.89,45.15,139.76z"/>
		<path d="M53.62,138.58l0.08,0.23c-0.45,0.41-0.89,0.72-1.33,0.93s-0.81,0.31-1.12,0.31c-0.2,0-0.41-0.05-0.63-0.16
			s-0.39-0.26-0.52-0.48s-0.19-0.53-0.19-0.93c0-0.44,0.07-0.93,0.22-1.46s0.3-0.93,0.45-1.2s0.35-0.5,0.61-0.71
			c0.36-0.29,0.73-0.53,1.14-0.72c0.28-0.13,0.55-0.2,0.81-0.2c0.29,0,0.53,0.08,0.72,0.23s0.28,0.38,0.28,0.66
			c0,0.2-0.04,0.4-0.13,0.6s-0.2,0.37-0.35,0.52c-0.21,0.2-0.49,0.38-0.86,0.56c-0.37,0.17-0.75,0.31-1.15,0.43l-0.76,0.18
			c-0.07,0.4-0.11,0.71-0.11,0.94c0,0.38,0.08,0.67,0.25,0.86c0.17,0.19,0.38,0.29,0.63,0.29c0.23,0,0.48-0.06,0.76-0.17
			C52.72,139.16,53.11,138.93,53.62,138.58z M50.94,137.07c0.5-0.09,0.93-0.23,1.29-0.41s0.62-0.39,0.78-0.65s0.24-0.5,0.24-0.74
			c0-0.2-0.05-0.35-0.15-0.46s-0.23-0.16-0.39-0.16c-0.23,0-0.46,0.07-0.69,0.2s-0.42,0.34-0.56,0.61S51.15,136.27,50.94,137.07z"/>
	</g>
	<g>
		<g>
			<path d="M8.59,37.16c0.27-0.36,0.47-0.61,0.62-0.76c0.23-0.24,0.48-0.44,0.73-0.6s0.5-0.28,0.76-0.35s0.48-0.11,0.66-0.11
				c0.16,0,0.29,0.06,0.37,0.18c0.14,0.23,0.22,0.58,0.22,1.07c0,0.66-0.15,1.35-0.44,2.06c-0.22,0.55-0.5,1-0.82,1.35
				s-0.7,0.64-1.11,0.86s-0.79,0.33-1.12,0.33c-0.34,0-0.63-0.1-0.87-0.31s-0.36-0.43-0.36-0.66c0-0.09,0.01-0.18,0.02-0.27
				c0.01-0.07,0.05-0.29,0.13-0.66c0.14-0.62,0.43-2.15,0.87-4.61c0.13-0.73,0.19-1.17,0.19-1.33c0-0.1-0.03-0.16-0.09-0.19
				c-0.08-0.05-0.38-0.07-0.89-0.08l0.03-0.25c0.57-0.07,0.97-0.14,1.2-0.2s0.48-0.16,0.75-0.29l0.15,0.12
				c-0.05,0.19-0.12,0.46-0.18,0.79L8.59,37.16z M8.11,39.81c0,0.27,0.08,0.49,0.24,0.64S8.73,40.69,9,40.69
				c0.32,0,0.6-0.11,0.84-0.32c0.32-0.28,0.61-0.78,0.87-1.5s0.39-1.38,0.39-1.98c0-0.37-0.04-0.61-0.13-0.73
				c-0.06-0.09-0.16-0.13-0.31-0.13c-0.18,0-0.36,0.03-0.54,0.1s-0.36,0.18-0.56,0.34S9.17,36.83,9,37.07s-0.31,0.47-0.42,0.71
				s-0.21,0.59-0.31,1.04S8.11,39.61,8.11,39.81z"/>
		</g>
	</g>
	<g>
		<path d="M144.64,91.44l0.06,0.25l-0.88,0.68c-0.28,0.2-0.5,0.33-0.66,0.4c-0.05,0.03-0.11,0.04-0.15,0.04
			c-0.07,0-0.14-0.04-0.21-0.11s-0.1-0.17-0.1-0.28c0-0.41,0.13-1.1,0.39-2.07l-0.04-0.02c-0.29,0.41-0.52,0.72-0.69,0.91
			c-0.3,0.36-0.61,0.68-0.93,0.94s-0.6,0.46-0.86,0.57c-0.07,0.03-0.14,0.05-0.21,0.05c-0.11,0-0.19-0.05-0.25-0.15
			c-0.11-0.16-0.16-0.44-0.16-0.83c0-0.5,0.09-1.09,0.27-1.76s0.4-1.26,0.65-1.75c0.12-0.25,0.3-0.46,0.53-0.64
			c0.38-0.29,0.72-0.49,1.03-0.6c0.21-0.07,0.44-0.11,0.69-0.11c0.17,0,0.33,0.01,0.48,0.04s0.34,0.08,0.58,0.17l0.38-0.22
			l0.13,0.11c-0.25,0.86-0.47,1.68-0.66,2.45c-0.12,0.46-0.2,0.81-0.24,1.04c-0.07,0.36-0.13,0.71-0.18,1.04
			c-0.01,0.06-0.01,0.12-0.01,0.16c0,0.08,0.02,0.14,0.05,0.18c0.03,0.03,0.06,0.04,0.11,0.04c0.06,0,0.14-0.03,0.24-0.08
			S144.31,91.69,144.64,91.44z M143.67,87.76c-0.14-0.07-0.3-0.12-0.46-0.16s-0.33-0.05-0.5-0.05c-0.34,0-0.6,0.06-0.77,0.17
			c-0.08,0.05-0.17,0.18-0.27,0.39c-0.2,0.41-0.37,0.88-0.52,1.39c-0.23,0.8-0.34,1.5-0.34,2.1c0,0.11,0.01,0.18,0.03,0.23
			s0.04,0.09,0.08,0.11s0.07,0.04,0.1,0.04c0.07,0,0.19-0.05,0.34-0.15c0.3-0.21,0.62-0.5,0.95-0.89s0.61-0.83,0.82-1.32
			S143.52,88.51,143.67,87.76z"/>
	</g>
	<g>
		<path d="M116.74,16.37c0-0.48,0.05-0.93,0.15-1.35s0.24-0.78,0.42-1.09s0.4-0.58,0.66-0.82s0.56-0.43,0.88-0.57
			s0.64-0.21,0.95-0.21c0.28,0,0.55,0.06,0.8,0.18s0.45,0.31,0.59,0.57s0.21,0.62,0.21,1.07c0,0.6-0.12,1.2-0.36,1.8
			c-0.19,0.48-0.41,0.86-0.66,1.16s-0.56,0.55-0.95,0.76s-0.78,0.31-1.16,0.31c-0.47,0-0.84-0.15-1.12-0.45
			S116.74,16.97,116.74,16.37z M117.67,16.28c0,0.38,0.04,0.66,0.12,0.86s0.21,0.34,0.37,0.45s0.36,0.15,0.59,0.15
			c0.25,0,0.47-0.07,0.66-0.2s0.37-0.38,0.55-0.73s0.31-0.77,0.4-1.26s0.12-0.92,0.12-1.3c0-0.49-0.09-0.86-0.27-1.12
			s-0.45-0.38-0.8-0.38c-0.56,0-1,0.34-1.3,1.01S117.67,15.27,117.67,16.28z"/>
		<path d="M121.85,21.33l-0.07-0.07c0.2-0.91,0.35-1.65,0.46-2.21c0.3-1.61,0.53-2.86,0.68-3.74c0.09-0.55,0.17-1.14,0.23-1.76
			c0.01-0.09,0.02-0.16,0.02-0.21c0-0.06-0.02-0.11-0.05-0.15s-0.07-0.05-0.11-0.05c-0.02,0-0.05,0-0.08,0.01s-0.08,0.03-0.16,0.07
			s-0.18,0.1-0.34,0.2l-0.46,0.29l-0.12-0.22c0.45-0.38,0.9-0.68,1.33-0.91c0.3-0.15,0.52-0.23,0.67-0.23c0.09,0,0.15,0.02,0.2,0.07
			s0.07,0.12,0.07,0.21c0,0.05,0,0.11-0.01,0.18s-0.03,0.22-0.06,0.44c-0.06,0.34-0.1,0.54-0.11,0.62
			c-0.07,0.36-0.12,0.59-0.13,0.69c0.33-0.55,0.68-0.98,1.05-1.31s0.74-0.57,1.11-0.72c0.28-0.11,0.51-0.17,0.71-0.17
			c0.15,0,0.27,0.04,0.35,0.11s0.17,0.22,0.24,0.45s0.11,0.49,0.11,0.79c0,0.48-0.11,1.04-0.33,1.68c-0.17,0.51-0.37,0.92-0.59,1.24
			s-0.53,0.61-0.93,0.88s-0.77,0.47-1.14,0.62c-0.14,0.05-0.27,0.08-0.4,0.08c-0.09,0-0.18-0.01-0.26-0.03s-0.26-0.07-0.51-0.14
			c-0.04,0.3-0.12,0.79-0.23,1.48l-0.26,1.66C122.33,21.2,122.03,21.26,121.85,21.33z M123.34,17.34c0.32,0.19,0.66,0.28,1.01,0.28
			c0.29,0,0.53-0.06,0.72-0.18s0.37-0.33,0.54-0.62c0.27-0.47,0.49-0.98,0.64-1.53s0.23-1.03,0.23-1.44c0-0.35-0.04-0.57-0.11-0.67
			s-0.17-0.15-0.3-0.15c-0.19,0-0.39,0.05-0.6,0.15s-0.42,0.26-0.64,0.46c-0.28,0.27-0.52,0.59-0.74,0.97s-0.38,0.81-0.49,1.29
			C123.56,16.06,123.47,16.54,123.34,17.34z"/>
		<path d="M127.85,21.33l-0.07-0.07c0.2-0.91,0.35-1.65,0.46-2.21c0.3-1.61,0.53-2.86,0.68-3.74c0.09-0.55,0.17-1.14,0.23-1.76
			c0.01-0.09,0.02-0.16,0.02-0.21c0-0.06-0.02-0.11-0.05-0.15s-0.07-0.05-0.11-0.05c-0.02,0-0.05,0-0.08,0.01s-0.08,0.03-0.16,0.07
			s-0.18,0.1-0.34,0.2l-0.46,0.29l-0.12-0.22c0.45-0.38,0.9-0.68,1.33-0.91c0.3-0.15,0.52-0.23,0.67-0.23c0.09,0,0.15,0.02,0.2,0.07
			s0.07,0.12,0.07,0.21c0,0.05,0,0.11-0.01,0.18s-0.03,0.22-0.06,0.44c-0.06,0.34-0.1,0.54-0.11,0.62
			c-0.07,0.36-0.12,0.59-0.13,0.69c0.33-0.55,0.68-0.98,1.05-1.31s0.74-0.57,1.11-0.72c0.28-0.11,0.51-0.17,0.71-0.17
			c0.15,0,0.27,0.04,0.35,0.11s0.17,0.22,0.24,0.45s0.11,0.49,0.11,0.79c0,0.48-0.11,1.04-0.33,1.68c-0.17,0.51-0.37,0.92-0.59,1.24
			s-0.53,0.61-0.93,0.88s-0.77,0.47-1.14,0.62c-0.14,0.05-0.27,0.08-0.4,0.08c-0.09,0-0.18-0.01-0.26-0.03s-0.26-0.07-0.51-0.14
			c-0.04,0.3-0.12,0.79-0.23,1.48l-0.26,1.66C128.33,21.2,128.03,21.26,127.85,21.33z M129.34,17.34c0.32,0.19,0.66,0.28,1.01,0.28
			c0.29,0,0.53-0.06,0.72-0.18s0.37-0.33,0.54-0.62c0.27-0.47,0.49-0.98,0.64-1.53s0.23-1.03,0.23-1.44c0-0.35-0.04-0.57-0.11-0.67
			s-0.17-0.15-0.3-0.15c-0.19,0-0.39,0.05-0.6,0.15s-0.42,0.26-0.64,0.46c-0.28,0.27-0.52,0.59-0.74,0.97s-0.38,0.81-0.49,1.29
			C129.56,16.06,129.47,16.54,129.34,17.34z"/>
	</g>
	<g>
	</g>
	<g>
	</g>
	<g>
	</g>
	<g>
	</g>
	<g>
	</g>
	<g>
	</g>
	<g>
	</g>
	<g>
	</g>
	<g>
	</g>
	<g>
	</g>
	<g>
	</g>
	<g>
	</g>
	<g>
	</g>
	<g>
	</g>
	<g>
	</g>
</g>
</svg>
