<?xml version="1.0" encoding="utf-8"?>
<!-- Generator: Adobe Illustrator 23.0.4, SVG Export Plug-In . SVG Version: 6.00 Build 0)  -->
<svg version="1.1" xmlns="http://www.w3.org/2000/svg" xmlns:xlink="http://www.w3.org/1999/xlink" x="0px" y="0px"
	 viewBox="0 0 164.94 147.33" style="enable-background:new 0 0 164.94 147.33;" xml:space="preserve">
<style type="text/css">
	.st0{opacity:0.3;}
	.st1{fill:#FFFFFF;}
	.st2{opacity:0.5;fill:#FFCE6A;}
	.st3{fill:none;stroke:#FF7815;stroke-miterlimit:10;}
	.st4{opacity:0.4;fill:#FF2F92;}
	.st5{opacity:0.4;fill:none;stroke:#662D91;stroke-width:2;stroke-linecap:round;stroke-linejoin:round;stroke-miterlimit:10;}
	.st6{fill:none;stroke:#FF2F92;stroke-linejoin:round;stroke-miterlimit:10;}
	.st7{fill:#FF2F92;}
	.st8{fill:none;stroke:#DE3D83;stroke-width:2;stroke-miterlimit:10;}
</style>
<g id="Layer_5">
</g>
<g id="Layer_6" class="st0">
</g>
<g id="Overlay">
</g>
<g id="Layer_7">
</g>
<g id="Layer_8">
	<circle class="st1" cx="85.79" cy="75.78" r="64.32"/>
	<circle class="st2" cx="85.79" cy="75.78" r="64.32"/>
	<circle class="st3" cx="85.79" cy="75.78" r="64.32"/>
	<polyline class="st1" points="69.54,138.03 148.13,91.68 114.24,18.09 28.97,45.61 69.54,138.03 	"/>
	<polyline class="st4" points="69.54,138.03 148.13,91.68 114.24,18.09 28.97,45.61 69.54,138.03 	"/>
</g>
<g id="Layer_9">
	<polyline class="st5" points="117.43,85.61 45.5,56.38 53.67,65.95 	"/>
	<polyline class="st5" points="43.6,62.85 67.96,120.52 68.94,107.97 	"/>
	<polyline class="st5" points="77.41,126 131.63,94.7 119.06,95.27 	"/>
	<polyline class="st5" points="103.28,27.97 49.81,44.51 62.19,46.74 	"/>
	<polyline class="st5" points="65.09,54.88 117.43,74.72 109.04,65.35 	"/>
	<polyline class="st5" points="136.83,80.2 112.98,29.57 112.5,42.14 	"/>
</g>
<g id="Layer_11">
	<polygon class="st6" points="28.97,45.61 148.13,91.68 69.54,138.03 	"/>
	<polygon class="st6" points="148.13,91.68 28.97,45.61 114.24,18.09 	"/>
	<circle class="st7" cx="28.97" cy="45.61" r="1.74"/>
	<circle class="st7" cx="148.13" cy="91.68" r="1.74"/>
	<circle class="st7" cx="69.34" cy="138.03" r="1.74"/>
	<circle class="st7" cx="114.24" cy="18.09" r="1.74"/>
</g>
<g id="Layer_10">
	<line class="st8" x1="54.77" y1="104.39" x2="138.09" y2="69.89"/>
</g>
<g id="Text">
	<g>
		<path d="M46.11,140.48c0.27-0.36,0.47-0.61,0.62-0.76c0.23-0.24,0.48-0.44,0.73-0.6s0.5-0.28,0.76-0.35s0.48-0.11,0.66-0.11
			c0.16,0,0.29,0.06,0.37,0.18c0.14,0.23,0.22,0.58,0.22,1.07c0,0.66-0.15,1.35-0.44,2.06c-0.22,0.55-0.5,1-0.82,1.35
			s-0.7,0.64-1.11,0.86s-0.79,0.33-1.12,0.33c-0.34,0-0.63-0.1-0.87-0.31s-0.36-0.43-0.36-0.66c0-0.09,0.01-0.18,0.02-0.27
			c0.01-0.07,0.05-0.29,0.13-0.66c0.14-0.62,0.43-2.15,0.87-4.61c0.13-0.73,0.19-1.17,0.19-1.33c0-0.1-0.03-0.16-0.09-0.19
			c-0.08-0.05-0.38-0.07-0.89-0.08l0.03-0.25c0.57-0.07,0.97-0.14,1.2-0.2s0.48-0.16,0.75-0.29l0.15,0.12
			c-0.05,0.19-0.12,0.46-0.18,0.79L46.11,140.48z M45.62,143.13c0,0.27,0.08,0.49,0.24,0.64s0.38,0.23,0.65,0.23
			c0.32,0,0.6-0.11,0.84-0.32c0.32-0.28,0.61-0.78,0.87-1.5s0.39-1.38,0.39-1.98c0-0.37-0.04-0.61-0.13-0.73
			c-0.06-0.09-0.16-0.13-0.31-0.13c-0.18,0-0.36,0.03-0.54,0.1s-0.36,0.18-0.56,0.34s-0.38,0.36-0.55,0.59s-0.31,0.47-0.42,0.71
			s-0.21,0.59-0.31,1.04S45.62,142.93,45.62,143.13z"/>
		<path d="M54.82,143.13l0.06,0.25l-0.88,0.68c-0.28,0.2-0.5,0.33-0.66,0.4c-0.05,0.03-0.11,0.04-0.15,0.04
			c-0.07,0-0.14-0.04-0.21-0.11s-0.1-0.17-0.1-0.28c0-0.41,0.13-1.1,0.39-2.07l-0.04-0.02c-0.29,0.41-0.52,0.72-0.69,0.91
			c-0.3,0.36-0.61,0.68-0.93,0.94s-0.6,0.46-0.86,0.57c-0.07,0.03-0.14,0.05-0.21,0.05c-0.11,0-0.19-0.05-0.25-0.15
			c-0.11-0.16-0.16-0.44-0.16-0.83c0-0.5,0.09-1.09,0.27-1.76s0.4-1.26,0.65-1.75c0.12-0.25,0.3-0.46,0.53-0.64
			c0.38-0.29,0.72-0.49,1.03-0.6c0.21-0.07,0.44-0.11,0.69-0.11c0.17,0,0.33,0.01,0.48,0.04s0.34,0.08,0.58,0.17l0.38-0.22
			l0.13,0.11c-0.25,0.86-0.47,1.68-0.66,2.45c-0.12,0.46-0.2,0.81-0.24,1.04c-0.07,0.36-0.13,0.71-0.18,1.04
			c-0.01,0.06-0.01,0.12-0.01,0.16c0,0.08,0.02,0.14,0.05,0.18c0.03,0.03,0.06,0.04,0.11,0.04c0.06,0,0.14-0.03,0.24-0.08
			S54.49,143.38,54.82,143.13z M53.85,139.45c-0.14-0.07-0.3-0.12-0.46-0.16s-0.33-0.05-0.5-0.05c-0.34,0-0.6,0.06-0.77,0.17
			c-0.08,0.05-0.17,0.18-0.27,0.39c-0.2,0.41-0.37,0.88-0.52,1.39c-0.23,0.8-0.34,1.5-0.34,2.1c0,0.11,0.01,0.18,0.03,0.23
			s0.04,0.09,0.08,0.11s0.07,0.04,0.1,0.04c0.07,0,0.19-0.05,0.34-0.15c0.3-0.21,0.62-0.5,0.95-0.89s0.61-0.83,0.82-1.32
			S53.7,140.2,53.85,139.45z"/>
		<path d="M55.39,144.24c0.09-0.4,0.15-0.7,0.18-0.9s0.05-0.43,0.07-0.68h0.29l-0.01,0.98c0.19,0.15,0.36,0.26,0.52,0.33
			c0.21,0.09,0.42,0.13,0.64,0.13c0.26,0,0.5-0.06,0.71-0.17s0.38-0.27,0.49-0.48s0.17-0.43,0.17-0.67c0-0.17-0.03-0.32-0.1-0.45
			s-0.16-0.21-0.26-0.26s-0.33-0.1-0.67-0.15c-0.49-0.07-0.83-0.16-1.01-0.25s-0.32-0.23-0.42-0.41s-0.16-0.4-0.16-0.64
			c0-0.22,0.04-0.43,0.13-0.62s0.22-0.36,0.39-0.52s0.38-0.31,0.61-0.45s0.44-0.24,0.61-0.29s0.38-0.08,0.61-0.08
			c0.23,0,0.44,0.02,0.64,0.07s0.38,0.12,0.55,0.23c-0.05,0.18-0.09,0.35-0.12,0.49c-0.02,0.09-0.05,0.38-0.1,0.88h-0.28
			c0-0.32-0.01-0.56-0.02-0.72c-0.14-0.15-0.3-0.27-0.48-0.34s-0.39-0.11-0.62-0.11c-0.37,0-0.66,0.11-0.89,0.32
			s-0.34,0.47-0.34,0.77c0,0.24,0.07,0.43,0.22,0.57c0.14,0.14,0.44,0.25,0.9,0.32s0.76,0.13,0.91,0.19
			c0.23,0.09,0.4,0.22,0.52,0.39s0.18,0.37,0.18,0.6c0,0.28-0.06,0.54-0.19,0.79s-0.32,0.48-0.58,0.7s-0.54,0.4-0.84,0.55
			s-0.63,0.22-0.98,0.22c-0.21,0-0.42-0.02-0.61-0.07S55.64,144.36,55.39,144.24z"/>
		<path d="M63.85,143.05l0.08,0.23c-0.45,0.41-0.89,0.72-1.33,0.93s-0.81,0.31-1.12,0.31c-0.2,0-0.41-0.05-0.63-0.16
			s-0.39-0.26-0.52-0.48s-0.19-0.53-0.19-0.93c0-0.44,0.07-0.93,0.22-1.46s0.3-0.93,0.45-1.2s0.35-0.5,0.61-0.71
			c0.36-0.29,0.73-0.53,1.14-0.72c0.28-0.13,0.55-0.2,0.81-0.2c0.29,0,0.53,0.08,0.72,0.23c0.19,0.16,0.28,0.38,0.28,0.66
			c0,0.2-0.04,0.4-0.13,0.6s-0.2,0.37-0.35,0.52c-0.21,0.2-0.49,0.38-0.86,0.56c-0.37,0.17-0.75,0.31-1.15,0.43l-0.76,0.18
			c-0.07,0.4-0.11,0.71-0.11,0.94c0,0.38,0.08,0.67,0.25,0.86c0.17,0.19,0.38,0.29,0.63,0.29c0.23,0,0.48-0.06,0.76-0.17
			C62.95,143.64,63.35,143.41,63.85,143.05z M61.18,141.54c0.5-0.09,0.93-0.23,1.29-0.41s0.62-0.39,0.78-0.65s0.24-0.5,0.24-0.74
			c0-0.2-0.05-0.35-0.15-0.46s-0.23-0.16-0.39-0.16c-0.23,0-0.46,0.07-0.69,0.2s-0.42,0.34-0.56,0.61S61.39,140.75,61.18,141.54z"/>
	</g>
	<g>
		<path d="M63.32,30.14l0.58-0.39l0.12,0.04c-0.01,0.07-0.01,0.13-0.01,0.18c0,0.24,0.08,0.44,0.23,0.6s0.33,0.23,0.55,0.23
			c0.14,0,0.29-0.04,0.44-0.11s0.29-0.18,0.42-0.33c0.17-0.2,0.35-0.51,0.55-0.96s0.42-1.08,0.67-1.92l0.45-1.63
			c-0.29,0.43-0.58,0.81-0.87,1.13c-0.51,0.56-0.85,0.89-1.02,0.99s-0.3,0.15-0.41,0.15c-0.12,0-0.23-0.06-0.32-0.19
			c-0.14-0.2-0.21-0.48-0.21-0.86c0-0.15,0.03-0.46,0.08-0.94c0.09-0.86,0.14-1.61,0.14-2.26c0-0.26-0.01-0.45-0.04-0.57
			c-0.02-0.07-0.04-0.13-0.08-0.16c-0.03-0.02-0.06-0.04-0.1-0.04c-0.12,0-0.36,0.14-0.74,0.43c-0.07,0.05-0.12,0.09-0.15,0.11
			l-0.16-0.21c0.46-0.39,0.88-0.71,1.27-0.95c0.22-0.14,0.39-0.21,0.52-0.21c0.11,0,0.2,0.05,0.27,0.15s0.1,0.3,0.1,0.6
			c0,0.25-0.04,0.79-0.11,1.61c-0.09,0.96-0.13,1.65-0.13,2.08c0,0.2,0.02,0.33,0.07,0.4c0.04,0.05,0.09,0.08,0.16,0.08
			s0.13-0.02,0.2-0.05c0.15-0.08,0.33-0.23,0.53-0.44s0.4-0.45,0.58-0.73c0.3-0.45,0.56-0.96,0.77-1.55c0.13-0.36,0.31-1,0.53-1.93
			c0.23-0.04,0.53-0.11,0.88-0.22l0.13,0.12c-0.11,0.23-0.22,0.5-0.32,0.81c-0.18,0.53-0.44,1.35-0.76,2.45
			c-0.26,0.89-0.45,1.53-0.58,1.9c-0.24,0.72-0.49,1.3-0.74,1.76s-0.57,0.86-0.93,1.21c-0.27,0.27-0.55,0.46-0.82,0.58
			s-0.54,0.18-0.78,0.18c-0.17,0-0.34-0.04-0.51-0.13s-0.29-0.2-0.38-0.35s-0.13-0.3-0.13-0.47C63.29,30.28,63.3,30.22,63.32,30.14z
			"/>
	</g>
	<g>
		<path d="M135.14,56.37l0.11-0.59c0.02-0.12,0.03-0.27,0.04-0.45l0.23-0.04l0.13,0.34c0.11,0.07,0.2,0.1,0.28,0.1
			c0.14,0,0.26-0.03,0.36-0.1c0.18-0.11,0.4-0.33,0.66-0.67c0.13-0.17,0.38-0.55,0.75-1.15c-0.16-1.14-0.34-1.87-0.53-2.16
			c-0.09-0.14-0.22-0.22-0.39-0.22c-0.11,0-0.22,0.02-0.32,0.07s-0.23,0.16-0.4,0.34L135.91,52l-0.21-0.12l0.7-1
			c0.1-0.07,0.21-0.12,0.33-0.16s0.24-0.05,0.37-0.05c0.38,0,0.67,0.17,0.87,0.52c0.14,0.26,0.26,0.8,0.35,1.64l0.66-0.99
			c0.2-0.29,0.4-0.54,0.63-0.76c0.16-0.16,0.31-0.28,0.45-0.34s0.26-0.09,0.38-0.09c0.12,0,0.24,0.03,0.36,0.1
			c-0.07,0.32-0.13,0.66-0.18,1.02l-0.16,0.04c-0.06-0.11-0.11-0.18-0.17-0.21s-0.12-0.05-0.21-0.05c-0.13,0-0.25,0.03-0.37,0.09
			c-0.16,0.09-0.34,0.25-0.53,0.47c-0.12,0.14-0.39,0.5-0.79,1.07c0.13,0.8,0.23,1.33,0.29,1.59c0.11,0.42,0.23,0.7,0.36,0.84
			c0.09,0.09,0.18,0.13,0.29,0.13s0.22-0.03,0.34-0.1s0.31-0.22,0.58-0.45l0.13,0.21c-0.48,0.46-0.88,0.78-1.18,0.97
			c-0.14,0.09-0.29,0.13-0.43,0.13c-0.25,0-0.46-0.15-0.6-0.46s-0.28-0.92-0.4-1.83c-0.64,1.07-1.15,1.76-1.51,2.06
			c-0.2,0.16-0.42,0.25-0.65,0.25C135.44,56.53,135.28,56.47,135.14,56.37z"/>
	</g>
	<g>
		<path d="M95.99,64.87l0.11,0.22c-0.23,0.21-0.5,0.42-0.8,0.64s-0.56,0.38-0.78,0.47c-0.12,0.05-0.21,0.08-0.28,0.08
			c-0.07,0-0.13-0.04-0.19-0.12s-0.09-0.21-0.09-0.4c0-0.12,0.01-0.26,0.04-0.41s0.15-0.7,0.36-1.64l-0.03-0.01
			c-0.29,0.5-0.65,0.97-1.07,1.4s-0.83,0.76-1.23,0.98c-0.25,0.14-0.46,0.21-0.62,0.21s-0.29-0.11-0.39-0.34s-0.15-0.51-0.15-0.84
			c0-0.46,0.07-0.97,0.2-1.53s0.31-1.05,0.52-1.47c0.16-0.32,0.35-0.57,0.56-0.77c0.33-0.3,0.71-0.55,1.14-0.74
			c0.21-0.09,0.43-0.13,0.68-0.13c0.2,0,0.52,0.05,0.96,0.14l0.26-1.47c0.05-0.32,0.08-0.51,0.08-0.59c0-0.12-0.02-0.21-0.07-0.25
			s-0.15-0.07-0.3-0.07l-0.57-0.01l0.03-0.23c0.48-0.06,0.83-0.12,1.05-0.19s0.49-0.18,0.81-0.35l0.15,0.12
			c-0.06,0.23-0.17,0.74-0.32,1.51c-0.09,0.49-0.35,1.73-0.77,3.72c-0.21,0.98-0.34,1.67-0.4,2.06c-0.02,0.12-0.02,0.24-0.02,0.34
			c0,0.11,0.02,0.18,0.05,0.22s0.07,0.06,0.12,0.06c0.07,0,0.17-0.04,0.29-0.12C95.59,65.19,95.81,65.03,95.99,64.87z M94.83,61.27
			c-0.36-0.19-0.74-0.29-1.13-0.29c-0.29,0-0.52,0.04-0.7,0.12c-0.13,0.05-0.24,0.15-0.34,0.28s-0.22,0.41-0.38,0.83
			s-0.26,0.81-0.34,1.14c-0.13,0.55-0.19,1.06-0.19,1.52c0,0.18,0.01,0.3,0.04,0.38s0.05,0.12,0.09,0.15s0.08,0.04,0.14,0.04
			c0.1,0,0.2-0.03,0.32-0.08c0.3-0.15,0.59-0.35,0.86-0.61s0.52-0.55,0.74-0.89s0.4-0.7,0.53-1.08
			C94.55,62.52,94.68,62.01,94.83,61.27z"/>
	</g>
	<g>
		<g>
			<path d="M26.31,37.76c0.27-0.36,0.47-0.61,0.62-0.76c0.23-0.24,0.48-0.44,0.73-0.6s0.5-0.28,0.76-0.35s0.48-0.11,0.66-0.11
				c0.16,0,0.29,0.06,0.37,0.18c0.14,0.23,0.22,0.58,0.22,1.07c0,0.66-0.15,1.35-0.44,2.06c-0.22,0.55-0.5,1-0.82,1.35
				s-0.7,0.64-1.11,0.86s-0.79,0.33-1.12,0.33c-0.34,0-0.63-0.1-0.87-0.31s-0.36-0.43-0.36-0.66c0-0.09,0.01-0.18,0.02-0.27
				c0.01-0.07,0.05-0.29,0.13-0.66c0.14-0.62,0.43-2.15,0.87-4.61c0.13-0.73,0.19-1.17,0.19-1.33c0-0.1-0.03-0.16-0.09-0.19
				c-0.08-0.05-0.38-0.07-0.89-0.08l0.03-0.25c0.57-0.07,0.97-0.14,1.2-0.2s0.48-0.16,0.75-0.29l0.15,0.12
				c-0.05,0.19-0.12,0.46-0.18,0.79L26.31,37.76z M25.83,40.42c0,0.27,0.08,0.49,0.24,0.64s0.38,0.23,0.65,0.23
				c0.32,0,0.6-0.11,0.84-0.32c0.32-0.28,0.61-0.78,0.87-1.5s0.39-1.38,0.39-1.98c0-0.37-0.04-0.61-0.13-0.73
				c-0.06-0.09-0.16-0.13-0.31-0.13c-0.18,0-0.36,0.03-0.54,0.1s-0.36,0.18-0.56,0.34s-0.38,0.36-0.55,0.59s-0.31,0.47-0.42,0.71
				s-0.21,0.59-0.31,1.04S25.83,40.21,25.83,40.42z"/>
		</g>
	</g>
	<g>
		<path d="M154.76,97.74l0.06,0.25l-0.88,0.68c-0.28,0.2-0.5,0.33-0.66,0.4c-0.05,0.03-0.11,0.04-0.15,0.04
			c-0.07,0-0.14-0.04-0.21-0.11s-0.1-0.17-0.1-0.28c0-0.41,0.13-1.1,0.39-2.07l-0.04-0.02c-0.29,0.41-0.52,0.72-0.69,0.91
			c-0.3,0.36-0.61,0.68-0.93,0.94s-0.6,0.46-0.86,0.57c-0.07,0.03-0.14,0.05-0.21,0.05c-0.11,0-0.19-0.05-0.25-0.15
			c-0.11-0.16-0.16-0.44-0.16-0.83c0-0.5,0.09-1.09,0.27-1.76s0.4-1.26,0.65-1.75c0.12-0.25,0.3-0.46,0.53-0.64
			c0.38-0.29,0.72-0.49,1.03-0.6c0.21-0.07,0.44-0.11,0.69-0.11c0.17,0,0.33,0.01,0.48,0.04s0.34,0.08,0.58,0.17l0.38-0.22
			l0.13,0.11c-0.25,0.86-0.47,1.68-0.66,2.45c-0.12,0.46-0.2,0.81-0.24,1.04c-0.07,0.36-0.13,0.71-0.18,1.04
			c-0.01,0.06-0.01,0.12-0.01,0.16c0,0.08,0.02,0.14,0.05,0.18c0.03,0.03,0.06,0.04,0.11,0.04c0.06,0,0.14-0.03,0.24-0.08
			S154.43,97.99,154.76,97.74z M153.79,94.06c-0.14-0.07-0.3-0.12-0.46-0.16s-0.33-0.05-0.5-0.05c-0.34,0-0.6,0.06-0.77,0.17
			c-0.08,0.05-0.17,0.18-0.27,0.39c-0.2,0.41-0.37,0.88-0.52,1.39c-0.23,0.8-0.34,1.5-0.34,2.1c0,0.11,0.01,0.18,0.03,0.23
			s0.04,0.09,0.08,0.11s0.07,0.04,0.1,0.04c0.07,0,0.19-0.05,0.34-0.15c0.3-0.21,0.62-0.5,0.95-0.89s0.61-0.83,0.82-1.32
			S153.64,94.81,153.79,94.06z"/>
	</g>
	<g>
		<path d="M114.47,12.53c0-0.48,0.05-0.93,0.15-1.35s0.24-0.78,0.42-1.09s0.4-0.58,0.66-0.82s0.56-0.43,0.88-0.57
			s0.64-0.21,0.95-0.21c0.28,0,0.55,0.06,0.8,0.18s0.45,0.31,0.59,0.57s0.21,0.62,0.21,1.07c0,0.6-0.12,1.2-0.36,1.8
			c-0.19,0.48-0.41,0.86-0.66,1.16s-0.56,0.55-0.95,0.76s-0.78,0.31-1.16,0.31c-0.47,0-0.84-0.15-1.12-0.45
			S114.47,13.13,114.47,12.53z M115.4,12.45c0,0.38,0.04,0.66,0.12,0.86s0.21,0.34,0.37,0.45s0.36,0.15,0.59,0.15
			c0.25,0,0.47-0.07,0.66-0.2s0.37-0.38,0.55-0.73s0.31-0.77,0.4-1.26s0.12-0.92,0.12-1.3c0-0.49-0.09-0.86-0.27-1.12
			s-0.45-0.38-0.8-0.38c-0.56,0-1,0.34-1.3,1.01S115.4,11.43,115.4,12.45z"/>
		<path d="M119.58,17.5l-0.07-0.07c0.2-0.91,0.35-1.65,0.46-2.21c0.3-1.61,0.53-2.86,0.68-3.74c0.09-0.55,0.17-1.14,0.23-1.76
			c0.01-0.09,0.02-0.16,0.02-0.21c0-0.06-0.02-0.11-0.05-0.15s-0.07-0.05-0.11-0.05c-0.02,0-0.05,0-0.08,0.01s-0.08,0.03-0.16,0.07
			s-0.18,0.1-0.34,0.2l-0.46,0.29l-0.12-0.22c0.45-0.38,0.9-0.68,1.33-0.91c0.3-0.15,0.52-0.23,0.67-0.23c0.09,0,0.15,0.02,0.2,0.07
			s0.07,0.12,0.07,0.21c0,0.05,0,0.11-0.01,0.18s-0.03,0.22-0.06,0.44c-0.06,0.34-0.1,0.54-0.11,0.62
			c-0.07,0.36-0.12,0.59-0.13,0.69c0.33-0.55,0.68-0.98,1.05-1.31s0.74-0.57,1.11-0.72c0.28-0.11,0.51-0.17,0.71-0.17
			c0.15,0,0.27,0.04,0.35,0.11s0.17,0.22,0.24,0.45s0.11,0.49,0.11,0.79c0,0.48-0.11,1.04-0.33,1.68c-0.17,0.51-0.37,0.92-0.59,1.24
			s-0.53,0.61-0.93,0.88s-0.77,0.47-1.14,0.62c-0.14,0.05-0.27,0.08-0.4,0.08c-0.09,0-0.18-0.01-0.26-0.03s-0.26-0.07-0.51-0.14
			c-0.04,0.3-0.12,0.79-0.23,1.48l-0.26,1.66C120.06,17.36,119.76,17.42,119.58,17.5z M121.07,13.51c0.32,0.19,0.66,0.28,1.01,0.28
			c0.29,0,0.53-0.06,0.72-0.18s0.37-0.33,0.54-0.62c0.27-0.47,0.49-0.98,0.64-1.53s0.23-1.03,0.23-1.44c0-0.35-0.04-0.57-0.11-0.67
			s-0.17-0.15-0.3-0.15c-0.19,0-0.39,0.05-0.6,0.15s-0.42,0.26-0.64,0.46c-0.28,0.27-0.52,0.59-0.74,0.97s-0.38,0.81-0.49,1.29
			C121.29,12.22,121.2,12.71,121.07,13.51z"/>
		<path d="M125.58,17.5l-0.07-0.07c0.2-0.91,0.35-1.65,0.46-2.21c0.3-1.61,0.53-2.86,0.68-3.74c0.09-0.55,0.17-1.14,0.23-1.76
			c0.01-0.09,0.02-0.16,0.02-0.21c0-0.06-0.02-0.11-0.05-0.15s-0.07-0.05-0.11-0.05c-0.02,0-0.05,0-0.08,0.01s-0.08,0.03-0.16,0.07
			s-0.18,0.1-0.34,0.2l-0.46,0.29l-0.12-0.22c0.45-0.38,0.9-0.68,1.33-0.91c0.3-0.15,0.52-0.23,0.67-0.23c0.09,0,0.15,0.02,0.2,0.07
			s0.07,0.12,0.07,0.21c0,0.05,0,0.11-0.01,0.18s-0.03,0.22-0.06,0.44c-0.06,0.34-0.1,0.54-0.11,0.62
			c-0.07,0.36-0.12,0.59-0.13,0.69c0.33-0.55,0.68-0.98,1.05-1.31s0.74-0.57,1.11-0.72c0.28-0.11,0.51-0.17,0.71-0.17
			c0.15,0,0.27,0.04,0.35,0.11s0.17,0.22,0.24,0.45s0.11,0.49,0.11,0.79c0,0.48-0.11,1.04-0.33,1.68c-0.17,0.51-0.37,0.92-0.59,1.24
			s-0.53,0.61-0.93,0.88s-0.77,0.47-1.14,0.62c-0.14,0.05-0.27,0.08-0.4,0.08c-0.09,0-0.18-0.01-0.26-0.03s-0.26-0.07-0.51-0.14
			c-0.04,0.3-0.12,0.79-0.23,1.48l-0.26,1.66C126.06,17.36,125.76,17.42,125.58,17.5z M127.07,13.51c0.32,0.19,0.66,0.28,1.01,0.28
			c0.29,0,0.53-0.06,0.72-0.18s0.37-0.33,0.54-0.62c0.27-0.47,0.49-0.98,0.64-1.53s0.23-1.03,0.23-1.44c0-0.35-0.04-0.57-0.11-0.67
			s-0.17-0.15-0.3-0.15c-0.19,0-0.39,0.05-0.6,0.15s-0.42,0.26-0.64,0.46c-0.28,0.27-0.52,0.59-0.74,0.97
			c-0.21,0.38-0.38,0.81-0.49,1.29C127.29,12.22,127.2,12.71,127.07,13.51z"/>
	</g>
	<g>
		<path d="M60.17,72.26l-0.03-0.08l0.51-0.65c0.2-0.26,0.38-0.52,0.56-0.77c0.22-0.32,0.41-0.61,0.55-0.87
			c0.07-0.12,0.12-0.21,0.14-0.27c0.03-0.07,0.04-0.12,0.03-0.16c-0.01-0.04-0.03-0.06-0.06-0.07c-0.04-0.01-0.1-0.02-0.18-0.01
			c-0.16,0.01-0.33,0.04-0.51,0.08l0.01-0.18c0.15-0.04,0.36-0.09,0.61-0.14s0.46-0.07,0.62-0.07c0.08,0.01,0.15,0.02,0.2,0.04
			c0.05,0.02,0.08,0.05,0.1,0.09c0.02,0.04,0.01,0.09-0.02,0.15c-0.02,0.06-0.07,0.14-0.13,0.24c-0.02,0.03-0.24,0.35-0.65,0.96
			c0.37-0.22,0.66-0.38,0.88-0.47c0.37-0.15,0.73-0.24,1.07-0.27c0.22-0.02,0.41,0,0.55,0.06c0.06,0.03,0.1,0.06,0.12,0.1
			c0.02,0.04,0.01,0.08-0.01,0.14c-0.04,0.09-0.1,0.21-0.19,0.35c-0.06,0.09-0.26,0.38-0.6,0.86c0.38-0.24,0.75-0.41,1.1-0.52
			c0.35-0.11,0.68-0.18,1.01-0.19c0.22-0.01,0.39,0.02,0.52,0.07c0.06,0.03,0.1,0.06,0.12,0.1c0.02,0.04,0.01,0.09-0.01,0.15
			c-0.03,0.07-0.09,0.18-0.18,0.31c-0.16,0.23-0.43,0.6-0.83,1.11c-0.46,0.6-0.72,0.96-0.78,1.11c-0.02,0.05-0.03,0.09-0.01,0.12
			c0.01,0.03,0.03,0.06,0.05,0.07c0.03,0.01,0.07,0.02,0.12,0.02c0.06,0,0.15-0.01,0.26-0.03l0.36-0.08l0,0.17
			c-0.15,0.05-0.35,0.1-0.62,0.15c-0.27,0.05-0.47,0.08-0.62,0.08c-0.07,0-0.13-0.01-0.18-0.03c-0.06-0.02-0.09-0.07-0.12-0.13
			c-0.02-0.07-0.02-0.14,0.02-0.23c0.03-0.07,0.06-0.13,0.09-0.18c0.03-0.05,0.12-0.17,0.25-0.33c0.13-0.17,0.36-0.46,0.67-0.89
			c0.26-0.35,0.44-0.61,0.54-0.77c0.1-0.16,0.15-0.25,0.16-0.28c0.02-0.04,0.02-0.08,0.01-0.11c-0.01-0.03-0.03-0.06-0.06-0.07
			c-0.06-0.03-0.18-0.03-0.36-0.02c-0.18,0.01-0.39,0.07-0.65,0.17c-0.26,0.1-0.49,0.22-0.68,0.36c-0.2,0.14-0.39,0.32-0.59,0.56
			c-0.19,0.23-0.46,0.62-0.79,1.15c-0.16-0.04-0.34-0.07-0.55-0.11l-0.03-0.07c0.28-0.35,0.57-0.75,0.88-1.17
			c0.3-0.43,0.54-0.78,0.7-1.05c0.12-0.2,0.19-0.33,0.22-0.4c0.02-0.05,0.03-0.1,0.02-0.14c-0.01-0.03-0.03-0.05-0.06-0.06
			c-0.07-0.03-0.16-0.03-0.28-0.02c-0.18,0.01-0.39,0.07-0.63,0.17s-0.48,0.23-0.7,0.39c-0.22,0.16-0.44,0.37-0.64,0.64
			c-0.21,0.26-0.46,0.62-0.74,1.05C60.5,72.32,60.32,72.29,60.17,72.26z"/>
		<path d="M66.99,71.89l0-0.17c0.55-0.12,0.91-0.18,1.08-0.19c0.17-0.01,0.3,0,0.38,0.04c0.05,0.02,0.07,0.05,0.08,0.09
			c0.01,0.06,0,0.13-0.03,0.22c-0.02,0.04-0.05,0.09-0.1,0.16c-0.09,0.13-0.27,0.37-0.53,0.71c-0.67,0.87-1.04,1.39-1.11,1.56
			c-0.02,0.05-0.03,0.09-0.02,0.12c0.01,0.03,0.03,0.05,0.06,0.07c0.05,0.02,0.12,0.03,0.2,0.02c0.09,0,0.26-0.04,0.51-0.1
			l0.01,0.17c-0.51,0.14-0.89,0.21-1.13,0.23c-0.11,0.01-0.2,0-0.26-0.02c-0.06-0.03-0.1-0.08-0.13-0.15
			C66,74.57,66,74.48,66.05,74.39c0.03-0.08,0.08-0.16,0.13-0.25c0.06-0.09,0.17-0.24,0.34-0.46c0.7-0.89,1.1-1.46,1.2-1.7
			c0.02-0.05,0.03-0.09,0.02-0.11c-0.01-0.02-0.02-0.04-0.04-0.05c-0.03-0.01-0.07-0.02-0.12-0.02
			C67.56,71.81,67.36,71.84,66.99,71.89z M68.77,70.23c0.06-0.13,0.15-0.23,0.27-0.29s0.24-0.06,0.35-0.02
			c0.08,0.04,0.14,0.09,0.17,0.16c0.03,0.07,0.02,0.15-0.01,0.25c-0.05,0.12-0.14,0.23-0.25,0.3c-0.12,0.07-0.23,0.09-0.35,0.04
			c-0.08-0.04-0.14-0.09-0.17-0.17C68.72,70.41,68.73,70.33,68.77,70.23z"/>
		<path d="M71.26,75.89l0.01,0.16c-0.19,0.07-0.41,0.13-0.66,0.19c-0.24,0.06-0.44,0.09-0.6,0.09c-0.09,0-0.15,0-0.19-0.02
			c-0.04-0.02-0.07-0.06-0.09-0.12c-0.02-0.06,0-0.15,0.05-0.27c0.03-0.08,0.08-0.16,0.13-0.25s0.27-0.39,0.64-0.92l-0.02-0.01
			c-0.31,0.23-0.65,0.43-1.01,0.59s-0.7,0.26-1.01,0.29c-0.19,0.02-0.33,0.01-0.43-0.03c-0.1-0.04-0.15-0.14-0.15-0.31
			c0-0.17,0.04-0.35,0.12-0.56c0.12-0.28,0.29-0.58,0.52-0.89c0.23-0.31,0.46-0.57,0.7-0.77c0.18-0.15,0.36-0.26,0.54-0.33
			c0.28-0.1,0.58-0.16,0.89-0.17c0.15,0,0.3,0.03,0.45,0.09c0.12,0.05,0.31,0.16,0.56,0.33l0.53-0.84c0.11-0.18,0.18-0.3,0.2-0.34
			c0.03-0.07,0.04-0.13,0.02-0.17s-0.07-0.08-0.16-0.12l-0.35-0.15l0.08-0.14c0.31,0.08,0.54,0.13,0.69,0.15
			c0.15,0.02,0.35,0.01,0.59,0l0.06,0.11c-0.1,0.13-0.29,0.41-0.58,0.84c-0.18,0.28-0.66,0.98-1.42,2.09
			c-0.38,0.55-0.64,0.94-0.77,1.17c-0.04,0.07-0.08,0.14-0.1,0.2c-0.03,0.07-0.04,0.11-0.03,0.15s0.03,0.06,0.06,0.07
			c0.04,0.02,0.11,0.02,0.21,0C70.93,75.98,71.11,75.94,71.26,75.89z M71.46,73.37c-0.17-0.21-0.38-0.37-0.62-0.47
			c-0.18-0.07-0.33-0.11-0.46-0.1c-0.09,0-0.19,0.03-0.28,0.08c-0.1,0.05-0.24,0.19-0.44,0.42c-0.2,0.22-0.37,0.43-0.5,0.62
			c-0.22,0.31-0.39,0.6-0.51,0.89c-0.04,0.11-0.07,0.19-0.07,0.24c0,0.05,0,0.09,0.02,0.12c0.02,0.03,0.04,0.05,0.07,0.06
			c0.06,0.03,0.13,0.04,0.22,0.03c0.22-0.01,0.45-0.07,0.69-0.15c0.24-0.09,0.46-0.21,0.69-0.36s0.42-0.33,0.6-0.53
			C70.98,74.07,71.18,73.79,71.46,73.37z"/>
		<path d="M70.8,78.01l0.18-0.43l3.69,1.53l-0.18,0.43L70.8,78.01z"/>
		<path d="M75.1,78.49l-0.03-0.07c0.46-0.61,0.84-1.13,1.15-1.56c0.38-0.54,0.73-1.06,1.04-1.55c0.32-0.5,0.55-0.88,0.71-1.14
			c0.02-0.04,0.04-0.07,0.05-0.11c0.02-0.04,0.02-0.08,0.02-0.11c-0.01-0.03-0.04-0.06-0.08-0.09c-0.04-0.03-0.2-0.1-0.46-0.21
			l0.08-0.14c0.58,0.14,1.02,0.2,1.32,0.19l0.04,0.1c-0.12,0.16-0.21,0.29-0.27,0.38l-0.92,1.33l-0.88,1.28l0.02,0.02
			c0.29-0.17,0.52-0.29,0.69-0.36c0.28-0.13,0.56-0.23,0.82-0.29c0.26-0.06,0.51-0.09,0.75-0.07c0.17,0.01,0.29,0.03,0.36,0.06
			c0.06,0.02,0.09,0.06,0.12,0.12s0.02,0.12,0,0.18c-0.02,0.05-0.05,0.1-0.08,0.15c-0.05,0.08-0.19,0.26-0.41,0.56
			c-0.41,0.55-0.75,1.02-1.02,1.41c-0.12,0.18-0.2,0.3-0.22,0.36c-0.01,0.04-0.02,0.07-0.01,0.1c0.01,0.03,0.03,0.05,0.05,0.06
			c0.09,0.04,0.35,0,0.78-0.11l0.02,0.16c-0.18,0.06-0.4,0.11-0.68,0.17c-0.28,0.05-0.5,0.09-0.68,0.09c-0.05,0-0.09,0-0.13-0.02
			c-0.05-0.02-0.08-0.06-0.09-0.12c-0.02-0.06,0-0.15,0.04-0.25c0.04-0.1,0.13-0.24,0.26-0.42l0.75-1.04
			c0.26-0.36,0.45-0.64,0.56-0.82c0.04-0.06,0.06-0.1,0.07-0.14c0.02-0.04,0.02-0.08,0-0.11c-0.01-0.03-0.04-0.06-0.09-0.08
			c-0.07-0.03-0.16-0.04-0.25-0.03c-0.25,0.02-0.54,0.1-0.86,0.23c-0.33,0.13-0.6,0.3-0.84,0.5s-0.45,0.44-0.64,0.71l-0.5,0.76
			l-0.4-0.07C75.19,78.5,75.14,78.5,75.1,78.49z"/>
		<path d="M81.44,80.09l-0.01,0.16c-0.38,0.14-0.73,0.21-1.06,0.23c-0.32,0.02-0.58-0.02-0.77-0.09c-0.12-0.05-0.24-0.14-0.35-0.26
			c-0.11-0.12-0.17-0.26-0.2-0.43s0.02-0.38,0.12-0.62c0.11-0.27,0.28-0.55,0.51-0.84s0.42-0.5,0.58-0.62
			c0.16-0.13,0.34-0.22,0.56-0.28c0.29-0.09,0.59-0.14,0.88-0.15c0.21-0.01,0.39,0.02,0.55,0.09c0.18,0.07,0.31,0.18,0.39,0.33
			c0.08,0.14,0.08,0.3,0.01,0.48c-0.05,0.12-0.13,0.24-0.23,0.34c-0.1,0.1-0.22,0.18-0.35,0.23c-0.18,0.07-0.4,0.11-0.67,0.12
			c-0.27,0.01-0.54,0-0.82-0.03l-0.51-0.08c-0.15,0.23-0.25,0.41-0.31,0.55c-0.1,0.23-0.12,0.43-0.06,0.59
			c0.06,0.16,0.16,0.28,0.32,0.34c0.14,0.06,0.31,0.09,0.51,0.09S81.04,80.18,81.44,80.09z M80.17,78.48
			c0.33,0.07,0.63,0.1,0.9,0.08s0.48-0.08,0.65-0.2c0.17-0.12,0.28-0.25,0.34-0.39c0.05-0.12,0.06-0.23,0.03-0.32
			c-0.04-0.09-0.1-0.16-0.2-0.2c-0.14-0.06-0.3-0.08-0.48-0.05s-0.34,0.1-0.5,0.23S80.51,78.04,80.17,78.48z"/>
		<path d="M85.22,81.68l0.01,0.16c-0.19,0.07-0.41,0.13-0.66,0.19c-0.24,0.06-0.44,0.09-0.6,0.09c-0.09,0-0.15-0.01-0.19-0.02
			c-0.04-0.02-0.07-0.06-0.09-0.12c-0.02-0.06,0-0.15,0.05-0.27c0.03-0.08,0.07-0.16,0.13-0.25c0.05-0.09,0.27-0.39,0.64-0.92
			l-0.02-0.01c-0.31,0.23-0.65,0.43-1.01,0.59c-0.37,0.16-0.7,0.26-1.01,0.29c-0.19,0.02-0.33,0.01-0.43-0.03
			c-0.1-0.04-0.15-0.14-0.15-0.31s0.04-0.35,0.12-0.56c0.12-0.28,0.29-0.58,0.52-0.89c0.23-0.31,0.46-0.57,0.7-0.77
			c0.18-0.15,0.36-0.26,0.54-0.33c0.28-0.1,0.58-0.16,0.89-0.17c0.15,0,0.3,0.03,0.45,0.09c0.12,0.05,0.31,0.16,0.56,0.33l0.54-0.84
			c0.11-0.18,0.18-0.3,0.2-0.34c0.03-0.08,0.04-0.13,0.02-0.17c-0.02-0.04-0.07-0.08-0.16-0.12l-0.35-0.15l0.08-0.14
			c0.31,0.08,0.54,0.13,0.69,0.15c0.15,0.02,0.35,0.02,0.59,0l0.06,0.11c-0.1,0.13-0.29,0.41-0.58,0.84
			c-0.18,0.28-0.66,0.98-1.42,2.1c-0.38,0.55-0.64,0.94-0.77,1.17c-0.04,0.07-0.07,0.14-0.1,0.2c-0.03,0.06-0.04,0.11-0.03,0.15
			c0.01,0.03,0.03,0.06,0.06,0.07c0.04,0.02,0.11,0.02,0.21,0C84.89,81.78,85.06,81.74,85.22,81.68z M85.42,79.17
			c-0.17-0.21-0.38-0.37-0.62-0.46c-0.18-0.07-0.33-0.11-0.46-0.1c-0.09,0-0.19,0.03-0.28,0.08c-0.09,0.05-0.24,0.2-0.44,0.42
			c-0.2,0.22-0.37,0.43-0.5,0.62c-0.22,0.31-0.39,0.6-0.51,0.89c-0.05,0.11-0.07,0.19-0.08,0.24c0,0.05,0,0.09,0.02,0.12
			s0.04,0.05,0.07,0.06c0.06,0.03,0.13,0.04,0.22,0.03c0.22-0.02,0.45-0.07,0.69-0.15c0.23-0.09,0.46-0.21,0.69-0.36
			c0.22-0.15,0.42-0.33,0.6-0.53C84.93,79.87,85.14,79.59,85.42,79.17z"/>
		<path d="M86.59,83.03c-0.04-0.11-0.07-0.19-0.07-0.22s0-0.07,0.01-0.1c0.02-0.04,0.06-0.09,0.12-0.13
			c0.11-0.07,0.32-0.16,0.62-0.27c-0.07-0.03-0.12-0.05-0.17-0.07c-0.3-0.12-0.5-0.3-0.6-0.52c-0.1-0.22-0.08-0.48,0.03-0.76
			c0.12-0.29,0.29-0.52,0.53-0.71c0.23-0.19,0.52-0.3,0.85-0.35s0.64-0.01,0.92,0.11c0.23,0.09,0.4,0.21,0.51,0.36
			c0.09,0.11,0.14,0.24,0.17,0.4c0.22,0.09,0.35,0.13,0.37,0.14c0.07,0.02,0.16,0.04,0.28,0.07l0.01,0.03l-0.21,0.34
			c-0.06-0.03-0.12-0.06-0.17-0.08c-0.08-0.03-0.18-0.07-0.31-0.11c-0.02,0.09-0.05,0.16-0.07,0.22c-0.07,0.16-0.15,0.3-0.25,0.41
			s-0.21,0.21-0.32,0.28s-0.23,0.14-0.35,0.19c-0.12,0.05-0.27,0.08-0.44,0.1c-0.17,0.02-0.34,0.02-0.49-0.01
			c-0.19,0.07-0.3,0.15-0.34,0.24c-0.04,0.09-0.04,0.19,0,0.3c0.04,0.11,0.17,0.39,0.41,0.84c0.13,0.25,0.21,0.45,0.22,0.6
			c0.02,0.16,0,0.29-0.05,0.41c-0.07,0.16-0.19,0.3-0.37,0.42c-0.18,0.12-0.44,0.19-0.79,0.19s-0.71-0.07-1.1-0.23
			c-0.45-0.19-0.74-0.4-0.87-0.66s-0.15-0.51-0.05-0.75c0.06-0.15,0.17-0.29,0.32-0.4c0.15-0.12,0.37-0.21,0.66-0.26
			C85.88,83,86.22,82.99,86.59,83.03z M86.66,83.21c-0.23-0.04-0.46-0.03-0.69,0.01c-0.23,0.04-0.41,0.12-0.54,0.22
			s-0.23,0.23-0.29,0.38c-0.09,0.22-0.08,0.43,0.03,0.65c0.11,0.22,0.33,0.4,0.66,0.54c0.37,0.15,0.69,0.19,0.98,0.11
			c0.21-0.06,0.35-0.17,0.43-0.36c0.04-0.09,0.05-0.2,0.04-0.31c-0.01-0.11-0.05-0.24-0.13-0.38L86.66,83.21z M87.13,81.04
			c-0.11,0.26-0.13,0.48-0.06,0.67c0.07,0.19,0.21,0.32,0.41,0.41c0.18,0.07,0.36,0.08,0.53,0.03s0.34-0.18,0.49-0.36
			c0.16-0.19,0.28-0.39,0.37-0.6c0.1-0.25,0.12-0.47,0.06-0.64c-0.06-0.18-0.2-0.31-0.4-0.39c-0.29-0.12-0.56-0.09-0.81,0.1
			C87.47,80.44,87.27,80.7,87.13,81.04z"/>
		<path d="M91.7,84.36l-0.01,0.16c-0.38,0.14-0.73,0.21-1.06,0.23c-0.32,0.02-0.58-0.02-0.77-0.09c-0.12-0.05-0.24-0.14-0.35-0.26
			c-0.11-0.12-0.17-0.26-0.2-0.43s0.02-0.38,0.12-0.62c0.11-0.27,0.28-0.55,0.51-0.84c0.23-0.29,0.42-0.5,0.58-0.62
			c0.16-0.12,0.34-0.22,0.56-0.28c0.29-0.09,0.59-0.14,0.88-0.15c0.21-0.01,0.39,0.02,0.55,0.09c0.18,0.08,0.31,0.19,0.38,0.33
			c0.08,0.14,0.08,0.3,0.01,0.48c-0.05,0.12-0.13,0.24-0.23,0.34c-0.1,0.1-0.22,0.18-0.35,0.23c-0.18,0.07-0.4,0.11-0.67,0.12
			c-0.27,0.01-0.54,0-0.82-0.03l-0.51-0.08c-0.15,0.23-0.25,0.41-0.31,0.55c-0.1,0.24-0.12,0.43-0.06,0.6
			c0.05,0.16,0.16,0.27,0.32,0.34c0.14,0.06,0.31,0.09,0.51,0.09C90.99,84.49,91.3,84.45,91.7,84.36z M90.44,82.74
			c0.33,0.07,0.63,0.1,0.9,0.08c0.27-0.02,0.48-0.08,0.65-0.2c0.17-0.12,0.28-0.25,0.34-0.39c0.05-0.12,0.06-0.23,0.03-0.32
			c-0.04-0.09-0.1-0.16-0.2-0.2c-0.14-0.06-0.3-0.07-0.48-0.05s-0.34,0.1-0.5,0.23C91.02,82.02,90.77,82.31,90.44,82.74z"/>
	</g>
	<g>
		<path d="M86.83,46.47l0.05,0.15c-0.3,0.27-0.6,0.48-0.89,0.62s-0.54,0.21-0.74,0.21c-0.13,0-0.27-0.03-0.42-0.1
			s-0.26-0.18-0.35-0.32s-0.13-0.35-0.13-0.62c0-0.29,0.05-0.62,0.15-0.97s0.2-0.62,0.3-0.8s0.23-0.33,0.41-0.47
			c0.24-0.2,0.49-0.36,0.76-0.48c0.19-0.09,0.37-0.13,0.54-0.13c0.2,0,0.36,0.05,0.48,0.16s0.19,0.25,0.19,0.44
			c0,0.14-0.03,0.27-0.08,0.4s-0.13,0.25-0.23,0.34c-0.14,0.13-0.33,0.26-0.57,0.37c-0.25,0.11-0.5,0.21-0.76,0.29l-0.51,0.12
			c-0.05,0.27-0.07,0.47-0.07,0.62c0,0.26,0.06,0.45,0.17,0.57c0.11,0.13,0.25,0.19,0.42,0.19c0.15,0,0.32-0.04,0.51-0.11
			C86.23,46.86,86.49,46.71,86.83,46.47z M85.05,45.47c0.33-0.06,0.62-0.15,0.86-0.27s0.41-0.26,0.52-0.43s0.16-0.33,0.16-0.49
			c0-0.13-0.03-0.23-0.1-0.3s-0.15-0.11-0.26-0.11c-0.15,0-0.3,0.04-0.46,0.13s-0.28,0.22-0.37,0.4S85.19,44.94,85.05,45.47z"/>
		<path d="M87.79,47.42l-0.05-0.07c0.18-0.55,0.34-1.21,0.49-1.98c0.11-0.56,0.16-0.93,0.16-1.11c0-0.06-0.01-0.1-0.03-0.12
			s-0.04-0.03-0.08-0.03c-0.03,0-0.06,0.01-0.1,0.02c-0.07,0.02-0.15,0.06-0.24,0.12l-0.31,0.2l-0.05-0.16l0.36-0.27
			c0.14-0.1,0.29-0.19,0.44-0.28s0.27-0.14,0.34-0.16c0.04-0.01,0.08-0.02,0.12-0.02c0.05,0,0.1,0.02,0.13,0.05
			c0.04,0.05,0.06,0.11,0.06,0.19c0,0.05,0,0.11-0.02,0.18c-0.02,0.11-0.07,0.33-0.15,0.64l-0.18,0.72l0.03,0.01
			c0.23-0.37,0.49-0.7,0.79-0.98s0.61-0.5,0.93-0.65c0.23-0.11,0.41-0.16,0.52-0.16c0.07,0,0.13,0.02,0.17,0.07s0.06,0.11,0.06,0.19
			c0,0.18-0.09,0.62-0.27,1.31c-0.24,0.93-0.36,1.47-0.36,1.64c0,0.05,0.01,0.09,0.03,0.11s0.04,0.03,0.08,0.03
			c0.04,0,0.1-0.02,0.19-0.07c0.18-0.1,0.34-0.21,0.5-0.33l0.07,0.16c-0.22,0.18-0.4,0.32-0.54,0.41c-0.25,0.16-0.44,0.27-0.56,0.31
			c-0.05,0.02-0.1,0.03-0.16,0.03c-0.07,0-0.13-0.02-0.17-0.07s-0.06-0.12-0.06-0.22c0-0.08,0.01-0.17,0.03-0.29
			c0.04-0.2,0.14-0.6,0.29-1.21c0.19-0.73,0.29-1.18,0.29-1.35c0-0.08-0.01-0.13-0.04-0.16s-0.06-0.04-0.11-0.04
			c-0.09,0-0.19,0.03-0.31,0.1c-0.2,0.11-0.41,0.27-0.62,0.49s-0.4,0.46-0.54,0.71s-0.27,0.57-0.38,0.97
			c-0.04,0.15-0.11,0.45-0.19,0.92C88.15,47.33,87.96,47.37,87.79,47.42z"/>
		<path d="M95.38,46.49l0.07,0.14c-0.15,0.14-0.33,0.28-0.53,0.43s-0.38,0.25-0.52,0.31c-0.08,0.04-0.14,0.05-0.19,0.05
			c-0.05,0-0.09-0.03-0.13-0.08s-0.06-0.14-0.06-0.27c0-0.08,0.01-0.18,0.03-0.28s0.1-0.46,0.24-1.09l-0.02,0
			c-0.2,0.33-0.43,0.64-0.71,0.93s-0.55,0.51-0.82,0.65c-0.17,0.09-0.31,0.14-0.41,0.14s-0.19-0.08-0.26-0.23s-0.1-0.34-0.1-0.56
			c0-0.3,0.04-0.65,0.13-1.02s0.21-0.7,0.35-0.98c0.11-0.21,0.23-0.38,0.38-0.51c0.22-0.2,0.47-0.37,0.76-0.5
			c0.14-0.06,0.29-0.09,0.45-0.09c0.13,0,0.34,0.03,0.64,0.09l0.17-0.98c0.04-0.21,0.05-0.34,0.05-0.39c0-0.08-0.02-0.14-0.05-0.17
			s-0.1-0.05-0.2-0.05l-0.38,0l0.02-0.16c0.32-0.04,0.55-0.08,0.7-0.12s0.33-0.12,0.54-0.23l0.1,0.08c-0.04,0.16-0.11,0.49-0.21,1
			c-0.06,0.33-0.23,1.15-0.51,2.48c-0.14,0.65-0.23,1.11-0.27,1.38c-0.01,0.08-0.02,0.16-0.02,0.23c0,0.07,0.01,0.12,0.03,0.15
			s0.05,0.04,0.08,0.04c0.05,0,0.11-0.03,0.2-0.08C95.11,46.7,95.26,46.6,95.38,46.49z M94.61,44.09c-0.24-0.13-0.49-0.19-0.75-0.19
			c-0.19,0-0.35,0.03-0.47,0.08c-0.09,0.04-0.16,0.1-0.23,0.19s-0.15,0.27-0.25,0.56s-0.18,0.54-0.23,0.76
			c-0.09,0.37-0.13,0.71-0.13,1.02c0,0.12,0.01,0.2,0.02,0.25s0.04,0.08,0.06,0.1s0.06,0.03,0.09,0.03c0.07,0,0.14-0.02,0.21-0.05
			c0.2-0.1,0.39-0.23,0.58-0.41s0.35-0.37,0.5-0.59s0.26-0.46,0.35-0.72C94.42,44.92,94.5,44.58,94.61,44.09z"/>
		<path d="M95.77,48.63v-0.46h4v0.46H95.77z"/>
		<path d="M99.93,47.43l-0.05-0.05c0.19-0.74,0.34-1.37,0.46-1.88c0.14-0.64,0.27-1.26,0.37-1.84s0.17-1.02,0.22-1.32
			c0-0.04,0.01-0.08,0.01-0.12c0-0.05-0.01-0.09-0.03-0.11s-0.06-0.04-0.11-0.05s-0.22-0.01-0.51-0.01l0.02-0.16
			c0.59-0.09,1.02-0.2,1.29-0.33l0.08,0.08c-0.05,0.2-0.08,0.35-0.11,0.45l-0.34,1.58l-0.32,1.52l0.03,0.02
			c0.21-0.27,0.37-0.46,0.5-0.6c0.21-0.23,0.42-0.43,0.64-0.58s0.44-0.27,0.66-0.36c0.16-0.05,0.28-0.08,0.36-0.08
			c0.06,0,0.11,0.02,0.15,0.07s0.06,0.1,0.06,0.17c0,0.05-0.01,0.11-0.02,0.18c-0.02,0.09-0.07,0.31-0.16,0.68
			c-0.17,0.66-0.3,1.23-0.39,1.7c-0.04,0.21-0.07,0.35-0.07,0.42c0,0.04,0.01,0.07,0.03,0.09s0.04,0.03,0.07,0.03
			c0.1,0,0.32-0.13,0.68-0.4l0.08,0.14c-0.14,0.12-0.33,0.26-0.56,0.42s-0.43,0.27-0.6,0.35c-0.05,0.02-0.09,0.03-0.12,0.03
			c-0.05,0-0.09-0.03-0.13-0.08s-0.06-0.14-0.06-0.25c0-0.1,0.03-0.27,0.08-0.49l0.29-1.25c0.1-0.44,0.17-0.76,0.21-0.97
			c0.01-0.06,0.02-0.12,0.02-0.16c0-0.04-0.01-0.08-0.04-0.1s-0.06-0.04-0.11-0.04c-0.08,0-0.16,0.02-0.25,0.07
			c-0.22,0.11-0.46,0.3-0.71,0.54s-0.44,0.51-0.58,0.78s-0.25,0.58-0.32,0.9l-0.17,0.89l-0.4,0.09
			C100.02,47.4,99.97,47.41,99.93,47.43z"/>
		<path d="M106.4,46.47l0.05,0.15c-0.3,0.27-0.6,0.48-0.89,0.62s-0.54,0.21-0.74,0.21c-0.13,0-0.27-0.03-0.42-0.1
			s-0.26-0.18-0.35-0.32s-0.13-0.35-0.13-0.62c0-0.29,0.05-0.62,0.15-0.97s0.2-0.62,0.3-0.8s0.23-0.33,0.41-0.47
			c0.24-0.2,0.49-0.36,0.76-0.48c0.19-0.09,0.37-0.13,0.54-0.13c0.2,0,0.36,0.05,0.48,0.16s0.19,0.25,0.19,0.44
			c0,0.14-0.03,0.27-0.08,0.4s-0.13,0.25-0.23,0.34c-0.14,0.13-0.33,0.26-0.57,0.37c-0.25,0.11-0.5,0.21-0.76,0.29l-0.51,0.12
			c-0.05,0.27-0.07,0.47-0.07,0.62c0,0.26,0.06,0.45,0.17,0.57c0.11,0.13,0.25,0.19,0.42,0.19c0.15,0,0.32-0.04,0.51-0.11
			C105.79,46.86,106.06,46.71,106.4,46.47z M104.61,45.47c0.33-0.06,0.62-0.15,0.86-0.27s0.41-0.26,0.52-0.43s0.16-0.33,0.16-0.49
			c0-0.13-0.03-0.23-0.1-0.3s-0.15-0.11-0.26-0.11c-0.15,0-0.3,0.04-0.46,0.13s-0.28,0.22-0.37,0.4S104.75,44.94,104.61,45.47z"/>
		<path d="M110.5,46.49l0.07,0.14c-0.15,0.14-0.33,0.28-0.53,0.43s-0.38,0.25-0.52,0.31c-0.08,0.04-0.14,0.05-0.19,0.05
			c-0.05,0-0.09-0.03-0.13-0.08s-0.06-0.14-0.06-0.27c0-0.08,0.01-0.18,0.03-0.28s0.1-0.46,0.24-1.09l-0.02,0
			c-0.2,0.33-0.43,0.64-0.71,0.93s-0.55,0.51-0.82,0.65c-0.17,0.09-0.31,0.14-0.41,0.14s-0.19-0.08-0.26-0.23s-0.1-0.34-0.1-0.56
			c0-0.3,0.04-0.65,0.13-1.02s0.21-0.7,0.35-0.98c0.11-0.21,0.23-0.38,0.38-0.51c0.22-0.2,0.47-0.37,0.76-0.5
			c0.14-0.06,0.29-0.09,0.45-0.09c0.13,0,0.34,0.03,0.64,0.09l0.17-0.98c0.04-0.21,0.05-0.34,0.05-0.39c0-0.08-0.02-0.14-0.05-0.17
			s-0.1-0.05-0.2-0.05l-0.38,0l0.02-0.16c0.32-0.04,0.55-0.08,0.7-0.12s0.33-0.12,0.54-0.23l0.1,0.08c-0.04,0.16-0.11,0.49-0.21,1
			c-0.06,0.33-0.23,1.15-0.51,2.48c-0.14,0.65-0.23,1.11-0.27,1.38c-0.01,0.08-0.02,0.16-0.02,0.23c0,0.07,0.01,0.12,0.03,0.15
			s0.05,0.04,0.08,0.04c0.05,0,0.11-0.03,0.2-0.08C110.23,46.7,110.37,46.6,110.5,46.49z M109.72,44.09
			c-0.24-0.13-0.49-0.19-0.75-0.19c-0.19,0-0.35,0.03-0.47,0.08c-0.09,0.04-0.16,0.1-0.23,0.19s-0.15,0.27-0.25,0.56
			s-0.18,0.54-0.23,0.76c-0.09,0.37-0.13,0.71-0.13,1.02c0,0.12,0.01,0.2,0.02,0.25s0.04,0.08,0.06,0.1s0.06,0.03,0.09,0.03
			c0.07,0,0.14-0.02,0.21-0.05c0.2-0.1,0.39-0.23,0.58-0.41s0.35-0.37,0.5-0.59s0.26-0.46,0.35-0.72
			C109.54,44.92,109.62,44.58,109.72,44.09z"/>
		<path d="M112.29,47.21c-0.08-0.09-0.13-0.15-0.15-0.18s-0.03-0.06-0.03-0.09c0-0.05,0.02-0.1,0.06-0.17
			c0.07-0.11,0.23-0.27,0.47-0.49c-0.07,0-0.13,0-0.18,0c-0.33,0-0.58-0.08-0.75-0.25s-0.26-0.41-0.26-0.71s0.07-0.59,0.22-0.86
			s0.36-0.48,0.65-0.65s0.59-0.25,0.89-0.25c0.25,0,0.45,0.04,0.61,0.13c0.12,0.07,0.23,0.17,0.31,0.3
			c0.24-0.01,0.37-0.01,0.39-0.01c0.07-0.01,0.17-0.02,0.29-0.04l0.02,0.02l-0.06,0.39c-0.07-0.01-0.14-0.01-0.19-0.01
			c-0.09,0-0.2,0.01-0.33,0.02c0.01,0.09,0.02,0.16,0.02,0.23c0,0.18-0.02,0.34-0.07,0.47s-0.11,0.27-0.19,0.38
			s-0.16,0.22-0.25,0.31s-0.21,0.18-0.37,0.26s-0.31,0.15-0.46,0.18c-0.15,0.14-0.22,0.26-0.22,0.36c0,0.1,0.04,0.19,0.11,0.27
			c0.08,0.09,0.31,0.29,0.7,0.62c0.22,0.18,0.36,0.33,0.43,0.47s0.11,0.27,0.11,0.4c0,0.17-0.06,0.35-0.18,0.53
			s-0.34,0.34-0.65,0.48s-0.68,0.21-1.11,0.21c-0.48,0-0.83-0.09-1.06-0.27s-0.34-0.41-0.34-0.68c0-0.16,0.05-0.33,0.14-0.5
			s0.26-0.33,0.51-0.49S111.92,47.32,112.29,47.21z M112.41,47.35c-0.23,0.06-0.44,0.15-0.64,0.28s-0.33,0.26-0.42,0.41
			s-0.12,0.3-0.12,0.46c0,0.23,0.09,0.43,0.28,0.59s0.46,0.24,0.82,0.24c0.4,0,0.71-0.09,0.95-0.27c0.17-0.13,0.26-0.3,0.26-0.49
			c0-0.1-0.03-0.2-0.08-0.3s-0.14-0.2-0.26-0.31L112.41,47.35z M112.02,45.16c0,0.28,0.07,0.5,0.2,0.64s0.31,0.22,0.54,0.22
			c0.2,0,0.36-0.06,0.5-0.18s0.24-0.29,0.31-0.52s0.11-0.46,0.11-0.7c0-0.27-0.06-0.48-0.19-0.62s-0.3-0.21-0.52-0.21
			c-0.31,0-0.55,0.13-0.71,0.4S112.02,44.79,112.02,45.16z"/>
		<path d="M117.51,46.47l0.05,0.15c-0.3,0.27-0.6,0.48-0.89,0.62s-0.54,0.21-0.74,0.21c-0.13,0-0.27-0.03-0.42-0.1
			s-0.26-0.18-0.35-0.32s-0.13-0.35-0.13-0.62c0-0.29,0.05-0.62,0.15-0.97s0.2-0.62,0.3-0.8s0.23-0.33,0.41-0.47
			c0.24-0.2,0.49-0.36,0.76-0.48c0.19-0.09,0.37-0.13,0.54-0.13c0.2,0,0.36,0.05,0.48,0.16s0.19,0.25,0.19,0.44
			c0,0.14-0.03,0.27-0.08,0.4s-0.13,0.25-0.23,0.34c-0.14,0.13-0.33,0.26-0.57,0.37c-0.25,0.11-0.5,0.21-0.76,0.29l-0.51,0.12
			c-0.05,0.27-0.07,0.47-0.07,0.62c0,0.26,0.06,0.45,0.17,0.57c0.11,0.13,0.25,0.19,0.42,0.19c0.15,0,0.32-0.04,0.51-0.11
			C116.91,46.86,117.17,46.71,117.51,46.47z M115.72,45.47c0.33-0.06,0.62-0.15,0.86-0.27s0.41-0.26,0.52-0.43s0.16-0.33,0.16-0.49
			c0-0.13-0.03-0.23-0.1-0.3s-0.15-0.11-0.26-0.11c-0.15,0-0.3,0.04-0.46,0.13s-0.28,0.22-0.37,0.4S115.86,44.94,115.72,45.47z"/>
	</g>
	<g>
		<path d="M110.55,116.99l-0.12-0.23c0.36-0.27,0.83-0.57,1.42-0.89c0.24-0.13,0.43-0.2,0.56-0.2c0.07,0,0.14,0.03,0.18,0.08
			s0.07,0.13,0.07,0.23c0,0.09-0.03,0.26-0.09,0.52c-0.55,2.22-0.82,3.53-0.82,3.92c0,0.09,0.02,0.16,0.05,0.2s0.08,0.06,0.13,0.06
			c0.07,0,0.16-0.03,0.27-0.09c0.29-0.15,0.6-0.41,0.96-0.78s0.67-0.78,0.97-1.26c0.18-0.28,0.33-0.62,0.46-1.03
			s0.26-0.96,0.39-1.65c0.1-0.02,0.37-0.08,0.8-0.19l0.09,0.09l-0.32,1.06c-0.15,0.55-0.3,1.16-0.44,1.81s-0.23,1.11-0.27,1.38
			c-0.02,0.13-0.02,0.26-0.02,0.39c0,0.1,0.02,0.17,0.05,0.21s0.08,0.06,0.13,0.06s0.13-0.03,0.22-0.08s0.33-0.22,0.72-0.52
			l0.13,0.22c-0.66,0.54-1.13,0.88-1.41,1.04c-0.2,0.11-0.36,0.17-0.47,0.17c-0.07,0-0.14-0.04-0.2-0.11s-0.09-0.17-0.09-0.31
			c0-0.08,0.01-0.18,0.02-0.29c0.03-0.18,0.11-0.54,0.22-1.08l0.24-1.03l-0.04-0.02c-0.4,0.57-0.64,0.9-0.71,1
			c-0.29,0.36-0.63,0.7-1,1.03s-0.74,0.58-1.08,0.74c-0.11,0.05-0.21,0.08-0.29,0.08c-0.11,0-0.21-0.05-0.29-0.16
			s-0.13-0.27-0.13-0.5c0-0.3,0.08-0.76,0.23-1.38c0.22-0.91,0.38-1.62,0.48-2.15c0.06-0.34,0.09-0.56,0.09-0.67
			c0-0.06-0.01-0.11-0.04-0.14s-0.06-0.05-0.11-0.05C111.35,116.49,111.04,116.66,110.55,116.99z"/>
	</g>
	<g>
		<path d="M42.14,96.21l0.49-1.39c0.18-0.06,0.35-0.09,0.5-0.09c0.14,0,0.3,0.01,0.47,0.02c0.48,0.05,0.82,0.08,1,0.08
			c0.21,0,0.42-0.03,0.62-0.1l0.11,0.16c-0.34,0.45-0.56,0.74-0.66,0.89c-0.22,0.34-0.4,0.67-0.54,1s-0.25,0.64-0.31,0.95
			s-0.1,0.61-0.1,0.9c0,0.43,0.09,0.75,0.27,0.96s0.4,0.31,0.67,0.31c0.3,0,0.6-0.13,0.89-0.39c0.39-0.34,0.71-0.84,0.96-1.51
			s0.37-1.25,0.37-1.73c0-0.29-0.05-0.49-0.16-0.63c-0.08-0.1-0.2-0.15-0.36-0.15c-0.1,0-0.21,0.03-0.32,0.1l-0.13-0.21
			c0.12-0.1,0.22-0.18,0.29-0.25l0.37-0.39c0.07-0.04,0.15-0.05,0.23-0.05c0.15,0,0.29,0.04,0.42,0.13s0.23,0.21,0.3,0.38
			s0.11,0.37,0.11,0.59c0,0.38-0.07,0.77-0.2,1.19s-0.32,0.84-0.55,1.25s-0.49,0.78-0.77,1.1c-0.37,0.42-0.72,0.72-1.06,0.91
			s-0.63,0.28-0.86,0.28c-0.21,0-0.43-0.06-0.64-0.19s-0.39-0.31-0.5-0.54s-0.18-0.51-0.18-0.81c0-0.57,0.13-1.13,0.38-1.67
			s0.72-1.19,1.4-1.94c-0.2,0.04-0.4,0.05-0.6,0.05l-0.52-0.02c-0.25,0-0.49,0.02-0.71,0.06c-0.08,0.12-0.22,0.37-0.42,0.74
			L42.14,96.21z"/>
	</g>
	<g>
	</g>
	<g>
	</g>
	<g>
	</g>
	<g>
	</g>
	<g>
	</g>
	<g>
	</g>
	<g>
	</g>
	<g>
	</g>
	<g>
	</g>
	<g>
	</g>
	<g>
	</g>
	<g>
	</g>
	<g>
	</g>
	<g>
	</g>
	<g>
	</g>
</g>
</svg>
