<?xml version="1.0" encoding="utf-8"?>
<!-- Generator: Adobe Illustrator 23.0.4, SVG Export Plug-In . SVG Version: 6.00 Build 0)  -->
<svg version="1.1" xmlns="http://www.w3.org/2000/svg" xmlns:xlink="http://www.w3.org/1999/xlink" x="0px" y="0px"
	 viewBox="0 0 168.27 147.33" style="enable-background:new 0 0 168.27 147.33;" xml:space="preserve">
<style type="text/css">
	.st0{fill:#FFFFFF;}
	.st1{opacity:0.5;fill:#FFCE6A;}
	.st2{fill:none;stroke:#F7931E;stroke-miterlimit:10;}
	.st3{opacity:0.4;fill:#FF2F92;}
	.st4{opacity:0.4;fill:none;stroke:#662D91;stroke-width:2;stroke-linecap:round;stroke-linejoin:round;stroke-miterlimit:10;}
	.st5{fill:url(#SVGID_1_);}
	.st6{opacity:0.4;fill:none;stroke:#1B1464;stroke-miterlimit:10;}
	.st7{fill:url(#SVGID_2_);}
	.st8{fill:none;stroke:#FF2F92;stroke-linejoin:round;stroke-miterlimit:10;}
	.st9{fill:#FF2F92;}
</style>
<g id="Triangles">
	<circle class="st0" cx="83.13" cy="72.32" r="64.32"/>
	<circle class="st1" cx="83.13" cy="72.32" r="64.32"/>
	<circle class="st2" cx="83.13" cy="72.32" r="64.32"/>
	<polyline class="st0" points="66.88,134.57 145.47,88.21 111.58,14.62 26.31,42.15 66.88,134.57 	"/>
	<polyline class="st3" points="66.88,134.57 145.47,88.21 111.58,14.62 26.31,42.15 66.88,134.57 	"/>
	<polyline class="st4" points="114.78,82.14 42.84,52.91 51.02,62.48 	"/>
	<polyline class="st4" points="40.95,59.38 65.3,117.05 66.29,104.51 	"/>
	<polyline class="st4" points="74.76,122.53 128.97,91.23 116.4,91.81 	"/>
	<polyline class="st4" points="100.63,24.51 47.15,41.05 59.54,43.27 	"/>
	<polyline class="st4" points="62.44,51.42 114.78,71.25 106.38,61.88 	"/>
	<polyline class="st4" points="134.17,76.74 110.32,26.1 109.85,38.67 	"/>
</g>
<g id="Text_1_">
	<g>
		<path d="M70.52,76.59l-0.04-0.1c0.67-0.94,1.21-1.74,1.64-2.4c0.54-0.83,1.04-1.62,1.49-2.38s0.79-1.34,1.01-1.74
			c0.03-0.06,0.06-0.11,0.07-0.16c0.03-0.07,0.03-0.13,0.02-0.17c-0.01-0.04-0.06-0.09-0.12-0.13c-0.07-0.04-0.3-0.14-0.71-0.29
			L74,69c0.88,0.18,1.54,0.26,1.98,0.23l0.07,0.15c-0.17,0.25-0.3,0.44-0.39,0.58l-1.32,2.03l-1.25,1.96l0.03,0.04
			c0.43-0.26,0.77-0.45,1.01-0.58c0.42-0.21,0.82-0.37,1.21-0.47c0.39-0.1,0.76-0.15,1.12-0.15c0.25,0.01,0.43,0.03,0.55,0.08
			c0.08,0.03,0.14,0.09,0.18,0.17c0.04,0.09,0.04,0.17,0,0.27c-0.03,0.07-0.07,0.15-0.12,0.24c-0.07,0.11-0.27,0.4-0.59,0.87
			c-0.59,0.84-1.07,1.56-1.46,2.17c-0.18,0.28-0.28,0.46-0.32,0.55c-0.02,0.05-0.02,0.1-0.01,0.14c0.02,0.04,0.04,0.07,0.08,0.08
			c0.14,0.05,0.52-0.01,1.16-0.2l0.03,0.24c-0.26,0.09-0.6,0.19-1.01,0.29c-0.41,0.1-0.75,0.15-1.02,0.17c-0.08,0-0.14,0-0.19-0.02
			c-0.07-0.03-0.12-0.09-0.14-0.18s-0.01-0.22,0.05-0.38c0.06-0.15,0.18-0.36,0.38-0.65l1.08-1.6c0.38-0.56,0.65-0.97,0.81-1.25
			c0.05-0.09,0.08-0.16,0.11-0.21c0.02-0.06,0.02-0.12,0-0.17c-0.02-0.05-0.07-0.08-0.14-0.11c-0.11-0.04-0.24-0.05-0.38-0.04
			c-0.37,0.04-0.8,0.17-1.28,0.39c-0.48,0.21-0.89,0.48-1.23,0.79c-0.34,0.31-0.65,0.68-0.93,1.1l-0.71,1.17l-0.61-0.09
			C70.67,76.59,70.59,76.59,70.52,76.59z"/>
		<path d="M80.1,78.69l-0.01,0.24c-0.57,0.22-1.09,0.35-1.57,0.39c-0.48,0.04-0.87,0-1.15-0.11c-0.19-0.07-0.36-0.19-0.53-0.37
			c-0.17-0.18-0.28-0.39-0.32-0.64c-0.04-0.25,0.01-0.56,0.15-0.94c0.16-0.41,0.4-0.84,0.73-1.29c0.33-0.45,0.61-0.77,0.84-0.96
			c0.23-0.2,0.51-0.34,0.82-0.45c0.44-0.15,0.88-0.24,1.32-0.27c0.31-0.02,0.59,0.01,0.83,0.1c0.27,0.1,0.47,0.26,0.59,0.48
			c0.12,0.21,0.13,0.45,0.03,0.71c-0.07,0.19-0.18,0.36-0.33,0.52s-0.32,0.28-0.51,0.36c-0.26,0.11-0.6,0.19-1,0.22
			c-0.4,0.03-0.81,0.03-1.22-0.01L78,76.58c-0.21,0.35-0.36,0.62-0.44,0.84c-0.14,0.36-0.16,0.66-0.07,0.9
			c0.09,0.24,0.25,0.4,0.49,0.49c0.21,0.08,0.47,0.12,0.77,0.11C79.05,78.92,79.51,78.84,80.1,78.69z M78.14,76.33
			c0.5,0.09,0.95,0.12,1.35,0.08c0.4-0.04,0.72-0.15,0.96-0.33c0.24-0.18,0.41-0.38,0.49-0.6c0.07-0.19,0.08-0.35,0.02-0.48
			c-0.06-0.13-0.16-0.23-0.31-0.29c-0.21-0.08-0.45-0.1-0.72-0.06c-0.26,0.04-0.51,0.17-0.74,0.37
			C78.97,75.22,78.62,75.66,78.14,76.33z"/>
		<path d="M85.85,80.9l0.03,0.24c-0.29,0.11-0.61,0.22-0.97,0.31c-0.36,0.1-0.66,0.15-0.9,0.16c-0.13,0.01-0.23,0-0.29-0.02
			c-0.07-0.02-0.11-0.08-0.14-0.18s-0.01-0.23,0.06-0.41c0.04-0.12,0.1-0.24,0.18-0.37c0.08-0.13,0.38-0.6,0.92-1.4l-0.03-0.02
			c-0.45,0.36-0.95,0.67-1.49,0.93c-0.54,0.26-1.04,0.42-1.5,0.48c-0.29,0.04-0.5,0.03-0.65-0.03c-0.15-0.06-0.23-0.21-0.24-0.46
			c-0.01-0.25,0.04-0.53,0.16-0.84c0.16-0.43,0.41-0.88,0.73-1.36c0.33-0.48,0.66-0.88,1.01-1.19c0.27-0.24,0.53-0.41,0.8-0.52
			c0.42-0.17,0.86-0.26,1.33-0.29c0.23-0.01,0.45,0.03,0.68,0.12c0.18,0.07,0.47,0.23,0.85,0.47l0.76-1.28
			c0.16-0.28,0.26-0.45,0.29-0.52c0.04-0.11,0.05-0.2,0.02-0.26s-0.11-0.12-0.25-0.17l-0.53-0.21l0.11-0.21
			c0.47,0.11,0.82,0.18,1.04,0.2c0.23,0.02,0.52,0.01,0.88-0.04l0.1,0.16c-0.14,0.2-0.42,0.63-0.84,1.29
			c-0.26,0.43-0.94,1.5-2.04,3.21c-0.54,0.84-0.91,1.44-1.1,1.79c-0.06,0.11-0.11,0.21-0.14,0.31c-0.04,0.1-0.05,0.17-0.03,0.22
			c0.01,0.05,0.04,0.08,0.09,0.1c0.07,0.02,0.17,0.02,0.32-0.01C85.35,81.05,85.62,80.98,85.85,80.9z M86.03,77.12
			c-0.27-0.31-0.59-0.53-0.96-0.67c-0.27-0.1-0.5-0.15-0.7-0.13c-0.14,0.01-0.28,0.05-0.42,0.14c-0.14,0.09-0.35,0.3-0.65,0.65
			s-0.53,0.66-0.73,0.95c-0.32,0.47-0.56,0.92-0.72,1.36c-0.06,0.16-0.1,0.29-0.1,0.36c0,0.08,0.01,0.14,0.03,0.18
			c0.02,0.04,0.06,0.07,0.11,0.09c0.09,0.04,0.2,0.05,0.33,0.04c0.33-0.03,0.67-0.12,1.02-0.26c0.35-0.14,0.69-0.33,1.01-0.57
			s0.62-0.51,0.88-0.83C85.33,78.18,85.63,77.75,86.03,77.12z"/>
		<path d="M87.97,82.86c-0.07-0.17-0.11-0.28-0.11-0.33c-0.01-0.05,0-0.1,0.01-0.14c0.03-0.07,0.08-0.14,0.18-0.21
			c0.16-0.12,0.47-0.26,0.92-0.43c-0.1-0.04-0.19-0.07-0.26-0.09c-0.46-0.17-0.76-0.42-0.92-0.76c-0.16-0.33-0.15-0.71,0.01-1.14
			c0.16-0.43,0.42-0.79,0.76-1.09s0.76-0.48,1.26-0.56s0.96-0.04,1.38,0.12c0.34,0.13,0.6,0.3,0.78,0.51
			c0.14,0.16,0.23,0.36,0.28,0.59c0.34,0.12,0.53,0.18,0.55,0.19c0.11,0.03,0.25,0.06,0.42,0.1l0.01,0.04l-0.3,0.51
			c-0.1-0.05-0.19-0.08-0.26-0.11c-0.12-0.05-0.28-0.1-0.47-0.15c-0.03,0.13-0.07,0.24-0.1,0.33c-0.09,0.25-0.21,0.46-0.36,0.63
			c-0.14,0.17-0.3,0.31-0.46,0.44s-0.34,0.22-0.51,0.3c-0.18,0.08-0.4,0.13-0.66,0.17s-0.51,0.04-0.74,0.01
			c-0.28,0.12-0.44,0.24-0.5,0.38c-0.05,0.13-0.05,0.28,0.01,0.44c0.06,0.16,0.28,0.58,0.65,1.24c0.21,0.36,0.33,0.66,0.36,0.89
			s0.01,0.44-0.06,0.62c-0.09,0.25-0.27,0.46-0.54,0.65c-0.27,0.19-0.66,0.3-1.17,0.33c-0.52,0.03-1.07-0.07-1.67-0.3
			c-0.68-0.26-1.12-0.57-1.34-0.95c-0.22-0.38-0.25-0.75-0.11-1.13c0.09-0.23,0.24-0.44,0.46-0.62c0.22-0.19,0.54-0.32,0.98-0.42
			S87.41,82.81,87.97,82.86z M88.07,83.12c-0.35-0.04-0.7-0.03-1.04,0.05s-0.61,0.19-0.81,0.35c-0.2,0.17-0.33,0.36-0.42,0.58
			c-0.12,0.33-0.1,0.66,0.08,0.98c0.18,0.32,0.52,0.58,1.02,0.77c0.55,0.21,1.04,0.25,1.47,0.12c0.31-0.09,0.52-0.28,0.62-0.55
			c0.05-0.14,0.07-0.3,0.05-0.47s-0.09-0.36-0.21-0.57L88.07,83.12z M88.68,79.84c-0.15,0.4-0.17,0.73-0.06,1.01
			s0.32,0.47,0.64,0.59c0.27,0.1,0.54,0.11,0.79,0.02c0.26-0.09,0.5-0.28,0.72-0.57s0.4-0.59,0.52-0.92
			c0.15-0.38,0.17-0.71,0.06-0.97s-0.31-0.45-0.61-0.57c-0.43-0.16-0.84-0.1-1.21,0.19C89.17,78.92,88.88,79.32,88.68,79.84z"/>
		<path d="M95.69,84.6l-0.01,0.24c-0.57,0.22-1.09,0.35-1.57,0.39c-0.49,0.04-0.87,0-1.15-0.11c-0.19-0.07-0.36-0.19-0.53-0.37
			c-0.17-0.17-0.27-0.39-0.32-0.64c-0.04-0.25,0.01-0.56,0.15-0.94c0.16-0.41,0.4-0.84,0.73-1.29c0.33-0.45,0.61-0.77,0.84-0.96
			c0.23-0.2,0.51-0.34,0.82-0.45c0.44-0.15,0.88-0.24,1.32-0.27c0.31-0.02,0.59,0.01,0.83,0.1c0.27,0.1,0.47,0.26,0.59,0.47
			c0.12,0.21,0.13,0.45,0.03,0.71c-0.07,0.19-0.18,0.36-0.33,0.52s-0.32,0.28-0.51,0.36c-0.26,0.11-0.6,0.18-1,0.21
			c-0.4,0.03-0.81,0.03-1.22-0.01l-0.77-0.1c-0.21,0.35-0.36,0.62-0.44,0.84c-0.14,0.36-0.16,0.66-0.07,0.9
			c0.09,0.24,0.25,0.4,0.49,0.49c0.21,0.08,0.47,0.12,0.77,0.11C94.64,84.83,95.09,84.75,95.69,84.6z M93.72,82.24
			c0.5,0.09,0.95,0.12,1.35,0.08c0.4-0.04,0.72-0.15,0.96-0.33c0.24-0.18,0.41-0.38,0.49-0.6c0.07-0.19,0.08-0.35,0.02-0.48
			c-0.06-0.13-0.16-0.23-0.31-0.29c-0.21-0.08-0.45-0.1-0.72-0.05c-0.26,0.04-0.51,0.17-0.74,0.37
			C94.56,81.14,94.2,81.57,93.72,82.24z"/>
	</g>
	<g>
		<path d="M40.36,93.38l-0.63,2.94c-0.07,0.31-0.1,0.55-0.1,0.72c0,0.49,0.23,0.73,0.69,0.73c0.56,0,1.1-0.47,1.6-1.41l0.22,0.08
			c-0.6,1.18-1.31,1.78-2.13,1.78c-0.38,0-0.68-0.1-0.89-0.3c-0.22-0.2-0.33-0.46-0.33-0.79c0-0.23,0.07-0.68,0.22-1.36l0.34-1.57
			l-1.1,0.73l-0.13-0.21l1.32-0.91l0.36-1.37c0.21-0.81,0.4-1.39,0.55-1.75c0.16-0.36,0.4-0.67,0.73-0.92s0.68-0.38,1.05-0.38
			c0.28,0,0.52,0.09,0.71,0.26s0.29,0.4,0.29,0.67c0,0.39-0.18,0.81-0.54,1.25C42.22,92.03,41.48,92.63,40.36,93.38z M40.47,93.02
			c1.02-0.73,1.66-1.29,1.92-1.65s0.39-0.69,0.39-0.98c0-0.36-0.19-0.54-0.57-0.54c-0.26,0-0.5,0.14-0.72,0.41s-0.38,0.61-0.5,0.99
			L40.47,93.02z"/>
	</g>
	<g>
		<path d="M41.57,101.1l0.22-1.12l0.19,0.03c-0.02,0.16-0.03,0.28-0.03,0.37c0,0.23,0.08,0.43,0.25,0.58
			c0.17,0.15,0.4,0.23,0.7,0.23c0.27,0,0.51-0.07,0.71-0.22c0.2-0.15,0.36-0.35,0.47-0.61s0.17-0.54,0.17-0.83
			c0-0.2-0.04-0.38-0.13-0.54c-0.08-0.16-0.21-0.28-0.38-0.36c-0.17-0.08-0.35-0.12-0.56-0.12c-0.07,0-0.16,0.01-0.27,0.02
			s-0.23,0.04-0.37,0.07l-0.03-0.03l0.13-0.37c0.09,0,0.17,0.01,0.23,0.01s0.1,0.01,0.13,0.01c0.22,0,0.42-0.05,0.62-0.15
			c0.2-0.1,0.35-0.25,0.45-0.43c0.1-0.19,0.16-0.37,0.16-0.56c0-0.22-0.07-0.4-0.21-0.54c-0.14-0.13-0.32-0.2-0.56-0.2
			c-0.23,0-0.43,0.05-0.58,0.16c-0.12,0.08-0.27,0.24-0.46,0.49l-0.15-0.1l0.47-0.79c0.14-0.08,0.29-0.14,0.44-0.18
			c0.16-0.04,0.32-0.06,0.49-0.06c0.37,0,0.66,0.1,0.87,0.29s0.31,0.44,0.31,0.74c0,0.19-0.04,0.37-0.12,0.54s-0.21,0.32-0.39,0.46
			c-0.12,0.1-0.32,0.22-0.61,0.37l0,0.02c0.22,0.03,0.43,0.1,0.62,0.21s0.33,0.24,0.43,0.41c0.09,0.17,0.14,0.37,0.14,0.62
			c0,0.33-0.09,0.64-0.26,0.94c-0.17,0.3-0.44,0.54-0.8,0.73c-0.36,0.19-0.74,0.28-1.14,0.28c-0.21,0-0.42-0.03-0.61-0.09
			C41.93,101.31,41.75,101.22,41.57,101.1z"/>
	</g>
	<g>
		<path d="M90.12,58.78l-0.63,2.94c-0.07,0.31-0.1,0.55-0.1,0.72c0,0.49,0.23,0.73,0.69,0.73c0.56,0,1.1-0.47,1.6-1.41l0.22,0.08
			c-0.6,1.18-1.31,1.78-2.13,1.78c-0.38,0-0.68-0.1-0.89-0.3c-0.22-0.2-0.33-0.46-0.33-0.79c0-0.23,0.07-0.68,0.22-1.36l0.34-1.57
			L88,60.32l-0.13-0.21l1.32-0.91l0.36-1.37c0.21-0.81,0.4-1.39,0.55-1.75c0.16-0.36,0.4-0.67,0.73-0.92
			c0.33-0.25,0.68-0.38,1.05-0.38c0.28,0,0.52,0.09,0.71,0.26c0.19,0.17,0.29,0.4,0.29,0.67c0,0.39-0.18,0.81-0.54,1.25
			C91.98,57.42,91.24,58.02,90.12,58.78z M90.24,58.42c1.02-0.73,1.66-1.29,1.92-1.65s0.39-0.69,0.39-0.98
			c0-0.36-0.19-0.54-0.57-0.54c-0.26,0-0.5,0.14-0.72,0.41s-0.38,0.61-0.5,0.99L90.24,58.42z"/>
	</g>
	<g>
		<path d="M91.67,66.74l0.03-0.23c0.42-0.03,0.68-0.06,0.78-0.1c0.05-0.02,0.1-0.05,0.13-0.09c0.04-0.05,0.08-0.16,0.12-0.32
			c0.04-0.16,0.14-0.73,0.32-1.72c0.22-1.23,0.35-2.08,0.41-2.53c-0.45,0.17-0.95,0.39-1.49,0.65l-0.05-0.04l0.08-0.47
			c0.18-0.03,0.42-0.1,0.74-0.19s0.55-0.17,0.73-0.24s0.39-0.16,0.63-0.27l0.11,0.09c-0.11,0.5-0.22,1.04-0.32,1.62l-0.36,2.04
			c-0.08,0.51-0.13,0.86-0.15,1.04c-0.01,0.07-0.01,0.13-0.01,0.18c0,0.07,0.01,0.12,0.04,0.16s0.07,0.07,0.12,0.09
			c0.07,0.03,0.19,0.05,0.36,0.06l0.52,0.03l-0.04,0.22c-0.52-0.02-1.03-0.03-1.53-0.03C92.4,66.71,92.01,66.72,91.67,66.74z"/>
	</g>
	<g>
		<path d="M109.64,114.18l-0.63,2.94c-0.07,0.31-0.1,0.55-0.1,0.72c0,0.49,0.23,0.73,0.69,0.73c0.56,0,1.1-0.47,1.6-1.41l0.22,0.08
			c-0.6,1.18-1.31,1.78-2.13,1.78c-0.38,0-0.68-0.1-0.89-0.3s-0.33-0.46-0.33-0.79c0-0.23,0.07-0.68,0.22-1.36l0.34-1.57l-1.1,0.73
			l-0.13-0.21l1.32-0.92l0.36-1.37c0.21-0.8,0.4-1.39,0.55-1.75s0.4-0.67,0.73-0.92c0.33-0.25,0.68-0.38,1.05-0.38
			c0.28,0,0.52,0.09,0.71,0.26c0.19,0.17,0.29,0.4,0.29,0.67c0,0.39-0.18,0.81-0.54,1.25S110.76,113.43,109.64,114.18z
			 M109.75,113.82c1.02-0.73,1.66-1.29,1.92-1.65s0.39-0.69,0.39-0.98c0-0.36-0.19-0.54-0.57-0.54c-0.26,0-0.5,0.14-0.72,0.41
			s-0.38,0.61-0.5,0.99L109.75,113.82z"/>
	</g>
	<g>
		<path d="M110.84,122.15l0.01-0.15c0.12-0.13,0.46-0.49,1.01-1.08c0.49-0.53,0.85-0.97,1.08-1.31c0.24-0.35,0.4-0.64,0.48-0.9
			s0.12-0.48,0.12-0.67c0-0.16-0.04-0.31-0.11-0.45c-0.07-0.14-0.18-0.24-0.32-0.31c-0.14-0.07-0.29-0.11-0.46-0.11
			c-0.23,0-0.44,0.07-0.63,0.21c-0.19,0.14-0.36,0.35-0.51,0.63l-0.18-0.07c0.28-0.53,0.44-0.84,0.48-0.93
			c0.16-0.12,0.33-0.2,0.49-0.26c0.17-0.06,0.35-0.08,0.55-0.08c0.41,0,0.74,0.11,0.98,0.34c0.24,0.23,0.36,0.53,0.36,0.9
			c0,0.18-0.02,0.35-0.07,0.53c-0.05,0.17-0.12,0.34-0.22,0.51c-0.14,0.23-0.33,0.5-0.6,0.79c-0.17,0.2-0.54,0.58-1.11,1.16
			l-0.62,0.66l0.01,0.05l1.57,0c0.38,0,0.7-0.02,0.95-0.07l0.05,0.05c-0.06,0.22-0.1,0.41-0.13,0.55c-0.69-0.03-1.2-0.04-1.53-0.04
			c-0.03,0-0.12,0-0.25,0c-0.38,0.01-0.72,0.02-1.03,0.02C111.09,122.13,110.96,122.14,110.84,122.15z"/>
	</g>
	<g>
		<path d="M65.46,18.51l-0.63,2.94c-0.07,0.31-0.1,0.55-0.1,0.72c0,0.49,0.23,0.73,0.69,0.73c0.56,0,1.1-0.47,1.6-1.41l0.22,0.08
			c-0.6,1.18-1.31,1.78-2.13,1.78c-0.38,0-0.68-0.1-0.89-0.3c-0.22-0.2-0.33-0.46-0.33-0.79c0-0.23,0.07-0.68,0.22-1.36l0.34-1.57
			l-1.1,0.73l-0.13-0.21l1.32-0.91l0.36-1.37c0.21-0.81,0.4-1.39,0.55-1.75c0.16-0.36,0.4-0.67,0.73-0.92
			c0.33-0.25,0.68-0.38,1.05-0.38c0.28,0,0.52,0.09,0.71,0.26c0.19,0.17,0.29,0.4,0.29,0.67c0,0.39-0.18,0.81-0.54,1.25
			C67.32,17.16,66.58,17.76,65.46,18.51z M65.57,18.15c1.02-0.73,1.66-1.29,1.92-1.65s0.39-0.69,0.39-0.98
			c0-0.36-0.19-0.54-0.57-0.54c-0.26,0-0.5,0.14-0.72,0.41s-0.38,0.61-0.5,0.99L65.57,18.15z"/>
	</g>
	<g>
		<path d="M67.4,26.48l0.04-0.23c0.47-0.02,0.75-0.04,0.85-0.07c0.06-0.02,0.1-0.05,0.13-0.09c0.04-0.07,0.09-0.25,0.15-0.56
			l0.12-0.6h-1.41c-0.17,0-0.38,0-0.64,0.01l0.02-0.23c0.35-0.53,0.8-1.16,1.35-1.89c0.61-0.82,1.07-1.41,1.36-1.76
			c0.29-0.07,0.47-0.11,0.54-0.13l0.06,0.04l-0.12,0.61c-0.02,0.08-0.05,0.3-0.11,0.64l-0.4,2.27c0.49,0,0.82-0.01,1-0.03l0.04,0.05
			l-0.13,0.45c-0.08-0.01-0.17-0.01-0.27-0.02l-0.71-0.01l-0.09,0.54c-0.04,0.23-0.05,0.4-0.05,0.49c0,0.08,0.02,0.13,0.06,0.17
			c0.04,0.04,0.12,0.06,0.24,0.08l0.66,0.05l-0.05,0.22c-0.41-0.02-0.78-0.03-1.13-0.03C68.68,26.45,68.18,26.46,67.4,26.48z
			 M68.78,24.49l0.51-2.9l-0.03,0c-0.12,0.15-0.39,0.52-0.82,1.1s-0.66,0.9-0.71,0.96l-0.54,0.79l0.03,0.04
			c0.07,0.01,0.21,0.01,0.44,0.01s0.36,0.01,0.39,0.01L68.78,24.49z"/>
	</g>
	<g>
		<path d="M133.98,47.1l-0.63,2.94c-0.07,0.31-0.1,0.55-0.1,0.72c0,0.49,0.23,0.73,0.69,0.73c0.56,0,1.1-0.47,1.6-1.41l0.22,0.08
			c-0.6,1.18-1.31,1.78-2.13,1.78c-0.38,0-0.68-0.1-0.89-0.3c-0.22-0.2-0.33-0.46-0.33-0.79c0-0.23,0.07-0.68,0.22-1.36l0.34-1.57
			l-1.1,0.73l-0.13-0.21l1.32-0.91l0.36-1.37c0.21-0.81,0.4-1.39,0.55-1.75c0.16-0.36,0.4-0.67,0.73-0.92
			c0.33-0.25,0.68-0.38,1.05-0.38c0.28,0,0.52,0.09,0.71,0.26c0.19,0.17,0.29,0.4,0.29,0.67c0,0.39-0.18,0.81-0.54,1.25
			C135.84,45.74,135.1,46.35,133.98,47.1z M134.09,46.74c1.02-0.73,1.66-1.29,1.92-1.65s0.39-0.69,0.39-0.98
			c0-0.36-0.19-0.54-0.57-0.54c-0.26,0-0.5,0.14-0.72,0.41s-0.38,0.61-0.5,0.99L134.09,46.74z"/>
	</g>
	<g>
		<path d="M135.21,54.77c0.06-0.23,0.14-0.59,0.23-1.09l0.18,0.04c-0.01,0.15-0.02,0.26-0.02,0.33c0,0.16,0.04,0.3,0.12,0.43
			s0.19,0.23,0.35,0.3s0.33,0.11,0.52,0.11c0.26,0,0.5-0.07,0.7-0.22s0.37-0.38,0.48-0.68s0.17-0.6,0.17-0.89
			c0-0.2-0.04-0.39-0.12-0.55s-0.2-0.29-0.35-0.37s-0.32-0.12-0.5-0.12c-0.18,0-0.35,0.04-0.52,0.12c-0.11,0.05-0.26,0.17-0.45,0.35
			l-0.17-0.08c0.16-0.71,0.33-1.61,0.51-2.71l0.06-0.05c0.3,0.02,0.58,0.04,0.82,0.05s0.45,0.02,0.63,0.02c0.19,0,0.38,0,0.55-0.01
			s0.36-0.01,0.53-0.02l0.05,0.07l-0.28,0.46c-0.15,0.01-0.3,0.02-0.47,0.03s-0.35,0.01-0.54,0.01c-0.18,0-0.37,0-0.55-0.01
			s-0.37-0.01-0.55-0.02l-0.4,1.83c0.32-0.24,0.68-0.37,1.08-0.37c0.25,0,0.48,0.05,0.7,0.15s0.37,0.25,0.49,0.44
			s0.17,0.43,0.17,0.71c0,0.25-0.05,0.5-0.14,0.75s-0.22,0.47-0.37,0.66c-0.11,0.13-0.25,0.25-0.41,0.36s-0.32,0.2-0.49,0.27
			c-0.23,0.1-0.49,0.14-0.77,0.14c-0.27,0-0.53-0.04-0.76-0.13C135.52,54.98,135.36,54.89,135.21,54.77z"/>
	</g>
	<g>
		<path d="M6.26,36.51c0.27-0.36,0.47-0.61,0.62-0.76c0.23-0.24,0.48-0.44,0.73-0.6s0.5-0.28,0.76-0.35s0.48-0.11,0.66-0.11
			c0.16,0,0.29,0.06,0.37,0.18c0.14,0.23,0.22,0.58,0.22,1.07c0,0.66-0.15,1.35-0.44,2.06c-0.22,0.55-0.5,1-0.82,1.35
			S7.65,40,7.24,40.22s-0.79,0.33-1.12,0.33c-0.34,0-0.63-0.1-0.87-0.31s-0.36-0.43-0.36-0.66c0-0.09,0.01-0.18,0.02-0.27
			c0.01-0.07,0.05-0.29,0.13-0.66c0.14-0.62,0.43-2.15,0.87-4.61c0.13-0.73,0.19-1.17,0.19-1.33c0-0.1-0.03-0.16-0.09-0.19
			c-0.08-0.05-0.38-0.07-0.89-0.08l0.03-0.25c0.57-0.07,0.97-0.14,1.2-0.2s0.48-0.16,0.75-0.29l0.15,0.12
			c-0.05,0.19-0.12,0.46-0.18,0.79L6.26,36.51z M5.77,39.17c0,0.27,0.08,0.49,0.24,0.64s0.38,0.23,0.65,0.23
			c0.32,0,0.6-0.11,0.84-0.32c0.32-0.28,0.61-0.78,0.87-1.5s0.39-1.38,0.39-1.98c0-0.37-0.04-0.61-0.13-0.73
			c-0.06-0.09-0.16-0.13-0.31-0.13c-0.18,0-0.36,0.03-0.54,0.1s-0.36,0.18-0.56,0.34s-0.38,0.36-0.55,0.59s-0.31,0.47-0.42,0.71
			s-0.21,0.59-0.31,1.04S5.77,38.96,5.77,39.17z"/>
		<path d="M14.97,39.16l0.06,0.25l-0.88,0.68c-0.28,0.2-0.5,0.33-0.66,0.4c-0.05,0.03-0.11,0.04-0.15,0.04
			c-0.07,0-0.14-0.04-0.21-0.11s-0.1-0.17-0.1-0.28c0-0.41,0.13-1.1,0.39-2.07l-0.04-0.02c-0.29,0.41-0.52,0.72-0.69,0.91
			c-0.3,0.36-0.61,0.68-0.93,0.94s-0.6,0.46-0.86,0.57c-0.07,0.03-0.14,0.05-0.21,0.05c-0.11,0-0.19-0.05-0.25-0.15
			c-0.11-0.16-0.16-0.44-0.16-0.83c0-0.5,0.09-1.09,0.27-1.76s0.4-1.26,0.65-1.75c0.12-0.25,0.3-0.46,0.53-0.64
			c0.38-0.29,0.72-0.49,1.03-0.6c0.21-0.07,0.44-0.11,0.69-0.11c0.17,0,0.33,0.01,0.48,0.04s0.34,0.08,0.58,0.17l0.38-0.22
			l0.13,0.11c-0.25,0.86-0.47,1.68-0.66,2.45c-0.12,0.46-0.2,0.81-0.24,1.04c-0.07,0.36-0.13,0.71-0.18,1.04
			c-0.01,0.06-0.01,0.12-0.01,0.16c0,0.08,0.02,0.14,0.05,0.18c0.03,0.03,0.06,0.04,0.11,0.04c0.06,0,0.14-0.03,0.24-0.08
			S14.64,39.42,14.97,39.16z M14,35.48c-0.14-0.07-0.3-0.12-0.46-0.16s-0.33-0.05-0.5-0.05c-0.34,0-0.6,0.06-0.77,0.17
			c-0.08,0.05-0.17,0.18-0.27,0.39c-0.2,0.41-0.37,0.88-0.52,1.39c-0.23,0.8-0.34,1.5-0.34,2.1c0,0.11,0.01,0.18,0.03,0.23
			s0.04,0.09,0.08,0.11s0.07,0.04,0.1,0.04c0.07,0,0.19-0.05,0.34-0.15c0.3-0.21,0.62-0.5,0.95-0.89s0.61-0.83,0.82-1.32
			S13.85,36.24,14,35.48z"/>
		<path d="M15.54,40.27c0.09-0.4,0.15-0.7,0.18-0.9s0.05-0.43,0.07-0.68h0.29l-0.01,0.98c0.19,0.15,0.36,0.26,0.52,0.33
			c0.21,0.09,0.42,0.13,0.64,0.13c0.26,0,0.5-0.06,0.71-0.17s0.38-0.27,0.49-0.48s0.17-0.43,0.17-0.67c0-0.17-0.03-0.32-0.1-0.45
			s-0.16-0.21-0.26-0.26s-0.33-0.1-0.67-0.15c-0.49-0.07-0.83-0.16-1.01-0.25s-0.32-0.23-0.42-0.41s-0.16-0.4-0.16-0.64
			c0-0.22,0.04-0.43,0.13-0.62s0.22-0.36,0.39-0.52s0.38-0.31,0.61-0.45s0.44-0.24,0.61-0.29s0.38-0.08,0.61-0.08
			c0.23,0,0.44,0.02,0.64,0.07s0.38,0.12,0.55,0.23c-0.05,0.18-0.09,0.35-0.12,0.49c-0.02,0.09-0.05,0.38-0.1,0.88h-0.28
			c0-0.32-0.01-0.56-0.02-0.72c-0.14-0.15-0.3-0.27-0.48-0.34s-0.39-0.11-0.62-0.11c-0.37,0-0.66,0.11-0.89,0.32
			s-0.34,0.47-0.34,0.77c0,0.24,0.07,0.43,0.22,0.57c0.14,0.14,0.44,0.25,0.9,0.32s0.76,0.13,0.91,0.19
			c0.23,0.09,0.4,0.22,0.52,0.39s0.18,0.37,0.18,0.6c0,0.28-0.06,0.54-0.19,0.79s-0.32,0.48-0.58,0.7s-0.54,0.4-0.84,0.55
			s-0.63,0.22-0.98,0.22c-0.21,0-0.42-0.02-0.61-0.07S15.79,40.4,15.54,40.27z"/>
		<path d="M24,39.09l0.08,0.23c-0.45,0.41-0.89,0.72-1.33,0.93s-0.81,0.31-1.12,0.31c-0.2,0-0.41-0.05-0.63-0.16
			s-0.39-0.26-0.52-0.48s-0.19-0.53-0.19-0.93c0-0.44,0.07-0.93,0.22-1.46s0.3-0.93,0.45-1.2s0.35-0.5,0.61-0.71
			c0.36-0.29,0.73-0.53,1.14-0.72c0.28-0.13,0.55-0.2,0.81-0.2c0.29,0,0.53,0.08,0.72,0.23s0.28,0.38,0.28,0.66
			c0,0.2-0.04,0.4-0.13,0.6s-0.2,0.37-0.35,0.52c-0.21,0.2-0.49,0.38-0.86,0.56c-0.37,0.17-0.75,0.31-1.15,0.43l-0.76,0.18
			c-0.07,0.4-0.11,0.71-0.11,0.94c0,0.38,0.08,0.67,0.25,0.86c0.17,0.19,0.38,0.29,0.63,0.29c0.23,0,0.48-0.06,0.76-0.17
			C23.1,39.67,23.5,39.44,24,39.09z M21.33,37.58c0.5-0.09,0.93-0.23,1.29-0.41s0.62-0.39,0.78-0.65s0.24-0.5,0.24-0.74
			c0-0.2-0.05-0.35-0.15-0.46s-0.23-0.16-0.39-0.16c-0.23,0-0.46,0.07-0.69,0.2s-0.42,0.34-0.56,0.61S21.54,36.78,21.33,37.58z"/>
	</g>
	<g>
		<path d="M145.6,97.39c0-0.48,0.05-0.93,0.15-1.35s0.24-0.78,0.42-1.09s0.4-0.58,0.66-0.82s0.56-0.43,0.88-0.57
			s0.64-0.21,0.95-0.21c0.28,0,0.55,0.06,0.8,0.18s0.45,0.31,0.59,0.57s0.21,0.62,0.21,1.07c0,0.6-0.12,1.2-0.36,1.8
			c-0.19,0.48-0.41,0.86-0.66,1.16s-0.56,0.55-0.95,0.76s-0.78,0.31-1.16,0.31c-0.47,0-0.84-0.15-1.12-0.45S145.6,98,145.6,97.39z
			 M146.53,97.31c0,0.38,0.04,0.66,0.12,0.86s0.21,0.34,0.37,0.45s0.36,0.15,0.59,0.15c0.25,0,0.47-0.07,0.66-0.2
			s0.37-0.38,0.55-0.73s0.31-0.77,0.4-1.26s0.12-0.92,0.12-1.3c0-0.49-0.09-0.86-0.27-1.12s-0.45-0.38-0.8-0.38
			c-0.56,0-1,0.34-1.3,1.01S146.53,96.3,146.53,97.31z"/>
		<path d="M150.71,102.36l-0.07-0.07c0.2-0.91,0.35-1.65,0.46-2.21c0.3-1.61,0.53-2.86,0.68-3.74c0.09-0.55,0.17-1.14,0.23-1.76
			c0.01-0.09,0.02-0.16,0.02-0.21c0-0.06-0.02-0.11-0.05-0.15s-0.07-0.05-0.11-0.05c-0.02,0-0.05,0-0.08,0.01s-0.08,0.03-0.16,0.07
			s-0.18,0.1-0.34,0.2l-0.46,0.29l-0.12-0.22c0.45-0.38,0.9-0.68,1.33-0.91c0.3-0.15,0.52-0.23,0.67-0.23c0.09,0,0.15,0.02,0.2,0.07
			s0.07,0.12,0.07,0.21c0,0.05,0,0.11-0.01,0.18s-0.03,0.22-0.06,0.44c-0.06,0.34-0.1,0.54-0.11,0.62
			c-0.07,0.36-0.12,0.59-0.13,0.69c0.33-0.55,0.68-0.98,1.05-1.31s0.74-0.57,1.11-0.72c0.28-0.11,0.51-0.17,0.71-0.17
			c0.15,0,0.27,0.04,0.35,0.11s0.17,0.22,0.24,0.45s0.11,0.49,0.11,0.79c0,0.48-0.11,1.04-0.33,1.68c-0.17,0.51-0.37,0.92-0.59,1.24
			s-0.53,0.61-0.93,0.88s-0.77,0.47-1.14,0.62c-0.14,0.05-0.27,0.08-0.4,0.08c-0.09,0-0.18-0.01-0.26-0.03s-0.26-0.07-0.51-0.14
			c-0.04,0.3-0.12,0.79-0.23,1.48l-0.26,1.66C151.18,102.22,150.89,102.28,150.71,102.36z M152.19,98.37
			c0.32,0.19,0.66,0.28,1.01,0.28c0.29,0,0.53-0.06,0.72-0.18s0.37-0.33,0.54-0.62c0.27-0.47,0.49-0.98,0.64-1.53
			s0.23-1.03,0.23-1.44c0-0.35-0.04-0.57-0.11-0.67s-0.17-0.15-0.3-0.15c-0.19,0-0.39,0.05-0.6,0.15s-0.42,0.26-0.64,0.46
			c-0.28,0.27-0.52,0.59-0.74,0.97s-0.38,0.81-0.49,1.29C152.42,97.08,152.33,97.57,152.19,98.37z"/>
		<path d="M156.71,102.36l-0.07-0.07c0.2-0.91,0.35-1.65,0.46-2.21c0.3-1.61,0.53-2.86,0.68-3.74c0.09-0.55,0.17-1.14,0.23-1.76
			c0.01-0.09,0.02-0.16,0.02-0.21c0-0.06-0.02-0.11-0.05-0.15s-0.07-0.05-0.11-0.05c-0.02,0-0.05,0-0.08,0.01s-0.08,0.03-0.16,0.07
			s-0.18,0.1-0.34,0.2l-0.46,0.29l-0.12-0.22c0.45-0.38,0.9-0.68,1.33-0.91c0.3-0.15,0.52-0.23,0.67-0.23c0.09,0,0.15,0.02,0.2,0.07
			s0.07,0.12,0.07,0.21c0,0.05,0,0.11-0.01,0.18s-0.03,0.22-0.06,0.44c-0.06,0.34-0.1,0.54-0.11,0.62
			c-0.07,0.36-0.12,0.59-0.13,0.69c0.33-0.55,0.68-0.98,1.05-1.31s0.74-0.57,1.11-0.72c0.28-0.11,0.51-0.17,0.71-0.17
			c0.15,0,0.27,0.04,0.35,0.11s0.17,0.22,0.24,0.45s0.11,0.49,0.11,0.79c0,0.48-0.11,1.04-0.33,1.68c-0.17,0.51-0.37,0.92-0.59,1.24
			s-0.53,0.61-0.93,0.88s-0.77,0.47-1.14,0.62c-0.14,0.05-0.27,0.08-0.4,0.08c-0.09,0-0.18-0.01-0.26-0.03s-0.26-0.07-0.51-0.14
			c-0.04,0.3-0.12,0.79-0.23,1.48l-0.26,1.66C157.18,102.22,156.89,102.28,156.71,102.36z M158.19,98.37
			c0.32,0.19,0.66,0.28,1.01,0.28c0.29,0,0.53-0.06,0.72-0.18s0.37-0.33,0.54-0.62c0.27-0.47,0.49-0.98,0.64-1.53
			s0.23-1.03,0.23-1.44c0-0.35-0.04-0.57-0.11-0.67s-0.17-0.15-0.3-0.15c-0.19,0-0.39,0.05-0.6,0.15s-0.42,0.26-0.64,0.46
			c-0.28,0.27-0.52,0.59-0.74,0.97s-0.38,0.81-0.49,1.29C158.42,97.08,158.33,97.57,158.19,98.37z"/>
	</g>
	<g>
		<path d="M118.12,11.97l0.06,0.25l-0.88,0.68c-0.28,0.2-0.5,0.33-0.66,0.4c-0.05,0.03-0.11,0.04-0.15,0.04
			c-0.07,0-0.14-0.04-0.21-0.11s-0.1-0.17-0.1-0.28c0-0.41,0.13-1.1,0.39-2.07l-0.04-0.02c-0.29,0.41-0.52,0.72-0.69,0.91
			c-0.3,0.36-0.61,0.68-0.93,0.94s-0.6,0.46-0.86,0.57c-0.07,0.03-0.14,0.05-0.21,0.05c-0.11,0-0.19-0.05-0.25-0.15
			c-0.11-0.16-0.16-0.44-0.16-0.83c0-0.5,0.09-1.09,0.27-1.76s0.4-1.26,0.65-1.75c0.12-0.25,0.3-0.46,0.53-0.64
			c0.38-0.29,0.72-0.49,1.03-0.6c0.21-0.07,0.44-0.11,0.69-0.11c0.17,0,0.33,0.01,0.48,0.04s0.34,0.08,0.58,0.17l0.38-0.22
			l0.13,0.11c-0.25,0.86-0.47,1.68-0.66,2.45c-0.12,0.46-0.2,0.81-0.24,1.04c-0.07,0.36-0.13,0.71-0.18,1.04
			c-0.01,0.06-0.01,0.12-0.01,0.16c0,0.08,0.02,0.14,0.05,0.18c0.03,0.03,0.06,0.04,0.11,0.04c0.06,0,0.14-0.03,0.24-0.08
			S117.79,12.22,118.12,11.97z M117.15,8.29c-0.14-0.07-0.3-0.12-0.46-0.16s-0.33-0.05-0.5-0.05c-0.34,0-0.6,0.06-0.77,0.17
			c-0.08,0.05-0.17,0.18-0.27,0.39c-0.2,0.41-0.37,0.88-0.52,1.39c-0.23,0.8-0.34,1.5-0.34,2.1c0,0.11,0.01,0.18,0.03,0.23
			s0.04,0.09,0.08,0.11s0.07,0.04,0.1,0.04c0.07,0,0.19-0.05,0.34-0.15c0.3-0.21,0.62-0.5,0.95-0.89s0.61-0.83,0.82-1.32
			S117,9.04,117.15,8.29z"/>
	</g>
	<g>
		<path d="M61.26,140.66c0.27-0.36,0.47-0.61,0.62-0.76c0.23-0.24,0.48-0.44,0.73-0.6s0.5-0.28,0.76-0.35s0.48-0.11,0.66-0.11
			c0.16,0,0.29,0.06,0.37,0.18c0.14,0.23,0.22,0.58,0.22,1.07c0,0.66-0.15,1.35-0.44,2.06c-0.22,0.55-0.5,1-0.82,1.35
			s-0.7,0.64-1.11,0.86s-0.79,0.33-1.12,0.33c-0.34,0-0.63-0.1-0.87-0.31s-0.36-0.43-0.36-0.66c0-0.09,0.01-0.18,0.02-0.27
			c0.01-0.07,0.05-0.29,0.13-0.66c0.14-0.62,0.43-2.15,0.87-4.61c0.13-0.73,0.19-1.17,0.19-1.33c0-0.1-0.03-0.16-0.09-0.19
			c-0.08-0.05-0.38-0.07-0.89-0.08l0.03-0.25c0.57-0.07,0.97-0.14,1.2-0.2s0.48-0.16,0.75-0.29l0.15,0.12
			c-0.05,0.19-0.12,0.46-0.18,0.79L61.26,140.66z M60.78,143.31c0,0.27,0.08,0.49,0.24,0.64s0.38,0.23,0.65,0.23
			c0.32,0,0.6-0.11,0.84-0.32c0.32-0.28,0.61-0.78,0.87-1.5s0.39-1.38,0.39-1.98c0-0.37-0.04-0.61-0.13-0.73
			c-0.06-0.09-0.16-0.13-0.31-0.13c-0.18,0-0.36,0.03-0.54,0.1s-0.36,0.18-0.56,0.34s-0.38,0.36-0.55,0.59s-0.31,0.47-0.42,0.71
			s-0.21,0.59-0.31,1.04S60.78,143.11,60.78,143.31z"/>
	</g>
	<g>
		<path d="M86.52,106.68h0.07l0.06,0.06l0.01,0.07c-0.63,0.67-1.11,1-1.44,1c-0.17,0-0.29-0.08-0.34-0.26
			c-0.06-0.17-0.09-0.56-0.11-1.18l-0.04-0.03c-0.38,0.44-0.78,0.79-1.2,1.06s-0.83,0.4-1.22,0.4c-0.58,0-0.87-0.36-0.87-1.08
			c0-0.35,0.08-0.77,0.26-1.26c0.17-0.49,0.41-0.93,0.71-1.34c0.3-0.4,0.63-0.71,0.98-0.91c0.35-0.2,0.71-0.31,1.07-0.31
			c0.21,0,0.37,0.03,0.48,0.1c0.12,0.07,0.21,0.16,0.27,0.29c0.07,0.12,0.11,0.29,0.13,0.48c0.02,0.2,0.03,0.51,0.03,0.93
			c0,0.05,0,0.16,0,0.33l0.06,0.04c0.21-0.34,0.41-0.69,0.6-1.04s0.31-0.68,0.37-0.98h0.11c0.08,0.15,0.16,0.3,0.23,0.45
			c-0.33,0.64-0.77,1.29-1.31,1.97c0,0.26,0.02,0.56,0.05,0.9c0.04,0.34,0.08,0.54,0.14,0.61c0.06,0.07,0.13,0.1,0.21,0.1
			c0.09,0,0.19-0.03,0.28-0.08C86.2,106.97,86.34,106.85,86.52,106.68z M84.76,106c0-0.14,0-0.23,0-0.27c0-0.55-0.02-1.01-0.07-1.39
			s-0.13-0.65-0.24-0.82c-0.11-0.16-0.27-0.24-0.48-0.24c-0.13,0-0.27,0.04-0.4,0.12c-0.13,0.08-0.27,0.21-0.42,0.38
			s-0.3,0.42-0.46,0.73s-0.28,0.64-0.37,0.99c-0.09,0.35-0.13,0.68-0.13,0.99c0,0.28,0.05,0.5,0.15,0.64s0.26,0.22,0.49,0.22
			c0.29,0,0.61-0.13,0.94-0.38C84.11,106.72,84.44,106.4,84.76,106z"/>
	</g>
	<g>
		<path d="M88.24,107.52c0.18-0.24,0.32-0.4,0.41-0.5c0.16-0.16,0.32-0.29,0.48-0.4c0.17-0.11,0.34-0.18,0.51-0.23
			c0.17-0.05,0.32-0.07,0.44-0.07c0.11,0,0.19,0.04,0.25,0.12c0.1,0.15,0.14,0.39,0.14,0.71c0,0.44-0.1,0.9-0.29,1.37
			c-0.15,0.37-0.33,0.67-0.55,0.9c-0.22,0.24-0.46,0.43-0.74,0.57c-0.27,0.15-0.52,0.22-0.75,0.22c-0.23,0-0.42-0.07-0.58-0.21
			c-0.16-0.14-0.24-0.29-0.24-0.44c0-0.06,0-0.12,0.02-0.18c0-0.04,0.04-0.19,0.09-0.44c0.09-0.41,0.28-1.43,0.58-3.07
			c0.09-0.48,0.13-0.78,0.13-0.89c0-0.06-0.02-0.11-0.06-0.13c-0.05-0.03-0.25-0.05-0.59-0.05l0.02-0.16
			c0.38-0.05,0.65-0.09,0.8-0.13c0.15-0.04,0.32-0.1,0.5-0.19l0.1,0.08c-0.04,0.13-0.08,0.3-0.12,0.53L88.24,107.52z M87.92,109.29
			c0,0.18,0.05,0.33,0.16,0.43c0.11,0.1,0.25,0.16,0.44,0.16c0.21,0,0.4-0.07,0.56-0.21c0.21-0.19,0.41-0.52,0.58-1
			c0.17-0.48,0.26-0.92,0.26-1.32c0-0.24-0.03-0.41-0.09-0.49c-0.04-0.06-0.11-0.09-0.21-0.09c-0.12,0-0.24,0.02-0.36,0.07
			c-0.12,0.04-0.24,0.12-0.37,0.23c-0.13,0.11-0.25,0.24-0.37,0.39s-0.21,0.31-0.28,0.47c-0.07,0.16-0.14,0.39-0.21,0.7
			S87.92,109.16,87.92,109.29z"/>
	</g>
	<g>
		<path d="M83.57,38.91h0.07l0.06,0.06l0.01,0.07c-0.63,0.67-1.11,1-1.44,1c-0.17,0-0.29-0.09-0.34-0.26
			c-0.06-0.17-0.09-0.56-0.11-1.18l-0.04-0.03c-0.38,0.44-0.78,0.79-1.2,1.06s-0.83,0.4-1.22,0.4c-0.58,0-0.87-0.36-0.87-1.08
			c0-0.35,0.08-0.77,0.26-1.26c0.17-0.49,0.41-0.93,0.71-1.34c0.3-0.4,0.63-0.71,0.98-0.91s0.71-0.31,1.07-0.31
			c0.21,0,0.37,0.03,0.48,0.1c0.12,0.07,0.21,0.16,0.27,0.29s0.11,0.29,0.13,0.48s0.03,0.51,0.03,0.93c0,0.05,0,0.16,0,0.33
			l0.06,0.04c0.21-0.34,0.41-0.69,0.6-1.04s0.31-0.68,0.37-0.98h0.11c0.08,0.15,0.16,0.3,0.23,0.45c-0.33,0.64-0.77,1.29-1.31,1.97
			c0,0.26,0.02,0.56,0.05,0.9s0.08,0.54,0.14,0.61c0.06,0.07,0.13,0.1,0.21,0.1c0.09,0,0.19-0.03,0.28-0.08
			C83.25,39.2,83.39,39.08,83.57,38.91z M81.81,38.23c0-0.14,0-0.23,0-0.27c0-0.55-0.02-1.01-0.07-1.39s-0.13-0.65-0.24-0.82
			c-0.11-0.16-0.27-0.24-0.48-0.24c-0.13,0-0.27,0.04-0.4,0.12c-0.13,0.08-0.27,0.21-0.42,0.38s-0.3,0.42-0.46,0.73
			s-0.28,0.64-0.37,0.99c-0.09,0.35-0.13,0.68-0.13,0.99c0,0.28,0.05,0.5,0.15,0.64s0.26,0.22,0.49,0.22c0.29,0,0.61-0.13,0.94-0.38
			C81.15,38.95,81.48,38.63,81.81,38.23z"/>
	</g>
	<g>
		<path d="M87.4,41.52l0.04,0.17l-0.59,0.45c-0.18,0.13-0.33,0.22-0.44,0.27c-0.04,0.02-0.07,0.03-0.1,0.03
			c-0.05,0-0.09-0.02-0.14-0.07s-0.07-0.11-0.07-0.18c0-0.28,0.09-0.74,0.26-1.38l-0.03-0.01c-0.2,0.28-0.35,0.48-0.46,0.61
			c-0.2,0.24-0.41,0.45-0.62,0.63s-0.4,0.3-0.57,0.38c-0.05,0.02-0.1,0.03-0.14,0.03c-0.07,0-0.13-0.03-0.17-0.1
			c-0.07-0.11-0.11-0.29-0.11-0.55c0-0.33,0.06-0.72,0.18-1.17s0.26-0.84,0.43-1.17c0.08-0.17,0.2-0.31,0.36-0.43
			c0.25-0.19,0.48-0.33,0.68-0.4c0.14-0.05,0.29-0.07,0.46-0.07c0.11,0,0.22,0.01,0.32,0.03s0.23,0.06,0.38,0.11l0.25-0.15
			l0.09,0.07c-0.17,0.58-0.31,1.12-0.44,1.63c-0.08,0.31-0.13,0.54-0.16,0.69c-0.05,0.24-0.09,0.47-0.12,0.69
			c0,0.04-0.01,0.08-0.01,0.11c0,0.05,0.01,0.09,0.03,0.12c0.02,0.02,0.04,0.03,0.07,0.03c0.04,0,0.1-0.02,0.16-0.05
			S87.18,41.69,87.4,41.52z M86.75,39.06c-0.1-0.05-0.2-0.08-0.3-0.1s-0.22-0.03-0.34-0.03c-0.23,0-0.4,0.04-0.52,0.11
			c-0.05,0.03-0.11,0.12-0.18,0.26c-0.13,0.28-0.25,0.58-0.34,0.93c-0.15,0.53-0.23,1-0.23,1.4c0,0.07,0.01,0.12,0.02,0.16
			s0.03,0.06,0.05,0.08s0.05,0.03,0.07,0.03c0.05,0,0.12-0.03,0.23-0.1c0.2-0.14,0.41-0.34,0.63-0.59s0.4-0.55,0.55-0.88
			S86.65,39.57,86.75,39.06z"/>
	</g>
</g>
<g id="Layer_3">
	<linearGradient id="SVGID_1_" gradientUnits="userSpaceOnUse" x1="112.5228" y1="76.3342" x2="62.9467" y2="129.7386">
		<stop  offset="0" style="stop-color:#FF2F92;stop-opacity:0"/>
		<stop  offset="1" style="stop-color:#FF2F92;stop-opacity:0.3"/>
	</linearGradient>
	<polygon class="st5" points="66.58,134.9 80.49,63.47 145.47,88.21 	"/>
	<path class="st6" d="M72.38,106.39c9.62,1.89,16.8,5.54,21.51,12.75"/>
	
		<linearGradient id="SVGID_2_" gradientUnits="userSpaceOnUse" x1="-117.6779" y1="105.1052" x2="-161.6095" y2="152.4293" gradientTransform="matrix(-1 0 0 -1 -63.2356 156.7921)">
		<stop  offset="0" style="stop-color:#FF2F92;stop-opacity:0"/>
		<stop  offset="1" style="stop-color:#FF2F92;stop-opacity:0.3"/>
	</linearGradient>
	<polygon class="st7" points="111.48,14.95 80.49,63.47 26.31,42.15 	"/>
	<path class="st6" d="M94.77,41.11c-6.38-3.46-11.63-8.75-15.6-15.79"/>
</g>
<g id="Outline">
	<polygon class="st8" points="26.31,42.15 145.47,88.21 66.88,134.57 	"/>
	<polygon class="st8" points="145.47,88.21 26.31,42.15 111.59,14.62 	"/>
	<circle class="st9" cx="26.31" cy="42.15" r="1.74"/>
	<circle class="st9" cx="145.47" cy="88.21" r="1.74"/>
	<circle class="st9" cx="66.69" cy="134.57" r="1.74"/>
	<circle class="st9" cx="111.59" cy="14.62" r="1.74"/>
	<g>
	</g>
	<g>
	</g>
	<g>
	</g>
	<g>
	</g>
	<g>
	</g>
	<g>
	</g>
	<g>
	</g>
	<g>
	</g>
	<g>
	</g>
	<g>
	</g>
	<g>
	</g>
	<g>
	</g>
	<g>
	</g>
	<g>
	</g>
	<g>
	</g>
</g>
</svg>
