<?xml version="1.0" encoding="utf-8"?>
<!-- Generator: Adobe Illustrator 23.0.4, SVG Export Plug-In . SVG Version: 6.00 Build 0)  -->
<svg version="1.1" xmlns="http://www.w3.org/2000/svg" xmlns:xlink="http://www.w3.org/1999/xlink" x="0px" y="0px"
	 viewBox="0 0 335.98 147.33" style="enable-background:new 0 0 335.98 147.33;" xml:space="preserve">
<style type="text/css">
	.st0{fill:#FFFFFF;}
	.st1{opacity:0.3;fill:#FFCE6A;}
	.st2{opacity:0.3;fill:url(#SVGID_1_);}
	.st3{opacity:0.3;fill:url(#SVGID_2_);}
	.st4{opacity:0.4;fill:#FF2F92;}
	.st5{opacity:0.3;}
	.st6{fill:none;stroke:#FF2F92;stroke-linejoin:round;stroke-miterlimit:10;}
	.st7{fill:#FF2F92;}
	.st8{display:none;}
</style>
<g id="Layer_8">
	<polygon class="st0" points="20.05,113.96 147.8,114.44 89.87,57.8 	"/>
	<polygon class="st0" points="209.25,114.04 315.93,114.44 235.52,21.94 	"/>
	<ellipse class="st0" cx="172.16" cy="113.51" rx="142.4" ry="20.71"/>
</g>
<g id="background">
	<ellipse class="st1" cx="172.16" cy="113.51" rx="142.4" ry="20.71"/>
	<linearGradient id="SVGID_1_" gradientUnits="userSpaceOnUse" x1="159.1902" y1="64.2215" x2="43.9378" y2="141.1258">
		<stop  offset="0.038" style="stop-color:#FFFFFF;stop-opacity:0.15"/>
		<stop  offset="0.4184" style="stop-color:#000000"/>
	</linearGradient>
	<polygon class="st2" points="20.41,113.96 148.17,114.44 167.99,89.56 	"/>
	
		<linearGradient id="SVGID_2_" gradientUnits="userSpaceOnUse" x1="125.3969" y1="64.8958" x2="17.9332" y2="136.6029" gradientTransform="matrix(-1 0 0 1 314.4028 0)">
		<stop  offset="0.038" style="stop-color:#FFFFFF;stop-opacity:0.15"/>
		<stop  offset="0.4184" style="stop-color:#000000"/>
	</linearGradient>
	<polygon class="st3" points="316.29,114.44 209.61,114.04 184.13,83.53 	"/>
</g>
<g id="Layer_5">
	<polygon class="st4" points="20.41,113.96 148.17,114.44 90.23,57.8 	"/>
	<polygon class="st4" points="209.61,114.04 316.29,114.44 235.88,21.94 	"/>
</g>
<g id="Layer_6" class="st5">
</g>
<g id="Overlay">
	<polygon class="st6" points="148.17,114.44 20.41,113.96 90.23,57.8 	"/>
	<polygon class="st6" points="316.29,114.44 209.61,114.04 235.88,21.94 	"/>
	<circle class="st7" cx="20.41" cy="113.96" r="1.74"/>
	<circle class="st7" cx="148.17" cy="114.44" r="1.74"/>
	<circle class="st7" cx="90.23" cy="57.8" r="1.74"/>
	<circle class="st7" cx="209.61" cy="114.44" r="1.74"/>
	<circle class="st7" cx="316.29" cy="114.44" r="1.74"/>
	<circle class="st7" cx="235.85" cy="21.94" r="1.74"/>
</g>
<g id="Layer_7">
</g>
<g id="Text">
	<g>
		<path d="M153.56,116.1c0.27-0.36,0.47-0.61,0.62-0.76c0.23-0.24,0.48-0.44,0.73-0.6s0.5-0.28,0.76-0.35s0.48-0.11,0.66-0.11
			c0.16,0,0.29,0.06,0.37,0.18c0.14,0.23,0.22,0.58,0.22,1.07c0,0.66-0.15,1.35-0.44,2.06c-0.22,0.55-0.5,1-0.82,1.35
			s-0.7,0.64-1.11,0.86s-0.79,0.33-1.12,0.33c-0.34,0-0.63-0.1-0.87-0.31s-0.36-0.43-0.36-0.66c0-0.09,0.01-0.18,0.02-0.27
			c0.01-0.07,0.05-0.29,0.13-0.66c0.14-0.62,0.43-2.15,0.87-4.61c0.13-0.73,0.19-1.17,0.19-1.33c0-0.1-0.03-0.16-0.09-0.19
			c-0.08-0.05-0.38-0.07-0.89-0.08l0.03-0.25c0.57-0.07,0.97-0.14,1.2-0.2s0.48-0.16,0.75-0.29l0.15,0.12
			c-0.05,0.19-0.12,0.46-0.18,0.79L153.56,116.1z M153.08,118.76c0,0.27,0.08,0.49,0.24,0.64s0.38,0.23,0.65,0.23
			c0.32,0,0.6-0.11,0.84-0.32c0.32-0.28,0.61-0.78,0.87-1.5s0.39-1.38,0.39-1.98c0-0.37-0.04-0.61-0.13-0.73
			c-0.06-0.09-0.16-0.13-0.31-0.13c-0.18,0-0.36,0.03-0.54,0.1s-0.36,0.18-0.56,0.34s-0.38,0.36-0.55,0.59s-0.31,0.47-0.42,0.71
			s-0.21,0.59-0.31,1.04S153.08,118.55,153.08,118.76z"/>
	</g>
	<g>
		<path d="M16.78,120.21l0.06,0.25l-0.88,0.68c-0.28,0.2-0.5,0.33-0.66,0.4c-0.05,0.03-0.11,0.04-0.15,0.04
			c-0.07,0-0.14-0.04-0.21-0.11s-0.1-0.17-0.1-0.28c0-0.41,0.13-1.1,0.39-2.07l-0.04-0.02c-0.29,0.41-0.52,0.72-0.69,0.91
			c-0.3,0.36-0.61,0.68-0.93,0.94s-0.6,0.46-0.86,0.57c-0.07,0.03-0.14,0.05-0.21,0.05c-0.11,0-0.19-0.05-0.25-0.15
			c-0.11-0.16-0.16-0.44-0.16-0.83c0-0.5,0.09-1.09,0.27-1.76s0.4-1.26,0.65-1.75c0.12-0.25,0.3-0.46,0.53-0.64
			c0.38-0.29,0.72-0.49,1.03-0.6c0.21-0.07,0.44-0.11,0.69-0.11c0.17,0,0.33,0.01,0.48,0.04s0.34,0.08,0.58,0.17l0.38-0.22
			l0.13,0.11c-0.25,0.86-0.47,1.68-0.66,2.45c-0.12,0.46-0.2,0.81-0.24,1.04c-0.07,0.36-0.13,0.71-0.18,1.04
			c-0.01,0.06-0.01,0.12-0.01,0.16c0,0.08,0.02,0.14,0.05,0.18c0.03,0.03,0.06,0.04,0.11,0.04c0.06,0,0.14-0.03,0.24-0.08
			S16.45,120.46,16.78,120.21z M15.81,116.53c-0.14-0.07-0.3-0.12-0.46-0.16s-0.33-0.05-0.5-0.05c-0.34,0-0.6,0.06-0.77,0.17
			c-0.08,0.05-0.17,0.18-0.27,0.39c-0.2,0.41-0.37,0.88-0.52,1.39c-0.23,0.8-0.34,1.5-0.34,2.1c0,0.11,0.01,0.18,0.03,0.23
			s0.04,0.09,0.08,0.11s0.07,0.04,0.1,0.04c0.07,0,0.19-0.05,0.34-0.15c0.3-0.21,0.62-0.5,0.95-0.89s0.61-0.83,0.82-1.32
			S15.66,117.29,15.81,116.53z"/>
	</g>
	<g>
		<path d="M92.75,53.12l0.09,0.26c-0.41,0.34-0.73,0.57-0.94,0.71c-0.32,0.21-0.62,0.36-0.9,0.45c-0.2,0.07-0.42,0.11-0.64,0.11
			c-0.28,0-0.54-0.06-0.76-0.18s-0.4-0.31-0.52-0.59s-0.18-0.61-0.18-1.01c0-0.43,0.06-0.87,0.17-1.33s0.26-0.83,0.45-1.14
			s0.37-0.53,0.55-0.68c0.38-0.31,0.82-0.58,1.35-0.8c0.27-0.12,0.54-0.18,0.8-0.18c0.2,0,0.38,0.03,0.55,0.08s0.32,0.13,0.46,0.23
			c-0.11,0.44-0.2,0.94-0.27,1.51h-0.28l0.01-0.64c0-0.13-0.02-0.23-0.06-0.29c-0.05-0.07-0.16-0.14-0.33-0.21s-0.36-0.09-0.58-0.09
			c-0.4,0-0.72,0.1-0.96,0.3s-0.46,0.58-0.64,1.15c-0.22,0.71-0.33,1.32-0.33,1.84c0,0.41,0.07,0.73,0.21,0.94
			c0.19,0.3,0.46,0.45,0.83,0.45c0.17,0,0.35-0.03,0.53-0.08s0.39-0.15,0.63-0.29C92.11,53.56,92.37,53.39,92.75,53.12z"/>
	</g>
	<g>
		<path d="M83.1,123.25l-0.63,2.94c-0.07,0.31-0.1,0.55-0.1,0.72c0,0.49,0.23,0.73,0.69,0.73c0.56,0,1.1-0.47,1.6-1.41l0.22,0.08
			c-0.6,1.18-1.31,1.78-2.13,1.78c-0.38,0-0.68-0.1-0.89-0.3c-0.22-0.2-0.33-0.46-0.33-0.79c0-0.23,0.07-0.68,0.22-1.36l0.34-1.57
			l-1.1,0.73l-0.13-0.21l1.32-0.91l0.36-1.37c0.21-0.81,0.4-1.39,0.55-1.75c0.16-0.36,0.4-0.67,0.73-0.92s0.68-0.38,1.05-0.38
			c0.28,0,0.52,0.09,0.71,0.26s0.29,0.4,0.29,0.67c0,0.39-0.18,0.81-0.54,1.25C84.96,121.89,84.22,122.49,83.1,123.25z
			 M83.21,122.89c1.02-0.73,1.66-1.29,1.92-1.65s0.39-0.69,0.39-0.98c0-0.36-0.19-0.54-0.57-0.54c-0.26,0-0.5,0.14-0.72,0.41
			s-0.38,0.61-0.5,0.99L83.21,122.89z"/>
	</g>
	<g>
		<path d="M87.56,130.38l0.04,0.17L87.01,131c-0.18,0.13-0.33,0.22-0.44,0.27c-0.04,0.02-0.07,0.03-0.1,0.03
			c-0.05,0-0.09-0.02-0.14-0.07c-0.04-0.05-0.07-0.11-0.07-0.18c0-0.28,0.09-0.74,0.26-1.38l-0.03-0.01
			c-0.2,0.28-0.35,0.48-0.46,0.61c-0.2,0.24-0.41,0.45-0.62,0.63c-0.21,0.18-0.4,0.3-0.57,0.38c-0.05,0.02-0.1,0.03-0.14,0.03
			c-0.07,0-0.13-0.03-0.17-0.1c-0.07-0.11-0.11-0.29-0.11-0.55c0-0.33,0.06-0.72,0.18-1.17c0.12-0.45,0.26-0.84,0.43-1.17
			c0.08-0.17,0.2-0.31,0.36-0.43c0.25-0.19,0.48-0.33,0.68-0.4c0.14-0.05,0.29-0.07,0.46-0.07c0.11,0,0.22,0.01,0.32,0.03
			c0.1,0.02,0.23,0.06,0.38,0.11l0.25-0.15l0.09,0.07c-0.17,0.58-0.31,1.12-0.44,1.63c-0.08,0.31-0.13,0.54-0.16,0.69
			c-0.05,0.24-0.09,0.47-0.12,0.69c0,0.04-0.01,0.08-0.01,0.11c0,0.05,0.01,0.09,0.03,0.12c0.02,0.02,0.04,0.03,0.07,0.03
			c0.04,0,0.1-0.02,0.16-0.05C87.19,130.65,87.33,130.55,87.56,130.38z M86.91,127.92c-0.1-0.05-0.2-0.08-0.3-0.1
			c-0.11-0.02-0.22-0.03-0.34-0.03c-0.23,0-0.4,0.04-0.52,0.11c-0.05,0.03-0.11,0.12-0.18,0.26c-0.13,0.28-0.25,0.58-0.34,0.93
			c-0.15,0.53-0.23,1-0.23,1.4c0,0.07,0.01,0.12,0.02,0.16c0.01,0.03,0.03,0.06,0.05,0.08c0.02,0.02,0.05,0.03,0.07,0.03
			c0.05,0,0.12-0.03,0.23-0.1c0.2-0.14,0.41-0.34,0.63-0.59s0.4-0.55,0.55-0.88S86.81,128.43,86.91,127.92z"/>
		<path d="M89,128.61c0.18-0.24,0.32-0.4,0.41-0.5c0.16-0.16,0.32-0.29,0.48-0.4c0.17-0.11,0.34-0.18,0.51-0.23
			c0.17-0.05,0.32-0.07,0.44-0.07c0.11,0,0.19,0.04,0.25,0.12c0.1,0.15,0.14,0.39,0.14,0.71c0,0.44-0.1,0.9-0.29,1.37
			c-0.15,0.37-0.33,0.67-0.55,0.9c-0.22,0.24-0.46,0.43-0.74,0.57c-0.27,0.15-0.52,0.22-0.75,0.22c-0.23,0-0.42-0.07-0.58-0.21
			c-0.16-0.14-0.24-0.29-0.24-0.44c0-0.06,0-0.12,0.02-0.18c0-0.04,0.04-0.19,0.09-0.44c0.09-0.41,0.28-1.43,0.58-3.07
			c0.09-0.48,0.13-0.78,0.13-0.89c0-0.06-0.02-0.11-0.06-0.13c-0.05-0.03-0.25-0.05-0.59-0.05l0.02-0.16
			c0.38-0.05,0.65-0.09,0.8-0.13c0.15-0.04,0.32-0.1,0.5-0.19l0.1,0.08c-0.04,0.13-0.08,0.3-0.12,0.53L89,128.61z M88.68,130.38
			c0,0.18,0.05,0.33,0.16,0.43c0.11,0.1,0.25,0.16,0.44,0.16c0.21,0,0.4-0.07,0.56-0.21c0.21-0.19,0.41-0.52,0.58-1
			c0.17-0.48,0.26-0.92,0.26-1.32c0-0.24-0.03-0.41-0.09-0.49c-0.04-0.06-0.11-0.09-0.21-0.09c-0.12,0-0.24,0.02-0.36,0.07
			c-0.12,0.04-0.24,0.12-0.37,0.23c-0.13,0.11-0.25,0.24-0.37,0.39s-0.21,0.31-0.28,0.47c-0.07,0.16-0.14,0.39-0.21,0.7
			S88.68,130.25,88.68,130.38z"/>
	</g>
	<g>
		<path d="M121.7,75.57l-0.63,2.94c-0.07,0.31-0.1,0.55-0.1,0.72c0,0.49,0.23,0.73,0.69,0.73c0.56,0,1.1-0.47,1.6-1.41l0.22,0.08
			c-0.6,1.18-1.31,1.78-2.13,1.78c-0.38,0-0.68-0.1-0.89-0.3s-0.33-0.46-0.33-0.79c0-0.23,0.07-0.68,0.22-1.36l0.34-1.57l-1.1,0.73
			l-0.13-0.21l1.32-0.91l0.36-1.37c0.21-0.81,0.4-1.39,0.55-1.75c0.16-0.36,0.4-0.67,0.73-0.92c0.33-0.25,0.68-0.38,1.05-0.38
			c0.28,0,0.52,0.09,0.71,0.26c0.19,0.17,0.29,0.4,0.29,0.67c0,0.39-0.18,0.81-0.54,1.25C123.57,74.21,122.83,74.81,121.7,75.57z
			 M121.82,75.21c1.02-0.73,1.66-1.29,1.92-1.65s0.39-0.69,0.39-0.98c0-0.36-0.19-0.54-0.57-0.54c-0.26,0-0.5,0.14-0.72,0.41
			s-0.38,0.61-0.5,0.99L121.82,75.21z"/>
	</g>
	<g>
		<path d="M124.05,80.93c0.18-0.24,0.32-0.41,0.41-0.5c0.16-0.16,0.32-0.3,0.48-0.4c0.17-0.11,0.34-0.18,0.51-0.23
			c0.17-0.05,0.32-0.07,0.44-0.07c0.11,0,0.19,0.04,0.25,0.12c0.1,0.15,0.14,0.39,0.14,0.71c0,0.44-0.1,0.9-0.29,1.37
			c-0.15,0.36-0.33,0.67-0.55,0.9c-0.22,0.24-0.46,0.43-0.74,0.57c-0.27,0.15-0.52,0.22-0.75,0.22c-0.23,0-0.42-0.07-0.58-0.21
			c-0.16-0.14-0.24-0.29-0.24-0.44c0-0.06,0-0.12,0.02-0.18c0-0.04,0.04-0.19,0.09-0.44c0.09-0.41,0.28-1.44,0.58-3.07
			c0.09-0.48,0.13-0.78,0.13-0.89c0-0.06-0.02-0.11-0.06-0.13c-0.05-0.03-0.25-0.05-0.59-0.05l0.02-0.16
			c0.38-0.05,0.65-0.09,0.8-0.13s0.32-0.1,0.5-0.19l0.1,0.08c-0.04,0.13-0.08,0.3-0.12,0.53L124.05,80.93z M123.73,82.7
			c0,0.18,0.05,0.33,0.16,0.43c0.11,0.1,0.25,0.16,0.44,0.16c0.21,0,0.4-0.07,0.56-0.21c0.21-0.19,0.41-0.52,0.58-1
			c0.17-0.48,0.26-0.92,0.26-1.32c0-0.25-0.03-0.41-0.09-0.49c-0.04-0.06-0.11-0.09-0.21-0.09c-0.12,0-0.24,0.02-0.36,0.07
			c-0.12,0.04-0.24,0.12-0.37,0.23c-0.13,0.11-0.25,0.24-0.37,0.39s-0.21,0.31-0.28,0.47c-0.07,0.16-0.14,0.39-0.21,0.7
			S123.73,82.57,123.73,82.7z"/>
		<path d="M129.44,82.62l0.06,0.17c-0.28,0.22-0.49,0.38-0.63,0.47c-0.22,0.14-0.42,0.24-0.6,0.3c-0.14,0.05-0.28,0.07-0.43,0.07
			c-0.19,0-0.36-0.04-0.51-0.12s-0.27-0.21-0.35-0.39c-0.08-0.18-0.12-0.41-0.12-0.68c0-0.29,0.04-0.58,0.11-0.88
			c0.08-0.3,0.17-0.56,0.3-0.76c0.12-0.2,0.24-0.35,0.37-0.46c0.25-0.21,0.55-0.39,0.9-0.54c0.18-0.08,0.36-0.12,0.54-0.12
			c0.13,0,0.25,0.02,0.37,0.05c0.11,0.03,0.21,0.09,0.31,0.16c-0.07,0.29-0.13,0.63-0.18,1.01h-0.18l0-0.43
			c0-0.09-0.01-0.15-0.04-0.19c-0.03-0.05-0.11-0.1-0.22-0.14c-0.11-0.04-0.24-0.06-0.39-0.06c-0.27,0-0.48,0.07-0.64,0.2
			s-0.3,0.39-0.42,0.77c-0.15,0.47-0.22,0.88-0.22,1.23c0,0.28,0.05,0.49,0.14,0.63c0.12,0.2,0.31,0.3,0.55,0.3
			c0.11,0,0.23-0.02,0.35-0.06c0.12-0.04,0.26-0.1,0.42-0.19C129.01,82.92,129.19,82.8,129.44,82.62z"/>
	</g>
	<g>
		<path d="M49.82,72.29l-0.63,2.94c-0.07,0.31-0.1,0.55-0.1,0.72c0,0.49,0.23,0.73,0.69,0.73c0.56,0,1.1-0.47,1.6-1.41l0.22,0.08
			c-0.6,1.18-1.31,1.78-2.13,1.78c-0.38,0-0.68-0.1-0.89-0.3c-0.22-0.2-0.33-0.46-0.33-0.79c0-0.23,0.07-0.68,0.22-1.36l0.34-1.57
			l-1.1,0.73l-0.13-0.21l1.32-0.91l0.36-1.37c0.21-0.81,0.4-1.39,0.55-1.75c0.16-0.36,0.4-0.67,0.73-0.92
			c0.33-0.25,0.68-0.38,1.05-0.38c0.28,0,0.52,0.09,0.71,0.26c0.19,0.17,0.29,0.4,0.29,0.67c0,0.39-0.18,0.81-0.54,1.25
			C51.68,70.94,50.94,71.54,49.82,72.29z M49.93,71.93c1.02-0.73,1.66-1.29,1.92-1.65s0.39-0.69,0.39-0.98
			c0-0.36-0.19-0.54-0.57-0.54c-0.26,0-0.5,0.14-0.72,0.41s-0.38,0.61-0.5,0.99L49.93,71.93z"/>
	</g>
	<g>
		<path d="M53.84,79.35l0.06,0.17c-0.28,0.22-0.49,0.38-0.63,0.47c-0.22,0.14-0.42,0.24-0.6,0.3c-0.14,0.05-0.28,0.07-0.43,0.07
			c-0.19,0-0.36-0.04-0.51-0.12s-0.27-0.21-0.35-0.39c-0.08-0.18-0.12-0.41-0.12-0.68c0-0.29,0.04-0.58,0.11-0.88
			s0.17-0.56,0.3-0.76s0.24-0.35,0.37-0.46c0.25-0.21,0.55-0.39,0.9-0.54c0.18-0.08,0.36-0.12,0.54-0.12c0.13,0,0.25,0.02,0.37,0.05
			s0.21,0.09,0.31,0.16c-0.07,0.29-0.13,0.63-0.18,1.01H53.8l0-0.43c0-0.09-0.01-0.15-0.04-0.19c-0.03-0.05-0.11-0.1-0.22-0.14
			s-0.24-0.06-0.39-0.06c-0.27,0-0.48,0.07-0.64,0.2s-0.3,0.39-0.42,0.77c-0.15,0.47-0.22,0.88-0.22,1.23
			c0,0.28,0.05,0.49,0.14,0.63c0.12,0.2,0.31,0.3,0.55,0.3c0.11,0,0.23-0.02,0.35-0.06c0.12-0.04,0.26-0.1,0.42-0.19
			C53.42,79.64,53.59,79.52,53.84,79.35z"/>
		<path d="M57.53,79.42l0.04,0.17l-0.59,0.45c-0.18,0.13-0.33,0.22-0.44,0.27c-0.04,0.02-0.07,0.03-0.1,0.03
			c-0.05,0-0.09-0.02-0.14-0.07c-0.04-0.05-0.07-0.11-0.07-0.18c0-0.28,0.09-0.74,0.26-1.38l-0.03-0.01
			c-0.2,0.28-0.35,0.48-0.46,0.61c-0.2,0.24-0.41,0.45-0.62,0.63c-0.21,0.18-0.4,0.3-0.57,0.38c-0.05,0.02-0.1,0.03-0.14,0.03
			c-0.07,0-0.13-0.03-0.17-0.1c-0.07-0.11-0.11-0.29-0.11-0.55c0-0.33,0.06-0.72,0.18-1.17s0.26-0.84,0.43-1.17
			c0.08-0.17,0.2-0.31,0.36-0.43c0.25-0.19,0.48-0.33,0.68-0.4c0.14-0.05,0.29-0.07,0.46-0.07c0.11,0,0.22,0.01,0.32,0.03
			s0.23,0.06,0.38,0.11l0.25-0.15l0.09,0.07c-0.17,0.58-0.31,1.12-0.44,1.63c-0.08,0.31-0.13,0.54-0.16,0.69
			c-0.05,0.24-0.09,0.47-0.12,0.69c0,0.04-0.01,0.08-0.01,0.11c0,0.05,0.01,0.09,0.03,0.12c0.02,0.02,0.04,0.03,0.07,0.03
			c0.04,0,0.1-0.02,0.16-0.05C57.17,79.7,57.31,79.59,57.53,79.42z M56.88,76.97c-0.1-0.05-0.2-0.08-0.3-0.1s-0.22-0.03-0.34-0.03
			c-0.23,0-0.4,0.04-0.52,0.11c-0.05,0.03-0.11,0.12-0.18,0.26c-0.13,0.28-0.25,0.58-0.34,0.93c-0.15,0.53-0.23,1-0.23,1.4
			c0,0.07,0.01,0.12,0.02,0.16c0.01,0.03,0.03,0.06,0.05,0.08c0.02,0.02,0.05,0.03,0.07,0.03c0.05,0,0.12-0.03,0.23-0.1
			c0.2-0.14,0.41-0.34,0.63-0.59s0.4-0.55,0.55-0.88S56.79,77.47,56.88,76.97z"/>
	</g>
	<g>
		<path d="M321.97,120.13l0.08,0.23c-0.45,0.41-0.89,0.72-1.33,0.93s-0.81,0.31-1.12,0.31c-0.2,0-0.41-0.05-0.63-0.16
			s-0.39-0.26-0.52-0.48s-0.19-0.53-0.19-0.93c0-0.44,0.07-0.93,0.22-1.46s0.3-0.93,0.45-1.2s0.35-0.5,0.61-0.71
			c0.36-0.29,0.73-0.53,1.14-0.72c0.28-0.13,0.55-0.2,0.81-0.2c0.29,0,0.53,0.08,0.72,0.23s0.28,0.38,0.28,0.66
			c0,0.2-0.04,0.4-0.13,0.6s-0.2,0.37-0.35,0.52c-0.21,0.2-0.49,0.38-0.86,0.56c-0.37,0.17-0.75,0.31-1.15,0.43l-0.76,0.18
			c-0.07,0.4-0.11,0.71-0.11,0.94c0,0.38,0.08,0.67,0.25,0.86c0.17,0.19,0.38,0.29,0.63,0.29c0.23,0,0.48-0.06,0.76-0.17
			C321.07,120.72,321.46,120.49,321.97,120.13z M319.29,118.63c0.5-0.09,0.93-0.23,1.29-0.41s0.62-0.39,0.78-0.65
			s0.24-0.5,0.24-0.74c0-0.2-0.05-0.35-0.15-0.46s-0.23-0.16-0.39-0.16c-0.23,0-0.46,0.07-0.69,0.2s-0.42,0.34-0.56,0.61
			S319.5,117.83,319.29,118.63z"/>
	</g>
	<g>
		<path d="M205.54,117.84l0.11,0.22c-0.23,0.21-0.5,0.42-0.8,0.64s-0.56,0.38-0.78,0.47c-0.12,0.05-0.21,0.08-0.28,0.08
			c-0.07,0-0.13-0.04-0.19-0.12s-0.09-0.21-0.09-0.4c0-0.12,0.01-0.26,0.04-0.41s0.15-0.7,0.36-1.64l-0.03-0.01
			c-0.29,0.5-0.65,0.97-1.07,1.4s-0.83,0.76-1.23,0.98c-0.25,0.14-0.46,0.21-0.62,0.21s-0.29-0.11-0.39-0.34s-0.15-0.51-0.15-0.84
			c0-0.46,0.07-0.97,0.2-1.53s0.31-1.05,0.52-1.47c0.16-0.32,0.35-0.57,0.56-0.77c0.33-0.3,0.71-0.55,1.14-0.74
			c0.21-0.09,0.43-0.13,0.68-0.13c0.2,0,0.52,0.05,0.96,0.14l0.26-1.47c0.05-0.32,0.08-0.51,0.08-0.59c0-0.12-0.02-0.21-0.07-0.25
			s-0.15-0.07-0.3-0.07l-0.57-0.01l0.03-0.23c0.48-0.06,0.83-0.12,1.05-0.19s0.49-0.18,0.81-0.35l0.15,0.12
			c-0.06,0.23-0.17,0.74-0.32,1.51c-0.09,0.49-0.35,1.73-0.77,3.72c-0.21,0.98-0.34,1.67-0.4,2.06c-0.02,0.12-0.02,0.24-0.02,0.34
			c0,0.11,0.02,0.18,0.05,0.22s0.07,0.06,0.12,0.06c0.07,0,0.17-0.04,0.29-0.12C205.14,118.16,205.36,118,205.54,117.84z
			 M204.38,114.24c-0.36-0.19-0.74-0.29-1.13-0.29c-0.29,0-0.52,0.04-0.7,0.12c-0.13,0.05-0.24,0.15-0.34,0.28s-0.22,0.41-0.38,0.83
			s-0.26,0.81-0.34,1.14c-0.13,0.55-0.19,1.06-0.19,1.52c0,0.18,0.01,0.3,0.04,0.38s0.05,0.12,0.09,0.15s0.08,0.04,0.14,0.04
			c0.1,0,0.2-0.03,0.32-0.08c0.3-0.15,0.59-0.35,0.86-0.61s0.52-0.55,0.74-0.89s0.4-0.7,0.53-1.08
			C204.1,115.48,204.23,114.98,204.38,114.24z"/>
	</g>
	<g>
		<path d="M232.8,14.07l0.05-0.26c0.48-0.18,0.82-0.33,1.03-0.46c0.2-0.95,0.3-1.47,0.33-1.56c0.05-0.18,0.14-0.35,0.27-0.51
			s0.38-0.38,0.77-0.69s0.68-0.5,0.89-0.59c0.14-0.06,0.3-0.09,0.48-0.09c0.24,0,0.5,0.05,0.76,0.16c-0.16,0.42-0.27,0.75-0.33,0.97
			l-0.13,0.04c-0.1-0.14-0.22-0.24-0.37-0.32s-0.31-0.12-0.47-0.12c-0.18,0-0.34,0.04-0.47,0.12s-0.23,0.2-0.31,0.34
			s-0.16,0.43-0.25,0.87c-0.13,0.6-0.23,1.08-0.3,1.46c0.5-0.01,0.78-0.02,0.86-0.03c0.13-0.02,0.27-0.04,0.41-0.09l0.05,0.07
			c-0.09,0.25-0.16,0.48-0.21,0.69c-0.22-0.01-0.41-0.02-0.59-0.02c-0.16,0-0.38,0-0.64,0.01l-0.7,3.27
			c-0.25,1.16-0.47,1.97-0.66,2.43s-0.43,0.86-0.73,1.2s-0.62,0.61-0.95,0.78c-0.21,0.11-0.41,0.16-0.61,0.16
			c-0.12,0-0.26-0.04-0.42-0.11c0.13-0.39,0.22-0.71,0.28-0.96l0.15-0.04c0.17,0.22,0.37,0.33,0.6,0.33c0.14,0,0.27-0.03,0.39-0.1
			s0.24-0.18,0.36-0.35s0.23-0.47,0.35-0.91c0.2-0.74,0.39-1.67,0.58-2.79l0.49-2.92c-0.23,0-0.38-0.01-0.46-0.01
			C233.16,14.06,232.99,14.07,232.8,14.07z"/>
	</g>
	<g>
		<path d="M251.23,123.25l-0.63,2.94c-0.07,0.31-0.1,0.55-0.1,0.72c0,0.49,0.23,0.73,0.69,0.73c0.56,0,1.1-0.47,1.6-1.41l0.22,0.08
			c-0.6,1.18-1.31,1.78-2.13,1.78c-0.38,0-0.68-0.1-0.89-0.3c-0.22-0.2-0.33-0.46-0.33-0.79c0-0.23,0.07-0.68,0.22-1.36l0.34-1.57
			l-1.1,0.73l-0.13-0.21l1.32-0.91l0.36-1.37c0.21-0.81,0.4-1.39,0.55-1.75c0.16-0.36,0.4-0.67,0.73-0.92s0.68-0.38,1.05-0.38
			c0.28,0,0.52,0.09,0.71,0.26s0.29,0.4,0.29,0.67c0,0.39-0.18,0.81-0.54,1.25C253.09,121.89,252.35,122.49,251.23,123.25z
			 M251.34,122.89c1.02-0.73,1.66-1.29,1.92-1.65s0.39-0.69,0.39-0.98c0-0.36-0.19-0.54-0.57-0.54c-0.26,0-0.5,0.14-0.72,0.41
			s-0.38,0.61-0.5,0.99L251.34,122.89z"/>
	</g>
	<g>
		<path d="M256.03,130.35l0.07,0.14c-0.15,0.14-0.33,0.28-0.53,0.43c-0.2,0.15-0.38,0.25-0.52,0.31c-0.08,0.04-0.14,0.05-0.19,0.05
			c-0.05,0-0.09-0.03-0.13-0.08c-0.04-0.05-0.06-0.14-0.06-0.27c0-0.08,0.01-0.18,0.03-0.28c0.02-0.1,0.1-0.46,0.24-1.09l-0.02,0
			c-0.2,0.33-0.43,0.64-0.71,0.93s-0.55,0.51-0.82,0.65c-0.17,0.09-0.31,0.14-0.41,0.14s-0.19-0.08-0.26-0.23s-0.1-0.34-0.1-0.56
			c0-0.3,0.04-0.65,0.13-1.02c0.09-0.38,0.21-0.7,0.35-0.98c0.11-0.21,0.23-0.38,0.38-0.51c0.22-0.2,0.47-0.37,0.76-0.5
			c0.14-0.06,0.29-0.09,0.45-0.09c0.13,0,0.34,0.03,0.64,0.09l0.17-0.98c0.04-0.21,0.05-0.34,0.05-0.39c0-0.08-0.02-0.14-0.05-0.17
			s-0.1-0.05-0.2-0.05l-0.38,0l0.02-0.16c0.32-0.04,0.55-0.08,0.7-0.12c0.14-0.04,0.33-0.12,0.54-0.23l0.1,0.08
			c-0.04,0.16-0.11,0.49-0.21,1c-0.06,0.33-0.23,1.15-0.51,2.48c-0.14,0.65-0.23,1.11-0.27,1.38c-0.01,0.08-0.02,0.16-0.02,0.23
			c0,0.07,0.01,0.12,0.03,0.15s0.05,0.04,0.08,0.04c0.05,0,0.11-0.03,0.2-0.08C255.76,130.56,255.91,130.45,256.03,130.35z
			 M255.25,127.95c-0.24-0.13-0.49-0.19-0.75-0.19c-0.19,0-0.35,0.03-0.47,0.08c-0.09,0.04-0.16,0.1-0.23,0.19
			c-0.07,0.09-0.15,0.27-0.25,0.56c-0.1,0.28-0.18,0.54-0.23,0.76c-0.09,0.37-0.13,0.71-0.13,1.02c0,0.12,0.01,0.2,0.02,0.25
			c0.02,0.05,0.04,0.08,0.06,0.1c0.02,0.02,0.06,0.03,0.09,0.03c0.07,0,0.14-0.02,0.21-0.05c0.2-0.1,0.39-0.23,0.58-0.41
			s0.35-0.37,0.5-0.59c0.15-0.22,0.26-0.46,0.35-0.72C255.07,128.78,255.15,128.44,255.25,127.95z"/>
		<path d="M259.04,130.33l0.05,0.15c-0.3,0.27-0.6,0.48-0.89,0.62c-0.29,0.14-0.54,0.21-0.74,0.21c-0.13,0-0.27-0.04-0.42-0.1
			c-0.15-0.07-0.26-0.18-0.35-0.32c-0.08-0.15-0.13-0.35-0.13-0.62c0-0.29,0.05-0.62,0.15-0.97s0.2-0.62,0.3-0.8
			c0.1-0.18,0.23-0.33,0.41-0.47c0.24-0.2,0.49-0.36,0.76-0.48c0.19-0.09,0.37-0.13,0.54-0.13c0.2,0,0.36,0.05,0.48,0.16
			c0.13,0.1,0.19,0.25,0.19,0.44c0,0.13-0.03,0.27-0.08,0.4s-0.13,0.25-0.23,0.34c-0.14,0.13-0.33,0.26-0.57,0.37
			c-0.25,0.11-0.5,0.21-0.76,0.29l-0.51,0.12c-0.05,0.27-0.07,0.47-0.07,0.62c0,0.25,0.06,0.45,0.17,0.57
			c0.11,0.13,0.25,0.19,0.42,0.19c0.15,0,0.32-0.04,0.51-0.11C258.44,130.72,258.7,130.56,259.04,130.33z M257.25,129.32
			c0.33-0.06,0.62-0.15,0.86-0.27c0.24-0.12,0.41-0.26,0.52-0.43c0.11-0.17,0.16-0.33,0.16-0.49c0-0.13-0.03-0.23-0.1-0.3
			s-0.15-0.11-0.26-0.11c-0.15,0-0.3,0.04-0.46,0.13s-0.28,0.22-0.37,0.4S257.39,128.79,257.25,129.32z"/>
	</g>
	<g>
		<path d="M277.75,53.21l-0.63,2.94c-0.07,0.31-0.1,0.55-0.1,0.72c0,0.49,0.23,0.73,0.69,0.73c0.56,0,1.1-0.47,1.6-1.41l0.22,0.08
			c-0.6,1.18-1.31,1.78-2.13,1.78c-0.38,0-0.68-0.1-0.89-0.3c-0.22-0.2-0.33-0.46-0.33-0.79c0-0.23,0.07-0.68,0.22-1.36l0.34-1.57
			l-1.1,0.73l-0.13-0.21l1.32-0.91l0.36-1.37c0.21-0.81,0.4-1.39,0.55-1.75c0.16-0.36,0.4-0.67,0.73-0.92
			c0.33-0.25,0.68-0.38,1.05-0.38c0.28,0,0.52,0.09,0.71,0.26c0.19,0.17,0.29,0.4,0.29,0.67c0,0.39-0.18,0.81-0.54,1.25
			C279.61,51.85,278.87,52.45,277.75,53.21z M277.87,52.85c1.02-0.73,1.66-1.29,1.92-1.65s0.39-0.69,0.39-0.98
			c0-0.36-0.19-0.54-0.57-0.54c-0.26,0-0.5,0.14-0.72,0.41s-0.38,0.61-0.5,0.99L277.87,52.85z"/>
	</g>
	<g>
		<path d="M281.56,60.29l0.05,0.15c-0.3,0.27-0.6,0.48-0.89,0.62s-0.54,0.21-0.74,0.21c-0.13,0-0.27-0.03-0.42-0.1
			s-0.26-0.18-0.35-0.32s-0.13-0.35-0.13-0.62c0-0.29,0.05-0.62,0.15-0.97s0.2-0.62,0.3-0.8s0.23-0.33,0.41-0.47
			c0.24-0.2,0.49-0.36,0.76-0.48c0.19-0.09,0.37-0.13,0.54-0.13c0.2,0,0.36,0.05,0.48,0.16s0.19,0.25,0.19,0.44
			c0,0.14-0.03,0.27-0.08,0.4s-0.13,0.25-0.23,0.34c-0.14,0.13-0.33,0.26-0.57,0.37c-0.25,0.11-0.5,0.21-0.76,0.29l-0.51,0.12
			c-0.05,0.27-0.07,0.47-0.07,0.62c0,0.26,0.06,0.45,0.17,0.57c0.11,0.13,0.25,0.19,0.42,0.19c0.15,0,0.32-0.04,0.51-0.11
			C280.96,60.68,281.23,60.53,281.56,60.29z M279.78,59.29c0.33-0.06,0.62-0.15,0.86-0.27s0.41-0.26,0.52-0.43s0.16-0.33,0.16-0.49
			c0-0.13-0.03-0.23-0.1-0.3s-0.15-0.11-0.26-0.11c-0.15,0-0.3,0.04-0.46,0.13s-0.28,0.22-0.37,0.4S279.92,58.75,279.78,59.29z"/>
		<path d="M282.36,58.16l0.04-0.18c0.32-0.12,0.55-0.22,0.69-0.31c0.13-0.64,0.2-0.98,0.22-1.04c0.03-0.12,0.09-0.24,0.18-0.34
			s0.25-0.26,0.51-0.46s0.45-0.33,0.59-0.39c0.09-0.04,0.2-0.06,0.32-0.06c0.16,0,0.33,0.04,0.51,0.11c-0.1,0.28-0.18,0.5-0.22,0.65
			l-0.09,0.03c-0.07-0.09-0.15-0.16-0.25-0.21s-0.21-0.08-0.31-0.08c-0.12,0-0.23,0.03-0.31,0.08s-0.15,0.13-0.21,0.23
			s-0.11,0.29-0.17,0.58c-0.09,0.4-0.15,0.72-0.2,0.97c0.33-0.01,0.52-0.01,0.57-0.02c0.09-0.01,0.18-0.03,0.27-0.06l0.04,0.05
			c-0.06,0.17-0.11,0.32-0.14,0.46c-0.15-0.01-0.28-0.01-0.39-0.01c-0.11,0-0.25,0-0.43,0.01l-0.46,2.18
			c-0.17,0.78-0.32,1.32-0.44,1.62s-0.28,0.57-0.49,0.8s-0.41,0.4-0.63,0.52c-0.14,0.07-0.27,0.11-0.41,0.11
			c-0.08,0-0.18-0.02-0.28-0.07c0.09-0.26,0.15-0.47,0.18-0.64l0.1-0.02c0.11,0.15,0.25,0.22,0.4,0.22c0.09,0,0.18-0.02,0.26-0.07
			s0.16-0.12,0.24-0.23s0.16-0.31,0.23-0.61c0.13-0.49,0.26-1.11,0.39-1.86l0.33-1.95c-0.15,0-0.26,0-0.31,0
			C282.6,58.15,282.49,58.16,282.36,58.16z"/>
	</g>
	<g>
		<path d="M211.08,60.23l-0.63,2.94c-0.07,0.31-0.1,0.55-0.1,0.72c0,0.49,0.23,0.73,0.69,0.73c0.56,0,1.1-0.47,1.6-1.41l0.22,0.08
			c-0.6,1.18-1.31,1.78-2.13,1.78c-0.38,0-0.68-0.1-0.89-0.3c-0.22-0.2-0.33-0.46-0.33-0.79c0-0.23,0.07-0.68,0.22-1.36l0.34-1.57
			l-1.1,0.73l-0.13-0.21l1.32-0.91l0.36-1.37c0.21-0.81,0.4-1.39,0.55-1.75c0.16-0.36,0.4-0.67,0.73-0.92
			c0.33-0.25,0.68-0.38,1.05-0.38c0.28,0,0.52,0.09,0.71,0.26c0.19,0.17,0.29,0.4,0.29,0.67c0,0.39-0.18,0.81-0.54,1.25
			C212.94,58.87,212.2,59.47,211.08,60.23z M211.19,59.87c1.02-0.73,1.66-1.29,1.92-1.65s0.39-0.69,0.39-0.98
			c0-0.36-0.19-0.54-0.57-0.54c-0.26,0-0.5,0.14-0.72,0.41s-0.38,0.61-0.5,0.99L211.19,59.87z"/>
	</g>
	<g>
		<path d="M212.57,65.18l0.04-0.18c0.32-0.12,0.55-0.22,0.69-0.31c0.13-0.64,0.2-0.98,0.22-1.04c0.03-0.12,0.09-0.24,0.18-0.34
			s0.25-0.26,0.51-0.46s0.45-0.33,0.59-0.39c0.09-0.04,0.2-0.06,0.32-0.06c0.16,0,0.33,0.04,0.51,0.11c-0.1,0.28-0.18,0.5-0.22,0.65
			l-0.09,0.03c-0.07-0.09-0.15-0.16-0.25-0.21s-0.21-0.08-0.31-0.08c-0.12,0-0.23,0.03-0.31,0.08s-0.15,0.13-0.21,0.23
			s-0.11,0.29-0.17,0.58c-0.09,0.4-0.15,0.72-0.2,0.97c0.33-0.01,0.52-0.01,0.57-0.02c0.09-0.01,0.18-0.03,0.27-0.06l0.04,0.05
			c-0.06,0.17-0.11,0.32-0.14,0.46c-0.15-0.01-0.28-0.01-0.39-0.01c-0.11,0-0.25,0-0.43,0.01l-0.46,2.18
			c-0.17,0.78-0.32,1.32-0.44,1.62s-0.28,0.57-0.49,0.8s-0.41,0.4-0.63,0.52c-0.14,0.07-0.27,0.11-0.41,0.11
			c-0.08,0-0.18-0.02-0.28-0.07c0.09-0.26,0.15-0.47,0.18-0.64l0.1-0.02c0.11,0.15,0.25,0.22,0.4,0.22c0.09,0,0.18-0.02,0.26-0.07
			s0.16-0.12,0.24-0.23s0.16-0.31,0.23-0.61c0.13-0.49,0.26-1.11,0.39-1.86l0.33-1.95c-0.15,0-0.26,0-0.31,0
			C212.81,65.17,212.7,65.17,212.57,65.18z"/>
		<path d="M218.1,67.33l0.07,0.14c-0.15,0.14-0.33,0.28-0.53,0.43s-0.38,0.25-0.52,0.31c-0.08,0.04-0.14,0.05-0.19,0.05
			c-0.05,0-0.09-0.03-0.13-0.08s-0.06-0.14-0.06-0.27c0-0.08,0.01-0.18,0.03-0.28s0.1-0.46,0.24-1.09l-0.02,0
			c-0.2,0.33-0.43,0.64-0.71,0.93s-0.55,0.51-0.82,0.65c-0.17,0.09-0.31,0.14-0.41,0.14s-0.19-0.08-0.26-0.23s-0.1-0.34-0.1-0.56
			c0-0.3,0.04-0.65,0.13-1.02s0.21-0.7,0.35-0.98c0.11-0.21,0.23-0.38,0.38-0.51c0.22-0.2,0.47-0.37,0.76-0.5
			c0.14-0.06,0.29-0.09,0.45-0.09c0.13,0,0.34,0.03,0.64,0.09l0.17-0.98c0.04-0.21,0.05-0.34,0.05-0.39c0-0.08-0.02-0.14-0.05-0.17
			s-0.1-0.05-0.2-0.05l-0.38,0l0.02-0.16c0.32-0.04,0.55-0.08,0.7-0.12s0.33-0.12,0.54-0.23l0.1,0.08c-0.04,0.16-0.11,0.49-0.21,1
			c-0.06,0.33-0.23,1.15-0.51,2.48c-0.14,0.65-0.23,1.11-0.27,1.38c-0.01,0.08-0.02,0.16-0.02,0.23c0,0.07,0.01,0.12,0.03,0.15
			s0.05,0.04,0.08,0.04c0.05,0,0.11-0.03,0.2-0.08C217.83,67.54,217.98,67.43,218.1,67.33z M217.32,64.93
			c-0.24-0.13-0.49-0.19-0.75-0.19c-0.19,0-0.35,0.03-0.47,0.08c-0.09,0.04-0.16,0.1-0.23,0.19s-0.15,0.27-0.25,0.56
			s-0.18,0.54-0.23,0.76c-0.09,0.37-0.13,0.71-0.13,1.02c0,0.12,0.01,0.2,0.02,0.25s0.04,0.08,0.06,0.1s0.06,0.03,0.09,0.03
			c0.07,0,0.14-0.02,0.21-0.05c0.2-0.1,0.39-0.23,0.58-0.41s0.35-0.37,0.5-0.59s0.26-0.46,0.35-0.72
			C217.14,65.76,217.22,65.42,217.32,64.93z"/>
	</g>
</g>
<g id="Layer_12" class="st8">
</g>
</svg>
