<?xml version="1.0" encoding="utf-8"?>
<!-- Generator: Adobe Illustrator 23.0.4, SVG Export Plug-In . SVG Version: 6.00 Build 0)  -->
<svg version="1.1" xmlns="http://www.w3.org/2000/svg" xmlns:xlink="http://www.w3.org/1999/xlink" x="0px" y="0px"
	 viewBox="0 0 132.68 132.2" style="enable-background:new 0 0 132.68 132.2;" xml:space="preserve">
<style type="text/css">
	.st0{fill:#FFFFFF;}
	.st1{opacity:0.4;fill:#FF2F92;}
	.st2{fill:#FF2F92;}
	.st3{opacity:0.4;fill:#FFCE6A;}
	.st4{fill:none;stroke:#F7931E;stroke-miterlimit:10;}
	.st5{opacity:0.8;fill:none;stroke:#FF2F92;stroke-linecap:round;stroke-linejoin:round;stroke-miterlimit:10;}
	.st6{opacity:0.4;fill:none;stroke:#662D91;stroke-width:2;stroke-linecap:round;stroke-linejoin:round;stroke-miterlimit:10;}
	.st7{fill:none;stroke:#662D91;stroke-width:2;stroke-linecap:round;stroke-miterlimit:10;}
	.st8{fill:#662D91;}
	.st9{fill:none;}
</style>
<g id="Layer_7">
	<polygon class="st0" points="5.7,45.45 35.8,122.4 99.39,116.21 129.59,59.21 70.48,7.65 	"/>
	<polygon class="st1" points="5.7,45.45 35.8,122.4 99.39,116.21 129.59,59.21 70.48,7.65 	"/>
</g>
<g id="Layer_6">
	<circle class="st2" cx="5.7" cy="45.45" r="1.74"/>
	<circle class="st2" cx="129.59" cy="59.21" r="1.74"/>
	<circle class="st2" cx="63.19" cy="66.81" r="1.74"/>
	<circle class="st2" cx="70.37" cy="7.65" r="1.74"/>
	<circle class="st2" cx="35.8" cy="122.4" r="1.74"/>
	<circle class="st2" cx="99.39" cy="116.21" r="1.74"/>
</g>
<g id="Angle_Areas">
</g>
<g id="Angles">
	<g>
		<path d="M88.08,78.06h0.08l0.07,0.07l0.01,0.08c-0.76,0.8-1.34,1.2-1.72,1.2c-0.21,0-0.34-0.1-0.41-0.31s-0.11-0.68-0.13-1.42
			l-0.05-0.04c-0.45,0.53-0.93,0.95-1.44,1.27s-0.99,0.48-1.46,0.48c-0.7,0-1.05-0.43-1.05-1.29c0-0.42,0.1-0.92,0.31-1.51
			s0.49-1.12,0.85-1.6s0.75-0.85,1.18-1.09s0.85-0.37,1.28-0.37c0.25,0,0.44,0.04,0.58,0.12s0.25,0.2,0.33,0.35s0.13,0.34,0.15,0.58
			s0.04,0.61,0.04,1.12c0,0.06,0,0.19-0.01,0.39l0.07,0.05c0.25-0.41,0.49-0.82,0.71-1.25s0.37-0.82,0.44-1.17h0.13
			c0.1,0.18,0.19,0.36,0.28,0.54c-0.4,0.77-0.93,1.55-1.57,2.36c0,0.31,0.02,0.67,0.06,1.08s0.1,0.65,0.17,0.73s0.16,0.12,0.25,0.12
			c0.11,0,0.23-0.03,0.34-0.09S87.86,78.27,88.08,78.06z M85.96,77.25c0-0.17,0.01-0.28,0.01-0.33c0-0.66-0.03-1.21-0.09-1.67
			s-0.15-0.78-0.28-0.98s-0.32-0.29-0.57-0.29c-0.16,0-0.32,0.05-0.48,0.14s-0.33,0.25-0.51,0.46s-0.36,0.5-0.55,0.88
			s-0.33,0.77-0.44,1.19s-0.16,0.81-0.16,1.19c0,0.34,0.06,0.6,0.18,0.77s0.31,0.26,0.59,0.26c0.35,0,0.73-0.15,1.13-0.46
			S85.57,77.72,85.96,77.25z"/>
	</g>
	<g>
		<path d="M95.73,65.16l-0.5-3.61c-0.08-0.56-0.2-0.97-0.37-1.24c-0.17-0.27-0.45-0.38-0.84-0.33c-0.28,0.04-0.52,0.17-0.71,0.4
			c-0.2,0.23-0.32,0.5-0.35,0.81l0.59,4.27l-0.86,0.12l-1.15-8.32l0.86-0.12l0.41,2.94l0.04,0c0.13-0.23,0.3-0.42,0.52-0.59
			c0.21-0.16,0.5-0.27,0.85-0.32c0.26-0.04,0.49-0.03,0.7,0.01c0.2,0.04,0.38,0.15,0.53,0.3c0.15,0.16,0.28,0.38,0.38,0.66
			c0.1,0.28,0.18,0.63,0.24,1.06l0.53,3.84L95.73,65.16z"/>
		<path d="M101.42,63.97c-0.17,0.2-0.39,0.37-0.67,0.5c-0.28,0.14-0.58,0.23-0.91,0.27c-0.37,0.05-0.71,0.02-1-0.09
			c-0.29-0.11-0.55-0.29-0.77-0.54c-0.21-0.25-0.39-0.56-0.53-0.93c-0.13-0.37-0.24-0.79-0.3-1.27c-0.14-1.01-0.06-1.81,0.24-2.4
			s0.79-0.92,1.47-1.01c0.22-0.03,0.45-0.03,0.67-0.01c0.23,0.03,0.44,0.11,0.64,0.25c0.2,0.14,0.37,0.36,0.52,0.64
			c0.15,0.29,0.26,0.67,0.32,1.15c0.02,0.13,0.03,0.28,0.04,0.44s0.02,0.32,0.02,0.49l-3.02,0.42c0.05,0.34,0.12,0.65,0.21,0.92
			c0.09,0.27,0.21,0.49,0.36,0.67c0.14,0.18,0.32,0.31,0.52,0.39c0.2,0.08,0.44,0.1,0.72,0.06c0.21-0.03,0.42-0.1,0.62-0.21
			c0.2-0.11,0.35-0.23,0.44-0.35L101.42,63.97z M100.31,60.87c-0.07-0.6-0.21-1.02-0.43-1.27c-0.22-0.25-0.49-0.36-0.81-0.31
			c-0.37,0.05-0.63,0.23-0.81,0.54c-0.18,0.31-0.24,0.76-0.2,1.36L100.31,60.87z"/>
	</g>
	<g>
		<path d="M91.27,81.53v-2.43c0-0.37-0.04-0.66-0.13-0.85s-0.26-0.29-0.52-0.29c-0.19,0-0.36,0.07-0.51,0.2
			c-0.15,0.13-0.25,0.3-0.31,0.5v2.87h-0.58v-5.6h0.58v1.98h0.02c0.11-0.14,0.24-0.25,0.4-0.34s0.35-0.13,0.59-0.13
			c0.18,0,0.33,0.02,0.46,0.07s0.24,0.13,0.32,0.25s0.15,0.27,0.19,0.47c0.04,0.2,0.06,0.44,0.06,0.72v2.58H91.27z"/>
		<path d="M95.13,81.25c-0.13,0.12-0.29,0.21-0.49,0.27c-0.2,0.06-0.41,0.1-0.62,0.1c-0.25,0-0.47-0.05-0.65-0.15
			c-0.18-0.1-0.34-0.24-0.46-0.42c-0.12-0.18-0.21-0.4-0.26-0.66c-0.06-0.26-0.08-0.54-0.08-0.86c0-0.68,0.12-1.2,0.38-1.56
			s0.61-0.54,1.06-0.54c0.15,0,0.3,0.02,0.44,0.06s0.28,0.11,0.4,0.22s0.21,0.27,0.28,0.47c0.07,0.2,0.11,0.47,0.11,0.79
			c0,0.09,0,0.19-0.01,0.29c-0.01,0.1-0.02,0.21-0.03,0.32h-2.03c0,0.23,0.02,0.44,0.06,0.62s0.1,0.35,0.18,0.48s0.18,0.23,0.31,0.3
			c0.13,0.07,0.28,0.11,0.47,0.11c0.14,0,0.29-0.03,0.43-0.08c0.14-0.05,0.25-0.12,0.32-0.19L95.13,81.25z M94.68,79.11
			c0.01-0.4-0.04-0.69-0.17-0.88s-0.29-0.28-0.5-0.28c-0.25,0-0.44,0.09-0.58,0.28c-0.14,0.19-0.23,0.48-0.26,0.88H94.68z"/>
	</g>
	<path class="st3" d="M83.17,64.52c0.03,3.51-1.16,7.79-3.55,11.93c-1.41,2.44-3.07,4.54-4.82,6.21L63.19,66.81L83.17,64.52z"/>
	<path class="st4" d="M83.17,64.52c0.03,3.51-1.16,7.79-3.55,11.93c-1.41,2.44-3.07,4.54-4.82,6.21"/>
</g>
<g id="Overlay">
	<g id="Layer_5">
		<polyline class="st5" points="91.39,63.58 63.19,66.81 99.39,116.21 129.59,59.21 102.01,62.36 		"/>
		<polyline class="st5" points="67.06,34.71 63.19,66.81 91.34,63.58 		"/>
		<path class="st5" d="M67.06,34.71"/>
		<path class="st5" d="M68.22,25.06"/>
		<polyline class="st5" points="102.12,62.35 129.59,59.21 70.37,7.2 68.22,25.06 		"/>
		<polyline class="st5" points="68.16,25.87 70.37,7.65 5.7,45.45 63.19,66.81 67.06,34.95 		"/>
		<polygon class="st5" points="35.8,122.4 63.19,66.81 5.7,45.45 		"/>
		<polygon class="st5" points="99.39,116.21 63.19,66.81 35.8,122.4 		"/>
		<polyline class="st6" points="73.35,72.53 97.65,108.38 97.64,99.9 		"/>
		<polyline class="st6" points="73.18,61.64 116.27,57.32 108.8,53.29 		"/>
		<polyline class="st6" points="61.27,59.63 65.93,16.58 60.45,23.05 		"/>
		<polyline class="st6" points="54.7,68.6 14.19,53.29 19.08,60.22 		"/>
		<polyline class="st6" points="62.06,76.9 43.32,115.93 50.65,111.66 		"/>
	</g>
	<g>
		<g>
			<path class="st7" d="M38.95,42.61c6.2-6.21,14.77-10.05,24.24-10.05c12.68,0,23.75,6.89,29.67,17.13"/>
			<g>
				<path class="st8" d="M95.41,55.15c-2.18-2.1-5.32-4.5-7.99-5.65L92.45,49L96,45.39C95.23,48.18,95.13,52.14,95.41,55.15z"/>
			</g>
		</g>
	</g>
	<g>
		<path class="st9" d="M29.49,56.71c2.19-8.5,7.62-16.16,15.78-20.97c12.77-7.53,28.43-5.83,39.23,3.11"/>
		<path d="M41.61,31.41l0.51-0.31l2.93,4.77l-0.51,0.31L41.61,31.41z"/>
		<path d="M43.76,31.97l0.43-0.23l-0.37-0.7l0.42-0.43l0.46,0.86l0.76-0.41l0.25,0.46l-0.76,0.41l1.13,2.1
			c0.11,0.21,0.22,0.34,0.31,0.41c0.1,0.07,0.2,0.07,0.32,0.01c0.09-0.05,0.17-0.1,0.23-0.16c0.06-0.06,0.12-0.12,0.18-0.2
			l0.31,0.35c-0.08,0.11-0.17,0.21-0.28,0.31c-0.11,0.1-0.23,0.18-0.37,0.26c-0.23,0.13-0.44,0.14-0.63,0.04
			c-0.18-0.1-0.37-0.32-0.55-0.66l-1.16-2.17L44,32.43L43.76,31.97z"/>
		<path d="M49.97,33.1c-0.07,0.16-0.18,0.31-0.34,0.44c-0.16,0.14-0.33,0.25-0.53,0.34c-0.23,0.1-0.45,0.14-0.66,0.13
			c-0.21-0.02-0.4-0.08-0.59-0.21s-0.35-0.29-0.51-0.5c-0.15-0.21-0.29-0.46-0.42-0.76c-0.27-0.63-0.37-1.15-0.28-1.58
			c0.09-0.43,0.34-0.73,0.76-0.92c0.14-0.06,0.28-0.1,0.43-0.13c0.15-0.03,0.3-0.01,0.45,0.05c0.15,0.06,0.3,0.16,0.45,0.32
			c0.15,0.16,0.29,0.38,0.42,0.68c0.04,0.08,0.07,0.17,0.11,0.27c0.03,0.1,0.07,0.2,0.1,0.31l-1.86,0.82
			c0.09,0.21,0.19,0.39,0.3,0.55s0.23,0.28,0.35,0.37c0.13,0.09,0.26,0.14,0.41,0.15c0.14,0.02,0.3-0.01,0.47-0.09
			c0.13-0.06,0.25-0.14,0.36-0.25c0.11-0.11,0.18-0.21,0.22-0.31L49.97,33.1z M48.7,31.32c-0.15-0.37-0.32-0.62-0.51-0.74
			c-0.19-0.12-0.38-0.14-0.57-0.05c-0.23,0.1-0.37,0.26-0.42,0.49c-0.06,0.23-0.02,0.53,0.12,0.91L48.7,31.32z"/>
		<path d="M49.64,29.25l0.38-0.13l0.24,0.37l0.02-0.01c0.02-0.17,0.07-0.32,0.16-0.44c0.08-0.12,0.21-0.21,0.37-0.27
			c0.12-0.04,0.25-0.06,0.42-0.07l0.08,0.59c-0.15,0-0.27,0.02-0.37,0.05c-0.16,0.06-0.28,0.15-0.34,0.28
			c-0.07,0.13-0.09,0.28-0.07,0.44l0.96,2.78l-0.54,0.19L49.64,29.25z"/>
		<path d="M52.03,28.71c0.13-0.13,0.29-0.25,0.49-0.36c0.2-0.11,0.42-0.19,0.66-0.25c0.22-0.06,0.4-0.07,0.55-0.04
			c0.15,0.03,0.27,0.09,0.38,0.18c0.1,0.09,0.19,0.21,0.25,0.34c0.06,0.14,0.11,0.28,0.15,0.44c0.08,0.31,0.15,0.61,0.22,0.91
			c0.06,0.3,0.13,0.58,0.2,0.84c0.05,0.2,0.11,0.38,0.16,0.54c0.06,0.16,0.12,0.32,0.2,0.46l-0.44,0.11l-0.25-0.42l-0.03,0.01
			c-0.04,0.15-0.12,0.3-0.25,0.44c-0.12,0.14-0.31,0.24-0.56,0.3c-0.28,0.07-0.53,0.03-0.75-0.11c-0.23-0.15-0.38-0.39-0.47-0.73
			c-0.06-0.22-0.07-0.42-0.03-0.59c0.04-0.17,0.11-0.32,0.22-0.45c0.11-0.13,0.26-0.24,0.43-0.32c0.18-0.09,0.38-0.16,0.61-0.22
			c0.05-0.01,0.1-0.03,0.15-0.04c0.05-0.01,0.11-0.02,0.16-0.03c-0.03-0.16-0.06-0.31-0.09-0.43c-0.08-0.29-0.17-0.49-0.29-0.59
			c-0.12-0.1-0.29-0.11-0.52-0.05c-0.14,0.04-0.29,0.1-0.45,0.19c-0.16,0.09-0.28,0.18-0.38,0.28L52.03,28.71z M54.18,30.15
			c-0.05,0.01-0.11,0.02-0.16,0.03c-0.05,0.01-0.1,0.02-0.15,0.04c-0.12,0.03-0.24,0.07-0.35,0.12c-0.11,0.05-0.21,0.12-0.29,0.19
			c-0.08,0.08-0.13,0.16-0.16,0.27c-0.03,0.1-0.03,0.22,0.01,0.35c0.05,0.21,0.14,0.35,0.27,0.44c0.13,0.09,0.27,0.11,0.43,0.07
			c0.21-0.06,0.37-0.15,0.46-0.28c0.09-0.13,0.14-0.27,0.16-0.4L54.18,30.15z"/>
		<path d="M55.05,27.71l0.48-0.08l-0.14-0.78l0.54-0.28l0.17,0.96l0.85-0.15l0.09,0.51l-0.85,0.15l0.41,2.35
			c0.04,0.23,0.1,0.39,0.17,0.49c0.07,0.09,0.17,0.13,0.3,0.11c0.11-0.02,0.19-0.05,0.27-0.08c0.07-0.04,0.15-0.08,0.23-0.13
			l0.19,0.43c-0.11,0.08-0.22,0.15-0.36,0.21c-0.13,0.06-0.28,0.1-0.43,0.13c-0.26,0.05-0.47-0.01-0.61-0.16
			c-0.14-0.15-0.25-0.42-0.32-0.8l-0.43-2.43l-0.48,0.09L55.05,27.71z"/>
		<path d="M57.69,26.06c-0.01-0.13,0.01-0.23,0.07-0.32s0.15-0.14,0.27-0.15c0.12-0.01,0.22,0.01,0.3,0.08
			c0.09,0.07,0.14,0.17,0.15,0.3c0.02,0.13-0.01,0.23-0.08,0.31c-0.07,0.08-0.16,0.13-0.28,0.14c-0.12,0.01-0.21-0.01-0.29-0.08
			C57.76,26.27,57.71,26.18,57.69,26.06z M57.94,27.25l0.57-0.07l0.47,3.97l-0.57,0.07L57.94,27.25z"/>
		<path d="M59.79,29.05c-0.03-0.72,0.07-1.25,0.31-1.6c0.23-0.35,0.58-0.53,1.04-0.55c0.49-0.02,0.86,0.14,1.1,0.48
			c0.25,0.34,0.38,0.86,0.41,1.56c0.03,0.73-0.08,1.26-0.31,1.61c-0.24,0.35-0.58,0.53-1.03,0.55c-0.49,0.02-0.86-0.14-1.1-0.48
			C59.95,30.27,59.81,29.75,59.79,29.05z M60.39,29.02c0.01,0.23,0.03,0.45,0.07,0.64c0.04,0.19,0.09,0.35,0.16,0.49
			c0.07,0.14,0.16,0.24,0.27,0.31c0.11,0.07,0.24,0.11,0.39,0.1c0.28-0.01,0.48-0.14,0.61-0.4c0.13-0.25,0.18-0.66,0.16-1.21
			c-0.01-0.23-0.03-0.44-0.07-0.63c-0.04-0.19-0.09-0.36-0.16-0.49c-0.07-0.14-0.16-0.24-0.27-0.31s-0.24-0.11-0.39-0.1
			c-0.27,0.01-0.47,0.15-0.61,0.4C60.42,28.07,60.36,28.47,60.39,29.02z"/>
		<path d="M65.54,31.07l0.15-2.44c0.02-0.4,0-0.69-0.09-0.88c-0.08-0.18-0.24-0.28-0.48-0.3c-0.21-0.01-0.39,0.04-0.54,0.16
			c-0.15,0.12-0.26,0.27-0.33,0.45l-0.18,2.91l-0.57-0.04l0.25-3.99l0.42,0.03l0.08,0.43l0.02,0c0.11-0.14,0.25-0.25,0.43-0.34
			c0.18-0.09,0.39-0.13,0.63-0.11c0.17,0.01,0.32,0.04,0.45,0.1c0.13,0.06,0.23,0.14,0.31,0.26c0.08,0.12,0.14,0.28,0.17,0.47
			c0.03,0.19,0.04,0.44,0.02,0.73l-0.16,2.59L65.54,31.07z"/>
		<path d="M69.18,28.69c0.21-0.93,0.52-1.59,0.93-2c0.41-0.41,0.91-0.55,1.52-0.41c0.33,0.07,0.59,0.21,0.79,0.39
			c0.2,0.18,0.34,0.42,0.43,0.69c0.09,0.28,0.12,0.6,0.11,0.96c-0.01,0.36-0.07,0.76-0.17,1.19c-0.21,0.92-0.52,1.59-0.93,2
			c-0.41,0.41-0.92,0.54-1.52,0.41c-0.32-0.07-0.58-0.2-0.78-0.39c-0.2-0.19-0.34-0.42-0.43-0.69c-0.09-0.28-0.13-0.6-0.11-0.96
			C69.02,29.52,69.08,29.12,69.18,28.69z M69.79,28.83c-0.07,0.31-0.12,0.6-0.13,0.89c-0.02,0.29-0.01,0.54,0.04,0.77
			c0.05,0.23,0.13,0.42,0.25,0.58c0.12,0.16,0.29,0.26,0.5,0.31c0.39,0.09,0.73-0.03,1.02-0.36c0.29-0.33,0.52-0.88,0.7-1.65
			c0.07-0.3,0.11-0.6,0.13-0.88c0.02-0.29,0-0.54-0.04-0.78c-0.04-0.23-0.13-0.43-0.25-0.59c-0.12-0.16-0.29-0.26-0.51-0.31
			c-0.39-0.09-0.72,0.03-1.01,0.36C70.2,27.5,69.97,28.06,69.79,28.83z"/>
		<path d="M74.21,28.73l0.39,0.13l-0.04,0.44l0.02,0.01c0.12-0.12,0.25-0.21,0.39-0.25c0.14-0.05,0.29-0.04,0.46,0.01
			c0.12,0.04,0.24,0.1,0.37,0.2l-0.29,0.52c-0.12-0.09-0.23-0.15-0.33-0.18c-0.16-0.05-0.31-0.05-0.44,0.01s-0.24,0.16-0.32,0.31
			l-0.93,2.79l-0.55-0.18L74.21,28.73z"/>
		<path d="M77.87,32.95c-0.11,0.25-0.2,0.48-0.28,0.68c-0.08,0.21-0.15,0.41-0.2,0.62l-0.36-0.15l0.07-0.49l-0.03-0.01
			c-0.13,0.12-0.29,0.19-0.48,0.23c-0.19,0.04-0.39,0.01-0.59-0.08c-0.4-0.17-0.63-0.45-0.69-0.84c-0.06-0.39,0.05-0.92,0.33-1.58
			c0.27-0.63,0.59-1.05,0.97-1.27c0.38-0.22,0.77-0.24,1.19-0.07c0.14,0.06,0.25,0.12,0.33,0.17c0.08,0.05,0.15,0.12,0.24,0.2
			L79,28.84l0.53,0.23L77.87,32.95z M78.12,30.89c-0.04-0.09-0.1-0.16-0.18-0.23c-0.07-0.06-0.18-0.13-0.32-0.19
			c-0.26-0.11-0.51-0.08-0.76,0.09c-0.24,0.17-0.47,0.51-0.68,1c-0.09,0.22-0.16,0.42-0.21,0.6c-0.05,0.19-0.07,0.35-0.07,0.51
			c0,0.15,0.03,0.28,0.09,0.39c0.06,0.11,0.16,0.19,0.29,0.25c0.35,0.15,0.67,0.04,0.94-0.34L78.12,30.89z"/>
		<path d="M80.4,35.54c-0.17,0.04-0.36,0.04-0.56,0c-0.2-0.04-0.4-0.11-0.59-0.21c-0.22-0.12-0.39-0.27-0.5-0.44
			c-0.11-0.18-0.18-0.37-0.2-0.59c-0.02-0.22,0.01-0.45,0.09-0.71c0.07-0.25,0.19-0.52,0.34-0.8c0.33-0.6,0.69-0.99,1.08-1.19
			c0.39-0.19,0.79-0.18,1.19,0.04c0.13,0.07,0.25,0.16,0.36,0.26c0.11,0.1,0.19,0.23,0.24,0.39c0.05,0.15,0.06,0.34,0.02,0.55
			s-0.13,0.46-0.29,0.75c-0.04,0.08-0.09,0.16-0.15,0.25c-0.06,0.09-0.12,0.18-0.18,0.27l-1.78-0.98c-0.11,0.2-0.19,0.39-0.25,0.57
			c-0.06,0.18-0.08,0.35-0.08,0.5s0.05,0.29,0.12,0.41c0.08,0.12,0.2,0.23,0.36,0.32c0.12,0.07,0.26,0.11,0.41,0.14
			c0.15,0.02,0.28,0.02,0.38-0.01L80.4,35.54z M81.04,33.45c0.2-0.35,0.29-0.63,0.28-0.85s-0.12-0.39-0.31-0.49
			c-0.21-0.12-0.43-0.13-0.65-0.04c-0.22,0.09-0.43,0.31-0.65,0.65L81.04,33.45z"/>
		<path d="M83.23,32.92l0.34,0.22l-0.15,0.41l0.02,0.01c0.15-0.09,0.29-0.14,0.44-0.14c0.15-0.01,0.29,0.04,0.44,0.13
			c0.1,0.07,0.21,0.16,0.31,0.29l-0.41,0.43c-0.09-0.12-0.18-0.2-0.27-0.26c-0.14-0.09-0.29-0.13-0.43-0.1
			c-0.14,0.02-0.27,0.1-0.39,0.22l-1.62,2.46l-0.48-0.32L83.23,32.92z"/>
	</g>
</g>
<g id="Text">
	<g>
	</g>
	<g>
	</g>
	<g>
	</g>
	<g>
	</g>
	<g>
	</g>
	<g>
	</g>
	<g>
	</g>
	<g>
	</g>
	<g>
	</g>
	<g>
	</g>
	<g>
	</g>
	<g>
	</g>
	<g>
	</g>
	<g>
	</g>
	<g>
	</g>
	<g>
	</g>
</g>
</svg>
