<?xml version="1.0" encoding="utf-8"?>
<!-- Generator: Adobe Illustrator 23.0.2, SVG Export Plug-In . SVG Version: 6.00 Build 0)  -->
<svg version="1.1" xmlns="http://www.w3.org/2000/svg" xmlns:xlink="http://www.w3.org/1999/xlink" x="0px" y="0px"
	 viewBox="0 0 579 533" style="enable-background:new 0 0 579 533;" xml:space="preserve">
<style type="text/css">
	.st0{opacity:0.1;fill:#006837;}
	.st1{opacity:0.2;fill:#006837;}
	.st2{opacity:0.15;fill:#006837;}
	.st3{opacity:0.12;fill:#006837;}
	.st4{fill:#FFFFFF;}
	.st5{opacity:0.3;fill:#006837;}
	.st6{fill:none;stroke:#000000;stroke-width:2;stroke-linecap:round;stroke-linejoin:round;stroke-miterlimit:10;}
	.st7{fill:none;stroke:#000000;stroke-width:2;stroke-linecap:round;stroke-linejoin:round;}
	.st8{fill:none;stroke:#000000;stroke-width:2;stroke-linejoin:round;stroke-miterlimit:10;}
	.st9{fill:none;stroke:#000000;stroke-linejoin:round;stroke-miterlimit:10;}
	.st10{fill:none;stroke:#000000;stroke-miterlimit:10;}
	.st11{opacity:0.1;}
</style>
<g id="Layer_4">
	<rect x="0" y="117" class="st0" width="579" height="203"/>
	<rect x="0" y="320" class="st1" width="579" height="213"/>
	<rect x="121" class="st0" width="234" height="533"/>
	<rect x="355" class="st1" width="224" height="533"/>
	<rect x="121" y="76" class="st0" width="129" height="457"/>
	<rect x="250" y="76" class="st2" width="105" height="457"/>
	<rect x="355" y="76" class="st3" width="103" height="457"/>
	<rect x="458" y="76" class="st1" width="121" height="457"/>
</g>
<g id="Background_x5F_Whites">
	<polygon class="st4" points="536,253.5 513,308 512.5,188.5 536,130.5 	"/>
	<polygon class="st4" points="201,250.5 178,307 177.5,185.5 201,127.5 	"/>
	<polygon class="st4" points="333,454.5 309.5,512.5 309.5,389.5 333,331.5 	"/>
	<polygon class="st4" points="301,455.5 277.5,513.5 277.5,390.5 301,332.5 	"/>
	<polygon class="st4" points="398,462.5 375,517 374.5,397.5 398,339.5 	"/>
	<polygon class="st4" points="433,461.5 410,517 409.5,396.5 433,338.5 	"/>
	<polygon class="st4" points="564,339 564,460 540,520 473,519 473,395 504,339 	"/>
	<polygon class="st4" points="231,338 231,459 207,519 140,518 140,394 171,338 	"/>
</g>
<g id="Color">
	<polygon class="st5" points="231,459.5 207,519 207,459 	"/>
	<polygon class="st1" points="536,250.5 512.5,308.5 512.5,185.5 536,127.5 	"/>
	<polygon class="st1" points="201,248.5 177.5,306.5 177.5,183.5 201,125.5 	"/>
	<polyline class="st5" points="540,394 564,339 564,459.5 540,519 	"/>
	<polygon class="st1" points="564,338 540,394 540,519 473,518 473,394 504,338 	"/>
	<polygon class="st5" points="564,459.5 540,519 540,459 	"/>
	<polygon class="st0" points="540,395 564,338 504,338 473,394 	"/>
	<polygon class="st1" points="333,454.5 309.5,512.5 309.5,389.5 333,331.5 	"/>
	<polygon class="st1" points="301,454.5 277.5,512.5 277.5,389.5 301,331.5 	"/>
	<polygon class="st0" points="301,455 284,496.5 284,398 301,356 	"/>
	<polygon class="st1" points="433,458.5 409.5,516.5 409.5,393.5 433,335.5 	"/>
	<polygon class="st1" points="398,458.5 374.5,516.5 374.5,393.5 398,335.5 	"/>
	<polyline class="st5" points="207,394 231,339 231,459.5 207,519 	"/>
	<polygon class="st1" points="231,338 207,394 207,519 140,518 140,394 171,338 	"/>
	<polygon class="st0" points="207,395 231,338 171,338 140,394 	"/>
	<polygon class="st0" points="398,459 381,500.5 381,402 398,360 	"/>
</g>
<g id="Lines">
	<polygon class="st6" points="536.5,250.5 513,308.5 513,185.5 536.5,127.5 	"/>
	<g>
		<g>
			<polyline class="st7" points="525,126.5 501,182 501,235.06 			"/>
			<g>
				<polygon points="493.59,229.44 501,232.59 508.41,229.44 501,247 				"/>
			</g>
		</g>
	</g>
	<line class="st6" x1="276" y1="210.83" x2="301" y2="210.83"/>
	<g>
		<g>
			<polyline class="st7" points="315,190 304,203 304,224.06 			"/>
			<g>
				<polygon points="296.59,218.44 304,221.59 311.41,218.44 304,236 				"/>
			</g>
		</g>
	</g>
	<line class="st6" x1="307" y1="210.83" x2="344" y2="210.83"/>
	<g>
		<g>
			<line class="st7" x1="379" y1="211" x2="437.06" y2="211"/>
			<g>
				<polygon points="431.44,218.41 434.59,211 431.44,203.59 449,211 				"/>
			</g>
		</g>
	</g>
	<polygon class="st6" points="201.5,248.5 178,306.5 178,183.5 201.5,125.5 	"/>
	<g>
		<g>
			<polygon points="189.44,218.41 192.59,211 189.44,203.59 207,211 			"/>
		</g>
	</g>
	<polygon class="st8" points="564,338 540,394 540,519 473,518 473,394 504,338 	"/>
	<polyline class="st8" points="540,519 564,459.5 564,338 540,394 540,519 	"/>
	<polygon class="st9" points="564,459.5 540.5,518.5 540,459 	"/>
	<polygon class="st10" points="540,395 563.5,338.5 504,338 473,394 	"/>
	<g>
		<g>
			<polyline class="st7" points="524,343 502,393 502,446.06 			"/>
			<g>
				<polygon points="494.59,440.44 502,443.59 509.41,440.44 502,458 				"/>
			</g>
		</g>
	</g>
	<polygon class="st6" points="333.5,454.5 310,512.5 310,389.5 333.5,331.5 	"/>
	<g>
		<g>
			<polyline class="st7" points="309,332 292,387 292,440.06 			"/>
			<g>
				<polygon points="284.59,434.44 292,437.59 299.41,434.44 292,452 				"/>
			</g>
		</g>
	</g>
	<polygon class="st6" points="301.5,454.5 278,512.5 278,389.5 301.5,331.5 	"/>
	<polygon class="st6" points="433.5,458.5 410,516.5 410,393.5 433.5,335.5 	"/>
	<polygon class="st6" points="398.5,458.5 375,516.5 375,393.5 398.5,335.5 	"/>
	<g>
		<g>
			<polygon points="420.44,426.41 423.59,419 420.44,411.59 438,419 			"/>
		</g>
	</g>
	<polygon class="st8" points="231,338 207,394 207,519 140,518 140,394 171,338 	"/>
	<polyline class="st8" points="207,519 231,459.5 231,338 207,394 207,519 	"/>
	<polygon class="st9" points="231,459.5 207.5,518.5 207,459 	"/>
	<polygon class="st10" points="207,395 230.5,338.5 171,338 140,394 	"/>
	<g>
		<g>
			<line class="st7" x1="140" y1="518" x2="171.06" y2="518.72"/>
			<g>
				<polygon points="165.28,526 168.59,518.66 165.62,511.19 183,519 				"/>
			</g>
		</g>
	</g>
	<g class="st11">
		<g>
			<polyline class="st7" points="530,343 508,395 508,448.06 			"/>
			<g>
				<polygon points="500.59,442.44 508,445.59 515.41,442.44 508,460 				"/>
			</g>
		</g>
	</g>
</g>
<g id="Text">
	<g>
		<path d="M30.97,228.62l0.58,3.42h0.06l0.64-3.49l4.16-15.26h2.46l-6.78,22.75h-1.28l-6.88-22.75h2.66L30.97,228.62z"/>
		<path d="M48.69,234.6c-0.51,0.47-1.16,0.83-1.95,1.09c-0.79,0.26-1.62,0.38-2.5,0.38c-1,0-1.87-0.2-2.61-0.59
			c-0.74-0.39-1.34-0.96-1.82-1.7c-0.48-0.74-0.83-1.62-1.06-2.64s-0.34-2.18-0.34-3.46c0-2.73,0.5-4.81,1.5-6.24
			c1-1.43,2.42-2.14,4.26-2.14c0.6,0,1.19,0.07,1.78,0.22c0.59,0.15,1.11,0.45,1.58,0.9c0.47,0.45,0.85,1.08,1.14,1.89
			c0.29,0.81,0.43,1.87,0.43,3.17c0,0.36-0.02,0.75-0.05,1.17c-0.03,0.42-0.07,0.85-0.11,1.3h-8.13c0,0.92,0.07,1.75,0.22,2.5
			c0.15,0.75,0.38,1.38,0.7,1.9c0.32,0.52,0.73,0.93,1.23,1.22c0.5,0.29,1.12,0.43,1.87,0.43c0.58,0,1.15-0.11,1.71-0.32
			c0.56-0.21,1-0.47,1.3-0.77L48.69,234.6z M46.9,226.02c0.04-1.6-0.18-2.77-0.67-3.52c-0.49-0.75-1.16-1.12-2.02-1.12
			c-0.98,0-1.76,0.37-2.34,1.12c-0.58,0.75-0.92,1.92-1.02,3.52H46.9z"/>
		<path d="M60.92,234.89c-0.53,0.41-1.14,0.7-1.82,0.9c-0.68,0.19-1.4,0.29-2.14,0.29c-1.02,0-1.89-0.2-2.59-0.59
			c-0.7-0.39-1.28-0.96-1.71-1.7c-0.44-0.74-0.76-1.62-0.96-2.66c-0.2-1.03-0.3-2.18-0.3-3.44c0-2.73,0.48-4.81,1.46-6.24
			c0.97-1.43,2.36-2.14,4.18-2.14c0.83,0,1.55,0.07,2.14,0.22c0.6,0.15,1.11,0.34,1.54,0.58l-0.64,2.02
			c-0.85-0.49-1.78-0.74-2.78-0.74c-1.15,0-2.02,0.51-2.61,1.52c-0.59,1.01-0.88,2.61-0.88,4.78c0,0.88,0.06,1.7,0.19,2.46
			s0.34,1.44,0.64,2c0.3,0.57,0.68,1.01,1.15,1.34c0.47,0.33,1.06,0.5,1.76,0.5c0.55,0,1.07-0.1,1.55-0.29s0.87-0.42,1.17-0.67
			L60.92,234.89z"/>
		<path d="M61.88,219.69h1.95v-3.17l2.3-0.74v3.9h3.46v2.08h-3.46v9.54c0,0.94,0.11,1.62,0.34,2.03s0.59,0.62,1.1,0.62
			c0.43,0,0.79-0.05,1.1-0.14c0.31-0.1,0.65-0.22,1.01-0.37l0.45,1.82c-0.47,0.23-0.99,0.42-1.55,0.56
			c-0.57,0.14-1.16,0.21-1.78,0.21c-1.07,0-1.83-0.35-2.29-1.04c-0.46-0.69-0.69-1.82-0.69-3.38v-9.86h-1.95V219.69z"/>
		<path d="M71.32,227.69c0-2.88,0.5-5,1.49-6.35c0.99-1.35,2.41-2.03,4.24-2.03c1.96,0,3.41,0.69,4.34,2.08
			c0.93,1.39,1.39,3.49,1.39,6.3c0,2.9-0.5,5.02-1.5,6.37c-1,1.34-2.41,2.02-4.22,2.02c-1.96,0-3.41-0.69-4.34-2.08
			C71.78,232.61,71.32,230.5,71.32,227.69z M73.72,227.69c0,0.94,0.06,1.79,0.18,2.56s0.31,1.43,0.58,1.98
			c0.27,0.56,0.61,0.99,1.04,1.3c0.43,0.31,0.94,0.46,1.54,0.46c1.11,0,1.94-0.5,2.5-1.49c0.55-0.99,0.83-2.6,0.83-4.82
			c0-0.92-0.06-1.77-0.18-2.54c-0.12-0.78-0.31-1.44-0.58-2c-0.27-0.55-0.61-0.99-1.04-1.3c-0.43-0.31-0.94-0.46-1.54-0.46
			c-1.09,0-1.92,0.5-2.48,1.5C74,223.89,73.72,225.49,73.72,227.69z"/>
		<path d="M85.85,219.69h1.63l0.42,1.7h0.1c0.3-0.62,0.69-1.1,1.17-1.46c0.48-0.35,1.06-0.53,1.74-0.53c0.49,0,1.04,0.1,1.66,0.29
			l-0.45,2.34c-0.56-0.19-1.05-0.29-1.47-0.29c-0.68,0-1.24,0.2-1.66,0.59c-0.43,0.4-0.7,0.92-0.83,1.58v11.78h-2.3V219.69z"/>
		<path d="M94.36,233.06c0.43,0.26,0.93,0.48,1.52,0.66c0.59,0.18,1.19,0.27,1.81,0.27c0.7,0,1.3-0.18,1.79-0.53
			s0.74-0.93,0.74-1.72c0-0.66-0.15-1.21-0.45-1.64c-0.3-0.43-0.68-0.82-1.14-1.16c-0.46-0.34-0.95-0.66-1.49-0.95
			c-0.53-0.29-1.03-0.63-1.49-1.04c-0.46-0.4-0.84-0.88-1.14-1.44c-0.3-0.55-0.45-1.25-0.45-2.1c0-1.36,0.37-2.39,1.1-3.08
			c0.74-0.69,1.78-1.04,3.12-1.04c0.87,0,1.63,0.08,2.27,0.24c0.64,0.16,1.19,0.38,1.66,0.66l-0.61,1.92
			c-0.41-0.21-0.88-0.39-1.41-0.53c-0.53-0.14-1.08-0.21-1.63-0.21c-0.77,0-1.33,0.16-1.68,0.48c-0.35,0.32-0.53,0.82-0.53,1.5
			c0,0.53,0.15,0.99,0.45,1.36c0.3,0.37,0.68,0.71,1.14,1.02c0.46,0.31,0.95,0.62,1.49,0.94c0.53,0.32,1.03,0.7,1.49,1.14
			c0.46,0.44,0.84,0.96,1.14,1.57c0.3,0.61,0.45,1.37,0.45,2.29c0,0.6-0.1,1.16-0.29,1.7c-0.19,0.53-0.49,1-0.88,1.39
			c-0.4,0.4-0.89,0.71-1.47,0.94c-0.59,0.23-1.27,0.35-2.06,0.35c-0.94,0-1.75-0.09-2.43-0.27c-0.68-0.18-1.26-0.42-1.73-0.72
			L94.36,233.06z"/>
	</g>
	<g>
		<path d="M33.04,396.29h9.95v2.21h-7.55v7.9h7.04v2.21h-7.04v10.08h-2.4V396.29z"/>
		<path d="M45.39,410.69c0-2.88,0.5-5,1.49-6.35c0.99-1.35,2.41-2.03,4.24-2.03c1.96,0,3.41,0.69,4.34,2.08
			c0.93,1.39,1.39,3.49,1.39,6.3c0,2.9-0.5,5.02-1.5,6.37c-1,1.34-2.41,2.02-4.22,2.02c-1.96,0-3.41-0.69-4.34-2.08
			C45.85,415.61,45.39,413.5,45.39,410.69z M47.79,410.69c0,0.94,0.06,1.79,0.18,2.56s0.31,1.43,0.58,1.98
			c0.27,0.55,0.61,0.99,1.04,1.29c0.43,0.31,0.94,0.46,1.54,0.46c1.11,0,1.94-0.5,2.5-1.49c0.55-0.99,0.83-2.6,0.83-4.82
			c0-0.92-0.06-1.76-0.18-2.54c-0.12-0.78-0.31-1.45-0.58-2s-0.61-0.99-1.04-1.3c-0.43-0.31-0.94-0.46-1.54-0.46
			c-1.09,0-1.92,0.5-2.48,1.5C48.07,406.89,47.79,408.49,47.79,410.69z"/>
		<path d="M59.92,402.69h1.63l0.42,1.7h0.1c0.3-0.62,0.69-1.1,1.17-1.46s1.06-0.53,1.74-0.53c0.49,0,1.04,0.1,1.66,0.29l-0.45,2.34
			c-0.56-0.19-1.05-0.29-1.47-0.29c-0.68,0-1.24,0.2-1.66,0.59s-0.7,0.92-0.83,1.58v11.78h-2.3V402.69z"/>
		<path d="M76.17,418.69v-9.5c0-0.85-0.03-1.58-0.08-2.19c-0.05-0.61-0.17-1.1-0.34-1.49c-0.17-0.38-0.41-0.67-0.7-0.85
			s-0.69-0.27-1.18-0.27c-0.73,0-1.34,0.28-1.84,0.85c-0.5,0.56-0.85,1.21-1.04,1.94v11.52h-2.3v-16h1.63l0.42,1.7h0.1
			c0.45-0.62,0.98-1.12,1.6-1.5s1.41-0.58,2.37-0.58c0.81,0,1.48,0.18,2,0.53c0.52,0.35,0.93,0.98,1.23,1.87
			c0.38-0.75,0.93-1.33,1.65-1.76c0.71-0.43,1.5-0.64,2.35-0.64c0.7,0,1.31,0.09,1.81,0.27c0.5,0.18,0.91,0.5,1.22,0.96
			c0.31,0.46,0.54,1.07,0.69,1.82c0.15,0.76,0.22,1.71,0.22,2.87v10.46h-2.3v-10.18c0-1.39-0.13-2.42-0.4-3.1
			c-0.27-0.68-0.88-1.02-1.84-1.02c-0.81,0-1.46,0.25-1.94,0.75c-0.48,0.5-0.82,1.18-1.01,2.03v11.52H76.17z"/>
		<path d="M89.26,416.06c0.43,0.26,0.93,0.47,1.52,0.66c0.59,0.18,1.19,0.27,1.81,0.27c0.7,0,1.3-0.18,1.79-0.53
			s0.74-0.93,0.74-1.72c0-0.66-0.15-1.21-0.45-1.64c-0.3-0.43-0.68-0.81-1.14-1.16c-0.46-0.34-0.95-0.66-1.49-0.95
			c-0.53-0.29-1.03-0.63-1.49-1.04c-0.46-0.4-0.84-0.88-1.14-1.43c-0.3-0.55-0.45-1.25-0.45-2.1c0-1.36,0.37-2.39,1.1-3.08
			c0.74-0.69,1.78-1.04,3.12-1.04c0.87,0,1.63,0.08,2.27,0.24c0.64,0.16,1.19,0.38,1.66,0.66l-0.61,1.92
			c-0.41-0.21-0.88-0.39-1.41-0.53s-1.08-0.21-1.63-0.21c-0.77,0-1.33,0.16-1.68,0.48c-0.35,0.32-0.53,0.82-0.53,1.5
			c0,0.53,0.15,0.99,0.45,1.36c0.3,0.37,0.68,0.71,1.14,1.02c0.46,0.31,0.95,0.62,1.49,0.94c0.53,0.32,1.03,0.7,1.49,1.14
			c0.46,0.44,0.84,0.96,1.14,1.57c0.3,0.61,0.45,1.37,0.45,2.29c0,0.6-0.1,1.16-0.29,1.7c-0.19,0.53-0.49,1-0.88,1.39
			c-0.4,0.4-0.89,0.71-1.47,0.95c-0.59,0.23-1.27,0.35-2.06,0.35c-0.94,0-1.75-0.09-2.43-0.27s-1.26-0.42-1.73-0.72L89.26,416.06z"
			/>
	</g>
	<g>
		<path d="M212.85,34.5h-5.5v20.19h-2.4V34.5h-5.5v-2.21h13.41V34.5z"/>
		<path d="M220.43,38.69l2.85,9.34l0.58,3.07h0.06l0.48-3.14l2.18-9.28h2.18l-4.26,16.35h-1.31l-3.23-10.5l-0.45-2.69h-0.06
			l-0.45,2.72l-3.14,10.46h-1.31l-4.38-16.35h2.4l2.46,9.31l0.45,3.1h0.06l0.58-3.17l2.62-9.25H220.43z"/>
		<path d="M230.73,33.82c0-0.51,0.14-0.93,0.43-1.25c0.29-0.32,0.67-0.48,1.14-0.48s0.86,0.15,1.17,0.46
			c0.31,0.31,0.46,0.73,0.46,1.26c0,0.51-0.16,0.91-0.46,1.2s-0.7,0.43-1.17,0.43s-0.85-0.15-1.14-0.45
			C230.88,34.71,230.73,34.31,230.73,33.82z M231.15,38.69h2.3v16h-2.3V38.69z"/>
		<path d="M237.45,52.06c0.43,0.26,0.93,0.48,1.52,0.66c0.59,0.18,1.19,0.27,1.81,0.27c0.7,0,1.3-0.18,1.79-0.53
			s0.74-0.93,0.74-1.72c0-0.66-0.15-1.21-0.45-1.64c-0.3-0.43-0.68-0.82-1.14-1.16c-0.46-0.34-0.95-0.66-1.49-0.95
			c-0.53-0.29-1.03-0.63-1.49-1.04c-0.46-0.4-0.84-0.88-1.14-1.44c-0.3-0.55-0.45-1.25-0.45-2.1c0-1.36,0.37-2.39,1.1-3.08
			c0.74-0.69,1.78-1.04,3.12-1.04c0.87,0,1.63,0.08,2.27,0.24c0.64,0.16,1.19,0.38,1.66,0.66l-0.61,1.92
			c-0.41-0.21-0.88-0.39-1.41-0.53c-0.53-0.14-1.08-0.21-1.63-0.21c-0.77,0-1.33,0.16-1.68,0.48c-0.35,0.32-0.53,0.82-0.53,1.5
			c0,0.53,0.15,0.99,0.45,1.36c0.3,0.37,0.68,0.71,1.14,1.02c0.46,0.31,0.95,0.62,1.49,0.94c0.53,0.32,1.03,0.7,1.49,1.14
			c0.46,0.44,0.84,0.96,1.14,1.57c0.3,0.61,0.45,1.37,0.45,2.29c0,0.6-0.1,1.16-0.29,1.7c-0.19,0.53-0.49,1-0.88,1.39
			c-0.4,0.4-0.89,0.71-1.47,0.94c-0.59,0.23-1.27,0.35-2.06,0.35c-0.94,0-1.75-0.09-2.43-0.27c-0.68-0.18-1.26-0.42-1.73-0.72
			L237.45,52.06z"/>
		<path d="M246.93,38.69h1.95v-3.17l2.3-0.74v3.9h3.46v2.08h-3.46v9.54c0,0.94,0.11,1.62,0.34,2.03s0.59,0.62,1.1,0.62
			c0.43,0,0.79-0.05,1.1-0.14c0.31-0.1,0.65-0.22,1.01-0.37l0.45,1.82c-0.47,0.23-0.99,0.42-1.55,0.56
			c-0.57,0.14-1.16,0.21-1.78,0.21c-1.07,0-1.83-0.35-2.29-1.04c-0.46-0.69-0.69-1.82-0.69-3.38v-9.86h-1.95V38.69z"/>
		<path d="M266.64,53.6c-0.51,0.47-1.16,0.83-1.95,1.09c-0.79,0.26-1.62,0.38-2.5,0.38c-1,0-1.87-0.2-2.61-0.59
			c-0.74-0.39-1.34-0.96-1.82-1.7c-0.48-0.74-0.83-1.62-1.06-2.64s-0.34-2.18-0.34-3.46c0-2.73,0.5-4.81,1.5-6.24
			c1-1.43,2.42-2.14,4.26-2.14c0.6,0,1.19,0.07,1.78,0.22c0.59,0.15,1.11,0.45,1.58,0.9c0.47,0.45,0.85,1.08,1.14,1.89
			c0.29,0.81,0.43,1.87,0.43,3.17c0,0.36-0.02,0.75-0.05,1.17c-0.03,0.42-0.07,0.85-0.11,1.3h-8.13c0,0.92,0.07,1.75,0.22,2.5
			c0.15,0.75,0.38,1.38,0.7,1.9c0.32,0.52,0.73,0.93,1.23,1.22c0.5,0.29,1.12,0.43,1.87,0.43c0.58,0,1.15-0.11,1.71-0.32
			c0.56-0.21,1-0.47,1.3-0.77L266.64,53.6z M264.85,45.02c0.04-1.6-0.18-2.77-0.67-3.52c-0.49-0.75-1.16-1.12-2.02-1.12
			c-0.98,0-1.76,0.37-2.34,1.12c-0.58,0.75-0.92,1.92-1.02,3.52H264.85z"/>
		<path d="M280.36,49.18c0,1.09,0.01,2.07,0.03,2.96c0.02,0.89,0.1,1.75,0.22,2.61h-1.57l-0.51-1.92h-0.13
			c-0.3,0.64-0.77,1.17-1.41,1.6c-0.64,0.43-1.41,0.64-2.3,0.64c-1.73,0-3.01-0.67-3.86-2.02c-0.84-1.34-1.26-3.46-1.26-6.34
			c0-2.73,0.52-4.8,1.55-6.21c1.03-1.41,2.46-2.11,4.27-2.11c0.62,0,1.11,0.04,1.47,0.11c0.36,0.07,0.76,0.2,1.18,0.37v-6.59h2.3
			V49.18z M278.06,41.22c-0.3-0.26-0.64-0.44-1.01-0.56c-0.37-0.12-0.87-0.18-1.49-0.18c-1.13,0-2.01,0.51-2.64,1.54
			s-0.94,2.6-0.94,4.74c0,0.94,0.06,1.79,0.18,2.54c0.12,0.76,0.3,1.41,0.54,1.97c0.24,0.55,0.56,0.98,0.96,1.28
			c0.39,0.3,0.88,0.45,1.46,0.45c1.54,0,2.52-0.91,2.94-2.72V41.22z"/>
	</g>
	<g>
		<path d="M410.31,32.29h2.3V47.3c0,2.71-0.53,4.67-1.58,5.87c-1.06,1.21-2.55,1.81-4.5,1.81c-2.26,0-3.91-0.59-4.94-1.76
			c-1.04-1.17-1.55-2.98-1.55-5.41V32.29h2.4v14.27c0,1.15,0.07,2.12,0.22,2.91c0.15,0.79,0.39,1.43,0.74,1.92
			c0.34,0.49,0.77,0.84,1.28,1.06c0.51,0.21,1.14,0.32,1.89,0.32c1.41,0,2.38-0.49,2.93-1.47c0.54-0.98,0.82-2.56,0.82-4.74V32.29z"
			/>
		<path d="M424.74,54.69v-9.76c0-1.6-0.19-2.76-0.56-3.47c-0.37-0.71-1.04-1.07-2-1.07c-0.85,0-1.56,0.26-2.11,0.77
			c-0.56,0.51-0.96,1.14-1.22,1.89v11.65h-2.3v-16h1.66l0.42,1.7h0.1c0.41-0.58,0.95-1.07,1.65-1.47s1.52-0.61,2.48-0.61
			c0.68,0,1.29,0.1,1.81,0.29c0.52,0.19,0.96,0.52,1.31,0.98c0.35,0.46,0.62,1.07,0.8,1.84c0.18,0.77,0.27,1.74,0.27,2.91v10.37
			H424.74z"/>
		<path d="M429,38.69h1.95v-3.17l2.3-0.74v3.9h3.46v2.08h-3.46v9.54c0,0.94,0.11,1.62,0.34,2.03c0.22,0.42,0.59,0.62,1.1,0.62
			c0.43,0,0.79-0.05,1.1-0.14c0.31-0.1,0.65-0.22,1.01-0.37l0.45,1.82c-0.47,0.23-0.99,0.42-1.55,0.56
			c-0.57,0.14-1.16,0.21-1.78,0.21c-1.07,0-1.83-0.35-2.29-1.04c-0.46-0.69-0.69-1.82-0.69-3.38v-9.86H429V38.69z"/>
		<path d="M447.94,38.69l2.85,9.34l0.58,3.07h0.06l0.48-3.14l2.18-9.28h2.18l-4.26,16.35h-1.31l-3.23-10.5l-0.45-2.69h-0.06
			l-0.45,2.72l-3.14,10.46h-1.31l-4.38-16.35h2.4l2.46,9.31l0.45,3.1h0.06l0.58-3.17l2.62-9.25H447.94z"/>
		<path d="M458.25,33.82c0-0.51,0.14-0.93,0.43-1.25c0.29-0.32,0.67-0.48,1.13-0.48c0.47,0,0.86,0.15,1.17,0.46
			c0.31,0.31,0.46,0.73,0.46,1.26c0,0.51-0.16,0.91-0.46,1.2c-0.31,0.29-0.7,0.43-1.17,0.43c-0.47,0-0.85-0.15-1.13-0.45
			C458.39,34.71,458.25,34.31,458.25,33.82z M458.66,38.69h2.3v16h-2.3V38.69z"/>
		<path d="M464.96,52.06c0.43,0.26,0.93,0.48,1.52,0.66c0.59,0.18,1.19,0.27,1.81,0.27c0.7,0,1.3-0.18,1.79-0.53
			s0.74-0.93,0.74-1.72c0-0.66-0.15-1.21-0.45-1.64c-0.3-0.43-0.68-0.82-1.14-1.16c-0.46-0.34-0.95-0.66-1.49-0.95
			c-0.53-0.29-1.03-0.63-1.49-1.04c-0.46-0.4-0.84-0.88-1.14-1.44c-0.3-0.55-0.45-1.25-0.45-2.1c0-1.36,0.37-2.39,1.1-3.08
			s1.78-1.04,3.12-1.04c0.88,0,1.63,0.08,2.27,0.24s1.19,0.38,1.66,0.66l-0.61,1.92c-0.4-0.21-0.88-0.39-1.41-0.53
			c-0.53-0.14-1.08-0.21-1.63-0.21c-0.77,0-1.33,0.16-1.68,0.48c-0.35,0.32-0.53,0.82-0.53,1.5c0,0.53,0.15,0.99,0.45,1.36
			c0.3,0.37,0.68,0.71,1.13,1.02c0.46,0.31,0.96,0.62,1.49,0.94c0.53,0.32,1.03,0.7,1.49,1.14c0.46,0.44,0.84,0.96,1.14,1.57
			c0.3,0.61,0.45,1.37,0.45,2.29c0,0.6-0.1,1.16-0.29,1.7c-0.19,0.53-0.49,1-0.88,1.39c-0.39,0.4-0.89,0.71-1.47,0.94
			c-0.59,0.23-1.27,0.35-2.06,0.35c-0.94,0-1.75-0.09-2.43-0.27c-0.68-0.18-1.26-0.42-1.73-0.72L464.96,52.06z"/>
		<path d="M474.44,38.69h1.95v-3.17l2.3-0.74v3.9h3.46v2.08h-3.46v9.54c0,0.94,0.11,1.62,0.34,2.03c0.22,0.42,0.59,0.62,1.1,0.62
			c0.43,0,0.79-0.05,1.1-0.14c0.31-0.1,0.65-0.22,1.01-0.37l0.45,1.82c-0.47,0.23-0.99,0.42-1.55,0.56
			c-0.57,0.14-1.16,0.21-1.78,0.21c-1.07,0-1.83-0.35-2.29-1.04c-0.46-0.69-0.69-1.82-0.69-3.38v-9.86h-1.95V38.69z"/>
		<path d="M494.15,53.6c-0.51,0.47-1.16,0.83-1.95,1.09c-0.79,0.26-1.62,0.38-2.5,0.38c-1,0-1.87-0.2-2.61-0.59
			c-0.74-0.39-1.34-0.96-1.82-1.7c-0.48-0.74-0.83-1.62-1.06-2.64s-0.34-2.18-0.34-3.46c0-2.73,0.5-4.81,1.5-6.24
			c1-1.43,2.42-2.14,4.26-2.14c0.6,0,1.19,0.07,1.78,0.22c0.59,0.15,1.11,0.45,1.58,0.9c0.47,0.45,0.85,1.08,1.14,1.89
			c0.29,0.81,0.43,1.87,0.43,3.17c0,0.36-0.02,0.75-0.05,1.17c-0.03,0.42-0.07,0.85-0.11,1.3h-8.13c0,0.92,0.07,1.75,0.22,2.5
			c0.15,0.75,0.38,1.38,0.7,1.9c0.32,0.52,0.73,0.93,1.23,1.22c0.5,0.29,1.12,0.43,1.87,0.43c0.58,0,1.15-0.11,1.71-0.32
			c0.56-0.21,1-0.47,1.29-0.77L494.15,53.6z M492.36,45.02c0.04-1.6-0.18-2.77-0.67-3.52c-0.49-0.75-1.16-1.12-2.02-1.12
			c-0.98,0-1.76,0.37-2.34,1.12c-0.58,0.75-0.92,1.92-1.02,3.52H492.36z"/>
		<path d="M507.88,49.18c0,1.09,0.01,2.07,0.03,2.96s0.1,1.75,0.22,2.61h-1.57l-0.51-1.92h-0.13c-0.3,0.64-0.77,1.17-1.41,1.6
			c-0.64,0.43-1.41,0.64-2.3,0.64c-1.73,0-3.01-0.67-3.86-2.02c-0.84-1.34-1.26-3.46-1.26-6.34c0-2.73,0.52-4.8,1.55-6.21
			c1.04-1.41,2.46-2.11,4.27-2.11c0.62,0,1.11,0.04,1.47,0.11c0.36,0.07,0.76,0.2,1.18,0.37v-6.59h2.3V49.18z M505.57,41.22
			c-0.3-0.26-0.63-0.44-1.01-0.56c-0.37-0.12-0.87-0.18-1.49-0.18c-1.13,0-2.01,0.51-2.64,1.54s-0.94,2.6-0.94,4.74
			c0,0.94,0.06,1.79,0.18,2.54c0.12,0.76,0.3,1.41,0.54,1.97c0.24,0.55,0.56,0.98,0.96,1.28c0.39,0.3,0.88,0.45,1.46,0.45
			c1.54,0,2.52-0.91,2.94-2.72V41.22z"/>
	</g>
	<g>
		<path d="M177.09,110.69h-7.78v-0.77c0.3-0.37,0.65-0.83,1.04-1.39c0.39-0.56,0.8-1.17,1.22-1.84c0.42-0.66,0.84-1.37,1.25-2.11
			c0.41-0.74,0.77-1.5,1.09-2.27c0.32-0.77,0.58-1.53,0.78-2.28c0.2-0.75,0.3-1.47,0.3-2.16c0-0.82-0.18-1.47-0.55-1.97
			c-0.37-0.5-0.92-0.74-1.66-0.74c-0.46,0-0.92,0.09-1.36,0.26c-0.44,0.18-0.82,0.39-1.14,0.65l-0.67-1.25
			c0.45-0.38,0.98-0.68,1.6-0.9c0.62-0.22,1.27-0.32,1.96-0.32c1.18,0,2.08,0.37,2.7,1.1c0.62,0.73,0.92,1.69,0.92,2.88
			c0,0.88-0.13,1.81-0.4,2.77c-0.26,0.96-0.6,1.91-1.01,2.85c-0.41,0.94-0.86,1.84-1.36,2.71s-0.98,1.64-1.46,2.31l-0.98,1.06v0.07
			l1.27-0.22h4.22V110.69z"/>
		<path d="M180.33,93.89c0.26-0.05,0.54-0.08,0.85-0.11c0.31-0.02,0.63-0.04,0.95-0.05c0.32-0.01,0.64-0.02,0.95-0.02
			c0.31-0.01,0.6-0.01,0.88-0.01c1.17,0,2.16,0.2,2.98,0.6c0.82,0.4,1.48,0.97,1.99,1.72c0.51,0.74,0.88,1.64,1.1,2.68
			s0.34,2.2,0.34,3.48c0,1.15-0.11,2.26-0.32,3.31c-0.22,1.06-0.58,1.98-1.09,2.78c-0.51,0.8-1.19,1.44-2.03,1.92
			s-1.89,0.72-3.16,0.72c-0.21,0-0.47,0-0.79-0.01c-0.32-0.01-0.65-0.02-1-0.05c-0.34-0.02-0.66-0.04-0.96-0.06
			c-0.3-0.02-0.52-0.04-0.68-0.07V93.89z M184.05,95.35c-0.16,0-0.33,0-0.52,0c-0.18,0-0.36,0.01-0.54,0.02
			c-0.18,0.02-0.34,0.03-0.49,0.05c-0.15,0.02-0.28,0.03-0.37,0.05v13.68c0.06,0.02,0.18,0.03,0.35,0.04
			c0.17,0.01,0.34,0.02,0.53,0.02c0.18,0.01,0.36,0.02,0.53,0.02c0.17,0.01,0.29,0.01,0.37,0.01c0.88,0,1.62-0.19,2.21-0.58
			c0.59-0.38,1.06-0.9,1.4-1.55c0.34-0.65,0.59-1.4,0.73-2.26s0.22-1.76,0.22-2.72c0-0.85-0.06-1.68-0.19-2.5
			c-0.13-0.82-0.36-1.54-0.68-2.17c-0.33-0.63-0.78-1.14-1.34-1.54C185.67,95.55,184.94,95.35,184.05,95.35z"/>
	</g>
	<g>
		<path d="M298.25,109.13h2.71V97.4l0.22-1.42l-0.82,1.15l-2.02,1.63l-0.91-1.08l4.37-4.08h0.89v15.53h2.62v1.56h-7.06V109.13z"/>
		<path d="M308.33,93.89c0.26-0.05,0.54-0.08,0.85-0.11c0.31-0.02,0.63-0.04,0.95-0.05c0.32-0.01,0.64-0.02,0.95-0.02
			c0.31-0.01,0.6-0.01,0.88-0.01c1.17,0,2.16,0.2,2.98,0.6c0.82,0.4,1.48,0.97,1.99,1.72c0.51,0.74,0.88,1.64,1.1,2.68
			s0.34,2.2,0.34,3.48c0,1.15-0.11,2.26-0.32,3.31c-0.22,1.06-0.58,1.98-1.09,2.78c-0.51,0.8-1.19,1.44-2.03,1.92
			s-1.89,0.72-3.16,0.72c-0.21,0-0.47,0-0.79-0.01c-0.32-0.01-0.65-0.02-1-0.05c-0.34-0.02-0.66-0.04-0.96-0.06
			c-0.3-0.02-0.52-0.04-0.68-0.07V93.89z M312.05,95.35c-0.16,0-0.33,0-0.52,0c-0.18,0-0.36,0.01-0.54,0.02
			c-0.18,0.02-0.34,0.03-0.49,0.05c-0.15,0.02-0.28,0.03-0.37,0.05v13.68c0.06,0.02,0.18,0.03,0.35,0.04
			c0.17,0.01,0.34,0.02,0.53,0.02c0.18,0.01,0.36,0.02,0.53,0.02c0.17,0.01,0.29,0.01,0.37,0.01c0.88,0,1.62-0.19,2.21-0.58
			c0.59-0.38,1.06-0.9,1.4-1.55c0.34-0.65,0.59-1.4,0.73-2.26s0.22-1.76,0.22-2.72c0-0.85-0.06-1.68-0.19-2.5
			c-0.13-0.82-0.36-1.54-0.68-2.17c-0.33-0.63-0.78-1.14-1.34-1.54C313.67,95.55,312.94,95.35,312.05,95.35z"/>
	</g>
	<g>
		<path d="M392.25,109.13h2.71V97.4l0.22-1.42l-0.82,1.15l-2.02,1.63l-0.91-1.08l4.37-4.08h0.89v15.53h2.62v1.56h-7.06V109.13z"/>
		<path d="M402.33,93.89c0.26-0.05,0.54-0.08,0.85-0.11c0.31-0.02,0.63-0.04,0.95-0.05c0.32-0.01,0.64-0.02,0.95-0.02
			c0.31-0.01,0.6-0.01,0.88-0.01c1.17,0,2.16,0.2,2.98,0.6c0.82,0.4,1.48,0.97,1.99,1.72c0.51,0.74,0.88,1.64,1.1,2.68
			s0.34,2.2,0.34,3.48c0,1.15-0.11,2.26-0.32,3.31c-0.22,1.06-0.58,1.98-1.09,2.78c-0.51,0.8-1.19,1.44-2.03,1.92
			s-1.89,0.72-3.16,0.72c-0.21,0-0.47,0-0.79-0.01c-0.32-0.01-0.65-0.02-1-0.05c-0.34-0.02-0.66-0.04-0.96-0.06
			c-0.3-0.02-0.52-0.04-0.68-0.07V93.89z M406.04,95.35c-0.16,0-0.33,0-0.52,0s-0.36,0.01-0.54,0.02c-0.18,0.02-0.34,0.03-0.49,0.05
			c-0.15,0.02-0.28,0.03-0.37,0.05v13.68c0.06,0.02,0.18,0.03,0.35,0.04c0.17,0.01,0.34,0.02,0.53,0.02
			c0.18,0.01,0.36,0.02,0.53,0.02c0.17,0.01,0.29,0.01,0.37,0.01c0.88,0,1.62-0.19,2.21-0.58c0.59-0.38,1.06-0.9,1.4-1.55
			s0.59-1.4,0.73-2.26c0.14-0.86,0.21-1.76,0.21-2.72c0-0.85-0.06-1.68-0.19-2.5c-0.13-0.82-0.36-1.54-0.68-2.17
			c-0.33-0.63-0.78-1.14-1.34-1.54C407.67,95.55,406.94,95.35,406.04,95.35z"/>
	</g>
	<g>
		<path d="M518.09,110.69h-7.78v-0.77c0.3-0.37,0.65-0.83,1.04-1.39c0.39-0.56,0.8-1.17,1.22-1.84c0.42-0.66,0.84-1.37,1.25-2.11
			s0.77-1.5,1.09-2.27s0.58-1.53,0.78-2.28c0.2-0.75,0.3-1.47,0.3-2.16c0-0.82-0.18-1.47-0.55-1.97c-0.37-0.5-0.92-0.74-1.66-0.74
			c-0.46,0-0.92,0.09-1.36,0.26c-0.44,0.18-0.82,0.39-1.14,0.65l-0.67-1.25c0.45-0.38,0.98-0.68,1.6-0.9
			c0.62-0.22,1.27-0.32,1.96-0.32c1.18,0,2.08,0.37,2.7,1.1c0.62,0.73,0.92,1.69,0.92,2.88c0,0.88-0.13,1.81-0.4,2.77
			c-0.26,0.96-0.6,1.91-1.01,2.85c-0.41,0.94-0.86,1.84-1.36,2.71s-0.98,1.64-1.46,2.31l-0.98,1.06v0.07l1.27-0.22h4.22V110.69z"/>
		<path d="M521.33,93.89c0.26-0.05,0.54-0.08,0.85-0.11c0.31-0.02,0.63-0.04,0.95-0.05c0.32-0.01,0.64-0.02,0.95-0.02
			c0.31-0.01,0.6-0.01,0.88-0.01c1.17,0,2.16,0.2,2.98,0.6c0.82,0.4,1.48,0.97,1.99,1.72c0.51,0.74,0.88,1.64,1.1,2.68
			s0.34,2.2,0.34,3.48c0,1.15-0.11,2.26-0.32,3.31c-0.22,1.06-0.58,1.98-1.09,2.78c-0.51,0.8-1.19,1.44-2.03,1.92
			s-1.89,0.72-3.16,0.72c-0.21,0-0.47,0-0.79-0.01c-0.32-0.01-0.65-0.02-1-0.05c-0.34-0.02-0.66-0.04-0.96-0.06
			c-0.3-0.02-0.52-0.04-0.68-0.07V93.89z M525.04,95.35c-0.16,0-0.33,0-0.52,0s-0.36,0.01-0.54,0.02c-0.18,0.02-0.34,0.03-0.49,0.05
			c-0.15,0.02-0.28,0.03-0.37,0.05v13.68c0.06,0.02,0.18,0.03,0.35,0.04c0.17,0.01,0.34,0.02,0.53,0.02
			c0.18,0.01,0.36,0.02,0.53,0.02c0.17,0.01,0.29,0.01,0.37,0.01c0.88,0,1.62-0.19,2.21-0.58c0.59-0.38,1.06-0.9,1.4-1.55
			s0.59-1.4,0.73-2.26c0.14-0.86,0.21-1.76,0.21-2.72c0-0.85-0.06-1.68-0.19-2.5c-0.13-0.82-0.36-1.54-0.68-2.17
			c-0.33-0.63-0.78-1.14-1.34-1.54C526.67,95.55,525.94,95.35,525.04,95.35z"/>
	</g>
	<g>
	</g>
	<g>
	</g>
	<g>
	</g>
	<g>
	</g>
	<g>
	</g>
	<g>
	</g>
	<g>
	</g>
	<g>
	</g>
	<g>
	</g>
	<g>
	</g>
	<g>
	</g>
	<g>
	</g>
</g>
</svg>
